ply
format ascii 1.0
comment Created by Open3D
element vertex 689
property double x
property double y
property double z
property uchar red
property uchar green
property uchar blue
end_header
127 15 157 0 0 0
127 14 159 0 0 0
127 15 158 0 0 0
127 15 159 0 0 0
127 17 155 0 0 0
127 19 153 0 0 0
127 18 154 0 0 0
127 18 155 0 0 0
127 19 154 0 0 0
127 19 155 0 0 0
127 16 157 0 0 0
127 17 156 0 0 0
127 17 157 0 0 0
126 17 159 0 0 0
127 16 158 0 0 0
127 16 159 0 0 0
127 17 158 0 0 0
127 17 159 0 0 0
127 18 156 0 0 0
127 18 157 0 0 0
127 19 156 0 0 0
127 19 157 0 0 0
126 18 158 0 0 0
126 18 159 0 0 0
126 19 158 0 0 0
126 19 159 0 0 0
127 18 158 0 0 0
127 20 153 0 0 0
127 21 153 0 0 0
127 20 154 0 0 0
127 20 155 0 0 0
127 21 154 0 0 0
127 21 155 0 0 0
127 22 155 0 0 0
127 20 156 0 0 0
127 20 157 0 0 0
127 21 156 0 0 0
127 21 157 0 0 0
126 20 158 0 0 0
126 20 159 0 0 0
126 21 159 0 0 0
127 20 158 0 0 0
127 21 158 0 0 0
127 21 159 0 0 0
127 22 156 0 0 0
127 22 157 0 0 0
127 23 157 0 0 0
127 22 158 0 0 0
127 22 159 0 0 0
127 23 158 0 0 0
127 23 159 0 0 0
127 14 160 0 0 0
127 14 161 0 0 0
127 15 160 0 0 0
127 15 161 0 0 0
126 15 162 0 0 0
126 15 163 0 0 0
127 14 162 0 0 0
127 14 163 0 0 0
127 15 162 0 0 0
127 15 163 0 0 0
127 13 166 0 0 0
127 13 167 0 0 0
126 15 164 0 0 0
126 15 165 0 0 0
127 14 164 0 0 0
127 14 165 0 0 0
127 15 164 0 0 0
126 15 166 0 0 0
126 15 167 0 0 0
127 14 166 0 0 0
127 14 167 0 0 0
127 13 168 0 0 0
127 13 169 0 0 0
127 13 170 0 0 0
127 13 171 0 0 0
126 14 168 0 0 0
126 14 169 0 0 0
126 15 168 0 0 0
126 15 169 0 0 0
127 14 168 0 0 0
127 14 169 0 0 0
126 15 170 0 0 0
126 15 171 0 0 0
127 14 170 0 0 0
127 14 171 0 0 0
127 12 173 0 0 0
127 13 172 0 0 0
127 13 173 0 0 0
127 12 174 0 0 0
127 12 175 0 0 0
127 13 174 0 0 0
127 13 175 0 0 0
126 14 172 0 0 0
126 14 173 0 0 0
126 15 172 0 0 0
126 15 173 0 0 0
127 14 172 0 0 0
127 14 173 0 0 0
126 14 174 0 0 0
126 14 175 0 0 0
126 15 174 0 0 0
126 15 175 0 0 0
127 14 174 0 0 0
127 14 175 0 0 0
127 12 176 0 0 0
127 12 177 0 0 0
127 13 176 0 0 0
127 13 177 0 0 0
127 13 178 0 0 0
127 13 179 0 0 0
126 14 176 0 0 0
126 14 177 0 0 0
126 15 176 0 0 0
126 15 177 0 0 0
127 14 176 0 0 0
127 14 177 0 0 0
126 14 178 0 0 0
126 15 178 0 0 0
126 15 179 0 0 0
127 14 178 0 0 0
127 14 179 0 0 0
126 15 180 0 0 0
126 15 181 0 0 0
127 14 180 0 0 0
127 14 181 0 0 0
127 15 181 0 0 0
126 15 182 0 0 0
127 14 182 0 0 0
127 14 183 0 0 0
127 15 182 0 0 0
127 15 183 0 0 0
127 11 190 0 0 0
127 11 191 0 0 0
127 15 184 0 0 0
127 15 185 0 0 0
127 15 186 0 0 0
127 15 187 0 0 0
127 13 189 0 0 0
127 12 190 0 0 0
127 12 191 0 0 0
127 13 190 0 0 0
127 13 191 0 0 0
127 14 188 0 0 0
127 14 189 0 0 0
127 15 188 0 0 0
127 15 189 0 0 0
127 14 190 0 0 0
127 14 191 0 0 0
127 15 190 0 0 0
127 15 191 0 0 0
125 17 163 0 0 0
125 18 162 0 0 0
125 18 163 0 0 0
125 19 162 0 0 0
125 19 163 0 0 0
126 16 160 0 0 0
126 16 161 0 0 0
126 17 160 0 0 0
126 17 161 0 0 0
127 16 160 0 0 0
126 16 162 0 0 0
126 16 163 0 0 0
126 17 162 0 0 0
126 17 163 0 0 0
126 18 160 0 0 0
126 18 161 0 0 0
126 19 160 0 0 0
126 19 161 0 0 0
126 18 162 0 0 0
126 19 162 0 0 0
125 17 164 0 0 0
125 17 165 0 0 0
125 16 167 0 0 0
125 17 166 0 0 0
125 17 167 0 0 0
125 18 164 0 0 0
125 18 165 0 0 0
125 19 164 0 0 0
125 19 165 0 0 0
125 18 166 0 0 0
125 18 167 0 0 0
125 19 166 0 0 0
125 19 167 0 0 0
126 16 164 0 0 0
126 16 165 0 0 0
126 17 164 0 0 0
126 16 166 0 0 0
126 16 167 0 0 0
125 20 162 0 0 0
125 20 163 0 0 0
125 21 163 0 0 0
126 20 160 0 0 0
126 20 161 0 0 0
126 21 160 0 0 0
126 21 161 0 0 0
126 20 162 0 0 0
126 21 162 0 0 0
126 21 163 0 0 0
126 22 160 0 0 0
126 22 161 0 0 0
127 22 160 0 0 0
127 22 161 0 0 0
127 23 160 0 0 0
127 23 161 0 0 0
126 22 162 0 0 0
126 22 163 0 0 0
126 23 163 0 0 0
127 23 162 0 0 0
127 23 163 0 0 0
125 20 164 0 0 0
125 20 165 0 0 0
125 21 164 0 0 0
125 21 165 0 0 0
125 20 166 0 0 0
125 20 167 0 0 0
125 21 166 0 0 0
125 21 167 0 0 0
125 22 165 0 0 0
125 22 166 0 0 0
125 22 167 0 0 0
126 21 164 0 0 0
126 22 164 0 0 0
126 22 165 0 0 0
126 23 164 0 0 0
126 23 165 0 0 0
127 23 164 0 0 0
126 22 166 0 0 0
126 22 167 0 0 0
126 23 166 0 0 0
126 23 167 0 0 0
125 16 168 0 0 0
125 16 169 0 0 0
125 17 168 0 0 0
125 17 169 0 0 0
125 16 170 0 0 0
125 16 171 0 0 0
125 17 170 0 0 0
125 17 171 0 0 0
125 18 168 0 0 0
125 18 169 0 0 0
125 19 168 0 0 0
125 19 169 0 0 0
125 18 170 0 0 0
125 18 171 0 0 0
125 19 170 0 0 0
125 19 171 0 0 0
126 16 168 0 0 0
126 16 169 0 0 0
126 16 170 0 0 0
126 16 171 0 0 0
125 17 172 0 0 0
125 17 173 0 0 0
125 17 174 0 0 0
125 17 175 0 0 0
125 18 172 0 0 0
125 18 173 0 0 0
125 19 172 0 0 0
125 19 173 0 0 0
125 18 174 0 0 0
125 18 175 0 0 0
125 19 174 0 0 0
125 19 175 0 0 0
126 16 172 0 0 0
126 16 173 0 0 0
126 16 174 0 0 0
126 16 175 0 0 0
125 20 168 0 0 0
125 20 169 0 0 0
125 21 168 0 0 0
125 21 169 0 0 0
125 20 170 0 0 0
125 20 171 0 0 0
125 21 170 0 0 0
125 21 171 0 0 0
125 22 168 0 0 0
125 22 169 0 0 0
125 22 170 0 0 0
125 22 171 0 0 0
125 23 170 0 0 0
125 23 171 0 0 0
126 22 168 0 0 0
126 23 168 0 0 0
126 23 169 0 0 0
126 23 170 0 0 0
126 23 171 0 0 0
125 20 172 0 0 0
125 20 173 0 0 0
125 21 172 0 0 0
125 21 173 0 0 0
125 20 174 0 0 0
125 20 175 0 0 0
125 21 174 0 0 0
125 21 175 0 0 0
125 22 172 0 0 0
125 22 173 0 0 0
125 23 172 0 0 0
125 23 173 0 0 0
125 22 174 0 0 0
125 22 175 0 0 0
125 23 174 0 0 0
125 23 175 0 0 0
126 23 172 0 0 0
127 24 161 0 0 0
127 24 162 0 0 0
127 24 163 0 0 0
127 24 164 0 0 0
127 24 165 0 0 0
126 24 167 0 0 0
127 24 166 0 0 0
127 24 167 0 0 0
127 25 167 0 0 0
126 24 168 1 0 0
126 24 169 0 0 0
127 24 168 1 0 0
127 24 169 0 0 0
127 25 168 1 0 0
127 25 169 1 0 0
126 24 170 0 0 0
126 24 171 0 0 0
127 25 170 1 0 0
127 25 171 1 0 0
126 24 172 1 0 0
126 24 173 1 0 0
126 25 172 1 0 0
126 25 173 1 0 0
127 25 172 1 0 0
127 25 173 1 0 0
126 24 174 0 0 0
126 24 175 0 0 0
126 25 174 1 0 0
126 25 175 0 0 0
127 25 174 1 0 0
127 26 172 1 0 0
127 26 173 1 0 0
127 26 174 1 0 0
127 26 175 1 0 0
125 17 176 0 0 0
125 17 177 0 0 0
125 16 178 0 0 0
125 16 179 0 0 0
125 17 178 0 0 0
125 17 179 0 0 0
125 18 176 0 0 0
125 18 177 0 0 0
125 19 176 0 0 0
125 19 177 0 0 0
125 18 178 0 0 0
125 18 179 0 0 0
125 19 178 0 0 0
125 19 179 0 0 0
126 16 176 0 0 0
126 16 177 0 0 0
126 16 178 0 0 0
126 16 179 0 0 0
125 16 180 0 0 0
125 16 181 0 0 0
125 17 180 0 0 0
125 17 181 0 0 0
125 16 182 0 0 0
125 16 183 0 0 0
125 17 182 0 0 0
125 17 183 0 0 0
124 18 181 0 0 0
124 19 180 0 0 0
124 19 181 0 0 0
125 18 180 0 0 0
125 18 181 0 0 0
125 19 180 0 0 0
124 18 182 0 0 0
124 18 183 0 0 0
124 19 182 0 0 0
124 19 183 0 0 0
125 18 182 0 0 0
125 18 183 0 0 0
126 16 180 0 0 0
126 16 181 0 0 0
126 16 182 0 0 0
126 16 183 0 0 0
125 20 176 0 0 0
125 20 177 0 0 0
125 21 176 0 0 0
125 21 177 0 0 0
124 20 179 0 0 0
125 20 178 0 0 0
125 20 179 0 0 0
125 21 178 0 0 0
125 21 179 0 0 0
125 22 176 0 0 0
125 22 177 0 0 0
125 23 176 0 0 0
125 23 177 0 0 0
125 22 178 0 0 0
125 22 179 0 0 0
125 23 178 0 0 0
125 23 179 0 0 0
124 20 180 0 0 0
124 20 181 0 0 0
124 21 180 0 0 0
124 21 181 0 0 0
125 21 180 0 0 0
125 21 181 0 0 0
124 20 182 0 0 0
124 20 183 0 0 0
124 21 182 0 0 0
124 21 183 0 0 0
125 21 182 0 0 0
125 21 183 0 0 0
125 22 180 0 0 0
125 22 181 0 0 0
125 23 180 0 0 0
125 23 181 0 0 0
125 22 182 0 0 0
125 22 183 0 0 0
125 23 182 0 0 0
125 23 183 0 0 0
125 17 184 0 0 0
125 17 185 0 0 0
124 19 184 0 0 0
124 19 185 0 0 0
125 18 184 0 0 0
125 18 185 0 0 0
124 19 186 0 0 0
125 18 186 0 0 0
125 18 187 0 0 0
125 19 186 0 0 0
125 19 187 0 0 0
126 16 184 0 0 0
126 16 185 0 0 0
126 17 184 0 0 0
126 17 185 0 0 0
127 16 184 0 0 0
127 16 185 0 0 0
126 17 186 0 0 0
126 17 187 0 0 0
127 16 186 0 0 0
127 16 187 0 0 0
125 18 188 0 0 0
125 18 189 0 0 0
125 19 188 0 0 0
125 19 189 0 0 0
125 18 190 0 0 0
125 18 191 0 0 0
125 19 190 0 0 0
125 19 191 0 0 0
126 17 188 0 0 0
126 17 189 0 0 0
127 16 188 0 0 0
127 16 189 0 0 0
126 17 190 0 0 0
126 17 191 0 0 0
127 16 190 0 0 0
127 16 191 0 0 0
126 18 191 0 0 0
124 20 184 0 0 0
124 20 185 0 0 0
124 21 184 0 0 0
124 21 185 0 0 0
125 21 184 0 0 0
125 21 185 0 0 0
124 20 186 0 0 0
124 20 187 0 0 0
124 21 186 0 0 0
125 20 187 0 0 0
125 21 186 0 0 0
125 21 187 0 0 0
125 22 184 0 0 0
125 22 185 0 0 0
125 23 184 0 0 0
125 23 185 0 0 0
125 22 186 0 0 0
125 22 187 0 0 0
125 23 186 0 0 0
125 23 187 0 0 0
125 20 188 0 0 0
125 20 189 0 0 0
125 21 188 0 0 0
125 21 189 0 0 0
125 20 190 0 0 0
125 20 191 0 0 0
125 21 190 0 0 0
125 21 191 0 0 0
125 22 188 0 0 0
125 22 189 0 0 0
125 23 188 0 0 0
125 23 189 0 0 0
125 22 190 0 0 0
125 22 191 0 0 0
125 23 190 0 0 0
125 23 191 0 0 0
125 24 176 0 0 0
125 24 177 0 0 0
125 24 178 0 0 0
125 24 179 0 0 0
126 24 176 0 0 0
126 24 177 0 0 0
126 25 176 0 0 0
126 25 177 0 0 0
127 25 177 1 0 0
126 24 178 0 0 0
126 24 179 0 0 0
126 25 178 0 0 0
126 25 179 0 0 0
127 26 176 1 0 0
127 26 177 1 0 0
127 26 178 1 0 0
127 26 179 0 0 0
127 27 179 1 0 0
125 24 180 0 0 0
125 24 181 0 0 0
125 24 182 0 0 0
125 24 183 0 0 0
126 24 181 0 0 0
126 25 180 0 0 0
126 25 181 0 0 0
126 24 182 0 0 0
126 24 183 0 0 0
126 25 182 0 0 0
126 25 183 0 0 0
126 26 180 0 0 0
126 26 181 0 0 0
127 26 180 0 0 0
127 26 181 0 0 0
127 27 180 1 0 0
127 27 181 1 0 0
126 26 182 0 0 0
126 26 183 0 0 0
127 26 182 0 0 0
127 26 183 0 0 0
127 27 182 1 0 0
127 27 183 1 0 0
125 24 184 0 0 0
125 24 185 0 0 0
125 24 186 0 0 0
125 24 187 0 0 0
126 25 184 0 0 0
126 25 185 0 0 0
126 24 186 0 0 0
126 24 187 0 0 0
126 25 186 0 0 0
126 25 187 0 0 0
126 26 184 0 0 0
126 26 185 0 0 0
127 26 184 0 0 0
127 26 185 0 0 0
127 27 184 1 0 0
127 27 185 1 0 0
126 26 186 0 0 0
126 26 187 0 0 0
127 26 186 0 0 0
127 26 187 0 0 0
127 27 186 0 0 0
127 27 187 0 0 0
125 24 188 0 0 0
125 24 189 0 0 0
125 24 190 0 0 0
125 24 191 0 0 0
126 24 188 0 0 0
126 25 188 0 0 0
126 25 189 0 0 0
126 24 190 0 0 0
126 24 191 0 0 0
126 25 190 0 0 0
126 25 191 0 0 0
126 26 188 0 0 0
126 26 189 0 0 0
127 26 188 0 0 0
127 26 189 0 0 0
127 27 188 0 0 0
127 27 189 0 0 0
126 26 190 0 0 0
126 26 191 0 0 0
127 26 190 0 0 0
127 26 191 0 0 0
127 27 190 0 0 0
127 27 191 0 0 0
127 11 192 0 0 0
127 12 192 0 0 0
127 13 192 0 0 0
127 14 192 0 0 0
127 14 193 0 0 0
127 15 192 0 0 0
127 15 193 0 0 0
127 15 194 0 0 0
125 18 192 0 0 0
125 18 193 0 0 0
125 19 192 0 0 0
125 19 193 0 0 0
125 18 194 0 0 0
125 19 194 0 0 0
126 16 192 0 0 0
126 16 193 0 0 0
126 17 192 0 0 0
126 17 193 0 0 0
127 16 192 0 0 0
127 16 193 0 0 0
126 17 194 0 0 0
126 17 195 0 0 0
127 16 194 0 0 0
127 16 195 0 0 0
127 17 195 0 0 0
126 18 192 0 0 0
126 18 193 0 0 0
126 18 194 0 0 0
126 18 195 0 0 0
126 19 194 0 0 0
126 19 195 0 0 0
127 17 196 0 0 0
127 17 197 0 0 0
126 18 196 0 0 0
126 19 196 0 0 0
126 19 197 0 0 0
127 18 196 0 0 0
127 18 197 0 0 0
127 19 197 0 0 0
127 18 198 0 0 0
127 18 199 0 0 0
127 19 198 0 0 0
127 19 199 0 0 0
125 20 192 0 0 0
125 20 193 0 0 0
125 21 192 0 0 0
125 21 193 0 0 0
125 20 194 0 0 0
125 21 194 0 0 0
125 22 192 0 0 0
125 22 193 0 0 0
125 23 192 0 0 0
125 23 193 0 0 0
125 22 194 0 0 0
125 23 194 0 0 0
126 20 195 0 0 0
126 21 195 0 0 0
126 23 193 0 0 0
126 22 194 0 0 0
126 22 195 0 0 0
126 23 194 0 0 0
126 23 195 0 0 0
126 20 196 0 0 0
126 20 197 0 0 0
126 21 196 0 0 0
126 21 197 0 0 0
127 20 198 0 0 0
127 20 199 0 0 0
127 21 198 0 0 0
127 21 199 0 0 0
126 22 196 0 0 0
126 22 197 0 0 0
126 23 196 0 0 0
127 22 197 0 0 0
127 23 196 0 0 0
127 23 197 0 0 0
127 22 198 0 0 0
127 22 199 0 0 0
127 23 198 0 0 0
127 23 199 0 0 0
127 20 200 0 0 0
127 21 200 0 0 0
125 24 192 0 0 0
126 24 192 0 0 0
126 24 193 0 0 0
126 25 192 0 0 0
126 25 193 0 0 0
126 24 194 0 0 0
126 24 195 0 0 0
126 25 194 0 0 0
127 24 195 0 0 0
127 25 194 0 0 0
127 25 195 0 0 0
126 26 192 0 0 0
127 26 192 0 0 0
127 26 193 0 0 0
127 27 192 0 0 0
127 27 193 0 0 0
127 26 194 0 0 0
127 26 195 0 0 0
127 27 194 0 0 0
127 27 195 0 0 0
126 24 196 0 0 0
127 24 196 0 0 0
127 24 197 0 0 0
127 25 196 0 0 0
127 25 197 0 0 0
127 24 198 0 0 0
127 24 199 0 0 0
127 25 198 0 0 0
127 26 196 0 0 0
127 26 197 0 0 0
127 27 196 0 0 0
