ply
format ascii 1.0
comment Created by Open3D
element vertex 2122
property double x
property double y
property double z
property uchar red
property uchar green
property uchar blue
end_header
256 470 127 0 0 0
256 471 126 0 0 0
256 471 127 0 0 0
257 471 127 0 0 0
258 471 127 0 0 0
256 479 119 0 0 0
256 475 123 0 0 0
257 475 123 0 0 0
256 473 125 0 0 0
256 472 126 0 0 0
257 472 126 0 0 0
257 472 127 0 0 0
257 473 126 0 0 0
256 474 124 0 0 0
256 474 125 0 0 0
256 475 124 0 0 0
257 474 124 0 0 0
257 474 125 0 0 0
257 475 124 0 0 0
258 472 126 0 0 0
258 472 127 0 0 0
258 473 126 0 0 0
259 472 127 0 0 0
259 473 126 0 0 0
258 474 125 0 0 0
258 475 124 0 0 0
258 475 125 0 0 0
259 474 125 0 0 0
259 475 124 0 0 0
258 474 126 0 0 0
259 474 126 0 0 0
256 477 121 0 0 0
257 477 121 0 0 0
256 476 122 0 0 0
256 476 123 0 0 0
256 477 122 0 0 0
257 476 122 0 0 0
257 476 123 0 0 0
257 477 122 0 0 0
256 478 120 0 0 0
256 478 121 0 0 0
256 479 120 0 0 0
257 478 120 0 0 0
257 478 121 0 0 0
257 479 120 0 0 0
258 477 121 0 0 0
258 476 123 0 0 0
258 477 122 0 0 0
259 476 123 0 0 0
259 477 122 0 0 0
259 477 123 0 0 0
258 478 121 0 0 0
258 479 120 0 0 0
258 479 121 0 0 0
259 478 121 0 0 0
259 479 120 0 0 0
259 479 121 0 0 0
258 478 122 0 0 0
259 478 122 0 0 0
258 476 124 0 0 0
259 476 124 0 0 0
260 472 127 0 0 0
260 473 126 0 0 0
261 472 127 0 0 0
261 473 126 0 0 0
261 473 127 0 0 0
260 474 125 0 0 0
260 475 124 0 0 0
261 474 125 0 0 0
261 475 124 0 0 0
260 474 126 0 0 0
261 474 126 0 0 0
262 472 127 0 0 0
262 473 126 0 0 0
262 473 127 0 0 0
263 473 126 0 0 0
263 473 127 0 0 0
262 474 125 0 0 0
262 475 124 0 0 0
262 475 125 0 0 0
263 474 125 0 0 0
263 475 124 0 0 0
263 475 125 0 0 0
262 474 126 0 0 0
263 474 126 0 0 0
260 476 123 0 0 0
260 477 122 0 0 0
260 477 123 0 0 0
261 476 123 0 0 0
261 477 123 0 0 0
260 478 121 0 0 0
260 479 121 0 0 0
261 479 121 0 0 0
260 478 122 0 0 0
261 478 122 0 0 0
261 479 122 0 0 0
262 476 123 0 0 0
262 477 123 0 0 0
263 477 123 0 0 0
262 478 122 0 0 0
262 478 123 0 0 0
262 479 122 0 0 0
263 478 122 0 0 0
263 478 123 0 0 0
263 479 122 0 0 0
260 476 124 0 0 0
261 476 124 0 0 0
262 476 124 0 0 0
263 476 124 0 0 0
271 471 127 0 0 0
264 473 127 0 0 0
265 473 127 0 0 0
264 474 125 0 0 0
264 475 124 0 0 0
264 475 125 0 0 0
265 474 125 0 0 0
265 475 125 0 0 0
264 474 126 0 0 0
265 474 126 0 0 0
266 473 127 0 0 0
267 473 127 0 0 0
266 474 125 1 0 0
266 475 125 1 1 1
267 474 125 0 0 0
267 475 125 1 1 1
266 474 126 0 0 0
267 474 126 0 0 0
264 477 123 1 0 0
265 477 123 1 1 1
264 478 123 1 0 0
264 479 122 1 0 0
265 478 123 1 1 1
265 479 122 1 0 0
265 479 123 1 0 1
266 477 123 1 1 1
266 478 123 1 1 1
266 479 123 1 1 1
267 478 123 1 1 1
267 479 123 1 1 1
264 476 124 1 0 0
264 477 124 1 0 0
265 476 124 1 0 1
265 477 124 1 1 1
266 476 124 1 1 1
266 476 125 1 1 1
266 477 124 1 1 1
267 476 124 1 1 1
267 476 125 1 1 1
267 477 124 1 1 1
267 478 124 1 1 1
268 472 127 0 0 0
268 473 127 0 0 0
269 472 127 0 0 0
269 473 127 0 0 0
268 475 125 1 0 0
269 475 125 0 0 0
268 474 126 0 0 0
269 474 126 0 0 0
270 472 127 0 0 0
270 473 127 0 0 0
271 472 127 0 0 0
271 473 126 0 0 0
271 473 127 0 0 0
270 475 125 0 0 0
271 475 125 1 1 1
270 474 126 0 0 0
270 475 126 0 0 0
271 474 126 0 0 0
271 475 126 1 0 0
268 479 123 1 1 1
269 479 123 1 1 1
270 479 123 1 1 1
271 479 123 1 1 1
268 476 125 1 1 1
268 477 124 1 1 1
268 477 125 1 1 1
269 476 125 1 1 1
269 477 124 1 1 1
269 477 125 1 1 1
268 478 124 1 1 1
269 478 124 1 1 1
269 479 124 1 1 1
270 476 125 1 1 1
270 477 124 1 1 1
270 477 125 1 1 1
271 476 125 1 1 1
271 477 124 1 1 1
271 477 125 1 1 1
270 478 124 1 1 1
270 479 124 1 1 1
271 478 124 1 1 1
271 479 124 1 1 1
272 471 127 0 0 0
273 470 127 0 0 0
273 471 127 0 0 0
274 471 127 0 0 0
275 471 127 1 1 1
272 472 127 0 0 0
272 473 126 0 0 0
272 473 127 0 0 0
273 472 127 0 0 0
273 473 126 0 0 0
273 473 127 0 0 0
272 475 125 1 1 1
273 475 125 1 1 1
272 474 126 0 0 0
272 475 126 1 0 0
273 474 126 0 0 0
273 475 126 1 0 0
274 472 127 0 0 0
274 473 126 0 0 0
274 473 127 0 0 0
275 472 127 1 0 0
275 473 127 0 0 0
274 475 125 1 1 1
274 474 126 0 0 0
274 475 126 1 0 0
275 474 126 0 0 0
275 475 126 0 0 0
272 479 123 1 1 1
273 479 123 1 1 1
272 476 125 1 1 1
272 477 124 1 1 1
272 477 125 1 1 1
273 476 125 1 1 1
273 477 124 1 1 1
273 477 125 1 1 1
272 478 124 1 1 1
272 479 124 1 1 1
273 478 124 1 1 1
273 479 124 1 1 1
274 476 125 1 1 1
274 477 124 1 1 1
274 477 125 1 1 1
275 476 125 1 0 0
275 477 124 1 1 1
275 477 125 1 1 1
274 478 124 1 1 1
274 479 124 1 1 1
275 478 124 1 1 1
275 479 124 1 1 1
276 472 127 1 1 1
276 473 127 1 0 0
277 473 127 1 1 1
276 474 126 0 0 0
276 474 127 0 0 0
276 475 126 0 0 0
277 474 126 0 0 0
277 474 127 1 0 0
277 475 126 0 0 0
277 475 127 0 0 0
278 474 127 1 0 1
278 475 126 0 0 0
278 475 127 0 0 0
279 474 127 1 0 1
279 475 127 0 0 0
276 476 125 0 0 0
276 477 125 1 0 0
277 477 125 0 0 0
276 476 126 0 0 0
277 476 126 0 0 0
277 477 126 0 0 0
276 478 124 1 1 1
276 478 125 1 0 1
276 479 124 1 0 0
277 478 124 1 0 0
277 478 125 0 0 0
277 479 124 1 0 1
277 479 125 1 0 1
278 477 125 0 0 0
278 476 126 0 0 0
278 477 126 0 0 0
279 476 126 0 0 0
279 476 127 0 0 0
279 477 126 0 0 0
278 478 125 0 0 0
278 479 124 1 1 1
278 479 125 1 1 1
279 478 125 1 0 0
279 479 125 1 1 1
279 478 126 0 0 0
280 475 127 1 0 0
280 476 127 0 0 0
280 477 126 0 0 0
280 477 127 0 0 0
281 477 127 0 0 0
280 479 125 1 1 1
280 478 126 1 1 1
280 478 127 1 0 0
280 479 126 1 1 1
281 478 127 1 0 0
281 479 126 1 0 1
281 479 127 0 0 0
282 478 127 1 1 1
282 479 127 1 0 1
283 479 127 1 1 1
256 489 109 1 0 0
256 488 110 0 0 0
256 488 111 0 0 0
256 489 110 0 0 0
256 489 111 0 0 0
257 489 111 0 0 0
256 490 109 1 0 0
256 491 108 1 1 1
256 491 109 1 0 1
257 491 109 1 0 1
256 490 110 0 0 0
257 490 110 0 0 0
257 490 111 0 0 0
257 491 110 0 0 0
257 491 111 0 0 0
258 491 110 0 0 0
258 491 111 0 0 0
256 492 107 1 1 1
256 493 106 1 1 1
256 493 107 1 1 1
256 495 105 1 1 1
256 494 106 1 1 1
256 494 107 1 0 0
256 495 106 1 0 0
257 494 107 0 0 0
257 495 107 0 0 0
256 492 108 1 1 1
256 493 108 1 1 1
257 492 108 1 1 1
257 492 109 1 0 0
257 493 108 1 1 1
257 493 109 0 0 0
257 492 110 0 0 0
257 494 108 0 0 0
257 494 109 0 0 0
257 495 108 0 0 0
258 493 109 0 0 0
258 492 110 0 0 0
258 492 111 0 0 0
258 493 110 0 0 0
258 493 111 0 0 0
259 492 111 0 0 0
259 493 111 0 0 0
258 494 109 0 0 0
258 495 108 0 0 0
258 495 109 0 0 0
259 495 109 0 0 0
258 494 110 0 0 0
259 494 110 0 0 0
259 494 111 0 0 0
259 495 110 0 0 0
259 495 111 0 0 0
260 494 111 0 0 0
260 495 111 0 0 0
256 483 115 0 0 0
256 481 117 0 0 0
257 481 117 0 0 0
256 480 118 0 0 0
256 480 119 0 0 0
256 481 118 0 0 0
257 480 119 0 0 0
257 481 118 0 0 0
257 481 119 0 0 0
256 482 116 0 0 0
256 482 117 0 0 0
256 483 116 0 0 0
257 482 117 0 0 0
257 483 116 0 0 0
257 483 117 0 0 0
258 480 119 0 0 0
258 481 118 0 0 0
258 481 119 0 0 0
259 481 119 0 0 0
258 482 117 0 0 0
258 483 116 0 0 0
258 483 117 0 0 0
259 483 117 0 0 0
258 482 118 0 0 0
259 482 118 0 0 0
259 482 119 0 0 0
259 483 118 0 0 0
256 484 115 0 0 0
256 485 114 0 0 0
256 485 115 0 0 0
257 484 115 0 0 0
257 485 115 0 0 0
256 486 113 0 0 0
256 487 112 0 0 0
256 487 113 0 0 0
257 487 113 1 0 0
256 486 114 0 0 0
256 487 114 0 0 0
257 486 114 0 0 0
257 486 115 0 0 0
257 487 114 0 0 0
257 487 115 0 0 0
258 485 115 0 0 0
258 486 115 0 0 0
258 487 115 0 0 0
259 487 115 0 0 0
257 484 116 0 0 0
258 484 116 0 0 0
258 484 117 0 0 0
258 485 116 0 0 0
259 484 117 0 0 0
259 485 116 0 0 0
259 485 117 0 0 0
259 484 118 0 0 0
259 486 116 0 0 0
259 486 117 0 0 0
259 487 116 0 0 0
260 481 119 0 0 0
260 482 119 0 0 0
260 483 118 0 0 0
260 483 119 0 0 0
261 482 119 0 0 0
261 483 119 0 0 0
262 483 119 0 0 0
263 483 119 0 0 0
260 485 117 0 0 0
261 485 117 0 0 0
260 484 118 0 0 0
260 485 118 0 0 0
261 484 118 0 0 0
261 484 119 0 0 0
261 485 118 0 0 0
260 486 117 0 0 0
260 487 116 0 0 0
260 487 117 0 0 0
261 486 117 0 0 0
261 487 117 0 0 0
262 484 118 0 0 0
262 484 119 0 0 0
262 485 118 0 0 0
263 484 119 0 0 0
263 485 118 0 0 0
263 485 119 0 0 0
262 486 117 0 0 0
262 487 117 0 0 0
263 487 117 0 0 0
262 486 118 0 0 0
263 486 118 0 0 0
263 487 118 0 0 0
257 480 120 0 0 0
258 480 120 0 0 0
259 480 120 0 0 0
259 481 120 0 0 0
260 480 120 0 0 0
260 480 121 0 0 0
260 481 120 0 0 0
261 480 121 0 0 0
261 481 120 0 0 0
261 481 121 0 0 0
260 482 120 0 0 0
261 482 120 0 0 0
262 480 121 0 0 0
262 481 120 0 0 0
262 481 121 0 0 0
263 481 121 1 0 0
262 480 122 1 0 0
263 480 122 0 0 0
262 482 120 0 0 0
262 483 120 0 0 0
263 482 120 1 0 0
263 482 121 1 0 0
263 483 120 0 0 0
256 488 112 0 0 0
256 488 113 1 0 0
257 488 112 0 0 0
257 488 113 0 0 0
257 489 112 0 0 0
257 489 113 0 0 0
257 488 114 1 0 0
257 490 112 0 0 0
258 488 113 1 0 0
258 489 112 0 0 0
258 489 113 0 0 0
258 488 114 1 0 0
258 488 115 1 0 0
258 489 114 1 0 0
259 488 114 1 0 0
259 488 115 1 0 0
259 489 114 1 0 0
259 489 115 1 0 0
258 490 112 0 0 0
258 490 113 0 0 0
258 491 112 0 0 0
259 490 113 0 0 0
259 491 112 0 0 0
259 491 113 0 0 0
259 490 114 0 0 0
259 488 116 1 0 0
259 492 112 0 0 0
259 493 112 0 0 0
260 488 115 1 0 0
260 489 115 0 0 0
261 489 115 0 0 0
260 491 113 0 0 0
260 490 114 0 0 0
260 490 115 0 0 0
260 491 114 0 0 0
261 490 115 0 0 0
261 491 114 0 0 0
261 491 115 0 0 0
262 490 115 0 0 0
262 491 114 0 0 0
262 491 115 0 0 0
263 491 115 0 0 0
260 488 116 0 0 0
261 488 116 0 0 0
261 488 117 0 0 0
261 489 116 0 0 0
262 488 116 0 0 0
262 488 117 0 0 0
262 489 116 0 0 0
263 488 117 0 0 0
263 489 116 0 0 0
263 489 117 0 0 0
262 490 116 0 0 0
262 491 116 0 0 0
263 490 116 0 0 0
263 491 116 0 0 0
260 492 113 0 0 0
260 493 112 0 0 0
260 493 113 0 0 0
261 492 113 0 0 0
261 493 113 0 0 0
261 492 114 0 0 0
260 494 112 0 0 0
260 495 112 0 0 0
261 494 112 0 0 0
261 494 113 0 0 0
261 495 112 0 0 0
262 493 113 0 0 0
262 492 114 0 0 0
262 492 115 0 0 0
262 493 114 0 0 0
263 492 115 0 0 0
263 493 114 0 0 0
263 493 115 0 0 0
262 494 113 0 0 0
262 495 112 0 0 0
262 495 113 0 0 0
263 494 113 0 0 0
263 495 113 0 0 0
263 494 114 0 0 0
264 484 119 0 0 0
264 485 118 0 0 0
264 485 119 0 0 0
265 484 119 0 0 0
265 485 118 0 0 0
265 485 119 0 0 0
264 487 117 0 0 0
264 486 118 0 0 0
264 487 118 0 0 0
265 486 118 0 0 0
265 487 118 0 0 0
266 484 119 0 0 0
266 485 119 0 0 0
267 484 119 1 1 1
267 485 119 1 1 1
266 486 118 0 0 0
266 486 119 0 0 0
266 487 118 0 0 0
267 486 119 0 0 0
267 487 118 0 0 0
268 485 119 1 1 1
268 486 119 1 1 1
268 487 118 0 0 0
268 487 119 1 0 0
269 486 119 1 1 1
269 487 119 1 0 0
270 486 119 1 1 1
270 487 119 1 1 1
271 487 119 0 0 0
264 481 121 0 0 0
265 481 121 1 0 0
264 480 122 1 0 0
264 481 122 1 0 0
265 480 122 1 0 1
265 481 122 1 0 0
264 482 120 0 0 0
264 482 121 0 0 0
264 483 120 0 0 0
265 482 121 1 0 0
265 483 120 0 0 0
266 480 122 1 1 1
266 480 123 1 1 1
266 481 122 1 1 1
267 480 123 1 1 1
267 481 122 1 1 1
266 482 121 1 1 1
266 483 120 1 0 1
266 483 121 1 1 1
267 482 121 1 1 1
267 483 121 1 1 1
267 482 122 1 1 1
265 484 120 0 0 0
266 484 120 0 0 0
267 484 120 1 1 1
268 480 123 1 1 1
268 481 122 1 1 1
268 481 123 1 1 1
269 480 123 1 1 1
269 481 122 1 1 1
269 481 123 1 1 1
268 482 121 1 1 1
268 483 121 1 1 1
269 483 121 1 1 1
268 482 122 1 1 1
269 482 122 1 1 1
270 480 123 1 1 1
270 481 122 1 1 1
270 481 123 1 1 1
271 480 123 1 1 1
271 481 122 1 1 1
271 481 123 1 1 1
270 483 121 1 1 1
271 483 121 1 1 1
270 482 122 1 1 1
271 482 122 1 1 1
271 483 122 1 1 1
268 484 120 1 1 1
268 485 120 1 1 1
269 484 120 1 1 1
269 484 121 1 1 1
269 485 120 1 1 1
270 484 120 1 1 1
270 484 121 1 1 1
270 485 120 1 1 1
271 484 121 1 1 1
271 485 120 1 0 1
271 485 121 1 1 1
270 486 120 1 1 1
271 486 120 1 0 0
271 487 120 0 0 0
264 488 117 0 0 0
264 489 117 0 0 0
265 488 117 0 0 0
265 489 117 0 0 0
265 488 118 0 0 0
264 490 116 0 0 0
264 490 117 0 0 0
264 491 116 1 0 0
265 490 116 1 0 0
265 490 117 0 0 0
265 491 116 1 1 1
266 488 117 0 0 0
266 489 117 0 0 0
267 489 117 0 0 0
266 488 118 0 0 0
267 488 118 0 0 0
267 489 118 0 0 0
266 490 117 0 0 0
266 491 116 0 0 0
266 491 117 0 0 0
267 490 117 0 0 0
267 491 117 0 0 0
264 492 115 1 0 0
264 493 115 1 0 0
265 493 115 1 1 1
264 495 113 0 0 0
265 495 113 0 0 0
264 494 114 1 0 0
265 494 114 1 0 0
265 494 115 1 0 0
265 495 114 0 0 0
266 493 115 1 1 1
266 494 114 1 0 1
266 494 115 1 0 1
266 495 114 0 0 0
267 494 115 1 1 1
267 495 114 0 0 0
267 495 115 1 0 0
264 492 116 1 1 1
265 492 116 1 1 1
266 492 116 1 0 0
266 493 116 1 0 0
267 492 116 0 0 0
267 492 117 0 0 0
267 493 116 1 1 1
267 494 116 1 1 1
268 488 118 0 0 0
268 489 118 0 0 0
269 488 118 0 0 0
269 488 119 0 0 0
269 489 118 0 0 0
268 490 117 0 0 0
268 491 117 0 0 0
269 491 117 0 0 0
268 490 118 0 0 0
269 490 118 0 0 0
270 488 118 0 0 0
270 488 119 0 0 0
270 489 118 0 0 0
271 488 119 0 0 0
271 489 118 0 0 0
271 489 119 0 0 0
270 491 117 1 1 1
271 491 117 1 0 0
270 490 118 1 0 0
270 491 118 1 0 0
271 490 118 0 0 0
271 491 118 0 0 0
268 494 115 1 1 1
268 495 114 1 0 0
268 495 115 1 0 1
269 494 115 1 1 1
269 495 115 1 1 1
270 495 115 1 1 1
268 492 116 0 0 0
268 492 117 0 0 0
268 493 116 1 1 1
269 492 117 1 0 0
269 493 116 1 1 1
268 494 116 1 1 1
269 494 116 1 1 1
270 492 117 1 1 1
270 493 116 1 1 1
270 493 117 1 1 1
271 492 117 1 0 0
271 493 117 1 1 1
270 494 116 1 1 1
270 495 116 1 1 1
271 494 116 1 1 1
271 494 117 1 1 1
271 495 116 1 1 1
256 499 103 0 0 0
256 500 103 0 0 0
256 501 103 0 0 0
256 502 103 0 0 0
256 503 102 0 0 0
256 503 103 0 0 0
257 503 103 0 0 0
256 496 105 1 1 1
256 497 104 1 1 1
256 497 105 1 1 1
256 496 106 1 0 0
256 497 106 1 1 1
257 496 106 0 0 0
257 496 107 0 0 0
257 497 106 1 1 1
257 497 107 1 0 0
256 498 104 1 0 0
256 498 105 1 0 0
256 499 104 0 0 0
256 499 105 0 0 0
257 499 105 0 0 0
256 498 106 1 1 1
257 498 106 0 0 0
257 498 107 0 0 0
257 499 106 0 0 0
258 498 107 0 0 0
258 499 107 0 0 0
257 496 108 0 0 0
258 496 108 0 0 0
258 496 109 0 0 0
258 497 108 0 0 0
258 497 109 0 0 0
259 496 109 0 0 0
259 497 109 0 0 0
259 496 110 0 0 0
259 497 110 0 0 0
258 498 108 0 0 0
258 499 108 0 0 0
259 498 109 0 0 0
259 499 108 1 0 0
259 499 109 1 0 0
259 498 110 0 0 0
256 500 104 0 0 0
256 500 105 0 0 0
256 501 104 0 0 0
257 500 105 0 0 0
257 501 104 0 0 0
257 501 105 0 0 0
257 500 106 0 0 0
257 501 106 0 0 0
256 502 104 0 0 0
257 502 104 0 0 0
257 502 105 0 0 0
257 503 104 0 0 0
258 501 105 0 0 0
258 500 106 0 0 0
258 500 107 0 0 0
258 501 106 0 0 0
258 501 107 1 0 0
259 501 107 1 0 0
258 502 105 0 0 0
258 503 104 0 0 0
258 503 105 0 0 0
259 503 105 0 0 0
258 502 106 1 0 0
259 502 106 1 0 0
259 502 107 1 0 0
259 503 106 1 0 0
258 500 108 0 0 0
259 500 108 1 0 0
259 500 109 1 0 0
259 501 108 1 0 0
259 502 108 1 0 0
260 496 110 0 0 0
260 496 111 0 0 0
260 497 110 0 0 0
260 497 111 0 0 0
261 496 111 0 0 0
261 497 111 0 0 0
260 499 109 1 0 0
260 498 110 0 0 0
260 499 110 1 0 0
261 498 110 0 0 0
261 498 111 0 0 0
261 499 110 1 0 0
262 497 111 0 0 0
262 498 111 0 0 0
262 499 110 1 0 0
262 499 111 0 0 0
263 498 111 0 0 0
263 499 111 0 0 0
260 502 107 0 0 0
260 503 106 0 0 0
260 503 107 0 0 0
261 503 107 0 0 0
262 503 107 0 0 0
260 500 109 1 0 1
260 501 108 0 0 0
260 501 109 1 0 0
261 500 109 1 0 0
261 501 109 0 0 0
261 500 110 0 0 0
261 501 110 0 0 0
260 502 108 0 0 0
261 502 108 0 0 0
261 502 109 0 0 0
261 503 108 0 0 0
262 501 109 0 0 0
262 500 110 0 0 0
262 501 110 0 0 0
263 500 110 0 0 0
263 500 111 0 0 0
263 501 110 0 0 0
262 502 109 0 0 0
262 503 108 0 0 0
262 503 109 0 0 0
263 502 109 0 0 0
263 503 108 0 0 0
263 503 109 0 0 0
263 502 110 0 0 0
256 505 101 0 0 0
256 504 102 0 0 0
256 505 102 0 0 0
257 504 103 0 0 0
257 505 102 0 0 0
257 505 103 0 0 0
256 506 101 0 0 0
256 507 100 0 0 0
256 507 101 1 0 0
256 506 102 0 0 0
257 506 102 0 0 0
257 506 103 0 0 0
257 507 102 1 1 1
258 505 103 0 0 0
258 506 102 1 1 1
258 506 103 1 0 0
258 507 102 1 1 1
258 507 103 1 1 1
259 506 103 1 0 1
259 507 103 1 1 1
256 510 99 0 0 0
256 511 99 0 0 0
256 508 100 0 0 0
256 508 101 1 0 0
256 509 100 0 0 0
257 508 101 1 0 0
257 509 100 0 0 0
257 509 101 0 0 0
256 510 100 0 0 0
256 511 100 0 0 0
257 510 100 1 0 0
257 510 101 0 0 0
257 511 100 1 0 0
258 509 101 0 0 0
258 508 102 1 0 0
258 509 102 0 0 0
259 508 102 1 0 0
259 508 103 0 0 0
259 509 102 0 0 0
259 509 103 0 0 0
258 510 101 1 0 0
258 511 100 1 1 1
258 511 101 1 1 1
259 510 101 1 0 0
259 511 101 1 1 1
259 510 102 0 0 0
259 511 102 1 0 0
260 508 103 0 0 0
260 509 103 0 0 0
260 510 102 0 0 0
260 510 103 0 0 0
260 511 102 0 0 0
260 511 103 0 0 0
261 510 103 0 0 0
261 511 103 0 0 0
262 511 103 0 0 0
257 504 104 0 0 0
258 504 104 0 0 0
258 505 104 0 0 0
259 504 104 0 0 0
259 504 105 0 0 0
259 505 104 0 0 0
259 505 105 0 0 0
259 506 104 0 0 0
259 507 104 1 0 0
260 504 105 0 0 0
260 505 105 0 0 0
261 505 105 0 0 0
260 504 106 0 0 0
261 504 106 0 0 0
261 504 107 0 0 0
261 505 106 0 0 0
260 506 104 0 0 0
260 506 105 0 0 0
260 507 104 0 0 0
261 506 105 0 0 0
261 507 104 0 0 0
261 507 105 0 0 0
262 504 106 0 0 0
262 504 107 0 0 0
262 505 106 0 0 0
262 505 107 0 0 0
263 505 107 0 0 0
262 506 105 0 0 0
262 507 105 0 0 0
262 506 106 0 0 0
262 507 106 0 0 0
263 506 106 0 0 0
263 506 107 0 0 0
263 507 106 0 0 0
263 507 107 0 0 0
262 504 108 0 0 0
263 504 108 0 0 0
263 505 108 0 0 0
260 508 104 0 0 0
261 508 104 0 0 0
261 509 104 0 0 0
261 510 104 0 0 0
262 508 104 0 0 0
262 508 105 0 0 0
262 509 104 0 0 0
262 509 105 0 0 0
263 508 105 0 0 0
263 509 105 0 0 0
263 508 106 0 0 0
263 509 106 0 0 0
262 510 104 0 0 0
262 510 105 0 0 0
262 511 104 0 0 0
263 510 105 0 0 0
263 511 104 0 0 0
263 511 105 0 0 0
264 498 111 0 0 0
264 499 111 0 0 0
265 499 111 0 0 0
266 499 111 0 0 0
264 500 110 0 0 0
264 500 111 0 0 0
264 501 110 0 0 0
265 500 111 0 0 0
265 501 110 0 0 0
265 501 111 0 0 0
264 503 109 0 0 0
265 503 109 0 0 0
264 502 110 0 0 0
264 503 110 0 0 0
265 502 110 0 0 0
265 503 110 0 0 0
266 500 111 0 0 0
266 501 111 0 0 0
267 500 111 0 0 0
267 501 111 0 0 0
266 502 110 0 0 0
266 502 111 0 0 0
266 503 110 0 0 0
267 502 111 0 0 0
267 503 110 0 0 0
267 503 111 0 0 0
268 501 111 0 0 0
269 501 111 0 0 0
268 502 111 0 0 0
268 503 110 0 0 0
268 503 111 0 0 0
269 502 111 0 0 0
269 503 111 0 0 0
270 502 111 0 0 0
270 503 111 0 0 0
271 503 111 0 0 0
264 506 107 0 0 0
264 507 106 0 0 0
264 507 107 0 0 0
265 507 107 0 0 0
264 504 108 0 0 0
264 504 109 0 0 0
264 505 108 0 0 0
265 504 109 0 0 0
265 505 108 0 0 0
265 505 109 0 0 0
264 506 108 0 0 0
265 506 108 0 0 0
265 507 108 0 0 0
266 504 109 0 0 0
266 505 109 0 0 0
267 505 109 0 0 0
266 504 110 1 0 0
267 504 110 1 0 1
267 505 110 1 0 0
266 506 108 0 0 0
266 506 109 0 0 0
266 507 108 0 0 0
267 506 109 0 0 0
267 507 108 0 0 0
267 507 109 0 0 0
264 508 106 0 0 0
264 508 107 0 0 0
264 509 106 0 0 0
265 508 107 0 0 0
265 509 106 0 0 0
265 509 107 0 0 0
264 510 105 0 0 0
264 511 105 0 0 0
264 510 106 0 0 0
265 510 106 0 0 0
265 511 106 0 0 0
266 508 107 0 0 0
266 509 107 0 0 0
266 510 106 0 0 0
266 510 107 0 0 0
266 511 106 0 0 0
266 511 107 0 0 0
267 510 107 0 0 0
267 511 107 0 0 0
266 508 108 0 0 0
267 508 108 0 0 0
267 509 108 0 0 0
267 510 108 0 0 0
268 504 110 0 0 0
268 505 110 0 0 0
269 504 110 0 0 0
269 504 111 0 0 0
269 505 110 0 0 0
268 506 109 0 0 0
268 507 109 0 0 0
269 506 109 1 0 0
269 507 109 1 0 0
268 506 110 0 0 0
269 506 110 0 0 0
269 507 110 1 1 1
270 504 111 0 0 0
270 505 110 0 0 0
270 505 111 0 0 0
271 504 111 0 0 0
271 505 111 0 0 0
270 506 110 0 0 0
270 507 110 1 1 1
271 506 110 0 0 0
271 506 111 0 0 0
271 507 110 0 0 0
268 511 107 0 0 0
268 508 108 0 0 0
268 508 109 0 0 0
268 509 108 0 0 0
269 508 109 0 0 0
269 509 108 0 0 0
269 509 109 0 0 0
268 510 108 0 0 0
268 511 108 0 0 0
269 510 108 0 0 0
269 510 109 0 0 0
269 511 108 0 0 0
270 508 109 0 0 0
270 509 109 0 0 0
271 509 109 1 0 0
270 508 110 1 0 0
271 508 110 1 0 0
271 509 110 1 0 0
270 510 109 0 0 0
270 511 108 0 0 0
270 511 109 0 0 0
271 510 109 0 0 0
271 511 109 0 0 0
261 496 112 0 0 0
262 496 112 0 0 0
262 497 112 0 0 0
263 496 112 0 0 0
263 497 112 0 0 0
263 498 112 0 0 0
264 496 112 0 0 0
264 496 113 0 0 0
264 497 112 0 0 0
265 496 113 0 0 0
265 497 112 0 0 0
265 497 113 0 0 0
264 498 112 0 0 0
265 498 112 0 0 0
265 499 112 0 0 0
266 496 113 0 0 0
266 497 112 0 0 0
266 497 113 0 0 0
267 496 113 0 0 0
267 497 113 0 0 0
266 496 114 0 0 0
267 496 114 0 0 0
266 498 112 0 0 0
266 498 113 0 0 0
266 499 112 0 0 0
267 498 112 0 0 0
267 498 113 0 0 0
267 499 112 1 0 0
267 500 112 1 0 0
268 497 113 0 0 0
268 496 114 0 0 0
268 497 114 0 0 0
269 496 114 0 0 0
269 496 115 1 0 0
269 497 114 0 0 0
268 498 113 0 0 0
268 499 112 1 0 1
268 499 113 1 0 0
269 498 113 0 0 0
269 499 112 1 1 1
269 499 113 1 1 1
269 498 114 0 0 0
270 496 115 1 0 0
270 497 114 0 0 0
270 497 115 1 0 0
271 496 115 1 1 1
271 497 115 0 0 0
270 499 113 1 1 1
271 499 113 0 0 0
270 498 114 0 0 0
270 499 114 1 0 0
271 498 114 0 0 0
271 498 115 0 0 0
271 499 114 0 0 0
268 500 112 1 0 0
268 501 112 0 0 0
269 500 112 1 1 1
269 501 112 1 0 0
270 500 112 1 1 1
270 500 113 1 0 1
270 501 112 1 0 0
271 500 113 0 0 0
271 501 112 1 0 0
271 501 113 0 0 0
270 502 112 0 0 0
271 502 112 0 0 0
271 503 112 0 0 0
272 487 119 0 0 0
272 480 123 1 1 1
272 481 123 1 1 1
273 480 123 1 1 1
273 481 123 1 1 1
272 483 121 1 1 1
273 483 121 1 1 1
272 482 122 1 1 1
272 483 122 1 1 1
273 482 122 1 1 1
273 483 122 1 1 1
274 480 123 1 1 1
274 481 122 1 1 1
274 481 123 1 1 1
275 480 123 1 1 1
275 481 123 1 1 1
274 482 122 1 1 1
274 483 122 1 1 1
275 482 122 1 1 1
275 483 122 1 1 1
275 480 124 1 0 0
272 484 121 1 1 1
272 485 120 0 0 0
272 485 121 1 0 1
273 484 121 1 1 1
273 485 120 1 1 1
273 485 121 1 1 1
272 486 120 0 0 0
272 487 120 0 0 0
273 486 120 1 0 0
273 487 120 1 0 0
274 484 121 1 1 1
274 485 121 1 1 1
275 484 121 1 1 1
275 485 121 1 0 0
275 484 122 1 1 1
274 486 120 1 0 0
274 486 121 0 0 0
274 487 120 1 0 0
275 486 120 0 0 0
275 486 121 0 0 0
275 487 120 0 0 0
276 480 123 0 0 0
276 481 123 1 1 1
277 481 123 1 1 1
276 482 122 1 1 1
276 482 123 1 1 1
276 483 122 1 1 1
277 482 123 1 0 0
277 483 122 1 0 0
277 483 123 0 0 0
278 481 123 1 0 1
278 482 123 1 0 0
278 483 123 0 0 0
279 482 123 0 0 0
279 483 123 0 0 0
276 480 124 0 0 0
277 480 124 1 1 1
277 481 124 1 1 1
278 480 124 1 1 1
278 481 124 1 1 1
279 480 124 1 1 1
279 480 125 1 1 1
279 481 124 1 1 1
279 482 124 1 0 0
276 484 121 0 0 0
276 485 121 0 0 0
277 485 121 0 0 0
276 484 122 1 0 0
277 484 122 0 0 0
277 485 122 0 0 0
276 486 121 0 0 0
276 487 120 0 0 0
276 487 121 0 0 0
277 486 121 0 0 0
277 487 121 1 0 0
278 484 122 0 0 0
278 484 123 0 0 0
278 485 122 0 0 0
279 484 122 0 0 0
279 484 123 0 0 0
279 485 122 0 0 0
279 485 123 0 0 0
278 486 121 0 0 0
278 487 121 1 0 0
279 487 121 0 0 0
278 486 122 0 0 0
279 486 122 0 0 0
279 487 122 0 0 0
272 488 119 0 0 0
272 489 119 0 0 0
273 488 119 0 0 0
273 489 119 0 0 0
272 490 118 0 0 0
272 491 118 0 0 0
273 490 118 0 0 0
273 490 119 0 0 0
273 491 118 0 0 0
274 488 119 1 1 1
274 489 119 1 0 1
275 489 119 1 1 1
274 490 119 0 0 0
274 491 118 0 0 0
274 491 119 0 0 0
275 490 119 1 0 0
275 491 119 0 0 0
272 492 117 1 0 0
272 493 117 1 0 0
273 493 117 1 0 0
272 492 118 0 0 0
273 492 118 0 0 0
273 493 118 1 0 0
272 494 116 1 1 1
272 494 117 1 0 0
272 495 116 1 1 1
273 494 117 1 1 1
273 495 116 1 1 1
273 495 117 1 1 1
274 492 118 0 0 0
274 493 118 0 0 0
275 492 118 0 0 0
275 492 119 0 0 0
275 493 118 0 0 0
274 494 117 1 1 1
274 495 117 1 1 1
275 495 117 1 1 1
274 494 118 1 1 1
275 494 118 1 0 0
275 495 118 1 0 0
276 489 119 1 1 1
276 490 119 1 1 1
276 491 119 1 0 0
277 491 119 1 0 0
278 491 119 1 0 0
276 492 119 0 0 0
276 493 118 0 0 0
276 493 119 1 0 0
277 492 119 1 0 0
277 493 119 1 0 0
276 494 118 1 0 0
276 495 118 1 0 1
277 494 118 1 1 1
277 494 119 1 1 1
277 495 118 1 1 1
278 492 119 1 0 0
278 493 119 1 0 0
279 492 119 1 0 0
279 493 119 1 0 0
278 494 119 1 1 1
278 495 118 1 1 1
278 495 119 1 1 1
279 494 119 1 1 1
279 495 119 1 1 1
274 488 120 1 0 0
275 488 120 1 1 1
275 489 120 1 1 1
276 488 120 1 1 1
276 489 120 1 1 1
277 488 120 1 1 1
277 488 121 1 0 0
277 489 120 1 1 1
276 490 120 1 1 1
277 490 120 1 1 1
277 491 120 1 1 1
278 488 120 1 1 1
278 488 121 1 1 1
278 489 120 1 1 1
279 488 121 1 1 1
279 489 121 1 1 1
278 490 120 1 1 1
278 491 120 1 1 1
279 490 120 1 1 1
279 490 121 1 1 1
279 491 120 1 0 1
279 492 120 0 0 0
279 493 120 1 0 0
280 483 123 0 0 0
280 480 125 1 1 1
280 481 124 1 1 1
280 481 125 1 1 1
281 481 125 1 1 1
280 480 126 1 1 1
281 480 126 1 1 1
281 481 126 1 1 1
280 482 124 1 0 0
280 483 124 0 0 0
281 482 125 1 0 1
281 483 124 0 0 0
281 483 125 1 0 0
282 480 126 1 1 1
282 480 127 1 1 1
282 481 126 1 1 1
283 480 127 1 1 1
283 481 126 0 0 0
283 481 127 0 0 0
282 482 125 1 1 1
282 483 125 1 0 0
282 482 126 1 0 1
283 482 126 1 0 0
283 482 127 0 0 0
283 483 126 1 1 1
280 484 123 0 0 0
280 485 123 0 0 0
281 484 123 0 0 0
281 485 123 0 0 0
280 486 122 0 0 0
280 486 123 1 0 0
280 487 122 0 0 0
281 486 123 0 0 0
281 487 123 0 0 0
282 487 123 0 0 0
280 484 124 0 0 0
281 484 124 0 0 0
281 485 124 0 0 0
282 484 125 1 0 0
282 485 124 0 0 0
282 485 125 0 0 0
283 484 125 1 1 1
283 485 125 1 1 1
283 484 126 1 1 1
283 485 126 1 1 1
282 486 124 0 0 0
282 487 124 0 0 0
283 486 125 1 1 1
283 487 124 1 0 0
283 487 125 1 1 1
284 481 127 0 0 0
284 482 127 0 0 0
284 483 126 1 1 1
284 483 127 1 0 1
284 484 126 1 1 1
284 484 127 1 1 1
284 485 126 1 1 1
284 485 127 1 1 1
285 484 127 1 1 1
285 485 127 1 1 1
284 486 125 1 1 1
284 487 125 1 1 1
284 486 126 1 1 1
284 487 126 1 1 1
285 486 126 1 0 1
285 486 127 1 0 0
285 487 126 0 0 0
285 487 127 0 0 0
286 485 127 1 1 1
286 486 127 0 0 0
286 487 127 0 0 0
287 487 127 0 0 0
280 494 119 1 0 0
280 495 119 1 1 1
280 488 121 1 0 0
280 489 121 1 0 1
280 488 122 0 0 0
280 489 122 0 0 0
281 488 122 0 0 0
281 488 123 0 0 0
281 489 122 0 0 0
280 490 121 1 0 0
280 491 120 1 0 1
280 491 121 1 0 0
281 490 121 0 0 0
281 491 121 1 0 0
281 490 122 0 0 0
282 488 123 0 0 0
282 489 122 0 0 0
282 489 123 0 0 0
283 488 123 0 0 0
283 489 123 0 0 0
282 490 122 0 0 0
282 491 122 0 0 0
283 490 123 0 0 0
283 491 122 0 0 0
283 491 123 0 0 0
283 488 124 0 0 0
283 489 124 0 0 0
280 492 120 1 0 0
280 492 121 1 1 1
280 493 120 1 0 0
281 492 121 1 1 1
281 493 120 1 1 1
281 493 121 1 1 1
280 494 120 1 0 1
280 495 120 1 0 0
281 494 120 1 1 1
281 495 120 1 0 1
282 492 121 1 1 1
282 493 121 1 1 1
283 493 121 1 1 1
282 492 122 1 0 0
283 492 122 1 0 1
283 492 123 0 0 0
283 493 122 1 1 1
282 494 120 1 1 1
282 494 121 1 1 1
282 495 120 1 1 1
282 495 121 1 1 1
283 494 121 1 1 1
283 495 121 1 1 1
283 494 122 1 1 1
284 491 123 0 0 0
284 488 124 1 0 0
284 488 125 1 1 1
284 489 124 1 1 1
284 489 125 1 1 1
285 488 125 1 1 1
285 489 125 1 1 1
285 488 126 0 0 0
285 489 126 0 0 0
284 490 124 1 0 1
284 491 124 1 0 0
285 490 124 1 1 1
285 490 125 1 1 1
285 491 124 1 0 0
285 491 125 1 0 0
286 488 126 0 0 0
286 488 127 0 0 0
286 489 126 0 0 0
287 488 127 0 0 0
287 489 127 0 0 0
286 490 125 1 0 0
286 491 125 0 0 0
286 490 126 0 0 0
286 491 126 0 0 0
287 490 126 0 0 0
287 490 127 0 0 0
287 491 126 0 0 0
287 491 127 0 0 0
284 492 123 1 0 0
284 493 122 1 1 1
284 493 123 1 1 1
285 492 123 1 0 1
285 493 123 1 1 1
284 495 121 1 1 1
284 494 122 1 1 1
284 495 122 1 1 1
285 494 122 1 1 1
285 494 123 1 1 1
285 495 122 1 0 1
285 495 123 1 1 1
286 494 123 1 1 1
286 495 122 1 1 1
286 495 123 1 1 1
287 495 123 1 1 1
285 492 124 1 0 0
286 492 124 0 0 0
286 492 125 0 0 0
286 493 124 1 1 1
287 492 125 0 0 0
287 493 124 1 1 1
287 493 125 1 0 1
287 492 126 0 0 0
287 493 126 0 0 0
286 494 124 1 1 1
287 494 124 1 1 1
287 494 125 1 1 1
287 495 124 1 1 1
272 504 111 1 0 0
272 505 111 1 0 0
272 506 111 1 0 0
272 507 110 0 0 0
272 507 111 0 0 0
273 506 111 0 0 0
273 507 111 1 1 1
272 508 110 1 0 0
272 508 111 1 1 1
272 509 110 1 1 1
273 508 111 1 1 1
273 509 111 1 0 0
272 510 109 0 0 0
272 511 109 0 0 0
272 510 110 1 0 0
272 511 110 0 0 0
273 510 110 0 0 0
273 510 111 0 0 0
273 511 110 0 0 0
274 508 111 1 0 0
274 509 111 0 0 0
274 510 111 0 0 0
274 511 110 0 0 0
274 511 111 0 0 0
275 510 111 0 0 0
275 511 111 0 0 0
272 496 115 1 1 1
272 497 115 1 0 0
273 497 115 0 0 0
272 498 115 0 0 0
272 499 114 0 0 0
272 499 115 0 0 0
273 498 115 1 0 0
273 499 114 0 0 0
273 499 115 0 0 0
274 499 115 1 1 1
275 499 115 1 1 1
272 496 116 1 1 1
273 496 116 1 1 1
273 497 116 1 1 1
273 498 116 1 1 1
274 496 116 1 1 1
274 496 117 1 1 1
274 497 116 1 1 1
275 496 117 1 1 1
275 497 116 1 1 1
275 497 117 1 1 1
274 498 116 1 1 1
274 499 116 1 1 1
275 498 116 1 1 1
275 499 116 1 1 1
272 500 113 0 0 0
272 501 113 0 0 0
273 501 113 0 0 0
272 500 114 0 0 0
273 500 114 0 0 0
273 500 115 0 0 0
273 501 114 0 0 0
272 502 112 0 0 0
272 502 113 0 0 0
272 503 112 0 0 0
273 502 113 0 0 0
273 503 112 0 0 0
273 503 113 0 0 0
273 502 114 0 0 0
274 500 115 1 0 0
274 501 114 1 0 0
274 501 115 1 0 0
275 500 115 1 1 1
275 501 115 1 1 1
274 502 113 0 0 0
274 503 113 0 0 0
275 503 113 0 0 0
274 502 114 0 0 0
275 502 114 1 0 0
275 502 115 1 1 1
275 503 114 0 0 0
276 496 117 1 1 1
276 497 117 1 1 1
277 497 117 1 1 1
276 496 118 1 1 1
277 496 118 1 1 1
277 497 118 1 1 1
276 498 117 1 1 1
276 499 116 1 1 1
276 499 117 1 1 1
277 498 117 1 1 1
277 499 117 1 1 1
278 496 118 1 1 1
278 497 118 1 1 1
279 496 118 1 1 1
279 496 119 1 1 1
279 497 118 1 1 1
278 498 117 1 1 1
278 499 117 1 1 1
279 499 117 1 1 1
278 498 118 1 1 1
279 498 118 1 1 1
279 499 118 1 0 1
276 500 115 1 1 1
276 501 115 1 1 1
276 502 114 1 0 0
276 502 115 1 1 1
276 503 114 0 0 0
276 503 115 1 0 1
277 502 115 1 1 1
277 503 115 1 1 1
278 503 115 1 1 1
276 500 116 1 1 1
276 501 116 1 1 1
277 500 116 1 1 1
277 500 117 1 1 1
277 501 116 1 1 1
277 502 116 1 1 1
278 500 117 1 1 1
278 501 116 1 1 1
278 501 117 1 1 1
279 500 117 1 1 1
279 501 117 1 1 1
278 502 116 1 1 1
278 503 116 1 1 1
279 502 116 1 1 1
279 502 117 1 1 1
279 503 116 1 1 1
272 504 112 0 0 0
273 504 112 0 0 0
273 504 113 0 0 0
273 505 112 0 0 0
273 506 112 1 0 0
274 504 113 0 0 0
274 505 112 1 0 0
274 505 113 0 0 0
275 504 113 0 0 0
275 505 113 0 0 0
274 506 112 1 0 1
274 507 112 1 0 1
275 506 112 0 0 0
275 506 113 0 0 0
275 507 112 0 0 0
274 508 112 0 0 0
275 508 112 0 0 0
275 509 112 0 0 0
275 510 112 0 0 0
275 511 112 0 0 0
276 505 113 0 0 0
276 504 114 0 0 0
276 505 114 0 0 0
277 504 114 1 1 1
277 504 115 1 1 1
277 505 114 1 0 0
276 506 113 0 0 0
276 507 112 0 0 0
276 507 113 0 0 0
277 506 113 0 0 0
277 507 113 0 0 0
277 506 114 0 0 0
277 507 114 1 0 0
278 504 115 1 1 1
278 505 114 1 0 0
278 505 115 1 1 1
279 504 115 1 1 1
279 505 115 1 1 1
278 506 114 1 0 0
278 507 114 0 0 0
279 506 114 0 0 0
279 506 115 1 0 1
279 507 114 1 0 0
279 507 115 1 0 0
279 504 116 1 1 1
279 505 116 1 1 1
276 508 112 0 0 0
276 508 113 0 0 0
276 509 112 0 0 0
276 509 113 0 0 0
277 508 113 0 0 0
277 509 113 0 0 0
276 510 112 0 0 0
276 510 113 0 0 0
276 511 112 0 0 0
277 510 113 0 0 0
277 511 112 0 0 0
277 511 113 0 0 0
278 508 113 0 0 0
278 509 113 0 0 0
278 508 114 1 0 0
278 509 114 1 0 0
279 508 114 1 0 0
279 509 114 1 0 0
278 510 113 0 0 0
278 511 113 0 0 0
279 510 113 1 0 0
279 511 113 1 0 0
279 510 114 1 0 0
279 511 114 1 0 0
280 496 119 1 1 1
280 497 118 1 1 1
280 497 119 1 1 1
281 496 119 1 0 1
281 497 119 1 1 1
280 498 118 1 1 1
280 498 119 1 1 1
280 499 118 1 1 1
281 498 119 1 1 1
281 499 118 1 1 1
281 499 119 1 1 1
282 497 119 1 1 1
282 498 119 1 1 1
282 499 119 1 1 1
283 499 119 1 1 1
280 500 117 1 1 1
280 501 117 1 1 1
280 500 118 1 1 1
280 501 118 1 1 1
281 500 118 1 1 1
281 501 118 1 1 1
280 502 117 1 1 1
280 503 116 1 1 1
280 503 117 1 1 1
281 502 117 1 1 1
281 503 117 1 1 1
281 502 118 1 1 1
282 500 118 1 1 1
282 500 119 1 1 1
282 501 118 1 1 1
282 501 119 1 1 1
283 500 119 1 1 1
283 501 119 1 1 1
282 503 117 1 1 1
282 502 118 1 1 1
282 503 118 1 1 1
283 502 118 1 1 1
283 502 119 1 1 1
283 503 118 1 1 1
283 503 119 1 1 1
284 501 119 1 1 1
284 502 119 1 1 1
284 503 119 1 1 1
285 502 119 1 1 1
285 503 119 1 1 1
281 496 120 1 0 1
282 496 120 1 1 1
282 497 120 1 1 1
283 496 120 1 1 1
283 496 121 1 1 1
283 497 120 1 1 1
282 498 120 1 1 1
283 498 120 1 1 1
283 499 120 1 1 1
283 500 120 1 1 1
284 496 121 1 0 0
284 497 120 1 1 1
284 497 121 0 0 0
285 497 121 0 0 0
285 496 122 0 0 0
285 497 122 0 0 0
284 498 120 1 1 1
284 498 121 1 1 1
284 499 120 1 1 1
285 498 121 1 0 0
285 499 121 1 1 1
286 496 122 0 0 0
286 496 123 1 1 1
286 497 122 0 0 0
287 496 123 1 1 1
287 497 122 1 1 1
287 497 123 1 1 1
286 499 121 1 1 1
286 498 122 1 1 1
286 499 122 1 1 1
287 498 122 1 1 1
287 498 123 1 1 1
287 499 122 1 1 1
287 499 123 1 1 1
287 496 124 1 1 1
284 500 120 1 1 1
284 501 120 1 1 1
285 500 120 1 1 1
285 500 121 1 1 1
285 501 120 1 1 1
284 502 120 1 1 1
285 502 120 1 1 1
285 503 120 1 1 1
286 500 121 1 1 1
286 501 121 1 1 1
287 501 121 1 1 1
287 500 122 1 1 1
287 501 122 1 1 1
286 502 120 1 1 1
286 502 121 1 1 1
286 503 120 1 1 1
287 502 121 1 1 1
287 503 120 1 0 0
287 503 121 1 0 0
287 502 122 1 1 1
280 506 115 1 1 1
280 507 115 1 0 0
281 507 115 1 0 1
280 504 116 1 1 1
280 504 117 1 1 1
280 505 116 1 1 1
281 504 117 1 1 1
281 505 116 1 1 1
281 505 117 1 1 1
280 506 116 1 1 1
281 506 116 1 1 1
281 507 116 1 1 1
282 504 117 1 1 1
282 505 117 1 1 1
283 505 117 1 1 1
282 504 118 1 1 1
283 504 118 1 1 1
283 505 118 1 1 1
282 506 116 1 1 1
282 506 117 1 1 1
282 507 116 1 1 1
283 506 117 1 1 1
283 507 116 1 1 1
283 507 117 1 0 0
283 506 118 1 1 1
280 508 114 1 0 0
280 508 115 0 0 0
280 509 114 0 0 0
280 509 115 1 0 0
281 508 115 1 1 1
281 509 115 1 0 0
280 510 114 1 0 0
280 511 114 1 0 0
281 510 114 0 0 0
281 510 115 0 0 0
281 511 114 1 0 0
282 508 115 1 1 1
282 509 115 1 1 1
282 510 115 1 0 0
282 511 115 1 0 0
283 510 115 1 0 0
283 511 115 1 0 0
282 508 116 1 1 1
282 509 116 1 1 1
283 508 116 1 1 1
283 508 117 1 1 1
283 509 116 1 1 1
283 510 116 1 0 0
283 511 116 1 0 0
284 504 118 1 1 1
284 504 119 1 1 1
284 505 118 0 0 0
285 504 119 1 1 1
285 505 119 0 0 0
284 507 117 1 1 1
284 506 118 1 0 0
284 507 118 1 1 1
285 506 118 0 0 0
285 506 119 0 0 0
285 507 118 1 0 0
286 504 119 1 0 1
286 505 119 0 0 0
286 506 119 1 0 1
286 507 118 1 0 0
286 507 119 1 0 0
287 506 119 1 1 1
287 507 119 1 1 1
284 508 117 1 0 0
284 509 117 1 0 0
285 508 117 1 0 0
285 509 117 1 0 0
285 508 118 1 0 0
285 509 118 0 0 0
284 510 116 1 1 1
284 510 117 1 0 0
284 511 116 1 1 1
285 510 117 1 1 1
285 511 116 1 1 1
285 511 117 1 1 1
286 508 118 1 0 0
286 508 119 1 0 0
286 509 118 1 0 0
287 508 119 1 0 0
287 509 118 1 0 0
287 509 119 1 0 0
286 510 117 1 1 1
286 511 117 1 1 1
286 510 118 1 0 0
287 510 118 1 0 0
287 510 119 0 0 0
287 511 118 1 0 1
286 504 120 1 0 1
286 505 120 1 0 0
287 504 120 1 0 1
287 504 121 1 1 1
287 505 120 1 0 1
287 505 121 1 1 1
287 506 120 1 1 1
287 507 120 1 1 1
287 508 120 1 0 1
288 489 127 0 0 0
288 490 127 0 0 0
288 491 127 0 0 0
289 491 127 0 0 0
288 492 126 0 0 0
288 492 127 0 0 0
288 493 126 0 0 0
289 492 127 0 0 0
289 493 126 0 0 0
289 493 127 0 0 0
288 494 125 1 1 1
288 495 124 1 1 1
288 495 125 1 1 1
289 495 125 1 1 1
288 494 126 1 1 1
289 494 126 1 1 1
289 495 126 1 1 1
290 492 127 0 0 0
290 493 127 1 0 1
290 494 126 1 1 1
290 494 127 1 1 1
290 495 126 1 1 1
290 495 127 1 1 1
291 494 127 1 1 1
291 495 127 1 1 1
288 497 123 1 1 1
288 498 123 1 1 1
288 499 123 1 1 1
288 496 124 1 1 1
288 497 124 1 1 1
289 496 124 1 1 1
289 496 125 1 1 1
289 497 124 1 1 1
289 497 125 1 1 1
288 498 124 1 1 1
289 498 124 1 1 1
289 499 124 1 1 1
290 496 125 1 1 1
290 497 125 1 1 1
290 496 126 1 1 1
290 497 126 1 1 1
291 496 126 1 1 1
291 496 127 1 1 1
291 497 126 1 1 1
291 497 127 1 1 1
290 498 124 1 1 1
290 498 125 1 1 1
290 499 124 1 1 1
290 499 125 1 1 1
291 499 125 1 1 1
291 498 126 1 1 1
291 499 126 1 1 1
288 500 123 1 1 1
288 501 122 1 1 1
288 501 123 1 1 1
289 500 123 1 1 1
289 501 123 1 1 1
288 502 122 1 0 1
288 502 123 1 1 1
288 503 122 0 0 0
289 502 123 1 1 1
289 503 122 0 0 0
289 503 123 1 0 0
290 502 123 1 1 1
290 503 123 1 1 1
289 500 124 1 1 1
289 501 124 1 1 1
290 500 124 1 1 1
290 501 124 1 1 1
291 500 125 1 1 1
291 501 125 1 1 1
290 502 124 1 1 1
290 503 124 1 1 1
291 502 124 1 1 1
291 502 125 1 1 1
291 503 124 1 1 1
291 503 125 1 1 1
292 496 127 1 1 1
292 497 127 1 1 1
292 498 126 1 1 1
292 498 127 1 1 1
292 499 126 1 1 1
292 499 127 1 1 1
293 498 127 1 1 1
293 499 127 1 1 1
292 500 126 1 1 1
292 501 126 1 1 1
293 500 126 1 1 1
293 500 127 1 1 1
293 501 126 1 1 1
293 501 127 1 1 1
292 502 125 1 1 1
292 503 125 1 1 1
292 502 126 1 1 1
293 502 126 1 1 1
293 503 126 1 1 1
294 500 127 1 1 1
294 501 127 1 1 1
294 502 127 1 1 1
294 503 126 1 1 1
294 503 127 1 1 1
288 509 119 1 0 0
288 510 119 0 0 0
288 511 119 0 0 0
289 511 119 1 0 0
288 504 121 1 0 0
288 505 121 0 0 0
288 504 122 0 0 0
289 504 122 0 0 0
289 504 123 0 0 0
289 505 122 1 0 1
288 506 120 1 1 1
288 506 121 1 0 1
288 507 120 1 1 1
288 507 121 1 1 1
289 506 121 1 0 1
289 507 121 1 1 1
289 506 122 1 1 1
290 504 123 1 1 1
290 505 122 1 1 1
290 505 123 1 1 1
291 505 123 1 1 1
290 506 122 1 1 1
290 506 123 1 0 1
290 507 122 1 0 1
291 506 123 1 0 1
291 507 122 1 0 1
291 507 123 1 0 1
291 504 124 1 1 1
291 505 124 1 1 1
291 506 124 1 0 0
288 508 120 1 1 1
288 509 120 1 1 1
289 508 120 1 1 1
289 508 121 1 1 1
289 509 120 1 1 1
289 509 121 1 1 1
288 510 120 0 0 0
289 510 120 1 0 0
289 511 120 1 0 1
290 508 121 1 0 1
290 509 121 1 1 1
290 508 122 1 0 1
291 508 122 1 0 1
291 508 123 1 1 1
291 509 122 1 1 1
290 510 120 1 1 1
290 510 121 1 1 1
290 511 120 1 0 1
291 510 121 1 1 1
291 511 121 1 0 1
291 510 122 1 1 1
291 511 122 1 0 1
292 507 123 1 0 1
292 504 125 1 1 1
292 505 124 1 1 1
292 505 125 1 0 1
293 504 125 1 0 1
293 505 125 1 0 0
293 504 126 1 0 0
293 505 126 0 0 0
292 506 124 1 0 0
292 507 124 1 1 1
293 506 124 1 1 1
293 506 125 1 0 0
293 507 124 1 1 1
293 507 125 1 1 1
294 504 126 1 0 0
294 504 127 1 1 1
294 505 126 0 0 0
294 505 127 1 1 1
295 504 127 1 0 0
295 505 127 1 1 1
294 506 125 1 0 1
294 507 125 1 1 1
294 506 126 1 0 0
295 506 126 1 1 1
295 506 127 1 1 1
295 507 126 1 1 1
295 507 127 1 1 1
292 508 123 1 1 1
292 509 123 1 1 1
293 509 123 1 1 1
292 510 122 1 1 1
292 510 123 1 1 1
292 511 122 1 1 1
293 510 123 1 1 1
293 511 123 1 1 1
292 508 124 1 1 1
293 508 124 1 1 1
293 509 124 1 1 1
293 510 124 1 1 1
294 508 125 1 1 1
294 509 124 1 1 1
294 509 125 1 1 1
295 508 125 1 0 1
295 509 125 1 0 0
295 508 126 1 1 1
295 509 126 1 1 1
294 510 124 1 1 1
294 510 125 1 0 0
294 511 124 1 1 1
295 510 125 1 0 0
295 511 125 1 0 0
295 510 126 1 0 0
296 506 127 1 1 1
296 507 127 1 1 1
296 508 127 1 1 1
296 509 126 1 1 1
296 509 127 1 1 1
297 508 127 1 1 1
297 509 127 1 1 1
296 511 125 1 0 0
296 510 126 1 1 1
296 510 127 1 1 1
296 511 126 1 0 0
297 510 127 1 1 1
297 511 126 1 1 1
297 511 127 1 1 1
298 510 127 1 1 1
298 511 127 1 1 1
