ply
format ascii 1.0
comment Created by Open3D
element vertex 397
property double x
property double y
property double z
property uchar red
property uchar green
property uchar blue
end_header
255 234 267 0 0 0
255 235 267 0 0 0
255 233 268 0 0 0
255 233 269 0 0 0
255 233 270 0 0 0
255 233 271 0 0 0
255 234 268 0 0 0
255 234 269 0 0 0
255 235 268 0 0 0
255 235 269 0 0 0
255 234 270 0 0 0
255 234 271 0 0 0
255 235 270 0 0 0
255 235 271 0 0 0
255 236 267 0 0 0
255 237 266 0 0 0
255 237 267 0 0 0
255 238 266 0 0 0
255 238 267 0 0 0
255 239 266 0 0 0
255 239 267 0 0 0
255 236 268 0 0 0
255 236 269 0 0 0
255 237 268 0 0 0
255 237 269 0 0 0
254 237 271 0 0 0
255 236 270 0 0 0
255 236 271 0 0 0
255 237 270 0 0 0
255 237 271 0 0 0
254 238 269 0 0 0
254 239 269 0 0 0
255 238 268 0 0 0
255 238 269 0 0 0
255 239 268 0 0 0
254 238 270 0 0 0
254 238 271 0 0 0
254 239 270 0 0 0
254 239 271 0 0 0
255 238 270 0 0 0
255 234 272 0 0 0
255 235 272 0 0 0
255 235 273 0 0 0
255 236 272 0 0 0
255 236 273 0 0 0
255 237 272 0 0 0
255 237 273 0 0 0
255 236 274 0 0 0
255 237 274 0 0 0
255 237 275 0 0 0
254 238 272 0 0 0
254 238 273 0 0 0
254 239 272 0 0 0
254 239 273 0 0 0
255 238 273 0 0 0
254 239 274 0 0 0
255 238 274 0 0 0
255 238 275 0 0 0
255 239 274 0 0 0
255 239 275 0 0 0
255 238 276 0 0 0
255 239 276 0 0 0
255 239 277 0 0 0
255 240 266 0 0 0
255 240 267 0 0 0
255 241 266 0 0 0
255 241 267 0 0 0
255 242 266 0 0 0
255 242 267 0 0 0
255 243 266 0 0 0
255 243 267 0 0 0
254 240 268 0 0 0
254 240 269 0 0 0
254 241 268 0 0 0
254 241 269 0 0 0
255 240 268 0 0 0
254 240 270 0 0 0
254 240 271 0 0 0
254 241 270 0 0 0
254 241 271 0 0 0
254 242 268 0 0 0
254 242 269 0 0 0
254 243 268 0 0 0
254 243 269 0 0 0
254 242 270 0 0 0
254 242 271 0 0 0
254 243 270 0 0 0
254 243 271 0 0 0
254 245 267 0 0 0
255 244 266 0 0 0
255 244 267 0 0 0
255 245 267 0 0 0
254 246 267 0 0 0
254 247 267 0 0 0
255 246 267 0 0 0
255 247 266 0 0 0
255 247 267 0 0 0
253 244 270 0 0 0
253 244 271 0 0 0
253 245 270 0 0 0
253 245 271 0 0 0
253 246 270 0 0 0
253 246 271 0 0 0
253 247 270 0 0 0
253 247 271 0 0 0
254 244 268 0 0 0
254 244 269 0 0 0
254 245 268 0 0 0
254 245 269 0 0 0
254 244 270 0 0 0
254 244 271 0 0 0
254 245 270 0 0 0
254 246 268 0 0 0
254 246 269 0 0 0
254 247 268 0 0 0
254 247 269 0 0 0
254 246 270 0 0 0
254 248 267 0 0 0
254 249 267 0 0 0
255 248 266 0 0 0
255 248 267 0 0 0
255 249 266 0 0 0
255 249 267 0 0 0
255 250 266 0 0 0
255 250 267 0 0 0
255 251 266 0 0 0
255 251 267 0 0 0
253 248 270 0 0 0
253 248 271 0 0 0
253 249 270 0 0 0
253 249 271 0 0 0
253 250 270 0 0 0
253 250 271 0 0 0
253 251 270 0 0 0
253 251 271 0 0 0
254 248 268 0 0 0
254 248 269 0 0 0
254 249 268 0 0 0
254 249 269 0 0 0
254 248 270 0 0 0
254 249 270 0 0 0
254 250 268 0 0 0
254 250 269 0 0 0
254 251 268 0 0 0
254 251 269 0 0 0
254 250 270 0 0 0
254 251 270 0 0 0
255 252 266 0 0 0
255 252 267 0 0 0
255 253 267 0 0 0
255 254 266 0 0 0
255 254 267 0 0 0
255 255 267 0 0 0
253 252 270 0 0 0
253 252 271 0 0 0
253 253 270 0 0 0
253 253 271 0 0 0
253 254 270 0 0 0
253 254 271 0 0 0
253 255 270 0 0 0
253 255 271 0 0 0
254 252 268 0 0 0
254 252 269 0 0 0
254 253 268 0 0 0
254 253 269 0 0 0
255 252 268 0 0 0
255 253 268 0 0 0
254 252 270 0 0 0
254 253 270 0 0 0
254 254 268 0 0 0
254 254 269 0 0 0
254 255 268 0 0 0
254 255 269 0 0 0
255 254 268 0 0 0
254 254 270 0 0 0
254 255 270 0 0 0
254 240 272 0 0 0
254 240 273 0 0 0
254 241 272 0 0 0
254 241 273 0 0 0
254 240 274 0 0 0
254 240 275 0 0 0
254 241 274 0 0 0
254 241 275 0 0 0
255 240 275 0 0 0
254 242 272 0 0 0
254 242 273 0 0 0
254 243 272 0 0 0
254 243 273 0 0 0
254 242 274 0 0 0
254 242 275 0 0 0
254 243 274 0 0 0
254 243 275 0 0 0
254 241 276 0 0 0
255 240 276 0 0 0
255 240 277 0 0 0
255 241 276 0 0 0
255 241 277 0 0 0
255 240 278 0 0 0
255 241 278 0 0 0
255 241 279 0 0 0
254 242 276 0 0 0
254 242 277 0 0 0
254 243 276 0 0 0
254 243 277 0 0 0
255 242 277 0 0 0
254 243 278 0 0 0
255 242 278 0 0 0
255 242 279 0 0 0
255 243 278 0 0 0
255 243 279 0 0 0
253 244 272 0 0 0
253 244 273 0 0 0
253 245 272 0 0 0
253 245 273 0 0 0
253 244 274 0 0 0
253 244 275 0 0 0
253 245 274 0 0 0
253 245 275 0 0 0
253 246 272 0 0 0
253 246 273 0 0 0
253 247 272 0 0 0
253 247 273 0 0 0
253 246 274 0 0 0
253 246 275 0 0 0
253 247 274 0 0 0
253 247 275 0 0 0
254 244 274 0 0 0
254 244 275 0 0 0
253 244 276 0 0 0
253 245 276 0 0 0
253 245 277 0 0 0
253 246 276 0 0 0
253 246 277 0 0 0
253 247 276 0 0 0
253 247 277 0 0 0
253 246 278 0 0 0
253 247 278 0 0 0
253 247 279 0 0 0
254 244 276 0 0 0
254 244 277 0 0 0
254 245 277 0 0 0
254 244 278 0 0 0
254 244 279 0 0 0
254 245 278 0 0 0
254 245 279 0 0 0
255 244 279 0 0 0
254 246 278 0 0 0
254 246 279 0 0 0
254 247 279 0 0 0
255 242 280 0 0 0
255 243 280 0 0 0
255 243 281 0 0 0
254 245 280 0 0 0
255 244 280 0 0 0
255 244 281 0 0 0
255 245 280 0 0 0
255 245 281 0 0 0
255 244 282 0 0 0
255 245 282 1 0 0
254 246 280 0 0 0
254 246 281 1 0 0
254 247 280 1 0 0
254 247 281 1 0 0
255 246 281 1 0 0
255 247 281 1 0 0
255 246 282 1 0 0
255 246 283 1 0 0
255 247 282 1 0 0
255 247 283 1 0 0
253 248 272 0 0 0
253 248 273 0 0 0
253 249 272 0 0 0
253 249 273 0 0 0
253 248 274 0 0 0
253 248 275 1 0 0
253 249 274 0 0 0
253 249 275 1 0 0
253 250 272 0 0 0
253 250 273 0 0 0
253 251 272 0 0 0
253 251 273 0 0 0
253 250 274 0 0 0
253 250 275 0 0 0
253 251 274 0 0 0
253 251 275 0 0 0
253 248 276 0 0 0
253 248 277 0 0 0
253 249 276 0 0 0
253 249 277 0 0 0
253 248 278 0 0 0
253 248 279 0 0 0
253 249 278 1 0 0
253 249 279 0 0 0
253 250 276 0 0 0
253 250 277 0 0 0
253 251 276 0 0 0
253 251 277 0 0 0
253 250 278 0 0 0
253 250 279 0 0 0
253 251 278 1 0 0
253 251 279 1 0 0
253 252 272 0 0 0
253 252 273 0 0 0
253 253 272 0 0 0
253 253 273 0 0 0
253 252 274 1 0 0
253 252 275 1 0 0
253 253 274 1 0 0
253 253 275 1 0 0
253 254 272 0 0 0
253 254 273 0 0 0
253 255 272 0 0 0
253 255 273 0 0 0
253 254 274 0 0 0
253 254 275 0 0 0
253 255 274 0 0 0
253 255 275 0 0 0
253 252 276 0 0 0
253 252 277 0 0 0
253 253 276 1 0 0
253 253 277 0 0 0
253 252 278 1 0 0
253 252 279 1 0 0
253 253 278 1 0 0
253 253 279 1 0 0
253 254 276 0 0 0
253 254 277 0 0 0
253 255 276 0 0 0
253 255 277 0 0 0
253 254 278 0 0 0
253 254 279 0 0 0
253 255 278 0 0 0
253 255 279 0 0 0
253 248 280 0 0 0
253 249 280 0 0 0
253 250 280 0 0 0
253 250 281 1 0 0
253 251 280 1 0 0
253 251 281 1 0 0
254 248 280 1 0 0
254 248 281 1 0 0
254 249 280 0 0 0
254 249 281 1 0 0
254 248 282 1 0 0
254 249 282 1 0 0
255 248 282 1 0 0
255 248 283 1 0 0
255 249 282 1 0 0
255 249 283 1 0 0
254 250 281 1 0 0
254 251 281 1 0 0
254 250 282 1 0 0
254 251 282 1 0 0
254 251 283 1 0 0
255 250 283 0 0 0
255 251 283 0 0 0
255 249 284 0 0 0
255 250 284 0 0 0
255 251 284 0 0 0
255 251 285 0 0 0
253 252 280 1 0 0
253 252 281 1 0 0
253 253 280 1 0 0
253 253 281 1 0 0
253 252 282 1 0 0
253 253 282 1 0 0
253 254 280 1 0 0
253 254 281 1 0 0
253 255 280 0 0 0
253 255 281 0 0 0
253 254 282 1 0 0
253 255 282 0 0 0
253 255 283 0 0 0
254 252 282 1 0 0
254 252 283 0 0 0
254 253 282 1 0 0
254 253 283 0 0 0
254 254 282 1 0 0
254 254 283 0 0 0
254 255 283 0 0 0
254 253 284 0 0 0
255 252 284 0 0 0
255 252 285 0 0 0
255 253 284 0 0 0
255 253 285 0 0 0
255 252 286 0 0 0
255 253 286 0 0 0
254 254 284 0 0 0
254 254 285 0 0 0
254 255 284 0 0 0
254 255 285 0 0 0
255 254 285 0 0 0
255 254 286 0 0 0
255 254 287 0 0 0
255 255 286 0 0 0
255 255 287 0 0 0
