ply
format ascii 1.0
comment Created by Open3D
element vertex 1883
property double x
property double y
property double z
property uchar red
property uchar green
property uchar blue
end_header
243 471 427 0 0 0
243 469 430 0 0 0
243 469 431 0 0 0
242 471 429 0 0 0
243 470 428 0 0 0
243 470 429 0 0 0
243 471 428 0 0 0
243 471 429 0 0 0
243 470 430 0 0 0
243 470 431 0 0 0
243 471 430 0 0 0
243 471 431 0 0 0
245 467 429 0 0 0
245 467 430 0 0 0
245 467 431 0 0 0
246 467 429 0 0 0
247 467 429 0 0 0
246 466 431 0 0 0
246 467 430 0 0 0
246 467 431 0 0 0
247 466 430 0 0 0
247 466 431 0 0 0
247 467 430 0 0 0
245 469 427 0 0 0
244 470 427 0 0 0
244 471 426 0 0 0
244 471 427 0 0 0
245 470 427 0 0 0
245 471 426 0 0 0
245 471 427 0 0 0
246 469 427 0 0 0
247 469 427 0 0 0
246 470 426 0 0 0
246 470 427 0 0 0
246 471 426 0 0 0
247 470 426 0 0 0
247 470 427 0 0 0
247 471 426 0 0 0
244 468 429 0 0 0
244 469 429 0 0 0
245 468 428 0 0 0
245 468 429 0 0 0
245 469 428 0 0 0
244 468 430 0 0 0
244 468 431 0 0 0
244 469 430 0 0 0
244 469 431 0 0 0
244 470 428 0 0 0
244 470 429 0 0 0
246 468 428 0 0 0
246 468 429 0 0 0
246 469 428 0 0 0
247 468 428 0 0 0
247 468 429 0 0 0
247 469 428 0 0 0
241 478 423 0 0 0
241 479 422 0 0 0
241 479 423 0 0 0
242 477 423 0 0 0
243 476 423 0 0 0
243 477 423 0 0 0
243 479 421 0 0 0
242 478 422 0 0 0
242 478 423 0 0 0
242 479 422 0 0 0
243 478 422 0 0 0
243 479 422 0 0 0
246 475 423 0 0 0
247 475 423 0 0 0
244 476 423 0 0 0
244 477 422 0 0 0
244 477 423 0 0 0
245 476 423 0 0 0
245 477 422 0 0 0
245 477 423 0 0 0
244 479 421 0 0 0
245 479 421 0 0 0
244 478 422 0 0 0
244 479 422 0 0 0
245 478 422 0 0 0
246 476 423 0 0 0
246 477 422 0 0 0
246 477 423 0 0 0
247 476 423 0 0 0
247 477 422 0 0 0
247 477 423 0 0 0
246 479 421 0 0 0
247 479 421 0 0 0
246 478 422 0 0 0
247 478 422 0 0 0
241 475 425 0 0 0
241 474 427 0 0 0
241 475 426 0 0 0
241 475 427 0 0 0
242 473 426 0 0 0
242 473 427 0 0 0
243 472 426 0 0 0
243 472 427 0 0 0
243 473 426 0 0 0
242 474 425 0 0 0
242 475 424 0 0 0
242 475 425 0 0 0
243 474 425 0 0 0
243 475 424 0 0 0
243 475 425 0 0 0
242 474 426 0 0 0
242 474 427 0 0 0
242 475 426 0 0 0
241 474 428 0 0 0
241 475 428 0 0 0
241 475 429 0 0 0
242 472 428 0 0 0
242 472 429 0 0 0
242 473 428 0 0 0
242 473 429 0 0 0
243 472 428 0 0 0
242 472 430 0 0 0
242 473 430 0 0 0
243 472 430 0 0 0
243 472 431 0 0 0
243 473 431 0 0 0
242 474 428 0 0 0
242 474 429 0 0 0
242 475 429 0 0 0
242 474 430 0 0 0
242 475 430 0 0 0
243 474 431 0 0 0
243 475 431 0 0 0
241 476 425 0 0 0
241 477 424 0 0 0
241 477 425 0 0 0
240 477 426 0 0 0
241 476 426 0 0 0
241 476 427 0 0 0
241 477 426 0 0 0
241 477 427 0 0 0
240 478 425 0 0 0
240 479 424 0 0 0
240 479 425 0 0 0
241 478 424 0 0 0
241 478 425 0 0 0
241 479 424 0 0 0
240 478 426 0 0 0
240 478 427 0 0 0
240 479 426 0 0 0
240 479 427 0 0 0
241 478 427 0 0 0
241 479 427 0 0 0
242 476 424 0 0 0
242 477 424 0 0 0
243 476 424 0 0 0
241 476 428 0 0 0
241 476 429 0 0 0
241 477 428 0 0 0
241 477 429 0 0 0
241 478 428 0 0 0
241 478 429 0 0 0
241 479 428 0 0 0
241 479 429 0 0 0
242 476 429 0 0 0
242 477 429 0 0 0
242 476 430 0 0 0
242 477 430 0 0 0
243 476 431 0 0 0
243 477 431 0 0 0
242 478 429 0 0 0
242 479 429 0 0 0
242 478 430 0 0 0
242 479 430 0 0 0
243 478 430 0 0 0
243 478 431 0 0 0
243 479 430 0 1 1
243 479 431 1 1 1
244 473 425 0 0 0
245 472 425 0 0 0
245 473 425 0 0 0
244 472 426 0 0 0
244 473 426 0 0 0
245 472 426 0 0 0
244 474 424 0 0 0
244 474 425 0 0 0
244 475 424 0 0 0
245 474 424 0 0 0
245 474 425 0 0 0
245 475 424 0 0 0
246 472 425 0 0 0
246 473 424 0 0 0
246 473 425 0 0 0
247 472 425 0 0 0
247 473 424 0 0 0
247 473 425 0 0 0
246 472 426 0 0 0
246 474 424 0 0 0
246 475 424 0 0 0
247 474 424 0 0 0
247 475 424 0 0 0
244 476 424 0 0 0
244 478 431 1 1 1
244 479 431 1 1 1
248 467 428 0 0 0
248 467 429 0 0 0
249 466 429 0 0 0
249 467 428 0 0 0
249 467 429 0 0 0
248 466 430 0 0 0
248 466 431 0 0 0
249 466 430 0 0 0
249 466 431 0 0 0
251 465 430 0 0 0
251 465 431 0 0 0
250 466 429 0 0 0
250 467 428 0 0 0
250 467 429 0 0 0
251 466 429 0 0 0
251 467 428 0 0 0
250 466 430 0 0 0
250 466 431 0 0 0
251 466 430 0 0 0
248 468 427 0 0 0
248 469 427 0 0 0
249 468 427 0 0 0
249 469 427 0 0 0
248 470 426 0 0 0
248 470 427 0 0 0
248 471 426 0 0 0
249 470 426 0 0 0
249 470 427 0 0 0
249 471 426 0 0 0
250 468 427 0 0 0
250 469 427 0 0 0
251 468 427 0 0 0
251 469 427 0 0 0
250 470 426 0 0 0
250 470 427 0 0 0
250 471 426 0 0 0
251 470 427 0 0 0
251 471 426 0 0 0
251 471 427 0 0 0
248 468 428 0 0 0
249 468 428 0 0 0
250 468 428 0 0 0
251 468 428 0 0 0
251 469 428 0 0 0
252 465 430 0 0 0
252 465 431 0 0 0
253 465 431 0 0 0
252 466 429 0 0 0
252 467 428 0 0 0
252 467 429 0 0 0
253 467 429 0 0 0
252 466 430 0 0 0
253 466 430 0 0 0
253 466 431 0 0 0
253 467 430 0 0 0
254 466 431 0 0 0
254 467 430 0 0 0
254 467 431 0 0 0
252 470 427 0 0 0
252 471 427 0 0 0
252 468 428 0 0 0
252 469 428 0 0 0
253 468 429 0 0 0
253 469 428 0 0 0
253 469 429 0 0 0
253 468 430 0 0 0
252 470 428 0 0 0
252 471 428 0 0 0
253 470 428 0 0 0
253 470 429 0 0 0
253 471 428 0 0 0
253 471 429 0 0 0
254 468 430 0 0 0
254 468 431 0 0 0
254 469 430 0 0 0
254 469 431 0 0 0
254 470 430 0 0 0
254 470 431 0 0 0
254 471 430 0 0 0
254 471 431 0 0 0
248 475 423 0 0 0
249 475 423 0 0 0
248 476 423 0 0 0
248 477 422 0 0 0
248 477 423 0 0 0
249 476 423 0 0 0
249 477 422 0 0 0
249 477 423 0 0 0
248 479 421 0 0 0
248 478 422 0 0 0
248 479 422 0 0 0
249 478 422 0 0 0
249 479 422 0 0 0
250 476 423 0 0 0
250 477 423 0 0 0
250 478 423 0 0 0
250 479 422 0 0 0
250 479 423 0 0 0
251 479 423 0 0 0
248 472 425 0 0 0
248 473 424 0 0 0
248 473 425 0 0 0
249 472 425 0 0 0
249 473 424 0 0 0
249 473 425 0 0 0
248 474 424 0 0 0
248 475 424 0 0 0
249 474 424 0 0 0
249 475 424 0 0 0
250 472 425 0 0 0
250 473 425 0 0 0
251 473 425 0 0 0
250 472 426 0 0 0
251 472 426 0 0 0
251 473 426 0 0 0
250 474 424 0 0 0
250 474 425 0 0 0
250 475 424 0 0 0
251 474 425 0 0 0
251 475 424 0 0 0
251 475 425 0 0 0
250 476 424 0 0 0
250 477 424 0 0 0
251 476 424 0 0 0
251 476 425 0 0 0
251 477 424 0 0 0
251 477 425 0 0 0
251 478 424 0 0 0
251 478 425 0 0 0
251 479 424 0 0 0
251 479 425 0 0 0
251 479 426 0 0 0
251 479 427 0 0 0
248 479 431 0 0 1
249 479 431 0 0 0
251 476 431 0 0 0
251 477 430 0 0 0
251 477 431 0 0 0
251 478 429 0 0 0
251 479 428 0 0 0
251 479 429 0 0 0
250 478 431 0 0 0
250 479 430 0 0 0
250 479 431 0 0 0
251 478 430 0 0 0
251 478 431 0 0 0
251 479 430 0 0 0
252 472 426 0 0 0
252 472 427 0 0 0
252 473 426 0 0 0
252 473 427 0 0 0
252 474 426 0 0 0
252 474 427 0 0 0
252 475 426 0 0 0
252 475 427 0 0 0
253 472 428 0 0 0
253 472 429 0 0 0
253 473 428 0 0 0
253 473 429 0 0 0
253 472 430 0 0 0
253 472 431 0 0 0
253 473 430 0 0 0
253 473 431 0 0 0
253 474 428 0 0 0
253 474 429 0 0 0
253 475 428 0 0 0
253 475 429 0 0 0
252 475 430 0 0 0
252 475 431 0 0 0
253 474 430 0 0 0
253 474 431 0 0 0
253 475 430 0 0 0
253 475 431 0 0 0
254 472 430 0 0 0
254 472 431 0 0 0
252 476 425 0 0 0
252 477 425 0 0 0
252 476 426 0 0 0
252 476 427 0 0 0
252 477 426 0 0 0
252 477 427 0 0 0
252 478 425 0 0 0
252 478 426 0 0 0
252 478 427 0 0 0
252 479 426 0 0 0
252 479 427 0 0 0
252 476 428 0 0 0
252 476 429 0 0 0
252 477 428 0 0 0
252 477 429 0 0 0
253 476 428 0 0 0
253 476 429 0 0 0
252 476 430 0 0 0
252 476 431 0 0 0
252 477 430 0 0 0
252 477 431 0 0 0
253 476 430 0 0 0
252 478 428 0 0 0
252 478 429 0 0 0
252 479 428 0 0 0
252 478 430 0 0 0
243 470 432 0 0 0
243 471 432 0 0 0
244 467 433 0 0 0
245 466 433 0 0 0
245 467 432 0 0 0
245 467 433 0 0 0
245 467 434 0 0 0
247 465 434 0 0 0
246 466 432 0 0 0
246 466 433 0 0 0
247 466 432 0 0 0
247 466 433 0 0 0
246 466 434 0 0 0
246 466 435 0 0 0
246 467 434 0 0 0
246 467 435 0 0 0
247 466 434 0 0 0
247 466 435 0 0 0
246 467 436 0 0 0
247 467 436 0 0 0
244 468 432 0 0 0
244 468 433 0 0 0
244 469 432 0 0 0
244 469 433 0 0 0
244 468 434 0 0 0
244 469 434 0 0 0
245 468 434 0 0 0
245 468 435 0 0 0
245 469 434 0 0 0
245 469 435 0 0 0
244 470 432 0 0 0
244 470 433 0 0 0
244 471 433 0 0 0
244 470 434 0 0 0
244 471 434 0 0 0
245 470 434 0 0 0
245 470 435 0 0 0
245 471 434 0 0 0
245 471 435 0 0 0
246 468 435 0 0 0
246 470 435 0 0 0
246 471 435 0 0 0
246 468 436 0 0 0
246 469 436 0 0 0
247 468 436 0 0 0
247 469 436 0 0 0
246 470 436 0 0 0
246 471 436 0 0 0
247 470 436 0 0 0
247 471 436 0 0 0
243 472 432 0 0 0
243 473 432 0 0 0
243 474 432 0 0 0
243 475 432 0 0 0
243 476 432 0 0 0
244 472 433 0 0 0
244 473 433 0 0 0
244 472 434 0 0 0
245 472 434 0 0 0
245 472 435 0 0 0
245 473 434 0 0 0
244 474 433 0 0 0
244 475 432 0 0 0
244 475 433 0 0 0
245 474 433 0 0 1
245 475 433 0 1 1
245 474 434 0 0 1
245 475 434 1 1 1
246 472 435 0 0 1
246 473 434 1 1 1
246 473 435 1 1 1
247 472 435 0 1 1
247 473 435 1 1 1
246 474 434 1 1 1
246 474 435 1 1 1
246 475 434 1 1 1
247 474 434 1 1 1
247 474 435 1 1 1
247 475 434 1 1 1
246 472 436 0 0 1
247 472 436 0 0 1
244 476 432 0 0 1
244 476 433 0 0 1
244 477 432 0 0 1
245 476 433 1 1 1
245 477 432 1 1 1
245 477 433 1 1 1
244 478 432 1 1 1
244 479 432 1 1 1
245 478 432 1 1 1
245 478 433 1 1 1
245 479 432 1 1 1
246 476 433 1 1 1
246 477 433 1 1 1
247 476 433 1 1 1
247 477 433 1 1 1
246 476 434 1 1 1
247 476 434 1 1 1
246 478 432 1 1 1
246 478 433 1 1 1
246 479 432 1 1 1
247 478 432 1 1 1
247 478 433 1 1 1
247 479 432 1 1 1
248 465 434 0 0 0
248 466 432 0 0 0
248 466 433 0 0 0
249 466 432 0 0 0
249 466 433 0 0 0
248 466 434 0 0 0
248 466 435 0 0 0
249 466 434 0 0 0
249 466 435 0 0 0
250 465 432 0 0 0
250 465 433 0 0 0
251 465 432 0 0 0
251 465 433 0 0 0
250 465 434 0 0 0
251 465 434 0 0 0
250 466 432 0 0 0
250 466 434 0 0 0
250 466 435 0 0 0
251 466 434 0 0 0
251 466 435 0 0 0
251 467 435 0 0 0
248 467 436 0 0 0
249 467 436 0 0 0
250 467 436 0 0 0
251 467 436 0 0 0
251 471 435 0 0 1
248 468 436 0 0 0
248 469 436 0 0 0
249 468 436 0 0 0
249 469 436 0 0 0
248 470 436 0 0 0
248 471 436 0 0 0
249 470 436 0 0 0
249 471 436 0 0 0
250 468 436 0 0 0
250 469 436 0 0 0
251 468 436 0 0 1
251 469 436 0 0 1
250 470 436 0 0 0
250 471 436 0 0 0
251 470 436 0 0 0
251 471 436 0 0 0
252 465 432 0 0 0
252 465 433 0 0 0
253 465 432 0 0 0
253 465 433 0 0 0
252 465 434 0 0 0
253 466 432 0 0 0
253 466 433 0 0 0
252 466 434 0 0 0
252 466 435 0 0 0
252 467 435 0 0 1
253 466 434 0 0 0
253 467 434 0 0 0
253 467 435 0 0 1
254 466 432 0 0 0
254 466 433 0 0 0
254 467 432 0 0 0
254 467 433 0 0 0
255 467 432 0 0 0
255 467 433 0 0 0
254 467 434 0 0 0
252 467 436 0 0 1
252 468 435 0 0 1
252 469 435 0 0 1
253 468 435 0 0 1
253 469 435 0 0 1
253 471 433 0 0 0
252 470 435 0 0 1
252 471 434 0 0 0
252 471 435 0 0 1
253 470 434 0 0 1
253 470 435 0 0 0
253 471 434 0 0 0
254 468 432 0 0 0
254 468 433 0 0 0
254 469 432 0 0 0
254 469 433 0 0 0
255 468 432 0 0 0
255 468 433 0 0 0
254 468 434 0 0 1
254 468 435 0 0 1
254 469 434 0 0 1
254 470 432 0 0 0
254 470 433 0 0 0
254 471 432 0 0 0
254 471 433 0 0 0
254 470 434 0 0 0
252 468 436 0 0 1
252 469 436 0 0 1
252 470 436 0 0 1
248 473 435 1 1 1
249 473 435 1 1 1
248 474 434 1 1 1
248 474 435 1 1 1
248 475 434 1 1 1
249 474 434 0 1 1
249 474 435 1 1 1
249 475 434 0 1 1
250 472 435 0 0 1
250 473 435 0 0 1
251 472 435 0 0 1
251 473 434 0 0 0
251 473 435 0 0 0
250 475 433 0 0 0
251 474 433 0 0 0
251 475 432 0 0 0
251 475 433 0 0 0
250 474 434 0 0 1
250 474 435 0 0 1
250 475 434 0 0 1
251 474 434 0 0 0
248 472 436 0 0 1
249 472 436 0 0 1
250 472 436 0 0 1
251 472 436 0 0 1
248 476 433 1 1 1
248 477 433 1 1 1
249 476 433 0 0 1
249 477 432 0 0 1
249 477 433 0 0 1
248 476 434 1 1 1
249 476 434 1 1 1
248 478 432 1 1 1
248 478 433 1 1 1
248 479 432 1 1 1
249 478 432 0 0 1
250 476 432 0 0 0
250 476 433 0 0 0
250 477 432 0 0 0
250 477 433 0 0 0
251 476 432 0 0 0
251 477 432 0 0 0
250 478 432 0 0 0
252 473 433 0 0 0
253 472 432 0 0 0
253 472 433 0 0 0
253 473 432 0 0 0
253 473 433 0 0 0
252 472 434 0 0 0
252 472 435 0 0 1
252 473 434 0 0 0
253 472 434 0 0 0
252 474 432 0 0 0
252 474 433 0 0 0
252 475 432 0 0 0
253 474 432 0 0 0
254 472 432 0 0 0
237 494 415 0 0 0
237 495 415 0 0 0
238 493 415 0 0 0
239 492 415 0 0 0
239 493 415 0 0 0
239 495 413 0 0 0
238 494 414 0 0 0
238 494 415 0 0 0
238 495 414 0 0 0
238 495 415 0 0 0
239 494 414 0 0 0
239 494 415 0 0 0
239 495 414 0 0 0
235 502 411 0 0 0
235 503 410 0 0 0
235 503 411 0 0 0
235 501 412 0 0 0
235 501 413 0 0 0
235 502 412 0 0 0
235 502 413 0 0 0
235 503 412 0 0 0
235 503 413 0 0 0
235 502 414 0 0 0
237 499 411 0 0 0
238 499 411 0 0 0
239 498 411 0 0 0
239 499 411 0 0 0
237 497 413 0 0 0
237 496 414 0 0 0
237 496 415 0 0 0
237 497 414 0 0 0
237 497 415 0 0 0
236 498 413 0 0 0
236 499 412 0 0 0
236 499 413 0 0 0
237 498 412 0 0 0
237 498 413 0 0 0
237 499 412 0 0 0
236 498 414 0 0 0
236 498 415 0 0 0
236 499 414 0 0 0
236 499 415 0 0 0
237 498 414 0 0 0
237 498 415 0 0 0
238 496 413 0 0 0
238 497 412 0 0 0
238 497 413 0 0 0
239 496 413 0 0 0
239 497 412 0 0 0
238 496 414 0 0 0
238 498 412 0 0 0
239 498 412 0 0 0
236 500 411 0 0 0
236 501 411 0 0 0
237 500 411 0 0 0
237 501 410 0 0 0
236 503 409 0 0 0
237 502 409 0 0 0
237 503 409 0 0 0
236 502 410 0 0 0
236 502 411 0 0 0
236 503 410 0 0 0
237 502 410 0 0 0
239 501 409 0 0 0
238 500 410 0 0 0
238 500 411 0 0 0
238 501 410 0 0 0
239 500 410 0 0 0
239 501 410 0 0 0
238 502 409 0 0 0
238 503 408 0 0 0
238 503 409 0 0 0
239 502 409 0 0 0
239 503 408 0 0 0
239 503 409 0 0 0
236 500 412 0 0 0
236 500 413 0 0 0
236 501 412 0 0 0
236 501 413 0 0 0
236 500 414 0 0 0
236 500 415 0 0 0
236 501 414 0 0 0
236 501 415 0 0 0
236 502 414 0 0 0
236 502 415 0 0 0
236 503 414 0 0 0
236 503 415 0 0 0
237 503 415 0 0 0
235 507 407 0 0 0
233 509 407 0 0 0
233 511 405 0 0 0
233 510 406 0 0 0
233 510 407 0 0 0
233 511 406 0 0 0
233 511 407 0 0 0
235 509 405 0 0 0
234 508 407 0 0 0
234 509 406 0 0 0
234 509 407 0 0 0
235 508 406 0 0 0
235 508 407 0 0 0
235 509 406 0 0 0
234 510 405 0 0 0
234 511 405 0 0 0
235 510 405 0 0 0
235 511 404 0 0 0
235 511 405 0 0 0
234 510 406 0 0 0
234 510 407 0 0 0
237 505 407 0 0 0
236 506 407 0 0 0
236 507 406 0 0 0
236 507 407 0 0 0
237 506 407 0 0 0
237 507 406 0 0 0
237 507 407 0 0 0
238 505 407 0 0 0
239 505 407 0 0 0
238 506 407 0 0 0
238 507 406 0 0 0
239 506 407 0 0 0
239 507 406 0 0 0
236 509 405 0 0 0
237 508 405 0 0 0
237 509 405 0 0 0
236 508 406 0 0 0
236 509 406 0 0 0
237 508 406 0 0 0
236 510 404 0 0 0
236 510 405 0 0 0
236 511 404 0 0 0
237 510 404 0 0 0
237 510 405 0 0 0
237 511 404 0 0 0
238 508 405 0 0 0
238 509 405 0 0 0
239 509 405 0 0 0
238 508 406 0 0 0
239 508 406 0 0 0
238 510 404 0 0 0
238 510 405 0 0 0
238 511 404 0 0 0
239 510 404 0 0 0
239 510 405 0 0 0
239 511 404 0 0 0
235 504 409 0 0 0
235 505 408 0 0 0
235 505 409 0 0 0
234 505 410 0 0 0
234 505 411 0 0 0
235 504 410 0 0 0
235 504 411 0 0 0
235 505 410 0 0 0
235 505 411 0 0 0
234 506 408 0 0 0
234 506 409 0 0 0
234 507 408 0 0 0
234 507 409 0 0 0
235 506 408 0 0 0
235 506 409 0 0 0
235 507 408 0 0 0
234 506 410 0 0 0
234 506 411 0 0 0
234 507 410 0 0 0
234 507 411 0 0 0
235 506 411 0 0 0
235 507 411 0 0 0
235 504 412 0 0 0
235 504 413 0 0 0
235 505 412 0 0 0
235 505 413 0 0 0
235 506 412 0 0 0
235 507 412 0 0 0
233 509 408 0 0 0
233 509 409 0 0 0
233 510 408 0 0 0
233 510 409 0 0 0
233 511 408 0 0 0
233 511 409 0 0 0
234 508 408 0 0 0
234 508 409 0 0 0
234 509 408 0 0 0
234 509 409 0 0 0
234 508 410 0 0 0
234 508 411 0 0 0
234 509 410 0 0 0
234 509 411 0 0 0
235 508 411 0 0 0
235 509 411 0 0 0
234 511 409 0 0 0
234 510 410 0 0 0
234 510 411 0 0 0
234 511 410 0 0 0
235 510 411 0 0 0
235 511 411 0 0 0
235 508 412 0 0 0
235 509 412 0 0 0
236 504 409 0 0 0
236 505 408 0 0 0
237 504 408 0 0 0
237 504 409 0 0 0
237 505 408 0 0 0
236 506 408 0 0 0
238 504 408 0 0 0
238 505 408 0 0 0
239 504 408 0 0 0
239 505 408 0 0 0
236 504 413 0 0 0
236 505 413 0 0 0
236 504 414 0 0 0
236 504 415 0 0 0
236 505 414 0 0 0
237 504 415 0 0 0
237 505 415 0 0 0
236 506 413 0 0 0
236 507 413 0 0 0
237 507 413 0 0 0
236 506 414 0 0 0
237 506 414 0 0 0
237 506 415 0 0 0
237 507 414 0 0 0
238 505 415 0 0 0
239 505 415 0 0 0
238 506 414 0 0 0
238 506 415 0 0 0
238 507 414 0 0 0
239 506 414 0 0 0
239 506 415 0 0 0
239 507 414 0 0 0
236 511 411 0 0 0
239 511 411 0 0 0
236 508 412 0 0 0
236 508 413 0 0 0
236 509 412 0 0 0
236 509 413 0 0 0
237 508 413 0 0 0
237 509 412 0 0 0
237 509 413 0 0 0
236 510 412 0 0 0
236 511 412 0 0 0
237 510 412 0 0 0
237 511 412 0 0 0
238 508 413 0 0 0
238 509 413 0 0 0
239 508 413 0 0 0
239 509 412 0 0 0
239 509 413 0 0 0
239 508 414 0 0 0
238 510 412 0 0 0
238 511 412 0 0 0
239 510 412 0 0 0
239 511 412 0 0 0
240 491 415 0 0 0
241 491 415 0 0 0
242 491 415 0 0 0
243 491 415 0 0 0
240 492 415 0 0 0
240 493 414 0 0 0
240 493 415 0 0 0
241 492 415 0 0 0
241 493 414 0 0 0
240 495 413 0 0 0
241 494 413 0 0 0
241 495 413 0 0 0
240 494 414 0 0 0
240 495 414 0 0 0
241 494 414 0 0 0
242 492 415 0 0 0
242 493 414 0 0 0
243 492 415 0 0 0
243 493 414 0 0 0
243 493 415 0 0 0
242 495 413 0 0 0
243 495 413 0 0 0
242 494 414 0 0 0
243 494 414 0 0 0
243 495 414 0 0 0
244 491 415 0 0 0
244 492 415 0 0 0
244 493 414 0 0 0
244 493 415 0 0 0
245 492 415 0 0 0
245 493 415 0 0 0
244 495 413 0 0 0
244 494 414 0 0 0
244 494 415 0 0 0
244 495 414 0 0 0
245 494 415 0 0 0
245 495 414 0 0 0
245 495 415 0 0 0
246 495 415 0 0 0
240 498 411 0 0 0
240 499 411 0 0 0
241 498 411 0 0 0
241 499 411 0 0 0
242 498 411 0 0 0
242 499 411 0 0 0
243 499 411 0 0 0
240 496 412 0 0 0
240 496 413 0 0 0
240 497 412 0 0 0
241 496 412 0 0 0
241 496 413 0 0 0
241 497 412 0 0 0
240 498 412 0 0 0
241 498 412 0 0 0
242 496 412 0 0 0
242 496 413 0 0 0
242 497 412 0 0 0
243 496 413 0 0 0
243 497 412 0 0 0
242 498 412 0 0 0
243 498 412 0 0 0
243 499 412 0 0 0
240 501 409 0 0 0
240 500 410 0 0 0
240 501 410 0 0 0
241 500 410 0 0 0
241 501 410 0 0 0
240 502 409 0 0 0
240 503 408 0 0 0
240 503 409 0 0 0
241 502 409 0 0 0
241 503 408 0 0 0
241 503 409 0 0 0
241 502 410 0 0 0
242 500 410 0 0 0
242 500 411 0 0 0
242 501 410 0 0 0
243 500 411 0 0 0
243 501 410 0 0 0
243 501 411 0 0 0
242 503 409 0 0 0
242 502 410 0 0 0
242 503 410 0 0 0
243 502 410 0 0 0
243 502 411 0 0 0
243 503 410 0 0 0
243 503 411 0 0 0
243 502 415 0 0 0
243 503 415 0 0 0
244 496 413 0 0 0
244 497 413 0 0 0
245 496 414 0 0 0
245 496 415 0 0 0
245 497 414 0 0 0
245 497 415 0 0 0
244 498 412 0 0 0
244 498 413 0 0 0
244 499 412 0 0 0
244 499 413 0 0 0
245 498 413 0 0 0
245 499 413 0 0 0
245 498 414 0 0 0
245 498 415 0 0 0
245 499 414 0 0 0
245 499 415 0 0 0
246 496 415 0 0 0
246 497 415 0 0 0
244 500 411 0 0 0
244 501 411 0 0 0
244 502 411 0 0 0
244 503 411 0 0 0
244 500 412 0 0 0
244 500 413 0 0 0
244 501 412 0 0 0
244 501 413 0 0 0
245 500 413 0 0 0
245 501 413 0 0 0
244 501 415 0 0 0
245 500 414 0 0 0
245 500 415 0 0 0
245 501 414 0 0 0
245 501 415 0 0 0
244 502 412 0 0 0
244 502 413 0 0 0
244 503 412 0 0 0
244 503 413 0 0 0
245 502 413 0 0 0
244 502 414 0 0 0
244 502 415 0 0 0
244 503 414 0 0 0
244 503 415 0 0 0
245 502 414 0 0 0
240 505 407 0 0 0
240 506 407 0 0 0
240 507 406 0 0 0
240 507 407 0 0 0
241 506 407 0 0 0
241 507 407 0 0 0
242 507 407 0 0 0
240 509 405 0 0 0
240 508 406 0 0 0
240 509 406 0 0 0
241 508 406 0 0 0
241 508 407 0 0 0
241 509 406 0 0 0
241 509 407 0 0 0
240 510 405 0 0 0
240 511 404 0 0 0
241 510 405 0 0 0
241 511 404 0 0 0
241 511 405 0 0 0
241 510 406 0 0 0
242 508 407 0 0 0
242 509 407 0 0 0
242 511 405 0 0 0
242 510 406 0 0 0
242 510 407 0 0 0
242 511 406 0 0 0
242 511 407 0 0 0
240 504 408 0 0 0
240 505 408 0 0 0
241 504 408 0 0 0
241 504 409 0 0 0
241 505 408 0 0 0
241 506 408 0 0 0
242 504 409 0 0 0
242 505 408 0 0 0
242 505 409 0 0 0
243 505 409 0 0 0
243 504 410 0 0 0
243 504 411 0 0 0
243 505 410 0 0 0
243 505 411 0 0 0
242 506 408 0 0 0
242 506 409 0 0 0
242 507 408 0 0 0
242 507 409 0 0 0
243 506 409 0 0 0
243 507 409 0 0 0
242 507 411 0 0 0
243 506 410 0 0 0
243 506 411 0 0 0
243 507 410 0 0 0
243 507 411 0 0 0
240 505 415 0 0 0
241 504 415 0 0 1
241 505 415 0 0 1
241 507 413 0 0 0
240 506 414 0 0 0
240 506 415 0 0 0
240 507 414 0 0 0
241 506 414 0 0 0
241 506 415 0 0 0
241 507 414 0 0 0
243 504 413 0 0 0
243 505 412 0 0 0
243 505 413 0 0 0
242 504 415 0 0 1
242 505 414 0 0 1
242 505 415 0 0 1
243 504 414 0 0 0
243 504 415 0 0 0
243 505 414 0 0 0
242 506 412 0 0 0
242 506 413 0 0 0
242 507 412 0 0 0
242 507 413 0 0 0
243 506 412 0 0 0
243 506 413 0 0 0
242 506 414 0 0 0
241 509 411 0 0 0
240 510 411 0 0 0
240 511 411 0 0 0
241 510 410 0 0 0
241 510 411 0 0 0
241 511 410 0 0 0
241 511 411 0 0 0
242 508 408 0 0 0
242 508 409 0 0 0
242 509 408 0 0 0
242 509 409 0 0 0
242 508 410 0 0 0
242 508 411 0 0 0
242 509 410 0 0 0
242 509 411 0 0 0
243 508 410 0 0 0
242 510 408 0 0 0
242 510 409 0 0 0
242 511 408 0 0 0
242 511 409 0 0 0
242 510 410 0 0 0
242 511 410 0 0 0
240 508 413 0 0 0
240 509 412 0 0 0
240 509 413 0 0 0
241 508 412 0 0 0
241 508 413 0 0 0
241 509 412 0 0 0
240 510 412 0 0 0
242 508 412 0 0 0
244 504 411 0 0 0
244 504 412 0 0 0
244 504 413 0 0 0
239 487 419 0 0 0
239 485 421 0 0 0
239 485 422 0 0 0
239 486 420 0 0 0
239 486 421 0 0 0
239 487 420 0 0 0
239 487 421 0 0 0
239 486 422 0 0 0
239 487 422 0 0 0
239 488 418 0 0 0
239 488 419 0 0 0
239 489 418 0 0 0
239 489 419 0 0 0
239 490 417 0 0 0
239 491 416 0 0 0
239 491 417 0 0 0
238 490 418 0 0 0
238 490 419 0 0 0
238 491 418 0 0 0
238 491 419 0 0 0
239 490 418 0 0 0
239 490 419 0 0 0
239 491 419 0 0 0
239 488 420 0 0 0
239 488 421 0 0 0
239 489 420 0 0 0
239 489 421 0 0 0
239 488 422 0 0 0
239 489 422 0 0 0
239 490 420 0 0 0
239 490 421 0 0 0
239 491 420 0 0 0
239 491 421 0 0 0
239 490 422 0 0 0
237 494 416 0 0 0
237 494 417 0 0 0
237 495 416 0 0 0
237 495 417 0 0 0
237 494 418 0 0 0
237 495 418 0 0 0
238 492 416 0 0 0
238 492 417 0 0 0
238 493 416 0 0 0
238 493 417 0 0 0
239 492 416 0 0 0
238 492 418 0 0 0
238 492 419 0 0 0
238 493 418 0 0 0
238 493 419 0 0 0
238 494 416 0 0 0
238 494 418 0 0 0
238 494 419 0 0 0
238 495 418 0 0 0
238 495 419 0 0 0
239 495 419 0 0 0
239 492 420 0 0 0
239 492 421 0 0 0
239 493 420 0 0 0
239 493 421 0 0 0
239 494 420 0 0 0
239 494 421 0 0 1
239 495 420 0 0 0
237 496 416 0 0 0
237 496 417 0 0 0
237 497 416 0 0 0
237 497 417 0 0 0
237 496 418 0 0 0
237 497 418 0 0 0
236 499 416 0 0 0
237 498 416 0 0 0
237 498 417 0 0 0
237 499 416 0 0 0
237 499 417 0 0 0
238 496 418 0 0 0
238 496 419 0 0 0
238 497 418 0 0 0
238 497 419 0 0 0
239 496 419 0 0 0
239 497 419 0 0 0
238 499 417 0 0 0
238 498 418 0 0 0
238 499 418 0 0 0
239 498 419 0 0 0
239 499 418 0 0 0
239 499 419 0 0 0
239 496 420 0 0 0
236 500 416 0 0 0
236 501 416 0 0 0
237 500 416 0 0 0
237 500 417 0 0 0
237 501 416 0 0 0
237 501 417 0 0 0
236 502 416 0 0 0
237 502 416 0 0 0
237 503 416 0 0 0
238 500 417 0 0 0
238 501 417 0 0 0
239 501 417 0 0 1
238 500 418 0 0 0
239 500 418 0 0 1
239 501 418 0 0 1
238 502 416 0 0 0
238 502 417 0 0 0
238 503 416 0 0 0
239 502 417 0 0 1
239 503 416 0 0 0
239 503 417 0 0 0
237 504 416 0 0 0
238 504 416 0 0 0
239 504 416 0 0 0
239 505 416 0 0 0
242 483 419 0 0 0
243 483 419 0 0 0
241 480 421 0 0 0
241 481 421 0 0 0
240 480 422 0 0 0
240 480 423 0 0 0
240 481 422 0 0 0
240 481 423 0 0 0
241 480 422 0 0 0
241 480 423 0 0 0
241 481 422 0 0 0
240 482 421 0 0 0
240 483 421 0 0 0
241 482 420 0 0 0
241 482 421 0 0 0
241 483 420 0 0 0
241 483 421 0 0 0
240 482 422 0 0 0
240 482 423 0 0 0
240 483 422 0 0 0
240 483 423 0 0 0
242 480 421 0 0 0
242 481 420 0 0 0
242 481 421 0 0 0
243 480 421 0 0 0
243 481 420 0 0 0
243 481 421 0 0 0
242 480 422 0 0 0
242 482 420 0 0 0
242 483 420 0 0 0
243 482 420 0 0 0
243 483 420 0 0 0
240 485 419 0 0 0
241 484 419 0 0 0
241 485 419 0 0 0
240 486 419 0 0 0
240 487 418 0 0 0
240 487 419 0 0 0
241 486 418 0 0 0
241 486 419 0 0 0
241 487 418 0 0 0
242 484 419 0 0 0
242 485 418 0 0 0
242 485 419 0 0 0
243 484 418 0 0 0
243 484 419 0 0 0
243 485 418 0 0 0
242 487 417 0 0 0
243 487 417 0 0 0
242 486 418 0 0 0
242 487 418 0 0 0
243 486 418 0 0 0
240 484 420 0 0 0
240 484 421 0 0 0
240 485 420 0 0 0
240 485 421 0 0 0
241 484 420 0 0 0
240 484 422 0 0 0
240 484 423 0 0 0
240 485 422 0 0 0
240 485 423 0 0 0
240 486 420 0 0 0
240 486 423 0 0 0
240 487 423 0 0 0
244 482 419 0 0 0
244 483 419 0 0 0
245 482 419 0 0 0
245 483 419 0 0 0
246 482 419 0 0 0
246 483 419 0 0 0
247 482 419 0 0 0
247 483 419 0 0 0
244 480 421 0 0 0
244 481 420 0 0 0
245 480 421 0 0 0
245 481 420 0 0 0
244 482 420 0 0 0
245 482 420 0 0 0
246 480 421 0 0 0
246 481 420 0 0 0
247 480 421 0 0 0
247 481 420 0 0 0
246 482 420 0 0 0
247 482 420 0 0 0
244 484 418 0 0 0
244 484 419 0 0 0
244 485 418 0 0 0
245 484 418 0 0 0
245 484 419 0 0 0
245 485 418 0 0 0
244 487 417 0 0 0
245 487 417 0 0 0
244 486 418 0 0 0
244 487 418 0 0 0
245 486 418 0 0 0
245 487 418 0 0 0
246 484 419 0 0 0
246 485 418 0 0 0
246 485 419 0 0 0
247 484 419 0 0 0
247 485 419 0 0 0
246 486 418 0 0 0
246 487 418 0 0 0
247 486 418 0 0 0
247 486 419 0 0 0
247 487 418 0 0 0
247 487 419 0 0 0
240 480 424 0 0 0
240 480 425 0 0 0
240 481 424 0 0 0
240 481 425 0 0 0
240 480 426 0 0 0
240 481 426 0 0 0
241 480 427 0 0 0
241 481 427 0 0 0
240 482 424 0 0 0
240 482 425 0 0 0
240 483 424 0 0 0
240 483 425 0 0 0
240 482 426 0 0 0
240 483 426 0 0 0
241 482 426 0 0 0
241 482 427 0 0 0
241 483 426 0 0 0
241 483 427 0 0 0
241 480 428 0 0 0
241 481 428 0 0 0
242 480 429 0 0 0
242 481 428 0 0 0
242 481 429 1 1 1
243 481 429 1 1 1
242 480 430 0 0 1
243 480 430 1 1 1
243 481 430 1 1 1
242 482 428 0 0 1
242 482 429 1 1 1
242 483 428 1 1 1
243 482 429 1 1 1
243 483 428 1 1 1
243 483 429 1 1 1
243 482 430 1 1 1
240 484 424 0 0 0
240 484 425 0 0 0
240 485 424 0 0 0
240 485 425 0 0 0
240 484 426 0 0 0
241 484 426 0 0 0
241 484 427 0 0 1
241 485 426 0 0 0
240 486 424 0 0 0
240 486 425 0 0 0
240 487 424 0 0 0
241 486 425 0 0 0
241 487 424 0 0 0
241 487 425 1 0 1
241 486 426 0 0 0
242 484 427 1 1 1
242 485 426 1 1 1
242 485 427 1 1 1
243 485 427 1 1 1
242 486 426 1 1 1
242 486 427 1 1 1
242 487 426 1 1 1
243 486 427 1 1 1
243 487 426 1 1 1
243 487 427 1 1 1
242 484 428 1 1 1
242 485 428 1 1 1
243 484 428 1 1 1
243 484 429 1 1 1
243 485 428 1 1 1
244 480 431 1 1 1
244 481 430 1 1 1
244 481 431 1 1 1
245 480 431 1 1 1
245 481 431 1 1 1
244 482 429 1 1 1
244 483 429 1 1 1
245 483 429 1 1 1
244 482 430 1 1 1
244 483 430 1 1 1
245 482 430 1 1 1
245 482 431 1 1 1
245 483 430 1 1 1
246 480 431 1 1 1
246 481 431 1 1 1
247 480 431 1 1 1
247 481 431 1 1 1
246 483 429 1 1 1
247 483 429 1 1 1
246 482 430 1 1 1
246 482 431 1 1 1
246 483 430 1 1 1
247 482 430 1 1 1
247 482 431 1 1 1
247 483 430 1 1 1
244 486 427 1 1 1
244 487 427 1 1 1
245 487 426 1 1 1
245 487 427 1 1 1
247 487 425 0 0 1
246 486 427 1 1 1
246 487 426 1 1 1
246 487 427 1 1 1
247 486 427 1 1 1
247 487 426 1 1 1
247 487 427 1 1 1
244 484 429 1 1 1
244 485 428 1 1 1
244 485 429 1 1 1
245 484 429 1 1 1
245 485 428 1 1 1
245 485 429 1 1 1
244 486 428 1 1 1
245 486 428 1 1 1
246 484 429 1 1 1
246 485 428 1 1 1
246 485 429 1 1 1
247 484 429 1 1 1
247 485 428 1 1 1
247 485 429 1 1 1
246 486 428 1 1 1
247 486 428 1 1 1
240 488 417 0 0 0
240 489 417 0 0 0
241 488 417 0 0 0
241 489 416 0 0 0
241 489 417 0 0 0
240 488 418 0 0 0
241 488 418 0 0 0
240 490 416 0 0 0
240 490 417 0 0 0
240 491 416 0 0 0
241 490 416 0 0 0
241 491 416 0 0 0
242 488 417 0 0 0
242 489 416 0 0 0
242 489 417 0 0 0
243 488 417 0 0 0
243 489 416 0 0 0
243 489 417 0 0 0
242 490 416 0 0 0
242 491 416 0 0 0
243 490 416 0 0 0
243 491 416 0 0 0
240 488 422 0 0 0
240 488 423 0 0 0
240 489 422 0 0 0
240 489 423 0 0 0
241 489 423 0 0 0
240 490 422 0 0 0
240 490 423 0 0 0
240 491 422 0 0 1
241 490 423 1 1 1
241 491 422 1 1 1
241 491 423 1 1 1
242 490 423 1 1 1
242 491 423 1 1 1
243 491 423 1 1 1
240 492 421 0 0 0
240 493 421 1 1 1
240 492 422 1 1 1
240 493 422 1 1 1
241 492 422 1 1 1
241 492 423 1 1 1
241 493 422 1 1 1
240 494 421 1 1 1
240 495 420 1 1 1
240 495 421 1 1 1
241 494 421 1 1 1
241 495 421 1 1 1
241 494 422 1 1 1
242 492 422 1 1 1
242 492 423 1 1 1
242 493 422 1 1 1
243 492 423 1 1 1
243 493 422 1 1 1
242 494 421 1 1 1
242 495 421 1 1 1
243 495 421 1 1 1
242 494 422 1 1 1
243 494 422 1 1 1
244 488 417 0 0 0
244 489 416 0 0 0
244 489 417 0 0 0
245 488 417 0 0 0
245 489 417 0 0 0
244 490 416 0 0 0
244 491 416 0 0 0
245 490 416 0 0 0
245 490 417 0 0 0
245 491 416 0 0 0
246 488 417 0 0 0
246 489 417 0 0 0
246 488 418 0 0 0
246 489 418 0 0 0
247 488 418 0 0 0
247 488 419 0 0 0
247 489 418 0 0 0
247 489 419 0 0 0
246 490 417 0 0 0
246 491 417 0 0 0
246 490 418 0 0 0
246 491 418 0 0 0
247 490 418 0 0 0
247 490 419 0 0 0
247 491 418 0 0 0
247 491 419 0 0 0
244 491 423 1 1 1
245 490 423 0 0 1
245 491 423 0 0 1
247 489 422 0 0 0
247 489 423 0 0 0
247 490 420 0 0 0
247 490 421 0 0 0
247 491 420 0 0 0
247 491 421 0 0 0
246 490 422 0 0 0
246 490 423 0 0 0
246 491 422 0 0 0
247 490 422 0 0 0
247 491 422 0 0 0
244 492 416 0 0 0
245 492 416 0 0 0
245 493 416 0 0 0
245 495 419 0 0 0
246 492 416 0 0 0
246 492 417 0 0 0
246 493 416 0 0 0
246 493 417 0 0 0
246 492 418 0 0 0
246 492 419 0 0 0
246 493 418 0 0 0
246 493 419 0 0 0
247 492 418 0 0 0
247 492 419 0 0 0
246 494 416 0 0 0
246 494 417 0 0 0
246 495 416 0 0 0
246 495 417 0 0 0
246 494 418 0 0 0
246 494 419 0 0 0
246 495 418 0 0 0
246 495 419 0 0 0
245 492 421 0 0 0
245 493 421 0 0 0
244 492 422 0 1 1
244 492 423 1 1 1
244 493 422 0 1 1
245 492 422 0 0 0
245 492 423 0 0 1
245 493 422 0 0 0
244 494 421 0 0 1
244 495 420 0 0 0
244 495 421 0 0 1
245 494 420 0 0 0
245 494 421 0 0 0
245 495 420 0 0 0
244 494 422 1 1 1
246 492 420 0 0 0
246 492 421 0 0 0
246 493 420 0 0 0
246 493 421 0 0 0
247 492 420 0 0 0
246 492 422 0 0 0
246 494 420 0 0 0
240 488 424 0 0 0
241 488 424 0 0 0
241 488 425 0 0 1
241 489 424 0 0 1
241 490 424 1 1 1
242 488 425 1 1 1
242 489 424 1 1 1
242 489 425 1 1 1
243 488 425 1 1 1
243 489 424 1 1 1
243 489 425 1 1 1
242 488 426 1 1 1
243 488 426 1 1 1
242 490 424 1 1 1
243 490 424 1 1 1
243 491 424 1 1 1
244 489 425 1 1 1
245 489 424 1 1 1
245 489 425 1 1 1
244 488 426 1 1 1
245 488 426 1 1 1
244 490 424 1 1 1
244 491 424 1 1 1
245 490 424 1 1 1
246 488 425 1 1 1
246 489 424 0 1 1
246 489 425 1 1 1
247 488 424 0 0 0
247 488 425 1 1 1
247 489 424 0 0 0
246 488 426 1 1 1
247 488 426 1 1 1
248 483 419 0 0 0
248 480 421 0 0 0
248 481 420 0 0 0
248 481 421 0 0 0
249 480 421 0 0 0
249 481 421 0 0 0
249 480 422 0 0 0
249 481 422 0 0 0
248 482 420 0 0 0
248 483 420 0 0 0
249 482 420 0 0 0
249 482 421 0 0 0
249 483 420 0 0 0
249 483 421 0 0 0
250 480 422 0 0 0
250 480 423 0 0 0
250 481 422 0 0 0
250 481 423 0 0 1
251 480 423 0 0 0
251 481 423 0 0 0
250 482 421 0 0 0
250 483 421 0 0 0
250 482 422 0 0 0
250 483 422 0 0 0
250 483 423 0 0 0
251 482 423 0 0 0
251 483 423 0 0 0
248 484 419 0 0 0
248 485 419 0 0 0
248 486 419 0 0 0
248 487 419 0 0 0
248 484 420 0 0 0
248 485 420 0 0 0
249 484 420 0 0 0
249 484 421 0 0 0
249 485 420 0 0 0
249 485 421 0 0 0
248 486 420 0 0 0
248 487 420 0 0 0
249 486 420 0 0 0
249 486 421 0 0 0
249 487 420 0 0 0
249 487 421 0 0 0
249 486 422 0 0 0
249 487 422 0 0 0
249 487 423 0 0 0
250 484 421 0 0 0
250 485 421 0 0 0
250 484 422 0 0 0
250 484 423 0 0 0
250 485 422 0 0 0
250 485 423 0 0 0
251 484 423 0 0 0
250 486 422 0 0 0
250 486 423 0 0 0
251 480 424 0 0 0
251 480 425 0 0 0
251 481 424 0 0 0
251 481 425 0 0 0
250 481 427 0 0 0
251 480 426 0 0 0
251 480 427 0 0 0
251 481 426 0 0 0
251 481 427 0 0 0
251 482 424 0 0 0
251 482 425 0 0 0
251 483 424 0 0 0
251 483 425 0 0 0
250 482 427 0 0 0
250 483 426 0 0 0
250 483 427 0 0 1
251 482 426 0 0 0
251 482 427 0 0 0
251 483 426 0 0 0
249 481 429 0 0 0
248 480 431 1 1 1
248 481 430 0 0 1
248 481 431 1 1 1
249 480 430 0 0 0
249 480 431 0 0 0
249 481 430 0 0 0
248 482 429 0 0 1
248 483 429 0 0 1
249 482 428 1 1 1
249 482 429 0 0 1
249 483 428 1 1 1
249 483 429 1 1 1
248 482 430 0 1 1
250 480 429 0 0 0
250 481 428 0 0 0
250 481 429 0 0 0
251 480 428 0 0 0
251 480 429 0 0 0
251 481 428 0 0 0
250 480 430 0 0 0
250 482 428 0 0 1
250 483 428 1 1 1
248 485 427 0 0 1
249 484 426 0 0 1
249 484 427 1 1 1
249 485 426 0 0 0
249 485 427 0 1 1
248 487 424 0 0 1
248 487 425 0 0 0
249 486 424 0 0 0
249 486 425 0 0 0
249 487 424 0 0 0
249 487 425 0 0 0
248 486 426 0 0 0
248 486 427 0 0 1
248 487 426 0 0 0
249 486 426 0 0 0
250 484 424 0 0 0
250 484 425 0 0 0
250 485 424 0 0 0
250 485 425 0 0 0
251 484 424 0 0 0
251 484 425 0 0 0
250 484 426 0 0 0
250 484 427 0 0 1
250 485 426 0 0 0
250 486 424 0 0 0
248 484 428 0 0 1
248 484 429 0 1 1
248 485 428 0 0 1
249 484 428 1 1 1
248 488 419 0 0 0
248 489 419 0 0 0
248 490 419 0 0 0
248 488 420 0 0 0
248 488 421 0 0 0
248 489 420 0 0 0
248 489 421 0 0 0
249 488 421 0 0 0
248 488 422 0 0 0
248 488 423 0 0 0
248 489 422 0 0 0
249 488 422 0 0 0
249 488 423 0 0 0
248 490 420 0 0 0
248 490 421 0 0 0
248 488 424 0 0 1
246 480 432 1 1 1
247 480 432 1 1 1
240 497 419 0 0 1
240 498 419 0 0 1
240 499 419 0 0 1
241 498 419 0 0 1
241 499 419 1 1 1
243 497 419 0 0 0
242 498 419 0 0 1
242 499 419 1 1 1
243 498 419 0 0 0
243 499 418 0 0 1
243 499 419 0 0 1
240 496 420 1 1 1
240 497 420 1 1 1
241 496 420 1 1 1
241 496 421 1 1 1
241 497 420 1 1 1
241 498 420 1 0 1
242 496 420 1 1 1
242 496 421 1 1 1
242 497 420 1 1 1
243 496 420 1 1 1
243 496 421 1 1 1
243 497 420 0 0 1
242 498 420 1 1 1
240 500 418 0 1 1
240 500 419 1 1 1
240 501 418 1 1 1
241 500 418 1 1 1
241 500 419 1 1 1
241 501 418 1 1 1
240 502 417 0 0 1
240 503 416 0 0 1
240 503 417 0 0 1
241 502 417 1 1 1
241 503 416 0 1 1
241 503 417 1 1 1
240 502 418 0 1 1
241 502 418 1 1 1
242 501 417 1 1 1
243 500 417 1 1 1
243 501 417 0 0 1
242 500 418 1 1 1
242 501 418 1 1 1
243 500 418 1 1 1
242 502 416 0 0 1
242 502 417 1 1 1
242 503 416 0 1 1
243 502 416 0 0 0
243 502 417 0 0 1
245 497 417 0 0 0
244 496 419 0 0 0
244 497 418 0 0 0
244 497 419 0 0 0
245 496 418 0 0 0
245 496 419 0 0 0
245 497 418 0 0 0
244 499 417 0 0 0
245 498 416 0 0 0
245 498 417 0 0 0
245 499 416 0 0 0
245 499 417 0 0 0
244 498 418 0 0 0
244 498 419 0 0 0
244 499 418 0 0 0
245 498 418 0 0 0
246 496 416 0 0 0
246 496 417 0 0 0
246 497 416 0 0 0
246 497 417 0 0 0
246 496 418 0 0 0
246 498 416 0 0 0
244 496 420 0 0 0
244 500 416 0 0 0
244 500 417 0 0 0
244 501 416 0 0 0
244 501 417 0 0 0
245 500 416 0 0 0
244 500 418 0 0 1
244 502 416 0 0 0
240 504 416 0 0 0
240 505 416 0 0 0
241 504 416 0 0 1
242 504 416 0 0 1
