ply
format ascii 1.0
comment Created by Open3D
element vertex 1757
property double x
property double y
property double z
end_header
0.0886086 0.102635 0
0 0 0
0.194483 0.299632 0
0 0.0981946 0.115237
0.0734561 0.114403 0
0 0 0
0.161668 0 0.0481164
0.125422 0.113244 0
0.179052 0.297906 0
0 0 0
0 0 0
0 0 0
0.0100794 0.0312378 0
0 0 0.248497
0.149022 0.0155552 0
0.0783072 0.0111061 0
0 0 0
0 0.0369712 0.026592
0 0 0
0 0.038652 0.0269807
0 0 0
0 0.112958 0.200752
0 0 0
0 0.17259 0
0 0 0.169836
0.0414135 0 0
0 0.174234 0
0 0 0.0956977
0.308933 0.239303 0
0.0322418 0.0378981 0.282919
0.102361 0.0466109 0
0 0.0935885 0
0 0.131725 0
0 0 0.0333593
0.540387 0.152858 0
0 0.0910644 0.14457
0.283995 0.128949 0
0 0.220257 0.268788
0.0956988 0 0
0.212008 0.0693424 0
0.0347599 0.0846018 0
0.0358498 0.0845217 0
0.0365049 0.0853755 0
0.0377831 0.082006 0
0.0403028 0.0850848 0
0.177758 0.261295 0
0 0.143699 0
0 0 0.021408
0 0.160446 0.11433
0.0979727 0.19455 0.190806
0.104006 0.0960913 0
0 0.223703 0.273059
0.228498 0.158455 0
0.228408 0.228622 0
0.229927 0.228944 0
0.233756 0.234108 0
0.236277 0.231177 0
0.241538 0.231403 0
0.0634148 0.152523 0
0 0 0
0 0 0
0.0458433 0.368586 0
0.022883 0.0791302 0
0.272176 0.345381 0
0.198307 0.00674328 0.0197885
0.37868 0.0576008 0
0 0.101197 0.0512103
0.127802 0.395826 0
0.0681743 0.0848746 0
0.156047 0.141305 0
0.0375386 0 0
0.126033 0.126481 0
0.109113 0.103981 0
0.0896845 0 0
0.233984 0.0540525 0
0.18766 0.180708 0
0.272424 0.194146 0
0.333252 0.309323 0
0.248594 0 0
0 0.119996 0
0 0 0.213668
0.154458 0.370316 0
0 0.0359472 0.301879
0.104445 0.175024 0
0 0.235915 0.255431
0.141764 0.0221184 0
0.355067 0.25811 0
0 0.257585 0
0.0592767 0.0192239 0
0.333834 0.0653499 0
0.407078 0.348545 0
0 0 0.161285
0.390623 0.281328 0
0.0836477 0 0
0.290522 0.293042 0
0.0148823 0 0
0.321543 0.298925 0
0.0934819 0.203607 0
0 0.0818407 0
0.0431189 0.0839996 0
0 0.0262853 0
0.0504729 0.249095 0
0.242654 0.231764 0
0.105091 0.0559052 0
0.232287 0.0667804 0
0 0.0243173 0
0 0.125434 0
0.0416892 0.0197606 0
0.133277 0.126275 0
0.116378 0.102496 0
0.0651377 0.0685944 0
0.29569 0.186143 0
0.317952 0.31827 0
0.105301 0.0547087 0
0.238591 0.0676661 0
0.104076 0 0
0.203925 0.297223 0
0.183432 0 0
0.39677 0.280255 0
0.0856681 0 0
0.256184 0.102261 0
0.0412209 0.0472232 0
0.426318 0.276905 0
0 0.216606 0
0.0697522 0.014625 0
0.230408 0.0266473 0
0.328375 0.325707 0
0.0384685 0 0
0 0.126379 0
0.0701907 0.0691967 0
0.135979 0.127236 0
0.144742 0.154015 0
0.0673204 0.066724 0
0.325337 0.238103 0
0.451433 0.360254 0
0.253049 0.254886 0
0 0.0912875 0.170903
0.338931 0.058518 0
0 0.078978 0
0.357359 0.0911177 0
0.162303 0.000623044 0
0.328352 0.15293 0
0 0.0193766 0
0 0.175735 0
0 0 0.100462
0.324456 0.244032 0
0.0816973 0.0698114 0.215768
0.319363 0.244396 0
0.0802573 0.0690958 0.215909
0.176412 0.17741 0
0 0.156627 0.186123
0.281616 0.194228 0
0.195252 0.0907507 0
0 0 0
0.376215 0.113085 0
0.0516621 0.214623 0
0.190937 0.129378 0
0.225215 0.0861719 0
0.19533 0.130522 0
0.379876 0.157547 0
0.200401 0.132024 0
0.291042 0.0343989 0
0.345062 0.312623 0
0.256128 0 0
0 0.134928 0
0 0 0.0354
0.560521 0.152989 0
0 0.243708 0
0.468062 0 0
0 0 0.0699931
0.506995 0.351748 0
0.110553 0.13109 0.151362
0.207442 0.076507 0
0 0.0280454 0
0.18782 0.297959 0
0.200955 0.214134 0
0.273117 0.211558 0
0.274093 0.287561 0
0.279055 0.288816 0
0.285881 0.291134 0
0.0986862 0.205851 0
0 0.146849 0
0 0.057038 0
0 0.18109 0
0 0.245003 0
0 0.0386969 0.297751
0.0909072 0.30767 0
0.202295 0 0
0 0.206982 0.0225901
0.297595 0.173941 0
0.338812 0.099312 0
0 0.169225 0
0.242223 0.302817 0
0.0791511 0.0828874 0
0.145805 0.0710348 0
0.0485992 0 0
0.104623 0 0
0.261779 0.0534786 0
0.356033 0.372147 0
0.342899 0.143877 0
0.0014665 0.101764 0
0 0.125477 0
0 0.307808 0
0 0 0.243227
0.250186 0.246342 0
0 0.149119 0.292941
0.178146 0.176167 0
0 0.14583 0.220307
0.125896 0.0141833 0
0 0.0600722 0.233247
0.35518 0.21695 0
0.011366 0.22741 0
0.199753 0.213069 0
0.390591 0.279782 0
0.372713 0.276672 0
0 0 0.179781
0.324782 0.305756 0
0.0250358 0 0
0.158015 0.219199 0
0 0.123634 0
0.143703 0.324847 0
0 0.241729 0
0.470481 0 0
0 0 0.0703435
0.634706 0.304581 0
0 0.148059 0.0838047
0.305065 0.131673 0
0 0.281573 0.179153
0.426493 0 0
0.219831 0.14761 0
0 0.167957 0
0.237137 0.198577 0
0.0561425 0 0
0.212784 0.131472 0
0.166223 0.0805196 0
0.218616 0.131457 0
0.414178 0.161029 0
0.368908 0.325655 0
0.360043 0 0
0 0.135585 0
0 0 0.0468403
0.381986 0.166361 0
0 0.265184 0.000918056
0 0.180558 0
0 0.0415157 0.297097
0.0224065 0.246527 0
0.107699 0.12616 0.0530729
0.255566 0.313871 0
0 0.141294 0
0.100586 0.0780791 0
0.178523 0.0766939 0
0.365099 0.3822 0
0.297979 0.296064 0
0.302141 0.293977 0
0.111025 0.20749 0
0 0.146451 0
0 0.0587384 0
0.00953676 0.251092 0
0.0242734 0.370688 0
0 0.0662703 0.228675
0.327922 0.249052 0
0 0 0.237617
0.1784 0.235597 0
0 0.159844 0.104284
0.0956525 0.0810653 0
0.276863 0.0657172 0
0.483884 0.145056 0
0 0.0399534 0.0951653
0.284007 0.15976 0
0.113352 0.172132 0
0.245776 0.201459 0
0.2224 0.0299467 0
0.219653 0.132666 0
0.225924 0.0258916 0
0.367648 0.325715 0
0.278658 0 0
0.000214879 0.102248 0
0 0.129354 0
0.112957 0.260567 0
0 0 0.17394
0.482261 0.15469 0
0 0.165666 0.221168
0.446152 0.202246 0
0.0845127 0.0654214 0.22116
0.185054 0.173855 0
0.0396127 0.267801 0.207268
0.213423 0.0117355 0
0 0 0.0563927
0.439468 0.273288 0
0 0.269073 0
0.079365 0.010709 0
0.268265 0.0763703 0
0.371087 0.379815 0
0.296319 0.291834 0
0.108608 0.204803 0
0 0.124728 0
0.0445581 0.336174 0
0 0.185007 0
0 0.181202 0
0 0.14612 0
0.574579 0.226424 0
0 0.149067 0.0841827
0.312833 0.12484 0
0 0.284029 0.175
0.382266 0.203552 0
0.22286 0.0783502 0
0 0.0410633 0.0990581
0.411945 0.109653 0
0.111138 0.173027 0
0.209742 0.129652 0
0.217305 0.0283934 0
0.351473 0.323937 0
0.267219 0 0
0 0.13388 0
0 0 0.0505311
0.385837 0.165428 0
0 0.334388 0.0982579
0 0.305948 0
0 0 0.244011
0.107926 0.173309 0
0 0.238166 0.259165
0.125411 0.113358 0
0.105134 0.127349 0.0476147
0.22507 0.144429 0
0 0.0951794 0
0.195542 0.289285 0
0.208813 0.210935 0
0.286396 0.216108 0
0.281228 0.282641 0
0.224766 0.153878 0
0 0.144409 0
0 0.0578846 0
0.00976916 0.250429 0
0.0264823 0.373252 0
0 0.0666577 0.230394
0.333423 0.243442 0
0.0822158 0.0671594 0.216813
0.33731 0.243216 0
0 0 0.231903
0.182272 0.225808 0
0 0.160662 0.102579
0.098499 0.0837313 0
0.168974 0.0829448 0
0.483093 0.144181 0
0.226641 0.14004 0
0 0.172155 0
0.397556 0.171993 0
0.201867 0.0333387 0
0.111228 0.374152 0
0.183257 0 0
0 0.144537 0
0 0.125921 0
0 0.308923 0
0 0 0.249064
0.375658 0.198682 0
0 0.170739 0.227582
0.565943 0.152759 0
0 0.0858201 0.149604
0.566303 0.153685 0
0 0.0878449 0.14934
0.304366 0.12367 0
0.0360111 0.262663 0.194341
0.381236 0 0
0 0 0.154891
0.260923 0.153927 0
0 0.0989213 0
0.145992 0.135532 0
0.311323 0.165795 0
0.237514 0.213349 0
0.227215 0.107284 0
0.297141 0.0768881 0
0 0.145178 0
0 0.126879 0
0.119113 0.264141 0
0 0.244213 0
0.384159 0 0
0 0.050115 0
0 0.245391 0
0 0.241828 0
0.097865 0.130765 0.0415428
0.212714 0.142097 0
0 0.215504 0
0.177913 0.277253 0
0.264932 0.204643 0
0.299294 0.0155259 0
0.254826 0.325846 0
0 0.273282 0
0 0.142184 0
0 0.123285 0
0.0234928 0.275365 0
0 0.028862 0.156439
0.0288364 0.375499 0.117311
0 0 0.312875
0.142704 0.300802 0
0 0.032425 0.298892
0.228934 0.0908181 0
0 0 0.223818
0.335772 0.179195 0
0 0.0756974 0
0 0.0392946 0
0.273766 0.100794 0
0.408983 0.126298 0
0.295488 0 0
0 0.111161 0.0487892
0.245774 0.211348 0
0.176111 0.0453484 0
0.206946 0.403363 0
0.219778 0 0
0.00432743 0.0911556 0
0 0.122423 0
0.0246359 0.275054 0
0 0.102529 0.255862
0.0268512 0.290078 0.130876
0.179944 0.153399 0.0710311
0.220434 0 0.0421338
0.304216 0.152406 0
0.193561 0.00291912 0.070935
0.392832 0.121778 0
0.0600705 0.0976727 0
0.259048 0 0
0.404952 0.179986 0
0 0.0795837 0
0 0.0276495 0
0.182717 0.186227 0
0.192239 0.0888184 0
0.160134 0.127213 0
0.194067 0.0906212 0
0.0268982 0.2119 0
0.146878 0.225345 0
0 0.102319 0.256404
0.0284513 0.289418 0.127904
0.124903 0.152213 0
0.1923 0.150604 0
0.256971 0.120298 0
0.0506309 0.0957036 0
0.176584 0 0
0.22241 0.199086 0
0.00903515 0 0
0.145365 0.100477 0
0.390736 0.287416 0
0.332226 0.2162 0
0.212223 0.301651 0
0.18947 0 0
0.40796 0.283545 0
0.0898503 0 0
0.2631 0.1019 0
0.0440901 0.0453499 0
0.437537 0.28163 0
0 0.144674 0
0.0724651 0.0130475 0
0.284213 0.0617296 0
0.24698 0.384377 0
0 0 0.173371
0.36703 0.155583 0
0.103511 0.177994 0.145677
0.167923 0.305909 0
0.117539 0.0492921 0
0.261227 0.0651811 0
0 0.0162882 0
0 0.128742 0
0.0759977 0.0701354 0
0.14245 0.126032 0
0.149876 0.154847 0
0.0734688 0.0676277 0
0.337249 0.240106 0
0.464183 0.364152 0
0.258834 0.257139 0
0 0.0146335 0.0697237
0.274862 0 0
0.0808714 0.21491 0
0.520882 0.155504 0
0.236385 0.151604 0
0 0.173133 0
0.214278 0.312488 0
0.285148 0.16829 0
0.279486 0.167485 0
0.124665 0.0477648 0
0.270571 0.0619637 0
0 0.0150628 0
0.221767 0.307142 0
0.199918 0 0
0.418373 0.288331 0
0.0941014 0 0
0.272704 0.104811 0
0.0488623 0.0449582 0
0.448214 0.286179 0
0 0.146739 0
0.0746624 0.00987055 0
0.289296 0.0606213 0
0.497708 0.155222 0
0 0.041205 0.0962039
0.327535 0.337339 0
0 0.14471 0
0.109311 0.0801792 0
0.18919 0.074726 0
0.33443 0.178822 0
0.42038 0.276986 0
0 0.22561 0.073141
0.0846845 0.00695115 0
0.257936 0.0201443 0
0.363055 0.339933 0
0.129297 0.0461472 0
0.198856 0 0
0.00519017 0.126723 0
0.081355 0.0657685 0
0.152036 0.128988 0
0.159974 0.153987 0
0.0790014 0.0645159 0
0.349238 0.240469 0
0.475973 0.369082 0
0.223678 0.088112 0
0 0 0
0.459311 0.284883 0
0 0.274864 0
0.0809963 0.0102781 0
0.382788 0.0605971 0
0.31034 0.175449 0
0 0.0381301 0.100478
0.394646 0.222678 0
0.0208848 0.233586 0
0.332859 0.205096 0
0.238248 0.0857413 0
0 0.0379452 0.104359
0.481288 0.28881 0
0 0.227575 0
0.0884908 0.00830447 0
0.264418 0.0195216 0
0.212649 0.137398 0
0.341969 0 0
0.227933 0.311188 0
0.206544 0 0
0.43347 0.290623 0
0.0968111 0 0
0.28487 0.100444 0
0.0491336 0.0414157 0
0.418331 0.11256 0
0 0.0955919 0
0.18385 0.241233 0
0.227923 0.22055 0
0.4081 0.202091 0
0.273753 0.258981 0
0 0.0115044 0.0743679
0.291269 0 0
0.0884158 0.219536 0
0.342432 0.177668 0
0.379511 0.0990093 0
0 0.0924597 0
0.190808 0.243342 0
0.235836 0.224228 0
0.422325 0.205911 0
0.288899 0.265471 0
0 0.0904377 0.193052
0.302845 0 0
0.153866 0.167394 0
0.138014 0.0711941 0
0.0087256 0.127696 0
0.0864173 0.0645658 0
0.154752 0.128305 0
0.163331 0.154019 0
0.0812949 0.0643078 0
0.352834 0.242358 0
0.375837 0.383755 0
0.255998 0.0883292 0
0.413511 0.271379 0
0 0.142489 0
0.0832742 0.00947573 0
0.303722 0.0583246 0
0.313649 0.175215 0
0 0.0392369 0.102851
0.396864 0.220557 0
0.019293 0.23422 0
0.225772 0.220112 0
0.265826 0.0851948 0
0.428154 0.277329 0
0 0.143221 0
0.0879428 0.00545867 0
0.315766 0.0596929 0
0.369544 0.357079 0
0 0.0862932 0.194569
0.477299 0.0650077 0
0.209555 0 0
0.227155 0.210543 0
0.226808 0.310296 0
0.204734 0 0
0.435814 0.290754 0
0.0969728 0 0
0.481402 0.0741072 0
0.0476899 0.0405313 0
0.293068 0.162116 0
0.120296 0.172731 0
0.214127 0.308117 0
0.124734 0.0893317 0
0.324836 0.203446 0
0.277576 0.255818 0
0 0.00910402 0.075483
0.294188 0 0
0.0894986 0.219892 0
0.541894 0.15348 0
0.24836 0.149513 0
0 0.17522 0
0.221003 0.315596 0
0.128565 0.0876157 0
0.338746 0.205422 0
0.286614 0.261706 0
0 0.00759793 0.0777099
0.301943 0 0
0.207095 0.208606 0
0.3757 0.356392 0
0 0.0862669 0.195715
0.311151 0 0
0.160764 0.171927 0
0.00740985 0.126227 0
0.0855743 0.06136 0
0.153778 0.12739 0
0.161909 0.153494 0
0.151531 0.127305 0
0.158108 0.153542 0
0.0799166 0.065974 0
0.34981 0.240812 0
0.333247 0.172966 0
0.412566 0.270837 0
0 0.143412 0
0.0815364 0.00930381 0
0.30093 0.0589806 0
0.510465 0.151135 0
0 0.040419 0.102792
0.341668 0.336859 0
0 0.144163 0
0.115534 0.0794508 0
0.197462 0.0724658 0
0.345741 0.177434 0
0.424964 0.274642 0
0 0.144396 0
0.0873773 0.00726357 0
0.313442 0.0606135 0
0.322842 0.173425 0
0 0 0
0.411953 0.223385 0
0.244858 0.361719 0
0.300825 0.182086 0
0 0.0146614 0.278922
0.221042 0.306809 0
0.197113 0 0
0.42468 0.283126 0
0.0917271 0 0
0.424011 0.285976 0
0.092934 0 0
0.279015 0.0945026 0
0.044658 0.0425515 0
0.384537 0.214954 0
0.0166881 0.229236 0
0.323439 0.203268 0
0.23151 0.0829863 0
0 0 0
0.464358 0.279643 0
0 0.275536 0
0.08418 0.010944 0
0.387382 0.062752 0
0.316031 0.172728 0
0 0.0365593 0.104085
0.398295 0.21906 0
0.0206169 0.23369 0
0.335476 0.204784 0
0.240486 0.082826 0
0 0 0
0.40435 0.221702 0
0.127637 0.372953 0
0.321124 0.182155 0
0.253426 0 0
0.0543021 0.21023 0.0686971
0.244998 0.158155 0.144768
0.232944 0.152889 0
0.26923 0.156266 0
0.240177 0.0818795 0
0.113154 0.246201 0
0.24183 0.0832017 0
0.204931 0.300389 0
0.301277 0.216266 0
0.447705 0 0
0.23743 0.146411 0
0 0.0950992 0
0.209736 0.304303 0
0.222107 0.218893 0
0.407353 0.203141 0
0.275901 0.252173 0
0 0.010436 0.074157
0.289966 0 0
0.0870207 0.220012 0
0.540015 0.15266 0
0.24717 0.147571 0
0 0.093088 0
0.221261 0.314332 0
0.23441 0.223572 0
0.271017 0.005175 0
0.353846 0.206362 0
0 0.220514 0.177077
0.209808 0.17556 0
0 0.0264159 0.242842
0 0.297349 0
0.00190135 0.126967 0
0.0705162 0.0645399 0
0.0698886 0.06501 0
0.329439 0.231913 0
0.505569 0.14711 0
0.273468 0.310138 0
0 0.141838 0
0.108745 0.0822649 0
0.18626 0.0761756 0
0.32656 0.170715 0
0.405384 0.265974 0
0 0.143236 0
0.0798962 0.0111121 0
0.296793 0.0610457 0
0.504439 0.149036 0
0 0.0394043 0.101302
0.336243 0.332573 0
0 0.144379 0
0.114723 0.0807019 0
0.196014 0.0732465 0
0.343193 0.175591 0
0.347921 0.206708 0
0 0.234074 0.137525
0.230346 0.177348 0
0.251085 0 0
0.0498786 0.209024 0.0630607
0.202809 0.355156 0
0.321356 0 0
0.224341 0.360113 0
0.177738 0 0
0.258206 0.0936337 0
0.0328034 0.0439992 0
0.432491 0.269908 0
0 0.140752 0
0.0741382 0.0142462 0
0.282271 0.0631732 0
0.484428 0.147416 0
0 0.0434403 0.0971088
0.251462 0.262226 0
0.0141626 0.228123 0
0.314846 0.200754 0
0.225237 0.0828039 0
0 0 0
0.455959 0.279406 0
0 0.274589 0
0.0806259 0.0103197 0
0.381649 0.0619686 0
0.31289 0.172288 0
0 0.0371452 0.102772
0.395149 0.216462 0
0.0192739 0.232539 0
0.380154 0 0
0.218802 0.255398 0
0 0.218652 0.170738
0.164025 0.00243331 0
0 0 0.158742
0 0.124635 0
0.0559684 0.0653704 0
0.124634 0.124087 0
0.125876 0.144143 0
0.0604494 0.06203 0
0.309511 0.229162 0
0.442952 0.354678 0
0.21533 0.0837026 0
0 0 0
0.395783 0.109383 0
0.0518751 0.221528 0
0.325229 0.308737 0
0.443988 0 0
0.231966 0.073851 0
0 0.0261586 0
0.16032 0.134984 0
0.347504 0.169649 0
0.432011 0.347332 0
0.151102 0 0
0 0 0.0688056
0.343994 0.0485304 0
0.253363 0.315728 0
0.493105 0.133164 0
0.171713 0 0
0 0.0236643 0
0.379937 0.390005 0
0.387004 0 0
0.224021 0.174313 0
0 0.291739 0.191899
0.203928 0.351892 0
0.160593 0 0
0.368981 0.274642 0
0.0717701 0 0
0.425633 0.0740833 0
0.0302763 0.043973 0
0.261839 0.158273 0
0 0.0966818 0
0.19129 0.299305 0
0.205789 0.214906 0
0.276207 0.212225 0
0.235791 0.089047 0
0.277645 0.0395039 0
0.103851 0.307928 0.0343078
0.367594 0.146315 0
0.181533 0 0
0.159918 0.299447 0
0.0770857 0.219829 0
0.34748 0.0016299 0
0.263899 0.153692 0
0.16756 0.302532 0
0.081335 0.220529 0
0.263617 0.0105088 0
0.628727 0.234986 0
0 0.157639 0.0960223
0.345642 0.108245 0
0.198979 0.0913138 0
0.0515796 0.174641 0
0.204675 0.0893167 0
0.207373 0.193901 0
0.214389 0.0870852 0
0.159713 0.235874 0
0.278465 0.217209 0
0.229892 0.0177227 0
0.339636 0.102259 0
0 0.168846 0
0.168612 0.237625 0
0.113594 0.0932714 0
0.0539258 0.0276764 0
0.376557 0.102753 0
0.128878 0.228277 0
0 0.0901251 0
0.173155 0.00937948 0
0.41394 0.27668 0
0 0.223806 0.072589
0.0833058 0.00734783 0
0.0928387 0 0
0.257995 0.181787 0
0.480155 0.163451 0
0 0.255833 0.063733
0.280858 0.0670501 0
0.158191 0.141244 0
0 0.0721634 0
0.318971 0.0932464 0
0.105027 0.374211 0
0.279552 0 0
0.280383 0.142447 0
0 0.229299 0.130136
0.200404 0.213092 0
0.235003 0.095772 0
0.279326 0.0403598 0
0.163199 0.261903 0.157231
0 0.259043 0
0.222735 0 0
0.306894 0.144997 0
0 0.235986 0.142351
0.121142 0.22693 0
0.367588 0.0384229 0
0 0.0367903 0.105766
0.512244 0.10614 0
0 0.261726 0
0.283107 0.0746059 0
0 0.0209572 0
0.159873 0.0325467 0
0.140464 0.06691 0
0.627429 0.0097808 0
0.00242749 0 0
0.295424 0.0855626 0
0.301301 0.284636 0
0 0.177966 0.382522
0.0357564 0.114432 0
0.210134 0 0
0.616777 0.0155805 0
0.0593357 0.00363639 0
0.448634 0.298048 0
0.0389894 0.321497 0.259238
0.148825 0 0
0.344642 0 0
0.299937 0.27689 0
0 0.0934852 0.254287
0.087024 0.154646 0
0.35701 0.198602 0
0.0367724 0.317184 0.251965
0.0707854 0 0
0.566691 0.295155 0
0.283099 0.133032 0
0.229724 0.173041 0
0 0.162074 0.207971
0.231039 0.170657 0
0.541174 0.00813154 0
0 0 0.105301
0.272325 0.080395 0
0.272581 0.010463 0
0.622654 0.229335 0
0 0.153062 0.0923318
0.341549 0.123303 0
0 0.14724 0.231825
0.0852026 0 0
0 0.151526 0.42507
0.0581891 0.251021 0
0.114806 0 0
0.343957 0.12898 0
0 0.16116 0.20633
0.103982 0 0
0 0.291118 0.0681084
0.405099 0.12166 0
0 0.0816967 0.200635
0.222732 0.177724 0
0 0 0
0.308185 0 0
0 0.156345 0
0.608112 0.236057 0
0 0.0485292 0.0762495
0.270734 0.13077 0
0.0622247 0.180155 0
0.495805 0.0128647 0
0 0.0541334 0
0.344373 0.0211568 0
0 0.273194 0.152858
0.371546 0 0
0.269137 0.223176 0
0 0.324779 0.213798
0.145987 0.12135 0
0 0.0280012 0.000362116
0.372349 0.163974 0
0 0.328975 0.170304
0.36218 0.0220961 0
0 0.129084 0.350459
0.265662 0.158554 0
0 0.220138 0.424826
0.067764 0 0
0 0.140356 0
0 0.238137 0.238177
0.0285839 0.289923 0.126277
0.118693 0.151487 0
0.109641 0.15199 0
0.0253475 0.136559 0
0.134796 0.0594788 0
0.167335 0 0
0.144343 0.144392 0
0.0850151 0.085618 0.0470368
0.033126 0.0134246 0
0.0847196 0.195383 0
0.00777165 0.0852223 0
0 0 0.151308
0 0.3921 0.223901
0.129374 0.152169 0
0.11472 0.150176 0
0.100195 0.148848 0
0 0.0907553 0
0.175663 0.0456303 0
0.207934 0.14214 0
0 0.14772 0
0.0148699 0 0
0.214851 0.0576622 0.0931624
0.416288 0.261044 0
0.126274 0.0105702 0
0.298926 0.292854 0
0.365461 0.146627 0
0.324717 0.146649 0
0.295364 0.147505 0
0.156687 0.064352 0
0 0.201967 0
0.305319 0.160179 0
0.0422889 0 0
0 0.165372 0
0.190699 0 0
0 0 0.0282489
0 0.249932 0
0 0 0.103919
0 0.209581 0.11784
0 0.139525 0.160228
0 0.18049 0.134153
0.0675794 0 0
0 0 0
0 0.170956 0.169532
0.128909 0 0
0.286743 0.257798 0.00132917
0.134715 0.080049 0
0.315387 0.16064 0
0 0.123958 0.136085
0.386181 0.0692051 0
0.299123 0.149255 0
0.0371128 0.00187375 0
0 0.0652 0
0.376681 0.0909513 0
0.0450658 0 0
0 0.0367977 0
0.112828 0 0
0 0.00533497 0
0 0.130359 0
0 0.307303 0
0 0 0
0 0.19628 0.108239
0 0.182783 0.144575
0.0803312 0 0
0 0 0
0 0.174486 0.172672
0.128721 0 0
0.28075 0.258199 0
0.0339386 0.0979442 0
0 0.0526737 0.16475
0 0.145304 0.214448
0 0.20091 0.180609
0.37248 0.0754641 0
0.185677 0.0944703 0
0 0 0
0.421969 0.163805 0
0.213079 0.0839515 0
0 0 0
0.147097 0.0421349 0
0.0225894 0 0
0.124359 0.381866 0
0.374466 0.14852 0
0.223877 0.0905036 0
0 0 0
0 0.186323 0.11044
0 0.423973 0.228315
0.158311 0 0
0 0 0.0142003
0.00725982 0.461372 0.195817
0.0197699 0.240978 0
0 0 0.023501
0 0.136058 0.227367
0 0.13925 0.216403
0 0.138489 0.201592
0 0.195094 0.174075
0.385056 0.07853 0
0.0501608 0 0
0 0 0
0 0.179944 0.173503
0.0943266 0 0
0.0891747 0.0582613 0
0.130099 0.0866234 0
0.39809 0.153208 0
0.379967 0.151106 0
0.363592 0.151897 0
0.219198 0.0893716 0
0 0 0
0 0.247334 0.102127
0.404745 0.0788323 0
0.21536 0.0846659 0
0.0378035 0.138614 0
0.0340252 0 0
0 0 0
0 0.128535 0
0 0.126982 0
0 0.0215977 0.0241862
0 0.194981 0.131492
0 0.191931 0.177794
0.12132 0 0
0 0 0
0 0.117134 0.19244
0 0.389696 0.253704
0.0165255 0.236359 0
0 0 0.0213652
0 0.129234 0.219061
0 0.128293 0.214589
0 0.198 0.19478
0.429272 0.0737371 0
0.0728312 0 0
0 0.0547945 0
0.414935 0.0743894 0
0.36054 0.155992 0
0.0361211 0.0447601 0
0.0816749 0.063655 0
0.126783 0.0910001 0
0.391109 0.15445 0
0.386079 0.155605 0
0.241582 0.0850234 0
0 0 0
0 0.259167 0.118925
0.288956 0.00432431 0
0.127579 0 0
0 0.0176807 0.0192122
0 0.505321 0.188818
0 0 0
0 0 0
0 0.122805 0
0 0.0095085 0.0256933
0 0.193144 0.142122
0 0.196239 0.196864
0.143011 0 0
0 0 0
0 0.129322 0.203904
0 0.193254 0.182927
0.125102 0 0
0 0.31232 0
0 0 0.0240181
0 0.126085 0.219771
0 0.198132 0.202248
0.455457 0.0724332 0
0.245433 0.0844209 0
0 0 0
0.48535 0.16147 0
0.372037 0.150762 0
0.228574 0.0893573 0
0 0 0
0.16062 0 0
0.12851 0.0882778 0
0.398289 0.158501 0
0.24954 0.0850253 0
0 0 0
0 0.197813 0.150927
0 0.466008 0.288199
0.0472273 0 0
0 0.201155 0.145311
0 0.134038 0.211284
0 0.382795 0.256983
0 0 0
0.0168506 0.326823 0
0.0589285 0.072272 0
0.267061 0 0
0.000456225 0.234437 0
0.0831477 0 0
0.357252 0.104206 0
0 0.168719 0
0.18082 0.244615 0
0.124067 0.093938 0
0.058784 0.0250326 0
0.363947 0.220663 0
0 0.0850574 0
0.175746 0.0916821 0
0.350746 0.216513 0
0 0.234693 0.14638
0.0214942 0.242839 0
0.377653 0.154618 0
0 0.020033 0.00587204
0.274952 0.214411 0
0 0.318824 0.230108
0.355185 0.17215 0
0.359821 0.168909 0
0 0 0
0.274723 0.109164 0
0.16241 0 0
0 0 0
0.224618 0.359591 0
0.357328 0 0
0.314006 0.137943 0
0.0331228 0.314192 0.252922
0.0774294 0 0
0.296535 0.0994555 0
0 0.266497 0.0755459
0.193465 0.248874 0
0.132045 0.0919887 0
0.184554 0.00421523 0
0.507347 0.165249 0
0 0.34913 0.185786
0.22262 0 0
0.392512 0.0853407 0
0 0.361328 0.161338
0.344948 0 0
0.0778876 0.132852 0
0.0839362 0.136263 0
0.118685 0.0597189 0
0 0.241594 0
0.129519 0 0
0 0.145553 0.440397
0.00720259 0.485699 0
0 0 0
0.282383 0 0
0.279938 0 0
0.0132652 0.187449 0.0612901
0.0550797 0.400763 0
0.32965 0 0
0.28417 0 0
0.014657 0.186342 0.0634389
0.149962 0.0920136 0
0.00766052 0.264384 0.125953
0.0720731 0 0
0 0.33536 0.137897
0.364595 0.169375 0
0.0383615 0.239762 0
0.0203779 0 0
0.207834 0 0
0 0.169071 0
0.254129 0 0
0.309687 0.266207 0.000938746
0 0.165891 0
0.12921 0 0
0.309546 0 0
0 0.263421 0
0.133981 0 0
0.49542 0.038763 0
0 0.245286 0
0.455293 0.165231 0
0.11845 0 0
0.0753274 0.132362 0
0.116617 0.0561822 0
0 0.334777 0.00610303
0.0145558 0 0
0.388852 0.0857861 0
0 0 0
0.178035 0.0412754 0
0.120166 0.052319 0
0 0.346255 0.0120789
0.0192228 0 0
0.226161 0 0
0 0.351549 0.0129097
0.0242589 0 0
0.429236 0.0844579 0
0 0 0
0 0.291522 0.166957
0.0308909 0.240296 0
0.0157994 0 0
0.206116 0 0
0 0.336101 0.00909583
0.0490682 0 0
0.0185819 0.505558 0.232588
0.0337857 0.250466 0
0.0158774 0 0
0.218832 0 0
0 0.347337 0.0136346
0.0184714 0 0
0.225836 0 0
0 0.352029 0.0150225
0.063008 0 0
0 0.286954 0.165896
0.195102 0 0
0.100802 0.0555904 0
0 0.333106 0.00885971
0.012023 0 0
0.206373 0 0
0 0.0379206 0
0.130879 0 0
0.117048 0.0556936 0
0 0.346697 0.012507
0.0151395 0 0
0.221388 0 0
0 0.350317 0.013495
0.0208242 0 0
0.419991 0.0856939 0
0 0 0
0.426464 0.0856037 0
0 0 0
0.00496787 0 0
0.196707 0 0
0 0.33383 0.0101708
0.0115358 0 0
0.204675 0 0
0 0.34091 0.0102518
0.0145696 0 0
0.214456 0 0
0 0.345938 0.0123215
0.0170793 0 0
0.222165 0 0
0 0.351376 0.0138863
0.058487 0 0
0 0.609696 0.262239
0.0647644 0 0
0 0.603803 0.260673
0.277031 0.257222 0
0 0 0
0.15543 0 0
0 0.336394 0.00869561
0.0120602 0 0
0.208703 0 0
0 0.342559 0.0104796
0.014494 0 0
0.216586 0 0
0 0.346323 0.0122016
0.0183842 0 0
0.223532 0 0
0 0.0321906 0
0.181251 0 0
0 0.0303446 0
0.377079 0 0
0.145841 0.0444699 0
0.268845 0.173911 0
0 0 0
0.374328 0.0869879 0
0.0569014 0.138668 0
0.0572584 0 0
0.209639 0 0
0 0.341271 0.0105169
0.0158607 0 0
0.216586 0 0
0 0.346323 0.0122016
0.0183842 0 0
0.409816 0.0858119 0
0 0 0
0.417181 0.0843463 0
0 0 0
0.10277 0.0591802 0
0.070897 0 0
0 0.556 0.227225
0.0462019 0 0
0 0.567444 0.233667
0.126765 0.0480244 0
0.0579631 0 0
0.209322 0 0
0 0.34032 0.0104941
0.0161212 0 0
0.397762 0.0836064 0
0.0662418 0.139806 0
0.101715 0 0
0 0.599395 0.254756
0.244635 0 0
0 0.0776621 0.0281261
0 0.321363 0.00553577
0 0 0
0.356348 0.0851012 0
0 0 0
0.198998 0 0
0.292042 0.262084 0
0.0326463 0.245505 0
0.0131665 0 0
0.208274 0 0
0 0.341183 0.0104751
0.0506707 0 0
0 0.589443 0.247853
0.0178072 0 0
0.40324 0.0855278 0
0 0 0
0 0.592211 0.252859
0.162016 0 0
0 0.325914 0.00773276
0.0347254 0 0
0 0.555699 0.225702
0.009131 0 0
0.164245 0.0431067 0
0.108812 0.0579886 0
0 0.33581 0.0074828
0.0137164 0 0
0.383355 0.08399 0
0 0 0
0.214026 0 0
0 0.341094 0.0106534
0.0540018 0 0
0 0.279696 0.155598
0.180644 0 0
0 0 0
0.168516 0 0
0 0.0414142 0
0.14952 0 0
0 0.3274 0.00539375
0.120236 0.0504678 0
0.0532691 0 0
0.200206 0 0
0 0.333908 0.00810027
0.0471556 0 0
0 0.573799 0.237064
0.0144576 0 0
0.213523 0 0
0 0.0326541 0
0.34847 0 0
0 0 0
0 0.321195 0.00265988
0 0 0
0.344214 0.0878485 0
0 0 0
0.189521 0 0
0 0.328245 0.00510696
0.117175 0.0505267 0
0.0519914 0 0
0.370763 0.08707 0
0 0 0
0.201802 0 0
0 0.335845 0.00781657
0.0122378 0 0
0.384793 0.0872424 0
0 0 0
0 0.572656 0.239521
0.122106 0 0
0 0.325198 0.00541466
0.0306795 0 0
0 0.54706 0.217013
0.00653016 0 0
0.189302 0 0
0 0.330625 0.00577409
0.116189 0.0495751 0
0.0850336 0 0
0 0.563869 0.229931
0.0110443 0 0
0.201775 0 0
0 0.335411 0.00862776
0.0475722 0 0
0 0.2763 0.146647
0.167287 0 0
0.190202 0.0190863 0
0.6278 0.24671 0
0 0.0372504 0.114133
0.389812 0.084877 0
0 0.270781 0.223717
0.40251 0.0236826 0
0.15424 0.159348 0
0.0189348 0.211066 0
0 0.113436 0.0710507
0.320984 0 0
0.480914 0.089206 0
0 0.264861 0.0716439
0.422733 0.0237298 0
0.022485 0.214139 0
0 0.137127 0
0 0.0457968 0.0679941
0 0.26603 0.179852
0.323646 0 0
0 0.353268 0.33883
0.324228 0 0
0.182274 0 0
0 0.109269 0.0857117
0 0.190924 0.267286
0.495503 0.0659031 0
0 0.0409214 0.290276
0.57919 0.160051 0
0 0.0557011 0.255208
0.442601 0.0802251 0
0.277575 0.0132572 0
0 0 0.0262008
0 0.0351257 0
0.535666 0.0674198 0
0.290418 0.0801627 0
0.0958485 0 0
0 0.240205 0.0684337
0 0.0275835 0.168703
0 0.124836 0.256695
0 0.289136 0.349604
0.263852 0 0
0.378229 0 0
0 0 0
0 0.201549 0.177072
0 0.206654 0.236631
0.531183 0.0674995 0
0.459155 0.160687 0
0.458364 0.159671 0
0.289575 0.0776387 0
0.0408906 0 0
0 0 0
0 0.210612 0.242962
0.530786 0.0674276 0
0.290053 0.0794018 0
0.171947 0 0
0 0 0.0431438
0 0.202477 0.177582
0 0.126478 0.259461
0 0.290418 0.35417
0.265455 0 0
0.594269 0.171462 0
0.293902 0.0814339 0
0.170955 0 0
0 0 0.0436286
0 0.205573 0.178067
0 0.210494 0.240833
0.532543 0.068671 0
0.460701 0.164615 0
0.29066 0.0824698 0
0.184196 0 0
0.069835 0 0
0 0.207162 0.178178
0 0.129201 0.259672
0 0.210097 0.240202
0.532438 0.0684307 0
0.291185 0.0815357 0
0.172212 0 0
0 0.123433 0
0 0 0.0434685
0 0.302408 0.257551
0 0 0
0.580581 0.170504 0
0.45937 0.163589 0
0.289343 0.0802077 0
0.17097 0 0
0 0 0.0433832
0 0.20423 0.178227
0 0.128524 0.261593
0 0.210771 0.242457
0.537396 0.0695005 0
0.195924 0 0
0 0.597357 0.254707
0.244345 0 0
0 0.12243 0
0 0 0.0433997
0 0.203884 0.177848
0 0.209051 0.239417
0.532192 0.0678768 0
0.462017 0.164697 0
0.292502 0.0812924 0
0.173526 0 0
0 0.0904292 0.124289
0.411096 0.0852413 0
0 0 0
0 0.202523 0.175695
0 0.208306 0.236384
0.526041 0.0685987 0
0.287363 0.0820701 0
0.169744 0 0
0 0 0.0441282
0 0.203676 0.178835
0 0.127874 0.26074
0 0.29355 0.35805
0.270232 0 0
0.0629353 0 0
0 0.282616 0.154512
0.519289 0.0693447 0
0.283513 0.0820057 0
0.164642 0 0
0 0 0.0426771
0 0.201269 0.175897
0 0.209517 0.238768
0.530648 0.067073 0
0.462032 0.165263 0
0.291035 0.0800893 0
0.0439753 0 0
0 0.0356048 0
0.347725 0 0
0.160335 0 0
0 0 0.0423884
0 0.199241 0.172583
0 0.207123 0.232774
0.522515 0.0697892 0
0.285085 0.0810813 0
0.166521 0 0
0 0 0.0445939
0 0.202076 0.178658
0 0.292519 0.356429
0.345844 0 0
0.393881 0.0870432 0
0.160048 0 0
0 0.000340754 0.0404717
0 0.275467 0.148847
0.511771 0.0708013 0
0.277657 0.0803038 0
0.162641 0 0
0 0 0.0430794
0 0.200718 0.174073
0 0.208194 0.235659
0.528089 0.0695994 0
0.28991 0.0812409 0
0 0.066984 0
0.057137 0 0
0 0.200256 0.1644
0 0.203598 0.222837
0.33709 0 0
0.155585 0 0
0 0 0.0407627
0 0.199806 0.169794
0 0.205041 0.229527
0.517662 0.0689597 0
0.282537 0.0819104 0
0.164602 0 0
0 0 0.0435792
0 0.365138 0.272734
0.393867 0 0
0 0.0413304 0
0.493524 0.0724436 0
0.265521 0.0824423 0
0 0 0
0 0.198916 0.164875
0 0.204463 0.224178
0.505112 0.0704845 0
0.274971 0.082522 0
0.161067 0 0
0 0 0.0420629
0 0.200702 0.171998
0 0.206389 0.234037
0.356806 0 0
0.132627 0.0176918 0
0 0 0
0 0.122174 0
0 0.00586933 0.0320354
0 0.271046 0.136333
0.47177 0.0701301 0
0.088786 0 0
0 0.0502787 0
0.454893 0.0700781 0
0.382103 0.155128 0
0.0437011 0.0468708 0
0.250718 0.173731 0
0 0 0.0246911
0 0.128471 0.227785
0 0.200452 0.211517
0.321202 0 0
0 0 0
0 0.272859 0.138872
0.318394 0 0
0.144606 0 0
0 0.016764 0.0299957
0 0.530509 0.207015
0.0335729 0 0
0.133398 0.0873319 0
0.41089 0.156201 0
0.255224 0.0820792 0
0 0 0
0 0.268182 0.137049
0.319936 0 0
0 0 0
0 0.19905 0.150328
0 0.199482 0.201813
0.143846 0 0
0 0.0468288 0
0 0 0
0 0.121604 0
0 0.00608678 0.0344414
0 0.265142 0.13534
0.317157 0 0
0 0 0
0 0.266353 0.13435
0.456245 0.0687376 0
0.242142 0.0865797 0
0 0 0
0.337314 0.090092 0
0 0 0
0 0.0333522 0.11186
0 0.101859 0.0962114
0.279946 0 0
0.108635 0 0
0 0.104232 0.0969305
0.275635 0 0
0.106049 0 0
0 0.0413527 0.106207
0 0.368296 0.16914
0.159199 0 0
0 0 0
0.17396 0 0
0 0.0453855 0
0.148589 0 0
0 0.326857 0.00386607
0.00923222 0 0
0.193635 0 0
0 0.331348 0.00592493
0.013151 0 0
0.201629 0 0
0 0.331628 0.00671954
0.015269 0 0
0.377613 0.0871185 0
0 0 0
0.381522 0.0869659 0
0 0 0
0 0.534156 0.210837
0.00232111 0 0
0.3514 0.0883633 0
0 0 0
0.3591 0.0876941 0
0.0564136 0.137199 0
0.0534117 0 0
0.199013 0 0
0 0.325877 0.00503339
0.0145914 0 0
0.369456 0.0848897 0
0.0615751 0.134099 0
0.089848 0 0
0 0.563115 0.231693
0.0502729 0 0
0 0.561981 0.232877
0.138139 0 0
0 0.324106 0.00500916
0.200579 0 0
0 0.360077 0.10464
0.0842062 0 0
0.00623046 0.482244 0.214052
0.0298441 0.237585 0
0.013873 0 0
0.361646 0.085934 0
0.0589671 0.135463 0
0.0867877 0 0
0 0.554407 0.227549
0.0133675 0 0
0.365447 0.085499 0
0 0 0
0.371697 0.0847826 0
0 0 0
0.340755 0.088849 0
0 0 0
0 0.545488 0.218982
0.00987512 0 0
0.160667 0.0448137 0
0.103722 0.0615044 0
0 0.323419 0.0027237
0.0425379 0 0
0 0.547755 0.222719
0.0125186 0 0
0.192844 0 0
0 0.324073 0.00295502
0.042718 0 0
0 0.551823 0.224052
0.0485269 0 0
0 0.3746 0.16999
0.162013 0 0
0 0.100541 0.0928247
0.275465 0 0
0.18156 0.160044 0
0.24556 0.0740127 0
0.139839 0 0
0.277622 0 0
0.0772059 0 0
0.277622 0 0
0.182927 0.159309 0
0.139205 0 0
0.278083 0 0
0.0776812 0 0
0.280552 0 0
0.0790661 0 0
0.379994 0.0878269 0
0.153389 0 0
0 0.00251546 0.036975
0 0.273179 0.143236
0.496187 0.0721846 0
0.26957 0.0821515 0
0.155515 0 0
0 0.122342 0
0 0 0.0412104
0 0.278919 0.15144
0.515504 0.0686783 0
0.281171 0.0826452 0
0 0 0
0 0.24717 0.168997
0.223194 0 0
0 0.00682447 0.0375308
0 0.27023 0.141361
0.328695 0 0
0.15153 0 0
0 0.120278 0
0 0.000247128 0.0400159
0 0.199379 0.166657
0 0.203694 0.225017
0.343342 0 0
0 0 0
0 0.201584 0.171522
0 0.20543 0.231876
0.367776 0 0
0 0 0
0 0.268877 0.138179
0.321051 0 0
0.147007 0 0
0 0.00451442 0.0383053
0 0.19465 0.159496
0 0.20151 0.219332
0.496852 0.0698554 0
0.268683 0.081478 0
0 0 0
0 0.276141 0.15008
0.512264 0.0694693 0
0.278108 0.0830357 0
0.177596 0 0
0 0.267943 0.136923
0.317439 0 0
0 0 0
0 0.194169 0.153116
0 0.198349 0.21116
0.4802 0.0709395 0
0.259475 0.081384 0
0 0 0
0 0.194767 0.160564
0 0.202219 0.221974
0.340207 0 0
0.159188 0 0
0 0 0.0403688
0 0.418022 0
0.281245 0 0
0.108276 0 0
0 0.101434 0.094698
0.43257 0 0
0.216437 0 0
0.109081 0 0
0 0.0288939 0.113979
0 0.100402 0.0992475
0.45196 0 0
0.228258 0 0
0.116811 0 0
0 0.0251894 0.124549
0 0.102247 0.106205
0.363799 0 0
0 0 0
