ply
format ascii 1.0
comment Created by Open3D
element vertex 1215
property double x
property double y
property double z
end_header
0 0 0.030247
0 0 0
0 0.0118457 0
0 0.0165868 0
0 0 0
0 0 0.0097368
0 0 0
0 0 0.0383593
0 0 0.0640614
0 0 0
0.128764 0 0
0 0 0
0.159122 0.00541431 0.00345662
0.323438 0 0
0.271822 0.0102539 0.0261443
0.127318 0 0.0770902
0.139355 0 0
0 0 0.0684918
0 0 0.0975503
0 0 0.237267
0 0 0
0.357865 0.093359 0.0904932
0 0 0.0262002
0.150714 0 0.068634
0.0728265 0 0
0 0 0.213873
0 0 0.133747
0.247818 0.082355 0
0 0.0825226 0.0716671
0.0943811 0 0.0291371
0 0.166457 0.151108
0.00487504 0 0.159373
0 0 0
0 0 0.211684
0 0 0.03148
0 0 0.0264028
0.233922 0.139885 0.119925
0 0 0.0894479
0.104745 0 0.11297
0 0 0
0 0 0.311161
0.300168 0.159579 0.0941337
0 0 0.209286
0.34134 0.0155583 0.0385171
0 0 0
0.177277 0 0.0091733
0 0 0
0 0 0.281303
0 0 0.0886999
0 0 0.0197515
0 0 0
0 0 0.128344
0.238735 0.194634 0.0351789
0 0 0.102467
0.214687 0 0
0 0 0
0 0 0
0 0 0
0 0 0.199474
0 0 0.0720063
0.169539 0 0.0470119
0 0 0.0938723
0 0 0.0940966
0 0 0
0 0 0.440047
0 0 0.05764
0 0 0.0160849
0 0 0.116536
0 0 0.0566638
0.338581 0.15274 0.000272034
0 0 0.039515
0.207339 0 0
0 0 0
0.0724752 0 0
0 0.0258396 0
0 0 0.241977
0.140502 0.0742292 0.0420805
0 0 0.327247
0.211204 0.0704172 0.0523886
0 0 0
0.167222 0 0.0104312
0 0 0
0 0 0.277165
0 0 0.369477
0 0 0
0 0 0.0119777
0 0 0.107854
0 0 0.0327825
0 0 0.0218557
0.212748 0.106475 0
0 0.0474793 0.0168844
0.066111 0 0
0 0.0296925 0
0 0 0.228917
0.216334 0.190551 0.0252346
0 0 0.216223
0.189134 0.026128 0.121111
0 0 0
0.126622 0 0.218518
0 0 0.0128624
0.0190341 0 0.118885
0 0 0
0 0 0.151874
0 0 0.0998666
0 0 0.0134605
0 0 0
0 0 0.0986153
0 0 0.0291825
0 0 0.105898
0.199737 0.186495 0.0210115
0 0 0.079546
0.143138 0 0.00318321
0 0 0
0 0 0.0969744
0.294439 0.149141 0
0 0 0.150725
0.173689 0.0308012 0.113411
0 0 0
0.113825 0 0.205258
0 0 0.00928898
0.118971 0 0.0584938
0 0 0
0 0 0.081668
0 0 0
0 0 0.219748
0.229962 0.034726 0.00715907
0 0 0.126621
0.177668 0.0249812 0
0 0 0
0 0 0.0698649
0 0 0.0223988
0 0 0.0947587
0.180575 0.181964 0.0197299
0 0 0.0703224
0.16184 0.00583028 0
0 0 0
0 0 0
0 0 0
0 0 0.173786
0.172806 0.140429 0.0855648
0 0 0.0598074
0.102484 0 0.190593
0 0 0.00673989
0.108002 0 0.0524647
0 0 0
0.0250768 0 0.0622404
0 0.0401244 0
0 0 0.124728
0 0 0.125
0.187875 0.138699 0.0884146
0 0 0.0584434
0.0169748 0 0.106119
0 0 0
0 0 0.00232564
0 0 0.0829767
0 0 0.0289432
0.252481 0.142212 0
0 0 0.0172407
0.140369 0.0390192 0.0999799
0 0 0
0.0612584 0 0.079082
0 0 0
0 0 0.0708144
0.251961 0.141048 0
0 0 0.124163
0.140504 0.0398018 0.101136
0 0 0
0.0895294 0 0.182902
0 0 0
0.0613298 0 0.0806676
0 0 0
0 0 0.210023
0 0 0.138795
0.259867 0.142494 0
0 0 0.0167841
0.149258 0.0359939 0.104958
0 0 0
0.00481708 0 0.0935721
0 0 0
0 0 0.0549144
0 0 0.00671554
0 0 0.00149163
0.14353 0.135242 0.0791716
0 0 0.0479957
0.083266 0 0.0413878
0 0 0
0 0 0
0 0 0
0 0 0.149549
0.143702 0.133828 0.0792376
0 0 0.0486668
0.0795575 0 0.177079
0 0 0
0.0795575 0 0.177079
0 0 0
0 0 0.0814828
0 0 0
0 0 0.251375
0 0 0
0.237044 0.0997804 0.0604189
0 0 0.000896566
0.0841084 0 0.182815
0 0 0
0 0 0.0857849
0 0 0
0 0 0.11058
0 0 0.169418
0.26061 0.236428 0.0547692
0 0 0
0.213581 0.000914064 0.076483
0 0 0
0.0411733 0 0.210432
0 0 0
0 0 0.234095
0.26492 0.23883 0.0532227
0 0 0
0.217564 0 0.0771579
0 0 0
0.0751222 0 0.18012
0 0 0
0.07436 0 0.179786
0 0 0
0 0 0.079254
0 0 0
0 0 0.247818
0 0 0.101249
0.324332 0.36653 0.0651435
0 0 0.101716
0.265775 0.188254 0.162839
0 0 0.0490183
0.106735 0.00404 0.270449
0 0 0
0 0 0.0366552
0 0 0.0843894
0 0 0.0910207
0.21 0.120275 0.192722
0 0 0
0.110848 0 0.164127
0 0 0
0 0 0.0548847
0 0 0
0 0 0.078319
0.213034 0.122663 0.19507
0 0 0
0.171381 0 0.157584
0 0 0
0.0755485 0 0.18384
0 0 0
0 0 0.226091
0 0 0
0 0 0.425847
0 0 0.0571234
0 0 0.0195535
0 0 0.139073
0 0 0
0 0 0.0401678
0 0 0.163785
0 0 0.0887393
0 0 0.0972457
0.222844 0.120972 0.2023
0 0 0
0.0847017 0 0.206061
0 0 0
0 0 0.36382
0 0 0.0640881
0.226415 0.121937 0.204947
0 0 0
0.1823 0 0.163521
0 0 0
0.0194931 0 0.200946
0 0 0.00223502
0 0 0.255257
0 0 0
0 0 0.190526
0 0 0
0 0 0.35052
0 0 0.308892
0 0 0.0865333
0 0 0.105626
0 0 0.144867
0 0 0.174565
0 0 0.09576
0 0 0.103344
0.172983 0.120993 0.225318
0 0 0.00788399
2.4323e-05 0 0.238694
0 0 0
0 0 0.115795
0 0 0
0 0 0.2805
0.314029 0.301684 0.155193
0 0 0.144255
0.296091 0.193438 0.17843
0 0 0
0.223568 0.0120162 0.2389
0 0 0
0.130403 0 0.189314
0 0 0
0 0 0.274727
0 0 0
0 0 0.16918
0 0 0
0 0 0.130152
0 0 0
0.170168 0 0.226985
0.157732 0 0.495104
0.214456 0 0.211423
0.0292154 0 0.144403
0.0274766 0 0.142689
0.0264005 0 0.142056
0.022728 0 0.141226
0.0230251 0 0.137435
0.0200721 0 0.135398
0.0204302 0 0.133207
0.0179466 0 0.130595
0.0181423 0 0.127352
0.0155571 0 0.125669
0.0134987 0 0.120737
0.0134491 0 0.121713
0 0 0
0.242799 0.246303 0
0 0 0.0773331
0 0 0.111471
0 0 0.111938
0 0 0.108913
0 0 0.107461
0 0 0.103803
0 0 0.103197
0 0 0.0992658
0 0 0.09866
0 0 0.095254
0 0 0.0927074
0 0 0.0929467
0 0 0.0901308
0.00395979 0 0.162038
0 0 0.205371
0 0 0
0.260537 0.0643997 0
0 0.0204581 0.024345
0 0 0.086005
0 0 0
0 0 0.468235
0 0 0.247578
0 0 0.243057
0 0 0.237761
0 0 0.234206
0 0 0.230391
0 0 0.227255
0 0 0.223241
0 0 0.219849
0 0 0.215858
0 0 0.213324
0 0 0.210187
0 0 0.206733
0.400375 0.137391 0.0136492
0 0 0.0410515
0.202202 0 0.00883309
0 0 0
0 0 0.326649
0 0 0.422488
0 0 0.270583
0 0 0.268322
0 0 0.264359
0 0 0.260791
0 0 0.257549
0 0 0.253691
0 0 0.247993
0 0 0.245861
0 0 0.241451
0 0 0.238573
0 0 0.235282
0 0 0.232691
0.385707 0.0826759 0.093921
0 0 0.024711
0.0443542 0 0.141269
0 0 0
0 0 0.408121
0 0 0.266258
0 0 0.268662
0 0 0.265506
0 0 0.263519
0 0 0.259555
0 0 0.256678
0 0 0.252696
0 0 0.249464
0 0 0.247017
0 0 0.242967
0 0 0.240122
0 0 0.23684
0 0 0.235965
0.20566 0 0
0 0.176874 0.0850151
0 0 0.173544
0 0 0
0 0 0.460911
0 0 0.253505
0 0 0.255744
0 0 0.253352
0 0 0.251114
0 0 0.249543
0 0 0.245679
0 0 0.241826
0 0 0.23982
0 0 0.238064
0 0 0.233782
0 0 0.231818
0 0 0.230097
0 0 0.228327
0.0114329 0 0.151469
0 0 0.286804
0 0 0.369857
0 0 0.231708
0 0 0.233089
0 0 0.230814
0 0 0.230238
0 0 0.227927
0 0 0.225535
0 0 0.224137
0 0 0.220273
0 0 0.218651
0 0 0.215948
0 0 0.215545
0 0 0.213924
0 0 0.212173
0 0 0.306575
0 0 0.200217
0 0 0.203242
0 0 0.205038
0 0 0.206486
0 0 0.204221
0 0 0.203791
0 0 0.200921
0 0 0.19892
0 0 0.199189
0 0 0.196468
0 0 0.195145
0 0 0.193405
0 0 0.193102
0 0 0.191351
0 0 0.19048
0 0 0.278226
0 0 0.180579
0 0 0.181008
0 0 0.183183
0 0 0.183346
0 0 0.18178
0 0 0.181327
0 0 0.179743
0 0 0.179085
0 0 0.177487
0 0 0.176593
0 0 0.175886
0 0 0.175855
0 0 0.174402
0 0 0.173805
0 0 0.174495
0 0 0.262257
0 0 0.168876
0 0 0.169548
0 0 0.17012
0 0 0.170394
0 0 0.170544
0 0 0.169836
0 0 0.16812
0 0 0.168524
0 0 0.167644
0 0 0.167463
0 0 0.166718
0 0 0.167837
0 0 0.168273
0 0 0.1677
0 0 0.169509
0 0 0.416081
0 0 0.296393
0 0 0.137781
0 0 0.107866
0 0 0.172811
0 0 0.172066
0 0 0.172339
0 0 0.172489
0 0 0.172472
0 0 0.170856
0 0 0.172665
0 0 0.171665
0 0 0.172652
0 0 0.17346
0 0 0.17504
0 0 0.175853
0.0191632 0.0561519 0.216244
0 0 0.00394995
0 0 0.164766
0 0 0
0 0 0.032579
0 0 0
0 0 0.168178
0 0 0.1855
0 0 0.185519
0 0 0.186382
0 0 0.185637
0 0 0.187446
0 0 0.186446
0 0 0.188278
0 0 0.187986
0 0 0.190838
0 0 0.190379
0 0 0.192324
0 0 0.193854
0.390496 0.400248 0.0798647
0 0 0.0604829
0.325184 0.200643 0.191423
0 0 0.0626959
0.223133 0.185265 0.246398
0 0 0
0 0.252 0.488785
0 0.0631734 0.316921
0 0.0628557 0.31807
0 0.0627391 0.320768
0 0.0628349 0.320783
0 0.0637221 0.322634
0 0.0637002 0.324946
0 0.0648354 0.327937
0 0.0653673 0.329641
0 0.066067 0.331041
0 0.0652449 0.333322
0 0.0645906 0.336666
0 0.0650204 0.339238
0 0 0.294206
0 0 0.132438
0 0 0.114665
0 0 0.114812
0 0 0.0235992
0 0 0.0232545
0 0 0.024383
0 0 0.0239163
0 0 0.0249548
0 0 0.0256068
0 0 0.0257003
0 0 0.02727
0 0 0.0269351
0 0 0.0271612
0 0 0.0276151
0 0 0.0282417
0.0144902 0 0.119092
0.013383 0 0.118415
0.0148491 0 0.117086
0.0177329 0 0.116324
0.015108 0 0.11519
0.0151949 0 0.11417
0.0157183 0 0.111006
0.0167017 0 0.111404
0.0138573 0 0.108132
0.0122692 0 0.109236
0.0144546 0 0.108734
0.0140354 0 0.108055
0.0144169 0 0.108062
0.0123081 0 0.107378
0.060854 0 0
0 0.158656 0.110572
0 0 0.0888727
0 0 0.0883048
0 0 0.0880431
0 0 0.0846988
0 0 0.0862202
0 0 0.0855962
0 0 0.086607
0 0 0.0849752
0 0 0.0871515
0 0 0.0872515
0 0 0.0872704
0 0 0.0874431
0 0 0.0874431
0 0 0.0860726
0 0 0.0483077
0 0 0
0 0 0.205012
0 0 0.201706
0 0 0.201363
0 0 0.201492
0 0 0.203692
0 0 0.205102
0 0 0.206209
0 0 0.21003
0 0 0.210623
0 0 0.211777
0 0 0.213338
0 0 0.212593
0 0 0.212867
0 0 0.212326
0 0 0.211673
0 0 0.209888
0 0 0.23038
0 0 0.228678
0 0 0.227081
0 0 0.225192
0 0 0.225597
0 0 0.224716
0 0 0.223845
0 0 0.225231
0 0 0.224939
0 0 0.226256
0 0 0.227791
0 0 0.226792
0 0 0.227238
0 0 0.225703
0 0 0.225167
0 0 0.224335
0 0 0.233095
0 0 0.231938
0 0 0.231803
0 0 0.230808
0 0 0.23079
0 0 0.229174
0 0 0.229448
0 0 0.230834
0 0 0.230542
0 0 0.232549
0 0 0.2325
0 0 0.233226
0 0 0.23427
0 0 0.233574
0 0 0.345717
0 0.0149993 0.44972
0 0 0.227433
0 0 0.225881
0 0 0.225264
0 0 0.225092
0 0 0.226627
0 0 0.225627
0 0 0.226073
0 0 0.227459
0 0 0.227167
0 0 0.23002
0 0 0.22887
0 0 0.230714
0 0 0.23084
0 0 0.231954
0 0 0.0827508
0 0 0.0166178
0 0 0.211302
0 0 0.211451
0 0 0.211434
0 0 0.209818
0 0 0.211477
0 0 0.211185
0 0 0.213193
0 0 0.213143
0 0 0.21456
0 0 0.215554
0 0 0.216971
0 0 0.218114
0 0 0.218824
0 0 0.220477
0 0 0.320788
0.0677071 0 0.129671
0 0 0.19048
0 0 0.19117
0 0 0.19127
0 0 0.191979
0 0 0.192102
0 0 0.193519
0 0 0.195353
0 0 0.194478
0 0 0.197167
0 0 0.196888
0 0 0.199578
0 0 0.199299
0 0 0.202679
0 0 0.204726
0 0 0.172268
0 0 0
0 0 0.17375
0 0 0.175559
0 0 0.17441
0 0 0.177099
0 0 0.177511
0 0 0.178765
0 0 0.18104
0 0 0.181611
0 0 0.182879
0 0 0.184296
0 0 0.18598
0 0 0.185962
0 0 0.1902
0 0 0.190989
0 0 0.164684
0 0 0.050222
0 0 0.1692
0 0 0.169597
0 0 0.171013
0 0 0.172698
0 0 0.174214
0 0 0.174382
0 0 0.176922
0 0 0.179036
0 0 0.179894
0 0 0.181148
0 0 0.183424
0 0 0.183304
0 0 0.186703
0 0 0.1881
0 0 0.166708
0 0 0.0489794
0 0 0.17668
0 0 0.178283
0 0 0.179953
0 0 0.181484
0 0 0.183024
0 0 0.184739
0 0 0.186697
0 0 0.187374
0 0 0.19068
0 0 0.191264
0 0 0.192369
0 0 0.194657
0 0 0.309691
0 0.0608233 0.420621
0.0437553 0 0.177658
0 0 0.131363
0 0 0.194549
0 0 0.197364
0 0 0.198895
0 0 0.199744
0 0 0.2029
0 0 0.205187
0 0 0.20689
0 0 0.207585
0 0 0.20956
0 0 0.212693
0 0 0.213278
0 0 0.214532
0 0 0.188443
0 0 0
0 0 0.106736
0 0 0.165208
0 0.0633506 0.342831
0 0.0632502 0.345567
0 0.0636799 0.34814
0 0.063049 0.350738
0 0.063631 0.354437
0 0.0640731 0.357708
0 0.0634195 0.361151
0 0.0613142 0.363154
0 0.0599052 0.364776
0 0.0610166 0.368211
0 0.0600069 0.370041
0 0.0581624 0.370073
0.0587382 0 0.210135
0 0 0.150423
0 0.0340107 0.491196
0.063078 0 0.00259353
0 0 0.0288683
0 0 0.0294948
0 0 0.0301213
0 0 0.0316012
0 0 0.0323849
0 0 0.0323564
0 0 0.0322927
0 0 0.0328193
0 0 0.0342801
0 0 0.0342009
0 0 0.0340724
0 0 0.033998
0 0.0219373 0.258734
0.0251125 0.104385 0.320636
0 0 0.0898816
0.0636854 0.289879 0.0303881
0 0 0.0111026
0 0 0.073364
0 0 0.325041
0.0221479 0 0
0.126491 0 0.0941396
0.073862 0.0355415 0
0.0613695 0 0.0689043
0.072034 0 0
0 0 0.0574991
0.0451692 0 0
0.0200501 0 0
0.159158 0.0890886 0
0 0 0.0646093
0 0 0.0164081
0 0 0.195
0.101502 0.0290927 0.0471501
0 0 0.262932
0.0489366 0 0.136185
0 0 0
0 0 0.204866
0 0 0.0525316
0 0 0.191832
0 0 0.292855
0 0 0
0 0 0.147693
0 0 0
0 0 0.026612
0 0 0.20997
0 0 0.197946
0 0 0.111954
0.0063755 0 0.0774042
0 0 0.334226
0 0 0.176969
0 0 0.0464972
0 0 0.177022
0 0 0.0503278
0 0 0.0560436
0 0 0.336085
0 0.0265296 0.441256
0.0405844 0 0.186396
0 0 0.0192648
0 0 0.32686
0 0 0.286339
0 0 0.0210282
0 0 0.181135
0 0 0.0504282
0 0 0.0601184
0.0538221 0.0525842 0.1925
0 0 0
0 0.0398488 0.213761
0 0.0742919 0.408534
0.0507391 0.0571218 0.185647
0 0 0
0 0 0.296803
0 0 0.280998
0 0 0
0 0 0.130684
0.036246 0 0.135159
0 0 0.198327
0 0 0.18639
0 0 0
0 0 0.101083
0 0 0.296134
0 0.037381 0.280316
0 0 0
0 0 0.0244106
0 0 0.0557582
0 0 0.219576
0 0 0.182546
0 0 0.0520643
0 0 0.214245
0 0 0.178279
0 0 0
0 0 0.120847
0 0 0.126505
0 0 0.184326
0 0 0.316736
0 0 0.276502
0 0 0.0228041
0 0 0.313442
0 0 0.273963
0 0 0.0205088
0 0 0.0462701
0 0 0.306554
0 0.0547634 0.271916
0 0 0
0 0 0.287887
0 0.0494356 0.275536
0 0 0
0 0 0.115479
0 0 0.121692
0 0 0.171663
0 0 0
0 0 0.291407
0 0.0565176 0.282093
0 0 0
0 0 0.181415
0 0 0.0407045
0 0 0.286101
0 0 0.133284
0 0.0613458 0.291846
0 0 0
0 0 0.115847
0 0 0.217532
0 0 0.0943035
0 0 0.197791
0.00374484 0.0365437 0.124496
0 0 0.00104181
0 0 0.196978
0 0 0.0430527
0 0.153937 0.0204812
0 0 0.00798727
0.272101 0.0411829 0.0707921
0 0 0
0 0 0
0 0 0.242702
0 0 0.108406
0 0 0
0 0 0.320081
0 0 0.134885
0 0 0.136006
0 0 0.220821
0 0 0.15559
0 0 0.102616
0 0 0.112362
0.326821 0.305348 0.161961
0 0 0.189131
0.244787 0.195369 0.194745
0 0 0.0671345
0 0.0180083 0.233975
0 0 0
0 0 0.0838337
0 0 0
0 0 0.34349
0 0 0.310564
0.335821 0.312078 0.1661
0 0 0.326378
0.326269 0.196238 0.187564
0 0 0.198448
0.33286 0.197478 0.192929
0 0 0.20135
0.270102 0.201064 0.21017
0 0 0.0407219
0 0 0.146357
0 0 0.168995
0 0 0.147803
0 0 0.0685091
0 0 0.165308
0 0 0.186242
0.278453 0.316132 0.183714
0 0 0.210967
0.120984 0.26335 0.268859
0 0 0.00702887
0.0792805 0.0951545 0.0641251
0 0 0
0.0399469 0.272381 0.0511207
0 0 0
0.0804408 0.223444 0.120889
0 0 0
0.0831734 0.223122 0.121411
0 0 0
0.0415676 0.209686 0.16691
0 0 0
0 0 0.155745
0 0 0.179083
0 0 0.0902797
0 0 0.0763535
0 0 0.21554
0 0 0.144534
0 0 0.17629
0 0 0.105748
0 0 0.182611
0 0 0.165242
0 0 0.166549
0 0 0.191609
0 0 0.0875261
0.133111 0.269963 0.278834
0 0 0
0.182436 0.136258 0.205927
0 0 0
0.060567 0.136229 0.39917
0 0.0515574 0.343527
0 0.0497362 0.346685
0 0.0492787 0.347406
0 0.0490825 0.350128
0 0.0490379 0.353285
0 0.0489375 0.356021
0 0.0493673 0.358594
0 0.0487364 0.361192
0 0.0493183 0.364891
0 0.0487443 0.368311
0 0.0486439 0.371047
0 0.0490736 0.37362
0 0.04842 0.377063
0 0.211216 0.354969
0 0.011201 0.317322
0 0.0598262 0.245962
0 0.171203 0.146705
0 0.169047 0.148727
0 0.171251 0.150175
0 0.171386 0.152246
0 0.173472 0.153077
0 0.174045 0.154737
0 0.174617 0.156396
0 0.175838 0.158908
0 0.174737 0.160725
0 0.175728 0.161729
0 0.176301 0.163388
0 0.176873 0.165048
0 0.177445 0.166707
0 0 0.0922333
0 0 0
0 0 0
0 0 0
0 0 0
0 0 0
0 0 0
0 0 0
0 0 0
0 0 0
0 0 0
0 0 0
0 0 0.000247539
0 0 0.000655112
0 0 0.00106267
0 0 0.00147024
0 0.0477664 0.380507
0 0.0471128 0.383951
0 0.0464592 0.387394
0 0.0458056 0.390838
0 0.045152 0.394281
0 0.0440628 0.396135
0 0.0421006 0.398464
0 0.0411125 0.40292
0 0.0416723 0.403893
0.000754767 0.0407934 0.405351
0.000305739 0.0393697 0.408216
0 0.0376047 0.408225
0.0812214 0.0562573 0.236108
0 0.274471 0.0508542
0.18715 0.175533 0.145229
0 0 0
0.301947 0.017199 0.0842951
0 0 0
0 0.178018 0.168366
0 0.17859 0.170025
0 0.179162 0.171685
0 0.179299 0.171754
0 0.17854 0.173144
0 0.178581 0.174566
0 0.180603 0.175743
0 0.179266 0.177117
0 0.17929 0.176294
0 0.17998 0.177202
0 0.178113 0.178339
0 0.180021 0.178624
0.143071 0.41675 0.226493
0.457962 0.123985 0
0 0 0
0 0 0
0 0 0.262358
0 0 0.00187781
0 0 0.00228538
0 0 0.00269295
0 0 0.00225553
0 0 0.00291788
0 0 0.00400598
0 0 0.00372579
0 0 0.003733
0 0 0.00397614
0 0 0.00395073
0 0 0.00463847
0 0 0.00503881
0 0.00206623 0
0 0.0185672 0.199689
0 0 0.340145
0 0 0.125399
0 0 0
0 0 0.273885
0 0 0.128895
0 0 0.249387
0 0 0
0 0.168465 0
0.0134243 0.0931829 0
0 0 0
0 0.0228108 0
0.0815787 0 0.0218839
0.185843 0 0
0.0852094 0 0.042632
0 0.0405024 0
0.0270642 0 0
0.174904 0 0
0.292199 0 0
0 0 0
0 0.0623683 0
0 0.0298125 0.0211383
0 0 0
0 0 0
0 0 0.154563
0 0 0.0140121
0.111116 0 0
0 0 0
0 0 0.0329433
0.0304982 0.0425446 0
0 0.0047234 0.116465
0 0 0.176583
0 0.0106414 0
0 0 0
0 0 0
0 0 0
0 0 0
0 0 0
0 0 0
0 0 0
0 0 0
0 0 0
0 0 0
0 0 0
0 0 0
0 0 0
0 0 0
0 0 0
0 0 0
0 0 0
0.00887775 0 0
0 0 0
0 0 0
0 0 0
0 0 0
0 0 0
0 0 0
0 0 0
0 0 0
0 0 0
0 0 0
0 0 0
0 0 0
0 0 0
0.00953228 0 0
0.250801 0.0967998 0.0185189
0.0823108 0.229902 0
0.405479 0.166063 0
0.402088 0.167364 0
0.395747 0.165429 0
0.391853 0.164509 0
0.385252 0.164231 0
0.377826 0.162252 0
0.369657 0.16076 0
0.364773 0.157543 0
0.358029 0.157975 0
0.351634 0.152749 0
0.345348 0.154866 0
0.337761 0.15352 0
0.333271 0.153356 0
0.291812 0.0154865 0.00780749
0.11088 0.0018224 0
0 0 0.254651
0 0 0.243923
0 0 0.239779
0 0 0.237301
0 0 0.233195
0 0 0.228565
0 0 0.224761
0 0 0.220375
0 0 0.215826
0 0 0.212558
0 0 0.20691
0 0 0.20392
0 0 0.200192
0 0 0.197781
0 0 0
0 0 0
0 0 0
0 0 0
0 0 0
0 0 0
0 0 0
0 0 0
0 0 0
0 0 0
0 0 0
0 0 0
0 0 0
0 0 0.0394227
0.0327193 0 0
0 0 0
0 0 0
0 0 0
0 0 0
0 0 0
0 0 0
0 0 0
0 0 0
0 0 0
0 0 0
0 0 0
0 0 0
0 0 0
0 0 0
0.0644859 0.0244811 0
0.091259 0.145412 0
0.326393 0.198816 0
0.329789 0.153033 0
0.326714 0.152603 0
0.324323 0.150464 0
0.322988 0.147304 0
0.320113 0.146966 0
0.319385 0.143941 0
0.319335 0.140978 0
0.317119 0.141644 0
0.316341 0.141537 0
0.31542 0.141388 0
0.318069 0.142685 0
0.317131 0.141826 0
0.316548 0.140313 0
0.201624 0 0
0.0513605 0 0.0477826
0 0 0.0308808
0 0 0.196215
0 0 0.196775
0 0 0.195407
0 0 0.194074
0 0 0.194711
0 0 0.196195
0 0 0.195841
0 0 0.195415
0 0 0.195284
0 0 0.196165
0 0 0.197036
0 0 0.197036
0 0 0.19634
0 0 0.18373
0 0 0.11646
0 0 0.239083
0.100534 0.035077 0.119413
0 0 0
0 0 0
0 0.0842535 0
0.126386 0 0
0 0 0.255683
0 0 0.022904
0 0 0.0960336
0 0 0.124098
0 0 0.00563161
0.0740261 0 0
0.00670915 0 0.0974758
0 0 0.240357
0.030131 0 0
0 0.287083 0
