ply
format ascii 1.0
comment Created by Open3D
element vertex 2282
property double x
property double y
property double z
end_header
0.0627162 0.187959 0.103679
0 0 0
0 0 0
0 0 0.239652
0 0 0.0893996
0 0 0.245922
0 0 0.218931
0 0 0.379906
0.161559 0.261923 0.179553
0 0.0683372 0
0 0 0
0 0 0.00640959
0 0 0.087137
0 0 0.0805794
0 0 0.0879757
0 0 0.0817773
0 0 0.0897219
0 0 0.0832022
0.0454709 0.0214905 0.0367846
0 0 0.0949147
0.285786 0.193576 0
0 0 0
0.0218564 0 0
0 0.0963099 0
0 0 0
0.057751 0.0868173 0
0.0492159 0.0868764 0
0.0768044 0.00988292 0
0.180833 0.191163 0.0115095
0 0.18536 0
0.00464811 0 0
0.055973 0.0751973 0
0.105931 0 0
0 0.247049 0.0967728
0.134862 0.0397965 0
0.163283 0.14573 0
0.0446945 0 0
0.144917 0.0476106 0
0.0912714 0.0467388 0
0 0.363835 0.0217117
0.133499 0.0515682 0
0.0639612 0 0
0 0 0
0 0.323014 0
0.12342 0.0484325 0
0.154675 0.149959 0
0.150189 0.158935 0
0.0316222 0 0
0.398385 0.089992 0
0.0574632 0.151437 0
0.198268 0.157888 0
0 0 0
0.222013 0 0
0 0.332016 0.000653375
0.117528 0.0517922 0
0.155762 0.159039 0
0.155464 0.163989 0
0.0781868 0 0
0 0.637692 0.27551
0.151951 0.0472332 0
0 0.0357612 0
0.0885782 0 0
0.216472 0 0
0 0.341723 0.00515701
0.119414 0.058158 0
0.161385 0.163941 0
0.0411004 0 0
0.220893 0 0
0 0.391683 0.028878
0 0.0320948 0
0.209213 0.138253 0
0.0850306 0 0
0.217431 0 0
0.31413 0.277057 0.00215828
0.021956 0.271961 0
0.13154 0.0585076 0
0.0557487 0 0
0.247102 0 0
0 0.0308657 0
0.223797 0.139027 0
0.213403 0.14462 0
0.0844173 0 0
0.187943 0.0444974 0
0.122391 0.0492896 0
0 0.369872 0.0184129
0.15067 0.0536725 0
0.071506 0 0
0 0.279357 0.136525
0.185339 0.0149718 0
0.228039 0.142766 0
0.213008 0.147481 0
0.201844 0.15294 0
0.0680921 0 0
0.225512 0 0
0 0.36996 0.0188256
0.160772 0.0499348 0
0 0 0
0 0.363654 0.0118287
0.187447 0.0191808 0
0.224505 0.141519 0
0.208325 0.147876 0
0.196864 0.15307 0
0.0641242 0 0
0.228386 0 0
0.352469 0.287382 0.0119435
0 0.304021 0.0372002
0.0247181 0 0
0.0797409 0.0821693 0
0.0782328 0.0845448 0
0.113416 0.00040265 0
0 0.298824 0.026244
0.0185415 0 0
0.0655988 0.0855217 0
0.0645751 0.0833215 0
0.0665861 0.0803283 0
0.113167 0 0
0.243308 0.217692 0.0330229
0.333846 0.112573 0
0 0 0
0 0.0946953 0
0.0906605 0.0795847 0
0.256728 0 0
0 0.380234 0.0244088
0.175074 0.0173683 0
0.230514 0.142887 0
0.101905 0 0
0.256172 0 0
0 0.371609 0.0156023
0.151185 0.0411193 0
0.200107 0.159955 0
0.204585 0.159951 0
0.0765228 0 0
0.217992 0.0318456 0
0.113605 0.141854 0
0.262134 0.524213 0
0.127057 0.27499 0
0.253445 0.15631 0
0.079071 0 0
0.277917 0 0
0 0.385375 0.0243131
0.187407 0.0152658 0
0.24034 0.145985 0
0.105201 0 0
0.264642 0 0
0 0.38042 0.0191945
0.162372 0.0406921 0
0.217009 0.159753 0
0.224293 0.161379 0
0.231331 0.16065 0
0.239921 0.159051 0
0.250015 0.157911 0
0.256816 0.159156 0
0.26325 0.153721 0
0.2224 0.155845 0
0.0969081 0 0
0.296205 0 0
0 0.385029 0.0231154
0.197135 0.0164541 0
0.245548 0.147843 0
0.106058 0 0
0.272153 0 0
0 0.384562 0.0209011
0.176231 0.0385937 0
0.233809 0.159986 0
0.238651 0.161191 0
0.247182 0.158482 0
0.254787 0.156426 0
0.262197 0.154145 0
0.690454 0.0583446 0
0.172485 0.0403356 0
0.241397 0.152291 0
0.112003 0 0
0.529802 0.0812611 0
0.113886 0.13155 0
0.255477 0.146444 0
0.246481 0.149779 0
0.104872 0 0
0.276847 0 0
0 0.375808 0.0171952
0.187988 0.0410706 0
0.24124 0.156386 0
0.245857 0.155618 0
0.251956 0.153682 0
0.254761 0.152021 0
0.308726 0 0
0 0.394287 0.0287468
0.188597 0.031478 0
0.254827 0.148803 0
0.163657 0 0
0.0285658 0.597529 0.308083
0.0871318 0.260237 0
0.197136 0.0282071 0
0.240756 0.14684 0
0.100809 0 0
0.27221 0 0
0.356222 0.283336 0.00276036
0.0834136 0.256966 0
0.189463 0.0439406 0
0.589133 0.0755053 0
0.491475 0.280368 0
0.25581 0 0
0.266549 0 0
0.394783 0.297037 0.0184487
0.0748325 0.270949 0
0.0585736 0 0
0.255587 0.0286939 0
0.174032 0.056319 0
0 0.367084 0.011491
0.181656 0.030448 0
0.227591 0.150053 0
0.0928705 0 0
0.220669 0.0348082 0
0.147745 0.0579966 0
0.323259 0.268201 0
0.115529 0.00952822 0
0 0.146841 0
0.230874 0.491181 0
0.0778704 0 0
0.230508 0.0252519 0
0.166318 0.0431405 0
0 0.37711 0.0210514
0.193396 0.0183829 0
0.113111 0 0
0.278993 0 0
0 0.35701 0.00908427
0.174622 0.0320467 0
0.21626 0.142158 0
0.211988 0.141663 0
0.0847517 0 0
0.198463 0.04347 0
0.203959 0.456517 0
0.0779479 0.247706 0
0.178062 0.154645 0
0.446498 0.186807 0
0.0557991 0.274856 0
0.0393718 0 0
0.28302 0 0
0.390447 0.285124 0.01267
0.0677808 0.261602 0
0.0531756 0 0
0.270278 0 0
0 0.354314 0.00653647
0.162591 0.0289141 0
0.205055 0.140338 0
0.197304 0.135243 0
0.1877 0.138143 0
0.174602 0.14612 0
0.165968 0.150763 0
0.471156 0.0846 0
0.0946508 0.0800971 0
0.0975465 0.0811314 0
0.525057 0 0
0.390976 0.244833 0
0.326213 0.114452 0
0.314998 0.113289 0
0 0 0
0 0.0965491 0
0.0796605 0.08392 0
0.0743944 0.0859181 0
0.393347 0.0165443 0
0.0309786 0.070156 0
0 0.10023 0
0.111475 0 0
0 0 0.0603832
0.412078 0 0
0.259884 0.153031 0
0.701033 0.05521 0
0.21914 0.114355 0
0.0141381 0.164329 0
0.135033 0.147482 0
0.130306 0.146921 0
0.254179 0.487469 0
0.119508 0.246024 0
0.223509 0.135824 0
0.572234 0.0552668 0
0.176171 0.1248 0
0.0982401 0.434531 0
0.0780666 0.23396 0
0.324121 0 0
0 0.144279 0.118195
0.235893 0 0
0.707372 0.0558639 0
0.222907 0.112019 0
0.159686 0.547683 0
0.140068 0.267645 0
0.255496 0.145154 0
0.247197 0.143688 0
0.242094 0.141362 0
0.235747 0.140188 0
0.628249 0.0483255 0
0.199206 0.121693 0
0.114568 0.452009 0
0.0987702 0.236394 0
0.529848 0.0709377 0
0.240934 0 0
0 0.265587 0
0.357155 0 0
0.214967 0.104553 0
0.163803 0.555067 0
0.141574 0.269653 0
0.261405 0.146894 0
0.252875 0.147211 0
0.249199 0.145481 0
0.245263 0.144446 0
0.243763 0.140221 0
0.339031 0 0
0.0314876 0.334463 0.0342888
0.119423 0.241257 0
0.210978 0.143402 0
0.279965 0 0
0.00565706 0.330092 0.0279474
0.0771893 0.257309 0
0.377417 0 0
0.0684361 0.411806 0.00233552
0.133265 0.268607 0
0.256345 0.144692 0
0.253272 0.149451 0
0.247867 0.149199 0
0.244974 0.149665 0
0.246558 0.148014 0
0.24961 0.144886 0
0.463879 0 0
0 0.111939 0.164613
0.242203 0.137192 0
0.229065 0.143696 0
0.405545 0 0
0 0.131946 0.146387
0.603303 0.0752424 0
0.279405 0 0
0.00108087 0.27859 0
0.237778 0.146214 0
0.23982 0.144137 0
0.240698 0.153351 0
0.237205 0.154041 0
0.681564 0.0562516 0
0.570633 0.31535 0
0.520112 0.185961 0
0.288616 0 0
0.0093422 0.276059 0
0.258424 0.140333 0
0.66411 0.052519 0
0.308103 0 0
0 0.278287 0
0.299287 0 0
0.0210923 0.380141 0.0309615
0.0991047 0.255338 0
0.214446 0.149123 0
0.220459 0.14546 0
0.227592 0.154272 0
0.643468 0.0643237 0
0.189135 0.105217 0
0 0.154454 0
0.1316 0.140832 0
0.291526 0.538862 0
0.146824 0.265789 0
0.714636 0.0445319 0
0.228153 0.118753 0
0.568051 0.426292 0
0.427273 0.432366 0
0.256914 0 0
0.439161 0.195462 0
0.181425 0.154153 0
0.540959 0.0779205 0
0.46383 0.279525 0
0.443697 0.185552 0
0.121507 0 0
0.130783 0.548783 0
0.114404 0.280276 0
0.253082 0.157201 0
0.268565 0.150438 0
0.737425 0.0443516 0
0.2387 0.111941 0
0.157494 0.543682 0
0.233724 0 0
0 0.00654521 0
0.714155 0.43114 0
0.0847038 0.244223 0
0.395936 0.267546 0
0.0873923 0.0196144 0
0 0.145958 0
0.0790557 0.132911 0
0.223144 0.506578 0
0.0983372 0.275906 0
0.665601 0.0662175 0
0.572545 0.320566 0
0.533778 0.189317 0
0.171081 0 0
0.621517 0.461297 0
0.469396 0.445484 0
0.022463 0 0
0.327804 0.462882 0.108385
0 0.0172054 0
0.475091 0.734645 0
0.0219747 0.0360629 0
0.355353 0 0
0.036988 0.0423775 0
0.364667 0.0037838 0
0.0463952 0.0538356 0
0.0429382 0 0
0 0 0.0795288
0.145211 0 0
0 0 0.0745318
0.140703 0 0
0 0 0.0765191
0.47208 0 0
0.205147 0.284724 0
0 0 0
0 0.166545 0
0.00869307 0.362779 0.0170956
0.172984 0 0
0.0289096 0.369885 0.0214968
0.196768 0 0
0.0418294 0.359629 0.0224862
0.306245 0 0
0.280738 0.0488342 0.132616
0.284949 0 0
0.363518 0.187407 0
0.275567 0 0
0.375373 0.187751 0
0.170917 0.115017 0
0.173677 0.340411 0
0.462648 0 0
0.628107 0.18497 0
0 0.142852 0.141342
0.40319 0 0
0 0.131088 0.155326
0.433679 0 0
0.304746 0.0356092 0.145965
0.307776 0 0
0.0753965 0.0144022 0
0.0358708 0.355788 0.0157611
0.168555 0.00152288 0
0.0303209 0.366211 0.011498
0.167619 0 0
0.0335897 0.375868 0.0122525
0.0956203 0.350357 0
0.368938 0 0
0.359359 0.123504 0
0 0 0
0 0.140816 0.150109
0.420663 0 0
0.32455 0.0360117 0.153321
0.321776 0 0
0.0866007 0.00275309 0
0.0482393 0.359208 0.0234133
0.298138 0 0
0 0.135331 0.134794
0.380523 0 0
0.2787 0.0601628 0.123311
0.274308 0 0
0 0.273713 0
0.36805 0.0143924 0
0.128955 0 0
0.269423 0 0
0 0.145217 0.349444
0 0.286684 0
0.43734 0 0
0 0 0
0.0508864 0.375711 0.0274008
0.330275 0 0
0 0.123638 0.149338
0.410623 0 0
0.273394 0.0555503 0.125519
0.273316 0 0
0.0554261 0.0143143 0
0.0309272 0.367259 0.00825877
0.25305 0.199538 0
0.223923 0.0444392 0
0.241664 0 0
0.094962 0.0109666 0.148512
0 0.318148 0.454201
0.55809 0.177822 0
0.0565258 0 0
0.0845269 0 0
0.431924 0.189363 0
0.334685 0 0
0.390031 0.187738 0
0.0866353 0 0
0 0.234413 0
0.472682 0.404359 0
0.163673 0 0
0.359928 0.185934 0
0.159794 0.243072 0
0.195456 0.124754 0
0.23407 0.251256 0
0.377014 0.297693 0.0446099
0.0991344 0.235517 0
0.549372 0.434448 0
0.0964949 0.227888 0
0.202855 0.24415 0
0.295466 0.272727 0.0266418
0.061734 0.217052 0
0.470139 0.402382 0
0.0500636 0.215753 0
0.236696 0.111839 0
0.601759 0.463129 0
0.21995 0 0
0.0935313 0 0
0.470761 0.298345 0.0154448
0.0994369 0.233094 0
0.515673 0.420445 0
0 0 0
0 0.229817 0
0.466053 0.39344 0
0.0534808 0.215563 0
0.470925 0.40509 0
0.109044 0.0930433 0
0 0.137006 0
0.472157 0.734871 0
0 0 0
0 0.250011 0
0.538663 0.428745 0
0 0.251324 0
0 0.480525 0
0.275405 0.607981 0
0 0.135008 0
0.363531 0.609941 0
0.0118733 0.113153 0
0.231452 0.115122 0
0 0 0
0.302854 0 0
0.364423 0.271187 0.000906156
0.429333 0.165736 0
0.0603388 0.247979 0
0.1537 0.045433 0
0.192056 0.153688 0
0.0632192 0 0
0.186 0.0351938 0
0 0.0481253 0
0.119111 0 0
0.241123 0.0335587 0
0.116532 0.145881 0
0.135477 0.0581097 0
0.332914 0.276427 0.00537344
0.0245157 0.26932 0
0.131503 0.0506155 0
0.187152 0.167112 0
0 0.0528717 0
0.235615 0.136772 0
0.223952 0.135977 0
0.21202 0.140211 0
0.085563 0 0
0.197392 0.0419105 0
0.129367 0.0502788 0
0.344644 0.290324 0.0107332
0.0285993 0.288268 0
0 0.0585682 0
0.222543 0.141707 0
0.215859 0.140241 0
0.211387 0.144096 0
0.207044 0.146754 0
0.208812 0.150052 0
0.0849912 0 0
0.217115 0.0369339 0
0.367282 0.192898 0
0 0.060604 0
0.213389 0.150103 0
0.211121 0.148469 0
0.214169 0.152353 0
0.218313 0.151944 0
0.226429 0.150366 0
0.234347 0.152774 0
0.241857 0.147636 0
0.152898 0 0
0 0.0598674 0
0.210539 0.156559 0
0.211639 0.15575 0
0.220636 0.155669 0
0.227679 0.157096 0
0.236361 0.148989 0
0.2479 0.14846 0
0.251013 0.141747 0
0.119609 0 0
0.137376 0 0
0.485752 0.304241 0
0.437063 0.188478 0
0.443478 0.186221 0
0.0729647 0.269089 0
0.189438 0.0342784 0
0.24593 0.142849 0
0.244619 0.135315 0
0.241642 0.131731 0
0 0.0229736 0
0 0.157211 0
0.115667 0.141531 0
0.118566 0.142297 0
0.155608 0.0508744 0
0.347676 0.27313 0.00245617
0.429317 0.165895 0
0.0780089 0.236302 0
0.172815 0.0252936 0
0 0.278067 0
0.124895 0.257522 0
0.233125 0.149129 0
0.227568 0.149057 0
0.0927104 0 0
0.213107 0.0353524 0
0.0989647 0.138095 0
0.130518 0.0561321 0
0.331657 0.251093 0.00280859
0.0162687 0.195357 0.123987
0.438593 0.170857 0
0.0822342 0.240136 0
0.494709 0 0
0.112744 0.332596 0
0.147319 0.0487351 0
0.176057 0.143736 0
0.0522577 0 0
0.16876 0.0400101 0
0 0 0
0.142741 0.147982 0
0.168202 0.0689634 0
0.0576693 0.108029 0
0.0292679 0.0836366 0
0.29521 0.253174 0
0.362985 0.174551 0
0.377655 0.179682 0
0.00769038 0.27059 0
0 0.0404295 0
0.247324 0.126499 0
0.114234 0 0
0.317193 0.329479 0
0 0 0
0.157471 0.0517406 0
0.0546385 0.134315 0
0.0529011 0.133047 0
0.0996392 0.0383255 0
0.0138825 0.188013 0.116648
0.435331 0.151859 0
0.414758 0.151832 0
0.395365 0.156611 0
0.028435 0.243282 0
0.475464 0 0
0.0477968 0.376666 0
0.112349 0.0627252 0
0.0416652 0 0
0 0 0
0.113115 0.139831 0
0.101754 0.139942 0
0.0914211 0.139037 0
0.117354 0.0552046 0
0.0326489 0.111456 0
0.00791362 0.0612823 0
0.336255 0.298828 0.0127251
0.427028 0.204204 0
0 0.0698566 0
0.194296 0.135141 0
0.188965 0.138151 0
0.184202 0.141299 0
0.0666121 0 0
0.305414 0.363455 0
0 0 0
0.198435 0.0398788 0
0.499811 0.0529174 0
0.117534 0 0
0.0745328 0.356275 0
0.519839 0 0
0.0717038 0.381392 0
0.144802 0.0378711 0
0.622636 0.0633787 0
0.51113 0.310177 0
0.459954 0.188621 0
0.135561 0.00315252 0
0.0883821 0.132455 0
0.141981 0.0427075 0
0 0.383126 0.0252006
0.0424328 0 0
0.241297 0.0305625 0
0.388461 0.201595 0
0.0957073 0.127536 0
0.10579 0 0
0.26603 0 0
0 0.350382 0.00626902
0.156648 0.0250319 0
0.195546 0.135989 0
0.184001 0.140481 0
0.169135 0.143242 0
0.159666 0.150725 0
0.211019 0 0
0.195024 0.161334 0
0.0733797 0 0
0.48381 0.0840572 0
0.0917221 0.13984 0
0.236686 0.148031 0
0.147438 0 0
0 0.67412 0.307356
0.181599 0.0131211 0
0.110147 0 0
0.473972 0.0973272 0
0.086201 0.121165 0
0.205683 0.134664 0
0.524393 0.0648087 0
0.402939 0.26502 0
0.340197 0.166193 0
0.174514 0 0
0.15204 0.0469637 0
0.220255 0.162097 0
0.133299 0 0
0 0.674482 0.305489
0.192716 0.0297495 0
0.111731 0 0
0.297973 0 0
0 0.372636 0.0229298
0.196704 0.0119167 0
0.161781 0 0
0.0277527 0.543409 0.268053
0.41474 0.159014 0
0.124725 0.00604926 0
0.00236962 0.154673 0
0.0903604 0.135488 0
0.182837 0.411088 0
0.0926395 0.146043 0
0.234414 0.159716 0
0.100067 0 0
0.282278 0 0
0.00637581 0.366974 0.0162979
0.201148 0.0370336 0
0.109083 0 0
0.495748 0.0599468 0
0.118119 0.129374 0
0.1227 0 0
0.250528 0.0279309 0
0.130268 0.13934 0
0.232423 0.43652 0
0.103954 0.226698 0
0.184725 0.13271 0
0.47082 0.0708098 0
0 0.652734 0.287035
0.193778 0.0375938 0
0.240106 0.149599 0
0.10051 0 0
0.433868 0.0551341 0
0.111793 0.148453 0
0.230757 0.144215 0
0.132644 0 0
0 0.551703 0.28493
0.426628 0.154643 0
0.415272 0.151636 0
0.403554 0.147749 0
0.386397 0.148185 0
0.363426 0.150892 0
0.350188 0.155409 0
0.0923213 0.0209304 0
0.287612 0 0
0.0147018 0.334933 0
0.18486 0.0395083 0
0.215066 0.144969 0
0.112244 0 0
0 0.572065 0.245525
0.160462 0.0646307 0
0.0679937 0 0
0.199268 0.0258044 0
0.0959731 0.129827 0
0.0961873 0.13037 0
0.0956462 0.133118 0
0.0893104 0.131908 0
0.088106 0.132591 0
0.0798053 0.13684 0
0.171518 0.399071 0
0.110764 0 0
0.257353 0 0
0.00167034 0.309753 0
0.14753 0.0462667 0
0.0639907 0 0
0.188143 0 0
0.238627 0.240448 0
0.294966 0.164852 0
0.303631 0.160202 0
0.316917 0.15735 0
0.0427874 0.216379 0
0.120435 0.0515479 0
0.151848 0.128655 0
0.465828 0.0549158 0
0.377819 0.255903 0
0.31599 0.165772 0
0.207991 0.125164 0
0.0911169 0 0
0.220321 0 0
0 0.303719 0
0.109404 0.0448077 0
0.0465814 0 0
0.126739 0.0616473 0
0.0413776 0.135216 0
0.0352181 0.13225 0
0.0327098 0.131694 0
0.0618898 0.0636743 0
0.258592 0.240246 0
0.329927 0.167926 0
0.0853177 0.0170301 0
0 0.147311 0
0.0739323 0.126856 0
0.400075 0.157384 0
0.0268295 0.236144 0
0.027948 0 0
0.19932 0 0
0.262598 0.244382 0
0.303898 0.161973 0
0.283214 0.163648 0
0.267933 0.168252 0
0.2645 0.171482 0
0 0.24095 0
0 0 0
0.101501 0.0563787 0
0.0331326 0.126459 0
0.159451 0.408776 0
0.0689244 0.231514 0
0.50288 0.0464635 0
0.0745814 0.134584 0
0.121366 0.0523877 0
0.340147 0.261956 0.00970745
0.304115 0 0
0.389311 0.0915109 0
0.282645 0.175948 0
0 0.245872 0
0.0160736 0.0380975 0
0.048448 0.140923 0
0.0654742 0.0700746 0
0.251106 0.262353 0
0.329167 0.19131 0
0.35478 0.190658 0
0.376359 0.181324 0
0.399251 0.180682 0
0.120967 0 0
0.122527 0.0424891 0
0.0637785 0 0
0.203773 0.0369352 0
0.11398 0.142595 0
0.120765 0.145383 0
0.117217 0.147366 0
0.141771 0.0682843 0
0.30177 0.263529 0
0.356005 0.174679 0
0 0 0
0.0897816 0 0
0.0530938 0.1333 0
0.0618299 0.132431 0
0.0806471 0.131151 0
0.0945364 0.135424 0
0.603373 0.356627 0
0.359415 0.296302 0.022943
0.467453 0.193635 0
0.488266 0.185343 0
0.499585 0.177392 0
0.496899 0.169101 0
0.0624561 0.257627 0
0.065536 0 0
0.224146 0.0480176 0
0.107998 0.145585 0
0.130266 0.0605007 0
0.308422 0.279512 0.000494294
0.0239755 0.26991 0
0.492963 0 0
0.452005 0.288602 0
0.423088 0.177232 0
0.126952 0 0
0.187949 0.0332174 0
0.102344 0.137172 0
0.122287 0.139031 0
0.140295 0.141297 0
0.15171 0.144151 0
0.197908 0.04483 0
0.399651 0.278082 0.0110577
0.0744495 0.249169 0
0.178513 0.0160999 0
0.099237 0 0
0.205551 0.045549 0
0.136687 0.0537267 0
0.0262848 0.114541 0
0.337868 0.0785798 0
0.349047 0.261113 0
0.445032 0.501876 0
0.447008 0.202647 0
0.466572 0.200115 0
0.483925 0.192328 0
0.497715 0.182347 0
0.0981336 0.262837 0
0.0745725 0 0
0.269232 0.0239577 0
0.183184 0.0492239 0
0.375266 0.27486 0.00485334
0.0690545 0.248413 0
0.527088 0 0
0.327944 0 0
0.507072 0.38881 0
0.00612516 0.117587 0
0 0.15 0
0.43984 0.056154 0
0.387043 0.293423 0
0 0.257667 0
0.071771 0.0275263 0
0.127864 0.14287 0
0.172904 0.0477745 0
0.39092 0.28085 0.0107261
0.0847664 0.256215 0
0.0605744 0 0
0.245754 0.0287783 0
0.166114 0.0566596 0
0.0562067 0.104581 0
0.00969033 0.158849 0
0.426206 0.0719871 0
0.428979 0.570754 0
0.269755 0.271972 0
0.0915667 0.018526 0
0.00403042 0.15983 0
0.161419 0.0540312 0
0 0.370079 0.0121287
0.181897 0.0400011 0
0.0932886 0 0
0.228035 0.0281511 0
0.154923 0.0472519 0
0 0.359578 0.0162739
0.181935 0.0242069 0
0.105263 0 0
0.350329 0.353215 0
0.451256 0.159488 0
0.169804 0.117292 0
0 0.15581 0
0.393271 0.0665129 0
0.422658 0.573798 0
0 0.0402043 0
0.178639 0.444979 0
0.0711766 0.250788 0
0.173937 0.163179 0
0.184103 0.165382 0
0.605805 0.0794772 0
0.169213 0.108886 0
0 0.152403 0
0.134171 0.141498 0
0.742294 0.460952 0
0.0958112 0.22896 0
0.0177873 0.160325 0
0.376362 0.241789 0
0 0.00458474 0
0.372997 0.240555 0
0.239698 0 0
0 0.249326 0
0.152148 0.153539 0
0.49203 0.0845948 0
0.419352 0.282656 0
0.39945 0.193119 0
0.0995025 0.00910062 0
0.130934 0.539344 0
0.52293 0.188469 0
0.547561 0.307368 0
0.150159 0 0
0.590845 0.475998 0
0.446397 0.432956 0
0.295686 0 0
0.446745 0.199001 0
0.0842641 0 0
0 0.253377 0
0.0682799 0.233423 0
0.465238 0.0803261 0
0.122465 0.120504 0
0 0.142724 0
0.0685043 0.13002 0
0.577351 0.414769 0
0.363551 0.400293 0
0.120435 0 0
0 0.151124 0
0.665739 0.450992 0
0.0671432 0.226661 0
0.413985 0.0704757 0
0.575094 0.690483 0
0 0.132179 0
0.102164 0.509776 0
0.470588 0.465601 0
0.373337 0.257635 0
0.0787785 0.0243578 0
0.0885606 0.43894 0
0.0697072 0.24339 0
0.494533 0.0845518 0
0.129765 0.111901 0
0 0.142907 0
0.23294 0.499589 0
0.469208 0.181167 0
0.171621 0.10511 0
0.514926 0.451177 0
0.0607259 0.221588 0
0.00322332 0.15423 0
0.321177 0.255124 0
0.352148 0.329453 0.0192314
0.073068 0.221266 0
0 0.143393 0
0.174175 0.410134 0
0.364007 0.168701 0
0.369373 0.261023 0
0.0793042 0.0254084 0
0.0979054 0.466776 0
0.40858 0.174913 0
0.433183 0.274612 0
0.10801 0.0093603 0
0.124603 0.502212 0
0.155049 0.00810679 0
0.0483258 0.389032 0
0.468582 0.183237 0
0.289169 0 0
0.0554782 0.0133781 0
0.444566 0.314624 0
0.0686984 0.223582 0
0.433836 0.0784232 0
0.115423 0.115797 0
0 0.140122 0
0.168185 0.423435 0
0.372241 0.169285 0
0.124404 0.111202 0
0 0.142805 0
0.199329 0.458886 0
0.430674 0.170504 0
0.262186 0 0
0 0.264318 0
0.258265 0 0
0.0370565 0.377382 0.00167927
0.271869 0 0
0 0 0
0.316579 0.165217 0
0.0810394 0.0319575 0
0.0755828 0.409158 0
0.0545484 0.223112 0
0.436289 0.0825548 0
0.11368 0.116295 0
0.0769493 0.437144 0
0.0612689 0.239096 0
0.509987 0.0733888 0
0.144929 0.118706 0
0.455503 0.388568 0
0.336065 0.380804 0
0.214127 0 0
0.344775 0.188069 0
0.264326 0 0
0.167117 0 0
0.0814718 0.148078 0
0.16379 0.386667 0
0.355326 0.159414 0
0.346507 0.25432 0
0.0745954 0.03543 0
0.0656106 0.419974 0
0.39537 0.159434 0
0.402773 0.278546 0
0.09261 0.0198995 0
0.0932249 0.458376 0
0.16259 0 0
0 0.0245414 0
0.567155 0.377413 0
0.0536785 0.22069 0
0.473059 0.404566 0
0.163094 0 0
0.41041 0.276619 0
0.331242 0.162157 0
0.0905277 0.0340854 0
0 0.147002 0
0.148648 0.400843 0
0.401508 0.158098 0
0.124193 0.126424 0
0 0.146575 0
0.570257 0.36244 0
0.355782 0.38906 0
0.215673 0 0
0.360443 0.177696 0
0.16437 0.124042 0
0.1093 0.47442 0
0.160642 0.00482551 0
0.0260611 0.363696 0.0116902
0 0.161074 0
0.0835504 0.140675 0
0.515788 0.329668 0
0.31313 0.359691 0
0.356786 0.182927 0
0.0860423 0.0248375 0
0.463493 0.369031 0
0.356873 0.39234 0
0.105137 0.0104543 0
0 0.15282 0
0.61107 0.382427 0
0.0717343 0.223366 0
0.120705 0.477348 0
0.46113 0.170123 0
0.266883 0 0
0.353719 0.188363 0
0.372914 0.373726 0
0.3961 0.165342 0
0.114639 0.0159759 0
0 0.151114 0
0.452817 0.0534017 0
0.469164 0.591383 0
0.00766023 0.105591 0
0 0.149074 0
0.228747 0.48173 0
0.504842 0.168664 0
0.182095 0.118277 0
0.131537 0.489397 0
0.471443 0.169586 0
0.171925 0.117536 0
0.467242 0.402408 0
0.0537089 0.214307 0
0 0.150282 0
0.487795 0.0532464 0
0.488332 0.590523 0
0.318077 0.277797 0
0.109254 0.0113236 0
0 0.151248 0
0.628119 0.395158 0
0 0.499456 0
0.569445 0 0
0.183336 0.118705 0
0.139863 0.501283 0
0.48373 0.16884 0
0.182013 0.111734 0
0.122965 0.47428 0
0.159166 0.00903305 0
0.383194 0.279986 0
0.325266 0.274863 0
0.12763 0 0
0.384212 0.0628499 0
0.383286 0.286286 0
0.464003 0.512441 0
0.340214 0.291772 0
0.123367 0.00379163 0
0.0386895 0.0598183 0
0.0487262 0.104171 0
0.142341 0.511341 0
0.491096 0.171497 0
0.189069 0.110998 0
0.12902 0.477257 0
0.443274 0.167448 0
0.261231 0 0
0.0530954 0.0184488 0
0.3566 0.259614 0
0.45643 0.510563 0
0.0141549 0.102449 0
0 0.154831 0
0.108704 0.139552 0
0.110152 0.140305 0
0.653242 0.414246 0
0 0.139512 0
0.709254 0.184538 0
0.388027 0.400995 0
0.142617 0 0
0.480583 0.405483 0
0.34885 0.373202 0
0.12113 0.00919193 0
0.453674 0.383202 0
0 0 0
0 0.140952 0
0.467666 0.0458902 0
0.511435 0.629389 0
0.342612 0.29029 0
0.459157 0.183582 0
0.460488 0.184961 0
0.135522 0 0
0.0445599 0.0627624 0
0.0587597 0.103727 0
0.0119791 0.160554 0
0.608057 0.392662 0
0.078039 0.219449 0
0 0.15708 0
0.562325 0.367127 0
0.0586899 0.213764 0
0.177101 0.217551 0
0.283024 0.283258 0
0.0975239 0.00857477 0
0 0.146717 0
0.103129 0.136528 0
0.106667 0.139518 0
0.516841 0.0481121 0
0.54085 0.657737 0
0.215315 0 0
0.591778 0.41123 0
0.33566 0.279344 0
0.141717 0 0
0.483151 0.391508 0
0.357218 0.379044 0
0.11531 0.0102257 0
0.479808 0.383411 0
0 0 0
0.248304 0.515006 0
0.336235 0.0697847 0
0.251935 0.504517 0
0.450442 0.44301 0
0 0.253202 0
0.104273 0.466911 0
0.106736 0.230836 0
0.185714 0 0
0.184678 0.432579 0
0.0459697 0.0947672 0
0.4058 0.575112 0
0.600672 0.471761 0
0.0985031 0.233987 0
0.576436 0.448975 0
0 0.257353 0
0.106984 0.480155 0
0.419473 0.405869 0
0 0 0
0 0.233415 0
0.265583 0.420987 0
0.210659 0.291054 0
0 0.25832 0
0.458727 0.707557 0
0 0.131316 0
0 0.52191 0
0.321575 0.665175 0
0 0.133122 0
0 0.49438 0
0.226573 0.609136 0
0.132508 0.0913272 0
0.22266 0.258678 0
0 0.014601 0
0.355177 0.229246 0
0.0252605 0.0914108 0
0.221208 0 0
0.222117 0.462232 0
0.10421 0.365746 0
0.193172 0 0
0.41311 0.188233 0
0.0715299 0 0
0.0804608 0 0
0.086788 0 0
0.210705 0.310646 0
0.301213 0.0415036 0
0.0417079 0.394162 0.00679209
0.182781 0 0
0.121786 0.104391 0
0.360488 0.295248 0.0345298
0.203746 0 0
0.0789895 0.138282 0
0.29495 0.0647081 0.128569
0.289104 0 0
0.188606 0 0
0 0 0
0.0525325 0.389558 0.0158481
0.262688 0 0
0.0538229 0.0106272 0
0.033972 0.387369 0.0106975
0.302001 0 0
0.0983251 0 0.0338692
0.0719572 0.0754368 0.0515769
0.420078 0 0
0.273228 0 0
0.293154 0.0606151 0.129625
0.0536157 0 0
0.0702201 0 0
0.0721003 0.137647 0
0.267796 0 0
0.0545378 0.0105448 0
0.1063 0.114802 0
0.100388 0.324806 0
0.285707 0.0330022 0
0.479702 0.40923 0
0.167544 0 0
0.173047 0 0
0 0.00435755 0.0241231
0.0501626 0.212334 0
0.488406 0.410412 0
0.169728 0 0
0.118232 0 0
0.39034 0.274506 2.2659e-05
0.0532878 0.216542 0
0.267827 0.434358 0
0.26979 0.0413886 0
0 0.226551 0
0.259259 0.42786 0
0.206336 0.293421 0
0.0812382 0.293343 0
0.20224 0.296286 0
0.0952769 0.310831 0
0 0.0376934 0
0.00931832 0.0619785 0
0.0277776 0.106364 0
0.0173302 0.0524317 0
0.369944 0.294739 0.018153
0.127852 0 0
0 0.155754 0
0.127869 0.142578 0
0.266956 0.501124 0
0 0.263969 0
0 0 0
0.309615 0.386951 0
0 0 0
0.213491 0.0308321 0
0.666301 0.424771 0
0.413601 0.419619 0
0.479814 0.176155 0
0.474503 0.171323 0
0 0.0537945 0
0.192121 0.163065 0
0.202039 0.166368 0
0.609669 0.0780361 0
0.505782 0.308664 0
0.132737 0 0
0.00687638 0.156325 0
0.131329 0.143374 0
0.132158 0.143808 0
0 0.0469178 0
0.212798 0.159984 0
0.615981 0.072098 0
0.178691 0.12727 0
0.00145217 0.157265 0
0.259948 0.512279 0
0.121763 0.262157 0
0.238146 0.144194 0
0.236919 0.141096 0
0.031289 0.202471 0.128934
0.463848 0.182657 0
0.136134 0 0
0.139479 0.51416 0
0.122409 0.25956 0
0.231829 0.150443 0
0.228173 0.148253 0
0.225686 0.14678 0
0.222505 0.143813 0
0 0 0
0.124959 0.137815 0
0.647724 0.412805 0
0.390775 0.402101 0
0.440557 0.171881 0
0.42799 0.17319 0
0.414761 0.173829 0
0.0662221 0.248878 0
0.165091 0.041517 0
0 0.0732588 0
0.612406 0.0539821 0
0.190519 0.0988157 0
0.00753879 0.155556 0
0.120004 0.142251 0
0.115726 0.141992 0
0.111751 0.142132 0
0.141215 0.0619204 0
0.310361 0.263839 0
0.116552 0.0109239 0
0.160693 0.093949 0
0.129877 0.496216 0
0.110238 0.243926 0
0.220121 0.134936 0
0.216868 0.135459 0
0.211865 0.136189 0
0.0901133 0 0
0.199038 0.0458777 0
0 0.0466134 0
0.110514 0.484153 0
0.0896959 0.246131 0
0.204471 0.136318 0
0.21037 0.135687 0
0.21223 0.133837 0
0.210214 0.133279 0
0.204027 0.13319 0
0.194054 0.136554 0
0 0.298266 0
0.0673985 0.242653 0
0.176405 0.147658 0
0.187378 0.143363 0
0.198094 0.138069 0
0.204133 0.134281 0
0.206693 0.131655 0
0.203871 0.131058 0
0.195887 0.132196 0
0 0.0919655 0
0.146636 0.154611 0
0.158015 0.153752 0
0.170804 0.149322 0
0.183746 0.143054 0
0.193899 0.137197 0
0.200009 0.133168 0
0.198804 0.132509 0
0.195136 0.13046 0
0 0.0819967 0
0.139723 0.155898 0
0.148955 0.154381 0
0.158491 0.151679 0
0.168899 0.147381 0
0.179122 0.143268 0
0.185852 0.137021 0
0.190327 0.134915 0
0.549941 0.0533065 0
0 0.182819 0.0697912
0.305108 0.172444 0
0.309164 0.174735 0
0.318864 0.174968 0
0.3355 0.172387 0
0.353338 0.171295 0
0.371288 0.168243 0
0.388411 0.169205 0
0 0.0261244 0
0 0 0
0.0632044 0.133779 0
0.169463 0.0892115 0
0.196736 0.215343 0
0.136488 0.0718398 0
0.142032 0.0697392 0
0.153769 0.0686349 0
0.166549 0.0652923 0
0.220311 0.31522 0
0 0.146552 0
0.229558 0.069691 0
0.159122 0.0217396 0
0.128205 0.25906 0
0.10471 0 0
0.266544 0 0
0.348435 0.277987 0.00197311
0.0604038 0.261086 0
0.163391 0.0434355 0
0.0820521 0 0
0.257957 0 0
0.357751 0.272741 0.0058784
0.432771 0.165432 0
0.423236 0.16029 0
0.134029 0 0
0.443824 0.36706 0
0.321065 0.358685 0
0.0915221 0.0279275 0
0.302935 0.0732372 0
0.0781407 0.254493 0
0.183763 0.0222921 0
0.0996725 0 0
0.215702 0.038824 0
0.140667 0.0561534 0
0 0.357573 0.0100168
0.159446 0.0464005 0
0.0803454 0 0
0.215145 0.0335461 0
0.111169 0.139461 0
0.113412 0.139287 0
0.573934 0.367229 0
0.0723431 0.204327 0
0.327842 0.0764872 0
0.424431 0.552547 0
7.52356e-05 0.116759 0
0.16894 0.0508093 0
0.363351 0.274028 0.00424764
0.0678663 0.249519 0
0.169966 0.0302374 0
0.0883776 0 0
0.244071 0 0
0.330467 0.274945 0.000386875
0.40423 0.174737 0
0.407726 0.172341 0
0.407631 0.167903 0
0.409565 0.162314 0
0.124959 0 0
0.459196 0.371314 0
0.062075 0.208994 0
0.33195 0.0784732 0
0.432535 0.56562 0
0.103918 0 0
0.232574 0.0293127 0
0.156921 0.0535931 0
0 0.344513 0.00736974
0.167375 0.036198 0
0.0866213 0 0
0.204784 0.0364887 0
0.0988189 0.136981 0
0.0956951 0.137061 0
0.0928418 0.136043 0
0.0920721 0.137144 0
0.560541 0.370514 0
0.0595077 0.203745 0
0.458772 0.368991 0
0.0650409 0.213793 0
0.334347 0.0735355 0
0.220848 0.141834 0
0.220056 0.137802 0
0.0929001 0 0
0.250487 0 0
0.322069 0.260019 0
0.0617981 0.2371 0
0.476694 0 0
0.0931125 0.336253 0
0.47235 0 0
0.420998 0.268185 0
0.38481 0.173555 0
0.105107 0.0117674 0
0.469793 0.384521 0
0 0.233589 0
0.365452 0.600544 0
0.0141532 0.107992 0
0.208474 0.143638 0
0.205335 0.13958 0
0.203148 0.138059 0
0.079437 0 0
0.195745 0.0372467 0
0.123558 0.0602263 0
0.0394066 0.102564 0
0.0185953 0.0735972 0
0.0334722 0.105239 0
0 0.147787 0
0.0714078 0.134658 0
0.564381 0.370473 0
0 0.239639 0
0.0752238 0.441127 0
0.0523177 0.0971542 0
0.405469 0.560919 0
0.0568689 0.238605 0
0.148593 0.04519 0
0.185551 0.140532 0
0.180232 0.138168 0
0.175208 0.136723 0
0.0589888 0 0
0.27472 0.334011 0
0 0 0
0.632495 0.264713 0
0.335719 0.377656 0
0.39023 0.185808 0
0.100663 0.0156822 0
0.180081 0.22401 0
0.0874278 0.291744 0
0.213954 0.287665 0
0.12502 0.0668347 0
0.287713 0.253394 0
0.0395036 0.234418 0
0.442645 0 0
0.0647291 0.333808 0
0.461923 0 0
0.416664 0.272149 0
0.385433 0.177243 0
0.100388 0.0143438 0
0 0.149176 0
0.467386 0.0533884 0
0.483158 0.616237 0
0 0 0
0.0994905 0.299707 0
0.0759068 0 0
0.173312 0.049758 0
0.104498 0.0658458 0
0.0280161 0.107295 0
0.00238994 0.068964 0
0.0220291 0.106125 0
0 0.145385 0
0.0742582 0.134504 0
0.595105 0.372777 0
0.369767 0.397813 0
0.112642 0.00689496 0
0.000677221 0.152067 0
0.301285 0.359925 0
0.184956 0.136715 0
0.171238 0.140069 0
0.0555284 0 0
0.259809 0.336837 0
0 0 0
0.271285 0.35624 0
0.459711 0.164559 0
0.463519 0.299976 0
0.107358 0.00578791 0
0.000387899 0.151899 0
0.39241 0.42853 0
0.294971 0.35327 0
0.290155 0 0
0.537812 0.0591825 0
0.0737723 0.350457 0
0.47916 0 0
0.423403 0.28597 0
0.383265 0.188233 0
0.394257 0.190079 0
0.0972672 0.0115269 0
0 0.149578 0
0.386727 0.42958 0
0.297522 0.35676 0
0.242834 0 0
0.163491 0.109638 0
0.0191728 0.0680042 0
0.0332215 0.108782 0
0 0.151852 0
0.0863017 0.136077 0
0.236771 0.0830041 0
0.408302 0.586226 0
0.204558 0.175826 0
0.232794 0 0
0.289691 0.566226 0
0.0814387 0 0
0.420342 0.276603 0
0.204436 0.165135 0
0.303546 0.0678814 0
0.223815 0.000775348 0
0.311421 0.255563 0
0.420138 0.506257 0
0.314601 0.284935 0
0.439897 0.182118 0
0.453996 0.185444 0
0.131051 0 0
0 0.156584 0
0.12164 0.14288 0
0.522768 0.0574346 0
0.397533 0.29913 0
0.457172 0.499191 0
0.0294452 0.105662 0
0.369352 0.0732384 0
0.486544 0.602255 0
0 0.133114 0
0.22211 0.531172 0
0 0.147016 0
0.426119 0.0542746 0
0.349301 0.266455 0
0.322049 0.164494 0
0.336804 0.168051 0
0.485408 0.537354 0
0.357689 0.296053 0
0.473221 0.179691 0
0.148421 0 0
0.00770812 0.161287 0
0.510773 0.061143 0
0.508806 0.618323 0
0.022152 0.106644 0
0.143714 0.0940383 0
0.337687 0.521101 0
0.280404 0.274985 0
0.0925452 0.022145 0
0.346835 0.0685619 0
0.362538 0.269622 0
0.333476 0.167755 0
0.350331 0.171838 0
0.3618 0.175429 0
0.363622 0.176719 0
0.498102 0.53548 0
0.355985 0.287148 0
0.144004 0 0
0.158505 0.0998845 0
0.435135 0.596674 0
0.130343 0.0969075 0
0.331016 0.269377 0
0.406032 0.482973 0
0.00375 0.113642 0
0 0.146132 0
0.0845872 0.133461 0
0.270113 0.0734609 0
0.159524 0.327688 0
0.201467 0 0
0.34338 0.270281 0
0.24409 0.052827 0
0.368852 0.402827 0
0.142297 0.0923108 0
0.13076 0.10155 0
0.265547 0.241347 0
0.311397 0.393684 0
0.19795 0.185859 0
0.319137 0.0813276 0
0.245714 0 0
0.0799982 0 0
0.120875 0.0960734 0
0.217632 0.160267 0
0 0 0
0 0.0442908 0
0 0.10358 0
0 0 0
0 0.0881125 0
0 0.0107053 0
0.0539404 0.0436247 0
0 0 0
0.079435 0.0506015 0
0.0976495 0.0520374 0
0.0906252 0.149351 0
0 0 0
0 0 0
0 0 0.0710447
0 0 0
0 0.0866491 0
0 0.0181739 0
0 0.0528247 0.134138
0 0 0
0 0.0864333 0
0 0.0172412 0
0 0.0522032 0.138378
0 0 0
0.00860725 0.144098 0
0 0.106793 0
0 0 0
0 0.0530087 0.13868
0 0 0
0 0.088777 0
0 0 0
0.00861929 0 0.123549
0 0 0
0 0.173567 0
0 0.0441482 0
0 0 0
0 0.174443 0
0 0.043445 0
0 0 0
0 0.057217 0.11745
0 0.202638 0
0 0 0
0 0.0142639 0.18933
0 0 0
0 0.0595183 0
0 0 0
0.04224 0.0329953 0
0 0 0
0 0 0
0 0 0
0.0511702 0.084432 0
0 0 0
0 0.00444338 0
0.12405 0.0745691 0
0 0 0
0 0.0151127 0
0 0.0775091 0
0 0 0
0 0.00889237 0.199159
0 0 0
0 0.0562905 0
0 0 0
0 0 0
0 0 0
0.0522462 0 0.101563
0 0 0.0334588
0 0 0
0 0.00986582 0
0.137923 0.0744833 0
0 0 0
0 0 0
0 0 0
0.134551 0.0326279 0.0385981
0 0 0
0.170617 0 0
0 0 0
0.0463663 0 0.107215
0 0 0
0 0.0479863 0.0247076
0 0 0
0 0 0.0199038
0 0 0.00861539
0.162349 0 0
0 0 0.107104
0 0 0.157506
0 0 0
0 0 0.0596611
0 0 0.319943
0 0 0
0 0 0
0.0270872 0.0396535 0.270403
0 0 0.0032274
0.142847 0.03646 0.111651
0 0 0
0.183174 0 0.125566
0 0 0
0 0 0.0277574
0 0 0.000939576
0.0914426 0 0
0 0 0
0 0 0.0396758
0.145708 0 0
0 0 0
0 0 0
0.238289 0 0
0 0 0.00751689
0.236866 0 0.00748014
0 0 0.00889677
0.156732 0.0339823 0.122948
0 0 0
0.124083 0 0.329728
0 0 0.05926
0 0 0
0.0215373 0 0.211762
0 0 0
0 0 0.0679184
0 0 0.232567
0 0 0.000228655
0 0 0.151044
0.00140124 0 0.253226
0 0 0.00901508
0.125805 0 0.052958
0 0.13319 0
0.225768 0.176181 0.167184
0 0 0
0.102918 0 0.125381
0 0 0.0180826
0 0 4.04032e-05
0.0993043 0 0.0398217
0 0 0.0964399
0.0161813 0 0.0413419
0.10051 0 0.0438717
0 0 0.100667
0.0156933 0 0.0439472
0 0 0
0.0304244 0.170323 0.0287732
0.102201 0.0704101 0
0.132469 0.115049 0
0 0 0.191281
0 0.131371 0.144056
0 0 0.134195
0 0.241528 0.0162029
0 0 0.146635
0 0 0
0.0814178 0 0.057779
0.0355796 0.297942 0.121858
0 0 0.152355
0 0 0
0 0 0.00324624
0.14925 0.263154 0.0599721
0.0518863 0 0.129971
0.173434 0.0834319 0
0.0850416 0 0
0 0.187804 0.174843
0 0.17901 0
0 0.135554 0.0773785
0.148167 0.18248 0
0 0.016006 0
0.0511785 0.0440879 0
0 0 0
0.101961 0.159423 0
0 0.00800414 0
0 0.201425 0
0 0 0
0 0.117866 0
0 0 0
0 0.0626331 0
0 0 0
0.123119 0.1094 0
0.0530991 0.011814 0
0 0.0340364 0
0 0.208256 0
0 0 0
0 0.122162 0
0 0 0
0 0.0642004 0
0 0 0
0 0.0662705 0
0 0 0
0.0199308 0 0.116182
0 0.123756 0
0 0 0
0.126544 0.112355 0
0 0.00234982 0
0 0.112758 0
0 0 0
0 0 0
0 0 0
0 0.0614331 0
0 0 0
0 0.0624148 0
0 0 0
0.0290544 0.125907 0
0 0.023164 0
0 0 0
0 0 0.0186168
0 0 0
0 0 0
0.0604534 0 0
0 0 0
0 0 0.0465728
0 0 0
0 0 0
0.150217 0 0
0 0 0
0 0 0
0 0 0.0267103
0 0 0
0 0 0
0 0 0
0 0 0.00164903
0 0 0
0 0 0
0 0 0
0 0 0
0.190206 0 0
0 0 0
0 0 0
0 0 0
0 0.0420344 0.00918604
0.200326 0.0725974 0.0392502
0 0 0
0 0 0
0 0 0
0 0 0.00107203
0.0084104 0 0
0 0 0
0.000446907 0 0
0 0 0
0.229406 0 0
0 0 0
0 0 0
0 0 0.0247201
0 0 0
0 0 0
0 0 0
0 0 0
0 0 0
0 0 0.000632611
0.0669504 0 0
0.0158773 0 0
0 0 0.142484
0 0 0
0 0 0.158025
0 0 0.0799429
0 0 0.080534
0 0 0
0 0 0.189679
0 0 0
0 0 0.22025
0.0352488 0 0
0 0 0.299218
0 0 0
0 0 0
0 0 0.0698555
0 0 0
0 0 0.00105308
0 0 0
0 0 0
0 0 0
0 0 0
0.0215654 0 0.0388297
0 0 0
0 0 0.0258286
0 0 0
0.0557024 0.220191 0.0460808
0.122269 0 0.059337
0 0 0
0 0 0.233706
0.126829 0 0
0 0 0.218694
0.0746744 0 0
0 0.0178735 0
0 0 0.0284155
0 0.214052 0.0128742
0.0726352 0 0
0 0 0.188979
0 0 0
0 0 0.278761
0.00714248 0 0
0 0 0.210139
0.113556 0 0
0 0 0.275346
0 0 0
0 0 0
0 0 0
0 0 0
0 0 0
0 0 0
0.0420994 0 0
0.0674496 0.0365411 0
0.0356751 0 0.0216959
0.381119 0.252806 0
0.101695 0 0
0.199851 0 0.0188875
0.136072 0 0
0.112498 0 0.400112
0.237163 0 0
0.166573 0 0.154847
0 0 0
0 0 0.296325
0.00855176 0 0
0.0475917 0 0.191793
0.144184 0 0
0 0 0.245513
0.133083 0 0
0 0 0.225952
0.204446 0 0
0 0 0.303607
0.214591 0 0
0 0 0.166718
0 0 0
0 0 0.249079
0 0 0
0 0 0.247172
0.0283967 0 0
0 0 0.165283
0.123837 0 0
0 0 0
0 0 0.131728
0.0669201 0 0.106335
0.211694 0.174953 0.116796
0.0552442 0 0
0 0 0.0120418
0.0715975 0 0.112869
0.218653 0.182586 0.122116
0 0 0
0.188244 0 0
0 0 0
0 0 0
0.0788425 0 0
0 0 0.288343
0.221336 0.127099 0
0.0669557 0 0.21316
0.187517 0.168491 0
0 0 0.0849106
0 0.0929997 0
0 0 0
0 0 0.136703
0.124294 0.189406 0.0909479
0 0 0
0.063178 0 0.0505615
0.225546 0.139398 0
0.0517837 0 0.0264731
0 0 0.187724
0 0 0.187719
0 0 0
0 0 0.340104
0.0592203 0.0563637 0.0914893
0 0 0.0653748
0 0.237867 0.00821875
0 0 0
0.11466 0 0
0.0886637 0 0.0432477
0 0 0.0982962
0.00953163 0 0.0405467
0.128361 0.0288276 0
0 0 0.096119
0 0 0.190717
0.0185039 0 0.015701
0 0.116928 0
0.0798369 0 0
0.216452 0.114803 0.0182478
0.282699 0.0508245 0
0 0 0.0317154
0 0 0.0162352
0.126273 0.109239 0
0.0759648 0 0
0.148234 0 0.0151164
0.0493927 0 0.028444
0 0.174432 0.0525846
0 0.114552 0
0.103003 0.0714758 0
0 0 0.000274541
0.181715 0 0.0195928
0.088605 0 0
0 0.11266 0
0.0792016 0 0
0.216656 0.111189 0.0171037
0.279206 0.05144 0
0 0 0
0 0 0
0 0.119022 0
0.0680017 0 0
0.230475 0 0.00368274
0.0778261 0 0
0 0.112376 0
0 0.0653043 0
0.188092 0.176575 0
0.0773709 0 0
0.252466 0 0.00412452
0.0902871 0 0
0 0.113437 0
0.0794555 0 0
0.21858 0.11007 0.0133478
0.279344 0.0522533 0
0 0 0
0 0 0
0 0.117115 0
0.0655211 0 0
0.230343 0 0.00410747
0.0788373 0 0
0 0.113156 0
0 0.0629145 0
0.192061 0.175831 0
0.0798585 0 0
0.254429 0 0.00152224
0.0904184 0 0
0 0.109761 0
0.0817935 0 0
0.219168 0.111827 0.0137308
0.275817 0.050085 0
0 0.0403494 0
0 0 0
0.0490346 0.195349 0
0 0 0
0.233083 0.0832355 0
0.103949 0 0
0.0571013 0.198836 0
0 0 0
0.322321 0.126646 0
0 0 0
0.255546 0.0763499 0
0.118282 0 0
0.0602513 0.196687 0
0 0 0
0.373331 0.193992 0
0.194782 0 0
0 0 0.074872
0.162955 0.0388899 0
0.0898824 0 0
0.296407 0 0
0.212494 0 0
0 0 0.152157
0.281505 0 0
0.0770622 0.0888084 0.225687
0.159816 0.129307 0
0 0 0
0.210003 0.199833 0.117681
0.253749 0 0
0.0263196 0.0956023 0.153398
0.216967 0 0
0 0 0.222514
0.21261 0 0
0 0 0.220465
0.206905 0 0
0 0.041842 0.229074
0.335032 0 0
0.0927183 0 0
0 0 0.217044
0.118503 0 0
0 0 0.200444
0.182537 0 0
0 0 0.142015
0.163896 0 0
0 0.306446 0.0980827
0.118709 0 0
0.00671221 0 0
0 0 0.0904738
0.117596 0 0.0213073
0.374229 0.163417 0
0.0427275 0 0
0.0525743 0 0.150667
0.236998 0 0.00728647
0 0.155006 0.0753483
0.236434 0 0
0 0.0295068 0.113744
0.180572 0.193749 0
0.113451 0.246748 0.0450767
0.222633 0 0
0.0868782 0.238802 0.177034
0.208623 0 0
0 0 0.208529
0.200684 0 0
0.0573933 0.0327627 0.277816
0.292558 0.0489542 0
0.135801 0 0
0.0765207 0.22803 0.165559
0.19145 0 0
0 0 0.200516
0.181066 0 0
0 0.00347411 0.278143
0.24589 0 0
0 0 0
0 0 0.169736
0.0373632 0 0
0 0 0.133346
0.382221 0.16424 0
0.162792 0 0
0 0 0.132703
0.0428473 0.103559 0.0484283
0.161454 0 0
0 0 0.13556
0.260451 0 0
0 0.0436764 0.000660277
0.0572099 0 0
0 0.300826 0
0.0848043 0 0
0.154293 0 0
0 0 0.201806
0.191399 0 0
0 0 0.0776921
0.202413 0 0
0 0.292898 0
0.072265 0 0
0.142038 0 0
0 0 0.198481
0.0735275 0 0
0 0.189356 0.0274863
0.0189704 0 0
0.0597535 0 0.0307311
0 0.328223 0.0985424
0.0796054 0 0
0 0.053627 0.220975
0.283321 0.0491485 0
0.195469 0 0
0 0 0.206715
0 0 0.122473
0.0763948 0 0
0 0 0.197418
0.18643 0 0
0 0.0154011 0.276989
0.256615 0 0
0 0 0
0.00136913 0 0.137261
0.112125 0 0
0 0 0.13827
0.176156 0 0
0 0.254866 0.16091
0.113736 0 0
0 0 0.0317679
0 0 0.14533
0.00381698 0 0.0146239
0 0.0649695 0
0.149728 0 0.0493564
0.0284545 0.29567 0.123498
0.0547277 0 0.0898561
0.0926595 0 0.0710085
0.0115894 0 0
0.0779822 0 0
0 0.0534971 0.214125
0.275559 0.0502129 0
0.0350885 0 0
0 0 0.208401
0.188432 0 0
0 0 0.203419
0.110895 0 0
0 0 0.134791
0.173485 0 0
0 0.30041 0.0920186
0.128694 0 0
0.0688875 0 0
0 0 0.186166
0.0709279 0 0
0 0.14398 0.0882296
0.16434 0 0.0235936
0 0 0.0303947
0 0 0.141306
0.106059 0 0
0 0 0.138699
0.228326 0 0
0.070054 0.245939 0.18795
0.0601865 0 0
0 0 0.0134011
0.0173433 0 0.101457
0.0833324 0.237867 0.0377862
0.120399 0 0
0.0775205 0 0
0 0.0524746 0.209693
0.267147 0.0522252 0
0.075071 0 0
0 0 0.188501
0.173689 0 0
0 0 0.182454
0.170899 0 0
0 0.0192044 0.255879
0.232412 0 0
0 0 0
0 0 0.127188
0.100396 0 0
0 0 0.126762
0.212835 0 0
0.0290445 0.287883 0.110702
0.0532018 0 0
0.0977647 0 0
0.101919 0 0
0 0 0.134
0.165755 0 0
0 0.254646 0.161941
0.0659346 0 0
0 0 0.171449
0.0996385 0.0681798 0.0296966
0.171269 0 0.0352212
0 0 0.0344255
0 0 0.175774
0 0 0
0.103652 0.261647 0
0.187781 0 0
0 0 0
0 0.148328 0
0.0948556 0 0
0 0.147508 0
0.0902846 0 0
0.0922235 0.257772 0
0.167451 0 0
0 0 0
0 0.14921 0
0.0806931 0 0
0.13011 0.215326 0.047451
0.111763 0 0
0 0 0
0.119997 0.0825604 0
0.0821631 0 0
0.139065 0.219424 0.0544927
0.161207 0 0
0 0 0
0.0465318 0 0
0.0805239 0 0
0.19544 0.263494 0.0184874
0 0 0
0.167227 0 0
0.0239919 0 0
0.116082 0.28023 0
0.096664 0 0
0.197233 0.00682005 0
0.240781 0 0
0.0730973 0 0
0.0983576 0 0
0.10164 0 0
0 0.00097296 0.263211
0.149232 0 0
0.262787 0 0
0.0807764 0 0.0174681
0 0 0.0940059
0.247582 0 0
0.373633 0 0
0.118155 0 0
0 0.143029 0.18961
0.294341 0 0
0.135272 0 0
0.150607 0.302732 0
0.286451 0 0
0 0 0
0 0 0
0 0.000393567 0
0 0 0
