ply
format ascii 1.0
comment Created by Open3D
element vertex 343
property double x
property double y
property double z
end_header
0 0 0
0 0 0.0297765
0 0 0
0 0 0.0836859
0 0 0.124747
0 0 0.0303355
0 0 0.104154
0 0 0.0611151
0 0 0.133526
0 0 0.179802
0 0 0.136685
0 0 0
0 0.0599461 0.071746
0 0.137811 0.191883
0 0 0
0.0978792 0.0694193 0.0625091
0 0 0
0.157342 0.135224 0.108873
0 0.0364587 0
0 0 0.0766321
0 0 0.0940956
0 0.0470045 0.0619598
0 0.0382787 0
0 0.182857 0.197192
0 0.117067 0.199593
0 0 0.0738449
0 0.0069967 0.0667671
0 0.0941953 0.0334823
0.0033687 0 0
0 0.0412923 0.0587936
0 0 0
0 0 0
0 0.0592791 0
0.04158 0.010866 0
0 0 0
0 0.012468 0.0460724
0.0252642 0 0.134304
0 0 0.139039
0 0 0
0 0 0
0 0 0.00867604
0 0 0
0 0 0.0349143
0 0 0.135199
0 0 0
0 0 0
0 0 0.0638836
0.0339042 0 0.110574
0 0 0.0150687
0 0 0.131999
0 0 0
0.0410777 0 0
0 0 0.000752118
0 0 0.0128797
0 0 0.128009
0 0 0.0167817
0 0 0
0 0 0
0 0 0.108055
0 0 0.144318
0 0 0.0750889
0 0 0
0 0 0.0054755
0 0 0
0 0 0.0321663
0 0 0.138667
0 0 0
0 0 0.0646294
0 0 0.0362303
0 0 0.115874
0 0 0.155853
0.0424942 0 0
0 0 0.0262054
0 0 0
0 0 0.148044
0 0 0
0 0 0.010634
0 0 0.124973
0 0 0.00257248
0 0 0
0 0 0.0145625
0 0 0.130178
0 0 0.112464
0 0 0
0 0 0.116464
0 0 0.152918
0 0 0.115676
0 0 0.0186836
0 0 0.00022836
0 0 0.038586
0 0 0.116219
0 0 0.0194973
0 0 0.100264
0 0 0.0214323
0 0 0.116296
0 0 0
0 0.181357 0.481818
0 0 0.042711
0 0 0
0 0.0487766 0
0 0 0
0 0 0.150665
0 0 0
0 0 0.165155
0 0 0
0 0 0.15389
0 0 0.0321313
0 0.243745 0.267433
0 0 0.0106807
0 0 0.154438
0 0 0.104194
0 0 0
0 0 0.137194
0 0 0.0353347
0 0.18416 0.240334
0 0 0.101
0 0 0.0545329
0 0.259038 0.25557
0 0 0.0882724
0 0 0.0297121
0 0 0
0 0 0.135141
0 0 0.118606
0 0 0
0 0 0.112631
0 0 0.164132
0 0 0.0240563
0 0 0.0142299
0 0.195508 0.255509
0 0 0.0977594
0 0 0.0516269
0.0253732 0.440935 0.319272
0 0 0.156025
0 0 0.07712
0 0 0.0215146
0 0 0.0820286
0 0 0
0 0.000796108 0.234433
0 0 0.0170102
0 0 0.0277601
0 0 0
0 0.022833 0.192684
0 0 0.0813985
0 0 0.025105
0 0 0.172508
0 0 0.093981
0 0 0
0 0 0.125871
0 0 0.176102
0 0 0.102537
0 0 0
0 0 0.108601
0 0 0.188599
0 0 0.129669
0 0 0
0 0 0.0536344
0 0 0.170369
0 0 0.039138
0.0431181 0.47179 0.371828
0 0 0.191061
0 0 0.0794493
0 0 0.0401936
0.0486032 0.462473 0.363201
0 0 0.204102
0 0 0.0971904
0 0 0.120128
0 0 0.034335
0 0 0.174825
0 0 0.113049
0 0 0.0319672
0 0 0
0 0.00663024 0.23951
0 0 0.0141403
0 0 0.0347651
0 0 0
0.00307345 0 0.270776
0 0 0.127645
0 0 0.16033
0 0 0
0 0 0.0387186
0 0 0.18052
0 0 0.198465
0 0 0.208039
0 0 0.132047
0 0 0
0 0 0.260125
0 0 0.105313
0 0 0.136405
0 0 0
0.0096789 0 0.292961
0 0 0.121409
0 0 0.2499
0 0 0
0 0 0.0398905
0 0 0.184981
0 0 0.319407
0 0 0.336954
0 0 0.110352
0 0 0.138815
0 0 0
0.00368304 0 0.283875
0 0 0.121494
0 0 0.149965
0 0 0
0.107499 0.268661 0.421572
0 0 0.246301
0 0 0.0260624
0 0 0.0387575
0 0 0.290989
0 0.0614972 0.281942
0 0.0114242 0
0 0 0.164701
0 0 0.232525
0 0 0.145124
0 0 0
0.00858778 0 0.302143
0 0 0.133229
0 0 0.158022
0 0 0.0475283
0 0 0
0 0 0.171087
0 0 0
0 0 0.0169296
0 0 0.095565
0 0 0.01733
0 0 0.11407
0 0 0.0125999
0 0 0.0896625
0 0 0.09248
0 0 0.181851
0 0 0.00925967
0 0 0.0840367
0 0 0
0 0.018299 0.054043
0 0.00931801 0.0734289
0 0.00299326 0.145198
0 0 0
0 0 0
0 0.0169837 0
0 0 0
0 0 0.159569
0 0 0.158023
0 0.000545833 0
0 0 0
0 0 0
0 0.133759 0
0 0 0.129413
0 0.0737195 0.241368
0 0 0
0 0 0.0300017
0 0.247983 0.324124
0 0 0.125959
0 0 0.240722
0 0 0.150448
0 0 0
0.010202 0 0.309832
0 0 0.13824
0 0 0.251907
0 0 0.0781369
0 0.26573 0.312447
0 0 0.0210065
0 0 0
0 0 0
0 0 0.179352
0 0 0.128846
0 0 0
0 0 0.17327
0 0 0.239177
0 0 0.242563
0 0 0.152249
0 0 0
0.00824051 0 0.307591
0 0 0.136504
0 0 0.154371
0 0 0
0 0 0.274888
0 0 0
0.0658519 0 0.0264014
0 0 0.154653
0 0 0.21663
0 0 0.210803
0 0 0
0 0 0.203393
0 0 0.232372
0 0 0.234941
0 0 0.240192
0 0 0.149119
0 0 0
0 0 0.18106
0 0 0.240034
0 0 0.148307
0 0 0
0 0 0
0 0 0.125648
0.065182 0 0.0789114
0 0 0.0489563
0 0 0.198423
0 0 0.0541235
0.049858 0.496058 0.407984
0 0 0.228558
0 0 0.125783
0 0 0.227659
0 0 0.230468
0 0 0.0680679
0 0.247232 0.323131
0 0 0.131694
0 0 0.231356
0 0 0
0 0 0.0928252
0 0 0
0 0 0
0 0 0.147883
0 0 0.185164
0 0 0.117181
0 0 0
0 0.12799 0
0 0 0.248443
0 0 0.211324
0 0 0.216884
0 0 0.13267
0 0 0
0 0 0.170936
0 0 0.230304
0 0 0
0 0 0.197537
0.0269571 0 0
0 0 0
0 0 0.131258
0 0 0.148174
0 0 0.164408
0.0111152 0 0.104115
0.119184 0.209919 0.0928684
0 0.0411246 0.199236
0 0 0.169861
0 0 0.174383
0 0 0.179011
0 0 0.0270256
0 0.236005 0.259301
0 0 0.195539
0 0 0.037203
0 0.23463 0.267704
0 0 0
0 0 0.102837
