ply
format ascii 1.0
comment Created by Open3D
element vertex 537
property double x
property double y
property double z
end_header
0 0 0.00146688
0 0 0.021177
0 0 0.000876678
0 0 0.0211044
0 0 0.0943553
0 0.134254 0.22719
0 0.0695464 0.22505
0 0 0.00259513
0 0 0.0943074
0 0.1346 0.228496
0 0.071911 0.226326
0.021227 0.0837742 0.120843
0 0 0
0 0 0
0 0 0.00421353
0 0 0.0995119
0 0.136378 0.237551
0.0224481 0.0845532 0.121846
0 0 0
0 0 0
0 0 0.0618502
0 0 0.131684
0 0 0.244355
0 0.0466957 0.0841299
0 0.136876 0.244459
0.0252761 0.0839427 0.12751
0 0 0
0 0 0.0641767
0 0 0.225856
0 0.054655 0.337691
0 0.0698858 0.256875
0 0.0690549 0.258325
0.0333402 0.082368 0.141672
0 0.0447241 0.0899279
0 0.152891 0.142358
0 0 0
0 0 0.0677515
0 0 0.234313
0 0.0511575 0.349971
0.0337856 0.0818879 0.143773
0 0 0
0 0 0.00625282
0 0 0.00654298
0 0 0.0777613
0 0 0
0 0 0.0218494
0 0 0.0584899
0 0 0
0 0 0.145163
0 0 0.266077
0 0.0633425 0.24134
0 0 0
0 0 0.0780446
0 0 0.156828
0 0 0.180649
0 0 0.184645
0 0 0.186584
0 0 0.0661418
0 0 0.269388
0 0 0.244806
0 0 0.00300322
0 0 0.177598
0 0 0.153401
0 0 0
0 0 0.162723
0 0 0.186551
0 0 0.191242
0 0 0.19292
0 0 0.195557
0 0 0.199972
0 0 0.0492158
0 0 0.0664071
0 0 0.0517506
0 0 0.0989482
0.04457 0 0.198592
0 0 0.188688
0 0 0.0570293
0 0 0.187711
0 0 0.231206
0 0 0.198231
0 0 0.201592
0 0 0.205128
0 0 0.207902
0 0 0.211302
0 0 0.138479
0 0 0.193716
0 0 0.0315326
0 0 0.0691131
0 0 0.20047
0 0 0.202782
0 0 0
0 0.0154358 0
0 0 0.113851
0 0 0.114613
0 0 0.11592
0 0 0.119886
0.000326294 0 0.121847
0 0 0.00148584
0 0 0.0182792
0 0 0.0162085
0 0 0.0146911
0 0 0.0118824
0 0 0.00948311
0 0 0
0 0 0.0113568
0 0 0.146297
0 0.0466437 0.295019
0 0.0589984 0.215144
0 0.0600117 0.208962
0 0 0.125995
0 0 0.0484046
0 0 0.123228
0 0 0.0723627
0 0 0.00590047
0 0 0.00564463
0 0 0.00490661
0 0 0
0 0.0679829 0.227488
0.0183897 0.0776122 0.120764
0 0 0
0 0 0
0 0 0
0 0 0
0.0256036 0.204733 0.222732
0 0.0651044 0.194452
0 0.069065 0.185937
0 0.0702546 0.181347
0 0 0.106765
0 0 0.0381428
0 0 0.111237
0 0 0.0665057
0 0 0.00748794
0 0 0
0 0 0
0 0 0.0600983
0 0 0.126655
0 0 0.142874
0 0 0.139332
0 0 0.077883
0 0 0.0141168
0 0 0
0 0 0
0 0 0
0 0 0
0.021678 0.207918 0.203089
0 0.0772434 0.183715
0 0.0777853 0.18415
0 0 0.109639
0 0 0.0492
0 0.0511089 0.332427
0 0.0660098 0.247304
0 0.0658163 0.245273
0 0.0649243 0.242242
0 0.0647021 0.235806
0 0.0659031 0.230074
0 0.0695578 0.223306
0 0 0.135232
0 0 0.0509525
0 0 0.127388
0 0 0.069406
0 0 0.0108261
0 0 0
0 0 0
0 0 0
0.0264754 0.214677 0.215167
0 0 0
0 0 0.00533756
0 0 0.0050865
0 0 0.00490632
0 0 0.00359777
0 0 0.0049814
0 0 0.00272849
0 0 0
0.0415876 0.227413 0.255138
0 0.072443 0.225988
0 0.0739444 0.221232
0 0 0.133775
0 0 0.0506793
0 0 0.129233
0 0 0.0736037
0 0 0.0139201
0 0 0.153621
0 0 0.175928
0 0 0.175405
0 0 0.173567
0 0 0.170734
0 0 0.16718
0 0 0.163775
0 0 0.0965337
0 0 0.0249658
0 0 0.00444774
0 0 0.0031471
0 0 0
0.0442661 0.231821 0.261712
0 0.0735083 0.233863
0 0.0739648 0.23274
0 0.0742904 0.231989
0 0 0.187696
0 0 0.188976
0 0 0.190271
0 0 0.188177
0 0 0.186363
0 0 0.181709
0 0 0.179577
0 0 0.176012
0 0 0.171885
0 0 0.169878
0 0 0.166587
0 0 0.0984975
0 0 0.0260923
0 0 0.00514388
0 0 0.00601741
0 0 0.00497314
0 0 0.199779
0 0 0.201067
0 0 0.201831
0 0 0.200725
0 0 0.200322
0 0 0.196471
0 0 0.193881
0 0 0.190426
0 0 0.188165
0 0 0.185047
0 0 0.181765
0 0 0.179354
0 0 0.176943
0 0 0.175223
0 0 0.171917
0 0 0.171332
0 0 0.210435
0 0 0.211762
0 0 0.214697
0 0 0.214552
0 0 0.214684
0 0 0.211142
0 0 0.20847
0 0 0.205879
0 0 0.202723
0 0 0.200586
0 0 0.198865
0 0 0.195709
0 0 0.193572
0 0 0.192006
0 0 0.189341
0 0 0.186953
0 0 0.123097
0 0 0.125555
0 0 0.128022
0 0 0.125912
0 0 0.126344
0 0 0.123796
0 0 0.123851
0 0 0.121873
0 0 0.120629
0 0 0.11798
0 0 0.117836
0 0 0.114759
0 0 0.113942
0 0 0.112781
0 0 0.111869
0 0 0.111121
0 0 0.0729093
0 0 0.0117141
0 0 0.0104515
0 0 0.0123152
0 0 0
0 0.0797153 0.194975
0 0.0785855 0.197136
0 0.0758537 0.195317
0 0.0756784 0.195325
0 0 0.203364
0 0 0.0784076
0 0 0
0 0 0.0110895
0 0 0.0101076
0 0 0.00912577
0 0 0.00814387
0 0 0.00716199
0 0 0
0 0 0
0 0 0
0 0 0
0 0 0
0 0 0
0 0 0
0.0274907 0.211208 0.220354
0 0.0714962 0.197504
0 0.0717143 0.19247
0 0.0710366 0.188757
0 0.0711363 0.185921
0 0.0717899 0.182478
0 0 0.0510712
0 0 0.141083
0 0 0.05598
0 0 0.137844
0 0 0.137018
0 0 0.133879
0 0 0.0762897
0 0 0.0132865
0 0 0
0 0 0
0 0 0
0 0 0
0 0 0
0 0.0468959 0
0 0 0
0 0 0
0.0505249 0.237917 0.273473
0 0.0735261 0.244129
0 0.0717424 0.242132
0 0.0706292 0.238197
0 0 0.146958
0 0 0.0563432
0 0 0.13889
0 0 0.135492
0 0 0.132273
0 0 0.128282
0 0 0.126444
0 0 0.0161243
0 0.120715 0.171351
0 0 0
0 0 0.102619
0 0 0.0279551
0 0 0.00641635
0 0 0.0049176
0 0 0.00481435
0 0 0
0.0497374 0.234718 0.275897
0 0.069549 0.24575
0 0.0719688 0.238828
0 0.0715105 0.23552
0 0.0732819 0.230959
0 0.0762544 0.226899
0 0 0.0804915
0 0 0
0 0 0.00787621
0 0 0.18525
0 0 0.182865
0 0 0.180858
0 0 0.177567
0 0 0.173595
0 0 0.103581
0 0 0.0284829
0 0 0.00673029
0 0 0.00545687
0 0 0.00455199
0 0 0.00469588
0 0 0.0039528
0 0 0
0 0 0
0 0 0.119541
0 0 0
0 0 0.10769
0 0 0.108662
0 0 0.104501
0 0 0.103844
0 0 0.0995464
0 0 0.100165
0 0 0.0976423
0 0 0.0945438
0 0 0.093074
0 0 0.0899019
0 0 0.0858553
0 0 0.0846937
0 0 0
0 0 0.0907994
0.0323 0.431172 0.321032
0 0 0.028702
0 0.0265708 0.0591117
0 0 0.251192
0 0 0.0327398
0 0.0732434 0
0 0 0.114599
0 0 0.40635
0 0 0.252719
0 0 0.0689986
0 0 0.0996089
0 0 0.101612
0 0 0.101906
0 0 0.102354
0 0 0.100355
0 0 0.165715
0.0447872 0 0.0422583
0.0171119 0 0.0735802
0 0 0.00254734
0 0.0268282 0
0.0012641 0 0.126218
0.00020047 0 0.128195
0.0014881 0 0.13125
0.00166322 0 0.132424
0.0016622 0 0.134794
0.00186169 0 0.135148
0.0756158 0 0.0216686
0.0221143 0 0.0792248
0.0226903 0 0.079411
0.0222949 0 0.0805303
0.0236616 0 0.07986
0.0235158 0 0.0793975
0.0238812 0 0.0773132
0 0 0.0993188
0 0 0.0999254
0 0 0.101045
0 0 0.101834
0 0 0.101657
0 0 0.0991036
0 0 0.099666
0 0 0.099206
0 0 0.0972418
0 0 0.0976413
0 0 0.0969277
0 0 0.0959622
0 0 0.0950893
0 0 0.0942775
0 0 0.0937097
0 0 0.0917065
0 0 0.136425
0.000268487 0 0.13664
0 0 0.136938
0 0 0.136429
0 0 0.132416
0 0 0.131821
0 0 0.131354
0 0 0.130474
0 0 0.127942
0 0 0.12702
0 0 0.128972
0 0 0.127461
0 0 0.414913
0 0 0.255839
0 0 0.21899
0 0 0.217014
0.023533 0 0.0763809
0.0253026 0 0.0744559
0.0237417 0 0.0750468
0 0 0.151703
0 0 0.0666153
0 0 0.101159
0 0 0.10183
0 0 0.100718
0 0 0.102254
0 0 0.101419
0 0 0.10169
0 0 0.100144
0 0 0
0 0 0
0 0 0.127768
0 0 0.126498
0 0 0.177819
0 0 0.20125
0 0 0.20125
0 0 0.20125
0 0 0.201945
0 0 0.202398
0 0 0.203591
0 0 0.202039
0 0 0.200474
0.0532926 0 0.0420361
0.0203916 0 0.0736898
0.0198156 0 0.0735036
0 0 0.0915671
0 0 0.0892092
0 0 0.0899138
0 0 0.0866382
0 0 0.087091
0 0 0.0852307
0 0 0.083979
0 0 0.0818032
0 0 0.0808188
0 0 0.0804156
0 0 0.0799278
0 0 0.0775773
0 0 0.0780948
0 0 0.134252
0 0 0.0290321
0 0.0431839 0
0 0 0.213882
0 0 0.213292
0 0 0.210995
0 0 0.20928
0 0 0.20631
0 0 0.20485
0 0 0.202702
0 0 0.200129
0 0 0.197837
0 0 0.19649
0 0 0.193203
0 0 0.192637
0 0 0.191887
0 0 0.191521
0 0 0
0 0 0.211138
0 0 0.126125
0 0 0.124321
0 0 0.121116
0 0 0.122461
0 0 0.120254
0 0 0.118472
0 0 0.115876
0 0 0.115409
0 0 0.114679
0 0 0.111289
0 0 0.397479
0 0 0.241233
0 0 0
0 0.0405105 0.0714242
0.112901 0 0.034588
0 0.109838 0
0.0203903 0 0.0715394
0 0 0.149226
0 0 0.0660088
0 0 0.0991168
0 0 0.098425
0 0 0.0989226
0 0 0.0986663
0 0 0.0985917
0 0 0.0984443
0 0 0.0985443
0 0 0
0 0.00777805 0
0.119745 0 0.0418597
0 0 0.136648
0 0 0.019714
0 0 0.165199
0 0 0.176059
0 0 0.19997
0 0 0.199263
0 0 0.198392
0 0 0.199237
0 0 0.198982
0 0 0.2
0 0 0.199595
0 0 0.199542
0.0509239 0 0.0443709
0.0350365 0 0.0769782
0 0.00979175 0.233117
0 0 0.0935534
0 0.200493 0.10425
