ply
format ascii 1.0
comment Created by Open3D
element vertex 1551
property double x
property double y
property double z
end_header
0 0.00760628 0
0 0 0
0.025507 0.225917 0
0.101722 0.146718 0
0.0495746 0.0853484 0
0 0.0264901 0
0 0.0254932 0
0.0654964 0.0718702 0
0 0.0314225 0
0.0819018 0.0708034 0
0.0680607 0.0269886 0
0.155872 0.00365805 0
0.11611 0.42756 0
0.236583 0.112221 0
0.299655 0.26413 0
0.15816 0.16667 0
0 0.171961 0
0 0 0
0 0.0426988 0
0 0 0
0 0 0
0 0 0
0 0.13576 0
0 0.0573127 0.160232
0 0 0
0 0.0201073 0
0.0557409 0 0.0393405
0 0.0613907 0
0.051323 0 0
0 0.106481 0.133346
0 0.0509867 0
0.00628816 0.251254 0
0 0.145092 0.267164
0.225716 0.227943 0
0.0252625 0.0873245 0.00698343
0 0.0108091 0
0 0 0
0 0 0.14842
0 0 0
0 0.275733 0
0 0.0335962 0
0.0844064 0 0
0.0289293 0.408159 0.184598
0.193635 0.0286616 0
0 0 0
0.19792 0.0454687 0
0 0 0
0.0700184 0.0164076 0
0 0.147708 0
0.0247839 0.0544922 0
0.155562 0 0
0 0.0980528 0
0.0720594 0.103136 0
0 0.0485259 0
0 0.0574435 0.0136766
0.0861615 0 0
0 0.301015 0.0509901
0.191728 0.136637 0
0 0.169894 0.226539
0.0981427 0.226805 0
0 0 0.0375529
0.162968 0.127924 0
0.0964855 0 0
0 0 0
0 0 0.0410025
0.03493 0.154013 0
0 0 0
0 0 0
0 0 0
0.00244642 0.0870966 0
0.0282109 0.0895198 0
0 0 0
0.020839 0 0
0.0132636 0 0
0.0256837 0.191451 0
0.211304 0 0
0 0 0.246332
0 0.244921 0.0657165
0 0.0341136 0
0.478772 0.205762 0
0 0 0
0.42642 0.221251 0
0 0 0.230837
0.136599 0 0.0306113
0 0.0372621 0
0.003185 0.0462137 0
0.0977043 0 0
0 0.0560896 0.0161504
0 0.199859 0
0.144534 0.342969 0
0.290105 0 0.0881391
0.124722 0.10774 0
0 0 0.0583373
0.0784788 0.00597624 0.44806
0.0374082 0.138495 0
0.157076 0.105888 0.152041
0 0 0.071463
0 0.0578662 0
0 0 0
0.327715 0.125891 0.129155
0.583186 0.238856 0.196047
0 0 0.225466
0 0 0
0 0.0787463 0.293013
0 0.0299459 0.0146569
0.160671 0 0
0.00735322 0 0
0.101507 0.105054 0.0660057
0 0 0.0699891
0.146541 0 0
0.0348416 0 0.10282
0.272558 0.160071 0
0.233492 0.285165 0
0 0 0.0277864
0.0251507 0.155521 0.283826
0.0131221 0 0
0 0.322866 0
0.159314 0 0
0.0370147 0 0
0 0 0
0.107416 0.177493 0
0.129619 0.193529 0.0797799
0.221551 0 0
0.0694769 0.365387 0
0.15474 0.262574 0
0.207939 0 0
0 0 0.369648
0.00660006 0.0290759 0.0759187
0.0685089 0 0.0663318
0.159185 0.0453676 0
0.0923732 0.316827 0
0.101283 0 0
0.0876617 0.259759 0
0 0.116378 0
0.289301 0 0
0.0159331 0.22432 0
0.160492 0 0
0.271582 0 0
0.0044046 0 0.138072
0.168176 0 0
0.18053 0.190903 0.23684
0 0 0
0.299616 0.112689 0
0.00258976 0.0574626 0
0.254734 0.176049 0
0.121544 0.0182842 0
0.221066 0.0287505 0
0.147181 0.149827 0.00665746
0.467244 0.215753 0
0.0716197 0 0
0.386493 0.1555 0
0.00982494 0 0
0.215448 0.162761 0
0.266176 0.206123 0
0 0 0
0 0.139446 0
0.164621 0.0191956 0
0 0.0940304 0
0.146998 0 0
0 0.312366 0.0582081
0 0.0758995 0
0.186221 0.180366 0
0 0 0.172604
0.264581 0.174036 0
0.0344456 0.078071 0
0 0.0944087 0
0.163531 0 0
0 0.323206 0.06544
0.121502 0.149703 0
0.0012859 0.0670266 0
0.30662 0.158309 0
0 0 0
0 0.2508 0.066139
0.146931 0 0
0 0.335175 0.0736289
0.136779 0.148629 0
0.374858 0.121355 0
0.175623 0.0152549 0
0 0 0
0 0.023613 0
0 0.0360433 0
0 0 0
0 0.523644 0.292219
0.180023 0.0764126 0
0.219038 0.104298 0
0.20836 0 0
0.12286 0.373603 0.12475
0 0.110807 0
0 0 0
0 0.00727749 0.0445801
0 0.0919152 0
0 0.0221047 0.142715
0 0.124786 0.129187
0 0 0
0 0.242765 0.111261
0.199288 0 0
0.0670274 0.0212683 0
0.163503 0.111383 0
0.217212 0 0
0.285327 0.353557 0
0.261685 0.250086 0
0.0213577 0 0.149234
0 0.104255 0
0 0 0
0 0 0
0.122656 0.0635758 0.000646799
0 0 0.0057835
0.296935 0.00615751 0
0.0858347 0.0376299 0
0.189429 0.236254 0
0.441931 0.249148 0
0.137056 0 0
0.258519 0.336083 0.0582662
0 0 0
0 0.129633 0
0 0.0174902 0
0 0 0.0560325
0 0.215793 0.191613
0.314444 0 0
0 0.0247212 0
0 0 0
0 0.340623 0.126236
0.157657 0 0
0.299235 0.10576 0
0.23719 0 0
0.161662 0.415838 0
0.243383 0.27302 0
0 0.0692857 0
0 0 0
0 0.275378 0.0660293
0.196953 0.0103595 0
0.0736544 0.178873 0
0 0 0
0 0.241521 0.117679
0.511495 0.0801459 0
0 0.26847 0
0.193798 0.126575 0
0.435653 0.17415 0
0.212842 0 0.149596
0.186514 0 0
0.261877 0.325577 0
0 0 0.0886353
0 0.0884276 0.0748229
0.0754545 0.00251352 0
0.0376568 0 0
0 0 0
0 0.224051 0.0980517
0.100192 0 0
0 0 0
0 0.456786 0.346375
0.178181 0 0
0.0931508 0.148746 0
0.204438 0.0633437 0
0.183538 0.167786 0.0145485
0 0.0291335 0
0 0.005797 0
0 0.097163 0.108169
0 0.15864 0.127861
0.0595154 0 0
0 0.0413548 0
0.561581 0.0704734 0
0.077647 0.0222913 0
0.609134 0.388682 0
0.13421 0.163874 0
0 0.232736 0
0 0 0
0 0.187573 0.0325517
0 0 0
0.245208 0.162259 0
0 0 0
0 0.0521355 0
0.343277 0 0
0.188323 0 0
0.14283 0.320161 0.115669
0.19464 0.116388 0
0.271873 0.30278 0
0.140075 0 0
0 0.0987679 0
0 0 0.0504456
0.0153348 0.123241 0
0 0 0
0 0.132037 0.0771852
0 0.16127 0.148612
0.295149 0.00269383 0
0 0 0
0 0.195572 0.200998
0 0.30092 0.157333
0.500822 0.409744 0
0.136048 0.166144 0
0 0 0
0 0.0381078 0
0.317013 0.11159 0
0 0 0
0 0 0
0 0.102737 0.242692
0.281842 0.156145 0
0.46461 0.43254 0
0 0.131401 0
0.168907 0.516429 0
0.0945414 0 0
0 0.299719 0
0 0.0777239 0
0.0663629 0.088326 0
0 0 0
0 0 0
0 0.0845127 0.15842
0.195199 0.158314 0
0.145611 0.148772 0
0.148135 0.077871 0
0.381768 0.175256 0
0.172266 0.335141 0
0 0.272925 0
0.27903 0.121401 0
0 0.334785 0.0251574
0 0 0
0 0.0725083 0.0626451
0 0 0
0 0 0.0612444
0.152293 0.216861 0
0.0733639 0.148582 0
0.0837363 0.0786662 0
0.324516 0.209426 0
0.163511 0 0.0253921
0.124621 0.0809391 0
0.572192 0.174726 0
0.249092 0.407478 0
0 0 0
0 0.269992 0
0.142805 0.0439852 0
0.364219 0.369439 0.246903
0 0 0.0456447
0.0817728 0 0
0 0.0485229 0
0.178452 0.158039 0
0.208415 0.127659 0.0191895
0.124125 0 0.0202807
0.0705591 0.0779041 0
0.657429 0.146402 0
0.445557 0 0
0.172372 0.255747 0
0.626046 0.0861344 0
0 0.366087 0
0 0 0
0 0.303941 0
0.0222192 0.00591802 0
0.0897743 0 0
0.326628 0.195258 0
0.0214459 0 0
0.390891 0.173622 0
0.115632 0.144726 0
0.0596002 0.0671375 0
0 0.0784666 0
0.379321 0.169259 0
0 0 0.0283461
0.299094 0.032609 0
0.0740216 0.222733 0.140332
0 0.226254 0.0338287
0.244815 0 0
0.274353 0.225105 0
0.194029 0.235823 0
0.246079 0.0307704 0
0.0172162 0.271315 0.0247701
0.0755509 0 0
0.203906 0.112654 0
0 0 0
0.0351591 0 0
0.32074 0 0
0 0.108414 0.244059
0 0 0
0.146748 0 0.00426705
0.240599 0.12969 0
0.0774889 0.212879 0.10294
0.177033 0.0286642 0
0.14963 0.0965329 0
0 0 0.201758
0.299453 0.173117 0
0.0156739 0.269217 0
0 0 0
0.0650219 0 0
0 0 0.230458
0.309907 0.28472 0
0.413306 0.0761008 0
0.289403 0.283861 0
0.23117 0.0804669 0
0 0.025304 0
0.0866375 0 0.0933503
0 0 0.0212526
0.269194 0.0738944 0
0.118307 0.355775 0
0.364717 0.277992 0
0.136415 0.228712 0
0.454742 0.105782 0
0.283672 0.0720275 0
0.205003 0.157683 0.212893
0.124824 0.177131 0
0 0 0.178456
0 0.385009 0
0.0517832 0.144959 0
0.295056 0.403304 0
0.173532 0 0
0.273768 0 0.12554
0 0 0
0.113945 0.240456 0
0.0803137 0.065093 0
0.183855 0.336487 0.0564677
0.143231 0.0846198 0
0 0 0.386073
0.149021 0.109062 0
0 0.046502 0
0 0.1969 0.103635
0 0.182526 0
0.198649 0.143208 0.085305
0.261411 0.438647 0
0 0 0
0 0.318078 0
0.321776 0.12543 0
0 0.331306 0.188727
0.222972 0.343127 0
0 0.105725 0
0.249349 0.389937 0
0 0.318036 0
0 0 0.319102
0.0390885 0.414553 0.180238
0.186138 0.470046 0.0767884
0 0 0
0 0.0436795 0
0.511863 0.12606 0
0.0637783 0.600408 0
0 0 0.406893
0 0.0334762 0
0 0.0302336 0
0 0 0.00106773
0.475091 0.174701 0
0.211985 0.280025 0
0 0 0.0962213
0 0.241526 0.0901457
0 0.0449232 0
0.549226 0.175291 0
0 0.233947 0.0402576
0.0279761 0.40867 0.0751685
0.015152 0.324755 0
0 0 0
0 0 0.0467667
0.0989721 0.0116362 0.0993023
0 0.0657319 0.166516
0.0830077 0 0.195653
0 0 0.480798
0 0.0554381 0
0.0732652 0.0224366 0.149107
0 0.376557 0
0.067707 0.0127679 0.240422
0 0.210491 0
0 0 0.216339
0 0 0
0 0 0.119454
0.0473096 0 0.0252862
0 0 0
0.0980611 0.297661 0
0.215074 0.0445366 0
0.27568 0 0
0.159683 0.257178 0
0.457023 0.222755 0
0.160475 0.0907599 0
0.462113 0.167059 0
0.247983 0.436564 0
0.0912233 0 0.139459
0.314603 0.277572 0
0.0429948 0 0
0.362077 0 0
0 0 0.0791117
0.136844 0 0
0 0 0
0 0 0.0463136
0.23379 0 0
0.0974173 0.38587 0
0 0.0987712 0.00258379
0.342426 0.0409026 0
0.282986 0 0
0.27029 0.468993 0
0.543112 0.0374191 0
0.189221 0 0
0.423902 0.257739 0
0.519657 0.16514 0
0.284031 0.205441 0
0.00589385 0.00102005 0
0.2053 0.0558779 0
0.397167 0 0
0.236374 0.231103 0
0 0 0
0.438002 0.358763 0
0 0 0
0 0.00615718 0.110176
0.254762 0 0.0732727
0 0.149566 0
0.120934 0.202494 0
0.498975 0 0
0.412316 0.41036 0
0 0.00686192 0
0.505194 0.0368562 0
0.267788 0 0
0.547181 0.341248 0
0.568846 0.015119 0
0.144288 0.146063 0
0.351389 0.299566 0
0 0.00905292 0
0.191887 0.0573098 0
0.385081 0 0
0.228131 0.231517 0
0 0 0
0.404501 0.0163013 0
0 0 0
0.208536 0.329314 0
0 0.220019 0.0238052
0.292516 0.0500317 0
0.35432 0.164924 0
0 0.231522 0
0.426628 0.0933749 0
0.166648 0.125221 0
0.312221 0.313539 0
0.380755 0 0
0.327362 0.0404651 0
0.386732 0.24827 0
0 0.128779 0
0.235229 0.358479 0
0.338923 0 0
0.21728 0 0
0 0.114887 0
0.363079 0 0
0 0 0.104536
0 0.115921 0
0 0.174319 0.265832
0.289967 0.42806 0
0 0.078946 0
0.268821 0 0
0.328968 0.40034 0
0.306227 0.479536 0
0 0 0.0991091
0.355176 0 0
0.0842402 0.264692 0
0.291988 0 0
0.206304 0.378167 0
0 0 0.19437
0.450637 0.0160603 0
0 0 0
0 0 0.110948
0 0.0917292 0
0 0.0944619 0.0456745
0.402248 0.223599 0
0.216487 0.347147 0
0 0.0789496 0.194336
0.29025 0.253468 0
0 0.0725759 0
0.404769 0.0398171 0
0.308916 0.0827766 0
0.114867 0.0600718 0
0 0.0814077 0.28477
0.226976 0.383275 0
0 0.0942405 0
0.473015 0.210356 0
0 0.0911917 0
0.2529 0 0
0.343667 0.149949 0
0 0 0
0 0 0
0 0.283665 0
0 0 0.130178
0.231952 0.460199 0
0 0 0
0.29489 0.039649 0
0.385327 0.224408 0
0.0813421 0.0530747 0
0 0 0.202754
0.292968 0.39524 0
0 0 0
0.504478 0.20737 0
0.111132 0.216123 0
0.300859 0 0
0.307366 0.379356 0
0 0.0440327 0.0899137
0.337049 0.0384268 0
0.0815414 0.00989418 0
0.464113 0.0251146 0
0 0.421853 0
0 0 0.0701006
0.293087 0.0349799 0
0 0 0.149449
0.104782 0.206898 0
0.314628 0.414821 0
0 0 0.335606
0.0889782 0.22344 0
0 0 0
0.467692 0.209146 0
0.0999 0.217214 0
0.285547 0 0
0.327957 0.386204 0
0 0.0827504 0.178351
0.427684 0.191578 0
0.000389485 0.0958607 0
0.269554 0 0
0.268213 0.360083 0
0.333527 0.0660047 0
0.0944128 0.12816 0.0572861
0.0108122 0 0.224938
0 0 0
0 0.220401 0
0 0.206536 0
0.0575077 0 0
0.159246 0.00391409 0
0 0.163453 0.180621
0.233149 0.455096 0
0 0.214741 0.0198281
0.216791 0 0
0.287486 0.388297 0
0 0.0306247 0.107562
0.383447 0.0271679 0
0.0325398 0.222957 0
0.390079 0.137622 0
0.332737 0.186741 0
0 0.0496786 0.0886237
0.239524 0.0878136 0
0 0.213673 0
0.41524 0.260291 0
0.14036 0 0
0.196908 0 0
0 0.225582 0
0 0.106455 0
0.168666 0 0
0.136732 0 0.0256231
0 0.303506 0
0.265685 0.0770232 0
0.120025 0.123629 0
0 0.0395573 0.137092
0.138166 0.219077 0
0.209155 0 0
0 0.171624 0.249578
0.252741 0.32799 0
0 0.0806848 0
0.287934 0 0
0.300421 0.375766 0
0.280016 0.0839625 0
0 0.140366 0
0.413273 0.248984 0
0.189153 0.0789379 0
0.0881341 0.0305952 0
0.421548 0.338717 0
0 0 0.177013
0.29816 0.0658324 0
0 0 0
0 0 0
0 0 0
0 0 0
0.141905 0.255457 0
0 0.0292859 0
0.055087 0.345905 0
0 0.129379 0.259195
0 0.031732 0
0 0.292092 0.0591961
0 0.0702632 0.219934
0 0.400325 0
0 0.00952304 0
0.398685 0.206887 0
0.179081 0.197997 0
0.235262 0 0
0 0.0816527 0.175741
0.351198 0.329109 0
0 0.0774972 0
0.369171 0.0474277 0
0.171871 0.10259 0
0.0947931 0.0660129 0
0.216737 0.360566 0
0 0.0965663 0.151675
0.369705 0.192222 0
0 0.0159042 0
0.279766 0 0
0.286631 0.0218741 0
0.184099 0 0
0 0 0
0 0 0.0822642
0 0.0980059 0
0 0.104898 0
0.301349 0.142079 0
0 0.0994872 0
0.264142 0 0
0 0.162493 0.188875
0.284018 0.25647 0
0 0.0132495 0
0.24193 0.00559329 0
0.20244 0.225034 0
0.0421934 0.0611834 0
0.279375 0.532065 0
0 0 0
0.276777 0 0
0.256798 0.358656 0
0.248361 0 0
0 0 0.17614
0.269617 0.371902 0
0 0.084146 0
0.449226 0.19769 0
0 0.0864396 0
0.260721 0 0
0.191364 0.354834 0
0 0.0398302 0.216991
0.289916 0.37541 0
0 0 0
0.326423 0 0
0 0 0.0151893
0 0 0
0 0.131985 0
0.169596 0.38603 0
0 0 0.100733
0.13377 0 0
0.206639 0.423942 0
0 0 0.136821
0.116569 0.273682 0
0.0186225 0.0436045 0
0.513703 0.025507 0
0.104886 0.203407 0
0.192377 0.187681 0
0 0.00292813 0.317962
0.27713 0.191641 0
0 0 0
0.458221 0.0703463 0
0.237822 0.299934 0
0.40125 0.0773102 0
0.417718 0.317768 0
0 0 0.156919
0.323175 0 0
0.125593 0.177748 0
0.363905 0.0832033 0
0.402917 0.268189 0
0 0 0.199499
0.248249 0.0507347 0
0 0.0353241 0
0 0 0
0.075873 0.207388 0
0 0 0
0 0 0
0 0.162056 0.17782
0.265853 0.251138 0
0 0.0164822 0
0.224622 0.00917587 0
0.189466 0.221925 0
0.0363825 0.0639908 0
0.121431 0.273459 0
0.376065 0 0
0.0780803 0.137744 0.0207522
0 0.212477 0
0.292201 0.221579 0
0.0562534 0.100374 0
0.354489 0.0508355 0
0.230068 0 0
0.36075 0.109447 0
0.302819 0 0
0 0 0
0.105259 0 0
0.171768 0 0
0.43044 0.0921979 0
0.317622 0 0
0.295177 0.049066 0
0.270456 0.159762 0
0 0 0.0820002
0 0 0
0 0 0.101374
0 0 0
0.0355655 0.427511 0
0 0.00166989 0.127184
0.211335 0.224941 0
0.0165167 0.0481835 0
0.290759 0 0
0.129638 0.113666 0
0.44974 0.222921 0
0 0 0
0.0960355 0.263664 0
0.0713874 0.208849 0
0.259893 0 0
0.0944792 0.143376 0
0.0233464 0.00140093 0.271806
0.253558 0.172521 0
0.290209 0 0
0.036005 0.00766492 0
0.0255346 0.0758329 0
0.240959 0 0
0 0 0.105957
0 0 0.196534
0 0 0.0153054
0 0 0.00598476
0 0 0
0.00997011 0.213025 0
0.132292 0.173564 0
0.199708 0.328983 0
0.334956 0.223821 0
0.208833 0.276513 0
0.40516 0.0702558 0
0.0448226 0.0903924 0
0 0 0.054928
0.530043 0.075565 0
0.208664 0 0.00203993
0.332685 0.25902 0
0 0.209442 0
0 0.147002 0.142357
0.144938 0 0
0.298245 0.130082 0
0.280434 0 0
0.0669624 0.204791 0
0.150118 0.0677866 0
0 0.176072 0.345146
0 0 0.094012
0 0 0.0515265
0 0 0
0 0.0613219 0
0 0 0.0746437
0 0.0153398 0.0516698
0.00642858 0.0536972 0
0.333146 0.0892985 0
0.0688236 0.159053 0
0.338576 0.0704161 0
0.0997025 0 0
0.149988 0.217457 0
0.0815435 0.298093 0
0.087252 0.0415831 0
0.119436 0.245335 0.175703
0.263579 0 0
0.400161 0.0646493 0
0.228021 0.00321822 0
0 0.232157 0
0 0.168979 0.0172535
0.255713 0 0
0.251969 0.212788 0
0 0 0.128433
0 0 0
0 0.143744 0
0.029176 0.185881 0
0.129729 0.0306526 0
0 0 0.121403
0.378086 0.291377 0
0.323453 0.148509 0
0.222795 0 0
0.0917521 0.349347 0
0.245642 0.315473 0
0.226315 0.274327 0
0.319165 0.0308693 0
0 0.262223 0
0 0 0
0.0802682 0.0209913 0
0 0 0.326459
0.5648 0.292074 0
0 0 0.155198
0 0 0.15233
0 0 0.0125652
0 0 0
0 0 0.104099
0.230412 0.132004 0
0.250051 0.528009 0.0323992
0.0712613 0 0
0.0650375 0.283491 0
0.212407 0.158406 0
0.326524 0.219425 0
0.0995018 0.194918 0.152653
0.0299498 0.00425804 0
0.274993 0.183066 0
0.124635 0.416924 0
0 0.0625236 0
0.102741 0.291663 0
0.31186 0.0370467 0
0.0604796 0.207045 0
0 0 0.328475
0 0 0
0 0 0
0 0 0
0 0 0.0375587
0 0.0573119 0.191496
0 0.231723 0
0.271169 0.0982916 0
0 0 0.125203
0.271672 0.0810357 0
0.0270332 0.271794 0
0.0330705 0.058666 0
0 0 0.119573
0.341514 0.239532 0
0.245901 0.171665 0
0 0.272225 0
0 0.0556085 0
0 0 0.368711
0.133367 0.336466 0
0 0 0.135109
0 0 0
0 0 0
0 0 0
0.0305513 0 0
0.108927 0.260911 0
0.135365 0 0
0.174701 0.285043 0
0.367397 0.118652 0
0.15895 0 0
0.0687068 0.289293 0.154175
0.231512 0.20771 0
0.251569 0 0
0 0.0205788 0.101404
0.0312761 0 0
0.0876779 0.059763 0
0.234505 0.163176 0
0.480458 0.192339 0
0 0 0.234392
0.119789 0 0.103642
0 0 0.101993
0 0 0
0 0.214529 0
0 0 0.160627
0 0 0
0 0 0.233957
0.0413396 0.302376 0
0.339655 0.223349 0
0.212393 0.00704394 0
0.0740757 0.345915 0.0795752
0.0814045 0.28358 0
0.255333 0 0
0.0808479 0.141825 0.180444
0.158395 0 0
0 0.215784 0
0.0932422 0 0
0 0 0.212829
0.455409 0.371586 0
0 0 0.111904
0 0.183267 0
0.298773 0.163259 0
0.120815 0 0
0.104084 0.259481 0
0.0971863 0.200663 0
0.139036 0 0
0.0851225 0.245499 0
0.019451 0 0
0 0.130111 0
0.267976 0 0
0 0.138568 0
0.282123 0 0
0.10261 0.00540804 0
0 0.119871 0
0 0.105149 0
0 0 0.0577151
0 0.0189528 0
0 0.137201 0
0 0.290919 0
0.0845594 0.182522 0.0736069
0.0534161 0.129878 0
0 0 0
0 0.0675595 0
0 0 0
0 0.20446 0.0852776
0 0.209298 0
0.0287381 0.10823 0
0 0 0
0 0.0607698 0
0 0 0
0.0154391 0.153847 0.0669414
0.0617474 0.0884524 0
0.0676213 0.0928874 0
0 0 0
0 0 0
0 0.161066 0
0.0268632 0.0971354 0
0.0759703 0 0
0.0106691 0.0693363 0
0.133359 0.0327936 0
0.0982151 0 0
0.0353627 0.0318445 0
0.0408371 0.0316412 0
0 0.0138956 0
0 0.204848 0
0 0.321735 0
0.113976 0.147312 0
0.206348 0 0
0 0.1011 0.0252967
0.0194574 0.0602604 0
0 0.105345 0
0 0.0139775 0
0 0.0675474 0
0 0.0691454 0
0.182916 0.249356 0
0.225332 0.40958 0
0.253311 0.15777 0
0.111902 0.183891 0
0.192495 0 0
0 0.0627329 0.0803937
0 0.111944 0
0.098103 0.0787832 0
0.0188539 0.162776 0
0 0.315035 0
0.184242 0.156755 0
0.19781 0.160824 0
0.160776 0.0183985 0
0.192319 0.0694731 0
0.034106 0.131117 0
0.116471 0 0
0 0 0
0 0 0
0 0.0323713 0
0.148627 0.0895905 0
0 0.0494784 0
0.0300861 0.278689 0
0 0.148125 0
0.140164 0.175036 0
0.193335 0.1816 0
0.207321 0.182968 0
0.218471 0.184402 0
0.227797 0.186186 0
0.352851 0.249067 0
0.290987 0.159533 0
0.242054 0.157295 0
0.0869367 0 0
0 0 0.247801
0 0 0
0.0917071 0.137208 0
0 0.18673 0
0.106944 0.139247 0
0.116912 0.141223 0
0.122957 0.142498 0
0.133453 0.146632 0
0.14053 0.146724 0
0.151502 0.147907 0
0.159971 0.150266 0
0.165571 0.150766 0
0.173304 0.153237 0
0.137634 0.140397 0
0 0 0.119389
0 0.0838057 0
0 0 0
0 0.101213 0
0.0958975 0.135743 0
0.102698 0.139012 0
0.109508 0.140071 0
0.121966 0.142275 0
0.130211 0.143684 0
0.140629 0.146884 0
0.016228 0.164134 0
0.105166 0.128836 0
0.124757 0.205001 0
0.0683424 0 0
0.0850705 0.0255066 0
0 0.12356 0
0 0 0.104978
0 0 0
0 0.148124 0
0 0.12101 0
0 0.120323 0
0 0.121557 0
0 0.123837 0
0.00185673 0.124999 0
0.0077426 0.126206 0
0 0.198567 0
0 0.0443577 0
0 0 0
0 0 0
0.0629781 0 0
0 0.0809261 0
0 0 0
0 0.0403124 0.0895697
0.1554 0.173432 0
0.138917 0.144595 0
0.148026 0.14671 0
0.160133 0.148663 0
0.170352 0.151218 0
0.184195 0.15242 0
0.198817 0.154429 0
0.186603 0.0171352 0
0.275975 0.020113 0
0.0473274 0 0
0 0 0.0914647
0 0 0
0.0709624 0.128729 0
0.0924301 0.136185 0
0.102209 0.137358 0
0.110346 0.138793 0
0.119931 0.140683 0
0.130177 0.142068 0
0.143254 0.144543 0
0 0.114304 0
0 0.0839872 0
0 0.0661519 0.110903
0 0 0
0 0.145356 0
0 0.120373 0
0 0.121059 0
0 0.121191 0
0 0.122746 0
0.000679766 0.12226 0
0.00701808 0.125909 0
0.169529 0.0985801 0
0 0 0
0.123338 0.092453 0
0.0601351 0.210862 0
0.034373 0.0485451 0
0.0574462 0.183654 0
0.138899 0.146631 0
0.152653 0.148659 0
0.164001 0.151054 0
0.180323 0.153823 0
0.193297 0.154801 0
0.209378 0.158913 0
0.0613018 0 0
0 0.173591 0.0404459
0.0667045 0 0
0 0.0760845 0
0 0.145397 0
0 0.119529 0
0 0.122451 0
0 0.122764 0
0 0.122704 0
0.00309857 0.125374 0
0.00936764 0.126364 0
0.177104 0.0973271 0
0 0.00414162 0
0.195505 0.0963354 0
0.0454542 0.0291866 0.0716018
0.0395374 0.240101 0
0.0789039 0.193432 0
0.147586 0.146514 0
0.161403 0.151152 0
0.175044 0.153921 0
0 0.204377 0
0.0351248 0.0773681 0
0.0738035 0.140287 0
0.167546 0 0
0 0.0832972 0
0.18502 0 0
0 0.121504 0
0 0.121855 0
0 0.120709 0
0 0.121534 0
0 0.12251 0
0 0.122933 0
0.0286673 0.0690527 0
0 0.267158 0
0.0489058 0.0745802 0
0.175386 0 0
0 0.0634507 0
0.123435 0.16999 0
0.133679 0.146454 0
0.144793 0.148982 0
0.156701 0.152356 0
0 0.201078 0
0.0256172 0.0851332 0
0 0 0
0.0958479 0.00901349 0
0.223671 0.358297 0
0 0 0
0 0 0
0.292607 0.211748 0
0 0.100275 0
0 0.0798503 0.0597716
0 0.126263 0
0 0.0211093 0
0 0.0988282 0
0 0 0.106879
0 0.138095 0
0.0481394 0 0
0 0.156993 0
0 0.0148232 0.00905418
0.0609358 0.0974031 0
0 0.0128347 0
0.046462 0.111829 0
0 0.0151595 0
0 0.0418954 0
0 0 0
0 0.0034085 0.0509613
0 0.0187237 0
0.0430101 0.108967 0
0 0 0
0 0 0.0906042
0 0.157641 0.00970263
0.239447 0.206856 0
0 0 0
0 0 0
0 0.155612 0
0 0 0
0 0 0.105377
0 0.151806 0
0 0 0
0 0 0
0 0 0
0.209209 0.277456 0
0 0 0.07768
0 0 0.109229
0 0 0
0.119067 0 0
0 0 0
0 0.00777993 0
0 0.00620071 0
0 0.0285078 0
0 0 0.150434
0.0678897 0 0.0913496
0 0.105302 0
0.108417 0.0275679 0.0497829
0 0 0
0 0 0
0.00351198 0.159753 0
0 0.0346459 0
0 0.0590582 0
0 0.168288 0.0364538
0.247251 0.244115 0
0 0 0.293168
0.031897 0 0.0489408
0 0.00325674 0.103147
0.153034 0.181112 0
0 0.121495 0.00828501
0.015683 0 0
0 0.0277415 0.0197833
0.00814177 0.163383 0
0 0.154445 0
0 0.125086 0
0 0.127082 0
0 0.125707 0
0.0226112 0.0701486 0
0 0.261211 0
0.0394095 0.0774221 0
0.00192534 0 0
0.0891249 0.0628179 0
0.207036 0.0978474 0
0 0 0.000451978
0.19082 0.25067 0
0.141647 0.145357 0
0.157571 0.150355 0
0 0.198024 0
0 0 0
0.0886911 0.00557001 0
0 0.268108 0
0.0572845 0.075921 0
0.132802 0.286578 0
0.111993 0 0
0 0.0248899 0
0 0.255553 0
0 0.0781509 0
0 0.12584 0
0.0180513 0.0681978 0
0.150226 0.208742 0
0 0.00648702 0
0.0768573 0 0
0.194954 0.226195 0
0.123221 0.356838 0
0.060227 0 0
0 0 0.0942767
0.0335556 0.107813 0
0 0.229909 0
0.0181575 0.0874986 0
0 0 0
0.0598321 0.0689227 0
0.172413 0.153059 0
0 0 0
0.0981063 0.0616967 0
0.0662337 0.0618721 0
0.00411852 0 0.257614
0 0 0.404998
0.0426884 0.0123184 0
0.0610993 0.0257327 0
0.128102 0.198997 0
0 0.203173 0
0.0379898 0.0823968 0
0.0262845 0 0
0 0.442954 0.140134
0.107342 0.209553 0
0 0 0
0.303974 0.0744264 0
0 0.047943 0
0 0 0.11205
0.0316057 0.18736 0
0 0 0
0.0430972 0.0751532 0
0.0256492 0.0660126 0
0 0.262786 0
0.00409033 0 0
0.141198 0 0
0.141537 0.324604 0
0.0948528 0 0
0.190293 0 0
0 0.112686 0
0.255419 0 0
0.0155252 0.0774483 0
0.122604 0.193536 0
0 0.200792 0
0 0 0
0.12965 0.128416 0
0.13226 0.249958 0
0.0416911 0 0
0 0.0767792 0.0901662
0.224446 0.202729 0
0 0.127722 0
0 0 0
0.198481 0 0.0113055
0 0.00435215 0
0.0450598 0.0770195 0
0.0225292 0.0675016 0
0.151214 0.207803 0
0.0186651 0.116012 0
0.0363462 0 0
0 0.0511258 0.06778
0 0.0773312 0.0983314
0.121632 0.265613 0
0.0337448 0 0
0.191824 0.0647361 0
0.188045 0.150459 0
0.169909 0.152955 0
0 0.01449 0
0.0346875 0.0100849 0
0.0415272 0.0641227 0
0.123819 0.0662736 0
0 0 0.0705366
0.126958 0.125599 0
0 0.217509 0
0 0.0727521 0
0.0279813 0.0679654 0
0.158653 0.20987 0
0 0.127231 0
0.138596 0 0
0 0 0
0.171343 0.164255 0
0.0231806 0.10643 0
0.138556 0.20037 0
0.124014 0 0
0 0.13615 0
0.0139986 0 0
0 0 0.245314
0 0 0.0369387
0 0.134328 0.137939
0 0.0630982 0
0.0298745 0.015975 0
0.00613956 0.129751 0
0.0396509 0.0640256 0
0.0205342 0 0
0.154809 0.150183 0
0 0.15597 0
0.0751761 0 0
0.0293225 0.0743634 0
0.144387 0.202694 0
0.203029 0.157355 0
0 0.000629428 0
0.0527364 0 0
0.193231 0.10142 0
0 0 0
0.120512 0 0
0.117648 0 0
0.190557 0.0870438 0
0 0.19441 0
0.0141372 0.00130263 0
0.143238 0.185783 0
0 0 0
0 0 0.139392
0 0 0
0.131128 0.14392 0
0 0.191505 0
0.00974752 0.00475801 0
0.129731 0.130781 0
0.158229 0 0
0.0942159 0.221266 0
0 0 0.0607707
0.0261924 0.0191599 0
0.00906609 0.129961 0
0.0362439 0.0690437 0
0.0907822 0.00645494 0
0 0.134891 0
0 0.0644701 0
0.200002 0.102555 0
0 0 0
0.170219 0.10851 0
0.0157208 0.0768368 0
0.0210502 0.00582496 0.137969
0.135867 0.2605 0.0114728
0.0979004 0.20218 0
0.216144 0.150721 0
0 0.0828812 0
0.0488384 0 0
0 0 0.0590928
0.0801241 0.179042 0
0.126327 0.144225 0
0.127315 0.143291 0
0.131327 0.145387 0
0 0 0
0 0 0
0 0.166782 0
0.0176209 0.13142 0
0.0141452 0.131691 0
0.0136209 0.131174 0
0.0110223 0.130262 0
0 0 0.103327
0 0 0.0818152
0.263092 0.282514 0
0.183071 0.14098 0
0.183446 0.143762 0
0.185287 0.145903 0
0.190038 0.148768 0
0 0 0
0 0 0.0675806
0 0 0
0.188552 0.243284 0
0.128386 0.145316 0
0.129275 0.145041 0
0 0.188311 0
0 0.0709582 0
0 0 0.121019
0 0 0.0169214
0 0.134876 0
0.0177919 0.131088 0
0.0161359 0.131373 0
0.0379103 0.074836 0
0.145471 0.198654 0
0 0 0.0734208
0 0.137104 0.00564224
0.127315 0.234295 0
0.182641 0.1421 0
0.184382 0.144148 0
0.120637 0 0
0.191072 0.0864133 0
0 0 0.0323068
0 0.0298979 0
0.0184186 0.131092 0
0.0177919 0.131088 0
0.0151142 0.13177 0
0.0131081 0.129484 0
0.014121 0.131172 0
0 0 0.101315
0 0 0
0.208255 0.234425 0
0.182641 0.1421 0
0.184969 0.144685 0
0.186825 0.145591 0
0 0.192065 0
0 0 0.266896
0 0 0.0251685
0 0.133469 0
0.0177919 0.131088 0
0.0138929 0.131121 0
0.013899 0.130501 0
0.0398683 0.0740526 0
0 0 0.00649152
0.159161 0 0
0 0.169969 0
0 0.0847858 0
0.0709499 0.161803 0
0.0718303 0.131017 0
0.0693427 0.13155 0
0.00355727 0 0
0 0 0
0 0.0720467 0.0251905
0.0894672 0.131359 0
0.293171 0.089578 0
0.0164335 0.245204 0
0.0422806 0.0740245 0
0.0721873 0.133386 0
0 0 0.117135
0 0.0417499 0
0.286852 0.25477 0
0.0734541 0.0549202 0
0 0.0795973 0
0.140878 0.196036 0
0.193951 0.148318 0
0 0 0.0200766
0 0 0.0364224
0 0 0
0.01477 0.162321 0
0.0804645 0.303311 0
0 0.0120927 0
0.0702172 0.0725682 0
0.0159502 0.130391 0
0 0.168921 0
0.00523665 0.138787 0
0.149754 0.087376 0
0.122222 0.0832516 0
0.122086 0.0858998 0
0.123975 0.0863155 0
0.127936 0.0879258 0
0.191941 0.151462 0
0.129395 0 0
0 0.135195 0
0.0182721 0 0
0.14522 0.183174 0
0 0 0
0 0 0.0309306
0.00482488 0.198273 0
0 0.190413 0
0 0.0685388 0
0.0429001 0.0664604 0
0.133546 0.129053 0
0 0.0982414 0
0.0853533 0 0
0 0 0
0.197508 0 0
0.0378404 0.0710719 0
0.159156 0.20628 0
0.142346 0 0
0.0239425 0.265187 0
0 0 0
0.0838984 0.0359797 0
0 0 0.113599
0 0.0761704 0
0.126779 0 0
0 0.134012 0
0 0.0666601 0
0.0515667 0.0635873 0
0.0282306 0 0
0.0808246 0 0
0 0 0
0.0595727 0.154115 0
0.0138329 0.130703 0
0.041411 0.068654 0
0.170721 0.211881 0
0.187965 0.0693541 0
0.0435751 0.0831186 0
0.0679438 0 0
0 0.114234 0
0 0 0
0.199714 0.150885 0
0.00388094 0 0
0.10722 0.224463 0
0.0250424 0 0
0.102672 0.00135947 0
0.180814 0 0.077855
0 0.274847 0
0.179327 0 0
0 0.305461 0
0 0 0
0 0 0.0602463
0 0 0
0 0 0.0281315
0.0481319 0.414446 0
0.01672 0 0
0.0404484 0.0715516 0
0 0 0
0 0.0916937 0
0 0 0
0 0.0860329 0
0 0 0.161301
0.0483396 0 0.0378521
0.00559367 0 0
0.150272 0 0
0 0 0.0143386
0.259143 0.316099 0
0.00349695 0 0
0 0 0
0.050457 0.0186345 0.0557758
0.0727228 0.0706746 0
0.160879 0.104846 0
0 0.0177882 0.132561
0.106748 0.260729 0
0.0714343 0 0
0 0 0.0460997
0.102007 0.313824 0
0.0254615 0 0
0.0414844 0.0699194 0
0 0 0.0633019
0 0 0.312504
0.0615328 0 0
0.194934 0.0293455 0
0 0 0
