ply
format ascii 1.0
comment Created by Open3D
element vertex 3132
property double x
property double y
property double z
end_header
0 0 0.00798079
0.101742 0.180097 0
0 0.0657326 0
0 0.0656465 0
0 0.119495 0.0176202
0.0249246 0 0.126256
0.0756931 0.145495 0
0 0.0797466 0
0 0.135191 0
0.085169 0.134457 0
0.194555 0.0878467 0
0 0 0
0 0.0354334 0
0 0 0
0 0 0
0 0 0
0 0.154499 0
0 0 0.072952
0.0105639 0.193349 0
0.0410912 0.0520297 0
0 0.085162 0.0256293
0 0.254301 0
0 0.112702 0
0 0.0719904 0
0 0 0.0716619
0 0.0891089 0.253602
0 0.176247 0.019661
0 0 0.0596854
0.0432997 0.239405 0
0 0 0.197194
0 0.0600256 0.160279
0.0384741 0 0.0248659
0.0874816 0.00209433 0
0 0.0624841 0
0 0.11832 0
0.263374 0 0
0.0629634 0.0851982 0.0482151
0.0936689 0 0
0 0.0489959 0.0412645
0 0 0.0216159
0 0 0.0254303
0 0.00114478 0
0 0 0
0 0 0.00824618
0 0 0.00985405
0 0 0
0.105099 0.0360533 0.0885333
0 0 0
0.0447476 0.196118 0
0 0 0.0637695
0 0.0667116 0
0 0 0.0688754
0 0 0
0 0 0.00986259
0 0 0.0107076
0.0442785 0 0
0 0 0.191617
0.00228978 0 0.0480527
0 0 0
0 0 0.0503176
0 0 0
0 0 0.0549754
0 0.147167 0
0 0.0316537 0
0 0 0.168772
0.0639774 0 0.130037
0.0822315 0.0308753 0.0153124
0 0 0.0291622
0 0 0.249747
0 0 0.0818925
0 0.11296 0.180644
0.0181888 0 0.00710632
0 0 0
0 0 0.172191
0 0.14921 0.148973
0 0 0.032999
0 0.0630986 0.0868214
0 0.109413 0.325604
0.0336087 0.0627814 0
0 0.307973 0
0 0.232383 0
0.0934477 0.299853 0
0 0 0.224122
0 0 0.195017
0 0 0.145347
0.049385 0 0.00962378
0 0 0.183033
0 0 0.108732
0 0 0.0481909
0 0.281425 0
0 0.407223 0
0 0 0
0 0.192619 0.103578
0 0 0.215897
0 0 0.0275853
0 0 0.0642817
0 0 0.172341
0.154519 0 0.0470418
0 0 0.209821
0 0 0
0 0 0.0613974
0 0 0.076611
0.0358847 0 0
0 0 0
0 0 0.345174
0 0 0.0183044
0 0 0.0614062
0.144082 0.0968386 0.17155
0.221761 0 0
0 0 0.306731
0 0 0.134553
0 0 0.144919
0.238127 0 0.125614
0 0 0.277452
0 0 0.153514
0 0 0.148642
0 0 0.363015
0.0211733 0 0.514315
0.0887984 0 0
0 0 0
0 0.201405 0
0.110645 0 0
0 0 0
0.0924383 0.128895 0.0136229
0 0.119392 0.189868
0.130441 0.0316549 0
0 0.289042 0
0 0.0987153 0
0 0 0
0.00486061 0.00609124 0
0 0.0201091 0
0.11539 0 0.0711934
0.125964 0 0.0880213
0.0663033 0.131888 0
0.122695 0.0569799 0
0 0 0.282073
0 0.204053 0.0507422
0 0.0618257 0
0.0674444 0.0222942 0
0 0.23674 0
0 0 0.0774966
0 0.127131 0
0 0 0.173332
0 0 0
0 0 0
0 0 0
0 0.0564525 0
0.0831162 0.138778 0
0 0 0.14209
0 0 0
0 0 0.168714
0 0 0
0 0 0
0 0 0.195273
0 0.293996 0
0 0 0
0 0 0
0 0 0
0 0 0.143474
0 0 0
0 0 0.0487041
0 0 0.0720426
0 0 0
0 0 0.00190421
0.160506 0 0.109885
0 0 0
0.0988219 0.103249 0
0 0 0
0.189125 0.0150071 0
0 0 0
0.140004 0 0.0862138
0 0 0
0.00359011 0 0.392049
0 0 0.14099
0.098248 0 0
0 0 0.0807827
0 0 0.0288784
0.104554 0 0
0 0 0.0395259
0 0 0.166294
0 0 0.0495258
0 0.0548374 0
0 0.222596 0.0527161
0 0 0
0 0 0.178145
0.103545 0 0.121319
0 0.0462202 0.0391354
0 0.0783387 0
0.0564704 0 0.0739457
0.0134172 0 0.182033
0 0.0129824 0.0684494
0 0 0.106548
0 0 0.0969131
0 0.00152163 0.0693024
0 0 0
0.0492105 0 0.0134229
0.0141203 0.0942574 0
0 0.151541 0
0 0.138311 0
0.00302979 0 0.072406
0 0.067353 0
0 0.034544 0.0119292
0 0 0.153354
0.20542 0 0.196337
0 0 0.132676
0 0.120595 0.0307008
0 0.383819 0.0621744
0.117836 0.135896 0.12744
0 0.109099 0
0 0.0945617 0
0 0.0122609 0.210951
0 0 0
0.0354029 0 0.0159921
0.0307002 0 0.0148286
0.037306 0 0.00981616
0.00936365 0.0748168 0
0 0.123119 0
0 0 0
0.0231261 0 0.169117
0.00873148 0 0.0269865
0 0 0.00759192
0.00894841 0 0.0852536
0 0 0
0 0 0.0800707
0 0 0.137628
0 0 0.0864942
0 0 0.034372
0.0490282 0 0.191032
0.0379029 0 0.0161908
0.0362578 0 0.0157456
0.0327939 0 0.0153041
0.028914 0 0.0127448
0 0 0
0 0 0.0537826
0.0181345 0 0.173995
0 0 0.0686456
0 0 0.210338
0.0318355 0 0.00979798
0 0 0.0988895
0 0 0.202198
0 0 0.176386
0 0 0.190277
0.106878 0 0
0 0 0.126683
0 0 0.0930932
0.0431916 0 0.0134325
0.0402154 0 0.0105989
0 0 0.0792678
0 0 0.143566
0 0 0.0881249
0.0716591 0 0.0994396
0 0 0.161827
0.0541224 0 0
0 0 0.090901
0 0 0.121198
0 0 0.0602676
0 0 0.315518
0 0 0.533639
0 0 0.241699
0 0 0.238171
0.136433 0 0
0 0 0.135492
0 0 0.177197
0.0519809 0 0.0151044
0 0 0.0894942
0 0 0.264738
0.237215 0 0
0 0 0.275482
0.119812 0 0
0 0 0.123027
0 0 0.159685
0 0 0.2371
0.25974 0 0.0296225
0 0 0.277525
0 0 0.252604
0.0581721 0 0
0 0 0.0425423
0 0 0.0691885
0.0774438 0 0.0958138
0 0 0.16643
0 0 0
0.0140524 0 0.0891046
0.159743 0 0.00227946
0 0 0.0211415
0 0 0.0892429
0.102401 0 0
0.000639222 0 0
0 0 0.031781
0 0 0.0359841
0 0 0
0 0 0.0300154
0 0 0.103605
0 0 0.12154
0.375581 0.250582 0
0 0 0
0 0 0.116919
0.087166 0 0.209888
0 0 0
0 0 0
0 0 0.213954
0.0521704 0 0.121312
0 0 0.067881
0 0 0.298452
0.193517 0 0
0 0 0.336874
0 0 0.124523
0 0 0
0.169702 0 0.140033
0 0 0.0124697
0 0 0.276069
0.00449555 0 0.335552
0 0 0.301821
0 0 0.356303
0 0 0.255756
0.189003 0 0
0 0 0.159843
0 0 0.40637
0.190805 0 0
0 0 0.0949685
0.146327 0 0.0961511
0 0.00838203 0
0.139371 0 0.372411
0 0 0
0.0796179 0.100402 0.202199
0.069904 0 0.0529277
0 0 0.232412
0 0 0.266276
0.0337592 0 0
0 0 0.31963
0 0 0.325137
0.217208 0 0
0 0 0.19987
0 0 0.408075
0.0869701 0 0.0487865
0 0 0
0 0 0.408476
0.258249 0 0.384887
0 0 0
0.244968 0 0
0 0.116759 0
0 0 0.156659
0.16096 0 0.358951
0 0.0743438 0
0.171093 0 0.112539
0 0 0
0 0 0.268804
0 0.0748385 0
0.477854 0 0.108344
0 0 0.190647
0 0 0.406649
0.0583423 0 0.167285
0 0 0
0.200785 0.016913 0.0094108
0 0 0.295063
0.0933882 0 0.0125339
0 0.0112777 0
0.295453 0 0
0 0.120753 0
0.198797 0.01806 0.00906783
0 0 0.551789
0.0189178 0 0.270314
0.0793705 0 0.152663
0 0 0.329081
0.236995 0.173239 0.0998074
0.0695581 0 0.338553
0 0 0.0280904
0 0 0.0414776
0 0 0.492788
0.37416 0 0.228147
0 0 0
0.190696 0 0.102469
0 0 0.329845
0 0 0.321876
0.401065 0 0
0 0.0452251 0
0.187465 0 0.101381
0 0 0.292385
0 0 0.185928
0 0.0742923 0
0.277496 0 0.0965914
0 0 0
0 0 0.472814
0.315501 0 0.332803
0 0 0
0.203565 0.0161845 0.0094417
0 0 0.296943
0.0958991 0 0.0132586
0 0.011431 0
0.0598047 0 0.270484
0 0 0.0709885
0 0 0.278953
0.401065 0 0
0 0.0452251 0
0.187465 0 0.101381
0 0 0.325605
0 0 0.318158
0 0 0.319939
0 0 0.0708862
0.200388 0.0164957 0.0117461
0 0 0.294748
0.0962573 0 0.0130163
0 0.0123076 0
0.161694 0 0.184559
0 0 0.292443
0 0 0.320933
0.0464625 0 0.239286
0 0 0.310304
0.236019 0.172865 0.102474
0 0 0.472997
0.400748 0 0
0 0.0459482 0
0.0898905 0 0.183947
0 0 0.104634
0 0 0.275054
0.295989 0 0.18917
0 0.0136487 0
0.158738 0 0.185978
0 0 0.292088
0 0 0.320362
0.0760764 0 0.118915
0 0 0.280512
0 0 0.406817
0.193071 0 0.0314347
0 0 0
0 0 0.278554
0.326589 0 0
0 0.200224 0
0.128418 0 0.303383
0 0 0.335257
0.234532 0.172805 0.0987004
0 0 0.468831
0 0 0.195277
0.107975 0 0.0327363
0 0 0.315932
0 0 0.404898
0.186406 0 0
0 0 0.161262
0 0 0.40348
0.058815 0 0.165421
0 0 0
0.198492 0.0152049 0.0103942
0 0 0.344792
0.250704 0 0.185538
0.112419 0 0.0985746
0 0 0
0 0 0.487586
0.236008 0 0.397041
0 0 0
0.302037 0 0
0 0 0.438771
0 0 0.444801
0.218195 0 0
0 0 0.198684
0 0 0.407955
0.162425 0 0.151445
0 0 0
0.188193 0 0.102914
0 0 0.34826
0.14546 0 0.0135378
0 0.260591 0
0.14024 0 0.231522
0 0 0
0.19703 0.0166093 0.0107722
0 0 0.504972
0.169182 0 0.0492475
0 0 0
0.18984 0 0.101041
0 0 0.506469
0.0343893 0 0.223578
0 0 0
0.301844 0 0
0 0 0.228102
0 0 0.406421
0.160451 0 0.152821
0 0 0
0.189296 0 0.103414
0 0 0.55774
0.251177 0 0.185924
0.0816764 0 0.222094
0 0 0
0.189388 0 0.100879
0 0 0.279689
0.143522 0 0.104421
0 0.0113986 0
0.158217 0 0.188473
0 0 0.459488
0.222074 0 0.140838
0 0 0
0.191838 0 0.102299
0 0 0.349031
0 0 0.410622
0.265126 0 0.0689737
0 0 0.079728
0.229507 0.114307 0.194403
0 0 0.423453
0.217426 0 0.0532773
0 0.105777 0
0.375255 0 0.0544424
0 0 0.142798
0.228768 0.116285 0.192646
0 0 0.458533
0 0 0.287369
0.107673 0 0.0356026
0 0 0.468938
0.218433 0 0.142107
0 0 0
0.190268 0 0.105818
0 0 0.566999
0 0 0.450836
0.328327 0 0
0 0 0.303071
0 0 0.428431
0.401912 0 0
0 0.0419859 0
0.296525 0.0983172 0.0866626
0 0 0.229443
0 0 0.405349
0.029725 0 0.327287
0 0 0
0.307308 0 0
0 0 0.379029
0.221257 0 0.144579
0 0 0
0.193402 0 0.104054
0 0 0.517251
0.0365083 0 0.229756
0 0 0
0.309539 0 0
0 0 0.394368
0.0388621 0 0.225887
0 0 0
0.406707 0 0
0 0.0382919 0
0.194197 0 0.106327
0 0 0.349158
0 0 0.413268
0.268399 0 0.0741384
0 0 0.0817185
0.236713 0.121542 0.198718
0 0 0.41659
0.113141 0 0
0 0 0.0802424
0.235918 0.122621 0.202404
0 0 0.420096
0.11478 0 0
0 0 0.0820456
0.237128 0.121609 0.198567
0 0 0.41879
0.00818463 0 0.0657908
0 0 0
0.515126 0.0062985 0
0 0 0.0936788
0.237062 0.119212 0.1958
0 0 0.48314
0 0 0.377869
0.336233 0 0
0 0 0.310734
0 0 0.441762
0.388816 0 0
0 0 0.31348
0 0 0.442956
0.390963 0 0
0 0 0.314279
0 0 0.44316
0.35853 0 0.0746143
0 0 0.346305
0.198278 0.0138858 0
0 0 0.352897
0 0 0.322677
0 0 0.119276
0 0 0
0 0 0.355712
0.370645 0 0.0305728
0 0 0.145776
0 0 0.195566
0 0 0.0976282
0 0 0.285231
0.3452 0 0
0 0 0.285678
0.143307 0 0
0 0 0.267577
0.177821 0 0
0 0 0.129087
0 0 0.347373
0.127264 0 0
0 0 0.271839
0.128319 0 0
0 0 0.258523
0.0975602 0 0
0 0 0
0 0 0.0345864
0.0920806 0 0.184483
0 0 0.109611
0 0 0.488298
0.263302 0 0.237054
0 0 0
0.191699 0.0121748 0.00993432
0 0 0.499558
0.179984 0 0
0 0 0.15266
0 0 0.28955
0 0 0.30569
0.370318 0 0
0 0 0.30387
0.164154 0 0
0 0 0.286413
0.206955 0 0
0 0 0.0841947
0.0412389 0 0
0 0.0902712 0.00217774
0 0 0.412126
0.336033 0 0.0379974
0 0 0.278554
0.193315 0 0
0 0 0.26552
0.0955277 0 0.0271775
0 0 0
0 0 0.218644
0.0595247 0 0.308121
0 0 0.13871
0.196313 0.0148764 0.012647
0 0 0.296865
0.0917103 0 0.0112268
0 0.0107554 0
0.15062 0 0.186779
0 0 0.239283
0.0601135 0 0
0 0.0972837 0.0103198
0 0 0.45654
0.381963 0 0
0 0 0.311282
0.173789 0 0
0 0 0.291864
0.215335 0 0
0 0 0.0855216
0.0510803 0 0
0 0.0896102 0
0 0 0.354492
0.26087 0 0.092919
0 0 0.403506
0.162171 0 0
0 0 0.278553
0.20084 0 0
0 0 0.265108
0.0764019 0 0.121934
0 0 0
0.0331581 0.0128103 0.0279582
0 0 0.143356
0.134034 0 0.374114
0 0 0
0.187251 0 0.101362
0 0 0.326564
0 0 0.315239
0.0679376 0 0.118088
0 0 0.258603
0 0 0.329555
0.0770978 0 0.0264121
0 0 0.429391
0.179394 0 0
0 0 0.292869
0.226619 0 0
0 0 0.088073
0.0599634 0 0
0 0.0969946 0
0 0 0.361005
0.266164 0 0.0971031
0 0 0.412253
0.170279 0 0
0 0 0.0859666
0.148108 0 0
0 0.000535427 0.363237
0.339161 0 0
0 0 0.0103763
0.109816 0 0.0810644
0 0.0163167 0
0.0312918 0 0.164866
0 0 0.232628
0.0514691 0 0.305906
0 0 0
0.188556 0 0.1014
0 0 0.343423
0 0 0.400317
0.0827229 0 0.0445977
0 0 0
0 0 0.479288
0.381575 0 0.0361953
0 0 0.296821
0.228861 0 0
0 0 0.294075
0.226403 0 0
0 0 0.136385
0 0 0.240243
0.106671 0.0103723 0.109352
0.0431079 0 0.335209
0 0 0
0 0 0.283559
0.217174 0 0
0 0 0.132771
0.00961179 0 0.121601
0.36356 0 0
0 0 0.217445
0 0 0.279107
0.0225795 0 0.108981
0 0 0.224369
0.296666 0 0.188476
0 0.0121032 0
0.0587426 0 0.268117
0 0 0.070178
0 0 0.484801
0.260177 0 0.237027
0 0 0
0.191282 0.020031 0.0126585
0 0 0.496779
0.184009 0 0
0 0 0.296821
0.228861 0 0
0 0 0.294075
0.133068 0 0.0287159
0 0 0
0 0 0.351029
0 0 0.268603
0.410583 0 0.118355
0 0 0.283559
0.126479 0 0.0284749
0 0 0
0 0 0.278414
0.36524 0 0
0 0.11163 0.232971
0 0 0.332258
0.132718 0 0
0 0 0.13676
0 0 0.19224
0 0 0.235296
0 0 0.108606
0.195399 0.0172224 0.0126652
0 0 0.501668
0.259001 0 0
0 0 0.0734141
0.218039 0.111396 0.186145
0 0 0.394549
0.0299542 0 0
0 0 0.294655
0.228033 0 0
0 0 0.291301
0.1978 0 0.0646061
0 0 0.177324
0.134033 0.170813 0.111708
0 0 0.415628
0 0 0
0 0 0.303059
0.171708 0 0
0 0 0.283559
0.190386 0 0.0637798
0 0 0.171975
0.0863384 0.105575 0
0 0 0.216237
0.230732 0 0
0 0 0.324674
0.150742 0 0
0 0 0.151301
0.16372 0 0.35808
0 0.0750338 0
0.245361 0 0.218261
0 0 0
0.185042 0 0.102312
0 0 0.485835
0.239832 0 0.0173422
0 0 0
0 0 0.45981
0.428359 0 0.123499
0 0 0.294311
0.228119 0 0
0 0 0.292337
0.324595 0 0
0 0 0.0430162
0 0 0.290026
0.253626 0 0.128883
0.0686977 0 0.205605
0.0226478 0 0
0 0 0.283559
0.313757 0 0
0 0 0.0396373
0 0 0.184459
0.0643891 0 0.0342086
0.0369827 0 0.220097
0.17524 0 0
0 0 0.162218
0 0 0.228977
0.145245 0 0.222826
0 0 0.193808
0.222318 0.108105 0.186155
0 0 0.398696
0 0 0
0 0 0.184984
0.225614 0.169552 0.0959421
0 0 0.409991
0 0 0
0 0 0.293041
0.225015 0 0
0 0 0.292693
0.222874 0 0
0 0 0.352552
0.00622125 0 0.225903
0 0 0.223312
0.213299 0 0.0462402
0 0 0.282526
0.215181 0 0
0 0 0.145925
0 0 0.199009
0.135521 0 0.0680431
0 0 0.255796
0.193969 0 0
0 0 0.39614
0 0 0.407338
0.28658 0 0
0 0 0.0477665
0 0 0.385553
0.330983 0 0.0373339
0 0 0.254113
0 0 0.337742
0.291024 0 0.0560638
0 0 0.251397
0.0251257 0 0
0 0 0.297043
0.226348 0 0
0 0 0.309609
0.0490376 0 0.0327158
0 0 0.266044
0.0512331 0 0.226906
0.231356 0 0
0 0 0.240773
0.0220758 0 0
0 0 0.14901
0 0 0.201041
0.274043 0 0
0 0.0228808 0.0781943
0 0 0.202428
0.242338 0 0
0.0937825 0.042507 0.168671
0 0 0.445531
0.215505 0 0
0 0 0.197055
0 0 0.402479
0.179452 0 0
0 0 0.318652
0.155125 0 0.0216411
0 0 0.166224
0.00737047 0.0404398 0.218259
0.289523 0 0.0534645
0 0 0.248099
0.0249563 0 0
0 0 0.292493
0.223711 0 0
0 0 0.305312
0.146339 0 0.0181883
0 0 0
0 0 0.25229
0.212418 0 0.0482003
0 0 0.345952
0 0 0.237335
0.314017 0 0
0 0 0.434788
0.0241619 0 0.227052
0.00968828 0.032747 0.033755
0 0 0.144962
0 0 0
0.301832 0 0
0 0 0.437286
0 0 0.355944
0.250696 0 0
0 0 0.253589
0.0281269 0 0
0 0 0.315067
0.155998 0 0.0168576
0 0 0.161596
0 0 0.295649
0.253266 0 0
0 0 0.329344
0.226214 0 0
0 0 0.290272
0.223756 0 0
0 0 0.350144
0 0 0.414472
0.197822 0 0
0 0 0.335035
0.047793 0 0.0302535
0 0 0.199842
0.294012 0 0
0 0 0.224283
0.0626933 0 0.0288389
0 0 0.0698694
0 0 0.090151
0.349226 0 0.0702519
0 0 0.113931
0.230579 0.11648 0.195293
0 0 0.422481
0 0 0
0 0 0.168508
0 0 0.304744
0.263472 0 0
0 0 0.342519
0.238332 0 0
0 0 0.31803
0.13017 0 0.1357
0 0 0.193381
0.331821 0 0
0.0812106 0.0989178 0.23246
0.0935179 0 0
0 0 0.246583
0.0245501 0 0
0 0 0.306083
0.12477 0 0.131765
0 0 0.187007
0.316526 0 0.035409
0 0 0.30523
0.0610233 0 0
0 0.124933 0.246851
0.267943 0 0
0.16622 0.0296765 0.129094
0.0743812 0 0
0 0 0.274184
0 0 0.168257
0.413207 0 0
0 0 0.328498
0 0 0.427396
0.268888 0 0
0 0 0.364348
0.133771 0 0.13858
0 0 0
0.341797 0 0
0.00983294 0 0.199292
0.0676785 0 0
0.0741784 0 0.218482
0.130015 0 0
0 0 0.206131
0.108047 0 0.00110123
0 0 0.165642
0.00683511 0.0379146 0.215481
0.294816 0 0
0.0290864 0.0713004 0.166218
0.159261 0 0
0 0 0.118464
0 0 0.0398923
0 0 0.188841
0.321804 0 0
0.104455 0.0985867 0.11258
0.0614006 0.188752 0.068761
0 0 0.280012
0.0835603 0 0
0 0.171881 0.214875
0.194563 0 0.10541
0 0 0.523168
0.142327 0 0.141447
0 0 0.205546
0.346213 0 0.0408048
0 0 0.334482
0.172423 0 0
0 0 0.308697
0 0 0.227104
0.0373935 0.190916 0.201163
0.311314 0 0
0.0356574 0.070377 0.177323
0.0661223 0 0
0 0 0.236177
0 0 0
0 0 0.170131
0.0367551 0.0395143 0.103645
0.0341163 0.186878 0.193723
0.395411 0 0.0383019
0 0 0.158495
0 0 0
0 0 0.227284
0.129402 0 0
0 0 0.138808
0.202006 0 0.0208699
0 0 0.103163
0.278485 0 0
0.0194688 0.0976858 0.126529
0.240563 0.118806 0.19986
0 0 0.459587
0.17579 0 0
0 0 0.262329
0.0906515 0 0.128004
0 0 0
0.403163 0 0.12872
0 0 0.31367
0 0 0
0 0 0.24207
0.24481 0 0
0 0 0.0883417
0.0409544 0.0376446 0.107318
0.0347085 0.187531 0.199018
0.309347 0 0
0 0.0699924 0.192064
0 0 0.0465048
0 0 0.145553
0.0263343 0 0
0 0 0.0823672
0.00787019 0.0372831 0.221379
0.302317 0 0
0.0312317 0.0705996 0.17194
0.0706953 0 0
0.241339 0.190037 0.168175
0.192257 0 0
0 0 0.152447
0 0 0
0 0 0.252094
0 0 0.0274642
0 0 0.0335647
0.0133824 0 0
0 0 0.196693
0 0 0.153835
0 0 0.0437708
0 0 0.00969731
0 0 0
0 0 0.219816
0 0 0
0 0 0
0 0.118992 0
0 0 0.0335679
0 0 0.144554
0 0 0.0340802
0 0 0
0 0 0.185474
0 0 0.21571
0 0 0.184723
0 0 0.121263
0 0 0.0667903
0 0 0
0 0 0
0 0 0
0 0.0821915 0
0 0 0
0 0 0.146227
0.00179468 0 0.0819878
0 0 0.150915
0 0 0.196948
0 0 0.0219701
0 0 0.067804
0 0 0.195378
0 0 0.188804
0 0 0.110578
0 0 0.124964
0 0 0.229029
0 0 0
0.0215549 0 0
0 0 0
0 0 0
0.147951 0 0
0 0 0.0416659
0 0 0.0540206
0 0 0.0305423
0 0 0.0626317
0 0 0.151248
0 0 0.0474272
0 0 0.191847
0 0 0.197824
0 0 0.16768
0 0 0.0472665
0 0 0
0 0.0917306 0
0 0 0.198401
0.0315564 0 0.218105
0 0 0.0099646
0.0670606 0 0
0 0 0.17224
0 0 0.0326924
0 0 0.160397
0 0 0.0447731
0 0 0.164492
0 0 0.0475025
0 0 0.196647
0 0 0.201104
0 0 0.0566287
0 0 0.195457
0.194749 0 0
0.125159 0 0.0578919
0 0 0.192701
0 0 0.00104703
0 0 0
0.00409599 0 0.203157
0 0 0.187589
0 0 0.040312
0 0 0.181508
0 0 0.0511247
0 0 0.188096
0 0 0.0558295
0 0 0.21608
0 0 0.216254
0 0 0.203045
0 0 0
0 0 0
0 0 0.191265
0 0 0.107308
0 0 0
0 0 0
0 0 0.37382
0 0 0.196649
0 0 0.0560336
0 0 0.192262
0 0 0.0610821
0 0 0.214699
0 0 0.0681866
0 0 0.24807
0 0 0.2378
0 0 0.215099
0 0 0.223704
0 0 0.0633608
0 0 0.243518
0 0 0.214337
0 0 0
0.0276964 0 0.0374354
0 0 0.250017
0 0 0.206901
0 0 0.0574976
0 0 0.212338
0 0 0.0741406
0 0 0.243164
0 0 0.101464
0 0 0.300553
0 0 0.238794
0 0 0.243795
0 0 0.231759
0 0 0.208649
0 0 0.211657
0 0 0.215231
0 0 0
0 0 0.192936
0 0 0
0 0 0.255582
0 0 0.220172
0 0 0.343791
0 0 0.168078
0 0 0.370125
0 0 0.0795445
0 0 0.346698
0 0 0.254026
0 0 0.267296
0 0 0.235931
0 0 0.204572
0 0 0.211267
0 0 0.217034
0 0 0
0 0 0.200219
0 0 0
0 0 0.0431927
0 0 0
0 0 0.00650135
0 0 0
0 0 0.197623
0 0 0
0 0 0.295252
0 0 0.359244
0 0 0.288138
0 0 0.292426
0 0 0.231238
0 0 0.201553
0 0 0.208692
0 0 0.217833
0 0 0
0 0 0.206652
0 0 0
0 0 0.0614535
0 0 0.315736
0.00359203 0 0.169164
0 0 0.33265
0 0 0.0757595
0 0 0.328737
0 0 0.370142
0 0 0.427828
0 0 0.528378
0 0 0.20631
0 0 0.106447
0 0 0.208421
0 0 0.218301
0 0 0
0 0 0.209473
0 0 0
0.0129542 0 0.19218
0 0 0.337641
0 0 0
0 0 0
0 0 0.251273
0 0 0.328328
0 0 0.578786
0 0 0.48019
0 0 0
0 0 0
0 0.00918609 0.239795
0 0 0.112186
0 0 0.217871
0 0 0
0.00759408 0.335394 0
0 0 0
0 0 0.0605153
0 0 0
0 0 0.181952
0 0 0.0796565
0 0 0.436222
0 0.0896568 0.675204
0.193076 0.114772 0.37278
0 0 0
0 0 0.267426
0 0 0.161715
0 0 0
0 0 0.149094
0 0 0.218429
0 0 0
0.13877 0.326494 0
0.0689581 0 0.0418787
0.0106305 0 0.199507
0 0 0.125184
0 0 0.302681
0 0 0.182733
0 0.105616 0.363669
0 0 0
0 0 0.20345
0 0 0.285237
0 0 0.325386
0 0 0.244408
0 0 0.0420899
0 0.225428 0.28394
0 0 0.116133
0 0 0
0 0 0.0239645
0 0.268695 0.31984
0 0.0569346 0.105906
0.00717043 0.074735 0.280389
0 0.0876163 0.0492268
0.0426796 0.129088 0.287146
0 0 0
0 0 0.318585
0 0 0.402447
0 0 0.332907
0 0 0.334762
0 0 0.252667
0 0 0.117424
0 0 0
0 0 0.157096
0 0 0
0 0 0.0942433
0 0 0
0 0 0.113005
0 0.0523933 0.0984224
0.0160727 0.0937807 0.274624
0 0 0
0 0 0.153196
0 0 0.33862
0 0 0.358237
0 0 0.345879
0 0 0.303491
0 0 0.28664
0 0 0.181227
0 0 0.0535184
0 0.273258 0.308867
0 0 0
0 0.0174456 0.182628
0 0 0
0 0 0
0.0378688 0.0290698 0.308105
0.183272 0 0.258701
0 0 0.00168163
0 0 0
0.0198234 0.0358521 0
0 0 0.0256494
0 0 0.374248
0 0 0.0269334
0 0 0.0965573
0 0 0
0 0 0.080824
0.107961 0 0
0.309652 0.112539 0.0562848
0.014594 0 0.371444
0 0 0.324534
0.0320214 0 0.052345
0 0 0
0 0.111538 0.125257
0.0654126 0 0
0 0 0.172489
0.16214 0 0
0 0 0.244107
0 0 0.202865
0 0 0.107487
0 0 0
0.1042 0 0.0159151
0 0 0.16696
0 0 0
0 0.0921761 0.136828
0.127503 0 0.158249
0 0 0.438667
0 0 0
0 0 0.18592
0 0 0
0 0.0374365 0.0066084
0 0 0.164522
0 0 0.126283
0 0 0.134543
0 0 0.194551
0 0 0.0759684
0.0406102 0.165485 0
0 0 0
0 0 0.320962
0 0 0
0.0635931 0 0.0375033
0 0 0.304805
0 0 0.281435
0 0 0.292957
0 0 0.500988
0.0978589 0.0579793 0
0 0 0.619917
0.0726108 0 0.12
0.0406157 0 0.0440093
0 0.0791347 0
0 0 0
0 0 0.350828
0 0 0.267724
0 0 0.26903
0 0 0.271219
0 0 0.187605
0 0 0.318822
0 0 0.155875
0 0 0.391158
0 0 0.22706
0 0 0
0.0740871 0 0.0418476
0 0 0.306084
0 0 0
0 0 0.140766
0 0 0.167301
0.106889 0 0.123071
0.0925274 0 0.322761
0 0 0.451384
0 0 0.395375
0.0897725 0 0
0 0 0.232641
0 0 0
0 0 0.238107
0 0 0
0 0 0.0611036
0 0 0.143182
0 0 0.0937524
0 0 0.0890303
0 0 0
0 0.00912539 0
0.00215089 0 0.530389
0.363617 0 0
0 0.327551 0.0346794
0 0 0
0 0.326555 0.0637846
0 0 0.063796
0 0 0.151665
0 0 0.251842
0 0 0.205315
0 0 0.196464
0 0 0.19259
0 0 0.0562879
0 0 0
0 0 0.0982397
0 0.0760276 0
0.0764952 0 0.0469925
0 0.0745778 0
0.0578506 0 0.0460543
0 0 0.256054
0 0 0.207743
0 0 0.194799
0 0 0.189055
0 0 0.188137
0 0 0.195482
0 0 0
0 0 0.218287
0 0 0
0 0 0.216579
0 0 0
0 0 0.196688
0 0 0.206304
0 0 0
0 0.0344447 0.0719355
0 0 0.0952929
0 0 0.0861281
0 0 0.162062
0 0 0.141471
0 0 0.436309
0 0 0
0 0.00956301 0.199077
0 0 0
0 0 0.181416
0 0 0.196746
0 0 0
0.00590347 0 0.0119045
0 0 0.0779598
0 0 0.0805306
0 0 0.0417927
0 0 0.199808
0 0.125609 0
0 0.00984836 0.181367
0 0 0
0 0 0.171002
0 0 0
0 0 0
0 0 0.250387
0 0 0.19023
0 0 0.197064
0 0 0
0.595458 0.170927 0
0 0 0.199647
0 0 0.385226
0.173826 0 0.165069
0 0 0.0280726
0.360253 0 0.0418873
0 0 0.321103
0 0 0.0715446
0 0 0
0.363594 0 0.0430893
0 0 0.322981
0 0 0.069471
0 0 0.21455
0.36486 0 0.0438388
0 0 0.364152
0 0 0
0 0 0.0286783
0.473036 0.106264 0.0267907
0 0 0.202863
0 0 0.249866
0.0368261 0 0.342617
0 0 0
0.43512 0 0
0 0 0.348401
0 0 0.451284
0.401558 0 0
0 0 0.320245
0 0 0.456424
0.40395 0 0
0 0 0.268241
0.0970431 0 0.133812
0 0 0
0.532936 0.0379188 0.120581
0 0 0.260465
0 0 0.284901
0.0794361 0 0.292937
0.320447 0 0
0 0 0.124163
0.248905 0.118474 0.208994
0 0 0.451786
0 0 0.0728221
0 0 0.218097
0.369068 0 0.045086
0 0 0.367182
0 0 0
0 0 0.259604
0.372012 0 0.045604
0 0 0.352745
0.191815 0 0
0 0 0.324633
0 0 0.388151
0.250635 0.0325441 0.137742
0 0 0.133202
0.34518 0.101732 0
0 0 0.0031631
0.480059 0.107446 0.0263979
0 0 0.258587
0 0 0.28731
0.448022 0 0.0463595
0 0 0.177984
0 0 0.0543511
0 0 0
0.539161 0.0401331 0.122703
0 0 0.208073
0 0 0.0529802
0 0 0
0.427707 0 0.139829
0 0 0.331095
0 0 0
0 0 0.18833
0 0.0371211 0.261191
0.613845 0.175347 0
0 0 0.205253
0 0 0.397808
0.212837 0 0.0419249
0 0 0.229013
0 0 0.336195
0.41034 0 0
0 0 0.329924
0 0 0.372918
0.454512 0 0.047593
0 0 0.235379
0 0 0.292037
0.340119 0 0.0663567
0 0.00382913 0.346102
0 0 0
0 0 0.230924
0 0.0841305 0.297613
0.182622 0 0.17157
0 0 0.264069
0.376567 0 0.0452588
0 0 0.374497
0 0 0
0 0 0.265105
0.378565 0 0.0478373
0 0 0.377502
0 0 0
0 0 0.233373
0 0 0.359361
0.216997 0 0.0449579
0 0 0.179827
0.186489 0.0371102 0.00837467
0 0 0.129124
0.433435 0 0.142376
0 0 0.379286
0.356007 0.100411 0
0 0 0.239008
0.493533 0.109025 0.0304501
0 0 0.253526
0 0.0020595 0
0 0 0.0328506
0.550792 0.0371565 0.126643
0 0 0.214344
0 0 0.0556329
0 0 0
0.439171 0 0.144237
0 0 0.339804
0 0 0.0756686
0 0 0.229251
0.383587 0 0.0490743
0 0 0.365577
0.198349 0 0
0 0 0.28201
0.103642 0 0.137956
0 0 0.225589
0.632146 0.175707 0
0 0 0.157988
0 0 0.0556329
0 0 0
0.555357 0.0380062 0.126326
0 0 0.271295
0 0 0.391163
0.424453 0 0
0 0 0.339623
0 0 0.384297
0.466728 0 0.0506599
0 0 0.187439
0 0 0.0539098
0 0 0.229804
0.450516 0 0
0.105759 0.102522 0.273296
0.240331 0 0
0 0 0.187623
0.143255 0.349549 0.194898
0.466138 0 0.0509012
0 0 0.244378
0 0 0.412781
0.192015 0 0.178438
0 0 0.273852
0.39682 0 0
0.0102848 0.105656 0.294115
0.0423118 0 0
0 0 0.146672
0 0.0632441 0.171696
0.47278 0 0.0541318
0 0 0.191642
0 0 0
0 0 0.200747
0.023814 0.0349882 0.256972
0.441966 0.276825 0
0 0 0.117319
0 0 0.284674
0.19416 0 0.179733
0 0 0.0352357
0.512098 0.106837 0.0335323
0 0 0.221369
0 0 0
0 0 0.200463
0 0 0.375207
0.229486 0 0.045346
0 0 0.244937
0.0244786 0.0331332 0.259151
0.359009 0 0.0708875
0 0 0.320431
0 0 0
0 0 0.198567
0 0 0.273034
0.0466289 0 0.371067
0 0 0
0.474752 0 0
0 0 0.37915
0 0 0.490097
0.319346 0 0
0 0 0.420049
0.0543223 0 0.264895
0 0 0
0.361662 0 0
0 0 0.454099
0.203559 0 0.0302527
0 0 0.203829
0.0279112 0.0361551 0.262764
0.363827 0 0.0739077
0 0 0.322451
0.0904519 0 0.317057
0.351153 0 0
0 0 0.380822
0.274241 0.115376 0.224937
0 0 0.526829
0 0 0
0 0 0.27955
0.403995 0 0.0516788
0 0 0.374814
0.179083 0 0
0 0 0.38402
0.284601 0.0520642 0
0.0271917 0 0.415754
0.134166 0 0
0 0 0.323126
0 0 0
0 0 0
0 0 0.313112
0.379937 0.0995906 0
0 0 0.00730551
0.524728 0.102122 0.0318984
0 0 0.224103
0 0 0.155623
0 0 0
0.541301 0 0.0296055
0 0 0.323352
0 0 0.245533
0 0 0
0.544852 0 0.03145
0 0 0.324354
0.148634 0 0.00932243
0 0 0
0 0 0.317812
0.288861 0 0.0671572
0 0 0.439221
0 0 0.419824
0.665134 0.176173 0
0 0 0.226173
0 0 0.412542
0.295213 0 0.188987
0 0 0
0.232448 0 0.131131
0 0 0.576562
0.268468 0 0.170782
0 0 0
0.233775 0 0.131875
0 0 0.580552
0.295565 0 0
0 0 0.195564
0 0 0.479787
0.226167 0 0
0 0 0.390633
0.201108 0 0.0356078
0 0 0
0 0 0.286356
0.0457043 0 0.389246
0 0 0
0.336149 0 0.174587
0 0 0
0.233852 0 0.13644
0 0 0.587366
0.387337 0 0.0815473
0 0 0.103051
0.280564 0.119891 0.236841
0 0 0.48743
0.0522252 0 0
0 0 0.45658
0 0 0.537382
0.26405 0 0
0 0 0.423228
0.179246 0 0.0598161
0 0 0
0.0967744 0 0.335948
0.24217 0 0.0985811
0 0 0
0.327898 0.0989709 0.261588
0 0 0.31815
0.284027 0.125437 0.240164
0 0 0.492269
0.179235 0 0
0 0 0.327556
0 0 0.51916
0.331566 0 0
0 0 0.446776
0.170398 0 0.184073
0 0 0
0.412122 0 0.0606915
0 0 0.365011
0.00839272 0 0.0210908
0 0 0.49761
0 0 0.0517368
0 0 0
0.413019 0 0.135657
0 0 0.302664
0.147931 0 0
0 0 0.274065
0 0 0.356749
0.324739 0 0
0.118423 0.254832 0.223047
0.114399 0 0
0.0270983 0.254766 0.237558
0 0 0
0 0 0.189319
0.0328544 0 0
0 0 0.0835015
0.041233 0.0404549 0.106801
0.0370847 0.190606 0.197822
0.310196 0 0
0.0227006 0.250362 0.229152
0.0234588 0 0
0 0 0.121569
0 0.0681957 0.0285604
0.209486 0.188893 0
0 0 0.249369
0.00692311 0.038299 0.212725
0.290746 0 0
0 0.0715749 0.171787
0.439685 0 0.0475238
0 0 0.230279
0 0 0.284267
0.332467 0 0
0.028288 0.257893 0.245406
0.0279533 0 0
0 0 0.0758336
0 0.0638888 0
0 0 0.0335512
0.198792 0.0399659 0
0 0 0.084547
0.0142467 0.0386471 0.231561
0.320092 0 0
0.0257244 0.252821 0.236157
0 0 0
0 0.136567 0.103118
0.0686981 0 0
0 0 0
0 0.0637214 0
0 0 0.0818985
0 0.0407236 0.240774
0.12762 0 0
0.0465037 0.135211 0.0834253
0.147344 0 0
0.107921 0.259047 0.0993907
0.0142082 0 0
0 0 0.109715
0 0.0563977 0.0160877
0 0.0646453 0.178487
0.248493 0.033602 0.135464
0 0 0.0775559
0 0.0643763 0
0 0 0.0905288
0.0167027 0.0369599 0.238106
0.328536 0 0
0.12004 0.255949 0.225424
0.113358 0 0
0 0.0728455 0.200747
0 0 0.0374879
0 0 0.0370544
0 0.0659969 0
0 0 0.085761
0.0435532 0.0413941 0.109509
0.0392774 0.19136 0.201793
0.313793 0 0
0.0232752 0.250489 0.232742
0.0238392 0 0
0 0 0.123815
0 0.0657948 0.0286238
0.21031 0.187192 0
0 0 0.249608
0 0.0340145 0.225624
0.107174 0 0
0 0.126058 0.0806515
0.249867 0.031288 0.138927
0 0 0.135069
0 0.0629482 0.161416
0.336065 0 0
0.0308365 0.261044 0.248286
0.0308573 0 0
0 0 0.0791927
0 0.0629636 0
0 0 0.0908439
0.0448276 0.0380173 0.112311
0.0416309 0.193792 0.208045
0.324089 0 0
0.0276137 0.254486 0.241129
0 0 0
0 0.135372 0.104835
0.0697147 0 0
0 0 0
0 0.063816 0
0 0 0.0860833
0 0.0401955 0.244417
0.129395 0 0
0.047593 0.135814 0.0879599
0.148674 0 0
0.110472 0.259206 0.0981563
0.00651579 0 0
0 0 0.106384
0 0.0542882 0.0191436
0 0 0.355995
0.210925 0 0.0416265
0 0 0.176303
0.212096 0.0368796 0
0 0 0.0929576
0.0165609 0.0355332 0.242505
0.335438 0 0
0.0300455 0.260028 0.248436
0 0 0
0 0.136959 0.110521
0.0745301 0 0
0 0 0
0 0.063117 0
0 0 0.0876112
0.0436262 0.0377136 0.110146
0.0396286 0.192157 0.203856
0.320117 0 0
0.0252923 0.2535 0.238834
0.0273548 0 0
0 0 0.125445
0 0.064557 0.0297895
0.213171 0.185591 0
0 0 0.255193
0 0.0269451 0.229349
0.104827 0 0
0 0.0552446 0
0 0 0
0 0 0.266827
0.383767 0 0
0.102057 0.100404 0.264614
0.122249 0 0
0 0.0732912 0.212161
0.0023806 0 0
0.0160667 0.190659 0
0.0607757 0.312939 0
0 0 0.0410645
0 0.062788 0.0316681
0.0433362 0.195075 0.210746
0.331485 0 0
0.0285986 0.258068 0.244835
0 0 0
0.0383111 0.322061 0.149327
0.111844 0.0158636 0
0 0.309361 0
0.0542437 0.306649 0
0 0 0.0382142
0 0.0651986 0.172321
0.133757 0 0
0.0498434 0.13566 0.0883937
0.153091 0 0
0.114454 0.261502 0.103102
0.00311904 0 0
0 0 0
0 0 0
0.553379 0.0355922 0.126033
0 0 0.257186
0 0 0
0 0 0.234686
0.05059 0.0360281 0.118237
0.24404 0.199528 0
0 0 0.28762
0 0.0356385 0.264514
0.143777 0 0
0.0424236 0.329538 0.154084
0.116836 0.0143679 0
0 0.126561 0
0.0276232 0.175616 0
0 0.0701954 0
0.0218368 0.230627 0
0 0 0
0 0.0625646 0
0 0 0.0911041
0 0.0363678 0.253665
0.239771 0.0354665 0.132513
0 0 0.12967
0 0.0645823 0.0321478
0.217091 0.188501 0
0 0 0.0481727
0 0 0.0374219
0 0 0.25583
0 0 0.0556288
0 0 0.229783
0.446552 0 0
0.00830607 0.103181 0.291047
0 0 0
0.0609403 0.140059 0.0978906
0.167857 0 0
0 0 0.170853
0 0 0
0 0 0.137214
0.214843 0.0351922 0
0 0 0.0958646
0.0476219 0.0339312 0.115555
0.0742943 0.196495 0.0852311
0.044336 0.195538 0.212853
0.335227 0 0
0 0.0723756 0.206176
0 0 0.0397551
0 0 0.0934258
0 0.0634591 0.176126
0.138092 0 0
0.130851 0.321884 0.131271
0.190786 0 0
0 0.0637516 0
0 0 0.0709146
0.469484 0 0.0525494
0 0 0.190559
0 0 0
0 0 0.195353
0.0521611 0.0351324 0.121582
0.0494572 0.200148 0.222664
0.351252 0 0
0.133732 0.266045 0.240406
0.12514 0 0
0 0.0727196 0.214063
0 0 0.0582082
0.00489312 0 0.163717
0 0 0
0 0 0.160289
0.264803 0 0
0 0 0.0945452
0.0479366 0.0358231 0.114832
0 0.195948 0.229153
0.246298 0.0323613 0.136347
0 0 0.0805631
0 0.0630411 0
0 0 0
0 0 0
0.0239047 0.0336724 0.257821
0.356733 0 0.0703879
0 0.00085222 0.359736
0 0 0
0 0 0.311267
0.280001 0 0
0 0 0.0418377
0.220358 0.0345727 0
0 0 0.0961802
0.0516294 0.0346219 0.119597
0.0479707 0.198722 0.219357
0.346227 0 0
0.129123 0.263551 0.236529
0.123086 0 0
0.0331811 0.264623 0.254809
0 0 0
0 0 0.203208
0.0377433 0 0
0 0 0.0914197
0.0185787 0.0361837 0.243316
0.338577 0 0
0 0 0.0333089
0 0 0.0923795
0 0 0
0 0 0.144756
0.197312 0.0349218 0.00957766
0 0 0.135391
0.458752 0 0
0.110655 0.103166 0.278839
0.129179 0 0
0 0 0.29837
0.0463848 0 0
0 0 0.369236
0.0762192 0 0.0464063
0 0 0.264992
0.275569 0 0
0 0 0.0407863
0.217928 0.0364887 0
0 0 0.0402087
0.217686 0.0383499 0
0 0 0
0 0 0.205404
0.303933 0 0.160577
0.0758258 0 0.303672
0 0 0
0 0 0
0 0 0
0.284182 0 0.0663013
0 0 0.356521
0.409827 0 0
0 0 0.245252
0.141904 0 0.00595157
0 0 0.196874
0.0233215 0.0321232 0.256176
0.362303 0 0
0.135644 0.270188 0.242548
0.129321 0 0
0.0496629 0.0717892 0.198561
0.0865509 0 0
0.092807 0 0.248302
0.0436698 0 0
0 0 0.341548
0.274996 0 0
0 0 0.413703
0.0222255 0 0.263712
0.210926 0.197237 0
0 0 0.0864857
0.431602 0 0.142093
0 0 0.151841
0 0 0
0.307241 0 0
0 0 0.304401
0.0525286 0 0
0 0 0.35825
0.288776 0 0
0 0 0.375304
0.198773 0 0.0296423
0 0 0.140299
0.227216 0.0327396 0
0 0 0
0 0 0.0785395
0.123438 0 0.139133
0.319488 0 0
0.205467 0.0116391 0.157822
0.0918666 0 0
0.189214 0.207088 0.218802
0 0 0
0 0 0.188749
0.243101 0 0
0 0 0
0 0 0.177489
0 0 0.288698
0 0 0.322159
0.281733 0 0.0729154
0 0 0.367872
0.288097 0 0
0 0 0.367166
0.285378 0 0
0 0 0.363335
0.285162 0 0
0 0 0.44133
0 0 0.304764
0.13758 0 0.118921
0.0784841 0.198123 0.0996659
0.244071 0.194992 0
0 0 0.304421
0.0172908 0.0254326 0.266324
0.346614 0 0
0 0 0.0440868
0 0 0.0836813
0 0 0.593351
0.469734 0 0.0663301
0 0 0.379674
0.291068 0 0
0 0 0.377708
0.288392 0 0
0 0 0.377116
0.285507 0 0
0 0 0.395758
0.0778473 0 0.0579998
0 0 0.2896
0.170319 0 0
0 0.202591 0.0938563
0.213035 0 0
0.164973 0.140723 0
0.173846 0 0
0.138217 0.272422 0.143999
0.0282157 0 0
0 0 0
0 0 0
0.29612 0.134999 0
0.0809725 0 0.475462
0.0775648 0 0
0.141605 0.265156 0.280287
0.135427 0 0
0.141358 0.265106 0.279817
0.133593 0 0
0.139339 0.264785 0.280257
0.13415 0 0
0.141597 0.263411 0.278858
0.13303 0 0
0.13892 0.262928 0.277634
0.0705339 0 0
0.17098 0.262915 0.133137
0.0940067 0.139033 0
0.307651 0.325331 0
0.0604019 0.0941039 0
0 0 0.0830159
0 0 0.269488
0 0 0.0292609
0 0 0
0 0 0.0159387
0 0 0
0 0 0.215889
0 0 0.0912722
0 0 0.263923
0 0 0.106965
0 0 0
0 0 0
0 0.292539 0.280916
0 0 0
0 0.14719 0.209023
0 0 0.313664
0 0 0
0 0 0.266562
0 0 0.0478751
0 0.134311 0.214641
0 0 0
0 0 0
0 0 0
0 0 0
0 0 0
0 0 0.103324
0 0 0.082758
0 0 0
0 0 0
0 0 0.0460981
0 0 0.00382841
0 0 0.207894
0 0 0.0882502
0 0 0
0 0 0.00442877
0 0.0243235 0.128868
0 0 0
0 0 0
0 0.0996227 0.12719
0 0 0
0 0 0.0823316
0 0 0
0 0 0
0 0 0
0 0.0716189 0.138043
0 0 0.0861074
0 0 0
0 0 0
0 0 0
0 0 0.0812822
0 0 0.0399049
0 0.21044 0.251344
0 0 0
0 0 0.162768
0 0 0
0.0223044 0 0.00106831
0 0 0.219523
0 0 0.19347
0 0 0.200442
0 0 0.307616
0.0273365 0.0342007 0
0 0 0.0912375
0 0 0
0 0 0
0 0 0.157311
0 0 0.0505886
0 0.235135 0.301639
0 0 0.0932684
0 0 0.198011
0 0 0.203692
0 0 0.151381
0 0 0.104027
0.0356431 0 0
0 0.170348 0.222196
0 0 0
0 0 0
0 0.199464 0.276331
0 0 0.0211162
0 0 0
0 0 0.14158
0 0 0.204079
0 0 0
0 0 0.448146
0.395951 0 0
0 0 0.128519
0 0 0
0 0 0
0 0 0.0596788
0 0 0
0 0 0.150607
0 0 0
0 0 0.181764
0 0 0.212328
0 0 0.026561
0 0 0.427182
0.284762 0 0
0 0 0.459748
0 0 0
0 0 0
0 0.219954 0.26498
0 0 0
0 0 0.178096
0 0 0
0 0 0.182642
0 0 0.216467
0 0 0.240771
0 0 0.270207
0.348205 0 0
0 0 0
0 0.0489878 0.180549
0 0 0
0 0 0
0 0.223418 0.285153
0 0 0
0 0.222388 0.298407
0 0 0.117049
0 0 0.178013
0 0 0.045529
0.0926635 0 0
0 0 0.291555
0 0 0
0 0 0
0 0 0.0812801
0 0 0
0 0 0.0620293
0 0 0
0 0 0.156723
0 0 0.38238
0.247588 0 0
0 0 0.156366
0 0.110936 0
0 0 0
0 0 0.0315772
0 0.231678 0.261526
0 0 0
0 0 0.166971
0 0 0.0614428
0 0.250647 0.540953
0.340988 0.00920488 0
0 0 0.485565
0.359381 0 0
0 0.142613 0
0 0 0.0517879
0 0.0720373 0.196119
0 0 0
0 0 0
0 0.195352 0.276718
0 0 0.0253811
0 0 0.162316
0 0.261753 0.139496
0 0.0676722 0.150906
0 0 0.278454
0 0 0
0 0 0
0 0 0.0701582
0 0 0
0 0 0.456186
0 0 0.125342
0.390288 0 0
0 0 0
0 0.118442 0
0 0 0
0 0.123453 0
0 0 0.35713
0 0 0.475732
0.255737 0.521086 0.0519624
0.32796 0.0457117 0.0812232
1.01696 0.29669 0
0.162726 0 0
0 0 0
0 0.128195 0
0 0.134723 0
0 0 0.0141391
0.012553 0.269132 0.483887
0.0465748 0 0
0 0.00089971 0.167361
0 0.00137003 0.174194
0.425631 0.0921031 0
0.164521 0 0
0 0 0
0 0.133797 0
0 0 0.0320397
0 0.0803703 0.453399
0 0.0215065 0
0.668402 0.0904672 0
0 0 0.418411
0.209308 0.440014 0.184634
0 0 0
0 0 0.307236
0 0.0293204 0.610553
0 0 0.286927
0.467327 0.232957 0.10934
0.500855 0 0
0 0 0
0 0 0
0.135644 0.0326832 0.0555573
0 0 0
0 0 0
0 0.183918 0.104835
0 0 0.496688
0.226535 0.196516 0
0.275805 0 0.0769575
0 0.105049 0
0.347708 0 0.179314
0 0 0
0.367725 0.0960139 0.117777
0 0 0.536667
0 0 0.520419
0.33456 0 0
0 0 0.44679
0.0569457 0 0.282345
0 0 0
0.374417 0 0
0 0 0.464987
0.42881 0 0
0 0 0.329061
0 0 0.434688
0.511293 0 0
0 0 0.116204
0.610183 0 0
0 0 0.117755
0.379774 0.282817 0.366978
0 0 0.472352
0.451766 0.0539013 0.196613
0 0 0.47283
0 0 0
0 0 0.296233
0.420536 0 0.057714
0.0013364 0 0.408144
0.182084 0 0
0 0 0.406634
0.291397 0.0528827 0
0.0265473 0 0.452901
0.137584 0 0
0 0 0.348622
0 0 0
0 0 0.223235
0.0652371 0.029645 0.149179
0.690094 0.180505 0
0 0.0425214 0.282861
0 0 0.115768
0.190604 0.292578 0.285646
0 0 0.239526
0.774231 0 0
0 0.12334 0.00125933
0 0.172566 0.0796263
0 0 0.19645
0.777454 0 0
0 0.0348707 0.102227
0 0.111327 0
0 0.235039 0.109146
0 0.331307 0.200917
0.551792 0 0
0 0.24481 0
0 0 0
0.103828 0.473737 0.0387362
0.272658 0.557476 0.0856939
0 0 0.181483
0.552663 0.0752492 0.199806
0 0 0.0899153
0 0.0562109 0
0 0 0.212128
0.331846 0.344915 0
0 0.0569987 0.144928
0 0.24109 0.0840203
0.397699 0.170507 0
0 0.286254 0
0 0.332854 0
0 0 0.0751345
0 0 0
0.173306 0.163586 0
0 0.526828 0
0 0.241843 0
0 0.466131 0.208393
0.358223 0.231173 0.24114
0 0 0.149698
0.775707 0 0
0 0.124108 0
0 0.114853 0
0 0.0692507 0.127619
0 0.31335 0
0.489749 0.329661 0
0 0.34355 0
0 0.270754 0
0.307906 0 0
0 0.50378 0
0 0.601115 0
0.274728 0 0
0 0.58168 0
0 0.354639 0
0 0.360189 0.0259207
0 0 0.109505
0.499258 0.284528 0
0 0.109002 0
0 0.332854 0
0 0 0.12018
0 0.126614 0
0.215471 0.392804 0
0 0.171773 0
0 0.252375 0
0 0 0
0 0.423787 0
0 0 0.0416253
0 0.336376 0
0 0.599247 0
0 0 0.249554
0.482715 0.226802 0
0 0.401479 0.0782722
0 0.241538 0.0824207
0.397699 0.170507 0
0 0.286254 0
0 0.331076 0
0 0 0.109343
0.558331 0.00979074 0
0 0.10663 0
0.0814368 0.270792 0
0 0.337711 0
0.0784114 0.273099 0
0 0.336443 0
0 0.270599 0
0 0.167957 0
0.0897396 0.336721 0
0 0.060486 0
0 0.349758 0
0 0.144162 0.021811
0.310182 0.562688 0
0 0 0.150255
0 0.0391306 0
0.323162 0.390245 0
0 0.315013 0.00342171
0 0.240718 0.0823744
0.396608 0.16869 0
0 0.283193 0
0.0794157 0.269755 0
0 0.335461 0
0.0813238 0.271492 0
0 0.334767 0
0.0772056 0.269376 0
0 0.333093 0
0.0739203 0.265389 0
0 0.329398 0
0 0.26576 0
0 0.166266 0
0.0970596 0.561854 0.347341
0.457342 0 0
0 0.286008 0
0 0.27227 0
0 0.14798 0.0234232
0 0.255408 0
0.398254 0.125586 0
0 0.583003 0
0.159822 0.00383149 0
0 0.550914 0
0.244218 0.208815 0
0 0.363618 0
0.0774867 0.266792 0
0 0.330314 0
0.0684396 0.260927 0
0 0.325693 0
0.0702532 0.260525 0
0 0.324538 0
0 0.543679 0.101659
0.489406 0.330317 0
0 0.366756 0
0 0.271752 0
0 0.168659 0
0 0.254634 0
0 0 0.0447482
0 0.334081 0
0 0.512583 0
0.398582 0.123488 0
0 0.576127 0
0.151209 0.00199869 0
0 0.573254 0
0.144295 9.83068e-05 0
0 0.477272 0
0.145479 0.00486867 0
0 0.253165 0
0 0.355425 0
0.323635 0.391855 0
0 0.337443 0
0.080961 0.273667 0
0 0.337421 0
0 0.272836 0
0 0.170025 0
0 0.342747 0
0 0 0
0 0.332911 0
0 0 0
0 0.332592 0
0 0 0.0432202
0 0.331985 0
0 0.194434 0
0.482625 0.226374 0
0 0.422608 0.0205721
0.0812785 0.270476 0
0 0.335775 0
0.0801781 0.272258 0
0 0.336039 0
0.0802749 0.269822 0
0 0.333941 0
0.079456 0.267218 0
0 0.331791 0
0.0779711 0.268494 0
0 0.331579 0
0 0.266483 0
0 0 0
0 0.0209257 0
0.422547 0.501732 0
0 0.424468 0.0230895
0.0807311 0.271459 0
0 0.335335 0
0.0808459 0.270298 0
0 0.333703 0
0.0783237 0.267948 0
0 0.332714 0
0.0771288 0.267826 0
0 0.331867 0
0.0772112 0.266661 0
0 0.0469807 0
0 0 0
0.421778 0.504596 0
0 0.424478 0.0261568
0.0809119 0.276511 0
0 0.335404 0
0.0763353 0.273597 0
0 0.333746 0
0.0767712 0.269754 0
0 0.330658 0
0.0749413 0.268709 0
0 0.0422319 0
0 0 0
0.425062 0.505265 0
0 0.424003 0.0298255
0.077039 0.27263 0
0 0.3349 0
0.075467 0.270728 0
0 0.331462 0
0.0738806 0.269227 0
0 0.0390965 0
0 0 0
0.429626 0.508441 0
0 0.425475 0.0295862
0.0775582 0.271687 0
0 0.335928 0
0.075745 0.271512 0
0 0.0382399 0
0 0 0
0 0.0233618 0
0 0 0
0.0429798 0.180993 0
0 0.0631832 0
0.0415621 0.179974 0
0 0.270242 0
0.0795188 0.26698 0
0 0.330605 0
0.0791973 0.266566 0
0 0.330095 0
0.0767977 0.265505 0
0 0.330415 0
0 0.103348 0
0 0.357998 0
0 0 0
0.174243 0.602726 0.0271929
0 0.0240799 0
0.102653 0.146348 0
0.14734 0.334471 0
0.0759142 0.363058 0
0.197253 0.395065 0.111795
0.0837248 0.270603 0
0 0.33612 0
0.0810998 0.270809 0
0 0.336451 0
0.08325 0.271446 0
0 0.275657 0
0 0.0412871 0
0 0.465499 0
0 0.284196 0
0 0 0.140871
0.03372 0 0
0 0.585162 0
0 0.517906 0
0.0143178 0.446332 0
0.196405 0.395714 0.111451
0.0828196 0.272566 0
0 0.337113 0
0.08325 0.271446 0
0 0.33544 0
0.0226464 0.247953 0
0 0.27697 0
0 0.257024 0
0 0.485979 0
0 0.513509 0
0.0137605 0.442488 0
0.107565 0.188427 0.0650048
0.0460464 0.182589 0
0 0.272858 0
0.0830819 0.269607 0
0 0.334583 0
0 0.0797301 0
0 0.136773 0
0 0.60314 0
0 0.515334 0
0 0.445088 0
0.111777 0.450283 0
0.0297786 0.455565 0.154951
0.0831674 0.272519 0
0 0.0479435 0
0 0 0
0 0.418832 0
0 0.512017 0
0.0637028 0.59928 0
0.0904683 0.183693 0.179059
0.0220388 0.356339 0
0 0.0427536 0
0 0 0
0 0.33961 0
0.0664813 0.595127 0
0.0876255 0.182306 0.175258
0.0273779 0.351644 0
0 0.0442604 0
0 0 0
0.0954311 0.335203 0
0 0.0642917 0
0.0312253 0.35265 0
0 0.0496016 0
0 0 0
0.0815365 0.266182 0
0 0.0526369 0
0 0 0
0 0 0
0.433008 0.511463 0
0 0.427719 0.0297465
0.0777262 0.268176 0
0 0.0372787 0
0 0 0
0.379098 0.380872 0
0 0 0
0 0 0
0.592531 0 0
0 0.151413 0.0348939
0 0.281442 0
0 0 0.130035
0 0 0
0.136668 0 0.0994342
0.521138 0 0.0611568
0 0 0
0 0.242147 0
0.125224 0.035426 0
0 0 0
0.141099 0 0.124156
0.106535 0 0
0.648165 0 0
0 0.0103954 0
0 0 0.0706265
0.186589 0 0
0 0 0
0 0 0.460634
0 0 0
0.474233 0.439118 0
0.440062 0 0
0.127837 0 0.54617
0.304896 0.523712 0
0 0 0
0.886525 0.202669 0
0.33764 0 0
0.0475124 0.0542438 0
0.291883 0 0
0 0.165113 0
0 0 0
0.0484044 0.333695 0
0.394922 0.320432 0
0.0252483 0 0
0.166217 0 0
0.328719 0.223844 0
0 0.0614631 0
0 0 0.223686
0.00756128 0 0
0 0.0470155 0
0.025621 0.0971025 0
0.248516 0 0
0 0.411085 0
0 0 0
0 0.278942 0
0.0717476 0.274059 0
0.495874 0 0
0.0891927 0 0
0.130106 0 0
0.434002 0.317276 0
0.148714 0 0
0.0296678 0 0.0234019
0 0 0
0 0 0
0 0.00988543 0
0.23423 0.478713 0
0.11623 0.265414 0
0.442657 0 0
0.130488 0 0
0.0823855 0.276443 0
0.233315 0 0
0 0 0.0194099
0.00494749 0.268859 0
0.264487 0.14564 0
0.62305 0.0696241 0
0.24207 0.0878812 0
0.016171 0.0464673 0
0.135129 0.0816214 0
0.27612 0.0962515 0
0 0 0.210232
0 0.267536 0
0.694994 0.156626 0
0.626452 0.337007 0
0.19575 0 0
0.175633 0.425869 0
0.242858 0 0
0.228004 0.155495 0.0910117
0.39545 0.188186 0
0.160108 0 0
0.257102 0 0
0.34011 0.119014 0
0.0542718 0.193324 0
0.824512 0.420714 0
0.456248 0.46366 0
0 0 0.0686178
0.288858 0.40711 0
0.30064 0.125117 0
0 0 0
0.237379 0.660737 0
0.241304 0.276096 0
0.496542 0 0
0 0 0
0.583863 0.529447 0
0.41175 0.453132 0
0.321053 0 0
0 0.393384 0
0.228855 0.326346 0
0.995724 0.0134719 0
0.508618 0 0
0.0576325 0.28502 0
0.463746 0.0389729 0
0.369338 0.589536 0.00722282
0 0.0336316 0
0.411324 0.147922 0
0.54715 0 0
0.101864 0.464412 0.0410809
0.239628 0.275057 0
0.417477 0 0
0.549164 0.370332 0
0 0.0432749 0
1.03256 0.0183582 0
0.541181 0 0
0.0575076 0.346716 0
0.912767 0 0
0.134848 0.109435 0
0.462909 0.184273 0
0.10056 0.27228 0.242014
0.260014 0 0
0.631629 0.690785 0
0.604103 0.301983 0
0.412405 0.238495 0
0.355803 0.475959 0
0.491398 0.202536 0
0 0 0
0.816798 0.693639 0
0.255809 0.140516 0
0.378171 0 0
0.0228659 0.298343 0.156479
0.561355 0.639739 0
0.367444 0.172016 0
0.552486 0.363778 0.00369534
0.0136781 0.0223387 0.146851
0.158076 0.0629431 0
0.389418 0 0
0 0.250059 0.269231
0.541631 0.714767 0
0.810439 0.0616085 0
0 0 0.250869
0 0 0
0.483757 0 0
0 0.241797 0.316696
0.526121 0 0
0.499416 0.70321 0.0755574
1.01313 0.139227 0
0.308135 0.0366534 0
0.138994 0 0
0.500649 0 0
0.362433 0 0.163051
0 0 0
0 0 0.0119273
0.424016 0 0
0.158447 0.558235 0
1.17461 0.401133 0
0.352277 0.0832601 0
0.246555 0 0
0 0.254822 0.0105919
0.13021 0.242241 0
0.220718 0 0
0.549784 0.00907755 0.000449042
0 0 0.257567
0 0.165039 0.153656
0.98487 0.597281 0
0.597545 0.114776 0
0.528704 0.0227802 0
0 0.533476 0.0863857
0.19253 0 0.0292882
0.494628 0.232026 0
0 0.0875277 0
0 0 0.0948159
0.616282 0 0
0.640716 0.336476 0
0.102699 0 0
0.263512 0.503111 0
0.0764281 0.356348 0
0.371181 0 0
0 0 0
0 0 0.0961015
0.52368 0.0564155 0
0.315546 0.193723 0
0.41727 0.0294894 0
0.303288 0.192322 0
0 0.30609 0
0.27456 0.320817 0
0 0 0.319201
0.587768 0.37229 0
0.508915 0 0
0.415018 0.114652 0
0 0 0
0 0 0
0.452458 0.0949532 0
0.367717 0.158278 0
0.373572 0 0
0 0 0.136603
0 0 0.320171
0 0.114102 0.0667119
0.135109 0.0745406 0
0 0.0250375 0.19043
0 0 0.0999367
0 0.00611132 0.279365
0.0790138 0 0
0.661818 0 0
0.342555 0 0.23297
0.50008 0 0.0552341
0 0 0
0.696931 0.118147 0
0.887619 0.452397 0.0914779
0 0 0
0 0 0
0 0 0
0 0.473072 0
0.250994 0.120612 0
0.348158 0 0
0.0015426 0.27374 0
0.0945045 0.0655112 0.101062
0.425902 0 0
0 0.0152812 0
0 0 0.001658
0 0 0
0 0 0.0551061
0 0 0
0 0 0
0 0.0248988 0
0 0 0
0 0 0
0 0.0279007 0
0 0 0
0 0 0
0 0 0
0 0 0
0 0 0
0 0 0
0 0.0518153 0.112443
0.100737 0.0833951 0
0 0.0239625 0
0 0.0666008 0
0 0.058081 0
0 0 0.125686
0 0 0
0 0.0244255 0
0 0 0.153702
0 0 0
0 0 0
0 0 0.130102
0 0 0.0382208
0 0 0
0 0 0.0544985
0 0 0
0 0 0
0 0 0.1237
0.160756 0 0.235999
0 0 0
0 0 0
0 0 0.0132756
0 0 0
0 0 0
0 0 0.0934908
0 0 0
0 0 0.110041
0.182106 0.0446951 0
0.0167439 0.00326803 0.0870876
0 0.00323507 0
0.0123819 0.017789 0.067128
0 0.0323445 0
0 0 0
0.034463 0.00982062 0.0770734
0 0.018243 0
0.0329948 0 0
0.0346198 0 0
0.0381189 0 0
0.0618291 0 0
0 0.0872173 0
0 0 0
0 0.0411517 0
0 0.0836579 0
0 0.000909432 0
0 0.0304313 0
0.0294357 0 0
0.0375956 0 0
0 0 0
0 0.0180719 0
0 0.0289235 0
0 0.00775286 0
0 0.126099 0
0 0.00438651 0
0 0.0973366 0
0 0 0
0 0.0844072 0
0 0.108098 0
0.118321 0.0193773 0
0.0875502 0 0
0 0.105729 0
0 0.170458 0.0389191
0 0.0516218 0.0427371
0 0.0397832 0
0 0 0
0 0.0883024 0
0 0 0
0 0 0
0 0 0
0 0 0.034974
0 0.126387 0
0 0.262824 0
0 0.21255 0
0.122358 0.0611668 0
0.213856 0.101765 0
0.0112484 0.214223 0.00545809
0 0.0497311 0
0 0 0
0.0502919 0 0.0308665
0 0.0985317 0
0 0 0
0 0.18913 0
0 0.345123 0
0 0.271809 0
0 0.277577 0
0 0.0129312 0
0 0 0
0 0.0902058 0
0 0.00974491 0
0 0.0410377 0
0 0.170036 0
0 0 0
0 0.045426 0
0.117857 0.400777 0
0 0.272735 0
0 0.108695 0
0.0246796 0 0
0.100801 0.0936158 0.189171
0 0 0
0.100287 0 0
0 0.0886685 0.117484
0 0.0901358 0
0 0 0
0 0.00230787 0
0 0.151879 0
0.0526904 0.291252 0
0 0.111391 0
0.0473029 0 0
0.344905 0.0800805 0
0.0494508 0.193824 0
0.0734902 0.0330049 0
0 0.1235 0
0 0.0636171 0
0 0.114588 0
0.0653416 0.221026 0.0519048
0.0949097 0 0
0.0144171 0 0
0 0.0741918 0.0493724
0.107915 0 0.331695
0.177832 0 0
0.00829154 0.0810887 0
0 0 0.00616982
0.00426355 0 0
0 0.0270281 0
0 0 0
0.06358 0 0
0 0 0
0 0 0
0 0 0
0.0500443 0 0.0350929
0 0 0
0.171995 0.0679762 0
0.291534 0 0.0730856
0 0.115336 0
0 0.0563425 0
0.141717 0 0
0 0 0
0 0.0879395 0
0 0 0
0 0.00217384 0
0 0 0.0364296
0 0 0
0.140333 0.0188524 0.139311
0 0.0208669 0
0.264953 0 0.0524981
0 0 0
0.188823 0 0.27064
0 0 0
0 0.0864924 0
0 0 0
0 0.0449376 0
0 0 0
0 0 0.0312932
0 0 0
0 0 0
0 0 0
0.143002 0 0.134147
0.164166 0.0242903 0
0 0 0
0 0 0.05431
0 0 0.223347
0 0.0719977 0
0.110304 0 0
0.159137 0 0.217109
0 0.104196 0
0 0 0
0 0.0633815 0
0 0 0
0.13851 0 0.120336
0 0 0
0.165483 0 0.247075
0 0 0
0.044523 0 0.0986372
0 0.0952093 0
0.0503747 0 0
0 0 0
0 0 0
0 0 0.0609908
0 0 0.154405
0.0158856 0 0
0.252231 0.048043 0
0.200703 0.135262 0
0 0 0
0 0.14788 0
0.0257715 0.352455 0
0.180196 0 0
0.274949 0.0373658 0
0 0.0945785 0
0.26711 0.101246 0
0.315085 0 0.0703368
0.143203 0.0964357 0.0405507
0.120752 0 0
0 0 0
0.216339 0 0
0 0 0
0 0 0.156744
0 0 0
0 0.0225963 0.0404218
0 0.069969 0
0 0.141473 0
0.544029 0.351368 0
0.422138 0.310948 0.0963253
0.230608 0 0.132792
0.371852 0 0.161897
0.0412723 0 0
0 0.0491203 0
0 0 0.206086
0.182319 0 0.165635
0.186055 0 0.457646
0.0452942 0 0
0.227565 0 0
0.134586 0 0.253772
0.0619943 0 0
0.392629 0.149787 0
0 0.237497 0
0.0276655 0.0301468 0
0 0.170515 0.0966765
0 0.0316434 0
0.0388126 0.0141786 0
0 0.0659057 0.0433138
0 0.0775597 0
0 0.246308 0
0 0 0
0.0348759 0.0445022 0.0610934
0.120048 0 0
0 0.185272 0
0 0 0.0740918
0.0561175 0.165206 0
0 0 0
0 0 0
0 0.124517 0
0.161284 0 0
0 0 0
0.0571561 0.196985 0
0 0.11255 0
0 0 0
0.0710143 0.235356 0.0395823
0 0 0
0.358933 0.213443 0
0 0 0
0.00792154 0.0604758 0
0 0 0
0 0 0
0 0.0230682 0
0 0 0
0 0.0470516 0.0745909
0 0 0.0923828
0.153688 0.137803 0.191151
0 0 0
0 0.0588542 0
0 0.0652916 0.0812161
0 0 0
0 0 0.210795
0 0.0125302 0
0 0 0.120076
0.0167983 0.0954151 0
0 0.00377244 0
0.10597 0.161591 0.00595236
0 0 0
0.176105 0.217936 0
0 0 0
0 0 0
0 0 0.0885769
0.0581006 0.0280925 0.0163504
0 0 0
0 0 0
0.0283401 0.0126675 0.139579
0.114102 0.431908 0
0 0 0
0.290938 0.0487395 0.0587013
0 0 0
0.187925 0.0570047 0.119759
0.0387537 0.138345 0
0 0 0.0588468
0 0.137514 0.257292
0.0279386 0.0892966 0
0 0.00126889 0.174995
0 0 0.00135336
0 0.0805297 0
0 0 0.287079
0.128847 0 0
0.00791721 0 0
0 0 0.229413
0.0700338 0 0
0 0 0
0 0.0552993 0
0.101257 0 0.0322688
0 0.188511 0.00738269
0.0659701 0 0
0 0.212123 0.114795
0.0618103 0.216097 0.139145
0 0 0
0.0947571 0 0
0 0.22186 0.0536598
