ply
format ascii 1.0
comment Created by Open3D
element vertex 353
property double x
property double y
property double z
end_header
0 0 0
0 0 0.033669
0 0 0.0349532
0 0 0
0 0.0933827 0
0 0.0400437 0.0589244
0 0 0.095514
0 0 0.360138
0 0.105184 0
0 0.13033 0
0 0 0.0969034
0 0 0.0714656
0 0 0.0452404
0.0821295 0.0484206 0
0.0156336 0 0.00969159
0 0 0.199537
0 0 0.180116
0 0 0.0537735
0 0 0
0 0.280298 0
0 0.0358283 0.0621235
0 0 0.0979866
0 0 0.345851
0 0 0
0.0123538 0.0957755 0
0.0612669 0.0159195 0.197213
0 0 0.196578
0.0150947 0.0700544 0.00936788
0 0 0
0 0 0
0.0832724 0.152981 0.129369
0 0 0
0.0647776 0.0510658 0.0884092
0 0 0.0257182
0.098916 0.0634498 0.0712241
0 0 0.0149804
0 0 0
0 0 0.07659
0.387604 0.375201 0.0558448
0 0 0.112445
0.334709 0.170563 0.0760318
0 0 0.0249282
0 0 0.261129
0 0 0
0 0.0823371 0.236564
0 0 0.198578
0 0 0.354663
0 0 0.269225
0 0 0.0652648
0 0 0.0741989
0 0 0.0387559
0 0 0.170768
0 0 0.231829
0 0 0.0396086
0.150909 0 0
0 0 0.195066
0 0 0.230686
0 0 0.039994
0 0 0.0855209
0 0 0.082104
0 0 0.126083
0 0 0.258461
0 0 0.129578
0 0 0
0 0 0.187842
0 0 0.33476
0.15685 0 0
0 0 0.142956
0 0 0.110634
0 0 0.185483
0 0 0.200303
0 0 0.0381293
0 0 0.398624
0.0672579 0 0.0291515
0 0 0
0.239497 0 0.0074248
0 0 0.0854259
0 0 0.118618
0 0 0.184054
0 0 0.186204
0 0 0.198433
0 0 0.12969
0 0 0
0.0969941 0.0985582 0.0944487
0 0 0
0.421943 0.0601887 0
0 0 0
0 0 0.104594
0 0 0.252124
0 0 0.185025
0 0 0.18615
0 0 0.186821
0 0 0.187394
0 0 0.109764
0 0 0
0.0828098 0.153635 0.127046
0 0 0
0 0 0.148392
0 0 0
0 0 0.150646
0 0 0
0.153808 0.0542036 0
0 0 0
0 0 0
0.278908 0.0845979 0.0511475
0 0 0
0.188983 0.0910497 0.113796
0 0 0.161455
0.215804 0.206721 0.188867
0 0 0.102765
0.260496 0.0667029 0.0898739
0 0 0.108008
0 0 0
0.279821 0.0849389 0.0488352
0 0 0
0.209448 0.0918549 0.0244407
0 0 0.132917
0 0 0.0613647
0 0 0.159867
0 0 0
0.28027 0.0853969 0.046041
0 0 0
0.130114 0 0.0373048
0 0 0.21538
0 0 0.159084
0 0 0.0221245
0 0 0
0.353801 0.257598 0
0 0 0.16465
0.15219 0.098741 0.106198
0 0 0.152189
0 0 0.0996455
0 0 0.034613
0 0 0
0 0 0
0.273524 0.295585 0
0 0 0.192724
0 0 0.138736
0 0 0.225423
0 0 0.0325377
0 0 0
0.274845 0.133449 0
0 0 0.00402755
0.175789 0.0931019 0
0 0 0.148358
0 0 0.15006
0 0 0.0996722
0 0 0.095603
0 0 0
0.268025 0.0851346 0.0452396
0 0 0
0.12191 0 0.0368358
0 0 0.210594
0 0 0.150787
0 0 0.0184396
0 0 0
0 0 0
0.270065 0.0845757 0.0449354
0 0 0
0.123065 0 0.036425
0 0 0.210718
0 0 0.151401
0 0 0.0293529
0 0 0
0 0 0
0.173901 0.123035 0.074226
0 0 0.047813
0.123367 0 0.0381055
0 0 0.216102
0 0 0.153813
0 0 0.0290358
0 0 0
0.286981 0.130422 0
0 0 0.00489312
0.158018 0.014443 0.0934438
0 0 0
0.126724 0 0.0387395
0 0 0.219639
0 0 0.0905468
0 0 0.100093
0 0 0
0.29089 0.0825453 0.0522027
0 0 0
0.189894 0.094371 0.116381
0 0 0.169457
0.157679 0.114315 0.117891
0 0 0.161184
0 0 0
0 0 0.0513337
0 0 0.00268966
0.419111 0.404317 0.0622948
0 0 0.121734
0.357052 0.179317 0.0790008
0 0 0.018415
0 0 0.020001
0 0 0.174421
0 0 0.0499336
0 0 0.0866256
0 0 0.168708
0 0 0.169868
0 0.0155084 0.0583706
0 0 0.176027
0 0 0.0767165
0 0 0
0 0 0.235456
0 0 0.189698
0 0 0.187776
0 0 0.160869
0 0 0.227346
0 0 0.160074
0 0 0.190127
0 0 0.203139
0 0 0.133318
0 0 0.0438878
0 0 0.0431618
0 0 0
0 0 0.109936
0 0 0.116917
0 0 0.0972581
0 0 0.144415
0 0 0.236733
0 0 0.166186
0 0 0.197027
0 0 0.199004
0 0 0.199158
0 0 0.213594
0 0 0.043675
0 0 0.244983
0 0 0.0665914
0 0 0.222176
0 0 0.172489
0 0 0.204873
0 0 0.206172
0 0 0.208179
0 0 0.220312
0 0 0
0 0 0.159114
0 0 0.256577
0 0 0.181308
0 0 0.214092
0 0 0.213266
0 0 0.126456
0 0 0.193584
0 0 0.216524
0 0 0.217356
0 0 0.159489
0 0 0.0555965
0 0 0.0522792
0 0 0.0841803
0 0 0.215755
0 0 0.216464
0 0 0.116565
0 0 0.181546
0 0 0.207506
0 0 0.210596
0 0 0.22753
0 0 0.0504798
0 0 0.000555192
0 0 0.0950389
0 0 0.19135
0 0 0.197765
0 0 0.201961
0 0 0.220993
0 0 0
0 0 0.00828954
0 0 0.0790139
0 0 0.166002
0 0 0.172901
0 0 0.181187
0 0 0.189814
0 0 0.195997
0 0 0
0 0 0.0567992
0 0 0.135799
0 0 0.140844
0 0 0.145446
0 0 0.156106
0 0 0.166197
0 0 0.17551
0 0 0.185312
0 0 0
0 0 0.0527011
0 0 0.123471
0 0 0.122353
0 0 0.124284
0 0 0.131853
0 0 0.141559
0 0 0.150632
0 0 0.162515
0 0 0.175323
0 0 0.0390167
0 0 0.1228
0 0 0.119986
0 0 0.119351
0 0 0.117906
0 0 0.1247
0 0 0.134144
0 0 0.141896
0 0 0.154032
0 0 0.169302
0 0 0
0 0 0.0587966
0 0 0.128999
0 0 0.123967
0 0 0.123712
0 0 0.123828
0 0 0.125418
0 0 0.131163
0 0 0.141626
0 0 0.154854
0 0 0.164312
0 0 0
0 0 0.0863435
0 0 0.0430656
0 0 0.14505
0 0 0.139153
0 0 0.135817
0 0 0.132933
0 0 0.134965
0 0 0.136076
0 0 0.137911
0 0 0.146014
0 0 0.156974
0 0 0.102197
0 0.0210159 0
0 0 0.124025
0 0 0.137277
0 0 0.130992
0 0 0.192374
0 0 0.120509
0 0 0.147843
0 0 0.149597
0 0 0.0860932
0 0 0.159885
0 0 0.137602
0 0 0.0579522
0 0 0.121038
0 0 0.1383
0 0 0.138832
0 0 0.054133
0 0 0.0489268
0 0 0.149502
0 0 0.0488212
0 0 0.0993186
0 0 0.20044
0 0 0.137668
0 0 0
0 0 0.180151
0 0 0.125256
0 0 0.119197
0 0 0.112122
0 0 0.09543
0 0 0.0880615
