ply
format ascii 1.0
comment Created by Open3D
element vertex 412
property double x
property double y
property double z
end_header
0 0 0
0 0 0.0339838
0 0 0
0 0 0.0662639
0 0 0
0 0 0
0 0 0
0 0 0.0286348
0 0 0.00843906
0 0 0.019213
0 0 0.135512
0 0 0.0960491
0 0 0
0 0 0.019711
0 0 0.127628
0 0 0.291135
0 0 0.19526
0 0 0.0598145
0 0 0
0 0 0.0205497
0 0 0.130212
0 0 0.262532
0 0 0
0 0 0.197076
0 0 0.362046
0 0 0.167913
0 0 0
0 0 0.0217151
0 0 0.268319
0 0 0.272602
0 0 0
0.0678605 0 0.0417572
0 0 0.112191
0.000997624 0.162897 0.197149
0 0 0
0 0 0.28025
0 0 0.371864
0 0 0.0048073
0 0 0.0706461
0 0 0.212643
0 0 0
0 0 0.126942
0 0 0
0.192138 0 0.0700091
0 0 0
0.150316 0 0.0960563
0 0 0
0 0 0.0744186
0 0.0873552 0.267609
0 0.0249816 0
0 0 0.0550201
0 0 0
0 0 0.0529854
0 0.0558855 0
0.0499097 0 0.0469908
0 0 0
0.0941946 0 0.217374
0 0 0.0734704
0.0411079 0 0.196745
0 0 0.00278945
0.1389 0 0.123759
0 0 0
0.192922 0.00486747 0.103338
0 0 0
0.0126088 0 0.096263
0 0 0.164428
0 0 0.0150196
0 0 0.0418613
0 0 0
0 0 0.146692
0 0 0
0.100093 0 0.229581
0 0 0
0.126725 0 0.190234
0 0 0
0.127029 0 0.194674
0 0 0
0.0087477 0 0.0948607
0 0 0.158585
0 0 0.0227362
0 0 0.255631
0.00431101 0 0.211661
0 0 0
0.0592942 0 0.127471
0 0 0
0.121093 0 0.185828
0 0 0
0.121692 0 0.187845
0 0 0
0.00727096 0 0.0896931
0 0 0.152207
0 0 0.0202571
0 0 0.229274
0 0.00114 0
0 0 0.122436
0 0 0
0.178765 0 0.0673519
0 0 0
0.114715 0 0.182477
0 0 0
0.119287 0 0.184724
0 0 0
0.00266348 0 0.246557
0 0 0.238347
0 0 0.0184683
0 0 0.0868001
0 0.0562944 0
0.0447841 0 0.044142
0 0 0
0.0829725 0 0.213253
0 0 0
0.111977 0 0.17786
0 0 0
0.115031 0 0.182631
0 0 0.00419521
0.0413126 0 0.207241
0 0 0
0 0 0.156991
0 0 0.0168342
0 0 0.113612
0 0 0.171837
0 0 0
0.029383 0 0.169755
0 0 0
0.109654 0 0.175316
0 0 0
0.114792 0 0.182435
0 0 0
0.106845 0 0.195985
0 0 0
0.00256563 0 0.080687
0 0 0.0141508
0 0 0.12105
0 0 0.218663
0 0 0
0.0937928 0 0.0749485
0 0 0
0.108121 0 0.172946
0 0 0
0.114635 0 0.182816
0 0 0
0.109981 0 0.196839
0 0 0
0.00129502 0 0.247624
0 0 0.0598256
0 0 0.219286
0 0 0.237189
0 0 0
0.10752 0 0.0265401
0 0 0.148496
0.182277 0.102081 0.109685
0 0 0.102029
0.222559 0.209558 0.185253
0 0 0.0557949
0.326561 0.1792 0.17544
0 0 0.0691974
0.265457 0.179521 0.191989
0 0 0.0544431
0 0.0908354 0
0 0 0.0899496
0 0 0
0.135488 0 0.11468
0 0 0.124626
0.203441 0.105321 0.0214091
0 0 0.0650015
0 0 0.148455
0 0 0.155508
0 0 0.00886193
0 0 0.167318
0 0 0
0.0233311 0 0.167274
0 0 0.210321
0.128872 0.00410263 0.0339535
0 0 0.340647
0 0 0.405626
0 0 0.162817
0 0 0.0368125
0 0 0.215737
0 0 0
0.0898575 0 0.077479
0 0 0.377472
0.132098 0.00309863 0.032458
0 0 0.337478
0 0 0
0 0 0.130111
0 0 0
0 0 0.229788
0 0 0
0 0 0.173402
0 0 0.236906
0 0 0
0.108493 0 0.0297054
0 0 0.17584
0.135793 0.00211508 0.0335897
0 0.0928313 0
0 0 0.13145
0 0 0
0.200752 0 0.167461
0 0 0.00291605
0.0700314 0 0.245564
0 0 0.022784
0 0 0.291871
0 0 0.0341975
0 0 0.313861
0 0 0.126465
0 0 0
0 0 0
0.081851 0.239733 0.297897
0 0 0.24646
0 0 0.0108213
0 0 0.173765
0 0 0.0340213
0 0 0.250662
0 0 0.0399849
0 0 0
0 0 0.130797
0 0 0.12657
0 0 0
0 0 0.251598
0 0 0.0177706
0 0 0.420237
0 0 0.172832
0 0 0.057603
0 0 0
0 0 0.281433
0 0 0.0465568
0 0 0
0 0 0
0 0 0.324509
0 0 0
0 0 0.0478115
0 0 0.210739
0 0 0.14128
0 0 0
0 0 0.15732
0 0 0.246622
0 0 0.0545446
0 0 0.011246
0 0 0.208476
0 0.00160554 0
0 0 0.111333
0 0 0
0.156799 0 0.0712554
0 0 0.370148
0.136993 0.00165969 0.034272
0.0550831 0 0.264828
0 0 0
0.0842508 0 0.167461
0 0 0.215025
0.251795 0.0894486 0.150567
0 0 0.0126439
0 0 0.19926
0 0 0
0.0718611 0 0.0668775
0 0 0.133898
0.165231 0.10886 0.101132
0 0 0.286789
0.165813 0.10909 0.0948792
0 0 0
0 0 0.105797
0 0 0.105916
0.335051 0 0.0226126
0 0 0.106031
0.31706 0.229315 0.12687
0 0 0.0127438
0 0 0.199279
0 0 0
0.0727291 0 0.06524
0 0 0.110202
0.187182 0.109196 0.014211
0 0 0.257095
0 0 0
0.177278 0 0.160623
0 0 0.167755
0.273089 0.0945276 0.0360266
0 0 0.194594
0 0 0.0130297
0 0 0.201695
0 0 0
0.0726404 0 0.0651241
0 0 0.191362
0.112117 0.0129028 0.0278195
0 0 0.269822
0 0 0.0459376
0.226729 0 0.0250552
0 0 0.197737
0.204428 0.0965006 0.1257
0 0 0.145825
0 0 0.0138373
0 0 0.203055
0 0 0
0.0722131 0 0.0637359
0 0 0.332904
0.110593 0.0128942 0.0254503
0 0 0.289841
0 0 0.0396876
0.266895 0 0
0 0 0.176643
0 0 0.287232
0 0 0.0342606
0 0 0.202876
0 0 0
0.0727798 0 0.0626373
0 0 0.153647
0.108053 0.0121508 0.0270671
0 0.0984734 0
0 0 0.107955
0 0 0.126895
0.208428 0 0
0 0 0.186248
0 0 0.205219
0 0.0897949 0
0 0 0.0333418
0 0 0.0619618
0 0.0775139 0
0.192106 0 0
0 0 0.0565332
0.147332 0 0
0.0533971 0 0
0 0.0585795 0.0727785
0.135671 0 0
0 0 0.102006
0 0 0.173773
0 0 0.142095
0.282061 0.22697 0.242575
0 0 0
0.177882 0 0.361727
0 0 0.356632
0 0 0.159231
0 0 0.0693806
0 0.252615 0.316495
0 0 0.123404
0 0 0.244125
0 0 0.0546872
0 0 0.0279113
0 0 0.243816
0 0 0.0623175
0.135477 0.392969 0.339364
0 0 0.310742
0 0 0.0375984
0 0 0
0.0920323 0.249005 0.393431
0 0 0.231878
0 0 0.126392
0 0 0.0493381
0 0 0.31168
0 0 0.130419
0 0 0.129183
0 0 0.0467832
0.00247746 0 0.284366
0 0 0.0399833
0 0 0.0436981
0 0 0
0 0 0.255982
0 0 0.11168
0 0 0.127429
0 0 0
0 0 0.227798
0 0 0.231745
0 0 0.232397
0 0 0
0 0.0615712 0
0 0 0.269888
0 0 0.229296
0 0 0.140482
0 0 0
0 0 0.135651
0 0 0.188371
0 0 0.184691
0 0 0
0 0 0.219797
0 0 0.220697
0 0 0.221338
0 0 0.148816
0.138018 0.218219 0.138431
0 0 0.155432
0 0 0.222132
0 0 0.218442
0 0 0.0635823
0 0.238403 0.27514
0 0 0.0932316
0 0 0.182584
0 0 0.0979459
0 0 0.209867
0 0 0.209533
0 0 0.209456
0 0 0.126522
0 0 0
0 0 0.152766
0 0 0.215022
0 0 0.21416
0 0 0.131212
0 0 0
0 0 0.133432
0 0 0.191996
0 0 0.196708
0 0 0.032759
0 0 0.176234
0 0 0.175341
0 0 0.174367
0 0 0.175317
0 0 0.0266215
0 0.229346 0.242081
0 0 0.18196
0 0 0.183743
0 0 0.183103
0 0 0.0318572
0 0.222858 0.243131
0 0 0.175159
0 0 0.171512
0 0 0.177654
0 0 0.0139718
