ply
format ascii 1.0
comment Created by Open3D
element vertex 1484
property double x
property double y
property double z
end_header
0.0111396 0 0
0 0.078384 0
0.0216593 0.0798382 0
0.0668019 0 0
0 0 0
0 0.369815 0.149425
0.105231 0.132313 0
0.190265 0 0
0 0.173701 0.0626654
0 0.23472 0
0.0987996 0.132512 0
0.181546 0 0
0 0.0909564 0
0.0465823 0.197918 0
0.0925073 0.130684 0
0.170836 0 0
0 0 0
0 0 0
0.130773 0.266228 0
0 0.130356 0.0243361
0 0.299934 0.0240315
0.00876352 0.202394 0
0.0820905 0 0
0.0440857 0 0
0 0.0457935 0
0 0.158848 0
0 0.244262 0
0 0.0295914 0
0.119851 0.220199 0
0 0.114482 0
0 0 0
0.0536666 0 0
0 0.140475 0
0 0.190837 0.163225
0.194886 0.156418 0
0.101145 0.169555 0
0 0 0.102586
0 0 0
0 0 0
0 0.175636 0.0875772
0 0.18032 0.00978385
0.143341 0.269792 0
0 0.188383 0.10836
0 0.167993 0.0753703
0 0.255063 0
0 0 0
0 0.247384 0.0219113
0.0347577 0.145197 0
0.150646 0 0
0 0.291001 0.0434248
0.0995126 0.14849 0
0 0 0
0 0 0
0 0 0
0 0.40002 0.11614
0.0184614 0.0814264 0
0.174233 0 0
0 0.308912 0.0547333
0.123264 0.145477 0
0 0 0
0.0401984 0 0.0785499
0 0 0
0 0.0482428 0
0 0.144382 0
0.197176 0 0
0 0.327831 0.0673288
0.146123 0.14308 0
0 0.0809998 0.282827
0 0 0
0.0821512 0 0
0 0.310465 0.0586157
0.21985 0 0
0 0.339917 0.079738
0.165465 0.13783 0
0 0.107821 0
0 0.138314 0
0 0.0874796 0
0.128341 0 0
0.0478808 0 0
0 0 0.0640995
0 0 0
0 0 0
0 0.0283312 0
0.0298905 0.0717882 0
0 0 0.080829
0.395683 0 0
0.00706149 0.103981 0.0178898
0.0190919 0.105685 0.0190407
0.0221967 0.099749 0.019743
0.196397 0.118659 0
0 0.246699 0.24403
0.129229 0.183415 0
0.119315 0.14696 0
0.13288 0.145976 0
0.137685 0.140674 0
0.0399939 0 0
0 0.250846 0.0430466
0.347817 0.0986497 0.0615214
0.126053 0.201469 0
0.139947 0.144149 0
0.147834 0.141018 0
0.146797 0.143169 0
0.0885248 0 0
0.469411 0.130388 0
0 0.127291 0
0.0802982 0 0
0.158483 0.139379 0
0.156969 0.136128 0
0.151517 0.142426 0
0.427338 0.072985 0
0.114166 0.111103 0
0.21812 0.420336 0
0.186478 0.0547316 0
0.457551 0.0782113 0
0.354788 0.242148 0
0.314131 0.16193 0
0.0735402 0.0300903 0
0.338443 0.213415 0
0.268692 0.35034 0
0 0 0.277356
0 0 0
0 0 0
0 0.0612675 0.0309274
0.105743 0 0
0 0.325351 0.0699703
0.238341 0 0
0 0.349909 0.0909806
0.475636 0.0640709 0
0 0 0
0 0.109504 0
0.170738 0 0
0 0.337219 0.0777579
0.0715613 0 0
0.0160117 0.492729 0.223106
0.105176 0.0148814 0
0 0 0
0 0 0
0 0.108762 0
0.183718 0 0
0 0.345984 0.082753
0.0503186 0 0
0.197944 0.0459904 0
0.513422 0.336745 0
0 0 0
0 0 0.0620147
0 0.27721 0.0806322
0 0 0
0 0.572015 0.229385
0.131909 0.0303864 0
0.205469 0.137153 0
0.267575 0 0
0 0 0
0 0 0
0.0948483 0.0619877 0
0 0.0124173 0
0 0.174176 0.0430867
0.190768 0.183837 0
0 0 0
0 0.0510081 0
0.138193 0 0
0.322556 0.270348 0.0070217
0.406069 0.164926 0
0.032135 0 0
0 0.061889 0.0302685
0.0152153 0 0
0 0.0474714 0
0 0.159893 0.078182
0.139185 0.0580813 0
0 0 0
0 0.220924 0.0963919
0.30729 0 0
0 0 0
0.214422 0.0359987 0
0.474792 0.0706068 0
0.191487 0.413977 0
0 0 0
0 0.0774409 0
0.186331 0.205927 0
0 0 0
0 0.0190853 0
0 0.158996 0.129356
0.259847 0.0129659 0
0 0 0
0.0388928 0.535708 0.258699
0.425174 0.167789 0
0.143061 0 0
0.43113 0.360046 0
0 0.0307491 0
0.14376 0.0529425 0
0 0 0
0 0.195055 0.0424291
0.286377 0.112719 0
0.166881 0.0932665 0
0 0 0
0 0.259919 0.146434
0.148237 0 0
0.131862 0.140671 0
0.59805 0.387032 0
0 0.225492 0
0 0 0
0 0.0486934 0
0 0.163599 0.0838451
0.139122 0.0560554 0
0 0 0
0 0.132371 0.107589
0 0.169483 0.196131
0.15146 0 0
0.35291 0.287541 0.0139257
0.436104 0.160653 0
0.148553 0 0
0.0137102 0.245097 0
0 0 0
0.234384 0.131007 0
0 0 0
0 0.0239322 0
0 0.158324 0.12061
0.409444 0.102365 0
0.0390236 0 0
0 0.0220256 0
0.174582 0 0
0.145867 0.145117 0
0.578513 0.386469 0
0.166028 0.051951 0
0.00760153 0.0710449 0
0 0.0378524 0
0 0.114416 0.05569
0.278744 0.107785 0
0.155091 0.0953781 0
0 0 0
0 0.245334 0.138154
0.389263 0 0
0.0976167 0.126852 0
0.588643 0.0487187 0
0.197891 0.111405 0
0.0864813 0.000259121 0
0 0 0
0 0.222579 0.151737
0 0 0
0 0 0
0 0.136148 0.0974173
0 0.16509 0.177902
0.339943 0 0
0 0 0
0.0119177 0.557971 0.27786
0.151501 0 0
0.439796 0.379505 0
0.153482 0.0568557 0
0 0 0.0563042
0.209515 0.108132 0
0 0 0.0458477
0 0.163046 0.118671
0.19956 0 0
0 0.14317 0
0 0 0.0271206
0 0.114719 0.256576
0.439771 0.0657365 0
0.429509 0.479855 0
0 0.125359 0
0.15463 0.253062 0
0 0.0878375 0.088918
0 0 0.0514687
0 0.142208 0
0 0 0.0698131
0.137895 0.000605586 0
0.16224 0.247958 0
0.313716 0.0847352 0
0.325366 0.175823 0
0.307496 0.174169 0
0 0.322631 0
0 0.166129 0
0 0 0.0995314
0 0.0010236 0.149551
0 0.00354484 0.048123
0.0814127 0.0282863 0
0 0.2104 0
0 0 0.110464
0.228992 0.22243 0
0.285753 0.0795513 0
0.349158 0.168338 0
0.320633 0.17554 0
0.298963 0.174347 0
0.141974 0.298121 0
0 0.268969 0
0 0 0
0.131688 0.000784881 0
0.00999046 0.0765515 0.071569
0.0855281 0 0.00148318
0 0 0
0.0463225 0.144779 0
0.371774 0.00131213 0.0136126
0.171534 0 0.132937
0.535863 0.125335 0
0.482758 0.0869998 0
0.313379 0.174819 0
0.175318 0.215084 0
0.0476535 0.266512 0
0 0.0631611 0
0.0961018 0 0
0.143417 0.122587 0
0 0.146783 0
0.0636541 0.1339 0
0.478332 0.270244 0
0 0.0766066 0
0.364374 0.270689 0
0.219891 0.17639 0
0.0998974 0.419414 0
0.183513 0.170504 0
0.286846 0.222428 0
0 0 0
0 0.0947733 0
0.031824 0.178928 0
0.000906418 0.140246 0
0.302273 0.345957 0
0.083127 0.122547 0
0 0 0
0.296856 0.309487 0
0 0 0.149163
0.197634 0.0477784 0
0.0903478 0.0523274 0
0.221447 0 0
0.21849 0.228755 0
0 0 0.112036
0 0.122911 0
0.24069 0.171939 0
0.292538 0 0
0.220312 0.0795171 0
0 0.228553 0
0.388683 0.0461605 0
0 0.34803 0.230108
0.213397 0.110597 0
0.316206 0.365933 0
0 0.0274133 0
0.0657328 0.226661 0.0492946
0.0227951 0 0
0 0.237558 0
0.0536843 0.381267 0
0.326649 0.151473 0
0.0756355 0.152419 0
0 0.426785 0
0.200441 0.507543 0
0 0.131077 0
0.0813706 0.278361 0
0 0.284823 0
0.186457 0.0852616 0
0 0.3796 0
0.00700897 0.27742 0
0.174375 0.221827 0.0626347
0 0.213562 0
0 0.389248 0
0.11756 0.23547 0
0 0.120953 0
0.0535036 0.371157 0
0.144573 0.437391 0
0 0 0
0 0.263808 0.00571848
0.208238 0.0855281 0
0.0468144 0.314026 0.0256019
0 0 0.371978
0.227325 0.169834 0.130848
0 0.0942326 0
0.429244 0.245764 0
0 0.120814 0
0 0.230901 0
0.0457262 0.445988 0.0393462
0 0 0
0 0 0
0 0.33047 0.0171666
0 0.0701084 0.09135
0 0.0494879 0
0 0 0.0609059
0 0.196563 0
0.106956 0 0.00854338
0 0 0.139258
0.145317 0.31909 0
0 0 0
0 0 0.149264
0.16287 0.16662 0
0 0 0
0.0689101 0.0245623 0.0104167
0.129966 0.299166 0
0.260638 0.0843668 0
0.14207 0.216318 0
0.423094 0.131068 0
0.407334 0.00495886 0
0.0786849 0.124552 0
0.270982 0.32282 0
0.23225 0.0633589 0
0.137871 0 0
0.210889 0.420342 0
0.101715 0 0
0.228151 0.100218 0
0 0 0.0113714
0.334361 0.17106 0
0 0 0.155943
0 0 0.0134342
0.176976 0.132415 0.0703904
0.0187842 0 0.139926
0.0909982 0.123674 0
0.425947 0.202781 0
0 0 0
0.210066 0.0358823 0
0.466123 0 0
0.460091 0.273116 0
0.568988 0.201311 0
0 0 0
0.195955 0.0622587 0
0.17458 0.0894873 0
0.121746 0.252072 0
0.32346 0 0
0.295453 0.162506 0
0 0.204312 0.11969
0.178187 0.0317899 0
0 0 0.00615507
0.267058 0.052159 0
0.0972804 0 0.017602
0.138854 0.650045 0
0.48561 0.0376359 0
0.0255522 0.074153 0
0.298525 0.231182 0
0.36504 0 0
0.527983 0.336812 0
0.529109 0.0572312 0
0.184156 0.306054 0
0.0256664 0.0101388 0
0.267165 0.154303 0
0.409845 0.171794 0
0.0440565 0.192554 0
0.33133 0.126593 0
0 0 0
0.3052 0.34789 0
0 0 0.104962
0 0.0239127 0.111292
0 0.0102716 0
0.0085271 0 0
0.569757 0.00254832 0
0 0.133134 0
0.526396 0.382163 0
0.022272 0 0
0.19581 0.0533599 0
0.239628 0.157614 0
0.205252 0.124383 0
0.381819 0.0490392 0
0.390774 0.104761 0
0 0.268821 0
0.490636 0.344859 0
0.288119 0 0
0.205428 0.100946 0
0.363822 0.200269 0
0 0 0.118356
0.332778 0.15724 0
0 0 0
0.0732652 0.371268 0
0 0.092448 0.27146
0.380257 0.227847 0
0.244816 0.366043 0
0 0 0.226414
0.236508 0.314401 0
0 0.0187937 0.0564789
0.489654 0.422935 0
0 0 0
0.312453 0 0
0.120085 0.505315 0
0 0.105476 0.148383
0.33657 0.193337 0
0.0280767 0 0
0.321744 0 0
0.105077 0 0
0 0.271124 0
0 0 0.192106
0 0 0
0.179106 0.122329 0
0.125987 0.304109 0
0 0.138434 0
0.463509 0.285045 0
0.242223 0.0570574 0
0.127059 0 0
0.551319 0.378142 0
0 0.0872716 0.181413
0.313244 0.235637 0
0.00580148 0.104351 0
0.286195 0.019308 0
0.333664 0.333818 0
0 0 0.172595
0.27675 0.0639844 0
0 0.0578307 0
0 0.0342846 0
0 0.031998 0.10846
0 0.0853162 0.182264
0.193876 0.473958 0
0 0.0666326 0
0.280307 0 0
0.246499 0.419984 0
0 0.0717508 0.215197
0.479633 0.195512 0
0 0.00343748 0
0.396469 0 0
0.383618 0.223738 0
0.11193 0.0856281 0
0 0.104183 0.155575
0.325705 0.320481 0
0 0.0132561 0
0.289562 0.0633615 0
0.272984 0.0159656 0
0.175098 0 0
0.119529 0.167221 0
0 0 0
0 0.0667723 0
0 0 0.0287014
0.240525 0.358616 0
0.195567 0 0
0 0.0720514 0.210455
0.360574 0.35655 0
0 0.0714313 0
0.347747 0 0
0.464374 0.382588 0
0 0 0.197818
0.249332 0.284326 0
0 0.0290367 0
0.451807 0.204274 0
0.16842 0.204877 0
0.230754 0 0
0 0 0.15039
0.19536 0.352335 0
0 0 0
0.43702 0.0311317 0
0 0.155238 0.1161
0 0 0
0 0 0
0 0 0
0 0.136324 0
0 0.0896931 0
0 0.0657523 0.182745
0 0 0.299452
0 0.343403 0
0 0 0
0.419786 0.222903 0
0 0.226384 0
0.414265 0 0
0 0.0715261 0.214408
0.558559 0.298089 0
0 0 0
0.400818 0 0
0.309581 0.234683 0
0.12149 0.0820599 0
0.298904 0.35818 0
0 0.0380049 0.0554775
0.340471 0.194663 0
0.0518997 0.204609 0
0.191826 0 0
0.370417 0.144441 0
0 0 0.154577
0 0.135397 0.024602
0.0773686 0.0139351 0
0 0 0
0.0521235 0.0194014 0
0 0.211668 0
0.0413895 0.0564874 0
0 0.34823 0.0547982
0.464745 0.37845 0
0 0.0821219 0.278388
0.21513 0.190824 0
0.252542 0.361035 0
0 0 0.205313
0.248165 0.294373 0
0.0638056 0.0474282 0
0.438464 0.0600819 0
0.0324347 0.220564 0
0.339088 0.144753 0
0.101455 0.210782 0
0 0.0485198 0.078326
0.278816 0.0426521 0
0.0613764 0.0117459 0
0.41909 0.0294277 0
0 0 0
0 0 0
0 0.216309 0
0 0.0957073 0.24589
0 0.210807 0
0.127886 0.168531 0.070497
0 0.108467 0.127098
0 0.274305 0
0 0.161778 0.0620602
0.298929 0.220967 0
0 0 0
0.314699 0 0
0.260031 0.0180909 0
0.409756 0.0812888 0
0 0.13758 0
0.563528 0.361367 0
0.239877 0.0630634 0
0.128141 0.0223802 0
0.389456 0.357335 0
0.269353 0.235526 0
0 0.0969156 0.0333264
0.188188 0.0042042 0
0.226281 0.345027 0
0.297729 0.0662264 0
0 0 0.0131929
0 0 0
0 0 0
0 0 0
0.0682088 0.111914 0
0 0 0
0.158267 0.23992 0
0 0.0176737 0
0.105229 0 0
0.150532 0.226026 0
0 0.143881 0
0.412646 0.365266 0
0 0.00869741 0.293861
0.208793 0.497731 0
0 0 0
0.32109 0 0
0.143622 0.556257 0
0 0.0852765 0.185329
0.436362 0.189456 0
0 0.0836228 0
0.332642 0 0
0.0717729 0.118578 0
0.177687 0.0349599 0
0 0.173282 0.216422
0.317783 0.272858 0
0 0.0765033 0
0.255552 0.00348975 0
0.183027 0 0
0.175347 0 0
0 0 0
0 0 0.0566556
0 0.1161 0
0 0.10509 0
0.340772 0.129417 0
0.0186763 0.093824 0
0.00278672 0.0289606 0
0 0.0591911 0.174165
0.0326938 0.330315 0
0 0.0399351 0
0.27386 0.0406528 0
0 0.0758558 0
0.328016 0.0318842 0
0.341466 0.212263 0
0.187523 0.239481 0
0 0 0.210222
0.470996 0 0
0.165596 0.180469 0
0.282537 0.111017 0
0.366349 0.320288 0
0 0 0.303428
0.321463 0.245823 0
0 0 0
0.296882 0 0
0.0613505 0.474227 0
0 0.0377921 0.226513
0.273455 0.390638 0
0 0 0
0.326265 0 0
0 0 0
0 0.0897734 0
0 0.192094 0
0.00346287 0.0283144 0
0 0.0476859 0.0158441
0.0851311 0.130079 0
0.00121885 0.193615 0
0.172972 0.0713522 0
0.25566 0.362356 0
0.249049 0.299792 0
0.469847 0.0544098 0
0 0.228999 0
0.285802 0.147353 0
0.513661 0 0
0.532679 0.212048 0
0.436917 0.0705006 0
0.19903 0 0
0.170469 0.0655786 0
0 0 0.0537149
0.283858 0 0
0.0275101 0.0963863 0
0.464581 0 0
0.317066 0.197351 0
0 0 0.216256
0.343259 0 0
0 0.178777 0
0.0588329 0.0560312 0
0 0.0463863 0.0122264
0 0 0
0 0.0172024 0.0515239
0 0.12928 0
0 0.0483791 0.0515172
0.176834 0.195188 0
0.0657239 0.161013 0
0.28454 0.0380665 0
0.190261 0.0301164 0
0.393854 0.0958842 0
0.0598634 0 0
0.0974555 0.18185 0
0.257554 0.206147 0
0.244909 0.305884 0
0.322537 0 0
0 0.281027 0
0.258027 0.205041 0
0.245848 0.0890057 0
0 0.146571 0
0.392069 0.211909 0
0 0.144729 0
0.283887 0 0
0.159404 0.180392 0
0.0649797 0.0478029 0
0 0 0.0522519
0 0 0
0.0131256 0.0746015 0
0.0333445 0 0
0.185073 0.392951 0
0.312907 0.235154 0
0.161616 0.137167 0
0.365226 0.0715414 0
0.0944841 0.166133 0
0.61468 0.0791901 0
0 0 0.0436484
0.364804 0.254531 0
0 0.0679349 0.0880641
0.229218 0.29331 0
0.246549 0.246209 0
0.289218 0.026281 0
0 0.203597 0
0.309143 0 0
0.185951 0.0765052 0
0.441858 0 0
0 0.0966218 0.0975196
0.200564 0 0
0.429591 0.0869436 0
0.298512 0.358981 0
0 0 0
0 0 0
0.027161 0.0655901 0
0 0.108454 0.0119713
0.117001 0 0
0.149028 0.222922 0
0 0.113148 0
0.0118977 0.164295 0
0 0 0.225866
0.179627 0.104359 0
0.33581 0.274508 0.0670003
0.313295 0 0
0.333096 0.157721 0
0.126221 0.0409423 0
0.267578 0.119237 0
0 0.0536045 0
0.30746 0 0
0.132882 0.0319181 0
0 0.098439 0
0.0390177 0 0.00801919
0 0.203743 0.220387
0 0 0
0 0 0
0.13015 0.0696968 0
0.107385 0 0.122697
0.191876 0.187866 0
0.167652 0.34055 0.134211
0.211802 0 0
0.185429 0.41708 0
0 0 0
0.0567973 0.256083 0
0.274641 0.174344 0
0.100877 0.208277 0.149263
0.232278 0.0917147 0
0.250514 0.22273 0
0.0652888 0.107662 0
0.227779 0.0723941 0
0.0791928 0.0217997 0
0.0828252 0.0610377 0
0.14406 0.391755 0
0.0222978 0 0
0.22179 0.0866807 0
0 0 0.0213771
0 0 0.0689796
0 0.0911313 0.120019
0 0 0
0.068933 0.0518178 0
0.108867 0.266897 0
0.410332 0.19856 0.0566672
0.186212 0.0827748 0
0.217638 0.146535 0
0.154968 0.0659791 0
0.0747011 0.290061 0
0.105377 0.244744 0
0 0.133586 0.047442
0.0569448 0.102347 0
0.178121 0 0
0.124457 0 0
0.287762 0.422063 0
0.0734009 0.148857 0
0 0.139464 0
0 0 0.0276397
0 0.00510083 0
0 0 0.016788
0.218438 3.65759e-05 0
0 0.0873431 0
0 0.3945 0
0.157747 0.0229354 0
0 0 0.151043
0.394006 0.195469 0
0.0512313 0.274639 0
0.085403 0.0106541 0
0 0 0
0.198649 0.0341072 0
0.0297318 0.108974 0
0.121415 0 0
0.442617 0.160745 0
0.178262 0.164326 0
0 0 0.0295135
0 0 0.25156
0 0 0
0 0.0247855 0
0 0.103682 0
0 0.0854892 0
0.144739 0.0402382 0
0.0372793 0.0754092 0.0631199
0.158867 0 0
0.200545 0.298424 0
0.28544 0.15513 0
0.14978 0 0
0.0306327 0.0511078 0.308996
0.216842 0.0964701 0
0.0457311 0 0
0 0.122837 0.0334239
0 0 0
0 0.0446064 0
0 0 0
0 0 0.0781518
0 0.0437689 0.0287323
0.0460064 0.255504 0
0.141553 0 0
0.185714 0.296435 0.000313187
0.235189 0.210155 0
0.27221 0 0
0.0897834 0.140739 0.20014
0.2183 0 0
0.0745293 0.326126 0
0.302462 0 0
0 0 0.166061
0.153407 0 0
0.13059 0.262842 0.083224
0.287248 0.0212306 0
0.0083413 0.141693 0.0718688
0.140652 0 0
0 0 0
0 0 0.0113933
0 0 0.233114
0 0 0.157681
0.096296 0.316678 0
0.242324 0.131155 0
0.150696 0 0
0.0888219 0.257544 0
0.0341302 0 0
0 0.131364 0
0.296856 0 0
0 0.130883 0
0.105923 0 0
0 0 0
0.273771 0 0
0 0.00977108 0.0310767
0.325545 0.128974 0
0.175863 0.140256 0
0.138695 0 0
0.239312 0.225769 0
0.128207 0.0473293 0
0.250937 0.00408722 0
0.128199 0.0447075 0
0.154266 0 0
0.283222 0.0937718 0
0.0654162 0.258416 0.0507988
0.0615543 0 0
0.0815783 0 0.060458
0 0 0
0.217934 0.239827 0.066461
0.167889 0.016605 0
0.133476 0.186955 0
0.288092 0 0
0.141923 0.133539 0
0.481817 0.117812 0
0.131067 0 0
0.0880201 0 0
0.0507991 0.0978491 0
0.0190196 0 0.23202
0.138026 0.0402318 0
0 0.221164 0.071802
0.020794 0.0414112 0
0.152022 0.119678 0
0 0.0861094 0
0.0458733 0.0261838 0
0.255081 0.27517 0
0.23287 0.111817 0
0.167593 0.111406 0
0 0 0
0.0174832 0.126832 0
0 0.118475 0
0.14256 0.0197275 0
0 0.0973216 0
0 0.247045 0
0 0 0
0 0.42275 0.132269
0 0 0
0.109392 0.058934 0
0.193492 0.115874 0
0.195163 0.120297 0
0.128905 0.451363 0
0 0 0
0.00390156 0.0373113 0.000565868
0 0.141469 0.0193252
0 0.0329374 0
0 0.0510749 0.119816
0 0.147807 0
0 0.241327 0.0809068
0 0 0
0.18405 0.0904245 0
0 0 0
0.100417 0.00060842 0
0.185924 0.212782 0
0.247489 0.152761 0
0.0139486 0.121134 0
0 0 0
0.264944 0.262003 0
0 0 0.134499
0 0.0718637 0
0.0353754 0 0
0.0782372 0.0403136 0
0.1069 0.132347 0.104839
0.107522 0 0
0 0.215937 0.0277917
0 0 0
0 0.343377 0.107566
0.131943 0 0
0.225491 0.0771978 0
0.171522 0.144612 0
0.131155 0.329882 0
0.0228293 0.168957 0
0.13481 0 0
0 0.111423 0
0 0 0
0 0.0280664 0.143077
0 0.0874771 0
0.00122005 0.0601832 0
0 0.141182 0
0 0.0256611 0
0.0612713 0.0122365 0
0.179831 0.0813881 0
0.141438 0.138239 0
0.156374 0.141309 0
0.166779 0.144484 0
0.287023 0.258342 0
0.00630841 0.00698509 0
0 0.0276101 0.346948
0 0.0187411 0
0 0 0
0 0.0053698 0
0.00506966 0.210665 0
0 0 0
0.0499306 0.0343826 0
0.0501605 0.0221302 0
0.158781 0.0834708 0
0.12186 0.134847 0
0.140259 0.137813 0
0.152418 0.140866 0
0.164076 0.144222 0
0.202709 0.267676 0
0.0211996 0.0109552 0
0 0.0249106 0.0239626
0 0 0.0346257
0.0548168 0.0673923 0
0 0.210136 0
0.121181 0 0
0 0.171543 0
0 0.0722354 0
0.201363 0.0750918 0
0 0.245523 0
0 0.0610486 0
0.259412 0.0778534 0
0.230257 0.336601 0
0.0194073 0.0129723 0
0 0 0
0 0.175217 0.114388
0 0.117624 0.0391489
0.00957375 0 0
0 0.0640473 0.160882
0 0.0627023 0
0.0308182 0 0
0 0.104336 0
0 0.0769667 0
0.122074 0.195884 0
0.00677568 0.0562664 0
0 0.0679449 0
0.16753 0.208277 0
0 0.0765762 0
0.0189163 0.058904 0
0.136623 0.0869028 0
0 0 0
0 0 0
0 0 0
0.0130141 0.108777 0
0.0420606 0.0362771 0
0.185903 0.237671 0
0.0404499 0.0305519 0
0.15767 0.0849696 0
0.192436 0.32449 0
0.069279 0.00988371 0
0.214537 0.0813769 0
0.261942 0.501786 0
0 0 0
0.0270725 0 0
0.0160853 0.357065 0
0 0.120664 0.0400465
0.010309 0 0
0 0.0655452 0.164796
0.103792 0.0270721 0
0.129513 0.0898238 0
0.0886073 0.130749 0
0.0965377 0.132134 0
0.110335 0.134061 0
0.126318 0.134768 0
0.142126 0.1381 0
0.156418 0.141999 0
0.104239 0.14762 0
0.244039 0.12253 0
0 0 0.0227735
0.0745703 0 0
0.376129 0.0893322 0
0 0 0
0.134894 0.122792 0
0 0.0938061 0.0629793
0.0859564 0.159789 0
0.086848 0.13186 0
0.0911926 0.131076 0
0.100482 0.131286 0
0.110837 0.132395 0
0.126906 0.136609 0
0 0.188563 0
0.0844815 0.0227499 0
0.0955943 0.146135 0
0 0.0594375 0.0116716
0 0 0
0.0685832 0.0951734 0
0.107129 0.178256 0
0.0881265 0.132446 0
0 0.170127 0
0 0.0727157 0
0 0.122578 0
0 0.121613 0
0.0300321 0.0638798 0
0.0495883 0 0.029092
0 0 0
0 0.0442104 0.0238063
0 0.00414932 0.185829
0 0.209256 0.00970588
0.19461 0.359691 0
0 0.131744 0
0 0.128149 0
0 0.123027 0
0.00769865 0.0769842 0
0.118952 0.191254 0
0 0.201727 0
0.0283366 0.0840265 0
0 0 0
0.194886 0.127269 0
0.117967 0.00428191 0
0 0.0970967 0
0 0.0586529 0
0.0547004 0.0289992 0
0.0904831 0.178925 0
0.138926 0.138257 0
0 0.0288819 0
0.0107646 0.0237249 0
0.0134612 0.0656216 0
0.158223 0.211756 0
0 0.21587 0
0.0588306 0.0696798 0
0.186529 0 0
0 0.0216536 0
0 0 0
0 0 0
0 0.186384 0
0 0.0657849 0
0 0 0
0 0.0281344 0
0.157195 0 0
0 0.164334 0
0 0 0
0.0666854 0.124369 0
0 0 0.114974
0.0728515 0 0
0 0 0
0.0116984 0 0
0 0 0
0 0 0.102196
0 0.0254935 0
0 0.0980348 0
0.0950185 0 0
0.146563 0 0
0 0.207882 0
0.0545393 0 0
0 0.174884 0
0 0.00638282 0
0.0608363 0.198216 0
0 0.195314 0
0.0163698 0 0
0.112766 0.145753 0.0795876
0 0.0488925 0
0.0832277 0 0
0 0.170101 0
0 0.0661499 0
0 0.102391 0
0.119266 0 0
0 0.0326361 0
0.241059 0.241444 0
0 0.00899387 0
0 0 0
0 0.113834 0
0 0 0
0 0.276252 0
0.161854 0 0
0 0.0319131 0
0.242749 0.245376 0
0 0 0
0.0111201 0.056684 0.243972
0 0.129621 0
0 0 0
0 0 0
0 0.0315819 0
0.0741242 0.284966 0
0 0 0.230902
0 0 0
0.190814 0.222952 0
0.0246868 0.0683092 0
0.120645 0.170319 0
0 0.0404602 0.182726
0 0.134334 0
0.133649 0.198118 0
0 0.0263216 0.0695817
0 0.292746 0
0.0126986 0.180705 0
0.0344956 0.212705 0
0 0.0437279 0
0.0366727 0.084811 0
0 0.125715 0
0 0.121851 0
0.0054729 0.0717257 0
0 0.242661 0
0 0 0
0.0568652 0.0658557 0
0.184382 0.15791 0
0.0124346 0.129113 0
0.196154 0 0
0 0.172028 0
0.203792 0.228858 0
0.106553 0.224526 0
0.134109 0.139183 0
0.140536 0.143708 0
0 0.0259992 0
0.034894 0 0
0 0.263159 0
0.0395788 0.079286 0
0.0322818 0 0
0 0.4582 0.151926
0.17049 0 0
0.0279257 0.337091 0.0940698
0.00982406 0.062553 0
0.106319 0.0952454 0
0 0.213811 0
0 0.0753259 0
0.0042099 0.0679519 0
0 0.06298 0
0.0516618 0 0
0 0.413775 0
0 0 0
0.249943 0 0
0.144215 0 0
0.0764368 0.0396337 0
0.162434 0.321817 0
0 0.106131 0
0 0.0815765 0
0 0.230161 0
0 0 0
0.0649557 0.0111244 0
0 0.0553967 0
0.1113 0.0627818 0
0 0.169732 0
0.145046 0 0
0 0 0
0 0.193617 0.00207153
0 0.129731 0
0.0495539 0.26774 0
0 0.0282888 0
0.0464224 0.0258974 0
0 0.24829 0
0 0 0
0.225256 0.0941178 0
0 0 0
0.137615 0 0
0.38831 0.109608 0
0 0.431009 0.0425155
0.129196 0.267852 0
0.114402 0.226835 0
0.1399 0.138604 0
0.140579 0.146297 0
0 0.0263134 0
0.0345497 0 0
0 0.265946 0
0 0 0
0 0.327729 0.0583271
0.0520591 0 0
0 0 0
0 0.0760819 0
0.0245961 0.195149 0
0 0.129528 0
0 0.127864 0
0 0.121241 0
0.00428227 0.0677013 0
0 0.0635775 0
0.0512306 0 0
0 0.191455 0
0.00750245 0 0
0.173784 0.0655876 0.041567
0 0.000604751 0.101364
0.0997424 0 0
0.177031 0.241006 0
0.119758 0.229832 0
0.147774 0.142516 0
0 0.192263 0
0 0 0
0.0654586 0.00937967 0
0 0.0558662 0
0.0770466 0 0
0 0 0
0.220447 0 0
0 0 0
0 0 0
0 0.160146 0
0 0.131092 0
0 0.127309 0
0.00436483 0.0703156 0
0 0.251417 0
0 0 0
0.0897354 0 0
0 0.0487593 0
0.103558 0 0
0.0385401 0 0.195581
0 0 0
0.137922 0 0
0.181699 0.242529 0
0.126463 0.234496 0
0.157186 0.146115 0
0 0.0255938 0
0.038775 0 0
0 0.0704232 0
0.0910552 0 0
0.20151 0 0
0 0 0.116165
0.275605 0.0521271 0
0 0.244707 0.0669394
0.123133 0 0
0 0.161204 0
0 0.131075 0
0 0.126397 0
0.00824166 0.0668461 0
0 0.0621258 0
0.0721438 0 0
0 0 0.0588193
0 0.226557 0
0 0 0
0 0 0
0.052335 0.0146175 0
0.0149788 0.284322 0
0.00570527 0.177799 0
0.0479387 0.13964 0
0 0 0
0.0723182 0.0086173 0
0 0 0
0 0 0
0.225839 0 0
0.140371 0.146338 0
0.118622 0 0
0.273577 0.00872535 0
0.185108 0.140268 0
0.186045 0.193011 0
0 0.193787 0
0.0548532 0.207018 0
0 0 0
0.229524 0.0722709 0
0 0 0
0.022654 0.0561186 0
0 0.129524 0
0.017972 0.0743144 0
0.03357 0.367561 0
0 0 0
0.196939 0 0
0 0 0
0 0 0
0.0671804 0.287253 0
0.00531282 0.182443 0
0 0 0
0.195323 0.0973012 0
0.00270116 0.190365 0
0.178046 0 0
0 0 0.0865145
0 0.161495 0.0863691
0.0588877 0.132239 0
0.0568921 0.132967 0
0.055303 0.14429 0
0.00625683 0 0
0.105824 0.423302 0.0891488
0.0558082 0 0
0 0 0
0.176285 0 0
0.0565696 0 0
0 0.149051 0
0.0158945 0.21448 0
0.0661096 0.126363 0
0.388173 0.27302 0
0.106457 0.189444 0
0.206528 0.144534 0
0.169804 0.138699 0
0.0905336 0.0255363 0
0.174791 0.0729752 0
0.102174 0.10122 0
0.118478 0.141109 0
0 0 0.0199737
0 0 0
0 0.163049 0
0.0121095 0.129641 0
0 0.166068 0
0 0 0
0 0 0.0679001
0.139037 0.00197037 0.0826583
0.170156 0.099463 0.0386451
0.0944435 0.235524 0
0.104352 0.196629 0
0.171546 0.140746 0
0 0.26693 0.0264047
0.0680987 0.0643419 0
0.0640104 0 0
0.0145437 0.133336 0.0383497
0.119819 0.175447 0
0.120295 0.142023 0
0.119367 0.140834 0
0 0.0649735 0.0648838
0 0.0775775 0
0.0322509 0.0266303 0
0 0 0
0.106177 0.177337 0
0.122303 0.141891 0
0.120811 0.142232 0
0 0.181497 0
0 0 0
0 0 0
0 0.0296442 0
0.0142754 0.161404 0
0.0181038 0.129247 0
0.0184241 0.129285 0
0.0336543 0.0789334 0
0 0.203146 0
0 0.188606 0
0.157018 0.022722 0
0.248886 0.277403 0
0.17421 0.138366 0
0.173523 0.137735 0
0.113184 0 0
0 0.00915823 0
0 0 0.243815
0.0292224 0.107706 0
0.121584 0.10459 0
0.152306 0.180431 0
0.121669 0.141779 0
0.120982 0.141901 0
0.122421 0.140467 0
0 0.078155 0
0 0 0.21622
0 0.119781 0
0.133088 0.104802 0
0.121201 0.175253 0
0.121669 0.141779 0
0.122505 0.141738 0
0.123523 0.141214 0
0.0384125 0.242059 0.0353344
0 0 0
0 0 0
0.0443921 0.166622 0
0.0152264 0.128883 0
0.0168824 0.128598 0
0.0175591 0.130586 0
0.00940278 0.12908 0
0 0.084581 0
0 0.0516575 0
0.294372 0.242753 0
0.174429 0.138887 0
0.174211 0.136676 0
0.174258 0.138465 0
0.179969 0.145005 0
0 0.0865677 0
0.0932216 0.0905577 0
0.0623432 0.0857426 0
0.0635646 0.0863917 0
0.0627736 0.0853756 0
0.0614181 0.0861115 0
0.0592917 0.13362 0
0.0555834 0.134746 0
0.057225 0.145132 0
0.0170744 0.0669419 0
0 0 0
0.193387 0.136201 0
0 0.0987241 0.200277
0.0215599 0 0
0.173206 0.144783 0
0.178566 0.148125 0
0.195074 0.157852 0
0.0878464 0.332917 0
0 0.0454447 0
0.136915 0 0
0 0 0.065372
0.0240268 0 0
0 0.18028 0
0 0.0695181 0
0 0.126454 0
0.0627756 0.187312 0
0.206252 0.23849 0.0744519
0.187266 0 0
0 0 0.0930415
0.0751465 0.0615821 0
0.0270048 0.0767965 0
0.14129 0.197246 0
0.201969 0.159875 0
0.123243 0 0
0.321927 0.0959257 0
0.086993 0.120358 0
0 0.254691 0
0.330719 0 0
0.110982 0 0
0.180589 0.0851177 0
0 0.188268 0
0.0966039 0.176323 0
0 0.0864173 0
0.162682 0 0
0 0 0
0 0.0492854 0.288131
0 0.181003 0
0 0.0682619 0
0.0607016 0.190417 0
0 0.0913655 0
0.261064 0.279621 0
0.275306 0 0
0 0 0.0962584
0.0740976 0.0617551 0
0.000639086 0.0202966 0
0.146877 0.201602 0
0.117961 0 0
0 0 0
0 0.153805 0.16361
0 0.166172 0
0.296602 0 0
0.07131 0.018876 0
0.0573685 0.0983212 0
0.203305 0.23921 0
0.136058 0 0
0 0.204436 0.254629
0.000680129 0 0
0.286537 0 0
0.210885 0.064331 0
0.212452 0.218971 0
0 0.0567335 0
0 0 0.483461
0 0.19308 0.0262783
0.158 0.272877 0
0.0106525 0.112385 0
0 0.134903 0.190813
0.15498 0.257087 0
0 0.00361869 0
0 0 0
0.192875 0.0197869 0
0.0316629 0.238671 0
0.0763862 0 0
0 0 0.0341595
0 0 0.0985378
0.287339 0.255951 0
0 0 0
0 0 0.128552
0.060761 0.0819721 0
0.124028 0.0889881 0
