ply
format ascii 1.0
comment Created by Open3D
element vertex 1074
property double x
property double y
property double z
end_header
0 0.00100586 0
0 0 0.0401003
0 0 0
0.139061 0 0
0 0 0
0 0 0.0258513
0 0 0.134142
0 0 0
0.344288 0.041674 0
0.152942 0 0.22371
0 0 0.0254133
0 0 0.132168
0 0 0
0 0 0
0 0 0.0585009
0 0 0
0 0 0.0240473
0 0 0.129712
0 0 0.237011
0 0 0
0.0220463 0.101395 0
0 0.125421 0
0 0 0
0 0 0
0 0 0.125349
0 0 0.230378
0 0 0
0 0 0
0 0.076724 0.184868
0 0 0
0 0 0.137285
0 0 0.0934323
0 0 0.219484
0 0 0.219446
0 0 0
0.0469165 0 0.0438944
0 0 0.258032
0 0 0
0 0.150188 0.136336
0 0 0.0124266
0 0 0.109153
0 0 0
0 0.0206254 0.0994707
0 0 0
0 0 0.271365
0 0 0
0 0 0
0 0.261581 0
0 0 0.00915936
0 0 0.0991687
0 0 0
0 0.0216603 0.0191773
0 0 0.117507
0 0 0.0898347
0 0 0.226615
0 0 0
0 0.091455 0
0 0.164705 0
0 0 0.00494949
0 0 0.0919575
0 0 0
0 0.0305963 0.0130612
0 0 0.108377
0 0 0.208946
0 0 0.180635
0 0 0
0 0 0
0 0 0.246525
0 0 0
0 0 0.00304831
0 0 0.0842752
0 0 0
0 0.041847 0.0041303
0 0 0.102152
0 0 0.195715
0 0 0.168422
0 0 0.169992
0 0 0
0.0247925 0 0.0249508
0 0 0.207563
0 0 0
0 0 0.00246629
0 0 0.0805175
0 0 0
0 0.0498242 0
0 0 0.0985169
0 0 0.187948
0 0 0.161298
0 0 0.162279
0 0 0
0 0 0
0 0 0.219205
0 0 0.17224
0 0 0
0 0 0
0 0 0.0790945
0 0 0.157444
0 0 0
0.0104712 0 0.0171111
0 0 0.184153
0 0 0.160704
0 0 0.162011
0 0 0.161439
0 0 0
0.0121583 0 0.0199574
0 0 0.192779
0 0 0.170702
0 0 0.0326161
0 0 0.0378169
0 0 0.158627
0 0 0.160459
0 0 0
0 0 0.127661
0 0 0.162578
0 0 0.163746
0 0 0.165988
0 0 0.16586
0 0 0.0310476
0 0.213093 0.219551
0 0 0.082215
0 0 0.1757
0 0 0.107678
0 0 0.0409251
0 0 0.16597
0 0 0.168674
0 0 0.0320309
0 0.215815 0.22301
0 0 0.0815978
0 0 0.172055
0 0 0.173024
0 0 0.174167
0 0 0.105753
0 0 0
0 0.02788 0.206904
0 0 0.0897415
0 0 0.188465
0 0 0.107028
0 0 0.148757
0 0 0.177572
0 0 0.109714
0 0 0
0 0.0283624 0.210531
0 0 0.0879963
0 0 0.183276
0 0 0.184083
0 0 0.184973
0 0 0.114983
0 0 0
0.0658533 0.257072 0.334325
0 0 0.201468
0 0 0
0 0 0.0562056
0.34398 0.317332 0
0 0 0.321574
0.0299978 0 0
0.179955 0.0821644 0.259991
0.0354763 0 0
0.160437 0 0
0 0 0
0.0785175 0 0
0.0207455 0 0
0.0203121 0 0
0.0177936 0 0
0.0181931 0 0
0.0220188 0 0
0.0220484 0 0
0.0233919 0 0
0.094593 0 0
0.224943 0.153271 0
0 0.14187 0.146009
0 0 0.20538
0.0213273 0 0
0.153797 0 0
0.0341669 0 0
0.0864899 0 0
0 0 0.262796
0 0 0.31014
0 0 0.306
0 0 0.305068
0 0 0.299157
0 0 0.293682
0 0 0.287407
0 0 0.281559
0.0774417 0.186659 0.291463
0.00733419 0 0.114433
0 0 0.032727
0 0 0.368765
0 0 0.311819
0 0 0.334335
0 0 0.417511
0 0 0.26317
0 0 0.261033
0 0 0.257236
0 0 0.253732
0 0 0.24906
0 0 0.242145
0 0 0.236745
0 0 0.245228
0 0 0.401448
0 0 0.267472
0 0 0.268343
0 0 0.268492
0 0 0.266399
0 0 0.264435
0 0 0.260638
0 0 0.257134
0 0 0.252312
0 0 0.246795
0 0 0.241521
0 0.0681033 0
0.0462292 0 0.205267
0 0 0.279088
0 0 0.29537
0 0 0.387012
0 0 0.263191
0 0 0.266704
0 0 0.266704
0 0 0.266704
0 0 0.265318
0 0 0.264225
0 0 0.260428
0 0 0.257614
0 0 0.252048
0 0 0.247649
0 0 0.24212
0 0 0
0 0.00789411 0.246688
0 0 0.252007
0 0 0.243109
0 0 0.254748
0 0 0.261128
0 0 0.261128
0 0 0.260438
0 0 0.260488
0 0 0.258376
0 0 0.254853
0 0 0.252884
0 0 0.247062
0 0 0.243377
0 0 0.237811
0 0 0
0 0 0.324647
0 0 0.242616
0 0 0.244297
0 0 0.244123
0 0 0.239186
0 0 0.250065
0 0 0.250065
0 0 0.24922
0 0 0.248934
0 0 0.247413
0 0 0.24448
0 0 0.241616
0 0 0.236776
0 0 0.234807
0 0 0.229676
0 0 0.217521
0 0 0.35525
0 0 0.229144
0 0 0.231811
0 0 0.235159
0 0 0.235121
0 0 0.236266
0 0 0.235576
0 0 0.23647
0 0 0.233954
0 0 0.232697
0 0 0.231307
0 0 0.228188
0 0 0.224211
0 0 0.221347
0 0 0.218042
0 0 0.172621
0 0 0.208892
0 0 0.212874
0 0 0.216377
0 0 0.221144
0 0 0.219454
0 0 0.220646
0 0 0.219527
0 0 0.219782
0 0 0.218223
0 0 0.21713
0 0 0.215409
0 0 0.212254
0 0 0.210266
0 0 0.207148
0 0 0.204556
0 0 0.159946
0 0 0.196884
0 0 0.199896
0 0 0.202947
0 0 0.20583
0 0 0.205438
0 0 0.206737
0 0 0.206713
0 0 0.205316
0 0 0.204494
0 0 0.202382
0 0 0.20178
0 0 0.19837
0 0 0.197095
0 0 0.19394
0 0 0.193338
0 0 0.150221
0 0 0.189052
0 0 0.192041
0 0 0.194384
0 0 0.195552
0 0 0.196409
0 0 0.196572
0 0 0.195011
0 0 0.194911
0 0 0.194352
0 0 0.193521
0 0 0.191923
0 0 0.189494
0 0 0.189936
0 0 0.187216
0 0 0.185892
0 0.215629 0.23512
0 0 0.0951705
0 0 0.188466
0 0 0.190535
0 0 0.191853
0 0 0.191853
0 0 0.191162
0 0 0.191062
0 0 0.191193
0 0 0.188777
0 0 0.189056
0 0 0.187902
0 0 0.186335
0 0 0.185883
0 0 0.184989
0 0 0.184281
0 0 0
0.0608866 0.249629 0.32103
0 0 0.192713
0 0 0.095863
0 0 0.194528
0 0 0.194254
0 0 0.192719
0 0 0.193868
0 0 0.192714
0 0 0.191148
0 0 0.190005
0 0 0.189706
0 0 0.189582
0 0 0.189565
0 0 0.187949
0 0 0.188913
0 0 0.115707
0 0 0.0411827
0 0 0
0.0699232 0.257591 0.341935
0 0.0623794 0.31141
0 0.0629213 0.311845
0 0.0614922 0.30956
0 0.0619497 0.308838
0 0.0635749 0.308402
0 0.0625587 0.308551
0 0.0631346 0.306999
0 0.0654535 0.306383
0 0.0665493 0.30621
0 0.0669621 0.308645
0 0.0670579 0.30866
0 0.0669289 0.31066
0 0 0.101349
0 0 0.207131
0 0 0.130957
0 0 0.0462511
0 0 0.0248915
0 0 0.0230997
0 0 0.0238529
0 0 0.0239912
0 0 0.0231634
0 0 0.0231634
0 0 0.0240166
0 0 0.0241739
0 0 0.024209
0 0 0.0234557
0 0 0.0240077
0 0 0.0247726
0 0.0819014 0
0 0.0332013 0.0313136
0 0.0321892 0.0314539
0.0949375 0.09237 0.115031
0.0266914 0 0
0.0269123 0 0
0.119715 0 0
0.105914 0 0
0.0401763 0 0.091577
0.0362203 0 0.0908649
0 0 0.0989123
0 0 0.0985362
0 0 0.0646806
0.157741 0 0.00148849
0.00107629 0 0.00763846
0 0 0.273264
0 0 0.26741
0 0 0.259606
0 0 0.255359
0 0 0.250602
0 0 0.247049
0 0 0.241213
0 0 0.213605
0 0 0
0 0 0.0121951
0 0 0
0.0980727 0 0
0 0 0
0 0 0
0.104668 0 0
0.00833872 0 0.426363
0 0 0.22991
0 0 0.224636
0 0 0.21892
0 0 0.213931
0 0 0.209587
0 0 0.207848
0 0 0.206718
0 0 0.194303
0 0 0.130677
0 0 0.252752
0 0 0.254414
0 0 0.254885
0 0 0.257826
0 0 0.27183
0 0 0.200702
0 0 0.0741376
0 0 0.235805
0 0 0.230276
0 0 0.225273
0 0 0.221242
0 0 0.21708
0 0 0.214338
0 0 0.213276
0 0 0.214638
0 0 0.215174
0 0 0.216006
0 0 0.217546
0 0 0.219957
0 0 0.220832
0 0 0.222857
0 0 0.223038
0 0 0.0755789
0 0 0.236427
0 0 0.232296
0 0 0.228264
0 0 0.224102
0 0 0.221511
0 0 0.21989
0 0 0.218139
0 0 0.218653
0 0 0.219747
0 0 0.222848
0 0 0.224514
0 0 0.227198
0 0 0.228224
0 0 0.229541
0 0 0.228006
0 0 0.337475
0 0 0.233953
0 0 0.229921
0 0 0.225759
0 0 0.222477
0 0 0.221602
0 0 0.220267
0 0 0.219341
0 0 0.220256
0 0 0.221623
0 0 0.224879
0 0 0.227725
0 0 0.229564
0 0 0.230863
0 0 0.23149
0 0 0.230849
0 0 0.190876
0 0 0.226091
0 0 0.221929
0 0 0.218647
0 0 0.216926
0 0 0.215846
0 0 0.214902
0 0 0.216457
0 0 0.217706
0 0 0.2185
0 0 0.221726
0 0 0.224944
0 0 0.228935
0 0 0.228698
0 0 0.229499
0 0 0.228839
0 0 0.188492
0 0 0.215614
0 0 0.211588
0 0 0.210141
0 0 0.20852
0 0 0.208304
0 0 0.206974
0 0 0.208769
0 0 0.212542
0 0 0.213953
0 0 0.218346
0 0 0.219607
0 0 0.224707
0 0 0.224759
0 0 0.225392
0 0 0.223435
0 0 0.18395
0 0 0.202245
0 0 0.200544
0 0 0.199786
0 0 0.19729
0 0 0.198078
0 0 0.200011
0 0 0.20097
0 0 0.204169
0 0 0.206288
0 0 0.211401
0 0 0.21421
0 0 0.217889
0 0 0.21979
0 0 0.220058
0 0 0.217249
0 0 0.180978
0 0 0.190468
0 0 0.190001
0 0 0.190656
0 0 0.189476
0 0 0.190563
0 0 0.193465
0 0 0.194876
0 0 0.199119
0 0 0.201928
0 0 0.205607
0 0 0.210279
0 0 0.213275
0 0 0.214019
0 0 0.21653
0 0 0.320867
0 0 0.278771
0 0 0.184998
0 0 0.18498
0 0 0.18475
0 0 0.186267
0 0 0.18797
0 0 0.190896
0 0 0.193704
0 0 0.197383
0 0 0.202056
0 0 0.205051
0 0 0.209257
0 0 0.213365
0 0 0.214608
0 0 0.327992
0 0.0503416 0.289396
0 0.0766164 0.0403281
0 0 0.1841
0 0 0.184891
0 0 0.18555
0 0 0.18709
0 0 0.190191
0 0 0.193243
0 0 0.19648
0 0 0.200494
0 0 0.204426
0 0 0.209224
0 0 0.213339
0 0 0.215754
0 0 0.334944
0 0.0552373 0.300813
0 0 0
0 0 0.161439
0 0 0.189703
0 0 0.190363
0 0 0.191903
0 0 0.195004
0 0 0.197515
0 0 0.20133
0 0 0.204162
0 0 0.209388
0 0 0.212639
0 0 0.217335
0 0 0.221883
0 0 0.225319
0 0 0.197729
0 0 0
0 0 0.323227
0 0 0.118891
0 0.0684537 0.31296
0 0.069319 0.317123
0 0.0699967 0.320835
0 0.0703098 0.326107
0 0.0707681 0.329415
0 0.0704485 0.335417
0 0.068667 0.342888
0 0.0674774 0.347478
0 0.0659449 0.35238
0 0.0653194 0.360129
0 0.0646723 0.365253
0 0.0606048 0.369586
0.0564896 0 0.214423
0 0 0.154265
0 0.0528693 0.332642
0 0.0831394 0
0 0 0.0245713
0 0 0.0267331
0 0 0.0263599
0 0 0.0281149
0 0 0.0282748
0 0 0.0292496
0 0 0.0304199
0 0 0.0305543
0 0 0.0322252
0 0 0.0335175
0 0 0.0337419
0 0 0.034294
0 0.0219065 0.260135
0.021887 0.106889 0.321133
0 0.0670118 0.0615764
0.0108899 0 0.10583
0.0891056 0 0.0368059
0 0.134448 0.0432694
0 0 0.213942
0 0 0.151446
0.0145088 0.0383928 0
0 0 0
0 0 0.0696741
0 0 0.149667
0 0 0.0704384
0 0 0.046294
0 0 0
0 0 0
0 0 0.186416
0.0201447 0.154924 0
0 0 0.0911912
0 0 0
0.0196169 0 0.296923
0 0 0.331963
0 0 0.0688368
0.0214584 0.0623292 0
0.0993008 0 0.308148
0.020659 0 0.301856
0 0 0.309297
0 0 0
0 0 0.14942
0 0 0.257782
0 0 0.0524002
0 0 0.0777464
0 0 0.216551
0 0 0.216098
0 0 0.0753083
0 0 0.0715054
0 0 0.0803204
0 0 0.204698
0 0 0.150802
0 0 0.172179
0 0 0.0802014
0 0 0.233389
0 0 0
0 0 0.200553
0 0 0.253059
0 0 0.22022
0 0 0.222126
0 0 0.0750687
0 0.0552167 0
0 0 0.391922
0 0 0.249879
0 0 0.0764934
0 0 0.196857
0 0 0.251862
0 0 0.0665063
0.0566248 0 0.147124
0 0 0.0492024
0 0 0.219693
0 0 0.221401
0 0 0.220079
0 0 0.181592
0.0303522 0.126931 0.166832
0 0 0.0511209
0 0 0.217673
0 0 0.0370991
0 0 0.0812529
0 0 0.0674588
0 0 0
0 0 0.195873
0 0 0.217991
0 0 0.217008
0 0 0.214521
0 0 0.179518
0 0 0
0 0 0.187711
0 0 0.212572
0 0 0.176088
0 0 0.0528867
0 0 0.0641094
0 0 0.0521663
0 0 0.21643
0 0 0.212087
0 0 0.211485
0 0 0.307124
0 0 0.265212
0 0 0.0225717
0 0 0.205023
0 0 0.305086
0 0 0.263534
0 0 0.02507
0 0 0.0603899
0 0 0.0512917
0 0 0.209169
0 0 0.305267
0 0.0237541 0.393149
0.035988 0.0589677 0.166165
0 0 0
0 0 0.172475
0 0 0.197216
0 0 0.16547
0 0 0
0 0 0.173507
0 0 0.0549473
0 0 0.0501786
0 0 0.304077
0 0.0422965 0.262219
0 0 0
0 0 0.0893272
0 0 0.168879
0 0 0.19223
0 0 0.293747
0 0 0.25626
0 0 0.0194531
0 0 0.133453
0 0 0.116302
0 0 0.119462
0 0.0475396 0.267291
0 0 0
0 0 0.170118
0 0 0.191295
0 0 0.191114
0 0 0.294448
0 0.0637113 0.261087
0 0 0
0 0 0.107733
0 0 0.104597
0.00241889 0.0987202 0.254665
0 0 0
0 0 0.27996
0 0.0447863 0.400064
0 0.0647305 0.302519
0 0.0664746 0.305224
0.0449548 0.0846016 0.172816
0 0.0329049 0
0 0 0.178893
0 0 0.0763164
0 0.0040553 0.078048
0 0.0897994 0.400804
0.0484536 0.0810624 0.181077
0 0 0
0 0 0.0268192
0 0 0
0 0.0798281 0.0725153
0.0252564 0 0.0545581
0 0.150016 0.106946
0 0 0
0 0.121035 0.112353
0.0270358 0 0.0588464
0 0 0
0 0 0.103369
0 0 0
0 0 0.20162
0 0 0.158045
0 0 0.1895
0 0 0.117976
0 0 0
0.0650831 0.253489 0.330817
0 0 0.195978
0 0 0.0954935
0 0 0.196037
0 0 0.198935
0 0 0.123699
0 0 0.0458532
0 0 0
0 0 0.148432
0 0 0.23891
0 0 0.170824
0 0 0.124977
0 0 0.0465326
0 0 0
0.0722252 0.259069 0.349727
0 0.0610375 0.320185
0 0.0632138 0.323894
0 0.0636484 0.327647
0 0.0622454 0.334519
0 0 0.141245
0 0 0.159223
0 0 0.184431
0 0 0.18617
0 0 0.175981
0 0 0.0185446
0 0 0.0235244
0 0 0.0251777
0 0 0.0242009
0 0 0.0266109
0 0 0
0 0 0.172209
0 0 0.197582
0 0 0.200017
0 0 0.201618
0 0 0.205549
0 0 0.119763
0.07837 0.265182 0.368042
0 0.060813 0.340422
0 0.0617069 0.343954
0 0.0568419 0.344869
0 0.0543909 0.344305
0 0.0552614 0.342148
0 0.0549269 0.34316
0 0.0561403 0.340689
0 0.0558923 0.339549
0 0.0553384 0.340157
0 0.055774 0.341747
0 0.0571053 0.342016
0 0.058072 0.343844
0 0.0596195 0.345299
0 0.0602686 0.348276
0 0.061264 0.350839
0 0 0
0 0 0.0277175
0 0 0.0279373
0 0 0.0285778
0 0 0.0289564
0 0 0.0301543
0 0 0.0298651
0 0 0.0276748
0 0 0.0286745
0 0 0.0289184
0 0 0.0290183
0 0 0.0290373
0 0 0.029892
0 0 0.0302703
0 0 0.0317443
0 0 0.0309708
0.0905744 0.274047 0.398833
0 0.0524016 0.368689
0 0.049569 0.373176
0 0.0474863 0.374334
0 0.0444321 0.372484
0 0.0448896 0.371762
0 0.0465148 0.371326
0 0.0455213 0.370631
0 0.0473101 0.370178
0 0.0494665 0.369979
0 0.0496826 0.371165
0 0.049365 0.372315
0 0.0502646 0.374863
0 0.0512361 0.377871
0 0.0509954 0.38375
0 0.0504375 0.387208
0 0 0.0254835
0 0 0
0 0 0.00092612
0 0 0.00134194
0 0 0.00217799
0 0 0.00258998
0 0 0.00176218
0 0 0.0026154
0 0 0.00277262
0 0 0.00126429
0 0 0.00195203
0 0 0.00235238
0 0 0.00251682
0 0 0.00209658
0 0 0.00249591
0 0 0.00249147
0 0.0616938 0.353412
0 0.0624692 0.359141
0 0.061358 0.363306
0 0.0605083 0.369472
0 0.0593746 0.374482
0 0.0573119 0.379548
0 0.0573342 0.384836
0 0.0547752 0.391431
0 0.0530544 0.395783
0.000994899 0.052322 0.399349
0.000782021 0.0500091 0.405216
0.000824513 0.0470366 0.409276
0.0834668 0.0654033 0.238774
0 0.0717723 0.0655734
0.0273995 0.10449 0.33833
0 0.0161332 0
0 0 0.031871
0 0 0.0331796
0 0 0.0326492
0 0 0.0350593
0 0 0.0336757
0 0 0.0367818
0 0 0.0362105
0 0 0.037118
0 0 0.0379877
0 0 0.039442
0 0 0.0385251
0 0 0.0397394
0 0.0238731 0.281367
0.0399667 0.0459538 0.119164
0 0.184845 0
0 0 0.107762
0 0.0496777 0.391807
0 0.0513488 0.396215
0 0.0498959 0.401094
0.00075914 0.049388 0.406545
0.00155381 0.0474995 0.409834
0.00197642 0.0456603 0.415017
0.00252576 0.0432179 0.418913
0.00312782 0.0414014 0.423251
0.00366773 0.039759 0.425812
0.00311831 0.0366908 0.429857
0.00365395 0.0350704 0.431473
0.00366359 0.0338855 0.433312
0.0959187 0 0.0235505
0 0.193109 0
0 0 0.00457184
0 0 0.0038714
0 0 0.0051394
0 0 0.0050941
0 0 0.00551715
0 0 0.0057266
0 0 0.00597696
0 0 0.00703963
0 0 0.00660223
0 0 0.00726456
0 0 0.0075077
0 0 0.00748228
0.0175301 0.0887904 0
0 0 0
0 0 0.0564091
0 0 0
0.135092 0.0252367 0.154214
0 0 0
0 0.200333 0
0 0 0
0.179915 0.00252822 0
0.187726 0.0580196 0
0.180816 0.0752432 0
0 0 0.161859
0.307478 0.233888 0.0307402
0.16161 0 0
0.41152 0 0
0.228828 0.173121 0
0.175727 0 0.0707445
0 0.00216414 0.0218258
0 0.0986006 0.172208
0 0 0.151612
0 0 0
0 0.0095254 0
0 0.194887 0
0 0.18316 0
0.0739284 0.148389 0.137331
0.287357 0 0
0.306901 0.108191 0
0.148903 0 0
0.2034 0 0
0 0 0.0798643
0 0 0.104849
0 0 0.258005
0 0 0
0 0 0
0 0.0136336 0.224596
0.243999 0 0.142389
0 0 0
0 0 0
0 0 0
0 0 0
0 0 0
0 0 0
0 0 0
0 0.000365176 0
0 0.00294902 0
0 0.00483819 0
0 0 0
0 0 0
0 0 0
0.344581 0 0
0.485069 0.227656 0
0.137971 0.289896 0
0.241749 0.0989816 0
0.237753 0.100004 0
0.235613 0.100777 0
0.16751 0 0
0.0619626 0.0299024 0
0.104422 0.0128132 0
0.099849 0.0119992 0
0.0971993 0.0136677 0
0.0946505 0.0128137 0
0.0926555 0.0132447 0
0.0533968 0.0277286 0
0.0196674 0.100523 0
0 0 0
0 0.0352151 0
0.0201828 0 0
0 0 0
0 0 0.0324443
0 0 0.0279698
0 0 0.0296702
0 0 0.00209605
0 0 0
0 0 0
0 0 0
0 0 0
0 0 0
0.0762348 0 0
0.138686 0 0
0 0 0
0.0172263 0.0831051 0
0.120772 0 0
0.150542 0.102201 0.136736
0 0.181331 0.359852
0 0 0.0127826
0 0 0.00879677
0 0 0.0111665
0.0587907 0 0
0.21995 0 0
0.116981 0 0.0613149
0.111511 0 0.0609913
0.107225 0 0.0626859
0.106018 0 0.0650719
0 0 0
0.00666128 0.0319515 0
0 0 0.00675652
0 0 0
0 0 0
0 0 0
0 0 0
0 0 0
0 0 0
0 0 0
0 0 0
0 0 0
0 0 0
0 0 0
0 0 0
0.179035 0.0590534 0
0.175117 0.0606276 0
0.176032 0.0637817 0
0.144313 0 0
0.250739 0 0
0.0400266 0.0585537 0
0 0.0524807 0
0.241049 0 0.0107531
0.279453 0 0
0 0 0
0.0354756 0 0
0 0 0
0 0 0
0 0 0
0 0 0
0.129682 0 0
0.00147111 0 0
0.0500666 0 0
0 0 0.0886923
0 0 0
0 0 0.00683617
0.182901 0.0710149 0.143776
0.0595448 0.159597 0.0399594
0 0 0.00886082
0.00501828 0 0
0 0 0.164931
0 0 0
0 0 0
0.0408487 0.0857155 0
0.0339042 0.0387814 0
0 0 0.0170289
0 0 0
0.0100918 0.0263153 0
