ply
format ascii 1.0
comment Created by Open3D
element vertex 474
property double x
property double y
property double z
end_header
0 0 0
0 0 0.016418
0 0 0.0179175
0 0 0.041189
0 0 0.127733
0 0 0.212729
0 0 0.00157516
0 0 0.0194673
0 0 0.0124293
0 0 0.147411
0 0.0624292 0.297352
0.0196987 0.0908922 0.11691
0 0 0
0 0 0.0146167
0 0 0.154582
0 0.0588415 0.309347
0 0.0765412 0.231012
0.0227471 0.0910684 0.123929
0 0 0
0 0 0.0645468
0 0 0.0542843
0 0 0.149682
0 0 0.128531
0 0 0
0 0 0.00472877
0 0 0.0689238
0 0 0.137468
0 0 0.160413
0 0 0.00239239
0 0 0.0825924
0 0 0.258671
0 0 0.234766
0 0 0
0 0 0.16739
0 0 0.169801
0 0 0.171671
0 0 0.17328
0 0 0.00460745
0 0 0.0900001
0 0 0.274189
0 0.064492 0.249351
0 0 0
0 0 0.158722
0 0 0.181165
0 0 0.184321
0 0 0.184923
0 0 0.186798
0 0 0.0499644
0 0 0.0680681
0 0 0.183856
0 0 0.0536327
0 0 0.10451
0.0465032 0 0.203346
0 0 0.193691
0 0 0.194566
0 0 0.197287
0 0 0.198611
0 0 0.198964
0 0 0.214574
0 0 0.165999
0 0 0.199484
0 0 0
0 0.0172138 0
0 0 0.393794
0 0 0.245253
0 0 0
0 0.0319866 0.0819893
0 0 0.120058
0 0 0.230724
0 0 0.179865
0 0 0.213748
0 0 0.0693227
0 0 0
0 0.00819737 0
0.116243 0 0.0480124
0 0 0.133302
0 0 0.100613
0 0 0
0 0 0.0056019
0 0 0
0 0 0
0 0 0.0107114
0 0 0.00974842
0 0 0.0782596
0 0.15245 0.131514
0 0.136233 0.10881
0 0.0701006 0.167743
0 0.00187599 0.172372
0 0 0.0617116
0 0 0
0 0 0
0 0 0.0152934
0 0 0.0896336
0 0.160739 0.149513
0.00140175 0.14242 0.126762
0 0.072536 0.189206
0 0.0720946 0.186035
0.000588218 0.0831522 0.0934916
0 0 0
0 0 0
0 0 0
0 0 0
0 0 0
0.00951933 0.195046 0.180846
0 0 0.0174641
0 0 0.00977279
0 0 0.139296
0 0.0551616 0.282149
0.00865915 0.0810221 0.106637
0 0 0
0 0 0
0 0 0
0 0 0
0 0.0530142 0.120851
0 0.0897445 0.241565
0 0.0726876 0.185639
0 0.0746725 0.182464
0 0.07588 0.178413
0 0 0.125522
0 0.115167 0.0728758
0 0.0608138 0.289441
0 0.0732739 0.217692
0.0148344 0.0852504 0.116782
0 0 0
0 0 0.0555231
0 0 0.197317
0 0.0572011 0.290225
0 0.0728477 0.210393
0 0.0729719 0.207213
0.00912051 0.0856808 0.106482
0 0 0
0 0 0
0 0 0
0 0 0
0 0 0
0 0 0
0 0 0
0 0 0.000212458
0 0 0.0608796
0 0 0.211937
0 0.0537433 0.314006
0.0191853 0.084008 0.121702
0 0 0
0 0 0.0001326
0 0 0.000642721
0 0 0.0564585
0 0 0.198534
0 0.0605469 0.29249
0 0.0750845 0.210199
0 0.0735818 0.206954
0 0.0754709 0.203765
0 0 0.120928
0 0 0.130489
0 0 0.152869
0 0 0.244422
0 0.0651294 0.220227
0 0 0
0 0 0.0667434
0 0 0.132794
0 0 0.151235
0 0 0.241579
0 0.0542193 0.324519
0.0214858 0.0842732 0.125687
0 0 0
0 0 0.00076944
0 0 0.00165123
0 0 0.00118188
0 0 0
0 0 0.160861
0 0 0.163754
0 0 0.142532
0 0 0
0 0 0.145826
0 0 0.1658
0 0 0.164992
0 0 0.164252
0 0 0.138864
0 0 0
0 0 0.0707422
0 0 0.138435
0 0 0.155145
0 0 0.153008
0 0 0.149907
0 0 0.0875354
0 0 0.175303
0 0 0.176323
0 0 0.151981
0 0 0.0361489
0 0 0.178938
0 0 0.178093
0 0 0.178498
0 0 0.177618
0 0 0.150596
0 0 0.0339598
0 0 0.173821
0 0 0.173392
0 0 0.169981
0 0 0.168017
0 0 0.164761
0 0 0.162605
0 0 0.189222
0 0 0.189148
0 0 0.0579564
0 0.0701543 0
0 0 0.104348
0 0 0.367484
0 0 0.22507
0 0 0.190011
0 0 0.0586056
0 0.07072 0
0 0 0.362328
0 0 0.220914
0 0 0.184022
0 0 0.182929
0 0 0.180668
0 0 0.177549
0 0 0
0 0 0.344982
0 0 0.236098
0 0 0.0637159
0 0 0.0922815
0 0 0
0 0.0126329 0
0 0 0.382579
0 0 0.236108
0 0 0.0647426
0 0 0
0 0.0140486 0
0 0 0.109501
0 0 0.109533
0 0 0.107913
0 0 0.106294
0.108981 0 0.0449938
0 0 0
0 0.00695053 0
0 0 0.117287
0 0 0.116184
0 0 0.395644
0.0978278 0 0.102917
0 0 0
0 0.0079345 0
0 0 0.118466
0 0 0.396416
0.0958344 0 0.103752
0 0 0.0955484
0 0 0.0951029
0 0 0.0941185
0 0 0.0928603
0 0 0.0269006
0 0 0.252053
0.0419933 0 0.0428203
0 0 0.146179
0 0 0.0696838
0 0 0
0 0.00473431 0
0 0 0.122276
0.0150645 0 0.259782
0.0732607 0 0.138587
0 0 0
0 0.00632759 0
0 0 0.125112
0 0 0.123079
0 0 0.122263
0 0 0.121251
0 0 0.00361917
0 0 0
0 0.0771445 0.163087
0 0.0109178 0.167663
0 0 0.0581891
0 0 0
0 0 0
0 0 0
0 0 0
0 0.130022 0.184021
0 0 0.0584327
0 0 0
0 0 0
0.0166128 0.203312 0.195157
0 0 0.125522
0 0 0.00181043
0 0 0
0 0.132442 0.189205
0 0 0.0607699
0 0 0
0 0 0
0 0 0
0 0 0.0106441
0 0 0
0 0 0
0 0 0.0738308
0 0 0
0 0 0
0.013756 0.20108 0.187593
0 0 0.104974
0 0 0
0 0 0
0.0336631 0.221677 0.232542
0 0.0753381 0.208615
0 0 0.123896
0 0 0
0 0 0
0.0238065 0.212602 0.20977
0 0 0.0607795
0 0 0
0 0 0
0 0.0490366 0.121962
0 0 0.0436192
0 0 0.066688
0 0 0
0 0 0.0218282
0 0 0.0021364
0 0 0
0 0 0.0747278
0 0 0.0754918
0 0 0.0144424
0 0 0
0 0.0424142 0.13927
0 0 0
0 0 0
0.0221285 0.210249 0.203865
0 0 0.110133
0 0 0.0464048
0 0 0.0706675
0 0 0.0101496
0 0 0
0 0 0.159481
0 0 0.156262
0 0 0.0290303
0 0.206003 0.195289
0 0 0.0592954
0 0 0.140951
0 0 0.080078
0 0 0
0 0 0.0723759
0 0 0.0717127
0 0 0.0130893
0 0.00432249 0
0 0 0.0634361
0 0 0.117027
0 0 0.190759
0 0 0.0786721
0 0 0.172732
0 0 0.171471
0 0 0
0 0.0888368 0
0 0 0.183948
0 0 0.154466
0 0 0.149941
0 0 0
0 0 0.104319
0 0 0.138743
0 0 0.136463
0 0 0
0 0 0.0934705
0 0 0.128405
0 0 0.107004
0 0 0
0 0 0.103979
0 0 0.103717
0.0880552 0 0.0326592
0 0 0.106207
0 0 0.197679
0 0 0.167133
0 0 0
0 0 0
0 0 0.201856
0 0 0.150512
0 0 0
0 0 0
0 0 0.185756
0 0 0.138725
0 0 0.118749
0 0 0
0 0 0.0917669
0 0 0.0896439
0 0 0.0870252
0 0 0.215621
0 0 0
0 0.0360113 0.0683358
0.0819571 0 0.0337022
0 0 0.103253
0 0 0.191016
0 0 0
0 0.0390997 0
0 0 0.0915359
0 0 0.177202
0 0 0.150519
0 0 0.0381566
0 0 0.0153257
0 0 0.119632
0 0 0.119128
0 0 0.11558
0 0 0.114524
0.0952916 0 0.0409325
0 0 0.115077
0 0 0.0834717
0 0.0805135 0
0 0.0371826 0.0659736
0.0787314 0 0.0320141
0 0 0.101491
0 0 0.190308
0 0 0.103218
0 0 0.165473
0 0 0.138897
0 0 0
0 0 0.167972
0 0 0.19519
0 0 0.273708
0 0 0.19496
0 0 0
0 0.0364106 0.110392
0 0.0154002 0.23236
0 0 0.199508
0 0 0.180368
0 0 0.0973122
0 0 0.0926651
0 0 0.169682
0 0 0.195642
0.0453384 0 0.0450442
0 0 0.152902
0 0 0
0 0.00364845 0
0 0 0.128492
0.0173558 0 0.269243
0.0787865 0 0.140718
0 0 0.103683
0 0 0.102536
0 0 0.101725
0 0 0.177473
0.0483013 0 0.048031
0 0 0.158699
0 0 0
0 0 0
0 0 0.132293
0 0 0.132365
0 0 0.132397
0 0 0.183256
0.0507507 0 0.0501747
0.0192927 0 0.0833374
0.0196504 0 0.0815459
0 0 0.160342
0 0 0.100466
0 0 0.098528
0 0 0.0976695
0 0 0.0956977
0 0.0567609 0
0 0.252422 0.107473
0 0 0.111501
0.0929623 0 0.0400337
0 0 0.112857
0 0 0.0176968
0 0.0677746 0.210102
0 0 0.15205
0 0 0.0631011
0 0 0.130778
0 0 0.129308
0 0 0.126136
0 0 0.12586
0.107999 0 0.0483442
0 0 0.126264
0 0 0.0243365
0 0.0417829 0.0970006
0 0.0245168 0.199208
0 0 0.0740258
0 0 0.0746219
0 0 0.106757
0 0 0.0291834
0 0 0.110196
0.0258676 0 0.0753512
0 0.0187952 0.22008
0 0 0.0864026
0 0 0.183886
0 0 0.208275
0 0 0.0982022
