ply
format ascii 1.0
comment Created by Open3D
element vertex 2156
property double x
property double y
property double z
end_header
0.196458 0.295046 0
0.609262 0 0
0.30905 0.186614 0
0.208959 0 0
0 0.00032543 0.0131395
0.314038 0.15868 0.0019463
0 0 0
0 0.129096 0
0 0 0.107006
0.148448 0 0
0 0.0829856 0
0 0.0967459 0
0 0 0.0179743
0.0516343 0.156641 0.258827
0 0 0
0 0.0801119 0
0.168572 0.25298 0
0.0456463 0.241767 0
0 0.119009 0
0 0.200775 0
0.25849 0.331818 0
0.148112 0 0.0879187
0.269856 0.025203 0
0 0.18286 0
0.0590523 0.141441 0
0.204214 0.0617297 0
0.0513942 0.296128 0
0.0692849 0.300805 0
0.171865 0.101421 0
0.0435428 0.173169 0.0735467
0.180065 0.10483 0
0 0.170281 0
0 0 0.102813
0.103243 0.166701 0
0 0.22903 0.241352
0.138918 0.0248636 0
0.328285 0.24092 0
0 0.202851 0.0515641
0.0528231 0.0263078 0
0.197474 0.0355518 0
0.282813 0.296012 0
0.0506329 0.141281 0
0 0 0.143784
0.146156 0 0
0.167639 0.173282 0
0.247619 0.181511 0
0.0362198 0.3299 0
0.166444 0 0
0.226721 0.257015 0
0 0.172297 0
0 0 0.0876979
0.303545 0.232114 0
0.0711396 0.074471 0.197868
0.164348 0.166278 0
0 0.153415 0.167823
0.254494 0.18945 0
0.339298 0.0687178 0
0 0.0495147 0.0786973
0.394008 0.133674 0
0.0846328 0.161452 0
0.207696 0.397854 0
0.217684 0 0
0.112369 0.357323 0
0.0976178 0 0
0.289227 0.281837 0
0.388469 0.338959 0
0.249858 0.0991708 0
0 0.132693 0
0 0 0.0283445
0.404097 0.188299 0
0.0691113 0.0724503 0.196142
0.291712 0.232664 0
0.0684896 0.071891 0.196498
0.183445 0.0772102 0
0 0.0375081 0
0.220025 0.333173 0
0.0103976 0.129153 0
0.109574 0.0773999 0
0.0489926 0.00242756 0
0.109577 0.123262 0
0.115102 0.146505 0
0.0746355 0 0
0.376065 0.169734 0
0.164748 0.174974 0
0.32381 0.186938 0
0.172294 0.128867 0
0.189601 0.0387281 0
0.222579 0.314846 0
0.167732 0 0
0.037222 0.081069 0
0.0395797 0.0829475 0
0.0391594 0.082646 0
0 0.0252558 0
0.344376 0.180711 0
0.377421 0.311172 0
0.316098 0.164642 0
0.0646049 0.033616 0
0.0927756 0 0
0.0831704 0.140974 0
0.1249 0 0
0.106049 0.141686 0
0.0603736 0.131552 0
0.244672 0.172811 0
0.0877023 0 0
0.131279 0 0
0.363653 0.279899 0
0.300113 0.22503 0
0.049471 0.251612 0
0.096187 0 0
0 0.523842 0.203774
0.152239 0 0
0.134154 0 0
0.0412476 0.174561 0.0810604
0.186052 0.108424 0
0.175548 0.129671 0
0.19182 0.035961 0
0.112483 0.0741348 0
0.369621 0.119864 0
0 0.0509544 0
0.134646 0 0
0.273472 0.251834 0
0.0662697 0.0350024 0
0.0987285 0 0
0.117543 0.306094 0
0.071979 0.30225 0
0.238836 0.0590933 0
0.250259 0 0
0 0.0494996 0
0.110067 0 0
0.272585 0.179464 0
0.0991699 0 0
0.279298 0 0
0 0.141905 0
0 0 0.0150407
0 0.350513 0
0.250463 0 0
0.0406582 0 0.125809
0.215381 0.312155 0
0 0.322198 0.0941578
0.324574 0.189927 0
0.304534 0.258088 0
0 0 0.149645
0.356659 0.271225 0
0.0709129 0 0
0.266862 0.286455 0
0.00951097 0 0
0.294703 0.290288 0
0.255654 0.280434 0
0.352244 0.223305 0
0 0.0993678 0
0 0.126958 0
0 0.233262 0
0.0176365 0.173912 0
0 0 0.135447
0.352865 0.0768354 0
0.189629 0.00341401 0
0.244083 0.222903 0
0 0.092568 0
0.193279 0.189703 0
0.130562 0.0849217 0
0.210911 0.289206 0
0.0824768 0.132017 0
0.082136 0 0
0.323256 0.0157229 0
0.177708 0.17725 0
0.339689 0.192555 0
0.188738 0.129268 0
0.202711 0.0326329 0
0.0444923 0.347474 0
0.184114 0 0
0 0.123745 0
0.126647 0.314327 0
0 0 0.16844
0.200011 0.12962 0
0 0.327588 0.261738
0.174969 0.0227166 0
0 0 0.052005
0.319388 0.216901 0
0.0951701 0.333795 0
0.252476 0.204929 0
0.355493 0.269783 0
0.23766 0.287062 0
0 0 0.148964
0.315649 0.303294 0
0.277528 0.292678 0
0.575803 0.321666 0
0 0.132917 0
0 0 0.0458798
0.363582 0.162465 0
0 0.110904 0.198311
0 0.211749 0.125115
0.211762 0.053938 0
0 0.271594 0.173457
0.396538 0 0
0.196665 0.147952 0
0 0.160268 0
0.260103 0.365201 0
0 0.00702656 0
0.137585 0.0731482 0
0.136214 0.0609917 0
0.0953152 0 0
0.328017 0.0473753 0
0.206723 0.184986 0
0.29545 0.198494 0
0.102992 0.144775 0
0.14873 0 0
0 0.1031 0
0 0.0647657 0
0.00216996 0.247255 0
0 0.29953 0
0.191726 0 0
0.236245 0.308625 0
0 0.137422 0
0.0900971 0.0799421 0
0.167598 0.0772512 0
0.455151 0.361346 0
0.364672 0.27736 0
0 0 0.179333
0.314922 0.308252 0
0.0175159 0 0
0.351585 0.312302 0
0.467479 0.383397 0
0 0.123396 0
0.134107 0.315553 0
0 0 0.170686
0.35509 0.198208 0
0 0.0269047 0.300266
0.166491 0.230868 0
0 0.152197 0.10026
0.0889415 0.0793604 0
0.266719 0.0655482 0
0.46839 0.143907 0
0 0.0381974 0.0928117
0.26897 0.1565 0
0 0.0885519 0
0.235246 0.197079 0
0.15531 0.0792027 0
0.213974 0.128967 0
0.410233 0.158927 0
0.219987 0.12954 0
0.314406 0.0224512 0
0.224595 0.131153 0
0.233774 0.0229882 0
0 0.133584 0
0 0 0.0425078
0.368612 0.162214 0
0 0.255633 0
0 0.0833609 0.0473065
0.284344 0.190473 0
0.0630959 0.326216 0.130467
0.205579 0.0115886 0
0 0 0.055893
0.422782 0.267719 0
0 0.262712 0
0.0703556 0.0100702 0
0.2567 0.0776702 0
0.362973 0.379387 0
0.292211 0.292511 0
0.300695 0.29549 0
0.30819 0.298326 0
0 0.145802 0
0 0.0605411 0
0.00823765 0.243326 0
0 0.290245 0
0 0.158934 0.188233
0.316348 0 0
0.174129 0.23463 0
0 0.342734 0.100286
0.367123 0.20073 0
0.211572 0.0755902 0
0 0.0373935 0.0983195
0.399877 0.104524 0
0.103897 0.170762 0
0.205478 0.127447 0
0.211412 0.026776 0
0.212303 0.128184 0
0.220644 0.0239286 0
0.216696 0.129871 0
0.227574 0.0237289 0
0 0.102282 0
0 0.12498 0
0 0.292562 0
0 0 0.223034
0.235286 0.235214 0
0 0.143656 0.269557
0.233389 0.219701 0
0 0.0770074 0.021878
0.232368 0.155137 0
0.296428 0 0
0.311463 0.364219 0
0 0.135434 0
0.0953441 0.0799673 0
0.16735 0.0825569 0
0.340521 0.363634 0
0.27196 0.28202 0
0.282333 0.285028 0
0.289161 0.288447 0
0 0.123229 0
0.124626 0.308474 0
0 0.229839 0
0.43621 0 0
0 0 0.0616053
0.334303 0.260098 0
0.0529142 0.315507 0.115563
0.227058 0.161467 0
0 0 0.118412
0.239003 0.00301413 0
0.152997 0.198636 0
0.434633 0.135077 0
0 0.0462812 0.0911165
0.257506 0.149243 0
0.0919033 0.16943 0
0.207984 0.185142 0
0.190539 0.0324962 0
0.187815 0.127072 0
0.198889 0.0323226 0
0.191015 0.127688 0
0.205025 0.0323816 0
0 0.130155 0
0 0 0.0403549
0.349578 0.159907 0
0 0.251783 0
0 0.172951 0
0 0.0453114 0.271707
0.0423384 0.143625 0
0.267822 0.186979 0
0.0517595 0.317282 0.113799
0.189547 0.0195003 0
0 0 0.0516126
0.347288 0.108194 0
0.0321767 0.211974 0
0.139762 0.217713 0
0.2569 0.209256 0
0.24922 0.208273 0
0.250786 0.273056 0
0.380288 0.234917 0
0 0.0972319 0
0 0.0634733 0
0 0.240319 0
0.0134212 0.349275 0
0 0.0712134 0.207632
0.161262 0.166538 0
0 0.152389 0.165703
0.293589 0.00706976 0
0.158198 0.22551 0
0 0.321448 0.0833292
0.238603 0.201791 0
0.359656 0.0656226 0
0.190559 0.137223 0
0 0.160857 0
0.187572 0.178137 0
0.17678 0.0362613 0
0.0696502 0.137732 0
0.117136 0 0
0 0.121278 0
0.122455 0.311794 0
0 0 0.165665
0.333945 0.191051 0
0 0.146096 0.266322
0.292767 0.232646 0
0.0661316 0.0723068 0.19561
0.219441 0.215341 0
0 0.0797814 0.0260927
0.209807 0.153719 0
0.269611 0 0
0.40303 0.195791 0
0 0.162042 0
0.104486 0.354409 0
0 0.0225175 0
0.0732243 0.0968406 0
0.139219 0.0957778 0
0.287196 0.334522 0
0.496141 0.299219 0
0 0.153437 0.116205
0.0907682 0 0.0105596
0.148029 0.310812 0
0 0.0511275 0.231896
0.0914157 0.19161 0.178823
0.236611 0.150092 0
0.0704131 0.0710871 0.192778
0.139323 0.0282507 0
0.131788 0.206093 0.109201
0.369055 0.125576 0
0 0 0.0214427
0.318217 0 0
0.0117926 0.145207 0
0.0473721 0.308092 0
0.317887 0.186429 0
0.3276 0.0112568 0
0 0.00686008 0.133458
0.367221 0.131891 0
0.0723159 0.161511 0
0.144551 0.216588 0
0.0995989 0 0
0 0.0202783 0
0 0.0273569 0.0416212
0.211531 0.302567 0
0.0728052 0.0530125 0
0.00721611 0.047015 0.0643163
0.160744 0.301479 0
0.156233 0 0.0638785
0.420411 0.0778584 0
0.0828114 0.0471666 0.0952925
0.388583 0.175084 0
0.132651 0.0643105 0
0.051058 0.0310141 0
0.165895 0.368361 0
0.356658 0.0153879 0
0.332368 0.0572824 0
0 0.144067 0
0.229609 0.203557 0
0.170585 0.0888805 0
0.0651785 0.228457 0
0.321126 0.159258 0
0 0.179584 0
0.0155382 0 0.192791
0.0493219 0.432862 0
0.0915712 0.160441 0
0 0.0729772 0.210359
0.284834 0.0950672 0
0.161108 0.0399946 0.121282
0.49209 0.232482 0
0.028336 0 0
0.0406512 0.129632 0
0.33301 0.0113935 0
0.187476 0.13254 0
0 0.0357882 0
0.156726 0.369925 0
0.347989 0.0147875 0
0.154675 0.0745993 0
0 0.139788 0
0.170732 0.183476 0
0.184546 0.0873215 0
0.0893423 0.0699127 0
0.366013 0.172413 0
0.0452242 0.179953 0.0937859
0.273009 0.113908 0
0.120273 0.0722617 0
0.389608 0.120523 0
0.417504 0.254609 0
0 0 0
0.148644 0 0
0 0.330425 0.00405392
0.0458266 0 0
0.0176034 0.4858 0.217876
0.00368701 0 0
0.262161 0.265522 0
0.0913138 0.0392397 0
0.267831 0.122295 0
0.108338 0.0572343 0
0 0.0474286 0
0.155344 0 0
0 0.0419639 0
0.126678 0 0
0.451029 0.260253 0
0.118764 0 0
0 0.0171382 0
0.318789 0.253507 0
0 0.067187 0
0.343462 0.0274523 0
0.452288 0.26375 0
0 0 0
0.164827 0 0
0 0.0451514 0
0.16273 0 0
0.30219 0.262739 0
0 0 0
0 0.425807 0.309203
0.084097 0.0254252 0
0.118263 0 0
0.0821773 0.368147 0
0.0741299 0.0691789 0
0.262766 0.043621 0
0.308617 0.184713 0
0 0 0
0.2157 0 0
0 0.0387216 0
0.138328 0 0
0.463809 0.262604 0
0.0666901 0.0340964 0
0.12076 0.0581328 0
0.016956 0.115135 0.0248915
0.254863 0 0
0.506765 0.195011 0
0.461666 0.350318 0
0.0382566 0.250172 0
0.0603462 0 0
0.0202085 0.511082 0.238676
0 0 0
0.178391 0 0
0 0.337903 0.00497552
0.061851 0 0
0.0159574 0.504258 0.234233
0 0 0
0.173047 0 0
0 0.0490381 0.00822044
0.113685 0.146182 0
0.158694 0 0
0.143513 0.148587 0
0.124946 0.0543934 0
0 0.0313161 0
0.14523 0 0
0.128541 0.0562739 0
0 0.0314163 0
0.178552 0 0
0 0.0328933 0
0.140939 0 0
0.12322 0.0567889 0
0 0.0321282 0
0.335358 0 0
0 0.115547 0
0.614536 0.330212 0
0.548563 0.344179 0
0 0 0
0.179702 0 0
0.316718 0.264367 0
0 0 0
0.180625 0 0
0.196729 0 0
0.0788417 0.0636454 0
0.275164 0.188348 0.0794195
0 0 0
0.174415 0 0
0 0.0332505 0
0.333038 0 0
0 0.115073 0
0.108307 0.142314 0
0.152283 0 0
0.138916 0.148726 0
0.12142 0.0524879 0
0 0.0265556 0
0.145249 0 0
0.125797 0.0565533 0
0 0.0300294 0
0.142652 0 0
0.46589 0.26274 0
0.0698651 0.032121 0
0.122696 0.0593116 0
0 0.0314775 0
0.169698 0 0
0 0.0309773 0
0.337033 0 0
0 0.114762 0
0.456169 0.368827 0
0.361546 0.239624 0
0 0 0
0.249893 0.0309105 0
0 0.334722 0.00494789
0.0269971 0 0
0.22094 0 0
0 0.332116 0.00447752
0.061632 0 0
0.0134232 0.49884 0.231413
0 0 0
0.171254 0 0
0 0.0322888 0
0.166332 0 0
0 0.0293886 0
0.524953 0.0720296 0
0.197314 0.125208 0
0.206922 0.0259172 0
0.20592 0.129149 0
0.218999 0.0273535 0
0.136544 0.0651759 0
0.41887 0.116577 0
0.00455584 0.0264257 0
0.173989 0 0
0.30438 0.258264 0
0 0 0
0.173383 0 0
0 0.0297818 0
0.137817 0 0
0.11718 0.0580987 0
0 0.0320888 0
0.165661 0 0
0 0.0319004 0
0.167267 0 0
0 0 0
0.419861 0.367311 0
0.372362 0.222641 0
0.102011 0.0752932 0
0.246949 0 0
0.186114 0 0
0.0400124 0.141255 0
0.0756075 0 0
0.185874 0 0
0.0752784 0.0649687 0
0.266497 0.186632 0.0737312
0 0 0
0.166066 0 0
0 0.0339459 0
0.162265 0 0
0 0.0309426 0
0.515786 0.0704149 0
0.0960195 0.137186 0
0.0595034 0.128273 0
0.100433 0.0545429 0
0 0.0316211 0
0.132527 0 0
0.114978 0.0584819 0
0 0.0327269 0
0.13194 0 0
0.445862 0.257868 0
0.0637532 0.0353244 0
0.112697 0.059477 0
0 0.0346884 0
0.161334 0 0
0 0.031545 0
0.166266 0 0
0 0 0
0.453802 0.313316 0
0.209256 0.219542 0
0 0 0
0.229802 0.0408558 0
0.292699 0.256028 0
0.248557 0 0
0.0706772 0.0663232 0
0.262217 0.184449 0.0729007
0 0 0
0 0.417352 0.298656
0.249235 0 0
0.068474 0.0665337 0
0 0 0
0.160918 0 0
0 0.0320619 0
0.501766 0.0679708 0
0.178949 0.223166 0
0.0648326 0.224675 0
0.103527 0.114603 0
0.252576 0.112353 0.0208616
0.324745 0 0
0.0365917 0.139569 0
0.0387075 0.0379767 0
0.270244 0.136432 0
0 0.228366 0
0.226403 0.0410042 0
0.290311 0.158437 0
0 0.231706 0
0.398611 0.161361 0
0.0926185 0 0
0 0.0354232 0
0.161825 0 0
0 0 0
0.188365 0.185683 0
0.24735 0.0435299 0
0.10538 0.0662736 0
0.219325 0.0505782 0
0.274987 0.140906 0
0.0810791 0 0
0.138472 0.128588 0
0.160944 0.30076 0.0743072
0 0 0
0.230391 0.0408261 0
0 0.0360359 0
0.127166 0 0
0.151728 0.228871 0
0 0 0
0 0.244454 0.21125
0.0332102 0 0
0.0523022 0.0146439 0
0.191457 0 0
0.40065 0.303208 0
0.261987 0.066735 0
0.167919 0 0
0.151814 0.289144 0
0.131008 0.164713 0.0961303
0.157212 0 0
0.171694 0.149183 0
0.154673 0.293173 0
0.132682 0.163345 0.0965107
0.159832 0 0
0.100886 0.0878088 0
0.160334 0.304344 0.0764639
0 0 0
0.40474 0.285262 0
0 0.104479 0.235092
0.376909 0.0506478 0
0.186451 0.426986 0
0.0274652 0 0.0125339
0.179757 0.0722616 0
0.31801 0.373272 0
0.0246111 0 0.00835576
0.0500307 0 0
0 0.281622 0.348945
0.128137 0 0
0.102314 0 0
0.0260181 0.108329 0.0271883
0.266439 0 0
0 0.195419 0.22468
0.175197 0 0
0 0.041508 0.00909629
0.100549 0 0
0 0.0266142 0
0.335737 0 0
0 0.111007 0
0 0.125393 0.2114
0.0724045 0.0658445 0
0 0 0
0.329428 0 0
0 0.111715 0
0 0.229285 0
0.270175 0.209049 0
0.00703561 0.176545 0
0 0 0
0.570471 0.236045 0
0.180509 0 0
0.115019 0.0141415 0
0 0.0228466 0
0.462902 0.0694312 0
0 0.0437878 0.271558
0.254088 0.1302 0
0 0.329798 0.404093
0.0386702 0 0
0 0.137858 0.145015
0 0.167584 0
0.0855127 0 0.212284
0.285742 0.0836822 0
0 0.16269 0.158648
0.126401 0.281152 0
0 0.0337445 0.181067
0.256904 0.0380699 0
0.0784761 0.0540193 0.0961544
0.372339 0.175536 0
0.0731247 0.222149 0
0.204936 0 0.0373951
0.153153 0.0790863 0
0 0.145172 0
0.253944 0.330289 0
0.340591 0.0152214 0
0.128269 0.173996 0
0 0.261112 0.162831
0.235198 0.202707 0
0.28765 0.0836586 0
0 0.167499 0
0 0 0.115324
0.390922 0.201631 0
0 0.106242 0.241768
0.0547233 0.411659 0
0.161002 0.152991 0
0 0.017563 0.0964917
0.203876 0.0856284 0
0.203823 0.299036 0
0.149999 0.0255535 0
0.114935 0.168073 0
0 0.255389 0.129309
0.185724 0.180029 0
0.287081 0.0542867 0
0.0617916 0 0.0681817
0.437619 0.201226 0
0 0.159771 0
0.0871254 0.239563 0
0.191322 0.0332984 0
0.105724 0.0731381 0
0 0.09623 0
0.426437 0 0
0 0.115545 0
0.0503762 0.357142 0
0.107196 0.21645 0
0 0.0888545 0.189494
0.150987 0.162973 0
0 0.154182 0.137402
0.120462 0.167114 0
0.350954 0.0418594 0
0 0.0354459 0
0.258227 0.254496 0
0 0.199919 0.128656
0.119748 0.171704 0
0 0.022112 0.178019
0.304257 0.0568725 0
0 0.116687 0
0.0615243 0.0544817 0
0.314202 0.230323 0
0 0.0374222 0
0.140899 0.275117 0
0 0 0.30564
0.377461 0.27775 0
0 0.208293 0.0611707
0.344685 0 0
0 0.188827 0
0.427709 0.109461 0
0 0.0523567 0
0.356301 0.217097 0
0 0.216117 0.0454011
0.125559 0.0893701 0
0 0.127406 0.27227
0.0383602 0.281667 0
0.148675 0 0
0.0167333 0.183225 0.0481007
0.210534 0.37122 0
0 0 0.171665
0.419515 0.210714 0
0 0.08184 0
0.00757697 0 0
0 0 0
0.417106 0.109513 0
0 0.213573 0
0 0.251485 0
0 0.237476 0
0 0.0380751 0.283765
0.000262589 0.23355 0
0 0.126451 0.28927
0 0.229001 0
0 0.135321 0
0.20682 0.194143 0
0 0.203986 0.125721
0.124158 0.171381 0
0 0.0216204 0.182881
0.240406 0 0
0.0621572 0.208426 0
0.446743 0.354346 0
0 0 0
0 0.0367108 0
0.318383 0.0164192 0
0 0 0.0894566
0.365992 0.23571 0
0 0.14917 0
0.420262 0.106224 0
0 0.250867 0
0.452405 0.10738 0
0 0.0476194 0
0.500855 0.277761 0
0 0.058436 0.066101
0.150723 0.131673 0
0 0.221083 0.205626
0.129336 0.178722 0
0.280532 0 0
0 0.205844 0
0.380139 0.115239 0
0 0.0393864 0.0904977
0.39505 0.204488 0
0 0.13667 0
0 0.0405589 0
0.00704841 0.210528 0
0 0.0350686 0.290995
0.252797 0.164885 0
0 0.128345 0.328155
0.230386 0.163102 0
0 0.130011 0.301087
0.10324 0.198339 0
0 0.12678 0.309694
0.00141164 0.2327 0
0 0.282523 0
0.260167 0 0
0 0.102371 0
0.243082 0.212568 0
0 0.167729 0.278133
0.0861985 0.339639 0
0.178198 0.289767 0
0.00977039 0 0
0 0 0
0.408312 0.110077 0
0 0.213255 0
0 0.251433 0
0 0.247643 0
0 0.288263 0
0.396675 0.0314767 0
0 0.0718045 0
0.152703 0.0794251 0
0 0.151562 0.114246
0.117407 0.255581 0
0 0.176876 0.257512
0.213827 0.118494 0
0.234696 0.297348 0
0 0.209181 0.0587265
0.0933044 0.0809575 0
0.072657 0 0
0 0 0
0 0 0.154169
0.409964 0.23126 0
0 0.0889266 0.162185
0.304454 0.0744805 0
0 0.0782317 0
0.446997 0.101163 0
0 0.00367865 0.0870671
0.271091 0.275268 0
0 0.278332 0.198962
0.075891 0.124857 0
0 0.112635 0.347738
0.0444608 0.286529 0
0 0.0466835 0.175373
0.462999 0.0346951 0
0.0471474 0.166903 0
0.312775 0.12708 0
0 0.00708434 0
0.172056 0.0177408 0
0.136415 0.235865 0
0.426414 0.275885 0
0 0.0885294 0.168085
0 0 0
0 0 0
0 0.254745 0
0 0.25232 0
0 0.0221574 0.342129
0.0103302 0.247296 0
0 0.121964 0.357779
0.0849317 0.298263 0
0.426599 0.02323 0
0 0.176154 0
0.352946 0.0316956 0
0 0.206272 0
0.320096 0.220019 0
0 0.0937959 0.227604
0.0144899 0.488485 0
0 0.0539846 0.366735
0.230602 0 0
0 0 0
0.112417 0.653944 0
0.00277249 0 0
0 0 0
0.391158 0.233635 0
0 0.142628 0
0.478679 0.0970476 0
0 0.263502 0
0.537807 0.0962011 0
0 0.175977 0
0.390841 0.0351727 0
0 0.0953642 0
0.385458 0.18309 0
0 0.193037 0.237572
0.109696 0.194703 0
0 0.11794 0.340504
0.0819087 0.294007 0
0.188809 0 0
0.0275799 0.1939 0.0456305
0.292075 0.31458 0
0 0.0892985 0.157853
0.246061 0.00555063 0
0.0722354 0.0793521 0
0 0 0
0 0 0.150197
0.261898 0.15874 0
0 0.125201 0.349302
0.256887 0.158779 0
0 0.127094 0.341133
0.252018 0.159247 0
0 0.125652 0.335043
0.126003 0.201921 0
0 0.120593 0.364146
0.0250674 0.246955 0
0 0.296616 0
0.196995 0 0
0 0.0778593 0.0581536
0.221093 0.317453 0
0 0.102062 0.127002
0.354954 0 0
0 0.213135 0
0.413319 0.274823 0
0 0.0209586 0.0587783
0 0 0
0 0 0
0 0.251888 0
0 0.254322 0
0 0.2521 0
0 0.307255 0
0.46787 0.0143902 0
0 0.0590669 0
0.203643 0.0715735 0
0 0.153009 0.134199
0.230011 0.321569 0
0 0.104944 0.132079
0.358386 0 0
0 0.21617 0
0.341494 0.213881 0
0 0.0996444 0.20787
0.0064717 0.344969 0
0.00435663 0 0
0 0 0
0.388116 0.232954 0
0 0.137976 0
0.486333 0.0931419 0
0 0.137698 0
0.483956 0.0936273 0
0 0 0.0980701
0.432317 0.239044 0
0 0.311832 0.164402
0.230468 0.0664615 0
0 0.104047 0.401401
0.0773533 0.297469 0
0 0.034446 0.213513
0.372788 0 0
0 0.213219 0
0.349938 0.219422 0
0 0.104909 0.205423
0.0860444 0.293799 0
0.308411 0 0
0 0.115148 0
0 0.00151283 0
0 0 0.141853
0.251767 0.155713 0
0 0.126404 0.340549
0.25012 0.152686 0
0 0.125469 0.339731
0.132013 0.201297 0
0 0.115398 0.380699
0.0357739 0.248243 0
0 0.302902 0
0.3377 0 0
0 0.213432 0
0.366495 0.220043 0
0 0.101799 0.211593
0.091189 0.296888 0
0.306828 0 0
0 0.0975216 0
0.261864 0.217833 0
0 0.253171 0.376003
0 0 0
0 0 0
0 0.244021 0
0 0.245005 0
0 0.302778 0
0.485261 0.0114929 0
0 0.0467819 0
0.335055 0.0251604 0
0 0.176523 0.0810563
0.297508 0.216447 0
0 0.179923 0.294641
0.101308 0.29429 0
0.316225 0 0
0 0.243863 0
0.17988 0.0189366 0
0 0.0534508 0.199329
0.110309 0.287405 0
0.30811 0.143251 0
0.0719066 0.23309 0
0.1526 0.295927 0
0 0.0938259 0
0.165717 0.010378 0
0.394933 0.265555 0
0 0.216396 0.0701462
0.0746477 0.0137898 0
0.0856444 0 0
0.238708 0.174568 0
0.398496 0.268098 0
0 0.219517 0.070454
0.363083 0.0410998 0
0 0 0
0.38202 0.188966 0
0.126035 0.226669 0
0 0.0885502 0
0.369421 0 0
0.234356 0.149507 0
0 0.0901396 0
0.36981 0.390112 0
0.383782 0 0
0.209224 0.17958 0
0 0.158473 0.218754
0.17343 0.00796539 0
0.230378 0.198786 0
0.205692 0.0307722 0
0.176955 0.233596 0
0.121073 0.086533 0
0.174436 0.0133754 0
0.321184 0.201677 0
0 0.224477 0.129477
0.12276 0.219845 0
0.346512 0.0353458 0
0 0.0369369 0.100261
0.347033 0.148189 0
0.0198704 0.226445 0
0.317178 0.199756 0
0.19089 0.192875 0
0 0.175864 0.352361
0.00968282 0.225673 0
0.165838 0.0878938 0
0.405337 0.27009 0
0 0.141765 0
0.0808334 0.0125387 0
0.193155 0.0744783 0
0.373867 0.350541 0
0.395473 0.0542638 0
0.0965487 0 0.0846659
0.292953 0.354851 0
0 0.229223 0.144141
0.360207 0.375901 0
0.247756 0.0862116 0
0.32492 0.205915 0
0 0.230655 0.128725
0.161874 0.0116501 0
0.319834 0.20586 0
0 0.228231 0.131474
0.206603 0.212795 0
0.438393 0.0659786 0
0.231385 0.147016 0
0 0.0906314 0
0.363751 0.385423 0
0.375867 0 0
0.43579 0.0491915 0
0 0.0984371 0.0702513
0.0788293 0.361937 0
0.124645 0.0900447 0
0.324382 0.200504 0
0.271188 0.261183 0
0 0.0893322 0.186989
0.28682 0 0
0.0945443 0.0698002 0
0.270099 0.351107 0
0 0.0974032 0.163935
0.59114 0.0158401 0
0.0499489 0.00685686 0
0.319718 0 0
0 0.0739189 0
0.0757083 0.0647046 0
0.16062 0.105505 0
0.241452 0.176521 0
0.316833 0.204936 0
0 0.226444 0.128978
0.355623 0 0
0.264013 0.314365 0
0 0.215575 0.0707044
0.176651 0.143278 0
0 0 0
0.0714439 0.0638811 0
0.257193 0.240069 0
0.324667 0.175657 0
0.406801 0.270488 0
0 0.271802 0
0.239991 0.088956 0
0.431117 0 0
0.359931 0.413149 0
0 0.139907 0
0.113494 0.0805253 0
0.305472 0.0586967 0
0.353505 0.352681 0
0 0.00756676 0.079431
0.430171 0 0
0 0.224648 0
0.421654 0.237548 0
0 0.0981476 0.257682
0.361131 0.269608 0
0 0 0.180808
0.270074 0.0970298 0
0.0423196 0.0364579 0
0.373032 0.218597 0
0.0207252 0.229146 0
0.16224 0.0126202 0
0.38987 0.267384 0
0 0.141364 0
0.0752217 0.0117353 0
0.288626 0.0605311 0
0.250629 0.385106 0
0 0 0.181139
0.442127 0.219118 0
0 0.0874917 0
0.251228 0 0
0 0.0842949 0
0.197482 0.392024 0
0.401795 0.209017 0
0 0.00970105 0.0787702
0.39368 0 0
0 0.225652 0
0.49009 0.299353 0
0 0.00772968 0.0786336
0.399112 0 0
0 0.226816 0
0.421272 0.235695 0
0 0.095958 0.260271
0.122097 0.329457 0
0.144158 0.0770195 0
0 0 0
0.198535 0.0138083 0
0.14398 0.252236 0
0.487436 0.292241 0
0.193454 0 0
0 0.0855206 0.0440385
0.231105 0.551511 0
0.287456 0 0
0 0 0
0.244536 0 0
0.155994 0.380606 0
0.275274 0.390502 0
0.396702 0.208253 0
0 0.0883303 0.186563
0.255564 0 0
0 0.0839754 0
0.24548 0.569378 0
0.229959 0 0
0 0 0.163323
0.0974245 0.543931 0
0.337789 0.146304 0
0 0.0995467 0.260581
0.118116 0.329345 0
0.387294 0 0
0 0.0906888 0.00955367
0.328842 0.407605 0
0 0.0317117 0.255892
0.234249 0 0
0.0650488 0.029089 0.0602758
0 0.393199 0
0.302237 0.2052 0
0 0.176322 0.258757
0.24345 0 0
0.0861678 0.0723813 0
0.167756 0.385163 0
0 0.0680491 0.264398
0.444683 0.219152 0
0 0.0888147 0
0.251805 0 0
0 0.0848488 0
0.241868 0.565482 0
0.301187 0 0
0 0 0.0966748
0.255244 0 0
0.169404 0.239513 0
0.272368 0.352375 0
0 0.18014 0.277056
0.432611 0 0
0 0.106095 0
0.439781 0.30553 0
0.352281 0 0
0 0.0892255 0.00969266
0.342621 0.238479 0
0 0.190777 0.34912
0.179849 0.374423 0
0.335655 0.033754 0
0 0.0371271 0.100034
0.342022 0.149078 0
0.0174241 0.227176 0
0.120135 0.22065 0
0.387494 0.205141 0
0 0.0105984 0.0730736
0.248505 0 0
0.0843445 0.213644 0
0.277096 0.38995 0
0.397895 0.208263 0
0 0.0890041 0.187075
0.254998 0 0
0.0914952 0.0707768 0
0.220325 0.569398 0
0 0.119037 0.357683
0.359418 0 0
0 0 0
0.397246 0 0
0.0732863 0.398484 0
0.419395 0.236803 0
0 0.178277 0.373307
0 0.240551 0
0.258156 0.146796 0
0 0.190261 0.350543
0.124039 0.330936 0
0.231554 0 0
0 0.0883868 0
0.0768632 0.387648 0
0.404598 0.201789 0
0.195319 0 0
0 0.0857789 0.044591
0.234301 0.555756 0
0.293488 0 0
0 0 0.0949408
0.25075 0 0
0.0580773 0.250637 0
0.201334 0.39129 0
0.402546 0.207122 0
0 0.00676358 0.0771759
0.259857 0 0
0.198906 0.204521 0
0.306459 0.571056 0
0 0.0269064 0.27741
0.285986 0 0
0 0 0
0.151715 0.324591 0
0.352907 0.209899 0
0 0.235097 0.145821
0.233778 0.18389 0
0.388648 0 0
0 0.0886384 0.00962187
0.265065 0 0
0 0 0.0882133
0.226279 0 0
0.196977 0.314703 0
0.126657 0.417106 0
0.208684 0 0
0 0.033311 0.172575
0.244092 0 0
0.159603 0.235835 0
0.169778 0.386762 0
0 0.0682708 0.267261
0.447955 0.219026 0
0 0.0877451 0
0.255293 0 0
0 0.0841883 0
0.2471 0.568531 0
0.304682 0 0
0 0 0
0.393076 0 0
0.0711229 0.397803 0
0.494206 0.298073 0
0 0.0861801 0.192196
0.40457 0 0
0 0.107623 0
0.442384 0.302635 0
0.356686 0 0
0 0.0925843 0.0102067
0.344936 0.236623 0
0 0.187865 0.352424
0.143962 0.367017 0
0 0.0687419 0.244571
0.409947 0.210121 0
0 0.0867206 0
0.237756 0 0
0.0821072 0.0676115 0
0.21012 0.550112 0
0 0.119653 0.343567
0.340727 0 0
0 0 0
0.247465 0 0
0.155578 0.380462 0
0.324172 0.561794 0
0.300306 0 0
0 0 0.0985883
0.25586 0 0
0.168077 0.23988 0
0.220157 0.565757 0
0 0.11825 0.357052
0.284827 0 0
0 0 0
0.0985921 0.544279 0
0.339383 0.142865 0
0 0.179881 0.374347
0 0.239507 0
0.258395 0.14289 0
0 0.191256 0.34974
0.12457 0.330943 0
0.21361 0 0
0.0635703 0.2108 0
0.244442 0.37389 0
0.375077 0.198235 0
0 0.00701668 0.0738399
0.375511 0 0
0 0.222288 0
0.419577 0.504448 0
0 0.0293388 0.262903
0.313594 0 0
0 0 0
0.381299 0 0
0 0.260519 0
0.347137 0.509196 0
0 0.11749 0.353204
0.324125 0 0
0 0 0
0.388614 0 0
0.0698237 0.393702 0
0.488486 0.294984 0
0 0.0876652 0.190682
0.265493 0 0
0 0.0849099 0
0.302929 0.349222 0
0.244968 0 0
0 0.0829462 0.0517529
0.308081 0.353327 0
0.388617 0 0
0 0.0908391 0.0101125
0.339663 0.195296 0
0 0.0898164 0.163424
0.344492 0 0
0 0.107652 0
0.345087 0.49404 0
0.186208 0 0
0 0 0.154295
0.0904821 0.525535 0
0.344831 0.41714 0
0 0.0280986 0.264922
0.244281 0 0
0 0 0
0.288487 0.508846 0
0.222596 0.472004 0
0 0.0288116 0.271129
0.280914 0 0
0 0 0
0.0961146 0.538148 0
0.407944 0.204575 0
0 0.0876652 0.190682
0.398643 0 0
0 0.0942998 0
0.411322 0.295202 0
0 0.176953 0.278801
0.405836 0 0
0 0.0928688 0
0.475242 0.18052 0
0 0.211746 0.271584
0.309404 0.479137 0
0.158971 0 0
0 0.0364023 0.250925
0 0.382999 0
0.304149 0.20176 0
0 0.173376 0.258519
0.246909 0 0
0 0.0855892 0
0.193488 0.385682 0
0.391413 0.20267 0
0 0.0873753 0.182121
0.325329 0 0
0 0 0
0.207354 0.0121999 0
0.174426 0.24845 0
0.47791 0.292565 0
0 0.0869969 0.186009
0.391431 0 0
0 0.106673 0
0.377898 0.515341 0
0.200952 0 0
0 0 0.164575
0.140717 0.715563 0
0.372174 0 0
0 0 0.0918477
0.252583 0.380794 0
0 0.226177 0
0.273013 0.197883 0
0 0.166558 0.240877
0.22889 0 0
0 0.0810938 0
0.229198 0.544957 0
0.288758 0 0
0 0 0.0925966
0.244322 0 0
0.0524284 0.24653 0
0.194756 0.386429 0
0.344664 0.413498 0
0 0.0273113 0.264292
0.245153 0 0
0 0 0
0.094988 0.530528 0
0.325072 0.138971 0
0 0.175012 0.357993
0 0.236272 0
0.320752 0.201605 0
0 0.177748 0.271639
0.394815 0 0
0 0.0923001 0
0.330969 0.227755 0
0 0.270377 0.450817
0 0.0152359 0
0.271307 0.19312 0
0 0.218596 0.113169
0.27959 0.199968 0
0.243253 0.240656 0
0 0.0804268 0.172565
0.271498 0 0
0.0839148 0.0729446 0
0.166 0.377826 0
0 0.0701722 0.259523
0.432917 0.211899 0
0 0.0855811 0
0.248901 0 0
0 0.0876469 0
0.233677 0.548714 0
0.294352 0 0
0 0 0.0955383
0.250352 0 0
0.0532631 0.249039 0
0.248815 0.17126 0
0.332598 0.198739 0
0 0.228161 0.133087
0.171379 0.393696 0
0.229274 0 0
0 0 0.162471
0.187886 0.483303 0
0.373031 0 0
0 0.107443 0
0.492832 0.291189 0
0 0.0232152 0.156367
0.147617 0.183687 0
0 0.118635 0
0 0.321791 0
0.521464 0.00806566 0
0 0.0501054 0
0.521971 0.0942891 0
0 0.0583768 0.182321
0.399635 0.0390958 0
0.22251 0.181173 0
0.524324 0.00651042 0
0 0 0.0233025
0.624185 0.328431 0
0 0.114228 0.197096
0.393127 0.0807472 0
0 0.43311 0.0243096
0.282783 0 0
0 0 0.280877
0.355248 0.329129 0
0 0.291171 0.367915
0.0800387 0 0
0.427554 0.302875 0
0 0.218136 0.175259
0.124158 0.116642 0
0 0.118448 0.41847
0.0416862 0.26255 0
0 0.261806 0
0 0.257684 0
0 0.0265954 0.349614
0.0438926 0.261671 0
0 0.111361 0.0800363
0.326966 0 0
0.120651 0.329627 0
0.540632 0.00288598 0
0 0.182167 0
0.619795 0.0947001 0
0 0 0.0267745
0.63892 0.331362 0
0 0.114623 0.202571
0.428819 0.21064 0
0 0.152478 0.343514
0.381321 0.260822 0
0 0 0.277023
0.135015 0.180843 0
0 0.334326 0.420008
0.0552773 0 0
0.384133 0 0
0 0.092105 0.00880433
0.337063 0.240208 0
0 0.176715 0.377965
0.0176999 0.2619 0
0 0.117784 0.425458
0.0438662 0.264713 0
0 0.328526 0
0.543423 0.00282809 0
0 0.182285 0
0.625194 0.0945849 0
0 0.181636 0
0.627227 0.0968211 0
0 0 0.105684
0.413817 0.0351253 0
0.341509 0.238743 0
0 0.191903 0.346482
0.122325 0.330441 0
0.547285 0.0030749 0
0 0.182318 0
0.62977 0.0925844 0
0 0.0470019 0
0.381562 0.0139772 0
0 0.184416 0.0945264
0.477539 0.187764 0
0 0.200631 0.303997
0.292244 0.159716 0
0 0.126504 0.386193
0.292265 0.160287 0
0 0.223933 0.464075
0.0831265 0 0
0.12376 0.332311 0
0.385648 0 0
0 0.271163 0
0.372687 0 0
0 0.047389 0.211009
0.370046 0.335706 0
0 0.199613 0.306659
0.156481 0.212059 0
0 0.117793 0.432957
0.0460463 0.266877 0
0 0.26799 0
0 0.266454 0
0 0.110188 0.0823453
0.340335 0 0
0.39116 0 0
0 0.0917996 0.00987035
0.342842 0.240096 0
0 0.176998 0.385467
0.0182998 0.263369 0
0 0.118817 0.431946
0.0464307 0.266551 0
0 0.332873 0
0.556954 0 0
0 0.0459971 0
0.555682 0.0953717 0
0 0.143348 0
0.554423 0.0911825 0
0 0.139621 0
0.390849 0.0124079 0
0 0.28211 0.176008
0.418256 0 0
0.347002 0.239987 0
0 0.19306 0.350831
0.124894 0.333188 0
0.555665 0 0
0 0.181035 0
0.641662 0.0952847 0
0 0 0.029841
0.49519 0.254763 0
0 0.341088 0.193191
0.40996 0.00794282 0
0 0.125145 0.395119
0.300733 0.160361 0
0 0.127637 0.395684
0.159881 0.213604 0
0 0.10066 0.478206
0.022253 0.267195 0
0 0.200815 0.559572
0 0.0452482 0
0.126456 0.332114 0
0.389928 0 0
0 0.273395 0
0.376063 0 0
0 0.0444846 0.215309
0.376317 0.338081 0
0 0.216613 0.276531
0.184597 0.213258 0
0 0.268385 0
0 0.269002 0
0 0.335557 0
0.571208 0 0
0 0.184887 0
0.657643 0.0918682 0
0 0 0.1125
0.435217 0.033852 0
0.3919 0 0
0 0.0921129 0.0106162
0.344027 0.236629 0
0 0.178705 0.385332
0.0210781 0.263391 0
0 0.115532 0.434977
0.0482939 0.265262 0
0 0.193425 0
0.477463 0 0
0 0.141392 0
0.5625 0.0922508 0
0 0.140372 0
0.394004 0.00733956 0
0 0.369546 0
0.390405 0 0
0 0.0448932 0.22256
0.385588 0.341276 0
0 0.303197 0.401871
0.0918604 0 0
0.344465 0.234896 0
0 0.190672 0.350023
0.123888 0.330578 0
0.556525 0.000211699 0
0 0.181616 0
0.642543 0.0945719 0
0 0.0430512 0
0.389494 0.0114609 0
0 0.368837 0
0.380574 0 0
0 0.0464995 0.217938
0.238331 0.39087 0
0 0.177229 0.394385
0.0235646 0.266014 0
0 0.100437 0.482428
0.023911 0.267869 0
0 0.119518 0.448478
0.0515058 0.269158 0
0 0.110685 0.0897392
0.354631 0 0
0.258094 0.277221 0
0.357246 0 0
0 0.270504 0
0.372623 0 0
0 0.0469738 0.213764
0.371379 0.334148 0
0 0.199267 0.309555
0.157001 0.210858 0
0 0.103396 0.470798
0.020522 0.263247 0
0 0.116561 0.437716
0.12629 0.335037 0
0.570052 0 0
0 0.18424 0
0.658523 0.0911554 0
0 0.182535 0
0.662146 0.094842 0
0 0.0406452 0
0.403699 0.00838876 0
0 0.290792 0.186459
0.286538 0.0139674 0
0 0.41342 0
0.153228 0 0
0 0.0277915 0.288696
0.0946586 0.430997 0
0 0.188274 0.347546
0.0474515 0.264055 0
0 0.328919 0
0.560387 0.000458545 0
0 0.181649 0
0.478557 0.0087736 0
0 0.272946 0
0.382968 0 0
0 0.0450236 0.22
0.38065 0.337344 0
0 0.200475 0.317885
0.164622 0.215254 0
0 0.102633 0.486565
0.0230139 0.268244 0
0 0.204455 0.570496
0.0307792 0.110614 0
0.356835 0 0
0.263634 0.204281 0
0 0.311038 0.259956
0.204967 0.174757 0
0 0.0270937 0.243729
0.597929 0.0162342 0
0.0947244 0.178761 0
0.63099 0.0938611 0
0 0.0442699 0
0.379267 0.0113499 0
0 0.186672 0.0960798
0.477778 0.180897 0
0 0.199063 0.308641
0.156509 0.210672 0
0 0.102783 0.471366
0.160947 0.210312 0
0 0.141068 0.360619
0.188385 0.215066 0
0 0.335543 0
0.576741 0 0
0 0.182845 0
0.492399 0.00658696 0
0 0.191817 0.0960367
0.288284 0.0140977 0
0.427888 0.292871 0
0.343738 0 0
0 0.401385 0
0.446218 0 0
0 0 0.124259
0.357431 0.326224 0
0 0.197679 0.30033
0.151426 0.207422 0
0 0.116992 0.423014
0.0465149 0.260858 0
0 0.329112 0
0.446243 0.013402 0
0 0.11386 0
0 0.191814 0
0.309242 0 0
0 0.188854 0.100973
0.495067 0.182857 0
0 0.201391 0.319998
0.165403 0.214066 0
0 0.202212 0.570563
0.0333853 0.110807 0
0.356273 0 0
0.0015023 0 0
0 0 0
0.37267 0.228562 0
0 0.132789 0
0.471343 0.0961421 0
0 0.130877 0
0.326183 0.0251068 0
0 0.330859 0
0.318689 0 0
0 0.055131 0.183277
0.19481 0.345019 0
0 0.178105 0.295326
0.100877 0.296645 0
0.3213 0 0
0 0.23769 0
0.299854 0 0
0 0.0696695 0.167261
0.231042 0.385465 0
0 0.167992 0.221122
0.202479 0 0
0 0.095641 0
0 0 0
0 0 0.134555
0.238765 0.153335 0
0 0.125497 0.325696
0.120976 0.193591 0
0 0.105799 0.387305
0.00925928 0.239178 0
0 0.105515 0.387179
0.00979094 0.237562 0
0 0.115555 0.358282
0.0968971 0.293351 0
0.211193 0 0
0 0.0782113 0.0639138
0.274365 0.210182 0
0 0.183876 0.244868
0.114238 0.198087 0
0 0.123678 0.338293
0.16771 0.308691 0
0.213643 0.235795 0
0 0.0951269 0.147289
0 0.0510916 0
0 0.238765 0
0 0.294129 0
0.459395 0.0182639 0
0 0.170859 0
0.523416 0.0972944 0
0 0.0240802 0
0.357161 0.269212 0
0 0.204519 0.13598
0.16002 0.160715 0
0 0.0431206 0.198353
0.395821 0.0462783 0
0.00742193 0.117404 0
0 0.286811 0
0.243863 0.0515365 0
0 0.0136851 0
0.160473 0.0300738 0
0.164874 0.377888 0
0.00534419 0 0
0 0 0
0.4499 0.0965099 0
0 0.133482 0
0.312254 0.0332699 0
0 0.326582 0
0.30087 0 0
0 0.0613135 0.169895
0.179105 0.342361 0
0 0.178877 0.278818
0.0854012 0.291905 0
0.302859 0 0
0 0.351044 0
0.491398 0.0483293 0
0 0 0
0.198822 0.155822 0
0 0.176857 0.0630072
0.268592 0.445561 0
0 0.117939 0.283245
0.184547 0 0
0 0 0
0 0 0
0 0 0
0.21014 0.0990389 0
0 0.0569486 0.167171
0.300083 0.308711 0
0 0.193416 0.245979
0.112965 0.198281 0
0 0.118133 0.352128
0.0829457 0.298216 0
0.309885 0 0
0 0.244231 0
0.294066 0 0
0 0.0607713 0.160865
0.285301 0.301641 0
0 0.19065 0.232113
0.104553 0.198533 0
0 0.120308 0.332348
0.164767 0.304746 0
0.201419 0.242026 0
0 0.0329386 0.0495165
0 0 0
0 0 0.0288867
0.208081 0.0690613 0
0 0.0447439 0.188609
0.230388 0.0717299 0
0.161124 0.125744 0.0253365
0.307623 0 0
0.00825373 0.0717239 0.0450447
0.294421 0 0
0 0.0368822 0.211776
0.20044 0.0729483 0
0 0.0473935 0.182165
0.218385 0.0761478 0
0.149556 0.127523 0.0211061
0.34742 0 0
0 0.00884673 0
0.181874 0.0115165 0
0.296475 0.0693426 0
0.193264 0.160693 0
0.34862 0.251686 0
0 0.135939 0
0.186155 0 0
0.121091 0.245529 0
0.355286 0.0636603 0
0 0 0
0.238823 0 0
0.146718 0.370856 0
0.270136 0.377524 0
0.380336 0.196758 0
0 0.0873039 0.177079
0.246969 0 0
0.0850115 0.0741465 0
0.208522 0.540652 0
0 0.117726 0.340571
0.340795 0 0
0 0 0
0.373423 0 0
0 0.269685 0
0.408445 0.287136 0
0.3301 0 0
0 0.0958174 0.00595483
0.38791 0.286208 0
0 0.176148 0.265218
0.384777 0 0
0 0.0933089 0
0.323202 0.224327 0
0 0.265105 0.439881
0.221264 0.00368723 0
0 0.0902715 0
0.194077 0.520276 0
0.195287 0 0
0 0 0.175087
0.0962053 0.662715 0
0 0.116693 0.327895
0.327357 0 0
0 0 0
0.235012 0 0
0.0467046 0.242883 0
0.188576 0.377229 0
0.376437 0.196004 0
0 0.0122741 0.0700058
0.243369 0 0
0.180469 0.201205 0
0.288452 0.537468 0
0 0.0313806 0.256758
0.265117 0 0
0.0657761 0.0350988 0.0594292
0 0.390202 0
0.232502 0.137319 0
0 0.185029 0.319099
0.0204065 0.362777 0
0.317856 0.138054 0
0 0.0951863 0.24235
0.110565 0.314764 0
0.29998 0.0685227 0
0 0 0.0759168
0.201716 0 0
0.127747 0.219104 0
0.22693 0.317207 0
0 0.0942548 0.139813
0.260967 0 0
0.172461 0.197172 0
0.275659 0.529071 0
0 0.0346773 0.24818
0.322605 0 0
0 0 0
0.356597 0 0
0 0.264999 0
0.345984 0.487204 0
0.252395 0 0
0 0 0
0.359764 0 0
0.0611933 0.376756 0
0.451495 0.281231 0
0 0.0875215 0.173695
0.36584 0 0
0 0.108184 0
0.399515 0.283877 0
0.320347 0 0
0 0.10746 0
0.403322 0.284204 0
0.325098 0 0
0 0.0933944 0.00516953
0.0664802 0.623531 0
0 0.114632 0.294168
0.287798 0.00575627 0
0 0 0
0.332649 0 0
0.0832605 0.517066 0
0.342981 0.0686106 0
0 0 0
0.22875 0 0
0.239347 0.353558 0
0.27264 0.525941 0
0 0.0322439 0.246744
0.255405 0 0
0.0624969 0.0366978 0.0548006
0.168014 0.362228 0
0.123984 0.447639 0
0 0.118324 0.326872
0.257347 0 0
0 0 0
0.0842722 0.509565 0
0.302393 0.139504 0
0 0.171822 0.334832
0 0.230566 0
0.225957 0.139526 0
0 0.257984 0.416561
0 0.230247 0
0.229615 0.138132 0
0 0.183876 0.314571
0.214879 0.0117336 0
0.146469 0.189974 0
0.237156 0.520743 0
0 0.0392161 0.234729
0.354989 0 0
0 0 0
0.216513 0.613367 0
0 0.119114 0.320495
0.286861 0 0
0 0 0
0.348036 0 0
0.0562036 0.373787 0
0.438258 0.282178 0
0 0.0903726 0.168251
0.29934 0 0
0 0.0030523 0
0.187868 0.0197349 0
0.15642 0.24089 0
0.439408 0.281418 0
0 0.0887517 0.170101
0.357148 0 0
0 0.108369 0
0.34836 0.125307 0
0.278611 0.132942 0
0 0.223265 0.123556
0.160079 0.0142682 0
0.311655 0.201666 0
0 0.223246 0.12559
0.2027 0.173181 0
0.415774 0.00158435 0
0 0 0
0.344338 0 0
0.219997 0.190942 0
0.376542 0 0
0 0 0.118394
0.262233 0.325355 0
0.339161 0.108487 0
0 0 0.139239
0.363903 0 0
0 0 0
0.260643 0.326379 0
0.3383 0.109974 0
0 0 0.141315
0.365404 0 0
0 0 0
0.261934 0.327238 0
0.317659 0 0
0 0.0344078 0.223563
0.068087 0.219218 0
0.332168 0 0
0.328364 0 0
0 0.085934 0.0182278
0.410094 0 0
0.331859 0 0
0.00856244 0.0712528 0.0504296
0 0.40412 0
0.275009 0 0
0 0.0513095 0.204391
0.348135 0.32084 0
0 0.208282 0.260262
0.172261 0.209639 0
0 0.322691 0
0.544033 0.00389982 0
0 0.0428961 0
0.377529 0.0116103 0
0 0.188125 0.0960991
0.643258 0.261097 0
0 0 0.327621
0.304122 0.226054 0
0 0.266447 0.2732
0.270303 0.0596291 0
0 0.117244 0.43925
0.0489515 0.266195 0
0 0.335357 0
0.404325 0 0
0 0.192734 0.0959275
0.430487 0 0
0.233303 0 0
0 0.0748798 0.0769564
0.18985 0.272316 0
0 0.186071 0.326079
0.0412657 0.255226 0
0 0.1859 0
0.285654 0 0
0 0.184286 0.0916352
0.459926 0.178173 0
0 0.195808 0.297618
0.281741 0.155702 0
0 0.141253 0.343901
0.176184 0.210686 0
0 0.262008 0
0 0.331283 0
0.563155 0 0
0 0.0399623 0
0.393472 0.00827781 0
0 0.188854 0.100973
0.354765 0.237304 0
0 0.276793 0.482548
0 0.0416426 0
0.380971 0.283832 0
0 0.0993013 0.153497
0.532259 0 0
0.0834858 0.176779 0
0.592179 0.0950005 0
0 0.0459108 0
0.355345 0.0163584 0
0 0.184455 0.0883253
0.448396 0.176547 0
0 0.209218 0.257299
0.169232 0.208107 0
0 0.258101 0
0 0.188293 0
0.460334 0.00274544 0
0 0.136373 0
0.379288 0.0119208 0
0 0.36699 0
0.234408 0 0
0 0.0209706 0.294773
0.0981229 0.439136 0
0 0.191744 0.357327
0.127837 0.334409 0
0.387656 0 0
0.194078 0 0.106493
0.0598904 0.521416 0
0.341416 0 0
0 0 0.113343
0.205134 0.362966 0
0 0.171752 0.351858
0.0114514 0.251667 0
0 0.117566 0.398281
0.0372065 0.254849 0
0 0.185825 0
0.445736 0.00815241 0
0 0 0.109727
0.467056 0.242387 0
0 0.331236 0.182771
0.391044 0.0102658 0
0 0.125959 0.379281
0.149755 0.209581 0
0 0.104844 0.459863
0.0939113 0.325614 0
0 0.0221177 0.249102
0.614535 0.0142573 0
0.0976683 0.181643 0
0.338647 0.0621453 0
0 0.0687443 0.0904825
0.178423 0.36758 0
0 0.111438 0.276346
0.344802 0 0
0 0.257286 0
0.207146 0.007543 0
0 0.0460078 0.228433
0.173504 0.470252 0
0.507756 0.00913822 0
0 0.175349 0
0.589761 0.0960754 0
0 0 0.0244986
0.452256 0.241024 0
0 0.326572 0.175705
0.244765 0.0634682 0
0 0.119743 0.40641
0.0374518 0.258771 0
0 0.259592 0
0 0.325402 0
0.380636 0 0
0 0.228969 0
0.426639 0.234953 0
0 0.0815285 0.300737
0.0961002 0.329854 0
0 0.0238713 0.254605
0.448774 0 0
0.216393 0.492212 0
0.319454 0 0
0 0.0331469 0.233948
0.289299 0.124467 0
0 0.0352943 0.144561
0.38315 0 0
0.146518 0.0732689 0
0.324818 0 0
0 0.0307752 0.239524
0.226887 0.0630675 0
0 0.0438609 0.209966
0.254155 0.0634277 0
0.185365 0.124702 0.0331671
0.515128 0 0
0.062092 0 0.0753988
0.517138 0.0601363 0
0 0 0.160396
0.359069 0 0
0 0.161077 0.142567
0.353994 0 0
0 0.03738 0.226623
0.353165 0.126857 0
0.376871 0 0
0.125331 0.204395 0.0451052
0.455454 0 0
0 0 0.184423
0 0 0.354046
