ply
format ascii 1.0
comment Created by Open3D
element vertex 3477
property double x
property double y
property double z
end_header
0 0 0
0 0 0.0274905
0 0 0.0292174
0 0 0
0 0 0.045865
0 0 0.1433
0 0 0.145692
0 0 0.157836
0 0 0.105782
0 0 0.0267577
0 0 0
0 0 0
0 0 0.0186165
0 0 0.070804
0 0 0.227134
0 0.0494483 0.299836
0 0.0662601 0.225323
0 0.063259 0.228647
0 0.0585854 0.230899
0 0 0.151478
0 0 0
0 0 0.0286602
0 0 0.147123
0 0 0.229887
0 0.0629222 0.194689
0 0 0
0 0 0.00597605
0 0 0.00760239
0 0 0.00879872
0 0 0
0 0.118774 0.242184
0 0 0.0178238
0 0 0.0491718
0 0 0.233153
0 0.0602171 0.196262
0 0 0
0 0 0.133728
0 0 0.152029
0 0 0.238506
0 0.0431108 0.311754
0 0 0.0816047
0 0 0
0 0 0.0169436
0 0 0.0969337
0 0 0.0266512
0 0 0.0577352
0 0 0.130916
0 0 0
0 0 0.136516
0 0 0.155276
0 0 0.242572
0 0.0532109 0.203006
0 0 0
0 0 0
0 0.0263909 0.154582
0 0 0.0096903
0 0 0
0 0 0.115784
0 0 0.146843
0 0 0.0381993
0 0 0.162561
0 0 0.252421
0 0.0537941 0.208739
0 0 0
0 0 0.146134
0 0 0.0985173
0 0 0
0 0.0270476 0.15328
0 0 0
0 0 0.0612634
0 0 0.148857
0 0 0.0441308
0 0 0.166207
0 0 0.144639
0 0 0
0 0 0.14911
0 0 0.168481
0 0 0.168457
0 0 0.0993961
0 0 0
0 0 0.0893187
0 0 0
0 0 0.00755965
0 0.12472 0.171322
0 0 0
0 0 0
0 0.0999155 0.0301283
0 0 0
0 0 0.090981
0 0 0.152392
0 0 0.0454978
0 0 0.172368
0 0 0.15443
0 0 0.0452619
0 0 0.172083
0 0 0.172854
0 0 0.170913
0 0 0.169151
0 0 0.0983928
0 0 0
0 0 0.0844899
0 0 0.147208
0 0 0.156833
0 0 0.0517389
0 0 0.266345
0 0 0.215969
0 0 0.0259438
0 0 0.176231
0 0 0.173573
0 0 0.173726
0 0 0.171548
0 0 0.1717
0 0 0
0 0 0.147028
0 0 0.157493
0 0 0.0539915
0 0 0.0643924
0 0 0.087873
0.0457749 0 0.180973
0 0 0.178754
0 0 0.178468
0 0 0.179
0 0 0.177728
0 0 0.177703
0 0 0.0316232
0 0 0.0386673
0 0 0.071011
0 0 0.158587
0 0 0.048278
0 0 0.180721
0 0 0.0706676
0 0 0.0800676
0 0 0.178336
0 0 0.179032
0 0 0.178483
0 0 0.179913
0 0 0.179325
0 0 0.110237
0 0 0.127016
0 0 0.0649084
0 0 0.143417
0 0 0.191469
0 0 0.070369
0 0 0.142832
0 0 0.199479
0 0 0.177935
0 0 0.177615
0 0 0.17796
0 0 0.178157
0 0 0.177423
0 0 0.0484343
0 0 0.179012
0 0 0.060026
0 0 0.0641633
0 0 0.179811
0 0 0.069889
0 0 0.0751793
0 0 0.177008
0 0 0.177986
0 0 0.176919
0 0 0.177231
0 0 0.177142
0 0 0.0493474
0 0 0.175896
0 0 0.0639129
0 0 0.145632
0 0 0.190256
0 0 0.156765
0 0 0.048916
0 0 0.174294
0 0 0.177426
0 0 0.177898
0 0 0.177325
0 0 0.177599
0 0 0.0496569
0 0 0.175416
0 0 0.272335
0.0228106 0 0.121834
0 0 0.0454857
0 0 0.0633679
0 0 0.141609
0 0 0.192736
0 0 0.175184
0 0 0.176618
0 0 0.176916
0 0 0.178878
0 0 0.0476689
0 0 0.174527
0 0 0.0584389
0 0 0.0848274
0.0484627 0 0.174601
0 0 0.178639
0 0 0
0 0.0375296 0
0 0 0.286477
0 0 0.195303
0 0 0.176402
0 0 0.177939
0 0 0.0470109
0 0 0.172389
0 0 0.17577
0 0 0
0 0 0.16813
0 0 0.194827
0 0 0.178621
0 0 0.0817042
0 0 0
0 0 0.159848
0 0 0.196027
0 0 0.174808
0 0 0.0889507
0 0 0.147956
0 0 0.173134
0 0 0.175496
0 0 0
0 0 0.168827
0 0 0.195117
0 0 0.175404
0 0 0.177227
0 0 0
0 0.0384271 0
0 0.0266781 0.109935
0 0 0.145351
0 0 0.171444
0 0 0.172687
0 0 0.266512
0.0257975 0 0.117885
0 0 0.0501187
0 0 0.175896
0 0 0.175798
0 0 0.178874
0 0 0.0842104
0 0 0.117734
0 0 0.0149506
0 0 0.0899993
0 0 0.258939
0 0.0586896 0.326898
0.0120448 0.0891105 0.137033
0 0 0
0 0 0.153802
0 0 0.175416
0 0 0.177588
0 0 0.266986
0 0.0600262 0.337791
0 0.0748545 0.253306
0 0 0.0189214
0 0 0.121925
0 0.131371 0.239859
0 0.0728941 0.242093
0.0109098 0.0936225 0.132819
0 0 0
0 0.0485697 0.179604
0 0.0787073 0.308717
0 0.0727162 0.252954
0 0.0708335 0.25526
0 0.069848 0.257216
0.0132737 0.0882433 0.141035
0 0 0
0 0 0.0237661
0 0 0.131458
0 0.0356998 0.190444
0 0.129095 0.144725
0 0 0
0 0 0.104603
0 0.251194 0.238404
0.0429835 0.0937588 0.220585
0.0131229 0.0949582 0.132881
0 0 0
0 0 0.0188307
0 0 0.0206551
0 0 0.019488
0 0 0.0893518
0 0 0.151332
0 0 0.171421
0 0.0162072 0.0619108
0 0.147526 0.201486
0 0 0
0.0948781 0.0656593 0
0 0.179642 0.131359
0.0458721 0.0709707 0.0828368
0 0 0
0 0.163098 0
0 0.143302 0.0955982
0.0223704 0.270403 0.161709
0.051803 0.0705424 0.0888383
0 0 0.222454
0 0.0022219 0.169167
0 0 0.22502
0 0.029047 0.308691
0 0.0727569 0.25021
0 0.0679115 0.25076
0 0 0.0245174
0 0.00920305 0
0 0 0.116165
0 0 0
0 0.085457 0
0 0.197023 0.180487
0 0 0
0 0 0.0403071
0 0 0
0 0 0
0 0 0.129311
0 0 0
0 0 0
0 0 0
0 0.198525 0.185161
0 0 0
0 0 0
0 0 0.0634938
0 0 0
0 0 0.0228195
0 0 0
0 0.00667191 0.130949
0 0 0.0238832
0 0.119679 0.195196
0 0 0
0 0 0
0 0.00504127 0.131012
0 0 0.108823
0 0 0
0 0 0.107494
0 0 0.0125138
0 0 0
0 0.00560708 0.132364
0 0 0.177325
0 0 0
0 0.00605746 0.130862
0 0 0.0976643
0 0 0
0 0.00844031 0.13171
0 0 0.177898
0 0 0.0243719
0 0.209588 0.188052
0 0 0.103309
0 0 0.0472327
0 0 0
0 0 0.209064
0 0 0.177008
0 0 0.109121
0 0 0
0 0.0605976 0.157657
0 0 0.103511
0 0 0.134598
0 0 0
0 0 0.111289
0 0 0.204524
0 0 0.174357
0 0 0.176573
0 0 0.10922
0 0 0
0.0134357 0.219743 0.249001
0 0 0.154608
0 0 0.103083
0 0 0.13635
0 0 0
0 0.0733289 0.25141
0 0.0748694 0.247541
0 0 0.153357
0 0 0.0953775
0 0 0.178005
0 0 0.109862
0 0 0.0583646
0 0 0
0.0138507 0.221592 0.250537
0 0.0776466 0.248173
0 0 0.255494
0 0.00729375 0.20512
0 0 0
0 0 0.0256011
0 0 0.0281438
0 0 0
0.0184844 0.229261 0.253201
0 0 0.154867
0 0 0.097286
0 0 0.176432
0 0 0.109961
0 0 0.0572477
0 0 0.0371671
0 0 0.035858
0 0 0.0373549
0 0 0.0326532
0 0 0.032507
0 0 0.171347
0 0 0.169888
0 0 0.103621
0 0 0.0490938
0 0 0
0 0.065984 0.161222
0 0 0.0926468
0 0 0.262147
0 0.0640472 0.323297
0 0 0.154256
0 0 0.0936082
0 0 0.261229
0 0 0.164949
0 0 0
0 0 0.107284
0 0 0
0 0.0657255 0.25043
0 0 0.159156
0 0 0.0873224
0 0 0.168838
0 0 0.0990988
0 0 0
0.0183952 0.221309 0.250809
0.00108467 0.0922738 0.12847
0 0 0
0 0 0
0.0169277 0.218584 0.246518
0 0.0906019 0.127495
0 0 0
0 0.0919064 0.178191
0 0 0
0 0 0.137248
0 0.024608 0
0 0.0461141 0.0536432
0.0137345 0 0
0.032278 0 0
0 0 0
0 0 0
0 0 0.0185305
0 0.240632 0.106084
0 0.042516 0
0 0.214608 0.0438575
0 0.149546 0.0434426
0 0.156224 0
0 0 0
0 0 0.0453551
0 0.129085 0.172019
0 0.142875 0.095253
0 0.161384 0
0 0 0
0 0.31732 0.00384465
0 0 0
0 0.302431 0.119442
0 0 0.00700448
0 0 0
0 0.074163 0
0 0.102912 0.179064
0 0.0946837 0
0 0 0
0 0.0526291 0.156072
0 0.0860995 0.288902
0.0154049 0.0910838 0.127314
0 0 0
0 0.132614 0.173348
0.0238496 0.275051 0.161645
0 0 0.16037
0 0.252151 0.184802
0 0 0.0722094
0 0 0
0 0 0
0 0.0469277 0.181654
0 0 0.0180494
0 0.0332439 0.0412806
0 0 0.0493053
0 0.106866 0.15767
0.0122571 0.087336 0.121293
0 0 0
0 0.259599 0.230362
0.0979538 0.115459 0.108042
0 0 0
0 0 0.086553
0 0 0.0178213
0 0 0.0875224
0 0 0
0.0391363 0.229044 0.269204
0 0 0.0926981
0 0 0
0 0 0.00435476
0 0 0.0181644
0 0.0564132 0
0 0 0
0 0 0.0626742
0 0 0.103423
0 0 0
0 0.0573306 0.15513
0 0.101287 0.188072
0 0 0
0.091313 0.243158 0.155747
0 0.0230307 0
0 0 0.0365038
0 0 0.0270842
0 0 0
0 0 0.110931
0.121719 0 0
0 0 0.0129289
0.0135786 0 0.00347119
0 0 0.0276933
0 0 0.223439
0 0 0.193328
0 0 0.00951864
0 0 0.127608
0 0 0
0 0 0.0710217
0 0 0.0935572
0 0 0.00614789
0.0148937 0.399781 0.295629
0 0 0.156573
0 0 0.0119515
0 0 0
0.154476 0.062963 0.193623
0 0 0.0454
0.0154088 0 0.00137179
0 0 0.104971
0 0.0791458 0.190314
0 0 0
0 0 0.213558
0 0 0.203233
0 0 0.0114393
0 0 0.158943
0 0 0.161545
0 0 0.0940553
0 0 0.0269111
0 0 0
0 0.0408143 0.177783
0 0 0.0121338
0 0 0.236938
0 0 0.101841
0.0202616 0 0
0.0953795 0.0918226 0.076767
0 0 0
0 0 0.207638
0 0.0768176 0.199566
0 0 0
0 0 0.223984
0 0.050086 0.324622
0 0.0595228 0.244635
0 0.0570931 0.245103
0 0 0.156703
0 0 0.0152298
0 0 0
0 0.0396493 0.175371
0 0 0.292098
0 0 0
0.0673974 0 0
0 0 0.0137202
0 0 0.122685
0 0 0.121962
0 0 0
0 0 0.217297
0 0.0694595 0.205189
0 0 0
0 0 0.0037023
0 0 0.00488959
0 0 0
0.0363903 0.217914 0.267191
0 0 0.0912129
0 0 0
0.0300156 0 0.0918353
0 0 0.00770103
0 0.0745405 0
0 0 0
0 0 0.24024
0 0 0.21074
0 0 0.00218722
0 0 0.127099
0 0 0
0 0 0.134092
0 0 0.156784
0 0 0.158053
0 0 0.0949247
0 0 0.0291771
0 0 0
0 0 0.117172
0.0815502 0 0
0 0.161726 0.230954
0.141123 0 0.0695821
0 0 0.0264944
0 0 0.137662
0 0 0
0 0 0.224476
0 0 0.210301
0 0 0.0860139
0 0.04704 0.314799
0 0.0632522 0.235231
0 0.0661815 0.238176
0 0.0675441 0.243072
0 0.0677731 0.247923
0 0 0.0944192
0 0 0
0.302687 0 0
0 0 0.0778529
0 0 0
0 0 0.130814
0 0 0.238861
0 0 0.000230247
0 0 0.137794
0 0 0
0 0 0.109694
0 0 0
0 0 0.000923583
0 0 0.00281001
0 0 0.00246167
0 0 0.00407396
0 0 0
0 0.0916051 0.221548
0.0509511 0 0
0 0 0.232932
0 0 0.0405767
0.0496916 0 0.00697546
0 0 0
0 0 0.248149
0 0 0.232571
0 0 0.090106
0 0 0.217416
0 0 0.0885929
0 0.0494551 0.317442
0 0.0638913 0.237624
0 0 0.153832
0 0 0.0749179
0 0 0.0940965
0 0 0.0283096
0 0 0.134126
0.0293644 0 0.123645
0 0 0.13856
0.0397967 0 0.0096564
0 0 0.0361304
0 0 0.156977
0 0 0
0 0 0.122818
0 0 0
0 0 0.113638
0 0 0
0 0 0.0027036
0 0 0
0.0456059 0.231294 0.281351
0 0.0719566 0.264641
0 0 0.176785
0 0.152789 0.120885
0.247247 0.0655152 0
0.0606152 0 0
0.0809676 0 0
0 0 0.0406775
0 0 0.163246
0 0 0.132309
0 0 0.244753
0 0 0.0985004
0 0 0.230647
0 0 0.00331206
0 0 0.254465
0 0 0.183171
0 0 0
0 0 0.00831828
0 0 0
0.0189685 0.202108 0.0778514
0.329085 0.175931 0
0.0718205 0 0
0.173596 0 0
0 0 0.0430554
0 0 0.169937
0 0 0
0 0 0.0933915
0.177906 0 0.161036
0 0 0
0 0 0.250444
0 0.0705143 0.239657
0 0 0
0.0580335 0.248294 0.305023
0 0 0.180976
0 0 0.0148715
0 0.229613 0
0 0.211201 0
0 0 0
0.0328861 0 0
0 0 0.0453819
0 0 0.171395
0 0 0.0435479
0 0 0.0370467
0 0 0.0384958
0 0 0.0376093
0 0 0.159919
0 0 0
0 0 0.0895014
0 0 0.0343137
0 0 0
0 0.0205691 0.22422
0 0 0.012768
0 0 0
0 0.0523885 0.175669
0 0 0.0858497
0 0 0.165314
0 0 0.0990729
0 0 0.0467427
0 0 0.091476
0 0 0.146683
0 0 0.100326
0 0 0.0447407
0 0.0468165 0.17678
0 0 0.222864
0 0 0.0298864
0 0 0
0 0.135778 0.0359757
0 0 0.081445
0 0 0.0946014
0 0 0
0 0.0524735 0.170189
0 0 0.085092
0 0 0.162087
0 0 0.162685
0 0 0.160626
0 0 0.243009
0 0.0590806 0.300292
0 0.0700872 0.226553
0 0.0904616 0.123273
0 0 0
0 0 0
0 0.0997573 0.176613
0 0 0.0252409
0.0350179 0.22241 0.262234
0 0 0.152022
0 0 0.0140156
0 0 0
0.0209116 0.2113 0.244444
0 0.0645848 0.2235
0 0.0681523 0.221097
0 0.0683337 0.220096
0 0.0870452 0.117351
0 0 0
0 0 0.0153014
0 0 0.0788216
0 0 0.212778
0 0 0.231858
0 0.116656 0.106509
0 0.00879006 0.00587146
0 0 0
0 0 0
0 0.0511927 0.164038
0 0 0.0125293
0 0 0.0286803
0 0 0.0101805
0 0 0.0107694
0 0 0.011413
0 0 0.0731133
0 0 0.204346
0 0.0556022 0.281417
0 0.0713842 0.211292
0 0.0895469 0.112095
0 0 0
0 0 0.00934264
0 0 0.0128882
0 0.0453424 0.170051
0 0 0.00940586
0 0 0
0 0.0540876 0.15509
0 0 0.071015
0 0 0.141499
0 0 0.140379
0 0 0.139747
0 0 0.218562
0 0.0774843 0.178112
0 0 0
0 0 0.0105436
0 0 0.0726667
0 0 0.125696
0 0 0.142685
0 0 0.0825007
0 0 0
0 0.046415 0.163928
0 0 0.00679607
0 0 0
0.0187849 0.211948 0.225233
0 0.0738597 0.206608
0 0.0775802 0.205987
0 0.0804603 0.206638
0 0.0975088 0.108523
0 0 0
0 0 0.120883
0 0 0.139241
0 0 0.223146
0 0.0687171 0.287035
0 0.0760401 0.214793
0 0 0.134759
0 0 0.00976255
0 0 0
0.0274887 0.217637 0.244142
0 0 0.0766124
0 0 0
0 0 0.0103235
0 0 0.010306
0 0 0.00980691
0 0 0.0692706
0 0 0.201317
0 0.0740514 0.287616
0 0.0849527 0.215775
0.00627857 0.100438 0.113714
0 0 0
0 0 0.00935944
0 0 0
0.0354752 0.223056 0.26213
0 0 0.0862336
0 0 0
0 0 0
0.0300358 0.229903 0.247969
0 0.0839894 0.225823
0 0 0.136651
0 0 0.148896
0 0.0718132 0.301659
0.0096667 0.102446 0.116503
0 0 0
0 0 0.0111033
0 0 0.0739032
0 0 0.125497
0 0 0.145349
0 0 0.0817449
0 0 0
0 0 0
0.0394201 0.23582 0.273106
0 0 0.0926958
0 0 0
0 0 0.0155597
0 0 0
0.089028 0.255293 0.150038
0 0 0
0 0.0341083 0.167817
0 0.0941136 0.304132
0 0.0831149 0.236444
0 0.0826649 0.236181
0 0.081312 0.233839
0 0.0800112 0.23172
0 0 0.141937
0.0403328 0.230161 0.287086
0 0 0.100976
0 0 0
0 0 0
0.0480709 0.248416 0.297228
0 0.0783455 0.271276
0 0 0.203675
0 0.263187 0.205461
0.0537203 0.112161 0.24501
0.0259462 0.0971828 0.143378
0 0 0
0 0 0.0181877
0 0 0.0170426
0 0 0.0159668
0 0 0.0126502
0 0 0
0 0 0.0362421
0 0 0
0.0553267 0.247859 0.314988
0 0 0.113228
0 0 0
0 0 0.0228884
0 0 0.0247931
0 0 0.0245834
0 0 0.0251327
0 0 0.0954636
0 0 0.266575
0 0.0560162 0.376314
0 0.0752428 0.27282
0 0.075197 0.269223
0 0 0.167355
0 0 0.0109502
0 0 0
0 0 0.142742
0 0 0
0 0 0
0.0654911 0.255301 0.342101
0 0.0626362 0.319238
0 0.0641948 0.320586
0 0 0.204929
0 0 0.213333
0 0.0468863 0.418249
0.0407955 0.0843255 0.174441
0 0 0
0 0 0.0274233
0 0 0.02467
0 0 0
0.057174 0.252617 0.307918
0 0 0.0169971
0 0 0
0.0650898 0.252097 0.338738
0 0 0.129204
0 0 0
0 0 0.0289093
0 0 0.028177
0 0 0
0.143408 0.281051 0.222413
0 0 0
0 0 0.110995
0 0 0.190704
0 0 0.211723
0 0 0.207565
0 0 0.129478
0 0 0.0487359
0.0611256 0.2468 0.320308
0 0 0.222841
0 0 0.040343
0 0 0
0.0735755 0.25515 0.364272
0 0.0541758 0.341395
0 0.0513031 0.346708
0 0 0.14637
0 0 0.0352561
0 0 0.32618
0 0.0297936 0.459524
0 0.0531181 0.347114
0 0.0547522 0.344254
0 0.0555937 0.338586
0 0.0577169 0.332876
0 0 0.212626
0 0 0.0340814
0 0 0.0121506
0 0 0
0 0 0.162873
0 0 0
0 0 0.0232084
0 0 0.0256449
0 0 0
0.0815909 0.256053 0.392225
0.0581958 0.0627993 0.20658
0 0 0
0 0 0.0338514
0 0 0.033772
0 0 0.0323968
0 0 0.0328409
0 0 0
0 0 0.0967461
0 0 0.200349
0 0 0.123867
0 0 0
0 0.00738395 0.252167
0 0 0.122742
0 0 0.230503
0 0 0.146848
0 0 0.0564707
0 0 0.121739
0 0 0.21528
0 0 0.246823
0 0 0.247857
0 0 0.245943
0 0 0.241942
0 0 0.15242
0 0 0.0878584
0 0.0934022 0.0924073
0 0.094291 0.0454976
0 0.0932131 0.092772
0 0.0902195 0.0821955
0 0.13082 0.0389691
0 0.0874073 0.0915328
0 0.190837 0
0 0 0.0287674
0 0.12671 0.0385225
0 0.0905011 0.0796538
0 0 0.0534758
0 0 0.00849716
0 0.0189868 0
0 0 0
0.0157435 0.233966 0
0 0.032935 0.00809243
0 0.0506076 0.152003
0 0 0
0 0.0793579 0.119831
0 0.0303222 0
0 0.18997 0.0693491
0 0 0
0 0 0.0978661
0 0 0
0 0 0.104753
0 0.243296 0.122991
0 0 0.093573
0 0 0.0076666
0 0 0
0 0 0.103305
0 0 0
0 0.130818 0.0485464
0 0.0831622 0.101875
0.00246463 0.200517 0
0.0397392 0.235792 0.262209
0 0 0.0870942
0 0 0
0 0 0.0302635
0 0 0.0299699
0 0.130888 0.0502056
0 0.0819367 0.090492
0 0 0.0548969
0 0 0.0362176
0 0 0
0 0 0.0505338
0 0.163247 0.263422
0 0 0.00667874
0 0.00227012 0
0 0 0
0 0 0.045732
0 0 0.0338832
0 0 0.174874
0 0 0.0119331
0 0 0
0 0 0
0 0.0342203 0.185676
0 0 0
0 0.0794809 0.140082
0 0 0
0.03102 0.258416 0
0 0.0326754 0.0108377
0 0 0
0.0632576 0.255204 0.31507
0 0 0.0419176
0 0.0216623 0.22834
0 0 0
0 0 0.128673
0 0 0
0 0 0.122944
0 0.0167442 0
0 0.19277 0.0851755
0 0 0.0225224
0 0 0.0468084
0 0.0210948 0
0 0 0
0 0 0.143582
0 0 0
0 0 0.137411
0 0 0
0.0113302 0 0.138813
0 0.256738 0.156848
0.0175604 0.219383 0
0.0797656 0.263355 0.364594
0 0 0.211489
0 0 0
0 0 0.0839894
0 0 0
0 0 0.0491319
0 0 0
0 0 0.0464355
0 0 0.0454193
0 0.127849 0.0740064
0 0.0765737 0.115871
0 0 0.0731336
0 0 0.05585
0 0 0
0 0 0
0 0.239991 0.280123
0 0 0
0 0.238069 0.266452
0 0 0
0 0.232873 0.254602
0 0 0.0190343
0 0 0
0 0 0
0 0 0.0676197
0 0 0
0.121267 0 0
0 0 0
0.032704 0 0
0.0309658 0 0
0 0 0.0477276
0 0 0.17234
0 0 0.152748
0 0 0.280771
0 0 0
0 0 0.154902
0 0 0.280251
0 0 0.0128506
0 0 0.196674
0 0 0.195571
0 0 0.121374
0 0 0
0 0 0.173935
0 0.0746972 0.058689
0 0.0850635 0
0 0 0
0 0 0.0439479
0 0 0.175089
0.0605607 0 0.0187642
0 0 0
0 0 0.156531
0.0669802 0 0.0214352
0 0 0
0 0 0.186509
0 0 0.328715
0 0 0.324632
0 0 0.0999527
0 0 0.128627
0.276984 0.140657 0.213327
0 0.0927776 0.0530793
0.0125119 0 0
0.0288936 0 0
0 0 0.0479937
0 0 0.177059
0 0 0
0 0 0.212683
0.106881 0 0.22433
0.0598159 0 0.0215263
0 0 0.0557859
0 0 0.228583
0 0 0.199086
0 0 0
0.090071 0.274098 0.383379
0 0 0.222668
0 0.254066 0.0369459
0 0.0642587 0.0576549
0 0 0
0 0 0.135446
0.0935128 0 0.211656
0 0 0.0546293
0 0 0.0359171
0 0 0.0492198
0.0651481 0 0.0235081
0 0 0.0588723
0 0 0.372509
0 0 0.336527
0 0 0
0 0 0.0558536
0 0 0
0 0.0731045 0.0482546
0.0204409 0 0
0.0126907 0 0
0 0 0.0448813
0 0 0.0594714
0 0 0.196651
0.0676767 0 0.0231212
0.0691928 0 0.0281412
0 0 0.0644928
0 0 0.216623
0 0 0
0 0 0.224395
0 0 0.250879
0 0 0.159077
0 0.0756482 0
0 0 0
0 0 0
0 0 0.220709
0.11316 0 0.235447
0.0668674 0 0.0230161
0.0688816 0 0.0260587
0 0 0.0691866
0 0 0.221366
0 0 0.0673708
0 0 0.264302
0 0 0.261127
0 0 0.259514
0 0 0.119715
0 0 0.146449
0.2829 0 0.0671223
0 0 0.050106
0.0694191 0 0.0248458
0 0 0
0 0 0.249618
0.127261 0 0.264879
0 0 0.0703079
0 0 0.272117
0 0 0.271447
0 0 0.268575
0.11556 0 0
0 0 0
0 0 0.22334
0.140096 0 0
0.120639 0 0
0 0 0.0462341
0.0643245 0 0.020218
0.0683446 0 0.0226935
0 0 0.0687062
0 0 0.0372784
0 0 0.0584491
0 0 0.0729414
0 0 0.275645
0 0 0.276173
0 0 0.275081
0.023192 0.384237 0
0 0.223572 0
0.00868705 0 0.357703
0 0 0
0.0574924 0 0.0158843
0.060586 0 0.0178895
0.0634213 0 0.0202507
0 0 0
0 0 0.232542
0.1135 0 0.251593
0.0718679 0 0.0260126
0 0 0.0756206
0 0 0.274988
0 0 0.276247
0 0 0.278867
0 0 0.0538947
0 0 0
0 0.0223399 0.0914629
0 0 0.24482
0 0 0
0.0559161 0 0.0123087
0 0 0
0 0 0.213373
0.28963 0 0.0633872
0 0 0.0522432
0.0681737 0 0.0238529
0 0 0.0733643
0 0 0.270701
0 0 0.273281
0 0 0.276959
0.0095718 0.0775367 0
0 0 0.0549263
0 0 0.181463
0.0912063 0 0
0 0 0.239043
0 0 0
0 0 0.201771
0.270648 0 0.0588189
0 0 0.0465384
0.0632916 0 0.0213772
0.0637369 0 0.0217774
0 0 0.0701398
0 0 0.261643
0 0 0.266932
0 0 0.271492
0 0 0.0522242
0 0 0.157804
0 0 0.0196441
0.0873466 0 0
0 0 0.271384
0.251907 0 0.0491707
0 0 0.0357285
0.0534944 0 0.010797
0.0563618 0 0.015959
0 0 0
0 0 0.218418
0 0 0.282304
0 0 0.254604
0 0 0.260743
0 0 0.176635
0 0 0.0852548
0 0 0.131864
0 0 0
0.198688 0 0
0 0 0.0299737
0.0451741 0 0.00756595
0.0484062 0 0.0101821
0.0513759 0 0.0135721
0 0 0.0556666
0 0 0.0273225
0 0 0.0912136
0 0 0.242288
0 0 0.248153
0 0 0
0 0 0.127744
0.109243 0 0.0881028
0 0 0.206359
0 0 0
0.039469 0 0.00560875
0.0421375 0 0.00942699
0.0458416 0 0.0126724
0.0512527 0 0.0139933
0 0 0.0535258
0 0 0.178291
0 0 0.0577381
0 0 0.229635
0 0 0.235382
0.0960126 0 0
0 0 0
0 0 0.0333723
0.0749988 0 0
0.0344235 0 0.0775923
0.0370646 0 0.00537205
0.0400768 0 0.0066056
0.044083 0 0.00744478
0.0462487 0 0.0085008
0 0 0.0441868
0 0 0.171721
0 0 0.048249
0 0 0.219071
0 0 0.222119
0 0 0.104603
0 0 0.067209
0 0 0
0 0 0.045303
0 0 0
0 0 0
0 0 0
0 0 0.100051
0 0 0
0 0 0.172799
0 0 0.045751
0 0 0.213731
0 0 0.216248
0.0732081 0.255202 0.341519
0 0 0.205981
0 0 0.106234
0 0 0.127025
0 0 0
0.0719758 0.244183 0.361809
0 0.0428008 0.338616
0 0.0435478 0.346548
0 0 0.238102
0 0 0.135106
0 0 0.362864
0 0.0204686 0.482706
0 0 0.255707
0 0 0.139429
0 0 0.249706
0 0 0.245705
0 0 0.042995
0 0 0
0.074176 0.25295 0.349602
0 0 0.207744
0 0 0.0284089
0 0 0.0434612
0 0 0.0184146
0 0 0.0190745
0 0 0
0.0780852 0.251365 0.385066
0.0588083 0.0613929 0.205598
0 0 0
0 0 0
0.00352986 0 0.290802
0 0 0.139974
0 0 0.249838
0 0 0.105416
0 0 0.13225
0 0 0.0425014
0 0 0
0 0.0134138 0.244401
0 0 0.11116
0 0 0.21487
0 0 0.218961
0 0 0.135803
0 0 0.0468182
0 0 0.114228
0 0 0.213736
0 0 0.15084
0 0 0
0.0895713 0.25675 0.412921
0 0 0.255849
0.00554876 0.00392572 0.270664
0 0 0.110882
0 0 0.2193
0 0 0.134171
0 0 0
0 0 0.138645
0 0 0.214039
0 0 0.215282
0 0 0.219833
0 0 0.2234
0 0 0.22794
0 0 0.233831
0 0 0.237082
0 0 0.151637
0 0 0.0542139
0 0 0
0 0 0
0.00732349 0.00164837 0.277921
0 0 0.115574
0 0 0.224155
0 0 0.057758
0 0.245573 0.284806
0 0 0.110414
0 0 0.216442
0 0 0.21957
0 0 0.220944
0 0 0.225523
0 0 0.227471
0 0 0.231806
0 0 0.236838
0 0 0.241824
0 0 0.0692928
0 0 0.162309
0 0 0
0 0 0.16201
0 0 0.233653
0 0 0.145228
0 0 0
0 0 0.146
0 0 0.22008
0 0 0.219574
0 0 0.219278
0 0 0.2211
0 0 0.221943
0 0 0.224514
0 0 0.228325
0 0 0.229776
0 0 0.145087
0 0 0.26521
0 0 0.0800214
0 0.26192 0.335359
0 0 0.125423
0 0 0.243351
0 0 0.0696005
0 0.25291 0.305251
0 0 0.11305
0 0 0.224509
0 0 0.221705
0 0 0.219712
0 0 0.218851
0 0 0.22124
0 0 0.222351
0 0 0.222499
0 0 0.227347
0 0 0.271673
0 0 0.172719
0 0 0
0 0 0.175923
0 0 0.257361
0 0 0.159338
0 0 0
0 0 0.156268
0 0 0.232231
0 0 0.224095
0 0 0.221383
0 0 0.217454
0 0 0.216226
0 0 0.216248
0 0 0.216198
0 0 0.219285
0 0 0.276214
0 0 0.276479
0 0 0
0 0 0.223185
0 0 0.266272
0 0 0.258468
0 0 0
0 0 0.197945
0 0 0.238779
0 0 0.232378
0 0 0.226524
0 0 0.220532
0 0 0.213798
0 0 0.213686
0 0 0.211162
0 0 0.214661
0 0 0.276688
0 0 0.278327
0 0 0
0 0 0.232252
0 0 0.269441
0 0 0.263253
0 0 0
0 0 0.207859
0 0 0.246002
0 0 0.238426
0 0 0.230196
0 0 0.22269
0 0 0.216639
0 0 0.211353
0 0 0.205545
0 0 0
0 0 0.274982
0 0 0.276635
0 0 0
0 0 0.235014
0 0 0.272597
0 0 0.266369
0 0 0
0 0 0.213747
0 0 0.250693
0 0 0.243276
0 0 0.233924
0 0 0.228151
0 0 0.223105
0 0 0.214933
0 0 0
0 0.0185227 0.0127063
0 0 0.266107
0 0 0
0 0 0
0 0 0.34982
0 0 0.269611
0 0 0.26535
0 0 0
0 0 0.215168
0 0 0.251511
0 0 0.243586
0 0 0.236671
0 0 0.233054
0 0 0.227515
0 0 0
0 0.0151608 0.0134762
0 0 0.129999
0 0 0.252975
0 0 0.173558
0.26159 0.512774 0.289359
0 0.0274434 0.307114
0 0 0.146599
0 0 0.260099
0 0 0
0 0 0.214539
0 0 0.249935
0 0 0.24452
0 0 0.239556
0 0 0.235694
0 0 0.232856
0 0 0
0.120499 0.184758 0.140029
0 0.265738 0.469463
0 0 0.240675
0 0 0.15023
0 0 0.0455511
0 0 0
0 0 0.182015
0 0 0.251013
0 0 0.0771204
0 0.257932 0.335354
0 0 0.133932
0 0 0.242595
0 0 0.240038
0 0 0.237962
0 0 0.23607
0 0 0.069927
0.1304 0.528016 0.268766
0 0 0
0 0 0.228239
0 0 0.2318
0 0 0.235814
0 0 0
0 0 0.208207
0 0 0.241863
0 0 0.149174
0 0 0
0 0 0.171434
0 0 0.237484
0 0 0.237374
0 0 0.236461
0 0 0.236941
0 0 0.146766
0 0 0.12984
0 0 0.193877
0 0 0.327831
0 0 0.335082
0 0 0.124873
0 0 0.0668914
0.0609622 0.515529 0.433926
0 0 0.248916
0 0 0.126623
0 0 0.0715589
0.0631757 0.522677 0.434605
0 0 0.243435
0 0 0.12554
0 0 0.234057
0 0 0.234983
0 0 0.232594
0 0 0.231338
0 0 0.223506
0 0 0.241167
0 0 0
0 0 0.101772
0 0 0
0 0 0.0660999
0 0 0
0 0 0.0607836
0 0 0
0 0.0179574 0.229448
0 0 0
0 0.073158 0.177411
0 0 0
0 0.0260256 0
0 0 0.244261
0 0 0.0722131
0 0.252237 0.306688
0 0 0
0 0.251763 0.294231
0 0 0
0 0.246756 0.279651
0 0 0.026543
0 0 0
0 0 0.15577
0 0 0
0 0 0.0783289
0 0.0619103 0.256659
0 0.10234 0.188251
0.0523876 0.185766 0
0 0 0.134858
0 0 0.155402
0 0 0
0 0 0.187908
0 0 0
0 0 0.178003
0 0 0
0 0.012347 0.245609
0 0 0.0277129
0 0 0
0 0 0.0575476
0 0 0
0 0 0
0 0.12439 0.0843632
0 0.0714946 0.129771
0 0 0.174853
0 0 0.243124
0 0 0.150106
0 0 0
0 0 0.183081
0 0 0
0 0 0.17192
0 0 0
0 0.0124089 0.240627
0 0 0
0 0.23615 0.262246
0 0 0
0 0.0646994 0.18309
0 0 0
0.0568086 0.351207 0.187809
0 0 0.138299
0.0547021 0.510513 0.432703
0 0 0.247396
0 0 0.127791
0 0 0.146077
0 0 0
0 0 0.174626
0 0 0
0 0 0.164067
0 0 0
0 0 0.156041
0 0 0
0 0 0.152282
0 0 0
0 0.0696983 0.252947
0 0 0.131415
0 0 0
0 0 0.0487186
0 0 0
3.85802e-05 0 0.273418
0 0 0.120496
0 0 0.137421
0 0 0
0 0 0.164739
0 0 0
0 0 0.15635
0 0 0
0 0 0.150924
0 0 0
0 0 0.147896
0 0 0
0 0 0
0.0146307 0 0.17583
0 0 0.229454
0 0 0.141973
0 0 0
0 0 0.152406
0 0 0.214813
0 0 0.12835
0 0 0
0 0 0.156854
0 0 0
0 0 0.149957
0 0 0
0 0 0.145596
0 0 0
0 0.00925951 0.225225
0 0 0.0227173
0 0 0.052781
0 0 0.220931
0 0 0.219609
0 0 0.0599474
0 0.247562 0.287144
0 0 0.108522
0 0 0.202725
0 0 0.120464
0 0 0
0 0 0.149808
0 0 0
0 0 0.143269
0 0 0
0 0 0.144711
0 0 0
0.0618665 0.230391 0.325318
0 0 0.120895
0 0 0.214357
0 0 0.214326
0 0 0.129119
0 0 0
0 0.00527707 0.241661
0 0 0.100086
0 0 0.189613
0 0 0.112324
0 0 0
0 0 0.0492162
0 0 0
0 0 0.0486498
0 0 0
0 0 0.0503487
0 0 0.0260413
0 0 0
0 0.0288265 0.0875527
0 0 0.388457
0 0 0.239444
0 0 0.125751
0 0 0
0 0.0112544 0.22794
0 0 0.0930489
0 0 0.179913
0 0 0.0408277
0 0.224263 0.231528
0 0 0
0 0.221312 0.22989
0 0 0
0.0301368 0.429902 0.33032
0 0 0.187614
0 0 0.0211986
0 0 0.123546
0 0 0.0561079
0 0 0.0674484
0 0 0.202787
0 0 0.118715
0 0 0
0 0.0137004 0.217304
0 0 0.088772
0 0 0.101788
0 0 0
0 0 0.131332
0 0 0
0 0 0.132533
0 0 0
0 0 0
0.0603169 0.229722 0.319495
0 0 0.237237
0 0 0.0662917
0 0 0.183542
0 0 0.227808
0 0 0.191296
0 0 0.113528
0 0 0
0 0.018862 0.207335
0 0 0.0833208
0 0 0.0974567
0 0 0
0 0 0.12974
0 0 0
0 0.0167957 0.204975
0 0 0.0166989
0 0 0.0247494
0 0.0413708 0.323812
0 0 0.315302
0.192578 0 0.0287046
0 0 0.0318967
0 0 0.189281
0 0 0.184455
0 0 0.105698
0 0 0
0 0.023893 0.199869
0 0 0.0790119
0 0 0.0945655
0 0 0
0 0 0.130444
0 0 0
0.0569526 0.231212 0.303766
0 0.056523 0.281367
0 0 0.0127867
0 0 0.0123001
0 0 0.0874769
0 0 0.16903
0 0 0.188457
0 0 0.181865
0 0 0.175304
0 0 0.0995403
0 0 0
0 0.026409 0.193463
0 0 0.0791237
0 0 0.0914383
0 0 0
0 0 0.0428368
0 0 0.0185238
0 0 0
0 0 0.216756
0 0 0.204603
0 0 0.199241
0 0 0.192286
0 0 0.186707
0 0 0.179389
0 0 0.17412
0 0 0.164979
0 0 0.0934314
0 0 0
0 0 0.103996
0 0 0.154377
0 0 0
0 0 0.133893
0 0 0.163858
0 0 0.16946
0 0 0.320459
0 0.00354395 0.410886
0 0.0263157 0.29419
0 0.0295178 0.288057
0 0.0335459 0.2858
0 0.0387885 0.280899
0 0.0418993 0.270326
0 0 0.168255
0 0 0.0728705
0 0 0.032086
0 0.213287 0.208032
0 0 0.0763214
0 0 0.0285514
0 0.210572 0.21974
0 0 0.0779836
0 0 0.163858
0.0553331 0.187416 0
0 0 0.0813213
0 0.279425 0.188274
0 0 0.152048
0 0.11337 0.0944565
0 0.0548586 0.163561
0.0312365 0.226273 0
0 0 0
0 0.11416 0.0964387
0 0.0661388 0.140125
0 0 0.0995967
0 0 0.154939
0 0 0
0 0.115496 0.0982513
0 0 0.15826
0 0 0
0 0 0
0 0.0619755 0.262284
0 0 0.0631281
0 0.054351 0.167201
0 0 0.158837
0 0 0.221931
0 0 0.0377566
0.025531 0.0562032 0
0 0 0
0 0.116238 0.101698
0.0336623 0.227168 0
0 0 0.00408447
0 0 0
0 0 0.0902413
0 0 0.263099
0 0 0
0 0.126616 0.0760874
0 0 0.103284
0 0.052867 0.290798
0 0 0.121937
0 0 0
0 0.0415666 0.00538987
0 0 0.240188
0 0 0
0 0.00697121 0
0 0.139521 0
0 0 0
0 0 0
0 0 0.0572996
0 0 0
0 0 0
0 0 0.101463
0 0.0517535 0.296581
0 0.318666 0.175981
0 0 0.0997195
0 0 0.175586
0 0 0
0 0 0.162968
0 0 0.0428445
0 0.0485574 0.191326
0 0 0
0 0 0
0 0.12294 0.101557
0.0241759 0.209285 0
0 0 0.029131
0 0 0.169564
0 0 0
0 0 0.157806
0 0 0
0 0.0726284 0
0 0 0
0 0 0.0916816
0 0 0
0 0.19136 0
0 0.403765 0.0392481
0.0638815 0 0
0 0 0
0 0 0.208171
0 0 0
0.0233058 0 0
0.0310542 0 0
0.0330132 0 0
0 0 0
0 0 0.239189
0 0 0.291698
0 0 0.00800029
0 0 0.31763
0 0.0192178 0.429449
0.0156846 0 0.0701209
0 0 0
0.0684231 0 0
0.0315928 0 0.0710784
0.0406397 0 0.00392658
0.0452395 0 0.00666806
0.0503974 0 0.00885106
0 0 0
0.0230142 0 0.0220773
0 0 0
0 0 0.184166
0 0 0.171596
0 0 0
0.0262147 0 0.0620544
0 0 0.0433289
0 0.0274066 0.13986
0 0 0
0.0460586 0 0.00329545
0.0503548 0 0.00367827
0 0 0.0671084
0 0 0.0711439
0 0 0.132127
0.0444667 0 0.352619
0 0 0.281397
0 0 0
0 0 0.0405186
0 0 0.0798792
0 0 0
0.0386895 0 0.0759168
0.0477802 0 0.00433845
0.0523674 0 0.00608395
0 0 0.0253872
0.15252 0 0
0.116678 0 0
0 0 0.0296981
0 0 0
0 0 0.174686
0.146162 0.0928322 0
0 0 0
0 0 0
0.00216283 0 0.0127233
0.0477802 0 0.00433845
0.0523674 0 0.00608395
0.055473 0 0.0063117
0.0553015 0 0.00420581
0.0538365 0 0.000944794
0.0505573 0 0
0 0 0.0341084
0 0 0.19602
0 0.111035 0.0777805
0.0520087 0 0.03221
0 0 0
0.00216283 0 0.0127233
0.047785 0 0.00274813
0.0526328 0 0.00523865
0.0542102 0 0.00644876
0.0537783 0 0.00359784
0.0532049 0 0.00269986
0.0499266 0 0
0 0 0.0337206
0 0 0.195408
0.12653 0 0
0 0 0
0 0 0.0634683
0 0.021099 0.149598
0 0 0
0.0506683 0 0.00525996
0.0557035 0 0.0064939
0.0555366 0 0.00731385
0.0518431 0 0.00256269
0.050999 0 0
0 0 0.032621
0 0 0.297287
0 0 0
0 0 0
0 0 0
0.161922 0 0
0.197469 0 0.140889
0.0503432 0 0.00623485
0.0534574 0 0.00648807
0.055336 0 0.00579397
0.0559322 0 0.00534767
0.0502274 0 0.00212754
0 0 0.140401
0 0.0281635 0.280276
0 0 0
0.00556245 0 0
0.09418 0 0.0944513
0 0.245737 0.0563981
0 0 0
0.0489583 0 0.00589894
0.051979 0 0.00559774
0.054771 0 0.00639429
0.05328 0 0.00371754
0.0536931 0 0.00499081
0 0 0
0 0 0.097376
0 0 0
0 0.0948245 0
0 0 0
0.0725442 0 0
0.0425375 0 0.0781398
0.0487014 0 0.00527513
0.0522967 0 0.0068523
0.0563138 0 0
0.160247 0 0
0 0.0299468 0.0901532
0 0 0.113154
0.0576658 0 0.140948
0 0 0
0 0 0
0.0300787 0 0
0 0 0
0.00382383 0 0.0121183
0.0470999 0 0.00382783
0.0510604 0 0.00573808
0.00711817 0 0
0 0.209514 0
0 0 0
0 0 0.157195
0 0 0
0 0 0
0.0282057 0 0
0 0 0
0.00234701 0 0.00901023
0.045137 0 0.00169996
0.0481961 0 0.00442782
0 0 0
0.0107755 0 0.0226178
0.000509698 0 0.160116
0 0 0.307148
0 0 0.00918503
0 0 0
0.0281009 0 0
0 0 0
0.000443304 0 0.00627666
0.0427331 0 0.000201358
0.0461984 0 0.00332745
0 0 0
0.0115382 0 0.0221818
0.0738251 0 0.0105858
0 0 0
0 0 0.316592
0 0 0
0.0283971 0 0
0 0 0
0.000271107 0 0
0.126288 0 0
0 0 0
0 0 0
0.176856 0 0.0826479
0.054792 0 0.00861511
0.000929275 0 0.16427
0 0.0247 0.313318
0 0.0317683 0.1215
0 0 0
0 0 0
0 0 0
0 0.203765 0
0 0.126596 0
0 0.0104149 0
0.0083807 0 0
0.0536902 0 0.00812047
0 0 0
0 0 0.111858
0.0240724 0 0
0.0213149 0 0.0560693
0 0 0
0 0 0.0540579
0 0.0238317 0.13402
0 0 0
0.0432589 0 0.00117436
0.0474076 0 0.00344731
0.0526642 0 0.00552035
0 0 0.158959
0.086603 0 0.133519
0.0603428 0.0527739 0.185035
0 0.0135925 0
0 0 0.158326
0 0 0.136885
0 0 0.037474
0 0 0
0.00228418 0 0.286462
0 0 0.0369603
0 0 0.0393253
0 0 0
0 0 0.163905
0 0 0.229279
0 0 0.229357
0 0 0.22933
0 0 0.227926
0 0 0.332089
0 0 0.0853293
0 0 0.0305452
0.0545896 0.491676 0.401174
0 0 0.233222
0 0 0.120177
0 0 0.13623
0 0 0
0 0 0.163223
0 0 0.225897
0 0 0.066599
0 0.246794 0.310161
0 0 0.117098
0 0 0.224576
0 0 0.224613
0 0 0.226205
0 0 0.183014
0 0 0.200866
0 0 0.119176
0 0 0.0243241
0 0 0
0 0 0.270649
0 0 0.118198
0 0 0.0642067
0 0.249046 0.307825
0 0 0.114189
0 0 0.133486
0 0 0
0 0 0.155507
0 0 0.219368
0 0 0.220124
0 0 0.33483
0 0 0.297125
0 0 0.1961
0 0 0.195446
0 0 0.199204
0 0 0.119676
0 0 0
0 0 0.15555
0 0 0.131579
0 0 0
0 0 0.154515
0 0 0.214635
0 0 0.0617626
0 0.235946 0.300763
0 0 0.114105
0 0 0.330044
0 0.0270969 0.302769
0 0 0
0 0 0.191689
0 0 0.190475
0 0 0.193104
0 0 0.197732
0 0 0
0 0 0.176719
0 0 0.210053
0 0 0.0626619
0 0.242529 0.295751
0 0 0.109245
0 0 0.128069
0 0 0
0 0 0.154963
0 0 0.177988
0 0 0
0 0 0.184956
0 0 0.189765
0 0 0.1871
0 0 0.188571
0 0 0.193219
0 0 0.0506718
0 0.23124 0.283451
0 0 0.105564
0 0 0.124963
0 0 0
0 0 0.147921
0 0 0.208185
0 0 0
0 0.214542 0.292854
0 0 0.291778
0 0 0.00881736
0 0 0.211429
0 0.0197663 0.399196
0 0.0418107 0.297133
0 0 0.198922
0 0 0.0932649
0 0 0.114915
0 0 0
0 0 0.254906
0 0 0.101539
0 0 0
0 0 0.172438
0 0 0.203623
0 0 0.056303
0.126166 0.505493 0.253905
0 0 0
0 0 0.187495
0 0 0.307971
0 0 0
0 0 0
0 0 0
0 0 0.242811
0 0 0.0944579
0 0 0.118286
0 0 0
0 0 0.139034
0 0 0.0551902
0 0.239404 0.278426
0 0 0.101472
0 0 0.119386
0 0 0.10513
0 0 0.180242
0 0 0.20894
0 0 0.167305
0.0579932 0 0.20915
0 0 0.195116
0 0 0.116456
0 0 0
0 0 0.249946
0 0 0.0964866
0 0 0.0540273
0 0.239277 0.27979
0 0 0.0177459
0 0 0
0 0 0.245085
0 0 0.0990512
0 0 0.195524
0 0 0.198583
0 0 0.200384
0 0 0.161625
0 0 0.025325
0 0 0.203149
0 0 0.200937
0 0 0.122633
0 0 0
0 0 0.138314
0 0 0.122747
0 0 0
0 0 0.248449
0 0 0.0159481
0 0 0
0 0.00172328 0.233675
0 0 0.0944175
0 0 0.188691
0 0 0.285576
0 0 0.252867
0 0 0.188019
0 0 0.213364
0 0 0.211321
0 0 0.211617
0 0 0.0611555
0 0.239966 0.295735
0 0 0.0987568
0 0 0.126361
0 0 0
0 0 0.129972
0 0 0.110636
0 0 0
0 0 0.122922
0 0 0.178714
0 0 0.144891
0 0 0
0 0 0.222857
0 0 0.338912
0 0.0192145 0.466886
0 0 0.238302
0 0 0.0238105
0 0 0
0 0 0.147527
0 0 0.210079
0 0 0.0601558
0 0.249773 0.271053
0 0 0.0839173
0 0 0.0463856
0.0349958 0.440532 0.322796
0 0.0366278 0.264622
0.0234792 0 0.145521
0 0 0.00666544
0 0.0118163 0.472835
0.076127 0.0492621 0.207768
0 0 0
0 0 0
0 0 0.160565
0 0 0.0708692
0.0693822 0.528481 0.428527
0 0 0.2293
0 0 0.0184318
0 0 0
0 0 0.122378
0 0 0.103065
0 0 0.0122319
0 0 0
0 0 0.0598019
0 0 0.145857
0 0 0
0 0 0.0994561
0 0 0.208985
0 0 0.0741778
0 0.247369 0.333167
0 0 0.0318754
0 0 0.038816
0 0 0
0 0 0.14448
0 0 0.063596
0 0.248361 0.26453
0 0 0.0750174
0 0 0.161466
0 0 0.1589
0 0 0.157206
0 0 0.255418
0.0660094 0 0.241703
0 0 0.23808
0 0 0.240063
0 0 0.151239
0 0 0
0.00458194 0 0.30614
0 0 0.121369
0 0 0.0754551
0 0.254128 0.309655
0 0 0.0194028
0 0 0
0 0.00626634 0.22598
0 0 0.068788
0 0 0.160352
0 0 0.156861
0 0 0.132326
0 0 0.045174
0 0 0.236829
0 0 0.240975
0 0 0.245666
0 0 0.153306
0 0 0
0.0047459 0 0.307385
0 0 0.0333886
0 0 0
0.00134484 0 0.272567
0 0 0.017089
0 0 0
0.0690259 0.233114 0.312432
0 0 0.170695
0 0 0.160594
0 0 0.228352
0 0.0167356 0.289789
0 0 0
0 0 0.00347303
0 0 0.00261263
0 0 0.000229319
0 0 0.000138784
0 0 0
0 0 0
0 0 0.10211
0 0 0.0853765
0 0 0
0 0 0.103576
0 0 0.084783
0 0 0
0 0 0.105607
0 0 0.15815
0 0 0
0 0 0.172053
0 0 0.277731
0 0 0.273971
0 0 0.0919713
0 0 0.175706
0 0 0.170138
0 0 0.0399223
0 0.231634 0.211087
0 0 0.0656699
0 0 0
0 0 0.121415
0 0 0.148027
0 0 0
0 0.268872 0
0 0 0.270426
0 0 0
0 0 0.285256
0 0.0190234 0.245099
0 0 0
0.0547109 0.217784 0.30191
0 0 0.182868
0 0 0.08336
0 0 0.0962864
0 0 0
0 0.0269718 0.173457
0 0 0
0 0 0.119326
0 0 0.147572
0 0 0
0.0692261 0.262255 0
0.118396 0.0912586 0
0 0 0.277608
0 0.00702554 0.259097
0 0 0
0 0 0.0751437
0 0 0.0163346
0 0 0
0 0 0.114435
0 0 0.158309
0 0 0.0887167
0 0 0
0 0 0
0 0 0.117241
0 0 0.149373
0 0 0
0 0.118874 0
0 0.110269 0.0964354
0 0 0.168914
0 0 0
0 0 0.148905
0 0 0.162856
0 0 0.160998
0 0 0
0 0 0.135066
0 0 0.156813
0 0 0.148632
0 0 0
0 0 0
0 0.19041 0.201416
0 0 0.0720633
0 0 0
0 0.120441 0
0 0.108375 0.0990837
0 0 0.165284
0 0 0.0198564
0 0 0.168941
0 0 0.159043
0 0 0.157205
0 0 0.0309891
0 0.215478 0.222947
0 0 0.0700403
0 0 0.148447
0 0 0
0 0 0.0526616
0 0 0
0 0 0.10357
0 0 0
0 0.121398 0
0 0.107274 0.105676
0 0 0.267958
0 0 0
0 0 0.165891
0 0 0.156553
0 0 0.15485
0 0 0.0897829
0 0 0
0 0 0.101753
0 0 0.149908
0 0 0
0 0 0.119395
0 0 0
0 0 0.131235
0 0 0
0 0 0.00616555
0.0902752 0.369439 0.215879
0 0 0
0 0 0.153051
0 0 0.164502
0 0 0.156692
0 0 0.155878
0 0 0.160227
0 0 0
0 0 0.127394
0 0 0.155558
0 0 0
0 0 0.124569
0 0 0
0 0 0.140052
0 0 0
0 0 0.0761883
0 0 0.210579
0 0 0.0291358
0 0 0.176786
0 0 0.165474
0 0 0.158278
0 0 0.158619
0 0 0.164684
0 0 0
0 0 0.132419
0 0 0.162812
0 0 0
0 0 0.132125
0 0 0.0345331
0 0.207098 0.26119
0 0 0
0 0 0.161767
0 0 0.171852
0 0 0.00200079
0 0 0.176364
0 0 0.166928
0 0 0.16351
0 0 0.164839
0 0 0.170283
0 0 0.0391894
0 0.218851 0.243247
0 0 0.0777505
0 0 0
0 0 0.141904
0 0 0.110112
0 0 0
0 0 0
0 0 0.173521
0 0 0.182394
0 0 0.156308
0 0 0.17672
0 0 0.169184
0 0 0.169953
0 0 0.173434
0 0 0.178051
0 0 0.108368
0 0 0
0 0 0.121978
0 0 0.0448605
0 0.212152 0.263549
0 0 0.0998597
0 0 0
0 0 0.0188414
0 0.238585 0.3062
0 0 0.0794323
0 0 0.177231
0 0 0.176929
0 0 0.269893
0 0 0.274194
0 0 0.089107
0 0 0.187122
0 0 0.191216
0 0 0
0 0 0.158184
0 0 0.120024
0 0 0
0 0 0.145201
0 0 0
0 0 0.100359
0 0 0
0.0508754 0 0.124141
0 0 0.173525
0 0 0.273557
0 0.0458094 0.248553
0 0.0206142 0
0 0 0.128225
0 0 0.195757
0 0 0.200468
0 0 0.0559065
0 0.233631 0.280732
0 0 0.103374
0 0 0
0 0 0.182311
0 0 0
0 0 0.195204
0 0 0
0.0198562 0.10578 0.15887
0 0.0405755 0.359038
0.0432022 0.0661562 0.156322
0 0 0
0 0 0.0221738
0.0488098 0.466896 0.376381
0 0 0.216504
0 0 0.105886
0 0 0.131496
0 0 0
0 0 0.148686
0 0 0
0 0 0.188101
0 0 0.0651093
0 0.253245 0.319116
0 0 0
0.0179941 0.107238 0.160095
0 0 0
0 0 0.0714791
0 0 0.159704
0 0 0.113487
0 0 0.0283662
0 0 0
0 0 0.149747
0 0 0.219031
0 0 0.0626028
0 0.241566 0.301715
0 0 0
0 0 0.191864
0 0 0.140662
0 0 0
0 0 0
0.0154074 0.109767 0.158589
0 0 0.00364907
0 0 0.176652
0 0 0.18376
0 0 0.193747
0 0 0.202395
0 0 0
0 0 0.183658
0 0 0.223733
0 0 0.139648
0 0 0
0 0 0
0 0.24984 0.31085
0 0 0.120031
0 0 0
0 0.118462 0
0.0119899 0.111869 0.153166
0 0 0.161088
0 0 0
0 0 0.147697
0 0 0
0.0319995 0 0.017639
0 0 0
0 0 0.158291
0 0 0
0 0.176742 0
0 0.291222 0
0 0 0.179229
0 0 0
0 0 0.136664
0 0 0
0 0 0.142479
0 0 0
0 0 0.146881
0 0 0
0 0.112148 0
0 0.0657985 0.0149127
0 0 0.0426977
0 0 0
0 0 0.130827
0 0 0
0 0 0.13434
0 0 0
0 0 0.134446
0 0 0
0 0.112182 0
0 0.0668819 0.0113922
0 0 0.020524
0 0 0
0 0 0.125618
0 0 0
0 0 0.129105
0 0 0
0 0 0.126755
0 0 0
0 0.11345 0
0 0.0668259 0.00481491
0 0 0.0214561
0 0 0
0 0 0.125124
0 0 0
0 0 0.128334
0 0 0
0 0 0.129552
0 0 0
0 0.118555 0
0.0422987 0.0479543 0.051943
0 0 0.0261974
0 0 0
0 0 0.130229
0 0 0
0 0 0.132085
0 0 0
0 0 0.13204
0 0 0
0 0.120902 0
0 0 0
0 0 0
0 0 0
0 0 0.14011
0 0 0
0 0 0.139358
0 0 0
0 0 0.135532
0 0 0
0 0.122039 0
0 0.0159914 0.0562617
0 0 0.27806
0 0 0
0 0 0.151914
0 0 0.0487723
0 0.230801 0.260135
0 0 0
0 0 0.143963
0 0 0
0 0.122451 0
0 0.0596342 0
0 0 0
0 0 0
0 0 0.164023
0 0 0.126226
0 0 0
0 0 0
0 0.230513 0.26525
0 0 0
0 0.123971 0
0 0.0569653 0
0 0 0
0 0 0
0 0.119559 0
0 0 0.17649
0 0 0.217886
0 0 0.0631552
0 0.062238 0.207829
0 0 0
0 0 0
0 0.105761 0
0 0.0942361 0.131434
0 0 0
0 0 0
0 0.433465 0
0 0 0.270023
0 0 0.229324
0 0 0.143224
0 0 0
0 0 0
0 0 0.0198923
0 0.431102 0
0 0 0
0 0 0
0 0.0869357 0.344408
0 0 0.122852
0 0 0.235361
0 0 0
0 0.123251 0
0 0 0.098618
0 0 0
0.00581872 0.0140728 0
0 0 0.0610779
0 0 0
0 0.399169 0
0 0 0.174313
0 0 0.243269
0 0 0
0 0 0.0316627
0 0.248722 0.315699
0 0 0
0 0 0.0808249
0.026534 0 0
0 0 0.0615592
0 0 0
0 0 0.0395152
0 0.259036 0.337523
0 0 0.131169
0 0 0
0 0 0.113026
0 0 0
0.0601891 0 0
0 0.2562 0
0 0 0
0 0 0.059747
0 0 0
0 0 0.118258
0 0 0
0 0 0.17623
0 0 0
0 0 0.206556
0 0 0
0 0.117871 0
0 0.0598362 0.0267019
0 0 0.051197
0 0 0.131929
0 0 0.0585745
0 0 0
0 0 0.206526
0 0 0
0 0 0.206367
0 0 0
0 0 0.20656
0 0 0
0 0.115621 0
0 0.0626528 0.029911
0 0 0.108394
0 0 0.192529
0 0 0
0 0 0.0289364
0 0 0
0 0 0.0490787
0 0 0.197588
0 0 0.191632
0 0 0.107721
0 0 0.0141268
0 0 0.0151926
0 0 0.0137344
0 0 0.0142246
0 0 0
0.0553052 0.216687 0.279021
0 0.0124715 0.303294
0 0.0143142 0.273339
0 0.0239298 0.249812
0 0.0366012 0.232265
0 0.0471933 0.225879
0 0.0514471 0.220562
0 0.0484774 0.220003
0 0 0.0301011
0 0.084528 0
0 0 0
0 0 0
0 0 0
0 0 0
0 0 0
0 0 0
0 0 0
0 0.0166851 0
0 0 0
0 0 0
0 0 0
0 0 0
0.15175 0 0
0.181687 0 0.125973
0.0413758 0 0
0.04578 0 0.00316504
0.0494526 0 0.00409488
0.0736134 0 0.00907739
0 0 0
0 0 0
0.0699473 0.115664 0.095431
0 0 0
0 0 0
0 0.0902424 0
0 0 0
0.0416982 0 0
0.0449966 0 0.00144351
0.0498201 0 0.004409
0.0523469 0 0.00596796
0 0 0.0491744
0 0 0
0 0.170605 0.0392993
0 0 0.0999489
0.0390277 0 0
0 0 0.00367749
0.0361927 0 0
0.0383856 0 0
0.0449715 0 0.00136574
0.0493663 0 0.00463847
0.0535488 0 0.00802344
0.00415894 0 0.158972
0 0 0.0329292
0 0.121125 0.134821
0 0 0
0 0 0
0 0 0.00653894
0.0373105 0 0
0.0432137 0 0.00271531
0.0455336 0 0.00327237
0.0515134 0 0.00644546
0.0559796 0 0.00582996
0.0781867 0 0.0101305
0.0607336 0 0
0.0318084 0 0
0.0270295 0 0.0654492
0 0 0
0 0 0.00804909
0.0371688 0 0
0.0428303 0 0.00123489
0.0485432 0 0.00418097
0.0554906 0 0
0.159464 0 0.128885
0 0 0
0 0 0
0 0 0.00382423
0 0 0.0465851
0 0.0253657 0.146746
0 0 0
0.0464742 0 0.00396894
0.052475 0 0
0.111853 0 0
0.00185435 0 0.032456
0 0 0.155716
0 0 0
0 0 0.00465928
0 0 0.0110791
0.0739687 0 0
0.0405458 0 0
0.14592 0 0
0 0 0
0.154542 0.0576508 0
0 0 0.0947563
0 0 0.319587
0 0 0.0265833
0 0 0.00336115
0.0353881 0 0
0.0142344 0 0
0.111785 0 0.117264
0 0.108523 0
0 0 0
0 0 0.0389617
0 0 0
0 0 0
0.0524194 0 0
0.0206492 0 0
0 0 0
0 0.161895 0
0 0 0
0.00673709 0 0
0 0 0
0 0 0
0.10089 0 0
0 0 0
0 0 0.314276
0 0.0105209 0.474946
0.00117007 0.0282751 0.374989
0.00210187 0.0269918 0.381432
0 0 0.264092
0 0 0.0401249
0 0 0
0 0 0.171933
0 0 0.149976
0 0 0
0 0 0.266444
0 0 0.0147573
0 0 0.0253054
0 0 0
0.124471 0.249981 0.182611
0 0 0
0 0 0.182656
0 0 0
0 0 0.0066581
0 0 0.00808391
0 0 0
0 0 0.180127
0 0 0.0801128
0.0749579 0.548492 0.465595
0 0 0.257294
0 0 0.0301114
0 0 0
0 0 0.137841
0 0 0.192621
0 0 0.112322
0 0 0.0903647
0 0 0.149582
0 0 0.300039
0 0 0.0149094
0 0 0.231523
0 0 0.237961
0 0 0.0742986
0 0.249603 0.340897
0 0 0.0390905
0 0 0.0435881
0 0 0
0 0 0.168257
0 0 0.0748625
0 0.251446 0.303684
0 0 0.093222
0 0 0.1939
0 0 0.184432
0 0 0.179224
0 0 0
0 0 0.198109
0 0 0.228275
0 0 0.234567
0 0 0.146023
0 0 0
0 0 0.178728
0 0 0.249321
0 0 0.0796357
0 0.257628 0.340392
0 0 0.032062
0 0 0
0.00054257 0 0.269246
0 0 0.0947594
0 0 0.193597
0 0 0.186687
0 0 0.0499307
0 0 0.224873
0 0 0.228245
0 0 0.232948
0 0 0.236061
0 0 0.0729937
0 0.246638 0.341321
0 0 0.133529
0 0 0.156575
0 0 0
0 0 0.168864
0 0 0.147261
0 0 0
0.00104878 0 0.264673
0 0 0.0943583
0 0 0.292966
0 0 0.0475162
0 0 0.345636
0 0.0119503 0.474955
0.000952142 0.033027 0.362671
0 0 0.248955
0 0 0.0341376
0 0 0
0.0044103 0 0.311557
0 0 0.133388
0 0 0.0802628
0 0.259965 0.337052
0 0 0.118607
0 0 0.141418
0 0 0
0.0826109 0.238209 0.359443
0.0466768 0.0427481 0.17353
0 0 0.131293
0 0.0269559 0.326404
0 0 0
0 0 0.00890434
0 0 0
0.00373851 0 0.299141
0 0 0.0340378
0 0 0
0.00610116 0 0.314097
0 0 0.0369454
0 0 0
0.006113 0 0.295897
0 0 0.113348
0 0 0.135827
0 0 0.0334764
0 0 0.0834445
0 0 0.171526
0 0 0
0 0 0.208914
0 0 0.237405
0 0 0.146547
0 0 0
0 0 0.174057
0 0 0.151655
0 0 0
0.00828255 0 0.311921
0 0 0.0355385
0 0 0
0 0 0.159804
0 0 0.219697
0 0 0.20881
0 0 0.201912
0 0 0.0489675
0 0 0
0 0 0.21335
0 0 0.210556
0 0 0.208574
0 0 0.0433907
0 0.243519 0.289975
0 0 0.215014
0 0 0.12435
0 0 0
0.00208847 0 0.263303
0 0 0.0504546
0 0.242609 0.277342
0 0 0.191943
0 0 0.182597
0 0 0.176014
0 0 0.149192
0 0 0.176353
0 0 0.184575
0 0 0.195095
0 0 0.203639
0 0 0.055292
0 0.23494 0.305783
0 0 0.116136
0 0 0.227467
0 0 0
0 0 0.101651
0 0 0
0 0 0.156579
0 0 0
0 0 0.0315415
0.0981778 0.3763 0.25104
0 0 0.174427
0 0 0.176945
0 0 0.186557
0 0 0.195481
0 0 0.205328
0 0 0.130467
0 0 0
0 0 0.159403
0 0 0.228356
0 0 0
0 0 0.189031
0 0 0.0643432
0 0.260281 0.294379
0 0 0
0 0 0.0959118
0 0.00595424 0.211446
0 0 0.178473
0 0 0.179797
0 0 0.18846
0 0 0.197067
0 0 0.207958
0 0 0.218564
0 0 0.0625039
0 0.246933 0.314215
0 0 0.119717
0 0 0
0 0 0.188149
0 0 0.135675
0 0 0
0 0 0
0 0 0.166165
0 0 0.15855
0 0 0.183643
0 0 0.183775
0 0 0.191027
0 0 0.19937
0 0 0.211132
0 0 0.220048
0 0 0.140056
0 0 0
0 0 0.162218
0 0 0
0 0 0.187965
0 0 0.218871
0 0 0
0 0 0.0239997
0 0.244266 0.253773
0 0 0.0626641
0 0.0242261 0.393972
0 0.0515179 0.29779
0 0 0.204506
0 0 0.106011
0 0 0.214774
0 0 0.22446
0 0 0.23004
0 0 0
0 0 0.193829
0 0 0.0693274
0 0.252882 0.309264
0 0 0.107184
0 0 0
0 0 0.085713
0 0 0
0.0259875 0 0.0933741
0 0 0
0 0 0.00417641
0 0 0
0 0 0.256822
0 0 0.11308
0 0 0.226627
0 0 0.232655
0 0 0.0697249
0 0.247328 0.318788
0 0 0.0348085
0 0 0
0 0 0.149127
0 0 0
0 0 0.156667
0 0 0
9.7248e-05 0.111582 0.116901
0 0 0.173231
0 0 0.195717
0 0 0.121973
0 0 0
0 0 0.155098
0 0 0.229292
0 0 0.234256
0 0 0.146783
0 0 0
0 0 0.166033
0 0 0
0 0 0.183618
0 0 0.0652467
0 0.25274 0.263788
0 0 0
0.00141254 0.109598 0.118646
0 0 0.200468
0 0 0.2007
0 0 0.207206
0 0 0.0531659
0.063921 0.506414 0.423182
0 0 0.243656
0 0 0.123715
0 0 0.236281
0 0 0
0 0 0.201189
0 0 0
0 0 0.186925
0 0 0.135032
0 0 0
0 0 0
0.00366036 0.108081 0.121738
0 0 0.172744
0 0 0.174662
0 0 0.180877
0 0 0.100483
0 0 0.00613489
0 0 0
0 0 0.246433
0 0 0.206039
0 0 0.0407082
0 0.240087 0.281678
0 0 0.0441219
0 0.237171 0.277042
0 0 0.192164
0 0 0.0384297
0 0.0508632 0.0926027
0.0141258 0.12506 0.0870019
0 0 0.0237742
0 0 0
0 0 0.198651
0 0 0
0 0 0.200734
0 0 0
0 0 0.203136
0 0 0
0 0.115103 0
0 0.064462 0.0318699
0 0 0
0 0 0.0892003
0.0174346 0 0.0344923
0.0243674 0 0.321712
0 0 0.0467762
0 0 0.123272
0 0 0.286916
0 0 0
0 0 0.190908
0 0 0.0641028
0 0.247925 0.304346
0 0 0
0 0.236527 0.314551
0 0 0
0 0.116293 0
0 0.0648912 0.0299284
0 0 0
0 0 0
0 0 0.0673615
0 0 0.224962
0 0 0
0 0 0
0 0 0.181995
0 0 0.130321
0 0 0
0 0 0.181094
0 0 0
0 0 0
0 0.114574 0
0 0.0648638 0.0274868
0 0 0
0 0 0.0152241
0 0 0.285444
0 0 0
0 0.105676 0
0 0 0.172938
0 0 0.207505
0 0 0.127602
0 0 0
0 0 0
0 0.107547 0
0 0.113558 0
0 0.0655215 0.0259227
0 0 0
0 0.0348296 0.127026
0 0 0.264591
0.0674653 0 0
0 0 0
0 0.023328 0.118595
0 0.170073 0.343269
0 0 0.102624
0 0 0.206117
0 0 0
0 0.11019 0
0 0 0.0261247
0 0.413195 0
0 0 0.0993732
0 0 0
0 0.0333577 0.123798
0 0 0.2506
0 0 0
0 0 0
0 0 0
0 0.121667 0
0 0 0.13735
0 0 0.20296
0 0 0
0 0 0.0212405
0 0.0334885 0.218384
0 0 0
0 0.193496 0.148146
0 0 0
0 0.0295067 0.122585
0 0 0.189054
0 0 0
0 0 0.0441079
0 0 0
0 0.110893 0
0 0 0.16633
0 0 0.204242
0 0 0
0 0 0.0956536
0 0 0
0.0538674 0 0
0 0.314737 0
0 0 0
0 0.0270025 0.123624
0 0 0.108719
0 0 0.044405
0 0 0
0 0 0.0146879
0 0.243101 0.281593
0 0 0.101952
0 0 0
0 0 0.182862
0 0 0
0 0.111517 0
0 0.0632777 0.0240964
0 0 0
0 0.022693 0.125311
0 0 0.123519
0 0 0
0 0 0.0226941
0 0.0370992 0.171144
0 0 0
0 0 0.22127
0 0 0.0270438
0 0.23065 0.254043
0 0 0.0311933
0 0.0291428 0.115217
0 0.128024 0.183103
0 0 0
0 0.22153 0.198344
0 0 0.00842718
0 0 0.00440314
0 0.178115 0
0.159811 0 0
0.0681252 0.155866 0.115897
0 0 0
0 0.00365842 0.0657487
0 0 0.177289
0 0 0
0 0.449003 0.081594
0 0 0
0 0 0.0857937
0 0 0
0 0.217239 0
0 0 0
0 0 0.229168
0 0.169322 0
0 0 0
0.0960659 0 0
0 0.153529 0
0 0 0.028522
0 0 0.0239552
0.0624519 0 0
0 0.321456 0
0 0 0.137468
0 0 0
0 0.116815 0
0.0508529 0.119176 0
0 0 0.115054
0.0783967 0 0
0 0 0
0 0.183483 0
0 0 0
0 0.141003 0
0.0689792 0.0533964 0
0 0 0.161179
0.0800866 0 0.0334677
0.00301761 0 0.235189
0 0.096821 0
0 0.18775 0
0 0 0.132957
0 0 0.0304094
0 0 0.153034
0 0.0818363 0
0 0.141561 0
0 0 0.136648
0.0824073 0 0
0.097911 0 0.110046
0 0 0
0 0 0.137244
0.0117397 0 0.0647221
0.131691 0 0.175896
0.120512 0 0.0344209
0 0 0
0 0 0.141859
0.148656 0 0.0176041
0 0 0
0 0 0
0 0 0.145939
0.206254 0 0
0 0 0
0 0 0
0 0 0.229517
0.246048 0.118399 0
0 0 0
0 0 0.0203275
0 0 0.374976
0 0 0
0 0 0
0 0 0
0 0 0
0 0.033257 0.00354975
0 0.18984 0
0 0.167038 0.0584526
0 0 0.147182
0 0 0.0710232
0 0 0
0.135592 0.233198 0
0 0 0.0272248
0 0 0.101915
0 0.389452 0
0.0519861 0 0
0 0.0517562 0
0 0.085343 0
0 0 0.0782805
0 0 0
0 0.0893156 0
0.215004 0 0
0 0 0.238725
0 0 0
0 0.160713 0
0 0 0.117923
0 0 0
0.110172 0.0596937 0.18488
0 0 0.253969
0 0 0.184316
0 0 0.091597
0 0 0
0.0616465 0.104739 0
0 0 0.0918145
0 0 0.321566
0 0.0257233 0
0 0.122877 0
0 0 0
0 0 0
0.150864 0 0.182637
0 0.00976715 0.159906
0 0 0
0 0 0.312904
0 0 0
0 0.050581 0
0.17442 0.0685279 0.169266
0.000634064 0 0
0 0 0
0 0.0364336 0.234212
0 0.0923556 0
0.161145 0 0
0.0546231 0 0.0281267
0 0.234906 0.238354
0.146292 0 0
0.0578136 0 0.236401
0 0.00579484 0.0828334
0 0.120584 0
0 0 0
0 0.0174448 0
0.167026 0.111509 0
0 0 0.105822
0 0.0879411 0.232056
0 0 0.150982
0 0 0
0.220661 0.00669131 0
0.0338069 0 0.161079
0 0.054933 0.124736
0 0 0
0 0 0.160388
0 0 0.0659172
0 0 0.0657178
0.240301 0.000264813 0
0 0.170971 0
0.304622 0 0.0494506
0.00623781 0 0
0 0 0.263596
0 0 0
0 0 0.30065
0.0858588 0 0
0 0 0
0 0 0.344527
0.201913 0 0
0.124029 0.26612 0.0639777
0.0964999 0 0
0 0.0962722 0.229136
0 0 0.0398059
0.0296972 0 0.280359
0.152607 0 0
0 0 0.356299
0.0116921 0.0287239 0.0457811
0.128576 0 0.147659
0 0.0576164 0.130779
0 0.0967735 0.224872
0 0 0.0397531
0 0 0.367863
0.150373 0 0
0 0 0.263585
0.144281 0 0
0 0.249802 0
0 0 0.0630952
0 0.292433 0.150583
0 0 0.112475
0 0 0.395727
0.318525 0 0
0 0 0.142214
0.188893 0 0
0.109165 0.300979 0.0833463
0.0702939 0 0.0622207
0 0 0.0947499
0 0.423699 0.180928
0 0 0.404592
0.132628 0 0
0.0865417 0 0.133582
0.193698 0 0
0.195886 0 0
0.0598266 0.197366 0
0.246536 0.159249 0.0250092
0 0 0.139031
0 0.119738 0
0 0 0.204603
0.163226 0 0
0.03496 0 0.0397289
0.182241 0 0.0411122
0.0174515 0 0.0761942
0.108011 0.0373117 0
0 0 0.184825
0 0.140148 0.159946
0.24014 0 0
0.103605 0 0
0.0122372 0 0.0459767
0.288031 0.211141 0
0.0773838 0 0
0.167597 0 0
0 0.00306627 0.206942
0 0 0
0 0 0
0 0 0.0593769
0.407941 0.421167 0.0673301
0.328337 0 0
0.226685 0 0
0 0.241572 0
0 0 0
0 0 0.0950394
0.0537213 0 0.175532
0 0 0.0896043
0 0 0.0184036
0 0 0.0898039
0 0 0
0 0 0.151713
0 0 0.132972
0 0 0.0758574
0 0 0
0 0 0
0 0.0656144 0
0 0 0
0 0.0588117 0
0 0.0993399 0.0156566
