ply
format ascii 1.0
comment Created by Open3D
element vertex 2777
property double x
property double y
property double z
end_header
0 0.0521147 0
0 0.0511155 0
0 0.0154546 0
0 0 0
0 0.0922807 0
0.0736576 0.0817947 0
0 0.0440448 0
0 0.113252 0
0 0.0149208 0
0 0.083165 0.0752211
0 0.197295 0
0.0493103 0.0508347 0
0.0821979 0.106022 0
0.0216657 0.136129 0
0.0593848 0 0
0.0708273 0 0
0.151298 0.0612277 0
0 0.351794 0
0.0431659 0.222445 0.121101
0 0.151677 0.016216
0 0 0
0 0 0
0 0 0
0 0.133464 0
0 0.122462 0
0 0.126612 0
0.109386 0 0.085059
0.183079 0.213595 0.105993
0.24788 0.291433 0
0.236793 0.283791 0
0 0 0
0 0 0.0253099
0 0 0
0 0 0
0 0 0
0.186691 0 0
0.317378 0.184088 0.109211
0.134241 0.0694533 0.134053
0 0.220371 0
0 0.0639782 0
0 0 0.283055
0 0.0319209 0
0 0.110119 0
0 0.00618988 0
0 0.0508869 0.140448
0.0407043 0.0391302 0.0292909
0 0.0387939 0.0334971
0.0454091 0 0
0.126079 0.0415889 0
0.321312 0.124186 0.0305174
0.266432 0.172801 0
0 0 0.308857
0.143688 0 0
0 0.131954 0
0 0.0674874 0
0 0 0
0 0 0.01472
0 0 0.0162444
0 0 0
0.0528861 0.201233 0
0.122202 0 0.0652672
0 0.239911 0
0.0818912 0 0.140673
0.16993 0 0
0 0 0.18838
0 0.158887 0
0 0.151351 0
0 0.0182669 0
0 0 0.0122444
0 0.00642282 0
0 0.0381999 0
0.182888 0 0
0.227883 0.174205 0
0.0162397 0 0
0 0 0.0434072
0 0 0.0945335
0 0 0
0.0573662 0.0503589 0
0 0.158801 0
0 0.143981 0
0 0.0473366 0
0.0241643 0.0435086 0
0 0.0794358 0
0 0.0821353 0
0.103312 0.171706 0
0 0 0.368326
0.0667978 0 0.181523
0 0 0.0348813
0 0 0.0474537
0 0 0
0 0 0.0957356
0 0 0.0489165
0 0 0.0914313
0 0 0.112903
0 0 0.123115
0 0 0
0 0 0.175727
0.00967944 0.144837 0.150894
0 0 0.00565467
0 0 0.130556
0 0 0.131491
0 0 0.139583
0.0226554 0 0.135545
0 0 0.0224239
0 0 0.0343166
0 0 0.168545
0 0 0.270645
0 0 0.115908
0 0.0302961 0.0909932
0 0.361275 0.147445
0.131894 0 0
0 0.157582 0.0918328
0 0 0
0.105578 0.252399 0.146706
0 0 0
0 0 0.289028
0 0 0.29897
0 0 0
0 0 0.0871987
0.00340698 0.0790457 0.0770598
0 0.404599 0.0286221
0 0 0
0 0.299489 0
0 0.430188 0.0987965
0.148755 0 0
0 0 0
0 0 0.194387
0 0 0.188952
0 0 0
0 0 0.16842
0.078894 0 0.0140194
0.0457119 0.00312767 0
0 0.0381683 0.00868677
0.0131773 0.103505 0.310772
0 0.0717383 0
0 0 0
0 0.0172852 0.0759297
0 0 0.0747211
0 0 0.375017
0 0 0.33867
0 0 0.153086
0 0 0.350967
0 0 0
0.0776578 0 0.023129
0.0950338 0 0.0246703
0 0 0
0 0 0.192882
0 0 0.0620556
0 0 0.216545
0 0 0
0 0 0
0 0.124759 0
0 0 0.282124
0.0411652 0 0.102436
0 0 0.1988
0 0 0.0444876
0 0 0
0 0 0.041057
0 0 0.175182
0 0 0
0 0.17451 0.0140513
0 0 0.078619
0 0 0.167154
0.122017 0.0376756 0
0.133578 0 0
0.092653 0 0
0.172827 0 0.0399716
0 0 0.244157
0 0 0.106854
0.0151118 0 0
0 0.0347716 0
0.159471 0.123244 0
0 0 0.174462
0 0 0.129389
0 0 0.170591
0 0 0.1273
0.0554992 0 0.22431
0.176468 0 0.0675451
0 0.254054 0
0 0.0559338 0.126966
0.0387429 0 0
0.169777 0 0
0 0 0
0 0 0.038535
0 0 0.167647
0 0 0.194196
0 0 0
0 0.267478 0
0 0 0.262626
0 0 0
0 0 0
0 0 0.0492464
0 0 0
0 0 0.0557553
0.36296 0 0
0 0 0.308563
0 0.0504291 0
0.167608 0 0
0.033985 0 0
0 0 0
0 0 0.0630363
0.0339271 0 0
0.0301214 0 0
0.0291056 0 0
0.0300106 0 0
0.105064 0 0
0.0368133 0 0
0.0942526 0 0.0556271
0 0 0.241138
0 0 0.0758635
0 0 0.00845323
0 0 0
0 0.0656419 0
0 0 0.186946
0 0 0
0 0 0
0 0 0
0 0 0
0 0 0
0 0 0.0916172
0.127383 0 0.0394863
0.10902 0 0
0 0 0.286987
0 0 0.204293
0.14131 0 0.0722497
0 0 0.029383
0 0 0.0424284
0 0 0.0553174
0.0163821 0 0
0.0164669 0 0
0.0147521 0 0
0.0130324 0 0
0.0128198 0 0
0.0689026 0 0
0 0 0
0 0 0.129174
0.112508 0 0.0436224
0.166187 0 0
0 0 0.0450964
0.00947435 0 0
0 0 0.134238
0 0 0.267689
0 0 0.0482768
0 0 0
0 0 0.049239
0 0 0.0826691
0 0 0
0 0 0
0 0 0.0357801
0 0 0.0828044
0.169994 0 0.0422162
0 0 0.0220721
0.142794 0 0
0.0779523 0 0.103452
0 0.0676133 0.101832
0 0 0
0 0 0
0.0320716 0 0.0878098
0 0 0.0329827
0 0 0.0505374
0 0 0
0.0150044 0 0.0753183
0 0 0.0223963
0 0 0.0377834
0.0721233 0 0
0 0 0.025244
0.0322153 0 0.00538046
0.0330472 0 0.00686423
0.0988305 0 0
0 0 0.00598155
0 0 0
0 0 0.163854
0 0 0
0.0213164 0.0955122 0.134084
0 0 0.158285
0 0 0.104101
0 0 0
0.184555 0 0.0918503
0 0 0.138371
0 0 0.0873874
0 0.0622553 0.0749329
0 0 0
0.0358841 0 0.00229088
0.0378503 0 0.00296874
0.0394397 0 0.00371962
0.0414209 0 0.00234085
0 0 0.0597508
0 0 0
0 0 0
0 0.0277338 0.245617
0.0822063 0 0.0198561
0.0431921 0.0153426 0
0 0 0
0.0113738 0 0
0.0677575 0 0.010707
0.0314833 0.0101729 0
0 0 0
0 0 0.145394
0.0460912 0 0.0069285
0.0456342 0 0.00216911
0.0462573 0 0
0.0479111 0 0
0 0.0571299 0.00380773
0.0819788 0 0.143121
0.166264 0 0
0 0 0
0.0400341 0 0.00240813
0 0 0
0.126396 0 0.0996086
0 0 0
0 0 0.0801652
0 0 0.217458
0 0 0
0 0 0.19158
0 0.0188819 0.0857112
0.020304 0 0.323687
0 0 0
0.0737444 0 0.021005
0.00819841 0 0.19697
0 0 0.358277
0 0 0.15247
0 0 0.354961
0 0 0.0814533
0 0 0.219552
0 0 0.0680713
0 0 0.21798
0.0963497 0 0.0272212
0 0 0
0 0 0.194369
0.0754872 0 0.0265381
0.0943166 0 0.027885
0 0 0
0 0 0.194877
0 0 0
0 0 0.0803051
0 0 0.218595
0 0 0.0676487
0 0 0.218266
0.0742955 0 0.0264659
0.0134651 0 0.1952
0 0 0.139256
0 0.00817079 0.116008
0 0 0
0 0 0.0700749
0 0 0.221587
0 0 0.0695169
0 0 0.204872
0 0 0.34634
0 0 0.150634
0 0 0.34634
0 0 0
0.0907184 0 0.0252736
0.0505571 0.0395869 0
0 0 0
0 0 0.187353
0 0 0.0664356
0 0 0.217181
0 0 0.0664356
0.0381548 0 0.0385852
0 0 0
0 0 0.188445
0 0 0
0 0 0.187353
0.0722476 0 0.0241822
0.0722476 0 0.0241822
0 0 0.0664356
0 0 0.217181
0 0 0.0664356
0 0 0.217181
0 0 0.0664356
0.0196841 0 0.0374937
0 0 0.0664356
0 0 0.217181
0 0 0.0664356
0 0 0.217181
0.0722476 0 0.0241822
0.0722476 0 0.0241822
0 0 0.0664356
0 0 0.217181
0 0 0.0664356
0 0 0.217181
0 0 0.0664356
0.0196841 0 0.0374937
0 0 0.0664356
0 0 0.217181
0.0102192 0 0.19156
0 0 0.34634
0 0 0
0.0722476 0 0.0241822
0.0102192 0 0.19156
0 0 0.34634
0 0 0.0255091
0 0 0.217181
0 0 0.0664356
0.0196841 0 0.0374937
0 0 0.0664356
0 0 0.217181
0.0907184 0 0.0252736
0 0 0
0 0 0.187353
0.0722476 0 0.0241822
0.0907184 0 0.0252736
0 0 0
0 0 0.229606
0 0 0.217181
0 0 0.0664356
0.0196841 0 0.0374937
0 0 0.0664356
0 0 0.217181
0.0722476 0 0.0241822
0.0102192 0 0.19156
0 0 0.34634
0 0 0
0.0722476 0 0.0241822
0 0 0.0664356
0 0 0.384559
0 0 0.34634
0 0 0.0255091
0.0196841 0 0.0374937
0 0 0.0664356
0 0 0.217181
0.0722476 0 0.0241822
0.0907184 0 0.0252736
0 0.0229825 0.0809571
0.0160944 0 0.316512
0 0 0
0 0 0.0664356
0 0 0.218273
0 0 0
0 0 0.229606
0.130824 0.116693 0.166652
0 0 0.150634
0 0 0.34634
0 0 0
0.0722476 0 0.0241822
0.0907184 0 0.0252736
0 0 0
0 0 0.187353
0 0 0.0664356
0 0 0.217181
0 0 0.0664356
0 0 0.259435
0 0 0
0 0 0.188445
0 0 0
0 0 0.187353
0.0722476 0 0.0241822
0.0722476 0 0.0241822
0 0 0.0664356
0 0 0.217181
0 0 0.0664356
0 0 0.217181
0 0 0.0664356
0 0 0.259435
0 0 0.292711
0 0 0.256501
0 0 0.230478
0 0 0.135427
0 0.011623 0.114296
0 0 0
0 0 0.279497
0 0 0.256501
0 0 0.1034
0 0 0.219441
0 0 0.0667025
0 0 0.259741
0.0853569 0.0972879 0.197446
0.0739326 0 0.0459519
0 0 0.227018
0 0 0.0513741
0 0.0832369 0
0 0 0.0850542
0 0 0.228857
0 0 0.184066
0.0420376 0 0.130813
0 0 0
0 0 0.0547486
0 0 0.221762
0 0 0.069453
0 0 0.263151
0.35439 0.0993581 0
0 0 0
0 0 0.197123
0.0914603 0 0.222994
0 0 0.195424
0 0 0.0539588
0 0 0.187946
0.0425193 0 0.134642
0 0 0.193834
0 0 0.0364704
0 0 0.0904417
0 0 0.355589
0 0 0.312509
0 0 0.158053
0 0 0.561203
0.472676 0.0281047 0
0 0 0.302585
0 0 0.158012
0 0.192636 0.21041
0.123935 0 0.141367
0 0 0.235545
0 0 0.0386991
0 0 0.259502
0.0521154 0 0.133311
0 0 0.0691153
0 0 0.138155
0 0 0.269971
0 0 0.435539
0.197927 0 0
0 0 0.17991
0 0 0.338266
0 0 0.0234872
0 0 0.0554193
0 0 0
0.0210896 0.266208 0.31709
0 0 0
0.0658462 0 0.017257
0.0655633 0 0.0177982
0.0603647 0 0.0135784
0.0588296 0 0.0129902
0.0546149 0 0.0107075
0 0 0.159463
0 0 0.297944
0 0 0
0.0487481 0 0
0.0424887 0 0
0 0 0
0 0 0.236082
0 0 0.0787254
0 0 0
0 0 0
0 0 0.187208
0.0686956 0 0.0215566
0.0672761 0 0.0198074
0.064161 0 0.0183288
0.0630833 0 0.0179838
0.0613807 0 0.0181349
0.0750841 0 0.0162144
0 0 0
0 0 0.151904
0.0518203 0 0
0.0416802 0 0.00106059
0 0 0
0 0 0.387417
0 0 0.20647
0 0 0
0 0 0.0803051
0 0 0.217544
0.0707491 0 0.0237349
0.0696966 0 0.0223861
0.0655056 0 0.0191522
0.0650689 0 0.0183878
0.0622338 0 0.015901
0.0604028 0 0.0110654
0 0 0.0456645
0 0 0.0105427
0.124067 0 0
0 0.00188798 0.0630032
0 0 0
0 0 0.218273
0 0 0
0 0.103114 0
0.000314113 0.0176332 0.126125
0 0 0.0983785
0.0701975 0 0.0216272
0.0708672 0 0.0223389
0.0661323 0 0.0189875
0.0656438 0 0.01575
0.0638919 0 0.0124375
0.0586253 0 0.00322601
0 0 0.0404006
0 0 0.0615755
0 0.213843 0
0 0 0
0 0 0.0118738
0 0 0.217181
0 0 0.0427638
0 0 0
0 0.146718 0
0.0576956 0 0.139906
0.0702069 0 0.0229628
0.069104 0 0.0202132
0.0676557 0 0.0195955
0.0648046 0 0.011728
0.0623497 0 0.00412219
0.0539031 0 0
0 0 0.0349949
0 0 0.0728132
0 0 0
0 0 0.188306
0 0 0.247709
0 0 0.217181
0 0 0
0 0 0.24317
0 0 0
0.0245087 0.10291 0.17439
0.0705771 0 0.0217055
0.0697364 0 0.0197683
0.0649097 0 0.0119905
0.0618284 0 0.00283049
0.052548 0 0
0.0390134 0 0
0 0 0.0349237
0 0 0.0568909
0 0 0.0550576
0 0 0.024934
0 0 0.049436
0 0 0.217181
0 0 0.190469
0.0829767 0 0.168431
0 0 0
0.0245136 0.102474 0.1728
0.0710471 0 0.0194797
0.0682411 0 0.0188066
0.0625372 0 0.00969193
0.0560035 0 0.000942635
0.0448412 0 0
0.0327786 0 0.0152181
0 0 0.0445639
0 0 0.0293711
0 0 0.0546032
0 0 0.155392
0.0663458 0 0.00894491
0 0 0.217181
0 0 0
0 0 0.132567
0.0975239 0 0
0.0248927 0.103583 0.167458
0.0663144 0 0.0130074
0.0622772 0 0.0112009
0.0537218 0 0.00578245
0.0421999 0 0
0.033851 0 0.00881253
0.0268352 0 0.0208055
0 0 0.0555112
0 0 0.219949
0 0 0.229636
0.1244 0 0.215137
0.0601101 0 0
0 0 0.217181
0 0 0.0653442
0 0 0
0 0 0
0 0.0351503 0.244888
0.0627724 0 0.00876256
0.0569644 0 0.00705983
0.0459126 0 0.00846698
0.0321682 0 0.00892453
0.03032 0 0.0290569
0.042699 0 0.0367334
0 0 0.0541184
0 0 0.192155
0.243035 0 0
0 0 0.0380763
0.0558299 0 0
0 0 0.217181
0 0 0.0664356
0 0 0.0555724
0 0.0131524 0
0 0 0.172193
0.0573585 0 0.00643824
0.0500281 0 0.0052393
0.0427188 0 0.0163162
0.0308071 0 0.0310037
0.0403065 0 0.0326422
0.0652939 0 0.0228783
0 0 0.0493726
0 0 0.19127
0.0679736 0 0.0183246
0.0619077 0 0.0149365
0.0454355 0 0
0 0 0.0920564
0 0 0.24317
0 0 0.11508
0 0 0
0.00694823 0 0.0182985
0.0499129 0 0.00806824
0.043029 0 0.0110978
0.0438779 0 0.0242286
0.048066 0 0.0441939
0.061866 0 0.0235229
0.0799567 0 0.0158727
0 0 0.0585894
0 0 0.211032
0.0654503 0 0.0169793
0.0625578 0 0.0141504
0.0402059 0 0
0 0 0.258343
0 0 0.0392724
0 0 0
0 0 0
0.000446718 0 0.0318206
0.0535741 0 0.0262181
0.0544437 0 0.0297276
0.0630936 0 0.0316544
0.0777621 0 0.027898
0.0825113 0 0.0232345
0 0 0
0 0 0.24055
0.121431 0 0.258108
0.0680527 0 0.0199778
0.0640406 0 0.0158912
0.039747 0 0
0 0 0.472535
0 0 0.256501
0 0 0
0 0 0
0.00200096 0 0.0383733
0.0558539 0 0.0207799
0.0588812 0 0.0181784
0.0648383 0 0.0122172
0.0771739 0 0.0100034
0.0763814 0 0.0187466
0 0 0.191988
0.0819946 0 0.168488
0 0 0.0502574
0.00552313 0 0.0942242
0.000208135 0 0.0887872
0 0 0.0370245
0 0 0.426907
0.00515065 0 0.0391552
0 0 0.27579
0 0 0
0.0899707 0 0
0.0124524 0 0.0390415
0.0660228 0 0.0182654
0.0645816 0 0.0150272
0.0652125 0 0.0131052
0.142155 0 0.0517653
0 0 0.0570565
0.0911313 0 0.0272658
0 0 0.123159
0.134165 0 0
0 0.210694 0.0527459
0.170424 0 0
0.0486866 0.151777 0
0 0 0
0 0 0.0749719
0 0 0.0225336
0 0 0.451884
0.220921 0 0
0 0 0.360561
0 0 0
0 0.00883198 0.0240266
0 0 0
0.0191851 0 0.0442267
0.0729852 0 0.0304436
0.0734501 0 0.0307992
0.149796 0 0.0695152
0.162343 0 0
0 0.0437283 0.370474
0 0 0.133837
0.0101683 0 0.10564
0.0875722 0 0.207353
0.205369 0 0
0.067389 0.0768057 0.0519593
0.121021 0 0
0 0 0.190072
0.0160839 0 0
0 0.103482 0.136081
0.0832571 0 0.146989
0 0 0
0.344674 0 0.0335036
0 0 0.288938
0 0 0
0 0 0.207092
0 0 0
0.127531 0.0333028 0
0.0095642 0 0.112144
0.0144988 0 0
0.206197 0 0
0.343657 0.247474 0.138025
0.147817 0 0
0.0448003 0.0846572 0.0688959
0 0 0
0.102717 0.0857686 0.0640648
0 0 0
0.0541748 0.151097 0
0.0664369 0 0
0 0 0
0 0 0.0425948
0.00377079 0 0.11293
0.0686005 0 0.211346
0.164807 0 0
0 0.0397654 0.0195422
0 0 0
0 0 0.0239955
0 0 0
0 0 0.0464162
0 0 0
0 0 0
0 0.0304068 0
0 0 0
0 0 0
0 0 0.0482212
0.268632 0.176103 0
0 0 0.0514718
0 0 0.0479095
0 0 0.212967
0 0 0.198768
0 0 0
0.0443636 0 0.0275152
0 0 0
0 0 0
0 0 0
0.00378628 0 0
0.2031 0.0696307 0
0 0 0.0474023
0 0 0.040952
0 0 0.081608
0 0 0
0 0 0.0818177
0.0637856 0 0
0 0.061361 0.142134
0 0 0.046838
0 0 0.0292251
0 0 0
0 0 0.107948
0 0 0
0.0961504 0 0.00914985
0 0 0.166036
0 0 0
0.101321 0 0.0104493
0 0 0.0537028
0 0 0.147497
0 0.0530323 0
0 0 0.218445
0 0 0.0623721
0 0 0.00709608
0 0 0.215209
0 0 0
0 0 0.164766
0 0 0.201408
0 0 0
0 0 0.16639
0 0 0.204823
0 0 0
0 0.0335133 0
0.220735 0 0
0 0 0
0 0 0.0116655
0 0 0.251596
0 0 0
0 0 0.169058
0 0 0
0 0 0
0 0 0.265549
0 0 0
0 0.0312301 0.00281677
0 0 0.130263
0.0665 0 0.0228828
0 0 0
0 0 0.070225
0 0 0.023949
0 0 0
0 0 0.262208
0 0 0
0.0242628 0 0.0276671
0 0 0.238672
0 0 0
0.0284248 0 0.022632
0 0 0.242348
0.0684627 0 0.0221666
0 0 0
0 0 0
0 0 0.122349
0 0 0
0.0316609 0 0.0252037
0 0 0.22661
0 0 0
0 0 0.171203
0 0 0
0 0 0
0 0 0.286909
0 0 0.222838
0.0691332 0 0.0288041
0 0 0
0 0 0.0966728
0 0 0.321195
0 0 0
0 0 0.160433
0 0 0
0 0 0
0 0 0.271404
0 0 0
0.0318224 0 0.0317477
0 0 0.262568
0 0 0.232901
0.0658406 0 0.0179606
0 0 0
0 0 0.067743
0 0 0.349129
0 0 0
0 0 0.162501
0 0 0
0.0261855 0 0.0246003
0 0 0.24448
0 0 0
0 0 0.189968
0 0 0.238768
0 0 0
0.0600035 0 0.0181373
0 0 0.097708
0 0 0
0 0 0.0531127
0 0 0.349977
0 0 0
0 0 0.168082
0 0 0
0 0 0.165536
0 0 0.21706
0 0 0
0 0 0.193029
0 0 0.239074
0 0 0
0.0597557 0 0.00938975
0 0 0.0754049
0 0 0.0524551
0 0 0.0668721
0 0 0.0461192
0 0 0
0 0 0.281343
0 0 0
0 0 0.166286
0 0 0
0 0 0
0 0 0.297482
0 0 0
0 0 0
0.0599053 0 0.0128407
0 0 0.0701067
0 0 0.0569521
0 0 0.0828791
0 0 0.228917
0.124417 0.201737 0.155479
0 0 0.147224
0 0 0
0 0 0.172681
0 0 0
0.049814 0 0.0247931
0 0 0.253587
0 0 0
0.0540898 0 0.0268814
0 0 0.0488716
0.0101655 0 0
0 0 0.141939
0 0 0.0893076
0 0 0.188989
0 0 0
0 0 0.158824
0 0 0
0 0 0.186315
0 0 0
0 0 0.180935
0 0 0
0 0 0
0 0 0.271771
0 0 0.161805
0 0 0
0 0 0.0810882
0 0 0.247321
0 0 0
0 0 0.188871
0 0 0
0 0 0.194024
0 0 0
0 0.00602666 0.176155
0 0 0
0.0354181 0 0.0294716
0 0 0.225037
0.00390418 0 0
0 0 0.102836
0 0.000657511 0.0797876
0 0 0.289292
0 0 0.0175452
0 0.232645 0.305376
0 0 0
0 0.292637 0.279728
0 0 0
0 0.238388 0.258899
0 0 0
0 0 0.173403
0 0 0
0.228689 0.0792632 0
0.119287 0 0
0.113923 0 0
0 0 0
0 0 0
0 0 0
0 0 0
0 0 0.122901
0 0 0.0621233
0.0972195 0 0.205575
0.14641 0 0.236996
0 0 0.213282
0 0 0
0.512178 0 0.0558754
0.195253 0 0
0.382471 0.00877647 0.204053
0 0 0.370637
0 0.124775 0
0 0 0.32853
0 0 0.213094
0 0 0.243675
0 0 0.274581
0.453267 0.0848782 0
0 0.281929 0.463661
0 0 0.137505
0 0 0.272452
0 0 0.268778
0 0 0.293368
0 0 0.3143
0 0 0.278209
0 0 0
0.364644 0.180066 0.0441598
0 0.0688465 0.105208
0 0 0.254844
0 0 0.246117
0 0 0.270826
0 0 0.293174
0 0 0.308887
0 0 0.289406
0 0 0.20947
0 0 0.410221
0 0 0.227551
0 0 0.245835
0 0 0
0 0 0.12544
0.0203716 0 0.18447
0.0171962 0 0.197092
0.0117767 0 0.195213
0 0 0.478152
0 0 0
0 0.0397001 0.0886963
0.169393 0 0.0623643
0 0 0.148908
0 0 0.0901758
0 0 0.0914224
0 0 0.091953
0 0 0
0 0 0.2494
0.379735 0 0
0 0.153362 0.221713
0.0761238 0 0
0 0 0
0.0427568 0 0.0263009
0 0 0.0929652
0 0 0.283558
0 0 0.245344
0 0 0.237048
0 0 0.226808
0 0 0.218436
0.041295 0 0
0 0 0.177849
0 0 0.233897
0 0.0513103 0.154855
0 0 0
0 0 0.330331
0 0 0.242982
0 0 0.234891
0 0 0.222984
0 0 0.209316
0 0 0.196514
0 0 0.19293
0 0 0.174523
0 0 0.293665
0 0 0.216213
0 0 0
0.0648578 0 0.0358511
0 0 0.269979
0 0 0.229067
0 0 0.217541
0 0 0.201803
0 0 0.184626
0 0 0.17081
0 0 0.16652
0 0 0.176681
0 0 0.341427
0 0 0.202824
0 0 0.307173
0 0 0.223319
0 0 0.215295
0 0 0.201525
0 0 0.185105
0 0 0.170011
0 0 0.158908
0 0 0.155623
0 0 0.16698
0 0 0.092491
0 0 0.264643
0 0 0.246517
0 0 0
0 0.00739441 0.0785893
0 0 0.103167
0 0 0.0943123
0 0 0.0802089
0 0 0.0595507
0 0.0134632 0.0442532
0.00735323 0.0303709 0.0418823
0.15432 0 0.349836
0 0 0.278154
0 0 0
0 0.0203603 0.00402901
0 0 0.112964
0 0 0.0656699
0 0 0.0666138
0 0 0.0667631
0 0 0.0671982
0 0 0.0696771
0 0 0.0764785
0 0 0
0 0 0
0 0 0
0.0235082 0 0.0270781
0 0.0929551 0
0 0.027413 0.069664
0.00195076 0 0.0990294
0.000241785 0 0.0928183
0.00480479 0 0.0828882
0.00963382 0 0.0757518
0.0167437 0 0.0800501
0 0 0.327306
0 0 0.154312
0 0 0
0 0.296096 0
0 0.0376273 0.00373749
0 0.161302 0
0 0.128933 0
0.120218 0.0592677 0
0.123741 0.0642809 0
0.13481 0.0681612 0
0 0 0.315506
0.277505 0 0
0 0 0.408543
0.0385443 0.330433 0.186659
0.12655 0 0.140949
0 0 0.187846
0.0319258 0 0
0 0 0
0 0 0.202056
0.0931057 0 0.229112
0 0 0.199866
0 0 0.247362
0.222621 0 0
0 0 0.197158
0 0 0.2573
0 0 0.490278
0 0 0.462766
0.22274 0 0
0 0 0.199477
0 0 0.410261
0.366312 0.0993729 0
0 0 0.18685
0.0143324 0.0418564 0.224946
0.31637 0 0.055413
0 0 0.334483
0 0 0.16077
0 0 0.265166
0.135811 0 0.241869
0 0 0
0.350419 0 0.0371022
0 0 0.138959
0 0 0.180324
0 0 0.444306
0 0 0.244408
0 0 0
0.310782 0 0
0 0 0.456054
0 0 0.370761
0.491016 0.0255247 0
0.0129532 0.146171 0.301004
0 0 0
0 0 0.217101
0 0.0430349 0.247024
0.130416 0 0.147538
0 0 0.247242
0 0 0.164756
0.376583 0.00281124 0
0 0 0.22109
0 0 0.42612
0 0 0.319597
0 0 0.345974
0.270556 0 0.074191
0 0 0.306024
0.239528 0.109646 0.198386
0 0 0.484227
0 0 0
0 0 0.222296
0.294711 0.334539 0
0 0 0.00155437
0.411954 0 0.128958
0 0 0.318842
0 0 0
0 0 0.178968
0 0 0.3385
0.203873 0 0.0299866
0 0 0
0 0 0.0711773
0 0 0.0928524
0 0.182198 0
0 0 0.351655
0 0 0
0.0137007 0 0.464655
0.379552 0.0080063 0
0 0 0.175793
0 0 0.0535882
0 0 0
0.419725 0 0
0 0 0.237957
0.573635 0 0
0 0 0.290944
0 0 0.358635
0.32979 0 0.0594086
0 0 0.293431
0 0 0.149463
0 0 0
0.325996 0 0
0 0 0.239139
0 0 0.253447
0 0 0.181234
0 0 0.536809
0 0.00820068 0.200413
0 0 0.0848024
0 0 0.289029
0.363934 0 0.041082
0 0 0.280018
0 0 0.240444
0.466606 0 0
0 0.0189517 0.362634
0.18138 0 0.017496
0 0 0
0 0 0.284591
0.230396 0 0.249513
0 0 0
0.100942 0 0.197403
0 0 0.111793
0 0 0.111759
0 0 0.46573
0 0 0.528238
0.201365 0 0
0 0 0.405067
0 0 0.474878
0.242074 0 0
0 0.129527 0.301967
0.00315204 0 0.22695
0 0 0
0.471258 0 0
0 0.0171002 0.345984
0.267644 0 0
0 0 0.405344
0 0 0.475203
0.211488 0 0.0673263
0 0 0
0.0681714 0 0.329757
0 0 0.146476
0.187956 0.0078482 0.143999
0 0 0.427379
0.342487 0.322707 0
0 0 0.434517
0 0 0.21063
0.276665 0 0
0 0 0.298324
0 0 0.0709913
0 0 0.217589
0.318202 0 0
0.127796 0.100987 0.135901
0 0 0
0.474976 0 0
0 0.016295 0.347966
0.26821 0 0
0 0 0.353293
0.0434768 0 0.241994
0 0 0
0.30347 0 0.148509
0 0 0
0.180886 0 0.316901
0 0 0.025324
0.324105 0.0939944 0.0945812
0 0 0.25333
0 0 0.441165
0.173803 0 0.134728
0 0 0
0 0 0.29377
0.377395 0 0
0 0 0.142954
0 0 0.212808
0 0 0
0 0 0
0.519884 0.0167762 0
0.0296074 0 0.256011
0.0389372 0 0
0 0 0.338683
0.240181 0 0.152114
0 0 0
0.18432 0 0.321605
0 0 0.0300793
0.185209 0 0.317751
0 0 0.02712
0.212528 0 0.112683
0 0 0.609566
0 0 0.484952
0.240292 0 0
0 0 0.448978
0 0 0.396015
0.230193 0 0
0.154763 0.258593 0.110734
0 0 0
0.485221 0.265492 0.0627195
0 0 0.649265
0.0306811 0.0772694 0.281766
0.300378 0 0
0 0 0.383484
0.242736 0 0.156443
0 0 0
0.186153 0 0.325156
0 0 0.0289076
0.188132 0 0.320753
0 0 0.0280757
0.213145 0 0.116168
0 0 0.56025
0.152557 0 0.158323
0 0 0
0.380211 0 0
0 0 0.244772
0 0 0.0420437
0 0 0.0443212
0 0 0
0 0.0656614 0
0 0 0.161252
0.484007 0.515263 0
0 0 0.352546
0.364186 0.0931493 0
0 0 0.00341094
0.382089 0 0.0478947
0 0 0.327496
0.013581 0 0.0761187
0 0 0
0.188059 0 0.325231
0 0 0.0288143
0.301411 0.0895513 0.230008
0 0 0.291534
0.255135 0.111882 0.216916
0 0 0.450275
0.155747 0 0
0 0 0.290101
0 0 0.253048
0.0452283 0.194618 0.224258
0.197312 0 0.290475
0 0 0
0.487344 0.105225 0
0 0 0.433818
0 0 0.161213
0.603305 0 0
0 0 0.0740074
0 0 0.20051
0.158131 0 0.229791
0 0 0
0.156685 0 0.420478
0 0 0
0.33394 0.0888179 0.0992236
0 0 0.497348
0 0 0.385779
0.347362 0 0
0 0.073097 0.220736
0 0 0
0.11402 0.0828678 0.0832484
0 0 0.00584137
0 0 0
0 0 0.0622681
0.28745 0.219437 0
0.0597346 0 0.577346
0 0 0
0.115861 0.0819881 0.0908356
0.49167 0 0
0 0 0.443615
0 0 0.559904
0.0548338 0 0.326917
0.210216 0 0.160437
0 0 0.267821
0.25967 0.112609 0.221795
0 0 0.478155
0 0 0
0 0 0.200469
0.051142 0.0310583 0.12947
0.0785568 0.19808 0.0950322
0 0 0
0.518903 0.267971 0
0 0 0.630178
0 0 0.163393
0.0875365 0.14658 0
0.540628 0.0202647 0
0.0186745 0.150638 0.336883
0 0 0.0943045
0 0 0
0.228686 0.0232231 0.160978
0 0 0.0647857
0.508693 0.10079 0.0313862
0 0 0.27758
0 0 0.308647
0.352179 0 0
0.0325906 0.266505 0.268896
0 0 0
0 0.133593 0.129285
0 0 0.0250459
0.0278883 0.198847 0
0 0 0
0.374618 0.369683 0
0.00547896 0 0.488292
0 0 0
0.198456 0.272261 0.131105
0 0 0
0.13032 0.348566 0
0.207789 0.0799423 0.0465382
0 0.105217 0
0.38412 0 0.25951
0 0 0
0.345686 0.088458 0.106555
0 0 0.513275
0 0 0.417882
0.268676 0 0
0 0.249349 0.0416606
0.0688718 0.26416 0
0 0.105057 0
0 0.235153 0.143727
0 0 0
0 0.19229 0
0.578497 0.390103 0
0 0 0.432053
0 0.106659 0
0.0627572 0.343692 0
0.186166 0.374379 0.100802
0 0.0818315 0
0.128837 0.34997 0
0.478481 0 0
0 0.0325055 0
0.316693 0.0867357 0.246416
0 0 0.554223
0.276091 0.0532669 0
0 0 0.444108
0.0319128 0 0
0 0 0.139244
0.0214306 0.139105 0
0 0 0.150764
0 0.0307745 0.151809
0 0 0.227357
0.0206019 0 0
0 0 0
0 0.448289 0.452323
0.100531 0.211424 0
0.24129 0.395652 0
0.104783 0.1823 0.0596398
0 0.00198292 0
0.285458 0.291627 0
0.298001 0 0
0 0 0.0447888
0 0 0.305901
0.187998 0 0.162013
0 0 0.24542
0 0 0
0.029017 0 0
0.409644 0.290438 0
0 0.246063 0.372691
0 0 0
0 0.203012 0.0704944
0.127019 0 0
0.172544 0.149509 0
0.0858859 0.0220057 0
0.210134 0.136238 0.0399007
0.0656616 0.189728 0.0790989
0 0.00932965 0.0402655
0.0145899 0 0.144057
0.0928642 0 0.0118327
0.103372 0.0834838 0.0706766
0 0 0
0.0507668 0.144691 0
0.0563948 0 0
0 0 0
0 0 0
0.267249 0 0
0 0 0.339201
0 0 0.168489
0 0 0.253958
0 0 0.206359
0 0 0
0 0.418725 0.516359
0.264022 0 0
0.145646 0.251204 0.104583
0 0 0
0.0561581 0 0
0 0 0
0.265198 0.25056 0.166417
0 0 0
0 0.126132 0.0385234
0 0 0
0 0.147184 0.117144
0 0.212918 0.00967836
0.0682489 0.185383 0.0833271
0 0 0.260237
0.004023 0 0
0 0.0460539 0
0 0.0378689 0.255483
0.0246186 0 0.238475
0 0.184006 0
0 0 0.00208629
0.32247 0 0.139167
0 0 0.422663
0.131375 0.221293 0.140193
0 0 0.153748
0 0.105881 0
0 0.332655 0
0 0 0
0.0610068 0.500314 0
0 0.46361 0
0 0.398618 0
0 0.407547 0
0 0.471289 0
0 0.511706 0.0614469
0.356895 0 0
0 0.403378 0
0 0 0
0 0.108365 0.207089
0 0 0.0963927
0.173331 0 0
0 0 0
0 0 0.0371441
0 0 0
0 0 0
0 0.251701 0
0.392151 0.115504 0
0 0 0.779793
0.157162 0 0.0821734
0.155992 0 0
0.00542314 0.160372 0.236017
0.193368 0.126446 0
0 0.0705042 0
0.0850907 0.275887 0
0 0.275188 0
0.131531 0.496083 0
0 0 0.174754
0 0.19615 0
0 0 0.131712
0 0.169169 0
0 0 0.0167365
0.224734 0.242349 0
0 0 0.0843768
0.0754184 0.0296785 0.0305058
0 0 0
0.322676 0.120834 0.188235
0 0 0
0 0 0
0 0 0
0 0 0.527717
0.361386 0.360534 0
0 0.291133 0.674327
0 0 0
0.135328 0.320565 0.145572
0.142552 0 0
0.105504 0.273434 0
0.0087659 0.15985 0
0 0 0
0.353124 0.447149 0.215708
0 0 0
0.110314 0.392362 0
0 0.263199 0.132012
0.331423 0 0
0.0246451 0.25149 0.260338
0 0 0
0 0.0627439 0.250809
0.0317525 0 0
0 0 0.16864
0.358231 0 0.0461369
0 0 0.360111
0.173971 0 0
0 0 0.0954769
0 0 0.172759
0 0 0.282883
0 0 0
0.440326 0.461498 0
0 0 0.545438
0.0725166 0 0
0 0 0.141059
0.213491 0 0
0 0.127463 0
0.0860497 0 0
0.168616 0.340999 0
0.0313138 0.330199 0
0.184795 0.209391 0
0 0.231594 0.147929
0.141562 0.00198977 0
0.136345 0.337692 0.0322786
0.115601 0.0112295 0
0 0.123309 0
0.0259039 0.173344 0
0 0.0688436 0
0 0.227413 0.0330483
0 0 0.0375983
0.678891 0 0.0851981
0 0 0.175515
0 0 0
0 0 0.0341749
0.416744 0 0
0 0 0.0731201
0 0 0.0818278
0.48036 0.263807 0.0619356
0 0 0.643757
0.336922 0.202523 0
0 0.0265594 0.309566
0.119655 0 0
0.125938 0.257326 0.245777
0.0618465 0 0
0.165093 0.202592 0
0.170308 0.160277 0
0.359336 0.452198 0.219228
0.0021821 0 0
0.0809753 0.395694 0.0546425
0.145622 0 0
0.108272 0.272424 0
0.283686 0.309715 0
0.0423016 0.155082 0.109217
0 0.229665 0.140693
0 0.22056 0.0154258
0 0 0.207146
0.116946 0.103662 0.16408
0 0 0.0348764
0.528939 0.0349335 0.12746
0 0 0.0421287
0 0 0
0.433555 0.396732 0
0 0 0.533758
0.132813 0 0
0 0.0531614 0.0524452
0.257241 0.15118 0
0 0.0715416 0
0 0.00527975 0
0.273463 0.286351 0
0.231834 0.383391 0
0.0995306 0.176397 0.0567492
0.0299188 0.178061 0
0 0.069169 0
0 0.00595234 0
0.268653 0.338544 0
0 0.269504 0.0184936
0 0.25992 0.14816
0.224296 0 0
0 0.391664 0.0720852
0.0762027 0.0592631 0
0 0 0
0.629339 0.0533018 0
0 0 0
0 0 0.105824
0 0 0.287888
0.342278 0.200657 0
0 0.0275971 0.311701
0.0647206 0 0
0.165109 0.203164 0
0.126213 0.316765 0
0 0.168569 0
0.491759 0.455836 0.0734756
0.0290155 0.212997 0
0.126038 0.313431 0
0 0.187826 0
0.362454 0.453559 0.224022
0.00391694 0 0
0 0.397411 0.0740659
0.113022 0.0618135 0
0 0.0519952 0.036728
0.0141373 0.137137 0
0 0 0
0 0 0.0227327
0 0 0.295061
0 0 0.274005
0 0.0347451 0
0 0.000868176 0
0 0.00494887 0
0.0928361 0.153658 0
0.196881 0.224774 0
0.12166 0.238208 0
0.366102 0.456125 0.226588
0 0 0
0.0199685 0.402302 0
0.0398602 0.279921 0
0.233677 0.388383 0
0.100137 0.178791 0.0582794
0.0312016 0.176302 0
0 0.259049 0
0.0244771 0.309534 0
0 0 0
0.586573 0 0
0 0 0
0 0 0.21984
0 0 0.139972
0.0867886 0.143392 0
0.0116127 0.164804 0
0 0 0
0.504231 0.400364 0
0.239031 0.389652 0
0.103115 0.179068 0.0594122
0 0.0243139 0
0.142768 0.343748 0.0334641
0 0 0
0.118152 0.401121 0
0.0240202 0.271198 0.00351093
0.24148 0.194009 0
0 0 0.0623241
0 0 0
0 0 0.261407
0 0 0
0.182022 0.292197 0
0.0865976 0.462071 0
0 0.244979 0
0.503691 0.460336 0.0768594
0.0316502 0.216772 0
0.293658 0.316343 0
0.185556 0.375862 0.101635
0 0.106052 0
0 0.402443 0.0761818
0.00707168 0 0
0.0854556 0.398876 0.0577619
0.206934 0 0
0 0.0642713 0
0 0 0.0884359
0.123618 0.142526 0
0.409077 0.404187 0
0.0879939 0.461338 0
0 0.26689 0
0.373931 0.46328 0.231783
0 0 0
0.126617 0.347909 0
0.240314 0.393977 0
0.104059 0.180423 0.0601918
0.033675 0.177843 0
0 0.0667719 0
0.0308507 0.176426 0
0 0 0
0 0 0
0.0670746 0.215756 0
0.405575 0.465243 0.0938966
0.0434402 0.286027 0
0.244402 0.394439 0
0.187166 0.380817 0.103418
0 0.081091 0
0.119308 0.408667 0
0.0321482 0.216387 0
0.132544 0.321083 0
0 0.131256 0
0.124778 0.239087 0
0.371613 0.464737 0.230101
0 0 0
0.129366 0.352398 0
0.244749 0.397811 0
0.101971 0.184563 0.0606019
0 0.0232504 0
0.145348 0.351913 0.0373059
0 0 0
0.0299066 0.35368 0
0 0.245091 0
0.243862 0.394104 0
0.18373 0.380421 0.100834
0 0.0830338 0
0.130078 0.352044 0
0.0780052 0.39832 0
0.071356 0.351545 0
0.188546 0.382563 0.107117
0 0.0868284 0
0 0.130898 0
0 0 0
0 0 0.0745464
0 0 0
0 0 0.170125
0 0 0
0 0 0.0478786
0 0 0
0 0 0
0 0 0.157033
0 0 0
0 0 0.0201087
0 0.00297592 0.0787702
0 0 0.200029
0 0 0
0 0 0
0 0.24705 0.204504
0 0 0
0 0.116568 0
0 0 0.129617
0 0 0
0 0 0.0996551
0 0.0566342 0.27894
0 0 0
0 0 0
0 0.0469445 0.0659516
0 0.138358 0.280695
0 0 0
0 0 0
0 0 0.0919275
0 0.0256623 0.23895
0 0.00143264 0
0 0.139444 0
0 0 0
0 0 0.08509
0 0 0
0 0.127927 0
0 0 0
0 0.0475738 0.108298
0 0 0.249568
0 0 0.117104
0 0 0.247935
0 0.020863 0.296545
0 0 0
0 0 0
0 0.000674684 0
0 0 0
0 0 0.108016
0 0 0.270573
0 0 0
0 0.0300461 0.343327
0 0 0
0 0 0
0 0 0
0 0 0.121221
0 0.00494193 0.284726
0 0 0.0752934
0 0 0
0 0 0
0 0 0.11834
0 0 0.323757
0 0 0
0 0 0.122732
0.148246 0.258272 0
0 0.250432 0.0184183
0 0 0.129327
0 0.0612126 0
0.0271686 0 0.0215318
0 0 0.0809858
0 0 0.0853113
0 0 0.0916519
0 0 0
0 0 0.180652
0.327815 0 0.101263
0 0 0
0.140079 0.275972 0
0.0507893 0 0.0320926
0 0.0718437 0
0 0 0
0 0 0.299545
0 0 0.220562
0 0 0.227008
0 0 0.245881
0 0 0.261815
0 0 0
0.191225 0 0
0 0 0.22651
0 0.0648895 0
0 0 0.213868
0 0 0
0.0537472 0 0.0327715
0 0 0.251203
0 0 0.220086
0 0 0.228628
0 0 0.247735
0 0 0.273963
0 0 0.134692
0.359609 0 0
0 0 0.245682
0 0 0.130788
0 0.19282 0.403442
0 0 0
0 0.267563 0.317386
0 0 0.117821
0 0 0.220715
0 0 0.231979
0 0 0.398662
0 0.0618344 0.599297
0.0960853 0 0.18363
0.146461 0.283631 0
0 0 0.403207
0 0.0063527 0
0 0 0
0 0 0.196195
0 0 0
0.0798067 0.236477 0.376556
0 0.0487497 0.354735
0.012932 0.0689094 0.394039
0.120007 0.0976729 0.253263
0 0 0.0504121
0.190536 0.0949228 0
0.517098 0.337436 0
0 0 0
0 0 0.106498
0 0 0.278943
0 0 0
0 0 0.181691
0 0 0
0 0 0.0088443
0 0 0.0127189
0 0 0.1295
0 0 0.177891
0.289153 0 0
0.288532 0 0
0.188078 0.145144 0
0 0 0
0 0 0
0 0 0.172558
0 0 0
0.078347 0.24781 0.367673
0.00639852 0.0696962 0.359236
0.0225166 0.081429 0.411919
0.0378456 0.0825182 0.474992
0.305879 0 0.297643
0 0.269299 0
0 0 0.101351
0 0.00236852 0.264739
0 0 0
0 0 0.170005
0 0 0
0 0 0.00902882
0 0 0
0 0 0.134113
0.141739 0.158929 0.0687828
0.633561 0 0
0.38711 0.0263935 0
0 0 0
0 0 0
0 0 0.171654
0 0 0
0.0912719 0.275003 0.382051
0 0.0121602 0.213459
0 0 0.290862
0.238075 0 0.320434
0 0 0.105883
0 0 0.286799
0 0 0
0 0 0.186313
0 0 0.164736
0 0 0.0851528
0 0 0.437836
0.104845 0.222624 0
0 0 0
0 0 0
0 0 0.20306
0 0 0.102562
0.184598 0.340354 0.393575
0.221151 0 0
0.138387 0.153145 0
0.0124197 0 0
0 0 0.137511
0 0 0.36098
0 0 0.11421
0 0.0737735 0.0676588
0 0.0919287 0
0.128548 0.304236 0.0028456
0 0.00992576 0
0 0.0973465 0
0 0 0
0 0.138002 0
0 0 0.335066
0 0 0.0117947
0 0 0
0 0 0.363339
0.312648 0.695141 0.56591
0.461098 0 0
0 0 0.00592977
0 0.233777 0.261927
0.087213 0.0103357 0
0.138166 0.151284 0
0 0.0994406 0
0 0 0
0 0.116016 0.227401
0.641738 0.171153 0
0 0 0.262396
0.562004 0.150235 0
0 0 0.223523
0 0.169929 0
0 0 0.138645
0 0.142118 0
0 0 0.184782
0.460295 0 0
0.00574692 0.095782 0.31092
0 0 0
0 0.0602275 0.270601
0 0 0
0 0.0209246 0
0.330452 0 0.0918023
0 0 0.43439
0.0634327 0.158997 0.0817224
0 0.0117892 0.344075
0 0 0
0.129697 0.349075 0
0.0743372 0.395326 0
0 0.250718 0
0.355969 0.464073 0
0 0.273383 0.0980635
0.222229 0.223549 0
0 0.254435 0.0408407
0.0341002 0.325505 0
0 0 0.0869707
0.74876 0 0
0 0.0382035 0.094023
0 0.110563 0
0 0.251398 0.0445582
0.0300479 0.321598 0
0 0 0
0.701468 0 0.235505
0 0 0.137763
0.556207 0.156201 0
0 0 0.23379
0 0.114313 0
0 0.248737 0.0480841
0 0.0834218 0
0.0296616 0.353429 0
0.254651 0.46457 0
0.247505 0.119956 0.121916
0 0.160386 0
0.127261 0.348863 0
0.473455 0.224452 0
0 0.417606 0.015357
0.0671645 0.328954 0
0 0.0306041 0.0991379
0 0.0541914 0
0.220885 0.227817 0
0 0.253554 0.0477595
0.0673136 0.328205 0
0 0.0503299 0.0404635
0 0 0
0 0 0
0 0.125686 0.398846
0.219603 0.228849 0
0 0.248218 0.0488428
0.0697488 0.266303 0
0 0.268391 0
0 0 0
0.175415 0.536873 0
0.00345476 0.426827 0
0.196118 0.381869 0.108398
0 0.086075 0
0.129241 0.34999 0
0.417697 0.490807 0
0 0.419567 0.0161091
0 0.326751 0
0 0 0.108329
0.5473 0.0102923 0
0 0.108627 0
0.0741555 0.265972 0
0 0.330155 0
0 0.0432895 0.0321741
0 0.157532 0
0.56931 0 0.15536
0 0 0.0105112
0.189775 0.321755 0.067618
0 0 0.176575
0.0356347 0.177883 0
0 0.26917 0
0.0122124 0.243452 0
0 0.269959 0
0.0893775 0.471721 0
0.042013 0.514264 0
0.0354206 0.443185 0.154757
0 0.0840933 0
0.0308915 0.354603 0
0.420364 0.49836 0
0 0.402464 0.0739193
0 0.237257 0.0776491
0.391957 0.168608 0
0 0.28798 0
0.0715947 0.332217 0
0 0.0507355 0.0410338
0 0 0
0 0 0
0.603495 0.334479 0
0 0.171243 0.485268
0 0.112112 0
0.104744 0.443285 0
0.0355449 0.449304 0.152584
0 0.0836326 0
0.0319005 0.360638 0
0.267073 0.474464 0
0.256875 0.122215 0.12941
0.0172842 0.343044 0
0 0.268443 0
0 0 0
0.176323 0.60526 0.0308403
0.318532 0.499627 0
0 0.237537 0.0934403
0 0.313884 0
0.488206 0.327777 0
0 0.361562 0
0.0352849 0.3305 0
0 0 0
0.426085 0 0.127547
0 0 0.161657
0.195586 0.535928 0.0262777
0 0 0.15403
0.0877333 0.339938 0
0 0.0639413 0
0.0188529 0.347601 0
0 0.271456 0
0 0 0
0.182826 0.547666 0
0.0124089 0.436828 0
0.199555 0.392426 0.111653
0.0194164 0.248735 0
0 0.336712 0
0 0.294952 0
0.319189 0.500258 0
0 0.241267 0.0969523
0 0.256141 0
0.393625 0.180789 0
0 0.26578 0.057431
0 0 0
0 0 0
0 0.127429 0.409794
0.227289 0.230587 0
0 0.256153 0.0507468
0.0789171 0.269532 0
0 0.272606 0
0 0.0391022 0
0 0.461191 0
0 0.50892 0
0.0503562 0.522852 0
0.0377453 0.453635 0.157355
0 0.107179 0
0 0.428845 0.0894732
0.0842766 0 0
0 0.0420098 0
0.322214 0.503754 0
0 0.237132 0.0981871
0 0.319378 0
0 0.0612757 0
0.664038 0.144236 0.231472
0 0 0.42047
0.363576 0.266992 0.0296479
0 0.0362407 0.0355634
0.0799869 0.270599 0
0 0.334444 0
0.015 0.246665 0
0 0.276254 0
0 0.484422 0
0.0596805 0.596855 0
0.0960585 0.184229 0.172932
0.0236464 0.351343 0
0 0.336105 0
0.0913433 0.276575 0
0 0.0445843 0
0 0 0
0.324 0.505881 0
0 0.258886 0.0388461
0 0.408881 0
0 0 0
0.308987 0.141321 0.0877233
0 0 0
0.0953438 0.334611 0.10569
0 0 0.160644
0.501723 0.282811 0
0 0.104803 0
0.0776344 0.270115 0
0 0.275895 0
0 0 0
0.0800799 0.555785 0
0.0235281 0.511958 0
0.263696 0.121523 0.130295
0.0181081 0.349006 0
0 0.127153 0
0.0465671 0.185188 0
0 0 0
0 0 0
0.43184 0.506343 0
0 0.432341 0.022121
0 0 0
0 0 0
0 0 0.533399
0 0.0127164 0.335124
0.231693 0.232169 0
0 0.197026 0
0 0.0395907 0
0 0.467333 0
0 0.515231 0
0.0111283 0.441157 0
0.143411 0.37431 0.171287
0 0.271296 0
0 0.134895 0
0.4289 0.572879 0
0 0.0537134 0
0 0 0
0.253673 0.513529 0.42181
0 0 0.522017
0.507185 0.0887494 0
0 0.106061 0
0.0171925 0.250052 0
0 0.278375 0
0 0.491563 0
0 0.518018 0
0 0.533004 0
0 0 0
0 0.0259975 0
0.101665 0.255203 0.249805
0 0 0
0 0 0.561248
0 0.0910321 0.230135
0.234298 0.233545 0
0 0.260659 0.0531739
0 0.083091 0
0.0365834 0.371571 0
0 0.491248 0
0.0251576 0.517865 0
0.123097 0 0
0 0.032268 0
0 0.275988 0.337464
0.132904 0.148434 0.223554
0 0.0820598 0.431231
0.383164 0 0
0 0.266783 0
0.163439 0 0
0 0.592348 0
0 0 0
0 0.473438 0
0 0.338404 0
0 0.15116 0
0 0.169403 0.0826815
0 0.214357 0
0.115665 0.103428 0
0 0.14701 0
0 0.0391212 0
0 0.0595399 0
0 0 0
0.398602 0.236654 0
0 0.266867 0.0454012
0 0.264027 0
0 0 0.0536587
0 0.344761 0
0 0.288602 0
0.358698 0.29731 0
0.0148673 0.575534 0
0.0569812 0 0
0 0.095456 0
0 0 0
0.243494 0.396361 0
0.185934 0.379231 0.102713
0 0.0857104 0
0.0234986 0.41189 0
0.049448 0.289118 0
0.253756 0.402657 0
0.0521652 0.102714 0
0 0 0
0.244719 0.396086 0
0.105179 0.181818 0.0618872
0 0.0238865 0
0.149592 0.3535 0.0387704
0 0 0
0.135738 0.355603 0
0 0.183175 0
0.081382 0.401434 0
0.104503 0.4398 0
0.032987 0.442667 0.152031
0 0.0894672 0
0 0.133903 0
0.267011 0.472923 0
0.169427 0 0.0886494
0 0.262116 0
0 0 0
0 0 0
0 0.247237 0
0 0.0997025 0
0.105951 0 0
0 0.325166 0
0 0 0
0 0 0.156941
0 0 0.0814325
0 0.0102006 0
0 0 0
0.16995 0 0
0 0 0
0 0.0837477 0.0621899
0 0 0.229027
0 0 0
0 0 0
0.110311 0 0
0.284547 0 0
0 0 0.029555
0 0.0032946 0.0617769
0.197352 0 0
0.169651 0 0
0 0 0.0384092
0.235062 0 0.144147
0 0.0691015 0
0.267626 0.335047 0
0.116929 0 0
0 0.119624 0
0.366201 0.0421431 0
0.0897917 0 0
0.311896 0 0
0 0 0.0981015
0 0.275374 0.0455691
0 0 0.172127
0.224235 0.232732 0
0 0.0648794 0
0.208063 0.152024 0
0.221638 0.143821 0
0.250737 0.0729527 0
0.106339 0 0
0 0.040196 0
0.217694 0.153738 0
0.219716 0.146918 0
0.260837 0.105891 0
0 0 0.0396888
0 0.0128197 0
0.242623 0.147968 0
0.230169 0.144113 0
0.0258632 0 0
0.496143 0.0098099 0
0.109228 0.0285029 0
0.0841784 0.244449 0
0.0595411 0.0976798 0
0.123154 0 0
0 0 0
0.27083 0.14006 0
0.251492 0.142698 0
0.0953305 0.0131663 0
0.451032 0.262651 0
0 0 0.0930552
0.349548 0.416308 0
0.184417 0.145908 0
0.299704 0 0
0 0 0
0.302975 0.130366 0
0.288793 0.136979 0
0.26278 0.148162 0
0.0731238 0.11864 0
0.300983 0 0.108164
0.187951 0.562989 0.1241
0.233329 0.234556 0
0.308023 0 0
0 0 0
0.336854 0.131076 0
0.332856 0.132952 0
0.310077 0.141428 0
0.275486 0 0
0.329688 0.273121 0
0 0 0
0.3444 0.423182 0
0.319981 0 0
0 0.00225835 0
0.364357 0.135041 0
0.376336 0.128946 0
0.364632 0.136178 0
0.127441 0.0395079 0
0.462767 0.365973 0
0.129899 0.579129 0.143062
0.369262 0 0
0 0.0205967 0
0.391045 0.146705 0
0.40829 0.128364 0
0.410882 0.132747 0
0.384774 0.132862 0
0.393488 0.198644 0
0.142852 0.300367 0.0538028
0.474487 0.000187985 0
0 0.0349667 0
0.412642 0.15924 0
0.431821 0.129455 0
0.443506 0.122744 0
0.425521 0.123416 0
0.373652 0.249095 0
0.19053 0 0.0198402
0.363471 0.178848 0
0 0.047669 0.000625664
0.420871 0.167841 0
0.44409 0.143656 0
0.460047 0.122467 0
0.73973 0.0851315 0
0.399471 0.0356718 0
0.418853 0 0
0.331608 0.0915493 0
0 0.0559707 0.00140339
0.420322 0.173827 0
0.448655 0.153108 0
0.462471 0.128156 0
0.455635 0 0
0 0 0
0.861074 0.0978315 0
0.1303 0.19517 0
0.0890749 0.284812 0.234765
0.76303 0.224073 0
0.762534 0.197037 0
0.744406 0.169632 0
0.46914 0 0
0.384276 0.109476 0.0819754
0.186671 0.295979 0
0.258888 0.133146 0
0 0 0
0.234664 0.175764 0
0.265579 0.181352 0
0.274775 0.189147 0
0.444989 0.468256 0
0.366336 0 0
0.908643 0.590841 0
0.152025 0.122879 0
0.0653885 0.268331 0.215283
0.716015 0.207779 0
0.711737 0.182247 0
0.688023 0.169529 0
0.544757 0.102122 0
0 0.179565 0
0.304082 0.292268 0
0 0 0
0.233788 0.17635 0
0.245597 0.180397 0
0.671991 0.0823295 0
0.318288 0.469204 0
0.061201 0 0
0.348509 0.194968 0
0.446991 0.527936 0
0.0504204 0.247548 0.199182
0.668251 0.190614 0
0.645297 0.177101 0
0.25684 0 0
0.13807 0.266835 0
0.221918 0.0239089 0
0.529592 0.223455 0
0.0508871 0.0866711 0
0.491352 0.211461 0
0 0.128275 0
0.318489 0.177141 0
0.192994 0.157457 0.112777
0.512331 0.173862 0
0.0538641 0.0884121 0
0.483058 0.213145 0
0 0.247416 0
0.392399 0.388042 0
0.541711 0 0
0.0577521 0.0854297 0
0.540413 0.138202 0
0.207691 0.275994 0
0 0 0.0929597
0 0 0
0 0 0
0.330728 0.140315 0
0 0 0
0.55354 0 0
0 0 0
0 0 0
0 0 0.0620335
0 0 0
0 0 0
0 0 0
0 0.0400671 0
0 0.0444323 0
0 0.0723037 0
0 0.0634962 0
0 0 0
0 0 0
0 0 0
0 0.0516869 0.10912
0.0100862 0 0
0.0584005 0.127075 0
0.102938 0.0598168 0
0.178343 0.0247827 0
0 0.0686655 0
0.0323296 0 0
0.0548213 0.0884156 0
0 0 0
0 0.00546711 0
0 0.0233553 0
0 0.00673744 0
0.0760623 0.0972937 0.0601971
0 0 0
0 0.00561094 0
0.0666184 0.0561522 0
0.128021 0 0.0603757
0 0 0
0 0 0
0 0 0
0 0 0
0 0 0
0 0 0
0 0 0
0.0246175 0 0.20572
0 0 0
0 0.173308 0
0 0 0
0 0 0
0 0 0
0 0 0
0 0 0
0 0.0760869 0
0.0563519 0 0
0.0665169 0 0
0.0797203 0 0
0.0334566 0.0719817 0
0 0 0
0 0 0.204499
0 0 0
0 0.075461 0
0 0 0
0 0 0
0.0704658 0.0239645 0.252778
0 0 0
0 0 0.148883
0 0 0.178102
0 0 0.17994
0 0 0
0 0 0.243456
0 0.18285 0
0.0479069 0 0
0 0 0
0 0 0
0 0.0108449 0
0 0 0
0 0 0
0 0 0.179735
0 0.0344693 0.0809759
0 0 0.0206322
0.146619 0.00685827 0
0 0 0
0 0 0
0 0 0
0.0747715 0.0578855 0
0 0.0668284 0.0349539
0 0 0
0.0270136 0 0
0 0.0748445 0
0 0.0249414 0
0.0107381 0 0
0 0 0
0.129698 0.231433 0.175547
0 0.0432258 0
0.303585 0.0218746 0
0.0982586 0.127403 0
0 0.0231823 0
0 0 0.0123957
0 0.00971841 0
0 0.028729 0
0 0.0298208 0
0.0871723 0.100625 0.0926767
0 0 0.00742622
0 0 0
0 0.0144359 0
0 0.205593 0
0 0.0641502 0
0.0800737 0 0
0.108588 0.0533122 0
0 0 0
0 0 0.0893757
0.0249087 0 0
0.0081574 0.0127691 0
0 0.0869021 0.0684069
0 0.0699449 0.00787658
0 0.0463274 0
0.0712778 0.0371303 0
0.107875 0.224135 0.160212
0 0.0782321 0.0221191
0 0.052197 0
0.0514673 0 0
0 0 0
0.0486685 0.205093 0
0 0.0102432 0
0.0578103 0.0935416 0
0.0517035 0 0
0.0243693 0 0
0.0283473 0 0
0 0.0787247 0
0 0 0
0 0.126285 0
0 0.0696513 0
0.0548278 0 0
0.0712818 0 0
0 0 0
0 0.108452 0
0 0.0940192 0
0 0.0650398 0
0.0613888 0 0
0.0339285 0 0
0 0 0
0 0.100384 0
0 0.174706 0
0.0180847 0 0
0.0573622 0 0
0 0 0
0 0.109944 0
0 0.112938 0
0.250626 0.0336602 0
0 0.0165744 0
0 0 0
0.0413804 0 0
0.0131387 0 0
0.00486556 0.0605505 0
0.0185399 0 0
0 0 0
0 0.112161 0
0 0.0489144 0
0 0.320736 0
0.0850194 0.220401 0
0.129436 0.0964367 0
0.0940469 0 0
0 0.239021 0
0.189105 0 0
0.0486128 0 0
0.0504678 0 0
0.0516079 0 0
0.144945 0.0751767 0
0 0 0
0 0.10189 0.0548308
0 0 0
0 0 0
0.0316557 0.0191076 0
0 0.071813 0
0 0 0
0 0.188076 0
0.12274 0.108977 0
0.127757 0.108874 0
0.212053 0.10738 0
0.534882 0.153029 0
0.0462379 0.54798 0
0.154434 0 0.437161
0.106224 0 0
0.0384565 0 0
0.0744724 0 0
0 0 0
0 0.0407675 0
0.286901 0 0
0.058953 0.199251 0.0398105
0 0 0
0.105811 0 0
0 0.159984 0
0 0 0
0 0 0
0 0 0
0 0 0
0 0 0
0.314727 0.188261 0
0 0.349215 0
0 0.117986 0
0.231333 0.219359 0
0 0 0.123061
0 0.111402 0.0535357
0.0996954 0 0.00517742
0.129158 0 0.123673
0 0.118156 0
0.0619682 0 0.120678
0 0.106865 0
0 0.144291 0
0.0107294 0.284346 0
0.218703 0.111279 0
0.14051 0 0.284504
0.191231 0 0
0.0255591 0 0.0609508
0.16712 0 0.305468
0 0 0
0.00506291 0 0.161074
0.0785504 0 0
0 0.112683 0
0.16077 0.366013 0
0 0 0.243332
0 0 0.217445
0 0 0.0049985
0.0886559 0 0
0.0926814 0.0255926 0.111184
0.113864 0.139751 0
0 0 0.0969637
0.0147788 0.0107977 0
0.176665 0.35522 0
0 0 0
0 0 0
0.0706935 0 0.0734034
0.104348 0 0
0 0 0
0 0 0.0756966
0 0 0.058026
0.022882 0 0.131
0.0365527 0 0
0.141391 0 0.184806
0.0871273 0.0920001 0.105959
0 0 0.411935
0.0699366 0 0.104816
0.275834 0.0507162 0.189918
0 0 0
0 0 0
0 0 0.0372969
0.0865836 0.099319 0
0.158334 0.144263 0.0419995
0 0.00685996 0
0.133733 0 0
0.0834659 0 0
0 0 0
0 0 0
0 0.175538 0
0.328603 0.115384 0
0 0 0
0.395284 0.423189 0
0.523319 0.174071 0
0.300094 0 0.104457
0.227683 0 0
0 0 0.189908
0 0 0
0 0.250085 0
0.049581 0.229403 0.0753529
0 0.292427 0
0 0.17334 0
0.0915368 0 0.0925351
0 0.0422521 0
0.0290788 0 0.0370518
0 0 0
0 0.0401425 0
0 0 0
0 0.064776 0
0.0451452 0 0.157209
0.0491599 0 0
0 0 0.0305709
0 0 0
0.0459145 0 0
0.0120134 0 0
0 0 0
0.0591168 0 0
0.0587813 0.203566 0.031501
0 0 0
0 0.00924486 0
0.0734485 0.0205178 0
0 0 0
0 0.0606185 0
0.0134358 0 0
0 0.00551818 0
0 0.176401 0
0 0 0
0 0.097522 0.13708
0.118595 0 0
0 0.0397429 0
0 0 0.0744297
0.0214587 0.115153 0.0612151
0 0 0.0367879
0.0831627 0 0
0 0 0
0.174921 0.0345225 0
0 0.159747 0
0.0495384 0.0080245 0.0419832
0 0 0
0 0 0.102567
0 0 0
0.0938436 0.062515 0
0 0.028528 0.0423845
0.124963 0.0132091 0.0100375
0 0 0.00115667
0.0583997 0.00425737 0.0468076
0 0 0
0.00731686 0 0
0 0 0
0 0 0
0 0 0
0 0 0
0.0190329 0.0374827 0
0 0.208219 0.119933
0 0.185669 0.0513896
0 0.0588901 0.105411
0 0 0
0 0 0
0.0434511 0.262776 0.0932762
0 0 0.0235621
0.1104 0 0.000204302
0 0 0.148927
0 0 0
0 0 0
0 0 0.0964474
0 0 0.119105
0 0.147974 0
0 0 0.0679431
0 0 0.151511
0 0 0.13544
0 0 0.119695
0 0 0.190877
0 0 0.14634
0 0 0.154617
0 0 0.0391255
0 0.0441089 0.202796
0 0 0.0999187
0 0 0.108781
0 0 0.117337
0 0 0.124388
0 0 0.132715
0 0 0.140162
0 0 0
