ply
format ascii 1.0
comment Created by Open3D
element vertex 2691
property double x
property double y
property double z
end_header
0 0 0.163392
0 0 0.190281
0 0 0.0539173
0.213215 0 0
0 0 0
0 0 0
0.180258 0.269468 0.196315
0 0 0
0 0 0.207362
0 0 0.138954
0.0221163 0 0.177994
0 0 0
0.253607 0.257721 0.150129
0 0 0.032852
0 0.216149 0.0976735
0 0.0219561 0.185756
0.0373527 0 0.0414123
0.123852 0.249135 0.0989458
0.128559 0.124046 0.169401
0.142664 0.0449323 0
0.199867 0.0795814 0
0.324664 0 0
0.393001 0 0
0 0 0.350816
0.360108 0.117306 0
0 0.348636 0.201266
0.196749 0.0514825 0
0.0123177 0.125456 0
0.015897 0 0
0 0 0
0.0293753 0 0
0 0 0.179663
0.214415 0 0.0100909
0.336383 0.172245 0
0.0621274 0.0497409 0
0 0 0
0.217063 0.220064 0
0.425375 0.0413461 0
0 0 0
0.0533679 0.0890333 0
0.0798286 0.0110472 0
0 0.26903 0.0196066
0.00161174 0 0
0.0478786 0.0786123 0
0.0552373 0.0777252 0
0.10707 0 0
0 0.305007 0.038079
0 0.052577 0
0.169946 0.144418 0
0.0500795 0 0
0.183167 0 0
0.301651 0.274755 0.00649318
0.0174824 0.27183 0
0.131968 0.0535656 0
0.0607844 0 0
0.255275 0 0
0 0.251283 0.098825
0.12937 0.0422455 0
0.161893 0.151989 0
0.0437365 0 0
0.150721 0.0437024 0
0.302257 0.182196 0
0.0555958 0.152006 0
0.1949 0.15755 0
0.0748428 0 0
0 0 0
0 0.337298 0.00188156
0.124576 0.0479868 0
0.163455 0.157026 0
0.162124 0.162327 0
0.0815259 0 0
0 0.62794 0.268485
0.145164 0.0520256 0
0.212115 0.155455 0
0 0 0
0.235439 0 0
0 0.346448 0.00378797
0.127303 0.0507712 0
0.170089 0.16147 0
0.0452389 0 0
0.215345 0 0
0 0.386829 0.0282967
0.159563 0.0438897 0
0 0.0283961 0
0.0987732 0 0
0.240563 0 0
0 0.352028 0.0067395
0.134411 0.0525828 0
0.177943 0.162744 0
0.0507035 0 0
0.23168 0 0
0 0.392081 0.0307275
0 0.0285515 0
0.234327 0.138939 0
0.103231 0 0
0.244604 0 0
0.323904 0.278559 0.00146159
0.0376951 0.267353 0
0.141566 0.0585727 0
0.0591929 0 0
0.251616 0 0
0 0.0342852 0
0.246289 0.136393 0
0.23077 0.137895 0
0.0979102 0 0
0.201737 0.0424523 0
0.129332 0.0530866 0
0 0.366595 0.0147271
0.14916 0.0578866 0
0.0669102 0 0
0 0.0429173 0
0.249088 0.131554 0
0.234374 0.133886 0
0.219807 0.137974 0
0.207064 0.144905 0
0.0733758 0 0
0.22688 0 0
0.334695 0.284977 0.00760744
0.426504 0.192212 0
0.0253926 0 0
0.0797031 0.0824565 0
0.078512 0.0850436 0
0.115546 8.59378e-05 0
0 0.303527 0.0288576
0.0164471 0 0
0.0650701 0.0865388 0
0.0658172 0.0856797 0
0.111331 0 0
0.240623 0.220155 0.0328623
0 0.209051 0
0.0285238 0 0
0.0869349 0.0824078 0
0.526082 0 0
0.4018 0.246346 0
0 0 0
0 0.379871 0.0249951
0.173892 0.0189264 0
0.228806 0.141507 0
0.100755 0 0
0.25991 0 0
0 0.377094 0.0175876
0.150998 0.0395674 0
0.205646 0.159559 0
0.0741577 0 0
0.214667 0.0323886 0
0.159263 0.0397207 0
0.405175 0.302462 0.0220982
0.50244 0.188833 0
0.15085 0 0
0.00121996 0.160364 0
0.275026 0.529199 0
0.272522 0 0
0 0.388201 0.0270673
0.182105 0.0176005 0
0.237563 0.144004 0
0.104814 0 0
0.268685 0 0
0 0.386102 0.0216898
0.16636 0.0384203 0
0.222708 0.162494 0
0.22841 0.15949 0
0.0940542 0 0
0.24689 0.0262594 0
0.132116 0.144392 0
0.281672 0.539305 0
0.13784 0.277841 0
0.26315 0.15564 0
0.0891523 0 0
0.289308 0 0
0 0.393314 0.0269892
0.193938 0.0159955 0
0.249375 0.147217 0
0.108297 0 0
0.278279 0 0
0 0.388502 0.0223015
0.181359 0.0403217 0
0.237188 0.158278 0
0.245441 0.15794 0
0.251503 0.156653 0
0.257408 0.15371 0
0.262677 0.153134 0
0.264778 0.153299 0
0.266802 0.152801 0
0.230259 0.155971 0
0.100767 0 0
0.535704 0.0807981 0
0.108048 0.134117 0
0.259267 0.146689 0
0.25432 0.150381 0
0.11049 0 0
0.288513 0 0
0 0.383138 0.0179493
0.189787 0.039652 0
0.245815 0.153521 0
0.249482 0.153603 0
0.252496 0.152409 0
0.255626 0.152165 0
0.25862 0.150641 0
0.259676 0.151192 0
0.176503 0.0383507 0
0.244138 0.153834 0
0.159925 0 0
0.0381538 0.612556 0.317793
0.0867397 0.268345 0
0.204734 0.0223408 0
0.253618 0.149411 0
0.110699 0 0
0.284367 0 0
0.360977 0.286484 0.00406925
0.0854495 0.257768 0
0.18971 0.0427485 0
0.239262 0.148468 0
0.240091 0.151561 0
0.238572 0.148953 0
0.62008 0.0650255 0
0.390402 0.300878 0.0212858
0.0700845 0.280839 0
0.0537532 0 0
0.265207 0.0237795 0
0.18565 0.0491073 0
0 0.3762 0.0160626
0.195181 0.0238209 0
0.241325 0.146357 0
0.101605 0 0
0.223967 0.0347151 0
0.146504 0.058242 0
0 0.34616 0.00320772
0.174286 0.0502883 0
0.548309 0.0765616 0
0.457655 0.271383 0
0.115839 0.00111208 0
0.218431 0.0233465 0
0.160634 0.0373064 0
0 0.384794 0.0276622
0.199229 0.0197284 0
0.117537 0 0
0.301268 0 0
0 0.365158 0.0120311
0.18376 0.0229486 0
0.224463 0.143954 0
0.212866 0.144502 0
0.0831228 0 0
0.229615 0 0
0.308281 0.2684 0
0.107877 0.027524 0
0 0.150121 0
0.208183 0.480565 0
0.0528742 0.275398 0
0.0303889 0 0
0.278902 0 0
0.400652 0.290701 0.0181283
0.0719645 0.266703 0
0.0587411 0 0
0.286147 0 0
0 0.364336 0.0147977
0.164514 0.0215434 0
0.206016 0.147043 0
0.196199 0.148138 0
0.0805877 0 0
0.187918 0.0473396 0
0.191823 0.437503 0
0.0824019 0.243792 0
0.377789 0.137234 0
0 0.095219 0
0.0946766 0.0806645 0
0.0967646 0.0793735 0
0.0961931 0.0847316 0
0.0900631 0.0837113 0
0.478633 0 0
0.351965 0.23471 0
0 0 0
0 0.0985509 0
0.0697561 0.0845274 0
0.415304 0.0101746 0
0.302686 0.219837 0
0 0 0
0 0.09871 0
0.127884 0 0
0 0 0.0745111
0.134158 0.272971 0
0.259068 0.151028 0
0.690489 0.0484877 0
0.553505 0.307869 0
0.483041 0.175194 0
0.150995 0 0
0.000603661 0.15988 0
0.238591 0.472117 0
0.110533 0.246156 0
0.210205 0.140459 0
0.28551 0 0
0 0.0263493 0
0.197795 0.440857 0
0.447531 0.166696 0
0.251493 0 0
0 0.272424 0
0.26555 0.151943 0
0.269409 0.150234 0
0.350075 0 0
0 0.0107967 0
0.138007 0.149118 0
0.262592 0.500095 0
0.122192 0.256837 0
0.230511 0.142683 0
0.22688 0.142442 0
0.617202 0.0551063 0
0.291222 0 0
0 0.258964 0
0.19347 0.152551 0
0.268761 0 0
0.0107423 0.352664 0.0232274
0.497402 0.173529 0
0.269007 0.149405 0
0.699969 0.0537372 0
0.344523 0 0
0.0130123 0.28301 0
0.256016 0.147326 0
0.246563 0.14665 0
0.242779 0.147714 0
0.239225 0.144397 0
0.238983 0.14223 0
0.328938 0 0
0.0310286 0.341523 0.03386
0.115328 0.249551 0
0.209626 0.154099 0
0.390959 0 0
0 0.139357 0.143532
0.28427 0 0
0.671434 0.0566225 0
0.20878 0.100291 0
0.158999 0.544424 0
0.135994 0.269616 0
0.251628 0.148179 0
0.24528 0.149831 0
0.24384 0.149407 0
0.244164 0.149449 0
0.24809 0.144101 0
0.457121 0 0
0 0.119166 0.16178
0.236004 0.145658 0
0.226081 0.152983 0
0.408721 0 0
0 0.140765 0.150979
0.415475 0 0
0.185471 0.0973397 0
0.147985 0.540448 0
0.125014 0.262236 0
0.249842 0.149152 0
0.493074 0.124492 0
0.332224 0.187047 0
0.374989 0.278184 0
0.563163 0.213806 0
0.611741 0.411718 0
0.284122 0 0
0.266811 0.249651 0.0354458
0.0822529 0.210204 0
0.692953 0.152601 0
0.307142 0 0
0.412338 0.194709 0
0.304437 0 0
0.131597 0.51721 0
0.108381 0.261283 0
0.460994 0.116367 0
0.31918 0.181799 0
0.276854 0.093835 0
0.292542 0.0984196 0
0.0950854 0.195601 0.12781
0.309939 0 0
0.29499 0.133539 0
0.218804 0 0
0.160785 0.155794 0
0.207642 0.162821 0
0.557496 0.502136 0
0.150594 0.123364 0
0.57008 0.222784 0
0.0240135 0.137253 0.136338
0.26011 0.104786 0
0.390196 0.495259 0
0.119128 0.32683 0
0.563878 0.444769 0
0.297685 0.234619 0
0.278559 0.184147 0
0.0953886 0.150802 0
0.0703931 0 0
0.0225847 0.1312 0
0.29219 0 0
0 0.2094 0
0.0857955 0.416823 0
0.259655 0.224944 0
0.76733 0.306083 0
0.466173 0.191785 0
0.321597 0.0971042 0
0.300444 0 0
0 0.518794 0.0879124
0.46628 0.0543514 0
0.513413 0.258504 0
0.0972476 0.146844 0
0 0.230056 0.128261
0.756283 0.443857 0
0.0801063 0.235641 0
0.182953 0.0381063 0
0.224529 0.104651 0
0.0693591 0.181083 0.0855985
0.303782 0 0
0.179682 0.388329 0
0.230597 0 0
0.172416 0.312268 0
0.0845567 0 0.0076954
0.698999 0.305101 0
0.471996 0.212822 0
0.543241 0.217826 0
0.34697 0.295293 0
0.22335 0 0
0.124039 0.135533 0
0.303892 0 0
0.390245 0.424757 0
0.621951 0.437036 0
0.476038 0.291422 0
0.189164 0 0
0.174148 0.408839 0
0.588184 0.424606 0
0.351986 0.211712 0
0.153517 0.398514 0
0.14416 0 0
0 0 0.0844061
0.160827 0 0
0 0 0.09045
0.167405 0 0
0.26446 0 0.0804799
0.0435119 0.0542522 0
0.348718 0.0140223 0
0.039826 0.0453536 0
0.352382 0.00760356 0
0.16151 0.0266732 0
0.0903784 0.0711967 0
0.0697756 0 0
0.14948 0.00548508 0
0.248638 0.0490105 0
0.388359 0 0
0 0.136535 0.151027
0.424992 0 0
0.315333 0.0371962 0.149632
0.312908 0 0
0.0807324 0.00668088 0
0.0392951 0.360882 0.0202483
0.186442 0 0
0.033727 0.365897 0.0167467
0.179743 0 0
0.0340574 0.371958 0.0156235
0.318333 0.0812474 0
0.359421 0.20366 0
0 0.249993 0.0977152
0.365824 0.177234 0
0.223774 0 0
0.281991 0 0
0.416761 0.188096 0
0.312941 0 0
0.0853123 0 0
0.0485098 0.368924 0.0241135
0.316979 0 0
0.294375 0.0461965 0.137157
0.293348 0 0
0.379348 0.188968 0
0.286078 0 0
0 0.272651 0
0.293242 0 0
0 0.217611 0.04213
0 0.0742401 0
0.226052 0.501417 0
0.34975 0 0
0.0261465 0.382225 0.0245958
0.199229 0 0
0.0448952 0.385115 0.0252896
0.330781 0 0
0 0.124945 0.156057
0.432798 0 0
0 0 0
0.0418076 0.366904 0.0136761
0.175654 0 0
0.0365658 0.372284 0.0105576
0.494969 0.172337 0
0.293993 0 0
0 0 0
0.236283 0.00664317 0
0.34938 0.356159 0
0.389056 0 0
0 0.141658 0.15852
0.441205 0 0
0 0.132665 0.16318
0.454026 0 0
0.308106 0.0402947 0.146847
0.317948 0 0
0.182476 0 0
0 0.136163 0.134211
0.389848 0 0
0 0.142036 0.132753
0.280652 0 0
0.24224 0.124124 0
0.11381 0.0505469 0.0525643
0.249485 0.234608 0
0.123718 0.153362 0
0.0228162 0 0.00689834
0.426995 0.19551 0
0.323013 0 0
0.427481 0.192949 0
0.333814 0 0
0.0836055 0.00817974 0
0.422312 0.28752 0.00816212
0.185422 0 0
0.359265 0.187214 0
0.277212 0 0
0.361825 0.187452 0
0.278751 0 0
0 0.0230569 0
0.0773761 0.23636 0
0.574806 0.451805 0
0.0896582 0.237162 0
0.389754 0.504636 0
0.0186664 0.0197172 0
0 0.241816 0
0.342254 0.467304 0
0.0982967 0.293835 0
0.332649 0.458949 0
0.0859526 0.290096 0
0.12572 0.37476 0
0.182407 0 0
0.405113 0.516491 0
0.127411 0.329297 0
0.154557 0.400495 0
0.100822 0.14858 0
0.113662 0.205771 0.20962
0.250663 0.311547 0
0.0325301 0.43532 0
0.0796274 0.144416 0
0.0876585 0.193895 0.173216
0.280202 0.3573 0
0 0.158126 0
0.216207 0.126903 0.073666
0.308844 0.51331 0
0.033802 0 0
0 0.384097 0
0 0.173511 0
0.292709 0.130702 0.116135
0.39854 0.596065 0
0 0 0
0.226148 0.341125 0
0.378015 0.490994 0
0.116707 0 0
0.118348 0.375557 0
0 0.126747 0
0.185361 0.380228 0.078806
0.321102 0.447002 0
0.0253884 0 0
0.122064 0.36003 0
0.0406549 0.468146 0
0 0.421684 0
0.0425543 0.199284 0
0.0349103 0.320563 0
0 0.0585765 0
0.240911 0.130436 0
0.229157 0.131336 0
0.216537 0.134289 0
0.206501 0.138362 0
0.196888 0.148932 0
0.0668707 0 0
0.188002 0.0383218 0
0.0825526 0.137057 0
0 0.275925 0.116149
0.17312 0.0336181 0
0.210887 0.134206 0
0.20275 0.13665 0
0.191741 0.137179 0
0.184759 0.146283 0
0.175818 0.151432 0
0.175863 0.157163 0
0.180324 0.164274 0
0 0 0
0 0.341449 0.00740513
0.144492 0.0387303 0
0.185421 0.142312 0
0.55231 0.0588796 0
0.453396 0.28181 0
0.0181849 0.266072 0
0.13026 0.0400209 0
0.184308 0.163842 0
0 0 0
0.22616 0 0
0.321864 0.26864 0.00339636
0.40314 0.176688 0
0.111647 0.0088976 0
0 0.150191 0
0.346365 0.196301 0
0.0623916 0.138644 0
0.206726 0.156384 0
0 0.0518463 0
0.0720451 0 0
0.182373 0.043791 0
0.0819288 0.140748 0
0.206577 0.470573 0
0.0898296 0.257422 0
0.116937 0 0
0.0478416 0.570547 0.28098
0.0548874 0.275897 0
0 0.0487982 0
0.196463 0.150248 0
0.193281 0.153208 0
0.192504 0.15919 0
0.193729 0.160367 0
0.204241 0.159611 0
0.0812333 0 0
0.234482 0.0270918 0
0.178002 0.0455246 0
0 0.0472215 0
0.208783 0.14996 0
0.204748 0.154146 0
0.203827 0.160494 0
0.205352 0.160991 0
0.214273 0.158301 0
0.227396 0.155425 0
0.241555 0.146992 0
0.114672 0 0
0.0203588 0.1975 0.116773
0.434925 0.179239 0
0.429022 0.180783 0
0.42899 0.186134 0
0.433199 0.189796 0
0.442118 0.187892 0
0.0686435 0.268274 0
0.186643 0.0301113 0
0.243971 0.134653 0
0 0 0
0.119204 0.14497 0
0.114936 0.141761 0
0.109782 0.142999 0
0.103217 0.139285 0
0.102552 0.139475 0
0.148414 0.046022 0
0.363541 0.27511 0.0089407
0.0705333 0.249923 0
0 0.0509009 0
0.229055 0.143227 0
0.221732 0.143397 0
0.216117 0.146981 0
0.206331 0.151027 0
0.201675 0.151132 0
0.0714424 0 0
0.204389 0.0331713 0
0.139128 0.0482565 0
0.0136948 0.195277 0.113875
0.425624 0.168939 0
0.411581 0.167781 0
0.398791 0.170589 0
0.389089 0.174578 0
0.386374 0.177507 0
0.0440702 0.254179 0
0.140843 0.0520937 0
0.060266 0 0
0 0 0
0.116438 0.144573 0
0.109538 0.141883 0
0.101984 0.142942 0
0.0915118 0.140858 0
0.0822661 0.140147 0
0.114288 0.0569908 0
0.32179 0.277369 0.00573339
0.410146 0.188268 0
0 0.271444 0.116839
0.163266 0.0299168 0
0.202182 0.134002 0
0.194726 0.137867 0
0.186062 0.140969 0
0.17908 0.148669 0
0.0569438 0 0
0.170005 0.0438204 0
0.0771419 0.138364 0
0 0 0
0.336992 0.265022 0.00389342
0.41015 0.167049 0
0.408324 0.169758 0
0.403943 0.172166 0
0.402236 0.178398 0
0.398935 0.184355 0
0.0269554 0.272154 0
0.519086 0 0
0 0 0
0.192151 0.0362236 0
0.0906663 0.137712 0
0.0910803 0.136818 0
0.0931262 0.139941 0
0.0928379 0.138618 0
0.0932391 0.139981 0
0.135184 0.051217 0
0.0347209 0.115658 0
0 0.0721173 0
0.180314 0.148982 0
0.185353 0.149422 0
0.190345 0.148057 0
0.197166 0.146569 0
0.202375 0.147905 0
0.207464 0.147561 0
0.482122 0 0
0.617035 0.531242 0
0.126754 0.0394888 0
0 0.380522 0.0242958
0.0296828 0 0
0.234666 0.0256139 0
0.171406 0.0435343 0
0 0.376519 0.0237068
0.0613171 0 0
0.288279 0 0
0 0.361448 0.0146082
0.169672 0.0185839 0
0.20998 0.14219 0
0.199244 0.141869 0
0.193165 0.14289 0
0.185791 0.146077 0
0.37992 0.123485 0
0.177968 0.0487733 0
0.0573141 0 0
0.242824 0 0
0 0.385821 0.0242692
0.173288 0.038084 0
0.0966032 0 0
0.513276 0.0817732 0
0.100215 0.13295 0
0.110616 0 0
0.289165 0 0
0 0.363311 0.0135816
0.172989 0.0218953 0
0.215932 0.139755 0
0.418503 0.118411 0
0.404576 0.122376 0
0.263426 0.257312 0
0.133623 0 0
0 0.364179 0
0.191979 0.166729 0
0.0740664 0 0
0.47109 0.0819834 0
0.0954748 0.147252 0
0.240631 0.151619 0
0.359511 0 0
0 0.437073 0.157515
0.251182 0.138221 0
0.117351 0 0
0.492739 0.0719677 0
0.467589 0.0486565 0
0.476022 0.276095 0
0.201717 0.0721361 0
0.0891093 0 0
0 0.15127 0
0.118565 0.366008 0
0.384523 0.333235 0
0.218142 0.157911 0
0.226813 0.159492 0
0.334681 0 0
0 0.436364 0.142705
0.239299 0.152959 0
0.143402 0 0
0.00859494 0.574045 0.291266
0.0947673 0.244673 0
0.19432 0.0310608 0
0.147941 0 0
0 0.384284 0.0686184
0.0124084 0.153159 0
0.0645422 0.3702 0
0.400699 0.357418 0
0.3465 0.156671 0
0.217006 0.0901769 0
0.184746 0.0261666 0
0.245974 0.150524 0
0.151463 0 0
0 0.62886 0.272169
0.186115 0.0486647 0
0.090625 0 0
0.218539 0.0283794 0
0.309097 0.165888 0
0.0987509 0.139617 0
0.0875644 0 0
0.664797 0.282088 0
0.0111036 0.427488 0
0.347566 0.00935646 0
0.0723804 0.0744944 0
0.190642 0 0
0 0 0.14978
0.26414 0.0750125 0
0.0663079 0.38905 0
0 0.365098 0.0115382
0.202515 0.0192676 0
0.122756 0 0
0.267252 0 0
0.288184 0.254188 0
0.0796998 0.219624 0
0.147899 0.0629905 0
0.0893146 0 0
0 0.496574 0.234465
0.358183 0.159648 0
0.105302 0.0075623 0
0.026238 0.0687403 0
0.110501 0.158119 0
0.196645 0 0
0.0226281 0.331719 0
0.135668 0 0
0.0570481 0.28111 0
0.540644 0.238723 0
0.302097 0 0
0.00935356 0.335765 0
0.185731 0.0184334 0
0.105095 0 0
0.19218 0.0501861 0
0.237929 0.173181 0
0.0581241 0.140265 0
0.289426 0 0
0.332136 0.140651 0
0 0.216573 0
0.131498 0.339728 0
0 0 0
0.112358 0.247406 0
0.212166 0.244962 0
0.395791 0.278025 0
0.263503 0.105307 0
0.117372 0 0
0.283657 0 0
0.319802 0.245047 0
0.056297 0.214174 0
0.126464 0.0328413 0
0.0820821 0 0
0 0.430065 0.164203
0.06196 0.053882 0
0 0.143139 0
0.0618014 0.064368 0
0.252477 0.247272 0
0.329624 0.170778 0
0.346973 0.168259 0
0.163862 0.0781378 0
0.14895 0 0
0.0596218 0.136612 0
0.188082 0 0
0.0656289 0.322784 0
0.175906 0.0148733 0
0.107841 0 0
0.217855 0.0448905 0
0.135076 0.0766293 0
0.279279 0.241428 0
0.232271 0 0
0.295959 0.0949551 0
0.00130161 0.454549 0
0 0.137694 0
0.0111819 0 0
0.112336 0.0568611 0
0.0425187 0.131783 0
0.0499924 0.131846 0
0.0221045 0.338887 0
0.0249751 0.284512 0
0.554659 0.219808 0
0.36279 0.266321 0.0117347
0.0459266 0.246087 0
0.153738 0.00788755 0
0.0931376 0 0
0.191854 0.0554672 0
0.0880656 0.147033 0
0.0760038 0.144371 0
0.0948823 0.0750826 0
0.25172 0.262073 0
0.316571 0.185257 0
0.328577 0.185387 0
0 0.263113 0
0.322345 0.0340988 0
0.390613 0.116173 0
0.482611 0.36261 0
0.197171 0.0613257 0
0.196042 0.0340368 0
0.140624 0.0438554 0
0.375919 0.276009 0.0173091
0.456949 0.166351 0
0.445574 0.164247 0
0.426354 0.166872 0
0.400156 0.16909 0
0 0 0
0.118448 0 0
0.0742616 0.140961 0
0.0674008 0.138721 0
0.102329 0.0523553 0
0.0940899 0.18326 0
0.069537 0 0
0 0.143206 0
0.153473 0.149016 0
0.277756 0.336119 0
0.0320594 0.276927 0
0.435749 0 0
0.527055 0.18267 0
0.373656 0.178348 0
0 0.274028 0
0.0775134 0.0171342 0
0.132191 0.147086 0
0.161502 0.0610271 0
0.323079 0.272463 0
0.0399676 0.250949 0
0.133019 0.0510746 0
0.0578517 0 0
0.324107 0.256686 0
0.413518 0.367271 0
0.576703 0.348474 0
0.199592 0.0690259 0
0.125251 0.0415811 0
0.0303918 0.105631 0
0 0.153061 0
0.122015 0.139029 0
0.182785 0.0395148 0
0 0.375243 0.0217148
0.597362 0 0
0.012657 0.0462078 0
0.183466 0 0
0.151055 0.0620772 0
0.312972 0.270463 0
0.374274 0.179196 0
0.170787 0.0909793 0
0.0737092 0 0
0 0.147927 0
0.346985 0.125695 0
0.112356 0.402453 0
0.338901 0 0
0.574332 0.437651 0
0.346305 0.30758 0
0.0732503 0.274044 0
0.0580392 0 0
0.308437 0 0
0.0701841 0.0939846 0
0.0585422 0.0695702 0
0.358077 0.268181 0.00021356
0 0 0
0.161311 0 0
0.0962103 0.141615 0
0.359982 0.293803 0
0.426448 0.50649 0
0.262354 0.0863925 0
0.154801 0 0
0.06891 0.129942 0
0 0.15358 0
0.10263 0.141639 0
0.108097 0.142445 0
0.158096 0.0446572 0
0.378455 0.286379 0.0102537
0 0 0
0.334642 0.267937 0
0 0 0
0.236265 0.0312789 0
0.155483 0.0602771 0
0.327333 0.264359 0
0.385983 0.168106 0
0.110645 0.0220853 0
0.181026 0.132513 0
0.0928204 0.39141 0
0.263475 0.346223 0
0.325086 0.293027 0
0.059622 0.26744 0
0.171566 0.0451983 0
0.0876984 0 0
0.22584 0.031296 0
0.15205 0.0495603 0
0.362806 0.27352 0.00791559
0.0663349 0.250501 0
0.170765 0.0210282 0
0.0977488 0 0
0.215005 0.0404546 0
0.106266 0.143832 0
0.544127 0.35804 0
0.132095 0.285694 0
0.144276 0 0
0.0597939 0.132878 0
0.143436 0 0
0.308791 0.122643 0
0.194224 0 0
0 0.437258 0.0359806
0.0675855 0.309963 0
0.411003 0.189281 0
0.284239 0.241419 0
0.291695 0.315575 0
0.322217 0 0
0 0 0.224491
0.287579 0.127163 0
0.137684 0.217056 0
0.393892 0.426546 0
0.150016 0.388278 0
0.575178 0.279371 0
0.346537 0.0108296 0
0 0.232598 0.0964323
0.409022 0.419668 0
0.27858 0.298189 0
0.325637 0.0180935 0
0.226241 0.195939 0.194328
0.350922 0.39772 0
0.15114 0.0686 0
0.0563243 0.480695 0.201002
0.24404 0.398459 0
0.440868 0.12735 0
0.173538 0.0391888 0
0.209999 0.0938822 0
0.0621989 0.171223 0.0825264
0.29815 0 0
0.177149 0.390645 0
0.138415 0 0
0.290515 0.314632 0
0.624768 0.380045 0
0.393599 0.0937919 0
0.308858 0.0869244 0
0.121521 0.201125 0.125654
0.296234 0 0
0.369618 0.421896 0
0.595983 0.435428 0
0.456813 0.272254 0
0.179021 0 0
0.00151422 0.469886 0
0.369895 0.396111 0
0.116288 0 0
0.165465 0.470635 0.0994932
0.424323 0.592795 0
0.329869 0.172483 0
0.184268 0.105043 0
0.170414 0 0
0.080449 0.401248 0.0861438
0.116576 0.345731 0
0.298267 0.315163 0
0.453686 0.261881 0
0.362551 0.086476 0
0.324383 0.156074 0.180073
0.261509 0 0
0.170383 0.471743 0
0.239921 0.470859 0
0.536456 0.266981 0
0.315551 0.007005 0
0.058539 0.249794 0.193607
0.166759 0.383359 0
0.29587 0.380001 0
0.0785244 0.227142 0.262581
0.131126 0 0
0.125891 0.378796 0
0.272583 0.313613 0
0.10327 0.185518 0.190822
0.13258 0.295907 0
0.211248 0.105445 0
0.0607568 0.183305 0.0662135
0.169642 0 0
0.211877 0.327065 0
0.0894264 0.320657 0
0.102037 0.0176839 0
0 0.122188 0
0.239159 0.0412165 0
0.102019 0 0
0.271865 0.0421873 0
0.248616 0.432186 0
0 0.2608 0
0.302925 0.144488 0
0.030457 0.122039 0
0.42705 0.0270589 0
0.379228 0 0.0181622
0.340333 0.0455932 0
0 0.406277 0
0.30384 0.220247 0
0 0 0.210437
0.437557 0.0506054 0
0.0783076 0.34943 0
0 0.0997154 0
0 0 0
0.519822 0.0463534 0
0.188271 0.200356 0
0.138708 0.431966 0
0.311807 0 0
0 0.0727508 0.0154018
0.0650959 0.2857 0
0.307032 0.16358 0
0.13037 0 0
0 0.198084 0
0.18847 0 0
0.0195768 0.130725 0.0145722
0.0532991 0.0570717 0.023348
0.367393 0.242258 0
0.2823 0.244898 0
0.328969 0 0
0 0.20106 0.129496
0.288573 0 0
0.16506 0.361527 0
0.0202118 0 0
0.26376 0.0956093 0
0.374577 0.0198181 0
0 0.204134 0
0.289 0 0
0.165613 0.115456 0.0697559
0.39444 0.233237 0
0.135923 0 0
0 0.309661 0.0120381
0.118201 0 0
0.333662 0.00493898 0
0.39204 0 0
0.0600842 0 0.215441
0.296654 0 0
0.163783 0.352206 0.0721786
0.2795 0.167595 0
0.0971178 0.0975485 0
0.128388 0 0
0 0.127061 0.190164
0.0561433 0.0816324 0.00732373
0.329323 0.234142 0
0.235595 0.234008 0
0.160159 0 0
0 0.353428 0
0.145999 0 0
0.121204 0.112314 0.0688864
0.318433 0.296758 0
0.340018 0.230538 0
0.264482 0 0
0 0.118186 0.250923
0.149339 0 0.0396302
0.420752 0.236441 0
0.230458 0 0
0 0.19227 0
0.253655 0 0
0.265218 0.100416 0.112553
0.147096 0 0.0418566
0.334062 0.232239 0
0.236143 0 0
0 0.0127806 0.106674
0.510506 0.0164426 0
0 0.0172558 0.130314
0.199832 0.133829 0
0.0478269 0.195179 0.0916246
0.220257 0 0
0.127657 0.311803 0
0.100661 0 0
0.192461 0.258933 0
0.213605 0.224003 0
0.260949 0 0
0 0.170384 0.126557
0.235946 0.0121444 0
0.112729 0.326424 0
0.0561338 0 0
0.35597 0.182666 0
0.145146 0 0
0 0 0
0.17901 0.0369062 0
0.0975641 0.35087 0
0.174791 0 0
0 0.122715 0.0132711
0.479504 0.175386 0
0.224843 0 0
0 0 0.221455
0.0967353 0.0917353 0.0103808
0.230203 0.159399 0
0.462129 0 0
0 0.0176763 0.123895
0.348612 0 0
0.272946 0.28111 0.0266932
0.200346 0 0
0 0 0.278411
0.0820991 0.288425 0
0.341734 0.163456 0
0.184502 0.206612 0
0.258487 0 0
0 0.159442 0.14133
0.162481 0 0
0.197864 0.310865 0.00440932
0.267296 0.237367 0
0.278689 0.230011 0
0.0946854 0 0
0 0.279352 0.00826686
0.139745 0 0
0.429432 0 0.0557229
0.156085 0 0.0207964
0.460942 0.380473 0.0763352
0.41126 0.0621804 0
0.136716 0 0
0.107123 0.339744 0.224475
0.34375 0.178734 0
0.173775 0 0
0 0.130335 0.225255
0.620747 0.133425 0
0.232477 0 0
0 0.173362 0.111273
0.32765 0.172666 0
0.0713197 0.157172 0
0.213976 0 0
0 0.155052 0.166095
0.177024 0 0
0.213204 0.309861 0.00863658
0.230686 0.22582 0
0.102077 0.0268834 0
0 0.128313 0
0.299416 0 0
0.0353035 0.157896 0
0.279142 0.01506 0
0.363336 0.317836 0.0526449
0.0268334 0 0
0.09193 0.150927 0
0.301918 0.16009 0
0.00123754 0.124278 0
0.352363 0 0
0.170453 0.154532 0.0161195
0.119301 0.39121 0
0.341764 0 0
0 0.173254 0.184154
0.268268 0 0
0.426069 0.428886 0.115153
0.301021 0 0
0.145068 0.28233 0.127049
0.176859 0 0
0.0790415 0.139841 0
0.273564 0 0
0.371729 0.310088 0
0.132256 0 0
0.118599 0.319097 0
0.28104 0.297506 0
0.297122 0 0
0 0.155024 0.174621
0.270538 0.0253425 0
0.352879 0.315315 0.0526257
0.0202854 0 0
0.282996 0.246228 0
0.144497 0.229352 0
0.300008 0.0852058 0
0 0.358491 0
0.363729 0 0
0.0609849 0.0907969 0.0679578
0.178291 0 0.0150236
0.438614 0.237857 0
0.236175 0 0
0 0.157245 0
0.199526 0 0
0 0.121185 0.016792
0.443792 0.240448 0
0.280171 0 0
0.0963107 0.0793751 0.291258
0.0527636 0.193287 0
0.119833 0.31517 0
0.127371 0.210628 0
0.383737 0.0925725 0
0.166697 0 0.286642
0.433998 0.158004 0
0.236826 0.432523 0.00172447
0.126897 0 0
0.150267 0.40694 0
0.140917 0.231829 0
0.234258 0.150146 0
0 0.126036 0
0.430719 0 0
0.062754 0.167802 0
0.31769 0 0
0.412012 0.336663 0.0517898
0.0383618 0 0
0.344827 0.249727 0
0.427174 0.259787 0
0.292149 0 0
0 0.0984358 0.29599
0.182498 0 0.0161886
0.651708 0.333209 0.0219411
0.260633 0.0361515 0
0.155925 0 0
0 0.0966962 0.240548
0.212251 0 0
0 0.187636 0
0.176733 0 0
0.0860738 0.132115 0
0.312001 0 0
0.413817 0.329348 0
0.151439 0 0
0 0.241185 0
0.136874 0.0800811 0
0.0048988 0.129369 0
0.329451 0.245884 0
0.162053 0.13175 0
0.424599 0 0
0.0615808 0.170032 0
0.305409 0.00402169 0
0.394699 0.336034 0.0505856
0.0293382 0 0
0.328238 0.255683 0
0.181079 0.237237 0
0.288471 0.146697 0
0.0212473 0.126721 0
0.474412 0 0
0.0956731 0.176365 0
0.25561 0 0
0.30225 0.354841 0
0.342005 0.234277 0
0.356904 0 0
0 0.174773 0.178382
0.279103 0 0
0.28259 0.276719 0.01547
0.285664 0 0
0.0315929 0 0.306698
0.140659 0.403216 0
0.280182 0.151674 0
0.505646 0.187483 0
0.245821 0.394628 0.17725
0.319989 0 0
0.257071 0.329757 0
0.115902 0 0
0.479184 0.314984 0
0.0295126 0 0
0.356848 0.333936 0
0.168269 0.238723 0
0.272765 0.150727 0
0.0140423 0.126553 0
0.312231 0.0343534 0
0.133509 0.381095 0
0.293991 0 0
0.0797305 0.103358 0.054814
0.130499 0.0859084 0.00936483
0.51026 0.253102 0
0.356476 0.237474 0
0.371697 0 0
0 0.176939 0.182015
0.237777 0 0
0.27975 0.345868 0
0.507304 0.121436 0
0.224234 0 0
0 0.250132 0.0352038
0.246899 0.0178496 0
0.22759 0.129836 0
0.225059 0 0
0.291721 0.359694 0
0 0.249214 0
0.0999187 0.061068 0
0.0133713 0.128959 0
0.183709 0.165683 0
0.17968 0.133761 0
0.511304 0.196687 0
0.127113 0 0
0.497423 0.156162 0
0.193163 0.448514 0
0.238198 0 0
0.189877 0.311148 0
0.121259 0 0
0.402412 0.205621 0
0.0398517 0 0
0.510955 0.193237 0
0.356376 0.240616 0
0.382364 0 0
0 0.179815 0.187777
0.246123 0 0
0.287394 0.349411 0
0.326253 0.235245 0
0.272804 0 0
0.0110571 0.162458 0.225443
0.312828 0.278293 0
0.500144 0.412215 0
0.400059 0.227726 0
0.31874 0 0
0.261596 0.34644 0
0.249037 0 0
0.277047 0.339089 0
0.126996 0 0
0.510351 0.320234 0
0.0398337 0 0
0.383177 0.339185 0
0.413362 0.344436 0
0.354327 0.330111 0
0.360415 0.329097 0
0.478712 0.258923 0
0.423788 0.0449827 0
0.259698 0.418545 0.180042
0.16607 0 0
0.154304 0.351276 0
0.370497 0.315756 0
0.360981 0 0
0.132219 0.144428 0.269637
0.285775 0 0
0.0930416 0.393304 0
0.326525 0 0
0.00754 0.160222 0.236614
0.207692 0.176515 0
0.145839 0.494533 0
0 0.3225 0
0.108514 0.0560879 0
0.0207638 0.132352 0
0.197847 0.160712 0
0.192045 0.131097 0
0.541855 0.19539 0
0.140995 0 0
0.465635 0.222158 0
0.265652 0.202442 0
0.279743 0.0172639 0
0.269801 0.138353 0
0.281836 0.0165485 0
0.271055 0.139258 0
0.249451 0 0
0.318731 0.375715 0
0 0.260248 0
0.442399 0.0918096 0
0 0 0.216208
0.49959 0.151506 0
0.42225 0.41094 0
0.154948 0 0
0 0.250045 0
0.530645 0.044119 0
0.135009 0.146512 0.280635
0.148309 0 0
0.24479 0.342807 0
0.245683 0.231734 0
0.202082 0.483593 0
0.272655 0.501216 0
0 0.291604 0
0.0504529 0.269906 0
0.210727 0.390551 0.0955672
0.266009 0.388924 0
0 0.269452 0
0.18091 0.288569 0
0 0.242612 0.220477
0.223377 0.358209 0
0.0289173 0.578498 0
0.0730628 0.187913 0
0.0922699 0 0
0.126221 0.397346 0
0.172296 0.151966 0
0 0.266159 0.278008
0.403988 0.485863 0
0 0.10632 0
0.0636122 0.463339 0.151227
0.32829 0.495631 0
0.140508 0.357759 0
0 0.117235 0
0 0.329331 0
0.323431 0.369494 0
0 0.20112 0.14863
0 0 0
0.433427 0.60507 0
0.1008 0.0790731 0
0.0257627 0.256724 0
0 0.359776 0
0.403008 0.409407 0
0.268971 0.178054 0.271916
0.147618 0 0
0.130122 0.288634 0
0.0564779 0.355281 0
0.299694 0.140123 0.129882
0.395042 0.56502 0
0 0 0
0 0.273354 0
0.0921097 0.280765 0
0 0.40395 0.011773
0.147488 0.498163 0
0.508058 0 0
0.259001 0.0306844 0
0 0.00649965 0.143836
0.122359 0.27624 0
0.443048 0 0
0 0 0.245406
0.25497 0.292795 0
0 0.356864 0
0.286389 0.23808 0
0 0.483078 0.117308
0.223465 0.347969 0
0.342925 0 0
0.218127 0.205597 0.507241
0.484928 0.00698391 0
0.241904 0 0
0 0.442545 0.248322
0.48776 0 0
0 0.155607 0.206042
0.143844 0 0
0 0 0.177707
0.505574 0.449685 0
0.626558 0.0112954 0
0.397843 0 0
0.253715 0.371344 0
0.337614 0 0
0 0 0
0.183836 0.179825 0
0 0.204434 0
0.418061 0 0
0.235188 0.000928447 0.148165
0.343765 0 0
0 0 0.402955
0.351828 0.147135 0
0.386304 0.245933 0
0.264595 0 0
0.0213796 0.019965 0.383713
0.341914 0 0
0.0630514 0 0.375805
0.199693 0 0.0553835
0.42671 0.247318 0
0.380547 0 0
0 0.227225 0.441117
0.674635 0 0
0.379136 0 0
0 0.0153331 0.132031
0.288108 0 0
0.308468 0.294129 0.0318923
0.23393 0 0
0 0 0.0900509
0.576418 0.00224669 0
0 0 0.157575
0.449092 0 0
0.301351 0.522422 0.0496619
0.509931 0.0160014 0
0.1449 0 0
0 0 0.192745
0.529007 0.187503 0
0.227293 0 0
0 0 0.334676
0.238959 0 0
0 0 0.220516
0.707266 0.337839 0
0.528185 0 0
0.14345 0 0
0.174094 0.201074 0.438115
0.250944 0.0921463 0
0.159398 0 0
0.0191418 0.0258364 0.363931
0.293988 0 0
0 0.0348221 0.349465
0.464122 0.0920718 0
0.231167 0 0
0.113261 0.100016 0.0209065
0.368553 0 0
0.0453378 0 0.215767
0.0564262 0 0
0.305046 0.288131 0
0.36466 0 0
0.0835382 0.487362 0.283198
0.510403 0 0
0 0 0
0.469908 0.179893 0
0.280755 0 0
0 0.255804 0.0305434
0.41567 0 0
0 0.00955189 0.100072
0.429756 0.426745 0
0.480935 0 0
0.394468 0 0
0 0 0.183816
0.166006 0.340109 0
0.248749 0 0
0 0.208222 0.377591
0.426418 0.0920069 0
0.278462 0 0
0.0688562 0.338019 0.15857
0.374838 0 0
0 0 0.149539
0.0541046 0 0
0.394888 0.421379 0
0.533582 0 0
0.322438 0.282646 0
0 0 0
0.0398975 0.32648 0.0606424
0.589238 0.359513 0
0.374425 0 0
0 0.458921 0.0575047
0.347715 0.286927 0
0.0186046 0.199856 0.102052
0.394199 0.184764 0
0.407316 0.185858 0
0.423517 0.185846 0
0.436334 0.185167 0
0.44883 0.184164 0
0.455022 0.182836 0
0.134711 0 0
0.00238103 0.157497 0
0 0 0
0.0812834 0.14251 0
0.0842813 0.141008 0
0.0879859 0.141229 0
0.095284 0.140881 0
0.104018 0.141193 0
0.518633 0.0505484 0
0.138825 0.741458 0
0.0703351 0.134606 0
0 0.047199 0
0.195582 0.156872 0
0.198118 0.16016 0
0.202704 0.162334 0
0.607246 0.0735952 0
0.504931 0.307397 0
0.132092 0 0
0.0481092 0.0600196 0
0.3743 0.282094 0.00780541
0 0.0428888 0
0.212667 0.152571 0
0.617137 0.0683242 0
0.499942 0.312038 0
0.126717 0.0080904 0
0 0.156105 0
0.256297 0.510571 0
0 0 0
0.247781 0.0299586 0
0 0.0477298 0
0.644527 0.0548159 0
0.196401 0.120515 0
0 0.158564 0
0.251453 0.503124 0
0.118459 0.26571 0
0.235977 0.151748 0
0.238584 0.148128 0
0.238341 0.1405 0
0.152194 0 0
0.195189 0.103802 0
0.137561 0.518405 0
0.123631 0.261638 0
0.239282 0.148899 0
0.241057 0.14913 0
0.241766 0.146497 0
0.239186 0.144588 0
0.232399 0.139329 0
0 0.0242757 0
0.134141 0.522474 0
0.535302 0.169469 0
0.122805 0.391195 0
0.191477 0.0187486 0
0.634022 0.0580397 0
0.133399 0.371358 0
0.186414 0.0246148 0
0.224848 0.138809 0
0.265957 0.249498 0
0.383335 0.396795 0
0.133875 0 0
0.0461988 0.0506365 0
0.387157 0.285742 0.012209
0.151659 0 0
0.0596008 0.0745369 0
0.340045 0.264301 0
0.0724101 0.232697 0
0 0.0472829 0
0 0.142408 0
0.237066 0.507965 0
0 0 0
0.24802 0.0237969 0
0.266842 0.491473 0
0.00527735 0 0
0.237565 0.0385683 0
0.148253 0.0707242 0
0 0.3113 0
0.0721511 0.257392 0
0.196111 0.154606 0
0.21585 0.145346 0
0.232343 0.135529 0
0.239577 0.130439 0
0.235977 0.126495 0
0.223089 0.12518 0
0.0945265 0 0
0 0.0952852 0
0.161165 0.161883 0
0.182464 0.158029 0
0.200678 0.149716 0
0.215789 0.137349 0
0.224849 0.131303 0
0.221546 0.129836 0
0.211363 0.127669 0
0.199076 0.132292 0
0 0.0852594 0
0.159458 0.158996 0
0.17476 0.155873 0
0.187516 0.149577 0
0.198526 0.140656 0
0.20437 0.133855 0
0.202564 0.130758 0
0.197886 0.131136 0
0.548242 0.0591846 0
0.0839195 0.0113807 0
0.371336 0.267696 0
0.339687 0.175604 0
0.348752 0.172651 0
0.361332 0.168441 0
0.372469 0.165117 0
0.384547 0.163914 0
0.390591 0.166235 0
0 0.0294803 0
0 0.0479188 0
0 0.148197 0
0.183658 0.0950201 0
0.210867 0.220029 0
0.148993 0.074371 0
0.152955 0.0716899 0
0.161269 0.0711192 0
0.170873 0.0681928 0
0.220946 0.313934 0
0.0404916 0.336681 0
0.149041 0.155953 0
0.164859 0.0193952 0
0.120798 0.145053 0
0.158748 0.0572936 0
0.341245 0.280059 0
0.0651425 0.254793 0
0.163367 0.0458021 0
0.0779852 0 0
0.207091 0.0316346 0
0.140884 0.0491417 0
0.354295 0.271971 0.00934779
0.43236 0.168625 0
0.426269 0.165488 0
0.412737 0.164207 0
0.123674 0.0100782 0
0.282856 0.298584 0
0.266174 0.424421 0
0.360961 0.230329 0
0.236557 0.140697 0
0.106547 0 0
0.226108 0.040406 0
0.146457 0.0609606 0
0.324494 0.271537 0
0.0510691 0.25488 0
0.147097 0.0486685 0
0.0690613 0 0
0.203022 0.0324888 0
0.106489 0.137601 0
0.114179 0.141009 0
0.117327 0.141448 0
0.572953 0.36813 0
0.0684301 0.217082 0
0 0.148883 0
0.234137 0.350072 0
0.449377 0.16883 0
0.0779119 0.243417 0
0.176639 0.0274693 0
0.0940899 0 0
0.199013 0.0411515 0
0.12396 0.0537989 0
0 0.348091 0.0117702
0.142959 0.0517843 0
0.561352 0.0689413 0
0.46836 0.279923 0
0.426626 0.169019 0
0.419239 0.163112 0
0 0.0248846 0
0.352213 0.59012 0
0.283772 0.270063 0
0.177732 0.0892415 0
0.132592 0.144861 0
0.349885 0.186311 0
0.0970311 0.127346 0
0.206974 0.137909 0
0.190757 0.142474 0
0.0644036 0 0
0.212369 0 0
0.315916 0.271919 0.00469408
0.103336 0.011807 0
0 0.148496 0
0.105021 0.139388 0
0.45916 0.0648237 0
0.19315 0.426079 0
0.10666 0.129929 0
0.157915 0.169514 0
0.0661181 0.326555 0
0.236027 0.134167 0
0.143113 0 0
0 0.589561 0.256956
0.153151 0.0376284 0
0.180246 0.140837 0
0.170727 0.145248 0
0.0505275 0 0
0.166882 0.0398769 0
0.201231 0.463622 0
0.443076 0.167638 0
0.451496 0.276943 0
0.123327 0.00671872 0
0.460702 0.383088 0
0.139689 0.281517 0
0.158898 0 0
0.071432 0.136832 0
0.207194 0 0
0.261382 0.351643 0
0.22326 0.133135 0
0.0967994 0 0
0.236726 0 0
0.299906 0.250455 0
0.362851 0.167034 0
0.36306 0.171025 0
0.0208405 0.255081 0
0.473343 0 0
0.430304 0.28513 0
0.106798 0.0161611 0
0 0.153297 0
0.575022 0.374472 0
0.0677597 0.214861 0
0.296551 0.294867 0
0.282881 0.428693 0
0.37318 0.222768 0
0.210206 0.133113 0
0.196018 0.134025 0
0.071096 0 0
0.168685 0.0457335 0
0.0664088 0.135517 0
0.0636138 0.135394 0
0.100382 0.0519705 0
0.0275168 0.112582 0
0 0.149866 0
0.205425 0.459564 0
0.467239 0.164039 0
0.167683 0.123111 0
0.47816 0.387402 0
0.067951 0.216715 0
0 0.15385 0
0.0368772 0.367892 0
0.15198 0.0343245 0
0.180296 0.136376 0
0.165336 0.139178 0
0.155765 0.144865 0
0.150433 0.147873 0
0.154452 0.150853 0
0.0481567 0 0
0.686767 0.274949 0
0.3672 0.398917 0
0.421399 0.185174 0
0.117647 0.00714128 0
0.489994 0.397352 0
0.0668553 0.219103 0
0.262317 0.418055 0
0.284792 0.349986 0
0.301223 0.0679876 0
0.30734 0.253704 0
0.370603 0.166603 0
0.368568 0.171874 0
0.376784 0.180658 0
0.387148 0.186853 0
0.403945 0.188908 0
0.420771 0.189899 0
0.112779 0.00726742 0
0 0.154086 0
0.498812 0.0589225 0
0.506456 0.629277 0
0.0177238 0.109473 0
0.269677 0.433326 0
0.20436 0.279636 0
0.186584 0.0455517 0
0.0766048 0.141127 0
0.067091 0.13706 0
0.0651395 0.134818 0
0.0695976 0.134258 0
0.0822365 0.137465 0
0.095508 0.138042 0
0.645806 0.404957 0
0.394336 0.412682 0
0.135781 0 0
0.0158461 0.158842 0
0.386833 0.425825 0
0.205349 0.278464 0
0.183294 0.139965 0
0.17333 0.149964 0
0.16954 0.155457 0
0.17529 0.160879 0
0.584029 0.0728551 0
0.492102 0.308072 0
0.451454 0.189056 0
0.129889 0 0
0.0136163 0.156723 0
0.409778 0.435225 0
0.299663 0.353701 0
0.237109 0 0
0.0802589 0.356535 0
0.506757 0 0
0.453051 0.298057 0
0.417218 0.193623 0
0.108845 0.00839133 0
0 0.151586 0
0.119073 0.140565 0
0.412706 0.447603 0
0.311033 0.359895 0
0.253878 0 0
0.206226 0.162942 0
0 0 0
0.0904563 0.0690487 0
0.202471 0.0559424 0
0.341401 0.41232 0
0.213678 0.179004 0
0.32844 0.0649499 0
0.247325 0 0
0.235465 0 0
0.0694807 0.127637 0
0.249601 0.018865 0
0.23974 0.126704 0
0.324241 0 0
0.437688 0.35803 0
0.254771 0 0
0.285424 0.344529 0
0.12994 0 0
0.531993 0.322857 0
0.0448403 0 0
0.405712 0.341964 0
0.435812 0.345636 0
0.374151 0.332455 0
0.373482 0.331936 0
0.487632 0.26005 0
0.431077 0.0494454 0
0.267205 0.422216 0.191042
0.167488 0 0
0.155926 0.355316 0
0.347109 0.179443 0
0.523296 0.197462 0
0.255931 0.412298 0.186705
0.0185983 0 0
0.0767793 0.196881 0
0.496436 0.138098 0
0 0.460849 0.0577515
0.0890068 0.33805 0
0.327137 0.321337 0
0.119149 0.215981 0
0.102825 0.0521687 0
0.0208326 0.130523 0
0.361867 0.0972688 0
0.143523 0 0
0.601589 0.37411 0
0.516184 0.173909 0
0.391812 0.0104009 0
0.364774 0.172795 0
0.29512 0.00989953 0
0.16145 0.289011 0
0.293172 0.0124217 0
0.560346 0.199445 0
0.261125 0 0
0.177054 0.443357 0
0.162463 0.290428 0
0.492995 0.265511 0
0.0912044 0.204618 0.129226
0.342091 0 0
0.316705 0.374045 0
0 0.258932 0
0.406945 0 0
0 0.191363 0.161433
0.434758 0.43033 0
0.150043 0 0
0.147256 0.15571 0.0025828
0.244204 0.0242699 0
0.350406 0.234094 0
0.314385 0 0
0.30771 0.493875 0
0.247755 0 0
0.314625 0.426659 0
0.0366275 0 0
0.399708 0.339721 0
0.20045 0.239776 0
0.11269 0.0521415 0
0.0231661 0.130194 0
0.454453 0.271529 0
0.119479 0.0526033 0
0.41487 0.277268 0
0.519311 0.269243 0
0.100156 0.208205 0.136492
0.362557 0 0
0.336083 0.381638 0
0.192811 0.367804 0
0.325205 0.32034 0
0.385725 0 0
0 0.175856 0.208359
0.0788821 0 0
0.413906 0.426952 0
0.486326 0.205291 0
0.0616107 0.260292 0
0 0.184197 0.112563
0.257038 0.0835599 0
0.22669 0.12884 0
0.274575 0.0785022 0
0.468245 0.104906 0
0.293215 0.0765459 0
0.341534 0.163936 0
0.497879 0.171195 0
0.386913 0.246934 0
0.44689 0 0
0.34083 0.519998 0
0.265154 0 0
0.338505 0.442653 0
0.0824308 0.0203828 0
0.622292 0.0669662 0
0.139733 0.0366695 0
0.439386 0.431312 0
0.244771 0.468162 0
0.509399 0.261917 0
0.392784 0.113822 0
0.097904 0.206605 0.134731
0.347593 0 0
0.221392 0.393653 0
0.170866 0 0
0.0801692 0.332742 0
0.577278 0.18428 0
0.140213 0.345583 0
0.307166 0.318008 0
0.254433 0.164626 0
0.27966 0.167313 0
0.0764496 0.190717 0.110587
0.133814 0.138597 0
0.313589 0.344253 0
0.104992 0 0
0.201296 0.0679147 0
0.373752 0.0974583 0
0.149097 0 0
0.260242 0.352526 0
0.34526 0.427599 0
0.494343 0 0
0.165272 0 0
0.508256 0.225421 0
0.294249 0.210325 0
0.271229 0 0
0.101195 0.420723 0
0.117654 0.340798 0
0.429391 0.149775 0
0.658531 0.426178 0
0.408938 0 0
0.23741 0 0
0.0662672 0.131764 0
0.239038 0.0315309 0
0.226777 0.132927 0
0.221161 0 0
0.0543041 0.399621 0
0.0760134 0.333832 0
0.362693 0.199354 0
0 0 0.23897
0.352427 0.197617 0
0.0411073 0 0
0.293262 0.228683 0
0.474771 0.214492 0
0 0 0.232228
0.246608 0.212205 0
0.34691 0.23102 0
0.472356 0.313148 0
0.50988 0.0885006 0
0.355922 0.189589 0
0.171629 0.246367 0
0.399766 0.319583 0
0.509046 0.225596 0
0.406211 0.0795036 0
0 0.0379525 0
0.0575212 0.0148447 0
0.464803 0.321416 0
0.143765 0.0502093 0
0.375445 0.315704 0
0.521254 0.086871 0
0.456836 0.271077 0
0.267449 0 0
0.218561 0 0
0.159738 0.0689854 0
0.350461 0.0658899 0
0.357132 0.0628913 0
0.361206 0.058714 0
0.270272 0 0
0.4351 0.365669 0
0.476296 0 0
0.418732 0.190722 0
0 0.0454941 0
0.0801659 0.143685 0
0.0268242 0.0101574 0
0 0 0
0 0 0
0.00985353 0.0433307 0
0 0 0
0 0.00324184 0
0 0.0148483 0
0 0.0163459 0.186543
0 0 0
0 0.0611388 0
0 0.090472 0
0 0 0
0.045831 0.0462077 0
0 0 0
0.094195 0.151356 0
0.0105396 0 0
0 0 0
0 0 0.106666
0 0 0
0 0.0631846 0
0 0.18775 0
0 0 0
0 0.056917 0.125537
0 0 0
0.000107964 0.139361 0
0 0.103001 0
0 0 0
0 0.00936578 0.0150471
0 0.071408 0
0 0.00929042 0.0640845
0 0.1871 0
0 0 0
0.00184329 0 0.109237
0 0 0
0.0269681 0.0540051 0
0 0 0
0 0.190014 0
0 0 0
0 0.0174283 0.172315
0 0 0
0 0.0596644 0
0 0.193346 0
0 0 0
0 0.0618833 0.108249
0 0.190669 0
0 0 0
0 0.188357 0
0 0 0
0.0112019 0 0.124127
0 0 0
0.0757506 0.0113673 0.0459322
0 0 0
0 0 0
0 0.105515 0
0.085502 0 0.137761
0 0 0
0 0.0570016 0
0 0.200153 0
0 0 0
0 0.0569708 0.11412
0 0.19894 0
0 0 0
0 0.121568 0
0 0 0
0.0231889 0 0.148476
0 0 0
0.097418 0.000564307 0.0570325
0 0 0
0.0215475 0.187514 0
0 0.0227349 0
0 0 0
0 0.188382 0
0 0.0228596 0
0 0 0
0 0.188826 0
0 0.023583 0
0 0 0
0 0.123651 0
0 0 0
0 0 0.0486479
0 0 0
0 0 0.0969381
0 0.0119466 0
0 0 0
0 0 0.0305384
0 0 0
0 0 0
0.160334 0.0724063 0
0 0 0
0 0 0
0 0 0
0 0 0.0272326
0 0.0127995 0
0 0 0
0 0 0.123722
0 0 0
0.200018 0 0.144527
0 0 0.103313
0 0 0
0 0 0
0.168039 0 0.0312917
0 0 0.0429352
0.120497 0 0.0463193
0 0 0
0 0 0.0475457
0 0 0
0 0 0
0.324339 0 0
0 0 0.0826933
0 0 0
0 0 0
0 0 0.137964
0 0 0.216438
0.162523 0.0303364 0.142961
0 0 0.125856
0 0 0.0515963
0 0 0
0.206068 0 0.0146339
0 0 0.199871
0.00486334 0 0.202482
0 0 0
0 0 0.147604
0 0 0.261854
0 0 0.00225112
0 0 0.0779641
0 0 0.237519
0 0 0.0112283
0 0 0.204691
0 0 0.0621113
0 0 0.112718
0 0 0.10635
0.0452259 0 0.086102
0.0925022 0 0.245801
0 0 0
0 0 0
0.00717952 0 0.119394
0.159333 0.0646772 0.156512
0 0 0.165313
0 0 0
0 0 0.107757
0.0671492 0.0728829 0.133597
0 0 0
0 0 0.0556969
0.0293787 0 0.153145
0.189798 0.226366 0.0519781
0 0 0
0.150537 0 0
0.0617486 0 0.0267823
0 0 0.189552
0.209857 0.0641395 0.0604202
0.0774401 0 0
0 0 0.0489245
0.0807986 0 0.128372
0.246785 0.181751 0.141071
0.0173493 0 0
0.106341 0 0.103402
0.0345833 0 0
0.000618447 0 0.257766
0 0 0
0 0.056311 0
0.0577393 0.118663 0
0 0 0
0 0.0644722 0.103485
0 0.186803 0
0 0 0
0 0.185775 0
0 0 0
0.000447707 0.155335 0
0 0 0
0 0 0
0 0.0097305 0.0606909
0 0.193987 0
0 0 0
0 0.12108 0
0 0 0
0 0.0704635 0
0 0 0
0 0.0152551 0.0536552
0 0.188806 0
0 0 0
0.00535187 0.162013 0
0 0.0148117 0
0 0 0
0.0251702 0.130123 0
0 0.0256088 0
0 0 0
0 0.124299 0
0 0 0
0 0.0690022 0
0 0 0
0.0175171 0.130154 0
0 0.0643172 0
0 0 0
0 0 0
0 0 0
0 0.0668908 0
0 0 0
0.179081 0.108799 0
0 0 0
0.0358447 0.00844264 0
0 0.042511 0
0 0 0
0 0 0
0 0 0
0.0695284 0.0887252 0
0 0 0
0 0 0
0 0 0
0 0 0
0 0 0.0023734
0 0.0230941 0
0 0 0
0.118878 0 0
0 0 0
0 0 0
0 0 0
0 0 0
0.110289 0.0362559 0.0344806
0 0 0.00876194
0 0 0
0 0.0119033 0
0.192719 0.100838 0
0 0 0
0 0.0393815 0
0 0 0
0 0 0.0093146
0.0725604 0 0
0 0 0
0 0 0.0296732
0 0 0
0 0 0
0 0 0
0 0 0.00864543
0.0629181 0 0
0 0 0
0 0 0
0 0 0.0227176
0 0 0
0 0 0.00518751
0.0519532 0 0
0 0 0
0 0 0.0371487
0 0 0.0864711
0 0 0
0 0 0.0821442
0 0 0.0301607
0 0 0
0.0249131 0 0
0 0 0
0 0 0.00564437
0.0384015 0 0.065451
0 0 0.0017209
0 0 0.0769771
0 0 0.113315
0 0 0.00663627
0 0 0
0 0 0.0053612
0.0320504 0 0.0589597
0 0 0
0 0 0
0 0 0.0381281
0 0 0.0694377
0 0 0
0 0 0
0.128238 0 0
0 0 0
0 0 0.0960194
0 0 0.0550901
0 0 0
0 0 0.114399
0 0 0.0853845
0 0 0
0 0 0
0 0 0
0.0249752 0 0
0.0819677 0 0
0 0 0.00547439
0 0 0.0981702
0 0 0.0816252
0.0682672 0.024038 0
0.0590151 0 0.0226565
0 0 0
0 0 0.230601
0.00231214 0 0
0 0 0.10286
0 0 0.076821
0.0643786 0.015536 0
0.0572748 0 0.0166709
0 0 0
0 0 0.213272
0.00243152 0 0
0.0318227 0 0.230037
0 0 0.0588673
0 0 0.0959174
0 0 0.0330677
0 0 0.0456836
0.211521 0.0212327 0.0719813
0 0 0.0512704
0.0442636 0 0.145155
0 0 0
0 0 0.0716158
0 0 0
0 0 0.223751
0.126494 0 0.0583711
0 0 0.15325
0.207949 0 0
0 0 0
0 0 0.296461
0.0409637 0 0.00115003
0.00318144 0 0.180505
0.0123205 0 0.0196833
0 0.135038 0.122143
0.203339 0 0.0398001
0 0 0
0 0 0.290038
0.0414562 0 0
0.00254127 0 0.172125
0.0135801 0 0.0129007
0 0.122908 0.114272
0.189416 0 0.0271685
0 0 0.0342538
0 0 0.0984125
0.168658 0 0
0.0669121 0.225722 0.192038
0.0553024 0 0
0.0480037 0 0.133626
0.134883 0 0.0115709
0 0 0.092815
0 0.126158 0
0.00863464 0 0.00934852
0 0.136085 0
0.0769014 0 0
0 0 0.131047
0.120143 0 0
0 0 0
0 0 0.174235
0.123302 0 0
0 0 0.0277726
0.152302 0.117867 0
0.0655752 0 0
0.00729305 0 0
0.113532 0 0
0 0.238936 0.0303236
0.039561 0 0.00458742
0.198642 0 0.0539696
0.2153 0 0
0 0 0
0.0869105 0 0.146182
0.07482 0 0.00440927
0 0.199885 0.0369607
0 0 0.0865047
0 0.179818 0.0328412
0.236095 0.0177309 0
0 0 0
0 0.122232 0
0.0534561 0 0
0.377715 0.0523107 0.130597
0.0929699 0 0
0 0 0
0.2473 0.10022 0.230833
0.162259 0.0857755 0
0.0906973 0 0
0 0.0444047 0.239451
0.243809 0 0
0 0.0446424 0.25611
0.0298348 0.157448 0.00328534
0.0994546 0.0455494 0
0.0887996 0 0
0 0.109562 0.158955
0.0806319 0 0.00408141
0.255391 0.200293 0
0.128384 0 0
0 0.165514 0
0.140107 0 0
0.0596463 0.0983991 0
0.135663 0 0
0 0.171258 0
0.149534 0 0
0.107638 0.0469232 0.067575
0.132508 0 0
0 0 0.127079
0 0.030203 0
0.140431 0 0
0 0.151746 0.0983006
0.120272 0 0
0.147631 0.267456 0
0.214927 0.152431 0
0.158471 0 0
0 0.108151 0.172045
0.088061 0 0.00326601
0.30584 0.156371 0
0.179747 0 0
0.000527081 0 0.205826
0.0919111 0 0.00927238
0.219764 0.19593 0
0.197628 0 0
0.109001 0.170726 0.303026
0 0 0
0 0.109407 0
0.092355 0 0
0 0.114956 0
0.269974 0.195093 0
0.0866484 0 0
0 0.157677 0
0.100488 0 0
0.0842339 0.0960069 0.0478369
0.226482 0.194036 0
0.107643 0 0
0 0.0295848 0.0737751
0.319337 0.0449227 0
0 0.0307531 0.0795164
0.244497 0 0
0.144695 0.273643 0
0 0 0.0163985
0 0 0.0348852
0.0785183 0 0
0.391144 0.258309 0.00283838
0.139864 0.0531518 0
0.0944276 0 0
0 0.109456 0.169249
0.0852481 0 0.000208327
0.266954 0.194015 0
0.236688 0 0
0 0.030472 0.0773195
0.17145 0 0
0.1768 0.221343 0
0.12853 0 0
0 0 0.175722
0.239784 0.19268 0
0 0 0
0 0.187943 0
0.194633 0.1261 0
0.107109 0 0
0.0561997 0.236643 0
0 0 0
0.079654 0.202976 0
0.249264 0.0794231 0
0.00921009 0 0
0 0.202376 0
0.257204 0.0798418 0
0.0484178 0 0
0 0.193295 0
0.161934 0 0
0.0622467 0.2418 0
0.210509 0 0
0.0762728 0 0
0 0 0.232356
0.200427 0 0
0 0 0.169689
0.270684 0 0
0.054963 0.310659 0.15382
0.0697406 0 0
0.137114 0 0
0.130445 0 0
0 0 0.234549
0.202125 0 0
0 0 0.167355
0.260273 0 0
0.0456217 0.292719 0.148334
0.0668741 0 0
0.129194 0 0
0.11881 0 0
0 0 0.290609
0.220721 0 0
0 0 0
0.0289553 0 0.146507
0.333558 0 0
0 0 0.148877
0 0 0
0 0 0.239657
0.132969 0 0.0612085
0 0 0.173425
0.110524 0 0
0.266211 0.0421509 0
0.121126 0 0
0 0 0.225435
0.196178 0 0
0.109092 0 0.379292
0.244015 0 0
0.0454931 0 0
0.247423 0.156229 0.114226
0.203663 0 0
0 0 0.22736
0.200372 0 0
0.103708 0 0.373301
0.238018 0 0
0.0468706 0 0
0.233787 0.152403 0.110835
0.190454 0 0
0.0526551 0.0149482 0.284405
0.172538 0.0887857 0
0.0955841 0 0
0 0.168288 0.244267
0.240771 0 0
0 0 0.123466
0.0526308 0 0
0 0 0.198099
0.114466 0 0
0 0 0.293242
0.368706 0.160101 0
0.144041 0 0
0 0 0.213837
0.187815 0 0
0 0 0.14228
0.215078 0 0
0 0.0447885 0.055037
0.232432 0.237529 0
0.152356 0 0
0 0 0.215543
0.194431 0 0
0 0 0.143364
0.21388 0 0
0 0.0365691 0.0579107
0.225905 0.230108 0
0.144331 0 0
0 0 0.139939
0.155484 0 0
0 0.157028 0
0.160335 0 0
0.225095 0.15235 0.131273
0.300373 0 0
0.12469 0 0
0 0.120831 0.175994
0.096537 0 0
0 0 0.140485
0.266064 0 0
0 0.163629 0.289219
0.273099 0.0501382 0
0 0 0
0.074719 0.234929 0.134689
0.235043 0 0
0.0773182 0.235258 0.172163
0.187897 0 0
0.0613118 0.0464864 0.274821
0.28447 0.0442881 0
0 0 0
0.0801183 0.233512 0.134381
0.238595 0 0
0.0774941 0.230868 0.165116
0.186253 0 0
0.0604542 0.043935 0.270068
0.280861 0.042452 0
0.121661 0 0
0.0738971 0.223569 0.163854
0.200008 0 0
0 0 0.147911
0.0954218 0 0.00157671
0.291188 0.19322 0
0.193571 0 0
0 0.0184635 0.111567
0.0994297 0.26096 0
0.149302 0 0
0.141004 0.110958 0.365315
0.185114 0 0
0.191322 0 0
0 0 0
0.131932 0.0710048 0
0 0.0474675 0.0633783
0.209567 0.232601 0
0.135662 0 0
0 0 0.128001
0.195232 0 0
0 0 0
0.13199 0.0719832 0
0 0.0531286 0.0573821
0.20643 0.230447 0
0.134145 0 0
0 0 0.124072
0.190406 0 0
0 0.0389061 0.0957304
0.105316 0.261998 0
0.117238 0 0
0 0.105612 0.19524
0.241964 0.189699 0
0.154104 0 0
0 0.0948838 0.153186
0.240184 0 0
0 0.0364011 0.0725936
0.171813 0 0
0.138636 0.268756 0
0.227624 0 0
0 0.103846 0.14335
0.154024 0 0
0 0.0507359 0.222336
0.167596 0 0
0.0491705 0.0411441 0.256422
0.258784 0.0507911 0
0.111254 0 0
0.0660503 0.222574 0.15562
0.165421 0 0
0 0 0.184609
0.1641 0 0
0.0476209 0.0467865 0.248231
0.252748 0.049211 0
0.109306 0 0
0.0639186 0.21911 0.151533
0.164727 0 0
0 0 0.1208
0.229686 0 0
0 0.0405658 0.0653108
0.167134 0 0
0.134125 0.266173 0
0.137442 0 0
0 0.162743 0
0.142614 0 0
0.0999522 0.0514013 0.0598893
0.12114 0 0
0 0 0.114917
0.32889 0.154911 0
0.125845 0 0
0 0.0559908 0.212417
0.0465012 0 0
0.104083 0.147537 0
0.0904168 0 0
0 0.192304 0
0.107401 0 0
0 0.249108 0
0.117973 0.149271 0
0.0488156 0 0
0 0.1472 0
0.0837453 0 0
0 0.19183 0
0.100618 0 0
0 0.246783 0
0.112955 0.147025 0
0.0428908 0 0
0 0.144819 0
0.0413243 0 0
0 0.198937 0
0.242588 0.0808854 0
0.0589268 0 0
0.0517568 0.189662 0
0 0 0
0.226001 0.0787111 0
0.0763082 0 0
0.0953797 0.261706 0
0.167864 0 0
0 0 0
0.102671 0.27122 0
0.0187191 0 0.165546
0.149274 0 0
0.289318 0 0
0.0672916 0 0
0.28815 0 0
0 0 0.0846082
0 0 0
0 0 0.242427
0.16499 0 0
0.16166 0.0317636 0.0240087
0.20746 0 0
0.0766354 0 0
0.220082 0.192087 0
0.258962 0 0
0 0 0.0147949
0.301439 0.099239 0
0.056048 0 0
0.0325576 0 0
