ply
format ascii 1.0
comment Created by Open3D
element vertex 1326
property double x
property double y
property double z
property uchar red
property uchar green
property uchar blue
end_header
384 24 281 0 0 0
384 15 292 1 0 0
384 15 293 1 0 0
384 15 294 1 0 0
384 14 295 1 0 0
385 15 296 1 0 0
384 14 296 1 0 0
385 15 297 1 0 0
384 14 297 1 0 0
384 15 291 1 0 0
384 15 292 1 0 0
384 14 292 1 0 0
384 15 293 1 0 0
384 14 293 1 0 0
384 15 294 1 0 0
384 15 295 1 0 0
385 15 296 1 0 0
385 14 296 1 0 0
385 15 297 1 0 0
385 14 297 1 0 0
384 15 287 1 0 0
384 15 288 1 0 0
384 15 289 1 0 0
385 15 290 1 0 0
384 15 290 1 0 0
385 15 291 1 0 0
384 15 291 1 0 0
385 15 292 1 0 0
384 15 292 1 0 0
385 15 293 1 0 0
384 15 293 1 0 0
385 15 294 1 0 0
386 15 295 1 0 0
385 15 295 1 0 0
386 15 296 1 0 0
385 15 296 1 0 0
386 15 297 1 0 0
385 15 297 1 0 0
384 16 286 1 0 0
384 16 287 1 0 0
384 16 288 1 0 0
384 16 289 1 0 0
385 16 290 1 0 0
384 16 290 1 0 0
385 16 291 1 0 0
384 16 291 1 0 0
385 16 292 1 0 0
384 16 292 1 0 0
385 16 293 1 0 0
385 16 294 1 0 0
386 16 295 1 0 0
385 16 295 1 0 0
386 16 296 1 0 0
385 16 296 1 0 0
386 16 297 1 0 0
385 16 297 1 0 0
384 17 287 0 0 0
384 17 288 0 0 0
384 17 289 0 0 0
385 17 290 0 0 0
384 17 290 0 0 0
385 17 291 0 0 0
384 17 291 0 0 0
385 17 292 0 0 0
386 17 293 0 0 0
385 17 293 0 0 0
386 17 294 0 0 0
385 17 294 0 0 0
386 17 295 1 0 0
385 17 295 1 0 0
386 17 296 1 0 0
386 17 297 1 0 0
384 18 286 0 0 0
384 18 287 0 0 0
384 18 288 0 0 0
385 18 289 0 0 0
384 18 289 0 0 0
385 18 290 0 0 0
384 18 290 0 0 0
385 18 291 0 0 0
384 18 291 0 0 0
385 18 292 0 0 0
385 18 293 0 0 0
386 18 294 0 0 0
385 18 294 0 0 0
386 18 295 0 0 0
385 18 295 0 0 0
386 18 296 1 0 0
386 18 297 1 0 0
384 19 285 0 0 0
384 19 286 0 0 0
384 19 287 0 0 0
385 19 288 0 0 0
384 19 288 0 0 0
385 19 289 0 0 0
384 19 289 0 0 0
385 19 290 0 0 0
384 19 290 0 0 0
385 19 291 0 0 0
386 19 292 0 0 0
385 19 292 0 0 0
386 19 293 0 0 0
385 19 293 0 0 0
386 19 294 0 0 0
385 19 294 0 0 0
386 19 295 0 0 0
386 19 296 0 0 0
386 19 297 0 0 0
384 20 284 0 0 0
384 20 285 0 0 0
384 20 286 0 0 0
384 20 287 0 0 0
385 20 288 0 0 0
384 20 288 0 0 0
385 20 289 0 0 0
384 20 289 0 0 0
385 20 290 0 0 0
386 20 291 0 0 0
385 20 291 0 0 0
386 20 292 0 0 0
385 20 292 0 0 0
386 20 293 0 0 0
385 20 293 0 0 0
386 20 294 0 0 0
385 20 294 0 0 0
386 20 295 0 0 0
386 20 296 0 0 0
386 20 297 0 0 0
384 21 283 0 0 0
384 21 284 0 0 0
384 21 285 0 0 0
384 21 286 0 0 0
385 21 287 0 0 0
384 21 287 0 0 0
385 21 288 0 0 0
384 21 288 0 0 0
385 21 289 0 0 0
386 21 290 0 0 0
385 21 290 0 0 0
386 21 291 0 0 0
385 21 291 0 0 0
386 21 292 0 0 0
385 21 292 0 0 0
386 21 293 0 0 0
385 21 293 0 0 0
386 21 294 0 0 0
385 21 294 0 0 0
386 21 295 0 0 0
387 21 296 0 0 0
386 21 296 0 0 0
387 21 297 0 0 0
386 21 297 0 0 0
384 22 283 0 0 0
384 22 284 0 0 0
384 22 285 0 0 0
385 22 286 0 0 0
384 22 286 0 0 0
385 22 287 0 0 0
384 22 287 0 0 0
385 22 288 0 0 0
384 22 288 0 0 0
385 22 289 0 0 0
386 22 290 0 0 0
385 22 290 0 0 0
386 22 291 0 0 0
385 22 291 0 0 0
386 22 292 0 0 0
385 22 292 0 0 0
386 22 293 0 0 0
385 22 293 0 0 0
386 22 294 0 0 0
386 22 295 0 0 0
387 22 296 0 0 0
386 22 296 0 0 0
387 22 297 0 0 0
386 22 297 0 0 0
384 23 282 0 0 0
384 23 283 0 0 0
384 23 284 0 0 0
385 23 285 0 0 0
384 23 285 0 0 0
385 23 286 0 0 0
384 23 286 0 0 0
385 23 287 0 0 0
384 23 287 0 0 0
385 23 288 0 0 0
386 23 289 0 0 0
385 23 289 0 0 0
386 23 290 0 0 0
385 23 290 0 0 0
386 23 291 0 0 0
385 23 291 0 0 0
386 23 292 0 0 0
385 23 292 0 0 0
386 23 293 0 0 0
386 23 294 0 0 0
387 23 295 0 0 0
386 23 295 0 0 0
387 23 296 0 0 0
386 23 296 0 0 0
387 23 297 0 0 0
386 23 297 0 0 0
384 24 282 0 0 0
384 24 283 0 0 0
384 24 284 0 0 0
385 24 285 0 0 0
384 24 285 0 0 0
385 24 286 0 0 0
384 24 286 0 0 0
385 24 287 0 0 0
384 24 287 0 0 0
385 24 288 0 0 0
386 24 289 0 0 0
385 24 289 0 0 0
386 24 290 0 0 0
385 24 290 0 0 0
386 24 291 0 0 0
385 24 291 0 0 0
386 24 292 0 0 0
385 24 292 0 0 0
386 24 293 0 0 0
386 24 294 0 0 0
387 24 295 0 0 0
386 24 295 0 0 0
387 24 296 0 0 0
386 24 296 0 0 0
387 24 297 0 0 0
386 24 297 0 0 0
384 25 282 0 0 0
384 25 283 0 0 0
385 25 284 0 0 0
384 25 284 0 0 0
385 25 285 0 0 0
384 25 285 0 0 0
385 25 286 0 0 0
384 25 286 0 0 0
385 25 287 0 0 0
386 25 288 0 0 0
385 25 288 0 0 0
386 25 289 0 0 0
385 25 289 0 0 0
386 25 290 0 0 0
385 25 290 0 0 0
386 25 291 0 0 0
385 25 291 0 0 0
386 25 292 0 0 0
385 25 292 0 0 0
386 25 293 0 0 0
386 25 294 0 0 0
387 25 295 0 0 0
386 25 295 0 0 0
387 25 296 0 0 0
386 25 296 0 0 0
387 25 297 0 0 0
386 25 297 0 0 0
384 26 282 0 0 0
384 26 283 0 0 0
384 26 284 0 0 0
385 26 285 0 0 0
384 26 285 0 0 0
385 26 286 0 0 0
384 26 286 0 0 0
385 26 287 0 0 0
384 26 287 0 0 0
385 26 288 0 0 0
386 26 289 0 0 0
385 26 289 0 0 0
386 26 290 0 0 0
385 26 290 0 0 0
386 26 291 0 0 0
385 26 291 0 0 0
386 26 292 0 0 0
385 26 292 0 0 0
386 26 293 0 0 0
386 26 294 0 0 0
386 26 295 0 0 0
386 26 296 0 0 0
386 26 297 0 0 0
384 27 282 0 0 0
384 27 283 0 0 0
384 27 284 0 0 0
384 27 285 0 0 0
385 27 286 0 0 0
384 27 286 0 0 0
385 27 287 0 0 0
384 27 287 0 0 0
385 27 288 0 0 0
385 27 289 0 0 0
386 27 290 0 0 0
385 27 290 0 0 0
386 27 291 0 0 0
385 27 291 0 0 0
386 27 292 0 0 0
385 27 292 0 0 0
386 27 293 0 0 0
385 27 293 0 0 0
386 27 294 0 0 0
385 27 294 0 0 0
386 27 295 0 0 0
386 27 296 0 0 0
386 27 297 0 0 0
384 28 282 0 0 0
384 28 283 0 0 0
384 28 284 0 0 0
384 28 285 0 0 0
384 28 286 0 0 0
385 28 287 0 0 0
384 28 287 0 0 0
385 28 288 0 0 0
384 28 288 0 0 0
385 28 289 0 0 0
384 28 289 0 0 0
385 28 290 0 0 0
386 28 291 0 0 0
385 28 291 0 0 0
386 28 292 0 0 0
385 28 292 0 0 0
386 28 293 0 0 0
385 28 293 0 0 0
386 28 294 0 0 0
385 28 294 0 0 0
386 28 295 0 0 0
385 28 295 0 0 0
386 28 296 0 0 0
385 28 296 0 0 0
386 28 297 0 0 0
385 28 297 0 0 0
385 14 298 1 0 0
385 14 299 1 0 0
385 14 300 1 0 0
385 14 301 1 0 0
385 14 302 1 0 0
385 14 303 1 0 0
385 14 304 1 0 0
385 14 305 1 0 0
385 14 306 0 0 0
385 14 307 0 0 0
385 14 308 0 0 0
385 14 309 0 0 0
385 14 310 0 0 0
385 14 311 0 0 0
385 14 312 0 0 0
385 14 313 0 0 0
385 15 298 1 0 0
385 15 299 1 0 0
386 14 300 1 0 0
386 14 301 1 0 0
386 14 302 1 0 0
386 14 303 1 0 0
386 14 304 1 0 0
386 14 305 1 0 0
386 14 306 1 0 0
386 14 307 1 0 0
386 14 308 0 0 0
386 14 309 0 0 0
386 14 310 0 0 0
386 14 311 0 0 0
386 14 312 0 0 0
386 14 313 0 0 0
386 15 298 1 0 0
386 15 299 1 0 0
386 15 300 1 0 0
387 15 301 1 1 0
387 15 302 1 0 0
387 15 303 1 0 0
387 15 304 1 0 0
387 15 305 1 0 0
387 15 306 1 0 0
387 15 307 1 0 0
387 15 308 0 0 0
387 15 309 0 0 0
387 15 310 0 0 0
387 15 311 0 0 0
387 15 312 0 0 0
387 15 313 0 0 0
386 16 298 1 0 0
386 16 299 1 0 0
386 16 300 1 1 0
387 16 301 1 1 0
387 16 302 1 1 0
387 16 303 1 0 0
387 16 304 1 0 0
387 16 305 1 0 0
387 16 306 1 0 0
387 16 307 1 0 0
387 16 308 1 0 0
387 16 309 0 0 0
387 16 310 0 0 0
387 16 311 0 0 0
387 16 312 0 0 0
387 16 313 0 0 0
386 17 298 1 0 0
387 17 299 1 1 0
386 17 299 1 1 0
387 17 300 1 1 0
386 17 300 1 1 0
387 17 301 1 1 1
387 17 302 1 1 0
387 17 303 1 1 0
387 17 304 1 1 0
387 17 305 1 0 0
387 17 306 1 0 0
387 17 307 1 0 0
387 17 308 1 0 0
387 17 309 1 0 0
387 17 310 1 0 0
387 17 311 1 0 0
387 17 312 0 0 0
387 17 313 0 0 0
387 18 298 1 0 0
386 18 298 1 0 0
387 18 299 1 1 0
386 18 299 1 1 0
387 18 300 1 1 0
387 18 301 1 1 1
387 18 302 1 1 1
387 18 303 1 1 0
387 18 304 1 1 0
387 18 305 1 1 0
387 18 306 1 0 0
387 18 307 1 0 0
387 18 308 1 0 0
387 18 309 1 0 0
387 18 310 1 0 0
387 18 311 1 0 0
387 18 312 1 0 0
387 18 313 1 0 0
387 19 298 1 0 0
386 19 298 1 0 0
387 19 299 1 0 0
386 19 299 1 0 0
387 19 300 1 0 0
387 19 301 1 1 0
387 19 302 1 1 0
387 19 303 1 1 0
387 19 304 1 0 0
387 19 305 1 0 0
387 19 306 1 0 0
387 19 307 1 0 0
387 19 308 1 0 0
387 19 309 1 0 0
387 19 310 1 0 0
387 19 311 1 0 0
387 19 312 1 0 0
387 19 313 0 0 0
387 20 298 0 0 0
386 20 298 0 0 0
387 20 299 1 0 0
386 20 299 1 0 0
387 20 300 1 0 0
387 20 301 1 0 0
387 20 302 1 0 0
387 20 303 1 0 0
387 20 304 1 0 0
387 20 305 1 0 0
387 20 306 1 0 0
387 20 307 1 0 0
387 20 308 0 0 0
387 20 309 0 0 0
387 20 310 0 0 0
387 20 311 0 0 0
387 20 312 0 0 0
387 20 313 0 0 0
387 21 298 0 0 0
387 21 299 0 0 0
387 21 300 0 0 0
387 21 301 0 0 0
387 21 302 0 0 0
387 21 303 0 0 0
387 21 304 0 0 0
387 21 305 0 0 0
387 21 306 0 0 0
387 21 307 0 0 0
387 21 308 0 0 0
387 21 309 0 0 0
387 21 310 0 0 0
387 21 311 0 0 0
387 21 312 0 0 0
387 21 313 0 0 0
387 22 298 0 0 0
387 22 299 0 0 0
387 22 300 0 0 0
387 22 301 0 0 0
387 22 302 0 0 0
387 22 303 0 0 0
387 22 304 0 0 0
387 22 305 0 0 0
387 22 306 0 0 0
387 22 307 0 0 0
387 22 308 0 0 0
387 22 309 0 0 0
387 22 310 0 0 0
387 22 311 0 0 0
387 22 312 0 0 0
387 22 313 0 0 0
387 23 298 0 0 0
387 23 299 0 0 0
387 23 300 0 0 0
387 23 301 0 0 0
387 23 302 0 0 0
387 23 303 0 0 0
387 23 304 0 0 0
387 23 305 0 0 0
387 23 306 0 0 0
387 23 307 0 0 0
387 23 308 0 0 0
387 23 309 0 0 0
387 23 310 0 0 0
387 23 311 0 0 0
387 23 312 0 0 0
387 23 313 0 0 0
387 24 298 0 0 0
387 24 299 0 0 0
387 24 300 0 0 0
387 24 301 0 0 0
387 24 302 0 0 0
387 24 303 0 0 0
387 24 304 0 0 0
387 24 305 0 0 0
387 24 306 0 0 0
387 24 307 0 0 0
387 24 308 0 0 0
387 24 309 0 0 0
387 24 310 0 0 0
387 24 311 0 0 0
387 24 312 0 0 0
387 24 313 0 0 0
387 25 298 0 0 0
387 25 299 0 0 0
387 25 300 0 0 0
387 25 301 0 0 0
387 25 302 0 0 0
387 25 303 0 0 0
387 25 304 0 0 0
387 25 305 0 0 0
387 25 306 0 0 0
387 25 307 0 0 0
387 25 308 0 0 0
387 25 309 0 0 0
387 25 310 0 0 0
387 25 311 0 0 0
387 25 312 0 0 0
387 25 313 0 0 0
387 26 298 0 0 0
386 26 298 0 0 0
387 26 299 0 0 0
386 26 299 0 0 0
387 26 300 0 0 0
386 26 300 0 0 0
387 26 301 0 0 0
387 26 302 0 0 0
387 26 303 0 0 0
387 26 304 0 0 0
387 26 305 0 0 0
387 26 306 0 0 0
387 26 307 0 0 0
387 26 308 0 0 0
387 26 309 0 0 0
387 26 310 0 0 0
387 26 311 0 0 0
387 26 312 0 0 0
387 26 313 0 0 0
387 27 298 0 0 0
386 27 298 0 0 0
387 27 299 0 0 0
386 27 299 0 0 0
387 27 300 0 0 0
386 27 300 0 0 0
387 27 301 0 0 0
387 27 302 0 0 0
387 27 303 0 0 0
387 27 304 0 0 0
387 27 305 0 0 0
387 27 306 0 0 0
387 27 307 0 0 0
387 27 308 0 0 0
387 27 309 0 0 0
387 27 310 0 0 0
387 27 311 0 0 0
387 27 312 0 0 0
387 27 313 0 0 0
386 28 298 0 0 0
386 28 299 0 0 0
386 28 300 0 0 0
386 28 301 0 0 0
386 28 302 0 0 0
386 28 303 0 0 0
386 28 304 0 0 0
386 28 305 0 0 0
386 28 306 0 0 0
386 28 307 0 0 0
386 28 308 0 0 0
386 28 309 0 0 0
386 28 310 1 0 0
386 28 311 1 0 0
386 28 312 1 0 0
386 28 313 1 0 0
385 14 314 0 0 0
385 14 315 0 0 0
385 14 316 0 0 0
385 14 317 0 0 0
385 14 318 0 0 0
385 14 319 0 0 0
385 14 320 0 0 0
385 14 321 0 0 0
385 14 322 0 0 0
385 14 323 0 0 0
385 14 324 0 0 0
385 14 325 0 0 0
385 14 326 0 0 0
385 14 327 0 0 0
385 14 328 0 0 0
386 15 329 0 0 0
386 14 314 0 0 0
386 14 315 0 0 0
386 14 316 0 0 0
386 14 317 0 0 0
386 14 318 0 0 0
386 14 319 0 0 0
386 14 320 0 0 0
386 14 321 0 0 0
386 14 322 0 0 0
386 14 323 0 0 0
386 14 324 0 0 0
386 14 325 0 0 0
386 14 326 0 0 0
386 14 327 0 0 0
386 14 328 0 0 0
386 15 329 0 0 0
387 15 314 0 0 0
387 15 315 0 0 0
387 15 316 0 0 0
387 15 317 0 0 0
387 15 318 0 0 0
387 15 319 0 0 0
387 15 320 0 0 0
387 15 321 0 0 0
387 15 322 0 0 0
387 15 323 0 0 0
387 15 324 0 0 0
387 15 325 0 0 0
387 15 326 0 0 0
387 15 327 0 0 0
387 15 328 0 0 0
387 15 329 0 0 0
387 16 314 0 0 0
387 16 315 0 0 0
387 16 316 0 0 0
387 16 317 0 0 0
387 16 318 0 0 0
387 16 319 0 0 0
387 16 320 0 0 0
387 16 321 0 0 0
387 16 322 0 0 0
387 16 323 0 0 0
387 16 324 0 0 0
387 16 325 0 0 0
387 16 326 0 0 0
387 16 327 0 0 0
387 16 328 0 0 0
387 16 329 0 0 0
387 17 314 0 0 0
387 17 315 0 0 0
387 17 316 0 0 0
387 17 317 0 0 0
387 17 318 0 0 0
387 17 319 0 0 0
387 17 320 0 0 0
387 17 321 0 0 0
387 17 322 0 0 0
387 17 323 0 0 0
387 17 324 0 0 0
387 17 325 0 0 0
387 17 326 0 0 0
387 17 327 0 0 0
387 17 328 0 0 0
387 17 329 0 0 0
387 18 314 0 0 0
387 18 315 0 0 0
387 18 316 0 0 0
387 18 317 0 0 0
387 18 318 0 0 0
387 18 319 0 0 0
387 18 320 0 0 0
387 18 321 0 0 0
387 18 322 0 0 0
387 18 323 0 0 0
387 18 324 0 0 0
387 18 325 0 0 0
387 18 326 0 0 0
387 18 327 0 0 0
387 18 328 0 0 0
387 18 329 0 0 0
387 19 314 0 0 0
387 19 315 0 0 0
387 19 316 0 0 0
387 19 317 0 0 0
387 19 318 0 0 0
387 19 319 0 0 0
387 19 320 0 0 0
387 19 321 0 0 0
387 19 322 0 0 0
387 19 323 0 0 0
387 19 324 0 0 0
387 19 325 1 0 0
387 19 326 1 0 0
387 19 327 1 0 0
387 19 328 0 0 0
387 19 329 0 0 0
387 20 314 0 0 0
387 20 315 0 0 0
387 20 316 0 0 0
387 20 317 0 0 0
387 20 318 0 0 0
387 20 319 0 0 0
387 20 320 0 0 0
387 20 321 0 0 0
387 20 322 0 0 0
387 20 323 0 0 0
387 20 324 0 0 0
387 20 325 0 0 0
387 20 326 0 0 0
387 20 327 0 0 0
387 20 328 0 0 0
386 20 329 0 0 0
387 21 314 0 0 0
387 21 315 0 0 0
387 21 316 0 0 0
387 21 317 0 0 0
387 21 318 0 0 0
387 21 319 0 0 0
387 21 320 0 0 0
387 21 321 0 0 0
387 21 322 0 0 0
387 21 323 0 0 0
387 21 324 0 0 0
387 21 325 0 0 0
387 21 326 0 0 0
387 21 327 0 0 0
387 21 328 0 0 0
387 21 329 0 0 0
387 22 314 0 0 0
387 22 315 0 0 0
387 22 316 0 0 0
387 22 317 0 0 0
387 22 318 0 0 0
387 22 319 0 0 0
387 22 320 0 0 0
387 22 321 0 0 0
387 22 322 0 0 0
387 22 323 0 0 0
387 22 324 0 0 0
387 22 325 0 0 0
387 22 326 0 0 0
387 22 327 0 0 0
387 22 328 0 0 0
386 22 329 0 0 0
387 23 314 0 0 0
387 23 315 0 0 0
387 23 316 0 0 0
387 23 317 0 0 0
387 23 318 0 0 0
387 23 319 0 0 0
387 23 320 0 0 0
387 23 321 0 0 0
387 23 322 0 0 0
387 23 323 0 0 0
387 23 324 0 0 0
387 23 325 0 0 0
387 23 326 0 0 0
387 23 327 0 0 0
387 23 328 0 0 0
386 23 329 0 0 0
387 24 314 0 0 0
387 24 315 0 0 0
387 24 316 0 0 0
387 24 317 0 0 0
387 24 318 0 0 0
387 24 319 0 0 0
387 24 320 0 0 0
387 24 321 0 0 0
387 24 322 0 0 0
387 24 323 0 0 0
387 24 324 0 0 0
387 24 325 0 0 0
387 24 326 0 0 0
387 24 327 0 0 0
387 24 328 0 0 0
386 24 329 0 0 0
387 25 314 0 0 0
387 25 315 0 0 0
387 25 316 0 0 0
387 25 317 0 0 0
387 25 318 0 0 0
387 25 319 0 0 0
387 25 320 0 0 0
387 25 321 0 0 0
387 25 322 0 0 0
387 25 323 0 0 0
387 25 324 0 0 0
387 25 325 0 0 0
387 25 326 0 0 0
387 25 327 0 0 0
387 25 328 0 0 0
386 25 329 0 0 0
387 26 314 0 0 0
387 26 315 0 0 0
387 26 316 0 0 0
387 26 317 0 0 0
387 26 318 0 0 0
387 26 319 0 0 0
387 26 320 0 0 0
387 26 321 0 0 0
387 26 322 0 0 0
387 26 323 0 0 0
387 26 324 0 0 0
387 26 325 0 0 0
387 26 326 0 0 0
386 26 327 0 0 0
386 26 328 0 0 0
386 26 329 0 0 0
387 27 314 0 0 0
387 27 315 0 0 0
387 27 316 0 0 0
387 27 317 1 0 0
387 27 318 1 0 0
387 27 319 1 0 0
387 27 320 1 0 0
387 27 321 1 0 0
387 27 322 1 0 0
387 27 323 1 0 0
387 27 324 1 0 0
387 27 325 1 0 0
387 27 326 1 0 0
386 27 327 1 0 0
386 27 328 1 0 0
386 27 329 1 0 0
386 28 314 1 0 0
386 28 315 1 0 0
386 28 316 1 0 0
386 28 317 1 0 0
386 28 318 1 0 0
386 28 319 1 0 0
386 28 320 1 0 0
386 28 321 1 0 0
386 28 322 1 0 0
386 28 323 1 1 0
386 28 324 1 1 0
386 28 325 1 1 0
386 28 326 1 1 0
386 28 327 1 1 0
385 28 328 1 1 0
385 28 329 1 1 0
386 15 330 0 0 0
386 15 331 0 0 0
386 15 332 0 0 0
385 14 333 0 0 0
385 14 333 0 0 0
384 14 334 0 0 0
384 14 335 0 0 0
384 14 336 0 0 0
386 15 330 0 0 0
386 15 331 0 0 0
386 15 332 0 0 0
386 14 333 0 0 0
385 15 334 0 0 0
385 15 334 0 0 0
385 14 336 0 0 0
385 14 337 0 0 0
384 14 338 0 0 0
384 14 339 0 0 0
387 15 330 0 0 0
387 15 331 0 0 0
387 15 332 0 0 0
386 15 333 0 0 0
386 15 334 0 0 0
386 15 335 0 0 0
386 15 336 0 0 0
385 15 337 0 0 0
385 15 338 0 0 0
384 15 339 0 0 0
387 16 330 0 0 0
387 16 331 0 0 0
387 16 332 0 0 0
386 16 333 0 0 0
386 16 334 0 0 0
386 16 335 0 0 0
385 16 336 0 0 0
385 16 337 0 0 0
384 16 338 0 0 0
384 16 339 0 0 0
387 17 330 0 0 0
387 17 331 0 0 0
387 17 332 0 0 0
386 17 333 0 0 0
386 17 334 0 0 0
386 17 335 0 0 0
385 17 336 0 0 0
385 17 337 0 0 0
384 17 338 0 0 0
384 17 339 0 0 0
387 18 330 0 0 0
387 18 331 0 0 0
387 18 332 0 0 0
386 18 333 0 0 0
386 18 334 0 0 0
386 18 335 0 0 0
385 18 336 0 0 0
385 18 337 0 0 0
384 18 338 0 0 0
384 18 339 0 0 0
387 19 330 0 0 0
386 19 331 0 0 0
386 19 332 0 0 0
386 19 333 0 0 0
386 19 334 0 0 0
385 19 335 0 0 0
385 19 336 0 0 0
385 19 337 0 0 0
384 19 338 0 0 0
384 19 339 0 0 0
386 20 330 0 0 0
386 20 331 0 0 0
386 20 332 0 0 0
385 20 333 0 0 0
385 20 334 0 0 0
385 20 335 0 0 0
385 20 336 0 0 0
384 20 337 0 0 0
384 20 338 0 0 0
386 21 330 0 0 0
386 21 331 0 0 0
386 21 332 0 0 0
385 21 333 0 0 0
385 21 334 0 0 0
385 21 335 0 0 0
384 21 336 0 0 0
384 21 337 0 0 0
384 21 338 0 0 0
386 22 330 0 0 0
386 22 331 0 0 0
386 22 332 0 0 0
385 22 333 0 0 0
385 22 334 0 0 0
385 22 335 0 0 0
384 22 336 0 0 0
384 22 337 0 0 0
386 23 330 0 0 0
386 23 331 0 0 0
385 23 332 0 0 0
385 23 333 0 0 0
385 23 334 0 0 0
384 23 335 0 0 0
384 23 336 0 0 0
384 23 337 0 0 0
386 24 330 0 0 0
385 24 331 0 0 0
385 24 332 0 0 0
385 24 333 0 0 0
384 24 334 0 0 0
384 24 335 0 0 0
384 24 336 0 0 0
386 25 330 0 0 0
385 25 331 0 0 0
385 25 332 0 0 0
384 25 333 0 0 0
384 25 334 0 0 0
384 25 335 0 0 0
384 25 336 0 0 0
385 26 330 0 0 0
385 26 331 0 0 0
384 26 332 0 0 0
384 26 333 0 0 0
384 26 334 0 0 0
385 27 330 1 0 0
384 27 330 1 0 0
385 27 331 1 0 0
384 27 331 1 0 0
384 27 332 1 0 0
384 27 333 1 0 0
384 27 334 1 0 0
384 28 330 1 1 0
384 28 331 1 1 0
384 28 332 1 0 0
384 29 283 0 0 0
384 29 284 0 0 0
384 29 285 0 0 0
384 29 286 0 0 0
384 29 287 0 0 0
385 29 288 0 0 0
384 29 288 0 0 0
385 29 289 0 0 0
384 29 289 0 0 0
385 29 290 0 0 0
384 29 290 0 0 0
385 29 291 0 0 0
384 29 291 0 0 0
385 29 292 0 0 0
385 29 293 0 0 0
386 29 294 0 0 0
385 29 294 0 0 0
386 29 295 0 0 0
385 29 295 0 0 0
386 29 296 0 0 0
385 29 296 0 0 0
386 29 297 0 0 0
385 29 297 0 0 0
384 30 285 0 0 0
384 30 286 0 0 0
384 30 287 0 0 0
384 30 288 0 0 0
384 30 289 0 0 0
384 30 290 0 0 0
385 30 291 0 0 0
384 30 291 0 0 0
385 30 292 0 0 0
384 30 292 0 0 0
385 30 293 0 0 0
384 30 293 0 0 0
385 30 294 0 0 0
384 30 294 0 0 0
385 30 295 0 0 0
384 30 295 0 0 0
385 30 296 0 0 0
384 30 296 0 0 0
385 30 297 0 0 0
384 30 297 0 0 0
384 31 288 0 0 0
384 31 289 0 0 0
384 31 290 0 0 0
384 31 291 0 0 0
384 31 292 0 0 0
384 31 293 0 0 0
384 31 294 0 0 0
384 31 295 0 0 0
384 31 296 0 0 0
384 31 297 0 0 0
384 32 293 0 0 0
384 32 294 0 0 0
384 32 295 0 0 0
386 29 298 0 0 0
385 29 298 0 0 0
386 29 299 0 0 0
385 29 299 0 0 0
386 29 300 0 0 0
386 29 301 0 0 0
386 29 302 0 0 0
386 29 303 0 0 0
386 29 304 0 0 0
386 29 305 0 0 0
386 29 306 1 0 0
386 29 307 1 0 0
386 29 308 1 0 0
386 29 309 1 0 0
386 29 310 1 0 0
386 29 311 1 0 0
386 29 312 1 0 0
386 29 313 1 0 0
385 30 298 0 0 0
385 30 299 0 0 0
385 30 300 0 0 0
385 30 301 0 0 0
385 30 302 0 0 0
385 30 303 1 0 0
385 30 304 1 0 0
385 30 305 1 0 0
385 30 306 1 0 0
385 30 307 1 0 0
385 30 308 1 0 0
385 30 309 1 0 0
385 30 310 1 0 0
385 30 311 1 0 0
385 30 312 1 0 0
385 30 313 1 0 0
384 31 298 0 0 0
384 31 299 0 0 0
384 31 300 1 0 0
384 31 301 1 0 0
384 31 302 1 0 0
384 31 303 1 0 0
384 31 304 1 0 0
384 31 305 1 0 0
384 31 306 1 0 0
384 31 307 1 0 0
384 31 308 1 0 0
384 31 309 1 0 0
384 31 310 1 0 0
384 31 311 1 1 0
384 31 312 1 1 0
384 31 313 1 1 0
386 29 314 1 0 0
386 29 315 1 0 0
386 29 316 1 0 0
386 29 317 1 0 0
386 29 318 1 1 0
386 29 319 1 1 0
386 29 320 1 1 0
386 29 321 1 1 0
386 29 322 1 1 0
386 29 323 1 1 1
386 29 324 1 1 1
386 29 325 1 1 1
386 29 326 1 1 1
385 29 327 1 1 1
385 29 328 1 1 1
384 29 328 1 1 1
385 29 329 1 1 1
384 29 329 1 1 1
385 30 314 1 0 0
385 30 315 1 1 0
385 30 316 1 1 0
385 30 317 1 1 0
385 30 318 1 1 0
385 30 319 1 1 1
385 30 320 1 1 1
385 30 321 1 1 1
385 30 322 1 1 1
385 30 323 1 1 1
385 30 324 1 1 1
385 30 325 1 1 1
385 30 326 1 1 1
385 30 327 1 1 1
384 30 327 1 1 1
384 30 328 1 1 1
384 30 329 1 1 1
384 31 314 1 1 0
384 31 315 1 1 1
384 31 316 1 1 1
384 31 317 1 1 1
384 31 318 1 1 1
384 31 319 1 1 1
384 31 320 1 1 1
384 31 321 1 1 1
384 31 322 1 1 1
384 31 323 1 1 1
384 31 324 1 1 1
384 31 325 1 1 1
384 31 326 1 1 1
384 31 327 1 1 1
384 31 328 1 1 1
384 31 329 1 1 1
384 29 330 1 1 1
384 29 331 1 1 1
384 29 332 1 1 1
384 30 330 1 1 1
384 14 292 0 0 0
384 14 293 0 0 0
384 14 294 0 0 0
384 14 295 1 0 0
384 14 296 1 0 0
384 14 297 1 0 0
384 14 298 1 0 0
384 13 298 1 0 0
384 16 291 1 0 0
384 16 292 1 0 0
385 15 293 0 0 0
385 15 294 0 0 0
385 15 295 0 0 0
385 14 295 0 0 0
385 14 296 0 0 0
385 14 297 0 0 0
385 14 298 1 0 0
385 13 298 1 0 0
384 15 292 1 0 0
384 15 292 1 0 0
384 15 293 1 0 0
384 15 294 1 0 0
384 15 295 1 0 0
385 15 296 1 0 0
385 15 297 1 0 0
385 14 298 1 0 0
386 15 298 0 0 0
385 14 292 1 0 0
385 14 293 1 0 0
385 14 293 1 0 0
385 14 294 1 0 0
385 14 295 1 0 0
385 14 295 1 0 0
385 14 296 1 0 0
385 14 296 1 0 0
385 14 297 1 0 0
385 15 298 1 0 0
386 17 298 1 0 0
384 13 299 1 0 0
384 13 300 1 0 0
384 13 301 1 0 0
384 13 302 1 0 0
384 13 303 1 0 0
384 13 304 1 0 0
384 13 305 1 0 0
384 13 306 0 0 0
384 13 307 0 0 0
384 13 308 0 0 0
384 13 309 0 0 0
384 13 310 0 0 0
384 13 311 0 0 0
384 13 312 0 0 0
384 13 313 0 0 0
384 13 314 0 0 0
385 13 299 1 0 0
385 13 300 1 0 0
385 13 301 1 0 0
385 13 302 1 0 0
385 13 303 1 0 0
385 13 304 1 0 0
385 13 305 1 0 0
385 13 306 0 0 0
385 13 307 0 0 0
385 13 308 0 0 0
385 13 309 0 0 0
385 13 310 0 0 0
385 13 311 0 0 0
385 13 312 0 0 0
385 13 313 0 0 0
385 13 314 0 0 0
386 15 299 0 0 0
386 15 300 1 0 0
386 14 301 1 0 0
386 14 302 0 0 0
386 14 303 0 0 0
386 14 304 0 0 0
386 14 305 0 0 0
386 14 306 0 0 0
386 14 307 0 0 0
386 14 308 0 0 0
386 14 309 0 0 0
386 14 310 0 0 0
386 14 311 0 0 0
386 14 312 0 0 0
386 14 313 0 0 0
386 14 314 0 0 0
387 16 299 0 0 0
387 16 300 0 0 0
387 16 301 0 0 0
387 16 302 0 0 0
387 16 303 0 0 0
387 16 304 0 0 0
387 16 305 0 0 0
387 16 306 0 0 0
387 16 307 0 0 0
387 16 308 0 0 0
387 16 309 0 0 0
387 16 310 0 0 0
387 16 311 0 0 0
387 16 312 0 0 0
387 16 313 0 0 0
387 16 314 0 0 0
384 13 315 0 0 0
384 13 316 0 0 0
384 13 317 0 0 0
384 13 318 0 0 0
384 13 319 0 0 0
384 13 320 0 0 0
384 13 321 0 0 0
384 13 322 0 0 0
384 13 323 0 0 0
384 13 324 0 0 0
384 13 325 0 0 0
384 13 326 0 0 0
384 13 327 0 0 0
384 13 328 0 0 0
384 13 329 0 0 0
384 13 330 0 0 0
385 13 315 0 0 0
385 13 316 0 0 0
385 13 317 0 0 0
385 13 318 0 0 0
385 13 319 0 0 0
385 13 320 0 0 0
385 13 321 0 0 0
385 13 322 0 0 0
385 13 323 0 0 0
385 13 324 0 0 0
385 13 325 0 0 0
385 13 326 0 0 0
385 13 327 0 0 0
385 13 328 0 0 0
385 13 329 0 0 0
385 13 330 0 0 0
386 14 315 0 0 0
386 14 316 0 0 0
386 14 317 0 0 0
386 14 318 0 0 0
386 14 319 0 0 0
386 14 320 0 0 0
386 14 321 0 0 0
386 14 322 0 0 0
386 14 323 0 0 0
386 14 324 0 0 0
386 14 325 0 0 0
386 14 326 0 0 0
386 14 327 0 0 0
386 14 328 0 0 0
386 14 329 0 0 0
386 14 330 0 0 0
387 16 315 0 0 0
387 16 316 0 0 0
387 16 317 0 0 0
387 16 318 0 0 0
387 16 319 0 0 0
387 16 320 0 0 0
387 16 321 0 0 0
387 16 322 0 0 0
387 16 323 0 0 0
387 16 324 0 0 0
387 16 325 0 0 0
387 16 326 0 0 0
387 16 327 0 0 0
387 16 328 0 0 0
387 16 329 0 0 0
387 16 330 0 0 0
384 12 331 0 0 0
384 12 332 0 0 0
384 12 333 0 0 0
385 12 331 0 0 0
385 12 332 0 0 0
384 13 333 0 0 0
384 14 334 0 0 0
386 14 331 0 0 0
386 14 332 0 0 0
386 14 333 0 0 0
385 15 334 0 0 0
387 15 331 0 0 0
386 16 332 0 0 0
386 16 333 0 0 0
385 16 333 0 0 0
