ply
format ascii 1.0
comment Created by Open3D
element vertex 412
property double x
property double y
property double z
property uchar red
property uchar green
property uchar blue
end_header
255 226 265 0 0 0
255 227 265 0 0 0
255 227 266 0 0 0
255 228 265 0 0 0
255 228 266 0 0 0
255 229 266 0 0 0
255 230 266 0 0 0
255 231 266 0 0 0
255 231 267 0 0 0
255 232 266 0 0 0
255 232 267 0 0 0
255 232 268 0 0 0
255 232 269 0 0 0
255 233 266 0 0 0
255 233 267 0 0 0
255 233 268 0 0 0
255 233 269 0 0 0
255 233 270 0 0 0
255 233 271 0 0 0
255 234 266 0 0 0
255 234 267 0 0 0
255 234 268 0 0 0
254 234 269 0 0 0
255 234 269 0 0 0
255 234 270 0 0 0
255 234 271 0 0 0
255 234 272 0 0 0
255 235 266 0 0 0
255 235 267 0 0 0
255 235 268 0 0 0
254 235 269 0 0 0
255 235 269 0 0 0
254 235 270 0 0 0
255 235 270 0 0 0
254 235 271 0 0 0
255 235 271 0 0 0
255 235 272 0 0 0
255 235 273 0 0 0
255 236 266 0 0 0
255 236 267 0 0 0
254 236 268 0 0 0
255 236 268 0 0 0
254 236 269 0 0 0
255 236 269 0 0 0
254 236 270 0 0 0
255 236 270 0 0 0
254 236 271 0 0 0
254 236 272 0 0 0
255 236 272 0 0 0
254 236 273 0 0 0
255 236 273 0 0 0
255 236 274 0 0 0
255 237 267 0 0 0
254 237 268 0 0 0
255 237 268 0 0 0
254 237 269 0 0 0
255 237 269 0 0 0
254 237 270 0 0 0
255 237 270 0 0 0
254 237 271 0 0 0
255 237 271 0 0 0
254 237 272 0 0 0
255 237 272 0 0 0
254 237 273 0 0 0
255 237 273 0 0 0
255 237 274 0 0 0
255 238 267 0 0 0
255 238 268 0 0 0
254 238 269 0 0 0
255 238 269 0 0 0
254 238 270 0 0 0
255 238 270 0 0 0
254 238 271 0 0 0
255 238 271 0 0 0
254 238 272 0 0 0
255 238 272 0 0 0
254 238 273 0 0 0
255 238 273 0 0 0
255 238 274 0 0 0
255 239 267 0 0 0
255 239 268 0 0 0
255 239 269 0 0 0
254 239 270 0 0 0
255 239 270 0 0 0
254 239 271 0 0 0
255 239 271 0 0 0
254 239 272 0 0 0
255 239 272 0 0 0
254 239 273 0 0 0
255 239 273 0 0 0
255 239 274 0 0 0
255 240 267 0 0 0
255 240 268 0 0 0
254 240 269 0 0 0
255 240 269 0 0 0
254 240 270 0 0 0
255 240 270 0 0 0
254 240 271 0 0 0
255 240 271 0 0 0
254 240 272 0 0 0
255 240 272 0 0 0
254 240 273 0 0 0
255 240 273 0 0 0
255 240 274 0 0 0
255 241 267 0 0 0
255 241 268 0 0 0
254 241 269 0 0 0
255 241 269 0 0 0
254 241 270 0 0 0
255 241 270 0 0 0
254 241 271 0 0 0
255 241 271 0 0 0
254 241 272 0 0 0
255 241 272 0 0 0
254 241 273 0 0 0
255 241 273 0 0 0
254 241 274 0 0 0
255 241 274 0 0 0
255 242 267 0 0 0
255 242 268 0 0 0
255 242 269 0 0 0
254 242 270 0 0 0
255 242 270 0 0 0
254 242 271 0 0 0
255 242 271 0 0 0
254 242 272 0 0 0
255 242 272 0 0 0
254 242 273 0 0 0
255 242 273 0 0 0
254 242 274 0 0 0
255 242 274 0 0 0
255 243 267 0 0 0
255 243 268 0 0 0
255 243 269 0 0 0
254 243 270 0 0 0
255 243 270 0 0 0
254 243 271 0 0 0
255 243 271 0 0 0
254 243 272 0 0 0
255 243 272 0 0 0
254 243 273 0 0 0
255 243 273 0 0 0
254 243 274 0 0 0
255 243 274 0 0 0
255 244 267 0 0 0
255 244 268 0 0 0
255 244 269 0 0 0
254 244 270 0 0 0
255 244 270 0 0 0
254 244 271 0 0 0
255 244 271 0 0 0
254 244 272 0 0 0
255 244 272 0 0 0
254 244 273 0 0 0
255 244 273 0 0 0
254 244 274 0 0 0
255 244 274 0 0 0
255 245 268 0 0 0
254 245 269 0 0 0
255 245 269 0 0 0
254 245 270 0 0 0
255 245 270 0 0 0
254 245 271 0 0 0
255 245 271 0 0 0
254 245 272 0 0 0
254 245 273 0 0 0
254 245 274 0 0 0
255 246 268 0 0 0
255 246 269 0 0 0
254 246 270 0 0 0
255 246 270 0 0 0
254 246 271 0 0 0
255 246 271 0 0 0
254 246 272 0 0 0
254 246 273 0 0 0
254 246 274 0 0 0
255 247 268 0 0 0
255 247 269 0 0 0
254 247 270 0 0 0
255 247 270 0 0 0
254 247 271 0 0 0
255 247 271 0 0 0
254 247 272 0 0 0
253 247 273 0 0 0
254 247 273 0 0 0
253 247 274 0 0 0
254 247 274 0 0 0
255 248 267 0 0 0
255 248 268 0 0 0
255 248 269 0 0 0
254 248 270 0 0 0
255 248 270 0 0 0
254 248 271 0 0 0
255 248 271 0 0 0
253 248 272 0 0 0
254 248 272 0 0 0
253 248 273 0 0 0
254 248 273 0 0 0
253 248 274 0 0 0
254 248 274 0 0 0
255 241 275 0 0 0
255 242 275 0 0 0
255 242 276 0 0 0
255 243 275 0 0 0
255 243 276 0 0 0
255 243 277 0 0 0
254 244 275 0 0 0
255 244 275 0 0 0
255 244 276 0 0 0
255 244 277 0 0 0
254 245 275 0 0 0
254 245 276 0 0 0
255 245 277 0 0 0
255 245 278 0 0 0
255 245 279 0 0 0
254 246 275 0 0 0
254 246 276 0 0 0
254 246 277 0 0 0
255 246 278 0 0 0
255 246 279 0 0 0
254 247 275 0 0 0
254 247 276 0 0 0
254 247 277 0 0 0
254 247 278 0 0 0
255 247 279 0 0 0
255 247 280 0 0 0
255 247 281 0 0 0
253 248 275 0 0 0
254 248 275 0 0 0
253 248 276 0 0 0
254 248 276 0 0 0
254 248 277 0 0 0
254 248 278 1 0 0
254 248 279 1 0 0
255 248 280 1 0 0
255 248 281 1 0 0
255 248 282 0 0 0
255 249 267 0 0 0
255 249 268 0 0 0
254 249 269 0 0 0
255 249 269 0 0 0
254 249 270 0 0 0
255 249 270 0 0 0
254 249 271 0 0 0
255 249 271 0 0 0
254 249 272 0 0 0
253 249 273 0 0 0
254 249 273 0 0 0
253 249 274 0 0 0
254 249 274 0 0 0
255 250 267 0 0 0
255 250 268 0 0 0
254 250 269 0 0 0
255 250 269 0 0 0
254 250 270 0 0 0
255 250 270 0 0 0
254 250 271 0 0 0
255 250 271 0 0 0
253 250 272 0 0 0
254 250 272 0 0 0
253 250 273 0 0 0
254 250 273 0 0 0
253 250 274 0 0 0
254 250 274 0 0 0
255 251 267 0 0 0
255 251 268 0 0 0
254 251 269 0 0 0
255 251 269 0 0 0
254 251 270 0 0 0
255 251 270 0 0 0
254 251 271 0 0 0
253 251 272 0 0 0
254 251 272 0 0 0
253 251 273 0 0 0
254 251 273 0 0 0
253 251 274 0 0 0
255 252 267 0 0 0
255 252 268 0 0 0
254 252 269 0 0 0
255 252 269 0 0 0
254 252 270 0 0 0
255 252 270 0 0 0
254 252 271 0 0 0
253 252 272 0 0 0
254 252 272 0 0 0
253 252 273 0 0 0
254 252 273 0 0 0
253 252 274 0 0 0
255 253 267 0 0 0
255 253 268 0 0 0
254 253 269 0 0 0
255 253 269 0 0 0
254 253 270 0 0 0
255 253 270 0 0 0
254 253 271 0 0 0
253 253 272 0 0 0
254 253 272 0 0 0
253 253 273 0 0 0
253 253 274 0 0 0
255 254 267 0 0 0
255 254 268 0 0 0
254 254 269 0 0 0
255 254 269 0 0 0
254 254 270 0 0 0
255 254 270 0 0 0
253 254 271 0 0 0
254 254 271 0 0 0
253 254 272 0 0 0
254 254 272 0 0 0
253 254 273 0 0 0
253 254 274 0 0 0
255 255 266 0 0 0
255 255 267 0 0 0
255 255 268 0 0 0
254 255 269 0 0 0
255 255 269 0 0 0
254 255 270 0 0 0
255 255 270 0 0 0
254 255 271 0 0 0
253 255 272 0 0 0
254 255 272 0 0 0
253 255 273 0 0 0
253 255 274 0 0 0
253 249 275 1 0 0
254 249 275 1 0 0
253 249 276 1 0 0
254 249 276 1 0 0
254 249 277 1 0 0
254 249 278 1 0 0
254 249 279 1 0 0
255 249 280 1 0 0
255 249 281 1 0 0
255 249 282 0 0 0
255 249 283 0 0 0
253 250 275 1 0 0
253 250 276 1 0 0
253 250 277 1 0 0
254 250 277 1 0 0
254 250 278 1 0 0
254 250 279 1 0 0
254 250 280 1 0 0
255 250 281 0 0 0
255 250 282 0 0 0
255 250 283 0 0 0
255 250 284 0 0 0
253 251 275 1 0 0
253 251 276 1 0 0
253 251 277 1 0 0
253 251 278 1 0 0
254 251 279 1 0 0
254 251 280 1 0 0
254 251 281 0 0 0
254 251 282 0 0 0
255 251 283 0 0 0
255 251 284 0 0 0
255 251 285 0 0 0
255 251 286 0 0 0
253 252 275 0 0 0
253 252 276 0 0 0
253 252 277 0 0 0
253 252 278 0 0 0
253 252 279 0 0 0
254 252 280 0 0 0
254 252 281 0 0 0
254 252 282 0 0 0
254 252 283 0 0 0
255 252 284 0 0 0
255 252 285 0 0 0
255 252 286 0 0 0
255 252 287 0 0 0
253 253 275 0 0 0
253 253 276 0 0 0
253 253 277 0 0 0
253 253 278 0 0 0
254 253 279 0 0 0
254 253 280 0 0 0
254 253 281 0 0 0
254 253 282 0 0 0
254 253 283 0 0 0
255 253 284 0 0 0
255 253 285 0 0 0
255 253 286 0 0 0
255 253 287 0 0 0
253 254 275 0 0 0
253 254 276 0 0 0
253 254 277 0 0 0
253 254 278 0 0 0
253 254 279 0 0 0
254 254 280 0 0 0
254 254 281 0 0 0
254 254 282 0 0 0
254 254 283 0 0 0
254 254 284 0 0 0
255 254 285 0 0 0
255 254 286 0 0 0
255 254 287 0 0 0
255 254 288 0 0 0
253 255 275 0 0 0
253 255 276 0 0 0
253 255 277 0 0 0
253 255 278 0 0 0
253 255 279 0 0 0
254 255 280 0 0 0
254 255 281 0 0 0
254 255 282 0 0 0
254 255 283 0 0 0
254 255 284 0 0 0
255 255 285 0 0 0
255 255 286 0 0 0
255 255 287 0 0 0
255 255 288 0 0 0
255 255 289 0 0 0
