ply
format ascii 1.0
comment Created by Open3D
element vertex 353
property double x
property double y
property double z
property uchar red
property uchar green
property uchar blue
end_header
384 68 230 0 0 0
384 68 231 0 0 0
384 68 232 0 0 0
384 68 233 0 0 0
384 69 230 0 0 0
384 69 231 0 0 0
384 69 232 0 0 0
384 69 233 0 0 0
384 70 229 0 0 0
384 70 230 0 0 0
385 70 231 0 0 0
385 70 232 0 0 0
385 70 233 0 0 0
384 71 229 0 0 0
385 71 230 0 0 0
385 71 231 0 0 0
385 71 232 0 0 0
385 71 233 0 0 0
384 72 229 0 0 0
385 72 230 0 0 0
385 72 231 0 0 0
385 72 232 0 0 0
385 72 233 0 0 0
384 73 229 0 0 0
385 73 230 0 0 0
386 73 231 0 0 0
386 73 232 0 0 0
386 73 233 0 0 0
384 74 229 0 0 0
385 74 230 0 0 0
386 74 231 0 0 0
385 74 231 0 0 0
386 74 232 0 0 0
385 74 232 0 0 0
386 74 233 0 0 0
385 74 233 0 0 0
384 75 229 0 0 0
385 75 230 0 0 0
386 75 231 0 0 0
385 75 231 0 0 0
386 75 232 0 0 0
385 75 232 0 0 0
385 75 233 0 0 0
384 76 229 0 0 0
385 76 230 0 0 0
385 76 231 0 0 0
385 76 232 0 0 0
385 76 233 0 0 0
384 69 234 0 0 0
384 70 234 0 0 0
384 70 235 0 0 0
384 71 234 0 0 0
384 71 235 0 0 0
384 71 236 0 0 0
385 72 234 0 0 0
384 72 235 0 0 0
384 72 236 0 0 0
384 72 237 0 0 0
385 73 234 0 0 0
385 73 235 0 0 0
384 73 236 0 0 0
384 73 237 0 0 0
384 73 238 0 0 0
384 73 239 0 0 0
385 74 234 0 0 0
385 74 235 0 0 0
385 74 236 0 0 0
384 74 236 0 0 0
384 74 237 0 0 0
384 74 238 0 0 0
384 74 239 0 0 0
384 74 240 0 0 0
385 75 234 0 0 0
385 75 235 0 0 0
384 75 235 0 0 0
385 75 236 0 0 0
384 75 236 0 0 0
384 75 237 0 0 0
384 75 238 0 0 0
384 75 239 0 0 0
384 75 240 0 0 0
384 75 241 0 0 0
384 75 242 0 0 0
385 76 234 0 0 0
384 76 234 0 0 0
385 76 235 0 0 0
384 76 235 0 0 0
384 76 236 0 0 0
384 76 237 0 0 0
384 76 238 0 0 0
384 76 239 0 0 0
384 76 240 0 0 0
384 76 241 0 0 0
384 76 242 0 0 0
384 77 229 0 0 0
385 77 230 0 0 0
384 77 230 0 0 0
385 77 231 0 0 0
384 77 231 0 0 0
385 77 232 0 0 0
384 77 232 0 0 0
385 77 233 0 0 0
384 77 233 0 0 0
384 78 229 0 0 0
385 78 230 0 0 0
384 78 230 0 0 0
385 78 231 0 0 0
384 78 231 0 0 0
385 78 232 0 0 0
384 78 232 0 0 0
385 78 233 0 0 0
384 78 233 0 0 0
384 79 229 0 0 0
385 79 230 0 0 0
384 79 230 0 0 0
385 79 231 0 0 0
384 79 231 0 0 0
384 79 232 0 0 0
384 79 233 0 0 0
384 80 229 0 0 0
385 80 230 0 0 0
384 80 230 0 0 0
385 80 231 0 0 0
384 80 231 0 0 0
384 80 232 0 0 0
384 80 233 0 0 0
384 81 229 0 0 0
385 81 230 0 0 0
384 81 230 0 0 0
385 81 231 0 0 0
384 81 231 0 0 0
384 81 232 0 0 0
384 81 233 0 0 0
384 82 228 0 0 0
384 82 229 0 0 0
385 82 230 0 0 0
384 82 230 0 0 0
384 82 231 0 0 0
384 82 232 0 0 0
384 82 233 0 0 0
384 83 228 0 0 0
385 83 229 0 0 0
384 83 229 0 0 0
385 83 230 0 0 0
384 83 230 0 0 0
384 83 231 0 0 0
384 83 232 0 0 0
384 83 233 0 0 0
384 84 228 0 0 0
385 84 229 0 0 0
384 84 229 0 0 0
385 84 230 0 0 0
384 84 230 0 0 0
384 84 231 0 0 0
384 84 232 0 0 0
384 85 227 0 0 0
384 85 228 0 0 0
385 85 229 0 0 0
384 85 229 0 0 0
385 85 230 0 0 0
384 85 230 0 0 0
384 85 231 0 0 0
384 85 232 0 0 0
384 86 227 0 0 0
384 86 228 0 0 0
385 86 229 0 0 0
384 86 229 0 0 0
385 86 230 0 0 0
384 86 230 0 0 0
384 86 231 0 0 0
384 86 232 0 0 0
384 87 227 0 0 0
385 87 228 0 0 0
384 87 228 0 0 0
385 87 229 0 0 0
384 87 229 0 0 0
385 87 230 0 0 0
384 87 230 0 0 0
384 87 231 0 0 0
384 87 232 0 0 0
384 88 227 0 0 0
385 88 228 0 0 0
384 88 228 0 0 0
385 88 229 0 0 0
384 88 229 0 0 0
385 88 230 0 0 0
384 88 230 0 0 0
384 88 231 0 0 0
384 89 226 0 0 0
384 89 227 0 0 0
385 89 228 0 0 0
384 89 228 0 0 0
385 89 229 0 0 0
384 89 229 0 0 0
384 89 230 0 0 0
384 89 231 0 0 0
384 90 227 0 0 0
384 90 228 0 0 0
384 90 229 0 0 0
384 90 230 0 0 0
384 91 227 0 0 0
384 91 228 0 0 0
384 91 229 0 0 0
384 77 234 0 0 0
384 77 235 0 0 0
384 77 236 0 0 0
384 77 237 0 0 0
384 77 238 0 0 0
384 77 239 0 0 0
384 77 240 0 0 0
384 77 241 0 0 0
384 77 242 0 0 0
384 77 243 0 0 0
384 77 244 0 0 0
384 77 245 0 0 0
384 77 246 0 0 0
384 78 234 0 0 0
384 78 235 0 0 0
384 78 236 0 0 0
384 78 240 0 0 0
384 78 241 0 0 0
384 78 242 0 0 0
384 78 243 0 0 0
384 78 244 0 0 0
384 78 245 0 0 0
384 78 246 0 0 0
384 78 247 0 0 0
384 79 234 0 0 0
384 79 235 0 0 0
384 79 242 0 0 0
384 79 243 0 0 0
384 79 244 0 0 0
384 79 245 0 0 0
384 79 246 0 0 0
384 79 247 0 0 0
384 79 248 0 0 0
384 80 243 0 0 0
384 80 244 0 0 0
384 80 245 0 0 0
384 80 246 0 0 0
384 80 247 0 0 0
384 80 248 0 0 0
384 81 245 0 0 0
384 81 246 0 0 0
384 81 247 0 0 0
384 81 248 0 0 0
384 81 249 0 0 0
384 82 244 0 0 0
384 82 245 0 0 0
384 82 246 0 0 0
384 82 247 0 0 0
384 82 248 0 0 0
384 83 245 0 0 0
384 83 246 0 0 0
384 83 247 0 0 0
384 83 248 0 0 0
384 83 249 0 0 0
384 84 244 0 0 0
384 84 245 0 0 0
384 84 246 0 0 0
384 84 247 0 0 0
384 84 248 0 0 0
384 84 249 0 0 0
384 85 242 0 0 0
384 85 243 0 0 0
384 85 244 0 0 0
384 85 245 0 0 0
384 85 246 0 0 0
384 85 247 0 0 0
384 85 248 0 0 0
384 85 249 0 0 0
384 86 241 0 0 0
384 86 242 0 0 0
384 86 243 0 0 0
384 86 244 0 0 0
384 86 245 0 0 0
384 86 246 0 0 0
384 86 247 0 0 0
384 86 248 0 0 0
384 86 249 0 0 0
384 87 240 0 0 0
384 87 241 0 0 0
384 87 242 0 0 0
384 87 243 0 0 0
384 87 244 0 0 0
384 87 245 0 0 0
384 87 246 0 0 0
384 87 247 0 0 0
384 87 248 0 0 0
384 87 249 0 0 0
384 88 240 0 0 0
384 88 241 0 0 0
384 88 242 0 0 0
384 88 243 0 0 0
384 88 244 0 0 0
384 88 245 0 0 0
384 88 246 0 0 0
384 88 247 0 0 0
384 88 248 0 0 0
384 88 249 0 0 0
384 89 239 0 0 0
384 89 240 0 0 0
384 89 241 0 0 0
384 89 242 0 0 0
384 89 243 0 0 0
384 89 244 0 0 0
384 89 245 0 0 0
384 89 246 0 0 0
384 89 247 0 0 0
384 89 248 0 0 0
384 89 249 0 0 0
384 90 237 0 0 0
384 90 238 0 0 0
384 90 239 0 0 0
384 90 240 0 0 0
384 90 241 0 0 0
384 90 242 0 0 0
384 90 243 0 0 0
384 90 244 0 0 0
384 90 245 0 0 0
384 90 246 0 0 0
384 90 247 0 0 0
384 90 248 0 0 0
384 90 249 0 0 0
384 91 237 0 0 0
384 91 239 0 0 0
384 91 240 0 0 0
384 91 241 0 0 0
384 91 242 0 0 0
384 91 243 0 0 0
384 91 244 0 0 0
384 91 245 0 0 0
384 91 246 0 0 0
384 91 247 0 0 0
384 91 248 0 0 0
384 91 249 0 0 0
384 92 243 0 0 0
384 92 244 0 0 0
384 92 245 0 0 0
384 92 246 0 0 0
384 84 250 0 0 0
384 85 250 0 0 0
384 85 251 0 0 0
384 86 250 0 0 0
384 87 250 0 0 0
384 87 251 0 0 0
384 87 252 0 0 0
384 88 250 0 0 0
384 88 251 0 0 0
384 88 252 0 0 0
384 89 250 0 0 0
384 89 251 0 0 0
384 90 250 0 0 0
