ply
format ascii 1.0
comment Created by Open3D
element vertex 537
property double x
property double y
property double z
property uchar red
property uchar green
property uchar blue
end_header
127 13 167 0 0 0
127 13 168 0 0 0
127 14 164 0 0 0
127 14 165 0 0 0
127 14 166 0 0 0
127 14 167 0 0 0
127 14 168 0 0 0
127 15 162 0 0 0
127 15 163 0 0 0
127 15 164 0 0 0
127 15 165 0 0 0
127 15 166 0 0 0
126 15 167 0 0 0
126 15 168 0 0 0
127 16 160 0 0 0
127 16 161 0 0 0
127 16 162 0 0 0
127 16 163 0 0 0
126 16 164 0 0 0
126 16 165 0 0 0
126 16 166 0 0 0
126 16 167 0 0 0
126 16 168 0 0 0
127 17 159 0 0 0
127 17 160 0 0 0
127 17 161 0 0 0
126 17 162 0 0 0
126 17 163 0 0 0
126 17 164 0 0 0
126 17 165 0 0 0
126 17 166 0 0 0
126 17 167 0 0 0
126 17 168 0 0 0
127 18 158 0 0 0
127 18 159 0 0 0
126 18 160 0 0 0
126 18 161 0 0 0
126 18 162 0 0 0
126 18 163 0 0 0
126 18 164 0 0 0
125 18 165 0 0 0
125 18 166 0 0 0
125 18 167 0 0 0
125 18 168 0 0 0
127 19 156 0 0 0
127 19 157 0 0 0
127 19 158 0 0 0
126 19 159 0 0 0
126 19 160 0 0 0
126 19 161 0 0 0
126 19 162 0 0 0
125 19 163 0 0 0
125 19 164 0 0 0
125 19 165 0 0 0
125 19 166 0 0 0
125 19 167 0 0 0
125 19 168 0 0 0
127 20 156 0 0 0
127 20 157 0 0 0
127 20 158 0 0 0
126 20 159 0 0 0
126 20 160 0 0 0
126 20 161 0 0 0
125 20 162 0 0 0
125 20 163 0 0 0
125 20 164 0 0 0
125 20 165 0 0 0
125 20 166 0 0 0
125 20 167 0 0 0
125 20 168 0 0 0
127 21 155 0 0 0
127 21 156 0 0 0
127 21 157 0 0 0
126 21 158 0 0 0
126 21 159 0 0 0
126 21 160 0 0 0
126 21 161 0 0 0
125 21 162 0 0 0
125 21 163 0 0 0
125 21 164 0 0 0
125 21 165 0 0 0
125 21 166 0 0 0
125 21 167 0 0 0
125 21 168 0 0 0
127 22 156 0 0 0
127 22 157 0 0 0
127 22 158 0 0 0
126 22 159 0 0 0
126 22 160 0 0 0
126 22 161 0 0 0
126 22 162 0 0 0
125 22 163 0 0 0
125 22 164 0 0 0
125 22 165 0 0 0
125 22 166 0 0 0
125 22 167 0 0 0
125 22 168 0 0 0
127 12 170 0 0 0
127 12 171 0 0 0
127 12 172 0 0 0
127 12 173 0 0 0
127 12 174 0 0 0
127 12 175 0 0 0
127 12 176 0 0 0
127 13 169 0 0 0
127 13 170 0 0 0
127 13 171 0 0 0
127 13 172 0 0 0
127 13 173 0 0 0
127 13 174 0 0 0
127 13 175 0 0 0
127 13 176 0 0 0
127 13 177 0 0 0
127 13 178 0 0 0
127 13 179 0 0 0
127 13 180 0 0 0
127 13 181 0 0 0
127 14 169 0 0 0
127 14 170 0 0 0
126 14 171 0 0 0
126 14 172 0 0 0
126 14 173 0 0 0
126 14 174 0 0 0
127 14 175 0 0 0
127 14 176 0 0 0
127 14 177 0 0 0
127 14 178 0 0 0
127 14 179 0 0 0
127 14 180 0 0 0
127 14 181 0 0 0
127 14 182 0 0 0
127 14 183 0 0 0
127 14 184 0 0 0
126 15 169 0 0 0
126 15 170 0 0 0
126 15 171 0 0 0
126 15 172 0 0 0
126 15 173 0 0 0
126 15 174 0 0 0
126 15 175 0 0 0
126 15 176 0 0 0
126 15 177 0 0 0
126 15 178 0 0 0
126 15 179 0 0 0
127 15 180 0 0 0
127 15 181 0 0 0
127 15 182 0 0 0
127 15 183 0 0 0
127 15 184 0 0 0
126 16 169 0 0 0
126 16 170 0 0 0
126 16 171 0 0 0
126 16 172 0 0 0
126 16 173 0 0 0
126 16 174 0 0 0
126 16 175 0 0 0
126 16 176 0 0 0
126 16 177 0 0 0
126 16 178 0 0 0
126 16 179 0 0 0
126 16 180 0 0 0
126 16 181 0 0 0
126 16 182 0 0 0
126 16 183 0 0 0
127 16 184 0 0 0
125 17 169 0 0 0
125 17 170 0 0 0
125 17 171 0 0 0
125 17 172 0 0 0
125 17 173 0 0 0
125 17 174 0 0 0
125 17 175 0 0 0
125 17 176 0 0 0
126 17 177 0 0 0
126 17 178 0 0 0
126 17 179 0 0 0
126 17 180 0 0 0
126 17 181 0 0 0
126 17 182 0 0 0
126 17 183 0 0 0
126 17 184 0 0 0
125 18 169 0 0 0
125 18 170 0 0 0
125 18 171 0 0 0
125 18 172 0 0 0
125 18 173 0 0 0
125 18 174 0 0 0
125 18 175 0 0 0
125 18 176 0 0 0
125 18 177 0 0 0
125 18 178 0 0 0
125 18 179 0 0 0
125 18 180 0 0 0
126 18 181 0 0 0
126 18 182 0 0 0
126 18 183 0 0 0
126 18 184 0 0 0
125 19 169 0 0 0
125 19 170 0 0 0
125 19 171 0 0 0
125 19 172 0 0 0
125 19 173 0 0 0
125 19 174 0 0 0
125 19 175 0 0 0
125 19 176 0 0 0
125 19 177 0 0 0
125 19 178 0 0 0
125 19 179 0 0 0
125 19 180 0 0 0
125 19 181 0 0 0
125 19 182 0 0 0
125 19 183 0 0 0
125 19 184 0 0 0
125 20 169 0 0 0
125 20 170 0 0 0
125 20 171 0 0 0
125 20 172 0 0 0
125 20 173 0 0 0
125 20 174 0 0 0
125 20 175 0 0 0
125 20 176 0 0 0
125 20 177 0 0 0
125 20 178 0 0 0
125 20 179 0 0 0
125 20 180 0 0 0
125 20 181 0 0 0
125 20 182 0 0 0
125 20 183 0 0 0
125 20 184 0 0 0
125 21 169 0 0 0
125 21 170 0 0 0
125 21 171 0 0 0
125 21 172 0 0 0
125 21 173 0 0 0
125 21 174 0 0 0
125 21 175 0 0 0
125 21 176 0 0 0
125 21 177 0 0 0
125 21 178 0 0 0
125 21 179 0 0 0
125 21 180 0 0 0
125 21 181 0 0 0
125 21 182 0 0 0
125 21 183 0 0 0
125 21 184 0 0 0
125 22 169 0 0 0
125 22 170 0 0 0
125 22 171 0 0 0
125 22 172 0 0 0
125 22 173 0 0 0
125 22 174 0 0 0
125 22 175 0 0 0
125 22 176 0 0 0
125 22 177 0 0 0
125 22 178 0 0 0
125 22 179 0 0 0
125 22 180 0 0 0
125 22 181 0 0 0
125 22 182 0 0 0
125 22 183 0 0 0
125 22 184 0 0 0
127 15 185 0 0 0
127 15 186 0 0 0
127 15 187 0 0 0
127 15 188 0 0 0
127 15 189 0 0 0
127 16 185 0 0 0
127 16 186 0 0 0
127 16 187 0 0 0
127 16 188 0 0 0
127 16 189 0 0 0
127 16 190 0 0 0
127 16 191 0 0 0
127 16 192 0 0 0
127 16 193 0 0 0
127 16 194 0 0 0
127 16 195 0 0 0
127 16 196 0 0 0
127 16 197 0 0 0
126 17 185 0 0 0
126 17 186 0 0 0
126 17 187 0 0 0
126 17 188 0 0 0
126 17 189 0 0 0
126 17 190 0 0 0
127 17 191 0 0 0
127 17 192 0 0 0
127 17 193 0 0 0
127 17 194 0 0 0
127 17 195 0 0 0
127 17 196 0 0 0
127 17 197 0 0 0
126 18 185 0 0 0
126 18 186 0 0 0
126 18 187 0 0 0
126 18 188 0 0 0
126 18 189 0 0 0
126 18 190 0 0 0
126 18 191 0 0 0
126 18 192 0 0 0
126 18 193 0 0 0
126 18 194 0 0 0
126 18 195 0 0 0
126 18 196 0 0 0
126 18 197 0 0 0
127 18 198 0 0 0
125 19 185 0 0 0
126 19 186 0 0 0
126 19 187 0 0 0
126 19 188 0 0 0
126 19 189 0 0 0
126 19 190 0 0 0
126 19 191 0 0 0
126 19 192 0 0 0
126 19 193 0 0 0
126 19 194 0 0 0
126 19 195 0 0 0
126 19 196 0 0 0
126 19 197 0 0 0
127 19 198 0 0 0
127 19 199 0 0 0
125 20 185 0 0 0
125 20 186 0 0 0
125 20 187 0 0 0
125 20 188 0 0 0
125 20 189 0 0 0
125 20 190 0 0 0
126 20 191 0 0 0
126 20 192 0 0 0
126 20 193 0 0 0
126 20 194 0 0 0
126 20 195 0 0 0
126 20 196 0 0 0
126 20 197 0 0 0
126 20 198 0 0 0
127 20 199 0 0 0
125 21 185 0 0 0
125 21 186 0 0 0
125 21 187 0 0 0
125 21 188 0 0 0
125 21 189 0 0 0
125 21 190 0 0 0
125 21 191 0 0 0
125 21 192 0 0 0
125 21 193 0 0 0
125 21 194 0 0 0
125 21 195 0 0 0
125 21 196 0 0 0
125 21 197 0 0 0
126 21 198 0 0 0
127 21 199 0 0 0
127 21 200 0 0 0
125 22 185 0 0 0
125 22 186 0 0 0
125 22 187 0 0 0
125 22 188 0 0 0
125 22 189 0 0 0
125 22 190 0 0 0
125 22 191 0 0 0
125 22 192 0 0 0
125 22 193 0 0 0
125 22 194 0 0 0
125 22 195 0 0 0
125 22 196 0 0 0
125 22 197 0 0 0
126 22 198 0 0 0
127 22 199 0 0 0
127 22 200 0 0 0
127 23 156 0 0 0
127 23 157 0 0 0
127 23 158 0 0 0
126 23 159 0 0 0
126 23 160 0 0 0
126 23 161 0 0 0
126 23 162 0 0 0
126 23 163 0 0 0
126 23 164 0 0 0
126 23 165 0 0 0
126 23 166 0 0 0
126 23 167 0 0 0
126 23 168 0 0 0
127 24 158 0 0 0
127 24 159 0 0 0
127 24 160 0 0 0
127 24 161 0 0 0
126 24 162 0 0 0
126 24 163 0 0 0
126 24 164 0 0 0
126 24 165 0 0 0
126 24 166 1 0 0
126 24 167 1 0 0
126 24 168 1 0 0
127 25 162 1 0 0
127 25 163 1 0 0
127 25 164 1 0 0
127 25 165 1 0 0
127 25 166 1 0 0
127 25 167 1 0 0
127 25 168 1 0 0
126 23 169 0 0 0
126 23 170 0 0 0
126 23 171 0 0 0
126 23 172 0 0 0
126 23 173 0 0 0
126 23 174 0 0 0
126 23 175 0 0 0
126 23 176 0 0 0
126 23 177 0 0 0
126 23 178 0 0 0
126 23 179 0 0 0
126 23 180 0 0 0
126 23 181 0 0 0
126 23 182 0 0 0
126 23 183 0 0 0
126 23 184 0 0 0
126 24 169 0 0 0
126 24 170 1 0 0
126 24 171 0 0 0
126 24 172 0 0 0
126 24 173 0 0 0
126 24 174 0 0 0
126 24 175 0 0 0
126 24 176 0 0 0
126 24 177 0 0 0
126 24 178 0 0 0
126 24 179 0 0 0
126 24 180 0 0 0
126 24 181 0 0 0
126 24 182 0 0 0
126 24 183 0 0 0
126 24 184 0 0 0
127 25 169 1 0 0
127 25 170 1 0 0
127 25 171 0 0 0
127 25 172 0 0 0
127 25 173 0 0 0
127 25 174 0 0 0
127 25 175 0 0 0
127 25 176 0 0 0
127 25 177 0 0 0
127 25 178 0 0 0
127 25 179 0 0 0
127 25 180 0 0 0
127 25 181 0 0 0
126 25 182 0 0 0
126 25 183 0 0 0
126 25 184 0 0 0
127 26 173 0 0 0
127 26 174 0 0 0
127 26 175 0 0 0
127 26 176 0 0 0
127 26 177 0 0 0
127 26 178 0 0 0
127 26 179 0 0 0
127 26 180 0 0 0
127 26 181 0 0 0
127 26 182 0 0 0
127 26 183 0 0 0
127 26 184 0 0 0
126 23 185 0 0 0
126 23 186 0 0 0
126 23 187 0 0 0
126 23 188 0 0 0
126 23 189 0 0 0
126 23 190 0 0 0
126 23 191 0 0 0
126 23 192 0 0 0
126 23 193 0 0 0
126 23 194 0 0 0
126 23 195 0 0 0
126 23 196 0 0 0
126 23 197 0 0 0
126 23 198 0 0 0
126 23 199 0 0 0
126 23 200 0 0 0
126 24 185 0 0 0
126 24 186 0 0 0
126 24 187 0 0 0
126 24 188 0 0 0
126 24 189 0 0 0
126 24 190 0 0 0
126 24 191 0 0 0
126 24 192 0 0 0
126 24 193 0 0 0
126 24 194 0 0 0
126 24 195 0 0 0
126 24 196 0 0 0
126 24 197 0 0 0
126 24 198 0 0 0
126 24 199 0 0 0
126 24 200 0 0 0
126 25 185 0 0 0
126 25 186 0 0 0
126 25 187 0 0 0
126 25 188 0 0 0
126 25 189 0 0 0
126 25 190 0 0 0
126 25 191 0 0 0
126 25 192 0 0 0
126 25 193 0 0 0
126 25 194 0 0 0
126 25 195 0 0 0
126 25 196 0 0 0
126 25 197 0 0 0
126 25 198 0 0 0
126 25 199 0 0 0
127 25 200 0 0 0
127 26 185 0 0 0
127 26 186 0 0 0
127 26 187 0 0 0
127 26 188 0 0 0
127 26 189 0 0 0
127 26 190 0 0 0
127 26 191 0 0 0
127 26 192 0 0 0
127 26 193 0 0 0
127 26 194 0 0 0
127 26 195 0 0 0
126 26 196 0 0 0
126 26 197 0 0 0
127 26 198 0 0 0
127 26 199 0 0 0
127 26 200 0 0 0
127 27 187 0 0 0
127 27 188 0 0 0
127 27 189 0 0 0
127 27 190 0 0 0
127 27 191 0 0 0
127 27 192 0 0 0
127 27 193 0 0 0
127 27 194 1 0 0
127 27 195 1 0 0
127 27 196 1 0 0
127 27 197 1 0 0
127 27 198 1 0 0
127 27 199 1 0 0
127 24 201 0 0 0
