ply
format ascii 1.0
comment Created by Open3D
element vertex 1686
property double x
property double y
property double z
property uchar red
property uchar green
property uchar blue
end_header
241 465 433 0 0 0
243 467 432 0 0 0
244 467 433 0 0 0
245 467 433 0 0 0
246 467 433 0 0 0
246 467 434 0 0 0
246 467 433 0 0 0
247 467 434 0 0 0
247 467 433 0 0 0
248 467 434 0 0 0
248 467 433 0 0 0
243 467 432 0 0 0
244 467 432 0 0 0
244 468 432 0 0 0
245 468 433 0 0 0
246 468 433 0 0 0
247 468 433 0 0 0
247 468 433 0 0 0
247 468 433 0 0 0
248 468 433 0 0 0
243 468 432 0 0 0
244 468 432 0 0 0
243 467 433 0 0 0
244 467 434 0 0 0
245 467 434 0 0 0
246 467 434 0 0 0
247 467 434 0 0 0
248 467 434 0 0 0
243 469 431 0 0 0
244 468 432 0 0 0
243 468 433 0 0 0
244 468 433 0 0 0
245 468 434 0 0 0
246 468 434 0 0 0
247 468 434 0 0 0
248 468 434 0 0 0
243 470 431 0 0 0
244 470 431 0 0 0
243 469 433 0 0 0
244 469 433 0 0 0
245 469 433 0 0 0
246 469 434 0 0 0
246 469 433 0 0 0
247 469 434 0 0 0
248 469 434 0 0 0
243 471 430 0 0 0
244 471 431 0 0 0
243 470 432 0 0 0
244 470 433 0 0 0
245 470 433 0 0 0
246 470 433 0 0 0
247 470 434 0 0 0
248 470 434 0 0 0
243 472 430 0 0 0
244 472 430 0 0 0
243 471 432 0 0 0
244 471 432 0 0 0
245 471 433 0 0 0
246 471 433 0 0 0
247 471 433 0 0 0
248 471 434 0 0 0
248 471 433 0 0 0
243 473 430 0 0 0
244 472 430 0 0 0
243 472 432 0 0 0
244 472 432 0 0 0
245 472 433 0 0 0
246 472 433 0 0 0
247 472 434 0 0 0
247 472 433 0 0 0
248 472 434 0 0 0
248 472 433 0 0 0
249 467 433 0 0 0
250 467 433 0 0 0
250 467 432 0 0 0
251 467 432 0 0 0
252 465 433 0 0 0
252 465 432 0 0 0
253 465 433 0 0 0
253 465 432 0 0 0
254 465 432 0 0 0
255 465 432 0 0 0
249 468 433 0 0 0
250 468 433 0 0 0
250 468 432 0 0 0
251 468 432 0 0 0
252 466 433 0 0 0
252 466 432 0 0 0
253 466 433 0 0 0
253 466 432 0 0 0
254 466 433 0 0 0
254 466 432 0 0 0
255 466 433 0 0 0
255 466 432 0 0 0
249 467 434 0 0 0
250 467 434 0 0 0
250 467 433 0 0 0
251 467 434 0 0 0
251 467 433 0 0 0
252 467 433 0 0 0
252 467 432 0 0 0
253 467 433 0 0 0
253 467 432 0 0 0
254 467 434 0 0 0
254 467 433 0 0 0
255 467 434 0 0 0
255 467 433 0 0 0
249 468 434 0 0 0
249 468 433 0 0 0
250 468 434 0 0 0
250 468 433 0 0 0
251 468 434 0 0 0
251 468 433 0 0 0
252 468 433 0 0 0
253 468 434 0 0 0
253 468 433 0 0 0
254 468 434 0 0 0
254 468 433 0 0 0
254 468 432 0 0 0
254 468 432 0 0 0
254 468 432 0 0 0
254 468 432 0 0 0
249 469 434 0 0 0
249 469 433 0 0 0
250 469 434 0 0 0
250 469 433 0 0 0
251 469 434 0 0 0
251 469 433 0 0 0
252 469 434 0 0 0
253 469 435 0 0 0
253 469 434 0 0 0
254 469 434 0 0 0
253 469 432 0 0 0
253 469 432 0 0 0
254 469 432 0 0 0
254 469 432 0 0 0
249 470 434 0 0 0
250 470 434 0 0 0
250 470 433 0 0 0
251 470 434 0 0 0
251 470 433 0 0 0
252 470 434 0 0 0
253 470 434 0 0 0
254 470 434 0 0 0
254 470 433 0 0 0
253 470 432 0 0 0
253 470 432 0 0 0
254 470 432 0 0 0
249 471 434 0 0 0
249 471 433 0 0 0
250 471 434 0 0 0
250 471 433 0 0 0
251 471 434 0 0 0
251 471 433 0 0 0
252 471 434 0 0 0
252 471 433 0 0 0
253 471 434 0 0 0
253 471 433 0 0 0
254 471 434 0 0 0
254 471 433 0 0 0
253 471 432 0 0 0
254 471 431 0 0 0
254 471 431 0 0 0
249 472 434 0 0 0
249 472 433 0 0 0
250 472 434 0 0 0
250 472 433 0 0 0
251 472 434 0 0 0
251 472 433 0 0 0
252 472 434 0 0 0
252 472 433 0 0 0
253 472 434 0 0 0
253 472 433 0 0 0
254 472 433 0 0 0
253 471 431 0 0 0
253 471 431 0 0 0
254 471 431 0 0 0
254 471 431 0 0 0
243 474 430 0 0 0
244 473 430 0 0 0
243 473 432 0 0 0
244 473 432 0 0 0
245 473 433 0 0 0
246 473 433 0 0 0
247 473 433 1 0 0
248 473 434 1 0 0
248 473 433 1 0 0
243 475 429 0 0 0
243 474 430 0 0 0
243 474 432 0 0 0
244 474 432 0 0 0
245 474 433 0 0 0
246 474 433 1 0 0
247 474 433 1 0 0
248 474 433 1 0 0
242 475 428 0 0 0
243 475 429 0 0 0
243 475 432 0 0 0
244 475 432 0 0 0
245 475 433 0 0 0
246 475 433 1 1 0
247 475 433 1 1 1
248 475 433 1 1 1
242 476 428 0 0 0
243 476 429 0 0 0
243 476 431 0 0 0
244 476 432 0 0 0
245 476 433 1 0 0
246 476 433 1 1 1
247 476 433 1 1 1
248 476 433 1 1 1
248 476 432 1 1 1
239 478 426 0 0 0
240 478 426 0 0 0
240 478 427 0 0 0
241 477 427 0 0 0
242 477 428 0 0 0
243 477 429 0 0 0
243 477 431 0 0 0
244 477 432 0 0 0
245 477 432 1 1 1
246 477 433 1 1 1
246 477 432 1 1 1
247 477 433 1 1 1
247 477 432 1 1 1
248 477 432 1 1 1
239 479 425 0 0 0
240 479 426 0 0 0
240 479 427 0 0 0
240 478 428 0 0 0
241 478 429 0 0 0
243 478 428 0 0 0
243 478 431 0 0 0
244 478 431 1 0 0
245 478 432 1 1 1
246 478 432 1 1 1
247 478 432 1 1 1
248 478 432 1 1 1
248 478 431 1 1 1
239 480 425 0 0 0
238 479 426 0 0 0
239 479 427 0 0 0
240 479 428 0 0 0
241 479 429 0 0 0
242 479 429 0 0 0
243 479 430 0 0 0
244 479 431 1 1 1
245 479 432 1 1 1
246 479 432 1 1 1
246 479 431 1 1 1
247 479 432 1 1 1
247 479 431 1 1 1
248 479 431 1 1 1
237 480 425 0 0 0
238 480 426 0 0 0
239 480 427 0 0 0
240 480 427 0 0 0
241 480 428 0 0 0
242 480 429 0 0 0
243 480 430 1 0 0
244 480 430 1 1 1
245 480 431 1 1 1
246 480 431 1 1 1
247 480 431 1 1 1
247 480 430 1 1 1
248 480 431 1 1 1
248 480 430 1 1 1
239 482 424 0 0 0
238 481 426 0 0 0
239 481 426 0 0 0
240 481 427 0 0 0
241 481 428 0 0 0
242 481 429 0 0 0
243 481 429 1 1 1
244 481 430 1 1 1
245 481 431 1 1 1
246 481 431 1 1 1
247 481 430 1 1 1
248 481 430 1 1 1
248 481 429 1 1 1
239 482 424 0 0 0
238 482 425 0 0 0
239 482 426 0 0 0
240 482 427 0 0 0
241 482 428 0 0 0
242 482 428 0 0 0
243 482 429 1 1 1
244 482 429 1 1 1
245 482 430 1 1 1
246 482 430 1 1 1
247 482 430 1 1 1
248 482 429 1 1 1
239 483 423 0 0 0
240 483 424 0 0 0
239 483 425 0 0 0
240 483 426 0 0 0
241 483 427 0 0 0
242 483 428 1 0 0
243 483 428 1 1 1
244 483 429 1 1 1
245 483 430 1 1 1
246 483 430 1 1 1
247 483 429 1 1 1
248 483 429 1 1 1
248 483 428 1 1 1
239 484 423 0 0 0
240 484 423 0 0 0
239 484 425 0 0 0
240 484 426 0 0 0
241 484 427 0 0 0
242 484 427 1 1 1
243 484 428 1 1 1
244 484 429 1 1 1
245 484 430 1 1 1
246 484 429 1 1 1
247 484 429 1 1 1
248 484 428 1 1 1
239 484 423 0 0 0
240 484 423 0 0 0
239 485 425 0 0 0
240 485 425 0 0 0
241 485 426 0 0 0
242 485 427 1 1 1
243 485 428 1 1 1
244 485 428 1 1 1
245 485 429 1 1 1
246 485 429 1 1 1
247 485 428 1 1 1
248 485 428 1 1 1
248 485 427 1 1 1
239 485 422 0 0 0
240 485 422 0 0 0
239 486 424 0 0 0
240 486 425 0 0 0
241 486 426 0 0 0
242 486 426 1 1 1
243 486 427 1 1 1
244 486 427 1 1 1
245 486 428 1 1 1
246 486 428 1 1 1
247 486 427 1 1 1
248 486 427 1 0 1
248 486 426 1 0 1
239 486 421 0 0 0
240 486 422 0 0 0
239 487 424 0 0 0
239 487 423 0 0 0
240 487 424 0 0 0
241 487 425 1 0 0
242 487 425 1 1 1
243 487 426 1 1 1
244 487 427 1 1 1
244 487 426 1 1 1
245 487 427 1 1 1
246 487 427 1 1 1
247 487 427 1 1 1
247 487 426 1 1 1
248 487 426 1 0 0
248 487 425 1 0 0
239 487 421 0 0 0
240 487 421 0 0 0
239 488 423 0 0 0
240 488 423 0 0 0
241 488 424 1 1 1
242 488 425 1 1 1
242 488 424 1 1 1
243 488 425 1 1 1
244 488 426 1 1 1
244 488 425 1 1 1
245 488 426 1 1 1
246 488 426 1 1 1
247 488 426 1 1 1
247 488 425 1 1 1
248 488 425 1 0 0
249 473 434 0 0 0
249 473 433 0 0 0
250 473 434 0 0 0
250 473 433 0 0 0
251 473 433 0 0 0
252 473 433 0 0 0
252 473 432 0 0 0
253 473 433 0 0 0
253 473 432 0 0 0
254 473 433 0 0 0
254 473 432 0 0 0
253 472 431 0 0 0
254 472 431 0 0 0
254 472 431 0 0 0
249 474 433 0 0 0
250 474 433 0 0 0
251 474 433 0 0 0
251 474 432 0 0 0
252 474 433 0 0 0
252 474 432 0 0 0
253 474 433 0 0 0
253 474 432 0 0 0
254 474 432 0 0 0
253 473 431 0 0 0
253 473 430 0 0 0
254 473 431 0 0 0
254 473 431 0 0 0
249 475 433 0 0 0
249 475 432 0 0 0
250 475 433 0 0 0
250 475 432 0 0 0
251 474 431 0 0 0
251 474 431 0 0 0
252 475 431 0 0 0
252 474 431 0 0 0
253 475 431 0 0 0
253 474 431 0 0 0
253 474 430 0 0 0
253 474 431 0 0 0
254 474 431 0 0 0
254 474 430 0 0 0
249 476 432 0 0 0
250 476 432 0 0 0
251 475 431 0 0 0
251 476 431 0 0 0
251 475 430 0 0 0
252 476 430 0 0 0
252 475 430 0 0 0
253 476 430 0 0 0
253 475 430 0 0 0
253 475 430 0 0 0
253 475 430 0 0 0
254 475 430 0 0 0
254 475 430 0 0 0
249 477 432 0 0 0
249 477 431 0 0 0
250 477 431 0 0 0
250 476 430 0 0 0
251 476 430 0 0 0
252 477 430 0 0 0
249 478 431 0 0 0
250 478 431 0 0 0
250 478 430 0 0 0
250 477 429 0 0 0
251 477 429 0 0 0
252 478 429 0 0 0
249 479 430 0 0 0
250 479 430 0 0 0
250 478 429 0 0 0
251 479 429 0 0 0
252 479 429 0 0 0
252 479 428 0 0 0
249 480 430 0 0 0
249 480 429 0 0 0
250 480 429 0 0 0
251 480 429 0 0 0
251 480 428 0 0 0
252 480 428 0 0 0
252 480 427 0 0 0
249 481 429 1 0 0
250 481 428 0 0 0
251 481 428 0 0 0
251 481 427 0 0 0
250 481 427 0 0 0
252 481 426 0 0 0
249 482 428 1 0 0
250 482 428 0 0 0
250 482 427 0 0 0
251 482 427 0 0 0
251 482 426 0 0 0
250 482 426 0 0 0
249 483 427 1 0 0
250 483 427 0 0 0
250 483 426 0 0 0
251 483 426 0 0 0
251 483 425 0 0 0
250 483 425 0 0 0
249 484 427 1 0 0
250 484 426 0 0 0
251 484 425 0 0 0
250 484 425 0 0 0
250 484 425 0 0 0
249 485 426 1 0 0
250 485 425 0 0 0
249 485 424 0 0 0
250 485 424 0 0 0
250 485 424 0 0 0
249 486 425 1 0 0
250 486 425 0 0 0
250 486 424 0 0 0
249 485 424 0 0 0
249 486 424 1 0 0
250 486 423 0 0 0
250 486 423 0 0 0
249 487 425 1 0 0
250 487 424 1 0 0
249 486 423 0 0 0
250 486 423 0 0 0
250 487 423 1 0 0
249 488 424 1 0 0
250 488 423 1 0 0
249 487 422 0 0 0
249 488 422 0 0 0
250 487 422 0 0 0
250 488 422 0 0 0
239 489 420 0 0 0
240 488 421 0 0 0
240 489 420 0 0 0
239 489 422 0 0 0
240 489 422 0 0 0
241 489 423 1 1 1
242 489 424 1 1 1
242 489 423 1 1 1
243 489 424 1 1 1
244 489 424 1 1 1
245 489 425 1 1 1
246 489 425 1 1 1
247 489 426 1 1 1
247 489 425 1 1 1
248 489 426 1 0 0
248 489 425 1 0 0
239 490 420 0 0 0
239 490 420 0 0 0
240 490 420 0 0 0
239 490 422 0 0 0
239 490 421 0 0 0
240 490 422 0 0 0
240 490 421 0 0 0
241 490 423 1 1 1
241 490 422 1 1 1
242 490 423 1 1 1
242 490 422 1 1 1
243 490 423 1 1 1
244 490 424 1 1 1
244 490 423 1 1 1
245 490 424 1 1 1
246 490 424 1 1 1
247 490 425 1 0 1
247 490 424 1 0 1
248 490 425 1 0 0
248 490 424 1 0 0
239 491 419 0 0 0
240 491 420 1 0 0
240 491 420 1 0 0
239 491 421 0 0 0
239 491 420 0 0 0
240 491 421 1 0 0
240 491 420 1 0 0
241 491 422 1 1 1
241 491 421 1 1 1
242 491 422 1 1 1
242 491 421 1 1 1
243 491 423 1 1 1
243 491 422 1 1 1
244 491 423 1 1 1
244 491 422 1 1 1
245 491 423 1 1 1
245 491 422 1 1 1
246 491 423 1 0 0
247 491 424 1 0 0
247 491 423 1 0 0
248 491 424 1 0 0
248 491 423 1 0 0
239 492 419 0 0 0
239 492 419 0 0 0
240 492 419 0 0 0
240 492 419 0 0 0
239 492 420 0 0 0
240 492 420 0 0 0
241 492 421 1 1 1
241 492 420 1 1 1
242 492 421 1 1 1
243 492 422 1 1 1
243 492 421 1 1 1
244 492 422 1 1 1
244 492 421 1 1 1
245 492 422 1 1 1
245 492 421 1 1 1
246 492 422 1 0 0
247 492 423 0 0 0
247 492 422 0 0 0
248 492 423 0 0 0
248 492 422 0 0 0
239 493 419 0 0 0
239 493 419 0 0 0
240 493 419 0 0 0
240 493 419 0 0 0
239 493 420 0 0 0
239 493 419 0 0 0
240 493 420 0 0 0
240 493 419 0 0 0
241 493 421 1 1 1
241 493 420 1 1 1
242 493 421 1 1 1
242 493 420 1 1 1
243 493 421 1 1 1
244 493 421 1 1 1
245 493 422 1 1 1
245 493 421 1 1 1
246 493 422 0 0 0
246 493 421 0 0 0
247 493 422 0 0 0
248 493 423 0 0 0
248 493 422 0 0 0
239 494 418 0 0 0
239 494 418 0 0 0
239 494 418 0 0 0
239 494 420 0 0 0
239 494 419 0 0 0
240 494 420 0 0 0
240 494 419 0 0 0
241 494 420 1 1 1
242 494 421 1 1 1
242 494 420 1 1 1
243 494 421 1 1 1
243 494 420 1 1 1
244 494 421 1 1 1
244 494 420 1 1 1
245 494 422 1 1 1
245 494 421 1 1 1
246 494 422 0 0 0
246 494 421 0 0 0
247 494 422 0 0 0
247 494 421 0 0 0
248 494 422 0 0 0
239 495 418 0 0 0
239 495 417 0 0 0
239 495 418 0 0 0
238 495 418 0 0 0
239 495 419 0 0 0
239 495 418 0 0 0
240 495 419 0 0 0
241 495 420 1 1 1
241 495 419 1 1 1
242 495 420 1 1 1
242 495 419 1 1 1
243 495 421 1 1 1
243 495 420 1 1 1
244 495 421 1 1 1
244 495 420 1 1 1
245 495 421 1 0 0
245 495 420 1 0 0
246 495 421 0 0 0
247 495 422 0 0 0
247 495 421 0 0 0
248 495 422 0 0 0
248 495 421 0 0 0
238 496 417 0 0 0
239 496 418 0 0 0
239 496 417 0 0 0
239 496 419 0 0 0
239 496 418 0 0 0
240 496 419 0 0 0
240 496 418 0 0 0
241 496 420 1 0 1
241 496 419 1 0 1
242 496 420 1 1 1
242 496 419 1 1 1
243 496 420 1 1 1
243 496 419 1 1 1
244 496 420 1 1 1
245 496 421 0 0 0
245 496 420 0 0 0
246 496 421 0 0 0
246 496 420 0 0 0
247 496 421 0 0 0
248 496 421 0 0 0
236 498 414 0 0 0
235 498 414 0 0 0
236 497 416 0 0 0
236 497 416 0 0 0
237 497 416 0 0 0
237 497 416 0 0 0
237 497 416 0 0 0
238 497 417 0 0 0
238 497 416 0 0 0
239 497 417 0 0 0
238 497 417 0 0 0
239 497 418 0 0 0
240 497 418 0 0 0
241 497 419 1 0 0
241 497 418 1 0 0
242 497 419 1 1 1
243 497 420 1 1 1
243 497 419 1 1 1
244 497 420 1 0 0
244 497 419 1 0 0
245 497 420 0 0 0
246 497 421 0 0 0
246 497 420 0 0 0
247 497 421 0 0 0
247 497 420 0 0 0
248 497 421 0 0 0
248 497 420 0 0 0
235 499 413 0 0 0
236 498 416 0 0 0
236 498 415 0 0 0
237 498 416 0 0 0
237 498 415 0 0 0
237 498 416 0 0 0
236 498 416 0 0 0
238 498 417 0 0 0
238 498 416 0 0 0
239 498 417 0 0 0
238 498 417 0 0 0
239 498 418 0 0 0
239 498 417 0 0 0
240 498 418 0 0 0
240 498 417 0 0 0
241 498 419 1 0 0
241 498 418 1 0 0
242 498 419 1 0 1
242 498 418 1 0 1
243 498 419 1 0 0
244 498 419 0 0 0
245 498 420 0 0 0
245 498 419 0 0 0
246 498 420 0 0 0
246 498 419 0 0 0
247 498 420 0 0 0
248 498 421 0 0 0
248 498 420 0 0 0
233 499 413 0 0 0
233 499 412 0 0 0
234 499 416 0 0 0
234 499 415 0 0 0
235 499 416 0 0 0
235 499 415 0 0 0
236 499 416 0 0 0
237 499 417 0 0 0
237 499 416 0 0 0
238 499 417 0 0 0
239 499 418 0 0 0
239 499 417 0 0 0
240 499 418 0 0 0
240 499 417 0 0 0
241 499 418 0 0 0
241 499 417 0 0 0
242 499 419 1 0 0
242 499 418 1 0 0
243 499 419 1 0 0
243 499 418 1 0 0
244 499 419 0 0 0
244 499 418 0 0 0
245 499 419 0 0 0
246 499 420 0 0 0
246 499 419 0 0 0
247 499 420 0 0 0
247 499 419 0 0 0
248 499 420 0 0 0
248 499 419 0 0 0
233 500 412 0 0 0
234 500 416 0 0 0
234 500 415 0 0 0
235 500 416 0 0 0
235 500 415 0 0 0
236 500 416 0 0 0
236 500 415 0 0 0
237 500 417 0 0 0
237 500 416 0 0 0
238 500 417 0 0 0
238 500 416 0 0 0
239 500 417 0 0 0
239 500 416 0 0 0
240 500 417 0 0 0
241 500 418 0 0 0
241 500 417 0 0 0
242 500 418 0 0 0
242 500 417 0 0 0
243 500 419 0 0 0
243 500 418 0 0 0
244 500 419 0 0 0
244 500 418 0 0 0
245 500 419 0 0 0
245 500 418 0 0 0
246 500 419 0 0 0
247 500 420 0 0 0
247 500 419 0 0 0
248 500 420 0 0 0
248 500 419 0 0 0
233 501 412 0 0 0
233 501 411 0 0 0
234 501 415 0 0 0
235 501 415 0 0 0
236 501 416 0 0 0
236 501 415 0 0 0
237 501 416 0 0 0
238 501 417 0 0 0
238 501 416 0 0 0
239 501 417 0 0 0
239 501 416 0 0 0
240 501 417 0 0 0
240 501 416 0 0 0
241 501 418 0 0 0
241 501 417 0 0 0
242 501 418 0 0 0
242 501 417 0 0 0
243 501 418 0 0 0
243 501 417 0 0 0
244 501 418 0 0 0
245 501 419 0 0 0
245 501 418 0 0 0
246 501 419 0 0 0
246 501 418 0 0 0
247 501 419 0 0 0
248 501 420 0 0 0
248 501 419 0 0 0
233 502 411 0 0 0
234 502 415 0 0 0
234 502 414 0 0 0
235 502 415 0 0 0
235 502 414 0 0 0
236 502 416 0 0 0
236 502 415 0 0 0
237 502 416 0 0 0
237 502 415 0 0 0
238 502 416 0 0 0
238 502 415 0 0 0
239 502 416 0 0 0
240 502 416 0 0 0
240 502 415 0 0 0
241 502 417 0 0 0
241 502 416 0 0 0
242 502 417 0 0 0
242 502 416 0 0 0
243 502 417 0 0 0
243 502 416 0 0 0
244 502 417 0 0 0
245 502 418 0 0 0
245 502 417 0 0 0
246 502 418 0 0 0
246 502 417 0 0 0
247 502 418 0 0 0
247 502 417 0 0 0
248 502 418 0 0 0
235 503 412 0 0 0
235 502 414 0 0 0
235 503 413 0 0 0
235 503 415 0 0 0
235 503 414 0 0 0
236 503 415 0 0 0
237 503 416 0 0 0
237 503 415 0 0 0
238 503 416 0 0 0
238 503 415 0 0 0
239 503 416 0 0 0
239 503 415 0 0 0
240 503 416 0 0 0
240 503 415 0 0 0
241 503 416 0 0 0
241 503 415 0 0 0
242 503 416 0 0 0
243 502 415 0 0 0
244 502 415 0 0 0
244 502 416 0 0 0
244 502 415 0 0 0
245 502 416 0 0 0
245 502 415 0 0 0
245 502 416 0 0 0
245 502 415 0 0 0
246 502 416 0 0 0
235 504 412 0 0 0
235 504 411 0 0 0
235 503 414 0 0 0
235 504 413 0 0 0
235 504 415 0 0 0
235 504 414 0 0 0
236 504 415 0 0 0
236 504 414 0 0 0
237 504 415 0 0 0
238 504 415 0 0 0
239 504 415 0 0 0
240 504 415 0 0 0
240 504 414 0 0 0
241 504 416 0 0 0
241 504 415 0 0 0
242 504 416 0 0 0
242 504 415 0 0 0
243 503 415 0 0 0
243 503 414 0 0 0
244 503 415 0 0 0
244 503 414 0 0 0
244 503 415 0 0 0
244 503 414 0 0 0
245 503 415 0 0 0
245 503 414 0 0 0
245 502 415 0 0 0
245 503 414 0 0 0
246 502 415 0 0 0
246 502 414 0 0 0
235 505 411 0 0 0
235 506 410 0 0 0
235 505 412 0 0 0
234 505 412 0 0 0
235 505 415 0 0 0
235 505 414 0 0 0
236 505 415 0 0 0
236 505 414 0 0 0
237 505 415 0 0 0
237 505 414 0 0 0
238 505 415 0 0 0
238 505 414 0 0 0
239 505 414 0 0 0
240 505 414 0 0 0
240 505 413 0 0 0
241 505 414 0 0 0
241 505 413 0 0 0
242 505 414 0 0 0
242 505 413 0 0 0
243 504 413 0 0 0
243 505 413 0 0 0
243 504 413 0 0 0
244 505 413 0 0 0
235 506 411 0 0 0
235 506 412 0 0 0
235 506 412 0 0 0
235 506 414 0 0 0
236 506 414 0 0 0
237 506 414 0 0 0
237 506 413 0 0 0
238 506 414 0 0 0
238 506 413 0 0 0
239 506 414 0 0 0
239 506 413 0 0 0
240 506 413 0 0 0
241 506 413 0 0 0
242 506 413 0 0 0
242 506 412 0 0 0
243 506 413 0 0 0
243 506 412 0 0 0
243 505 412 0 0 0
244 506 412 0 0 0
235 507 411 0 0 0
235 507 410 0 0 0
235 507 412 0 0 0
235 507 412 0 0 0
235 507 414 0 0 0
235 507 413 0 0 0
236 507 414 0 0 0
236 507 413 0 0 0
237 507 414 0 0 0
237 507 413 0 0 0
238 507 413 0 0 0
239 507 413 0 0 0
239 507 412 0 0 0
240 507 413 0 0 0
240 507 412 0 0 0
241 507 412 0 0 0
242 507 412 0 0 0
242 507 411 0 0 0
243 507 412 0 0 0
243 507 411 0 0 0
243 506 411 0 0 0
235 508 410 0 0 0
235 508 410 0 0 0
235 508 412 0 0 0
235 508 411 0 0 0
235 508 414 0 0 0
235 508 413 0 0 0
236 508 413 0 0 0
237 508 413 0 0 0
237 508 412 0 0 0
238 508 413 0 0 0
238 508 412 0 0 0
239 508 412 0 0 0
239 508 411 0 0 0
240 508 412 0 0 0
240 508 411 0 0 0
241 508 411 0 0 0
242 508 411 0 0 0
242 508 410 0 0 0
243 508 410 0 0 0
242 508 410 0 0 0
242 508 410 0 0 0
235 509 410 0 0 0
235 510 409 0 0 0
235 509 411 0 0 0
235 509 410 0 0 0
235 509 412 0 0 0
235 509 411 0 0 0
236 509 413 0 0 0
236 509 412 0 0 0
237 509 413 0 0 0
237 509 412 0 0 0
238 509 412 0 0 0
239 509 412 0 0 0
239 509 411 0 0 0
240 509 411 0 0 0
241 509 411 0 0 0
241 509 410 0 0 0
242 509 411 0 0 0
242 509 410 0 0 0
243 509 410 0 0 0
243 509 409 0 0 0
242 509 410 0 0 0
242 509 409 0 0 0
235 511 410 0 0 0
235 511 409 0 0 0
235 510 410 0 0 0
234 510 410 0 0 0
235 510 412 0 0 0
235 510 411 0 0 0
236 510 413 0 0 0
236 510 412 0 0 0
237 510 412 0 0 0
238 510 412 0 0 0
238 510 411 0 0 0
239 510 411 0 0 0
240 510 411 0 0 0
240 510 410 0 0 0
241 510 411 0 0 0
241 510 410 0 0 0
242 510 410 0 0 0
242 510 409 0 0 0
242 510 409 0 0 0
243 510 409 0 0 0
242 510 409 0 0 0
235 511 409 0 0 0
235 511 411 0 0 0
236 511 412 0 0 0
236 511 411 0 0 0
237 511 412 0 0 0
237 511 411 0 0 0
238 511 411 0 0 0
239 511 411 0 0 0
239 511 410 0 0 0
240 511 411 0 0 0
240 511 410 0 0 0
241 511 410 0 0 0
241 511 409 0 0 0
242 511 410 0 0 0
242 511 409 0 0 0
242 511 409 0 0 0
242 511 409 0 0 0
242 511 408 0 0 0
239 479 425 0 0 0
240 479 425 0 0 0
240 478 425 0 0 0
240 477 424 0 0 0
239 480 424 0 0 0
240 480 424 0 0 0
240 479 424 0 0 0
241 479 424 0 0 0
239 480 424 0 0 0
240 480 424 0 0 0
239 479 423 0 0 0
240 479 422 0 0 0
239 481 423 0 0 0
240 481 423 0 0 0
239 480 422 0 0 0
240 480 422 0 0 0
245 465 424 0 0 0
246 465 425 0 0 0
247 467 428 0 0 0
248 467 429 0 0 0
249 467 429 0 0 0
250 467 429 0 0 0
251 467 429 0 0 0
252 465 429 0 0 0
253 465 430 0 0 0
254 465 430 0 0 0
255 465 430 0 0 0
246 468 430 0 0 0
247 468 430 0 0 0
248 468 430 0 0 0
248 468 430 0 0 0
249 468 430 0 0 0
250 468 430 0 0 0
251 468 430 0 0 0
252 466 430 0 0 0
253 466 430 0 0 0
254 466 430 0 0 0
255 466 430 0 0 0
245 467 430 0 0 0
246 467 430 0 0 0
247 467 430 0 0 0
248 467 430 0 0 0
249 467 430 0 0 0
250 467 430 0 0 0
251 467 430 0 0 0
252 467 430 0 0 0
253 467 430 0 0 0
254 467 430 0 0 0
255 467 430 0 0 0
255 467 428 0 0 0
245 468 429 0 0 0
246 468 429 0 0 0
247 468 429 0 0 0
248 468 429 0 0 0
249 468 429 0 0 0
250 468 429 0 0 0
251 468 429 0 0 0
252 468 429 0 0 0
253 468 429 0 0 0
254 468 429 0 0 0
255 468 427 0 0 0
255 468 426 0 0 0
243 470 428 0 0 0
244 470 428 0 0 0
243 469 428 0 0 0
244 469 429 0 0 0
245 469 429 0 0 0
246 469 429 0 0 0
247 469 429 0 0 0
248 469 429 0 0 0
249 469 429 0 0 0
250 469 429 0 0 0
251 469 429 0 0 0
252 469 429 0 0 0
253 469 429 0 0 0
254 469 429 0 0 0
255 469 427 0 0 0
255 469 426 0 0 0
243 471 427 0 0 0
242 470 428 0 0 0
243 470 428 0 0 0
244 470 428 0 0 0
245 470 428 0 0 0
246 470 428 0 0 0
247 470 428 0 0 0
248 470 428 0 0 0
249 470 428 0 0 0
250 470 428 0 0 0
251 470 428 0 0 0
252 470 428 0 0 0
253 470 428 0 0 0
254 470 428 0 0 0
255 470 426 0 0 0
255 470 425 0 0 0
242 473 427 0 0 0
242 471 427 0 0 0
243 471 427 0 0 0
244 471 427 0 0 0
245 471 427 0 0 0
246 471 427 0 0 0
247 471 427 0 0 0
248 471 427 0 0 0
249 471 427 0 0 0
250 471 427 0 0 0
251 471 427 0 0 0
252 471 427 0 0 0
253 471 427 0 0 0
254 471 427 0 0 0
254 472 427 0 0 0
254 472 426 0 0 0
242 474 427 0 0 0
242 472 426 0 0 0
243 472 426 0 0 0
244 472 426 0 0 0
245 472 426 0 0 0
246 472 426 0 0 0
247 472 426 0 0 0
248 472 426 0 0 0
249 472 426 0 0 0
250 472 426 0 0 0
251 473 427 0 0 0
252 473 427 0 0 0
252 473 427 0 0 0
253 472 428 0 0 0
254 472 427 0 0 0
254 473 425 0 0 0
242 475 426 0 0 0
242 473 426 0 0 0
243 473 426 0 0 0
244 473 426 0 0 0
245 473 426 0 0 0
246 473 426 0 0 0
247 473 426 0 0 0
248 473 426 0 0 0
249 473 426 0 0 0
250 473 426 0 0 0
251 473 426 0 0 0
252 473 426 0 0 0
242 476 426 0 0 0
242 474 425 0 0 0
243 474 425 0 0 0
244 474 425 0 0 0
245 474 425 0 0 0
246 474 425 0 0 0
247 474 425 0 0 0
248 474 425 0 0 0
249 474 425 0 0 0
250 474 425 0 0 0
251 475 427 0 0 0
251 475 427 0 0 0
242 477 425 0 0 0
242 476 425 0 0 0
243 475 424 0 0 0
244 475 424 0 0 0
245 475 424 0 0 0
246 475 424 0 0 0
247 475 424 0 0 0
248 475 424 0 0 0
249 475 424 0 0 0
250 475 424 0 0 0
250 476 426 0 0 0
251 476 426 0 0 0
241 476 424 0 0 0
242 476 424 0 0 0
243 476 424 0 0 0
244 476 424 0 0 0
245 476 424 0 0 0
246 476 424 0 0 0
247 476 424 0 0 0
248 476 424 0 0 0
249 476 424 0 0 0
250 476 424 0 0 0
250 477 426 0 0 0
251 477 426 0 0 0
242 478 424 0 0 0
242 478 424 0 0 0
243 477 423 0 0 0
244 477 423 0 0 0
245 477 423 0 0 0
246 477 423 0 0 0
247 477 423 0 0 0
248 477 423 0 0 0
249 477 423 0 0 0
250 477 423 0 0 0
250 478 425 0 0 0
251 478 425 0 0 0
241 478 423 0 0 0
242 478 423 0 0 0
243 478 423 0 0 0
244 478 423 0 0 0
245 478 423 0 0 0
246 478 423 0 0 0
247 478 423 0 0 0
248 478 423 0 0 0
249 478 423 0 0 0
250 478 423 0 0 0
250 479 425 0 0 0
251 479 425 0 0 0
241 479 422 0 0 0
242 479 422 0 0 0
243 479 422 0 0 0
244 479 422 0 0 0
245 479 422 0 0 0
246 479 422 0 0 0
247 479 422 0 0 0
248 479 423 0 0 0
249 479 423 0 0 0
250 479 423 0 0 0
250 480 425 0 0 0
251 479 425 0 0 0
241 480 422 0 0 0
242 480 422 0 0 0
243 480 422 0 0 0
244 480 422 0 0 0
245 480 422 0 0 0
246 480 422 0 0 0
247 480 422 0 0 0
248 480 422 0 0 0
249 480 423 0 0 0
250 480 423 0 0 0
250 481 425 0 0 0
251 480 425 0 0 0
239 482 423 0 0 0
240 482 422 0 0 0
239 481 421 0 0 0
240 481 421 0 0 0
239 483 422 0 0 0
240 483 422 0 0 0
239 482 421 0 0 0
240 482 421 0 0 0
239 483 422 0 0 0
240 483 421 0 0 0
239 483 420 0 0 0
240 483 420 0 0 0
239 484 421 0 0 0
240 484 420 0 0 0
239 484 419 0 0 0
240 484 419 0 0 0
239 485 420 0 0 0
240 485 420 0 0 0
239 485 419 0 0 0
240 485 419 0 0 0
239 486 420 0 0 0
240 486 420 0 0 0
239 486 419 0 0 0
240 486 419 0 0 0
239 488 419 0 0 0
239 488 419 0 0 0
239 487 418 0 0 0
240 487 418 0 0 0
239 489 419 0 0 0
240 489 419 0 0 0
239 488 418 0 0 0
240 488 418 0 0 0
239 490 418 0 0 0
239 490 418 0 0 0
239 489 417 0 0 0
240 489 418 0 0 0
239 491 418 0 0 0
240 491 418 0 0 0
239 490 417 0 0 0
240 490 417 0 0 0
239 492 417 0 0 0
240 492 417 0 0 0
239 491 416 0 0 0
240 491 416 0 0 0
239 493 417 0 0 0
240 493 417 0 0 0
239 492 416 0 0 0
240 492 416 0 0 0
239 494 416 0 0 0
239 494 416 0 0 0
239 493 415 0 0 0
240 493 415 0 0 0
238 495 415 0 0 0
239 495 415 0 0 0
239 494 415 0 0 0
240 494 415 0 0 0
238 496 415 0 0 0
239 496 415 0 0 0
239 495 414 0 0 0
240 495 414 0 0 0
238 497 414 0 0 0
239 497 414 0 0 0
239 496 413 0 0 0
240 496 413 0 0 0
241 481 421 0 0 0
242 481 421 0 0 0
243 481 421 0 0 0
244 481 421 0 0 0
245 481 421 0 0 0
246 481 422 0 0 0
247 481 422 0 0 0
248 481 422 0 0 0
249 481 422 0 0 0
250 481 422 0 0 0
250 481 424 0 0 0
250 481 424 0 0 0
241 482 421 0 0 0
242 482 421 0 0 0
243 482 421 0 0 0
244 482 421 0 0 0
245 482 421 0 0 0
246 482 421 0 0 0
247 482 422 0 0 0
248 482 422 0 0 0
249 482 422 0 0 0
250 482 422 0 0 0
250 482 424 0 0 0
250 482 424 0 0 0
241 483 420 0 0 0
242 483 420 0 0 0
243 483 420 0 0 0
244 483 420 0 0 0
245 483 421 0 0 0
246 483 421 0 0 0
247 483 421 0 0 0
248 483 422 0 0 0
249 483 422 0 0 0
250 483 422 0 0 0
250 483 423 0 0 0
250 483 423 0 0 0
241 484 419 0 0 0
242 484 420 0 0 0
243 484 420 0 0 0
244 484 420 0 0 0
245 484 420 0 0 0
246 484 420 0 0 0
247 484 421 0 0 0
248 484 421 0 0 0
249 484 421 0 0 0
250 484 422 0 0 0
250 484 423 0 0 0
250 484 423 0 0 0
241 485 419 0 0 0
242 485 419 0 0 0
243 485 420 0 0 0
244 485 420 0 0 0
245 485 420 0 0 0
246 485 420 0 0 0
247 485 421 0 0 0
248 485 421 0 0 0
249 485 421 0 0 0
250 485 421 0 0 0
249 485 423 0 0 0
250 485 423 0 0 0
241 486 419 0 0 0
242 486 419 0 0 0
243 486 419 0 0 0
244 486 419 0 0 0
245 486 420 0 0 0
246 486 420 0 0 0
247 486 420 0 0 0
248 486 421 0 0 0
249 486 421 0 0 0
250 486 421 0 0 0
249 486 422 0 0 0
250 486 423 0 0 0
241 487 418 0 0 0
242 487 419 0 0 0
243 487 419 0 0 0
244 487 419 0 0 0
245 487 419 0 0 0
246 487 420 0 0 0
247 487 420 0 0 0
247 487 421 0 0 0
249 487 421 0 0 0
248 487 422 0 0 0
249 487 422 0 0 0
250 487 422 0 0 0
241 488 418 0 0 0
242 488 418 0 0 0
243 488 418 0 0 0
244 488 419 0 0 0
245 488 419 0 0 0
246 488 419 0 0 0
246 488 420 0 0 0
247 488 421 0 0 0
248 488 421 0 0 0
248 488 421 0 0 0
249 488 422 0 0 0
250 488 422 0 0 0
241 489 418 0 0 0
242 489 418 0 0 0
243 489 418 0 0 0
244 489 418 0 0 0
245 489 418 0 0 0
246 489 419 0 0 0
246 489 420 0 0 0
247 489 420 0 0 0
241 490 417 0 0 0
242 490 417 0 0 0
243 490 417 0 0 0
244 490 418 0 0 0
245 490 418 0 0 0
246 490 418 0 0 0
246 490 420 0 0 0
247 490 420 0 0 0
241 491 416 0 0 0
242 491 417 0 0 0
243 491 417 0 0 0
244 491 417 0 0 0
245 491 417 0 0 0
246 491 418 0 0 0
246 491 419 0 0 0
246 491 420 0 0 0
241 492 416 0 0 0
242 492 416 0 0 0
243 492 416 0 0 0
244 492 416 0 0 0
245 492 417 0 0 0
246 492 417 0 0 0
245 492 419 0 0 0
246 492 419 0 0 0
241 493 415 0 0 0
242 493 416 0 0 0
243 493 416 0 0 0
244 493 416 0 0 0
245 493 416 0 0 0
246 493 416 0 0 0
245 493 418 0 0 0
246 493 419 0 0 0
241 494 415 0 0 0
242 494 415 0 0 0
243 494 415 0 0 0
244 494 415 0 0 0
245 494 416 0 0 0
246 494 416 0 0 0
245 495 417 0 0 0
246 495 417 0 0 0
241 495 414 0 0 0
242 495 414 0 0 0
243 495 414 0 0 0
244 495 415 0 0 0
245 495 415 0 0 0
246 495 415 0 0 0
245 496 416 0 0 0
246 496 417 0 0 0
241 496 413 0 0 0
242 496 413 0 0 0
243 496 414 0 0 0
244 496 414 0 0 0
245 496 414 0 0 0
246 496 414 0 0 0
245 497 416 0 0 0
246 497 416 0 0 0
235 498 414 0 0 0
236 498 414 0 0 0
236 498 414 0 0 0
237 498 414 0 0 0
237 497 413 0 0 0
238 497 413 0 0 0
239 497 413 0 0 0
240 497 413 0 0 0
235 499 413 0 0 0
236 499 413 0 0 0
236 499 413 0 0 0
236 498 412 0 0 0
237 498 412 0 0 0
238 498 412 0 0 0
239 498 412 0 0 0
240 498 412 0 0 0
235 500 412 0 0 0
235 500 412 0 0 0
235 499 411 0 0 0
236 499 411 0 0 0
237 499 411 0 0 0
238 499 411 0 0 0
239 499 411 0 0 0
240 499 411 0 0 0
235 500 412 0 0 0
235 501 412 0 0 0
235 500 411 0 0 0
236 500 411 0 0 0
237 500 411 0 0 0
238 500 411 0 0 0
239 500 411 0 0 0
240 500 411 0 0 0
235 501 411 0 0 0
235 502 411 0 0 0
235 501 410 0 0 0
236 501 410 0 0 0
237 501 410 0 0 0
238 501 410 0 0 0
239 501 410 0 0 0
240 501 410 0 0 0
235 502 411 0 0 0
235 503 411 0 0 0
235 502 410 0 0 0
236 502 409 0 0 0
237 502 409 0 0 0
238 502 409 0 0 0
239 502 409 0 0 0
240 502 410 0 0 0
235 504 410 0 0 0
235 504 410 0 0 0
235 503 409 0 0 0
236 503 409 0 0 0
237 503 409 0 0 0
238 503 409 0 0 0
239 503 409 0 0 0
240 503 409 0 0 0
235 505 410 0 0 0
235 505 410 0 0 0
235 504 408 0 0 0
236 504 408 0 0 0
237 504 408 0 0 0
238 504 408 0 0 0
239 504 408 0 0 0
240 504 408 0 0 0
235 506 409 0 0 0
235 506 409 0 0 0
235 505 408 0 0 0
236 505 408 0 0 0
237 505 408 0 0 0
238 505 408 0 0 0
239 505 408 0 0 0
240 505 408 0 0 0
235 507 409 0 0 0
235 507 409 0 0 0
235 506 408 0 0 0
236 506 407 0 0 0
237 506 407 0 0 0
238 506 407 0 0 0
239 506 407 0 0 0
240 506 407 0 0 0
235 508 408 0 0 0
236 508 409 0 0 0
235 507 407 0 0 0
236 507 407 0 0 0
237 507 407 0 0 0
238 507 407 0 0 0
239 507 407 0 0 0
240 507 407 0 0 0
235 508 408 0 0 0
236 508 408 0 0 0
235 508 407 0 0 0
236 508 407 0 0 0
237 508 407 0 0 0
238 508 407 0 0 0
239 508 407 0 0 0
240 508 407 0 0 0
235 510 408 0 0 0
235 510 408 0 0 0
235 509 407 0 0 0
236 509 407 0 0 0
237 509 407 0 0 0
238 509 406 0 0 0
239 509 407 0 0 0
240 509 407 0 0 0
235 511 407 0 0 0
235 511 408 0 0 0
235 510 406 0 0 0
236 510 406 0 0 0
237 510 406 0 0 0
238 510 406 0 0 0
239 510 406 0 0 0
240 510 406 0 0 0
234 511 406 0 0 0
235 511 406 0 0 0
236 511 406 0 0 0
237 511 406 0 0 0
238 511 406 0 0 0
239 511 406 0 0 0
240 511 406 0 0 0
241 497 413 0 0 0
242 497 413 0 0 0
243 497 413 0 0 0
244 497 413 0 0 0
245 497 414 0 0 0
246 497 414 0 0 0
245 498 415 0 0 0
246 498 415 0 0 0
241 498 412 0 0 0
242 498 412 0 0 0
243 498 412 0 0 0
244 498 413 0 0 0
245 498 413 0 0 0
246 498 413 0 0 0
245 499 415 0 0 0
246 499 415 0 0 0
241 499 411 0 0 0
242 499 412 0 0 0
243 499 412 0 0 0
244 499 412 0 0 0
245 499 412 0 0 0
246 499 413 0 0 0
245 499 414 0 0 0
246 499 414 0 0 0
241 500 411 0 0 0
242 500 411 0 0 0
243 500 411 0 0 0
244 500 411 0 0 0
245 500 412 0 0 0
246 500 412 0 0 0
245 500 413 0 0 0
246 500 413 0 0 0
241 501 410 0 0 0
242 501 410 0 0 0
243 501 411 0 0 0
244 501 411 0 0 0
245 501 411 0 0 0
246 501 411 0 0 0
245 501 413 0 0 0
246 501 413 0 0 0
241 502 410 0 0 0
242 502 410 0 0 0
243 502 410 0 0 0
244 502 410 0 0 0
245 502 410 0 0 0
246 502 411 0 0 0
245 502 412 0 0 0
246 501 412 0 0 0
241 503 409 0 0 0
242 503 409 0 0 0
242 504 410 0 0 0
244 503 410 0 0 0
244 503 411 0 0 0
245 503 411 0 0 0
245 503 411 0 0 0
246 502 412 0 0 0
241 504 408 0 0 0
242 504 409 0 0 0
242 505 410 0 0 0
243 505 410 0 0 0
244 504 410 0 0 0
244 504 411 0 0 0
245 503 411 0 0 0
246 503 412 0 0 0
241 505 408 0 0 0
242 505 408 0 0 0
242 506 409 0 0 0
243 505 410 0 0 0
241 506 408 0 0 0
242 506 408 0 0 0
242 507 409 0 0 0
243 507 409 0 0 0
241 507 407 0 0 0
242 507 407 0 0 0
242 508 409 0 0 0
242 507 409 0 0 0
241 508 407 0 0 0
242 508 407 0 0 0
242 509 408 0 0 0
242 508 409 0 0 0
241 509 407 0 0 0
242 509 407 0 0 0
242 509 408 0 0 0
242 509 408 0 0 0
241 510 406 0 0 0
242 510 407 0 0 0
242 510 408 0 0 0
242 510 408 0 0 0
241 511 406 0 0 0
242 511 406 0 0 0
242 511 408 0 0 0
242 511 408 0 0 0
