ply
format ascii 1.0
comment Created by Open3D
element vertex 343
property double x
property double y
property double z
property uchar red
property uchar green
property uchar blue
end_header
255 205 256 0 0 0
255 205 257 0 0 0
255 205 258 0 0 0
255 206 256 0 0 0
255 206 257 0 0 0
255 206 258 0 0 0
255 207 257 0 0 0
255 207 258 0 0 0
255 233 267 0 0 0
255 233 268 0 0 0
255 233 269 0 0 0
255 233 270 0 0 0
255 234 266 0 0 0
255 234 267 0 0 0
254 234 268 0 0 0
255 234 268 0 0 0
254 234 269 0 0 0
255 234 269 0 0 0
254 234 270 0 0 0
255 234 270 0 0 0
255 235 265 0 0 0
255 235 266 0 0 0
254 235 267 0 0 0
254 235 268 0 0 0
254 235 269 0 0 0
254 235 270 0 0 0
255 236 265 0 0 0
254 236 266 0 0 0
255 236 266 0 0 0
254 236 267 0 0 0
253 236 268 0 0 0
253 236 269 0 0 0
253 236 270 0 0 0
255 237 265 0 0 0
254 237 266 0 0 0
253 237 267 0 0 0
253 237 268 0 0 0
253 237 269 0 0 0
253 237 270 0 0 0
255 238 265 0 0 0
254 238 266 0 0 0
254 238 267 0 0 0
253 238 268 0 0 0
253 238 269 0 0 0
253 238 270 0 0 0
255 239 265 0 0 0
254 239 266 0 0 0
254 239 267 0 0 0
253 239 268 0 0 0
253 239 269 0 0 0
253 239 270 0 0 0
255 240 266 0 0 0
254 240 267 0 0 0
253 240 268 0 0 0
253 240 269 0 0 0
253 240 270 0 0 0
255 241 266 0 0 0
254 241 267 0 0 0
253 241 268 0 0 0
253 241 269 0 0 0
253 241 270 0 0 0
255 242 266 0 0 0
254 242 267 0 0 0
254 242 268 0 0 0
253 242 269 0 0 0
253 242 270 0 0 0
255 243 266 0 0 0
254 243 267 0 0 0
254 243 268 0 0 0
253 243 269 0 0 0
253 243 270 0 0 0
255 244 267 0 0 0
254 244 268 0 0 0
254 244 269 0 0 0
253 244 270 0 0 0
255 245 267 0 0 0
254 245 268 0 0 0
254 245 269 0 0 0
254 245 270 0 0 0
255 246 267 0 0 0
254 246 268 0 0 0
254 246 269 0 0 0
254 246 270 0 0 0
255 247 267 0 0 0
254 247 268 0 0 0
254 247 269 0 0 0
254 247 270 0 0 0
255 248 267 0 0 0
255 248 268 0 0 0
254 248 269 0 0 0
254 248 270 0 0 0
255 249 267 0 0 0
255 249 268 0 0 0
254 249 269 0 0 0
254 249 270 0 0 0
255 234 271 0 0 0
255 235 271 0 0 0
255 235 272 0 0 0
254 236 271 0 0 0
254 236 272 0 0 0
255 236 273 0 0 0
254 237 271 0 0 0
254 237 272 0 0 0
255 237 273 0 0 0
255 237 274 0 0 0
254 238 271 0 0 0
254 238 272 0 0 0
255 238 273 0 0 0
255 238 274 0 0 0
254 239 271 0 0 0
254 239 272 0 0 0
254 239 273 0 0 0
255 239 274 0 0 0
255 239 275 0 0 0
254 240 271 0 0 0
254 240 272 0 0 0
254 240 273 0 0 0
255 240 274 0 0 0
255 240 275 0 0 0
255 240 276 0 0 0
253 241 271 0 0 0
254 241 272 0 0 0
254 241 273 0 0 0
254 241 274 0 0 0
255 241 275 0 0 0
255 241 276 0 0 0
255 241 277 0 0 0
253 242 271 0 0 0
254 242 272 0 0 0
254 242 273 0 0 0
254 242 274 0 0 0
255 242 275 0 0 0
255 242 276 0 0 0
255 242 277 0 0 0
255 242 278 0 0 0
253 243 271 0 0 0
253 243 272 0 0 0
254 243 273 0 0 0
254 243 274 0 0 0
254 243 275 0 0 0
254 243 276 0 0 0
255 243 277 0 0 0
255 243 278 0 0 0
255 243 279 0 0 0
253 244 271 0 0 0
253 244 272 0 0 0
253 244 273 0 0 0
254 244 274 0 0 0
254 244 275 0 0 0
254 244 276 0 0 0
254 244 277 0 0 0
255 244 278 0 0 0
255 244 279 0 0 0
255 244 280 0 0 0
255 244 281 0 0 0
253 245 271 0 0 0
253 245 272 0 0 0
253 245 273 0 0 0
254 245 274 0 0 0
254 245 275 0 0 0
254 245 276 0 0 0
254 245 277 0 0 0
255 245 278 0 0 0
255 245 279 0 0 0
255 245 280 0 0 0
255 245 281 0 0 0
253 246 271 0 0 0
253 246 272 0 0 0
253 246 273 0 0 0
253 246 274 0 0 0
253 246 275 0 0 0
254 246 276 0 0 0
254 246 277 0 0 0
254 246 278 0 0 0
254 246 279 0 0 0
255 246 280 0 0 0
255 246 281 1 0 0
255 246 282 1 0 0
255 246 283 1 0 0
253 247 271 0 0 0
253 247 272 0 0 0
253 247 273 0 0 0
253 247 274 0 0 0
253 247 275 0 0 0
253 247 276 0 0 0
254 247 277 0 0 0
254 247 278 0 0 0
254 247 279 0 0 0
254 247 280 1 0 0
255 247 281 1 0 0
255 247 282 1 0 0
255 247 283 1 0 0
255 247 284 0 0 0
253 248 271 0 0 0
253 248 272 0 0 0
253 248 273 0 0 0
253 248 274 0 0 0
253 248 275 0 0 0
253 248 276 0 0 0
253 248 277 0 0 0
254 248 278 1 0 0
254 248 279 1 0 0
254 248 280 1 0 0
254 248 281 1 1 1
255 248 282 1 1 1
255 248 283 1 0 0
255 248 284 0 0 0
253 249 271 0 0 0
253 249 272 0 0 0
253 249 273 0 0 0
252 249 274 0 0 0
253 249 275 1 0 0
253 249 276 1 0 0
253 249 277 1 0 0
253 249 278 1 0 0
254 249 279 1 0 0
254 249 280 1 1 1
254 249 281 1 1 1
254 249 282 1 1 1
254 249 283 1 0 0
255 249 284 0 0 0
255 249 285 0 0 0
255 250 267 0 0 0
255 250 268 0 0 0
254 250 269 0 0 0
254 250 270 0 0 0
255 251 267 0 0 0
255 251 268 0 0 0
254 251 269 0 0 0
254 251 270 0 0 0
255 252 267 0 0 0
255 252 268 0 0 0
254 252 269 0 0 0
253 252 270 0 0 0
255 253 267 0 0 0
255 253 268 0 0 0
254 253 269 0 0 0
254 253 270 0 0 0
255 254 267 0 0 0
254 254 268 0 0 0
254 254 269 0 0 0
254 254 270 0 0 0
255 255 267 0 0 0
254 255 268 0 0 0
254 255 269 0 0 0
253 255 270 0 0 0
253 250 271 0 0 0
253 250 272 0 0 0
252 250 273 0 0 0
252 250 274 0 0 0
253 250 275 1 0 0
253 250 276 1 0 0
253 250 277 1 0 0
253 250 278 1 0 0
253 250 279 1 0 0
254 250 280 1 1 1
254 250 281 1 1 1
254 250 282 1 1 1
254 250 283 1 0 0
255 250 284 0 0 0
255 250 285 0 0 0
253 251 271 0 0 0
252 251 272 0 0 0
252 251 273 0 0 0
252 251 274 0 0 0
252 251 275 1 0 0
253 251 276 1 0 0
253 251 277 1 0 0
253 251 278 1 0 0
253 251 279 1 0 0
253 251 280 1 0 0
254 251 281 1 0 0
254 251 282 1 0 0
254 251 283 1 0 0
254 251 284 0 0 0
255 251 285 0 0 0
255 251 286 0 0 0
253 252 271 0 0 0
252 252 272 0 0 0
252 252 273 0 0 0
252 252 274 0 0 0
252 252 275 0 0 0
253 252 276 0 0 0
253 252 277 0 0 0
253 252 278 0 0 0
253 252 279 1 0 0
253 252 280 1 0 0
253 252 281 1 0 0
254 252 282 1 0 0
254 252 283 1 0 0
254 252 284 0 0 0
254 252 285 0 0 0
255 252 286 0 0 0
253 253 271 0 0 0
253 253 272 0 0 0
252 253 273 0 0 0
252 253 274 0 0 0
252 253 275 0 0 0
253 253 276 0 0 0
253 253 277 0 0 0
253 253 278 0 0 0
253 253 279 0 0 0
253 253 280 0 0 0
253 253 281 0 0 0
254 253 282 0 0 0
254 253 283 1 0 0
254 253 284 0 0 0
254 253 285 0 0 0
255 253 286 0 0 0
253 254 271 0 0 0
252 254 272 0 0 0
252 254 273 0 0 0
252 254 274 0 0 0
252 254 275 0 0 0
252 254 276 0 0 0
252 254 277 0 0 0
253 254 278 0 0 0
253 254 279 0 0 0
253 254 280 0 0 0
253 254 281 0 0 0
253 254 282 0 0 0
254 254 283 0 0 0
254 254 284 0 0 0
254 254 285 0 0 0
255 254 286 0 0 0
253 255 271 0 0 0
252 255 272 0 0 0
252 255 273 0 0 0
252 255 274 0 0 0
252 255 275 0 0 0
252 255 276 0 0 0
253 255 277 0 0 0
253 255 278 0 0 0
253 255 279 0 0 0
253 255 280 0 0 0
253 255 281 0 0 0
253 255 282 0 0 0
254 255 283 0 0 0
254 255 284 0 0 0
254 255 285 0 0 0
255 255 286 0 0 0
255 254 287 0 0 0
255 255 287 0 0 0
