ply
format ascii 1.0
comment Created by Open3D
element vertex 1582
property double x
property double y
property double z
property uchar red
property uchar green
property uchar blue
end_header
245 461 431 0 0 0
246 461 432 0 0 0
247 461 432 0 0 0
248 461 432 0 0 0
245 462 431 0 0 0
246 462 432 0 0 0
247 462 432 0 0 0
248 462 432 0 0 0
245 463 432 0 0 0
246 463 432 0 0 0
247 463 432 0 0 0
248 463 432 0 0 0
245 464 431 0 0 0
246 464 432 0 0 0
247 464 432 0 0 0
248 464 432 0 0 0
244 466 431 0 0 0
244 466 431 0 0 0
243 465 431 0 0 0
244 465 431 0 0 0
245 465 432 0 0 0
246 465 432 0 0 0
247 465 432 0 0 0
248 465 432 0 0 0
244 467 431 0 0 0
244 467 431 0 0 0
243 466 431 0 0 0
245 467 431 0 0 0
245 466 432 0 0 0
246 466 432 0 0 0
247 466 432 0 0 0
248 467 432 0 0 0
243 468 431 0 0 0
244 468 430 0 0 0
243 467 431 0 0 0
244 467 431 0 0 0
245 467 432 0 0 0
246 467 432 0 0 0
247 467 432 0 0 0
248 467 433 0 0 0
243 468 430 0 0 0
244 469 430 0 0 0
243 468 431 0 0 0
244 468 432 0 0 0
245 468 432 0 0 0
246 468 432 0 0 0
247 468 433 0 0 0
248 468 433 0 0 0
243 470 430 0 0 0
244 469 430 0 0 0
243 469 431 0 0 0
244 469 432 0 0 0
245 469 432 0 0 0
246 469 432 0 0 0
247 469 433 0 0 0
248 469 433 0 0 0
243 471 429 0 0 0
244 470 430 0 0 0
243 470 431 0 0 0
244 470 432 0 0 0
245 470 432 0 0 0
246 470 432 0 0 0
247 470 433 0 0 0
248 470 433 0 0 0
243 472 429 0 0 0
244 471 430 0 0 0
243 471 431 0 0 0
244 471 431 0 0 0
245 471 432 0 0 0
246 471 432 0 0 0
247 471 433 0 0 0
248 471 433 0 0 0
243 473 429 0 0 0
244 472 430 0 0 0
243 472 431 0 0 0
244 472 431 0 0 0
245 472 432 0 0 0
246 472 432 0 0 0
247 472 433 1 0 0
248 472 433 0 0 0
249 466 432 0 0 0
250 466 432 0 0 0
250 466 432 0 0 0
251 467 432 0 0 0
252 466 432 0 0 0
252 466 432 0 0 0
253 466 432 0 0 0
254 466 432 0 0 0
249 467 432 0 0 0
250 467 432 0 0 0
251 467 432 0 0 0
251 467 432 0 0 0
252 467 432 0 0 0
252 467 432 0 0 0
253 467 432 0 0 0
254 467 433 0 0 0
249 467 433 0 0 0
250 467 433 0 0 0
251 467 433 0 0 0
252 467 433 0 0 0
253 467 433 0 0 0
254 467 433 0 0 0
253 468 433 0 0 0
254 468 432 0 0 0
249 468 433 0 0 0
250 468 433 0 0 0
251 468 433 0 0 0
252 468 433 0 0 0
253 468 433 0 0 0
254 468 434 0 0 0
253 468 432 0 0 0
249 469 433 0 0 0
250 469 433 0 0 0
251 469 433 0 0 0
252 469 433 0 0 0
253 469 434 0 0 0
254 469 433 0 0 0
253 469 432 0 0 0
249 470 433 0 0 0
250 470 433 0 0 0
251 470 433 0 0 0
252 470 433 0 0 0
253 470 433 0 0 0
254 470 433 0 0 0
255 470 432 0 0 0
249 471 433 0 0 0
250 471 433 0 0 0
251 471 433 0 0 0
252 471 433 0 0 0
253 471 433 0 0 0
254 471 432 0 0 0
255 471 432 0 0 0
249 472 433 0 0 0
250 472 433 0 0 0
251 472 433 0 0 0
252 472 433 0 0 0
253 472 432 0 0 0
254 472 432 0 0 0
253 472 431 0 0 0
243 474 429 0 0 0
243 473 429 0 0 0
243 473 431 0 0 0
244 473 431 0 0 0
245 473 432 0 0 0
246 473 432 1 0 0
247 473 433 1 0 0
248 473 433 1 0 0
241 474 429 0 0 0
243 474 429 0 0 0
243 474 431 0 0 0
244 474 431 0 0 0
245 474 432 1 0 0
246 474 432 1 1 1
247 474 433 1 1 1
248 474 433 1 0 0
241 475 429 0 0 0
243 475 429 0 0 0
243 475 431 0 0 0
244 475 431 0 0 0
245 475 432 1 1 0
246 475 432 1 1 1
247 475 432 1 1 1
248 475 432 1 1 0
241 476 429 0 0 0
243 476 429 0 0 0
243 476 431 0 0 0
244 476 431 0 0 0
245 476 432 1 1 1
246 476 432 1 1 1
247 476 432 1 1 1
248 476 432 1 1 1
237 477 426 0 0 0
240 478 426 0 0 0
239 477 427 0 0 0
240 477 428 0 0 0
241 477 429 0 0 0
242 477 429 0 0 0
243 477 430 0 0 0
244 477 431 1 0 0
245 477 431 1 1 1
246 477 432 1 1 1
247 477 432 1 1 1
248 477 432 1 1 1
237 478 426 0 0 0
238 478 426 0 0 0
239 478 427 0 0 0
240 478 428 0 0 0
241 478 428 0 0 0
242 478 429 0 0 0
243 478 430 0 0 0
244 478 430 1 1 1
245 478 431 1 1 1
246 478 431 1 1 1
247 478 431 1 1 1
248 478 431 1 1 1
237 479 425 0 0 0
238 479 426 0 0 0
239 479 426 0 0 0
240 479 427 0 0 0
241 479 428 0 0 0
242 479 429 0 0 0
243 479 429 1 0 0
244 479 430 1 1 1
245 479 431 1 1 1
246 479 431 1 1 1
247 479 431 1 1 1
248 479 430 1 1 1
237 480 425 0 0 0
238 480 425 0 0 0
239 480 426 0 0 0
240 480 427 0 0 0
241 480 427 0 0 0
242 480 428 0 0 0
243 480 429 1 1 1
244 480 430 1 1 1
245 480 430 1 1 1
246 480 430 1 1 1
247 480 430 1 1 1
248 480 430 1 1 1
237 481 424 0 0 0
238 481 425 0 0 0
239 481 426 0 0 0
240 481 426 0 0 0
241 481 427 0 0 0
242 481 428 0 0 0
243 481 429 1 1 1
244 481 429 1 1 1
245 481 430 1 1 1
246 481 430 1 1 1
247 481 430 1 1 1
248 481 429 1 1 1
237 482 424 0 0 0
238 482 424 0 0 0
239 482 425 0 0 0
240 482 426 0 0 0
241 482 427 0 0 0
242 482 427 0 0 0
243 482 428 1 1 1
244 482 429 1 1 1
245 482 429 1 1 1
246 482 429 1 1 1
247 482 429 1 1 1
248 482 429 1 0 0
239 483 422 0 0 0
240 483 423 0 0 0
239 483 425 0 0 0
240 483 425 0 0 0
241 483 426 0 0 0
242 483 427 1 0 0
243 483 428 1 1 1
244 483 428 1 1 1
245 483 429 1 1 1
246 483 429 1 1 1
247 483 429 1 1 1
248 483 428 1 0 0
239 484 422 0 0 0
240 484 423 0 0 0
239 484 424 0 0 0
240 484 425 0 0 0
241 484 426 0 0 0
242 484 427 1 0 0
243 484 427 1 1 1
244 484 428 1 1 1
245 484 429 1 1 1
246 484 429 1 1 1
247 484 428 1 1 1
248 484 428 0 0 0
239 485 422 0 0 0
240 485 422 0 0 0
239 485 424 0 0 0
240 485 425 0 0 0
241 485 425 0 0 0
242 485 426 1 1 1
243 485 427 1 1 1
244 485 428 1 1 1
245 485 428 1 1 1
246 485 428 1 1 1
247 485 428 1 0 0
248 485 427 0 0 0
239 486 421 0 0 0
240 485 422 0 0 0
239 486 423 0 0 0
240 486 424 0 0 0
241 486 425 0 0 0
242 486 425 1 1 1
243 486 426 1 1 1
244 486 427 1 1 1
245 486 427 1 1 1
246 486 427 1 1 1
247 486 427 1 0 0
248 486 426 0 0 0
239 486 421 0 0 0
239 487 420 0 0 0
240 487 421 0 0 0
239 487 423 0 0 0
240 487 423 0 0 0
241 487 424 0 0 0
242 487 425 1 1 1
242 487 424 1 1 1
243 487 425 1 1 1
244 487 426 1 1 1
245 487 426 1 1 1
246 487 426 1 1 1
247 487 426 0 0 0
248 487 425 0 0 0
239 488 420 0 0 0
240 487 421 0 0 0
240 488 420 0 0 0
239 488 422 0 0 0
240 488 423 0 0 0
240 488 422 0 0 0
241 488 423 0 0 0
242 488 424 1 1 1
243 488 425 1 1 1
243 488 424 1 1 1
244 488 425 1 1 1
245 488 425 1 1 1
246 488 425 1 1 1
247 488 425 0 0 0
248 488 424 0 0 0
248 488 425 0 0 0
249 473 433 0 0 0
250 473 432 0 0 0
251 473 432 0 0 0
252 473 432 0 0 0
253 473 432 0 0 0
254 473 431 0 0 0
255 473 431 0 0 0
249 474 432 0 0 0
250 474 432 0 0 0
251 474 432 0 0 0
252 474 432 0 0 0
253 474 431 0 0 0
254 474 431 0 0 0
253 473 430 0 0 0
249 475 432 0 0 0
250 475 432 0 0 0
251 474 430 0 0 0
251 474 430 0 0 0
252 474 430 0 0 0
252 474 429 0 0 0
253 474 430 0 0 0
254 474 430 0 0 0
249 476 431 0 0 0
250 476 431 0 0 0
251 475 430 0 0 0
251 475 429 0 0 0
252 475 429 0 0 0
253 475 429 0 0 0
253 475 429 0 0 0
254 475 429 0 0 0
249 477 431 0 0 0
250 477 430 0 0 0
251 476 429 0 0 0
252 477 429 0 0 0
249 478 430 0 0 0
250 478 430 0 0 0
251 478 429 0 0 0
251 477 428 0 0 0
249 479 430 0 0 0
250 479 429 0 0 0
251 479 428 0 0 0
252 479 428 0 0 0
249 480 429 0 0 0
250 480 428 0 0 0
251 480 428 0 0 0
252 480 427 0 0 0
249 481 428 0 0 0
250 481 427 0 0 0
251 481 427 0 0 0
252 481 426 0 0 0
249 482 427 0 0 0
250 482 427 0 0 0
251 482 426 0 0 0
252 482 425 0 0 0
249 483 427 0 0 0
250 483 426 0 0 0
251 483 425 0 0 0
250 483 424 0 0 0
249 484 426 0 0 0
250 484 425 0 0 0
251 484 425 0 0 0
250 484 424 0 0 0
249 485 425 0 0 0
250 485 425 0 0 0
251 485 424 0 0 0
250 485 423 0 0 0
249 486 425 0 0 0
250 486 424 0 0 0
249 486 423 0 0 0
250 486 422 0 0 0
249 487 424 0 0 0
250 487 423 0 0 0
249 486 422 0 0 0
250 487 422 1 0 0
249 488 423 0 0 0
250 488 422 1 0 0
249 488 421 0 0 0
250 488 421 1 1 1
239 489 420 0 0 0
239 489 419 0 0 0
240 489 420 0 0 0
239 489 421 0 0 0
240 489 422 0 0 0
240 489 421 0 0 0
241 489 422 1 0 0
242 489 423 1 1 1
243 489 423 1 1 1
244 489 424 1 1 1
244 489 423 1 1 1
245 489 424 1 1 1
246 489 424 1 0 0
247 489 425 0 0 0
247 489 424 0 0 0
248 489 425 0 0 0
248 489 424 0 0 0
239 490 419 0 0 0
240 490 419 0 0 0
239 490 421 0 0 0
239 490 420 0 0 0
240 490 421 0 0 0
241 490 422 1 1 0
241 490 421 1 1 0
242 490 422 1 1 1
243 490 423 1 1 1
243 490 422 1 1 1
244 490 423 1 1 1
244 490 422 1 1 1
245 490 423 1 1 1
246 490 424 0 0 0
246 490 423 0 0 0
247 490 424 0 0 0
247 490 423 0 0 0
248 490 424 0 0 0
248 490 423 0 0 0
239 491 419 0 0 0
239 491 419 0 0 0
240 491 419 0 0 0
240 491 419 0 0 0
239 491 420 0 0 0
240 491 420 0 0 0
241 491 421 1 1 1
241 491 420 1 1 1
242 491 421 1 1 1
243 491 422 1 1 1
243 491 421 1 1 1
244 491 422 1 1 1
244 491 421 1 1 1
245 491 422 1 1 0
245 491 421 1 1 0
246 491 423 0 0 0
246 491 422 0 0 0
247 491 423 0 0 0
247 491 422 0 0 0
248 491 423 0 0 0
239 492 418 0 0 0
239 492 418 0 0 0
240 492 419 1 0 0
239 492 420 0 0 0
239 492 419 0 0 0
240 492 420 1 0 0
240 492 419 1 0 0
241 492 420 1 1 1
241 492 419 1 1 1
242 492 421 1 1 1
242 492 420 1 1 1
243 492 421 1 1 1
243 492 420 1 1 1
244 492 421 1 1 1
244 492 420 1 1 1
245 492 421 1 0 0
245 492 420 1 0 0
246 492 422 0 0 0
246 492 421 0 0 0
247 492 422 0 0 0
247 492 421 0 0 0
248 492 422 0 0 0
239 493 418 0 0 0
239 493 418 0 0 0
240 493 418 1 0 0
239 493 418 0 0 0
239 493 419 0 0 0
240 493 419 1 0 0
241 493 420 1 1 1
241 493 419 1 1 1
242 493 420 1 1 1
243 493 421 1 1 1
243 493 420 1 1 1
244 493 421 1 1 1
244 493 420 1 1 1
245 493 421 0 0 0
245 493 420 0 0 0
246 493 421 0 0 0
247 493 422 0 0 0
247 493 421 0 0 0
248 493 422 0 0 0
248 493 421 0 0 0
239 494 417 0 0 0
239 494 418 0 0 0
239 494 417 0 0 0
239 494 419 0 0 0
239 494 418 0 0 0
240 494 419 1 1 0
240 494 418 1 1 0
241 494 419 1 1 1
242 494 420 1 1 1
242 494 419 1 1 1
243 494 420 1 1 1
243 494 419 1 1 1
244 494 420 1 1 1
245 494 421 0 0 0
245 494 420 0 0 0
246 494 421 0 0 0
246 494 420 0 0 0
247 494 421 0 0 0
248 494 422 0 0 0
248 494 421 0 0 0
239 495 417 0 0 0
239 495 417 0 0 0
239 495 417 0 0 0
238 495 417 0 0 0
239 495 418 0 0 0
240 495 419 1 1 1
240 495 418 1 1 1
241 495 419 1 1 1
241 495 418 1 1 1
242 495 419 1 1 1
243 495 420 1 1 1
243 495 419 1 1 1
244 495 420 1 0 0
244 495 419 1 0 0
245 495 420 0 0 0
245 495 419 0 0 0
246 495 421 0 0 0
246 495 420 0 0 0
247 495 421 0 0 0
247 495 420 0 0 0
248 495 421 0 0 0
248 495 420 0 0 0
239 496 417 0 0 0
238 496 416 0 0 0
239 496 417 0 0 0
238 496 417 0 0 0
239 496 418 0 0 0
239 496 417 0 0 0
240 496 418 1 1 1
240 496 417 1 1 1
241 496 419 1 1 1
241 496 418 1 1 1
242 496 419 1 1 1
242 496 418 1 1 1
243 496 419 1 1 1
244 496 420 1 0 0
244 496 419 1 0 0
245 496 420 0 0 0
245 496 419 0 0 0
246 496 420 0 0 0
246 496 419 0 0 0
247 496 421 0 0 0
247 496 420 0 0 0
248 496 421 0 0 0
248 496 420 0 0 0
236 498 414 0 0 0
235 498 413 0 0 0
236 497 416 0 0 0
236 497 415 0 0 0
237 497 416 0 0 0
238 497 416 0 0 0
236 497 416 0 0 0
238 497 416 0 0 0
237 497 416 0 0 0
238 497 417 0 0 0
239 497 418 0 0 0
239 497 417 0 0 0
240 497 418 1 1 1
240 497 417 1 1 1
241 497 418 1 1 1
241 497 417 1 1 1
242 497 419 1 1 1
242 497 418 1 1 1
243 497 419 1 1 1
243 497 418 1 1 1
244 497 419 0 0 0
244 497 418 0 0 0
245 497 419 0 0 0
246 497 420 0 0 0
246 497 419 0 0 0
247 497 420 0 0 0
247 497 419 0 0 0
248 497 420 0 0 0
235 499 413 0 0 0
235 499 412 0 0 0
236 498 415 0 0 0
236 498 415 0 0 0
237 498 415 0 0 0
237 498 415 0 0 0
236 498 416 0 0 0
236 498 415 0 0 0
238 498 416 0 0 0
237 498 416 0 0 0
239 498 416 1 0 0
238 498 416 0 0 0
239 498 417 1 0 0
240 498 417 1 1 1
241 498 418 1 1 1
241 498 417 1 1 1
242 498 418 1 1 1
243 498 419 1 1 0
243 498 418 1 1 0
244 498 419 0 0 0
244 498 418 0 0 0
245 498 419 0 0 0
245 498 418 0 0 0
246 498 419 0 0 0
247 498 420 0 0 0
247 498 419 0 0 0
248 498 420 0 0 0
248 498 419 0 0 0
233 499 411 0 0 0
234 499 415 0 0 0
235 499 415 0 0 0
236 499 416 0 0 0
236 499 415 0 0 0
237 499 416 0 0 0
238 499 417 0 0 0
238 499 416 0 0 0
239 499 417 1 0 0
239 499 416 1 0 0
240 499 417 1 1 1
240 499 416 1 1 1
241 499 417 1 1 1
241 499 416 1 1 1
242 499 418 1 1 1
242 499 417 1 1 1
243 499 418 1 0 0
243 499 417 1 0 0
244 499 418 0 0 0
245 499 418 0 0 0
246 499 419 0 0 0
246 499 418 0 0 0
247 499 419 0 0 0
248 499 419 0 0 0
233 500 411 0 0 0
233 500 410 0 0 0
234 500 415 0 0 0
234 500 414 0 0 0
235 500 415 0 0 0
235 500 414 0 0 0
236 500 415 0 0 0
237 500 416 0 0 0
237 500 415 0 0 0
238 500 416 0 0 0
238 500 415 0 0 0
239 500 416 1 1 0
240 500 417 1 1 1
240 500 416 1 1 1
241 500 417 1 1 1
241 500 416 1 1 1
242 500 417 1 1 1
243 500 418 0 0 0
243 500 417 0 0 0
244 500 418 0 0 0
244 500 417 0 0 0
245 500 418 0 0 0
245 500 417 0 0 0
246 500 419 0 0 0
246 500 418 0 0 0
247 500 419 0 0 0
247 500 418 0 0 0
248 500 419 0 0 0
248 500 418 0 0 0
233 501 410 0 0 0
234 501 415 0 0 0
234 501 414 0 0 0
235 501 415 0 0 0
235 501 414 0 0 0
236 501 415 0 0 0
236 501 414 0 0 0
237 501 416 0 0 0
237 501 415 0 0 0
238 501 416 0 0 0
238 501 415 0 0 0
239 501 416 1 1 1
239 501 415 1 1 1
240 501 416 1 1 1
240 501 415 1 1 1
241 501 417 1 1 1
241 501 416 1 1 1
242 501 417 1 1 0
242 501 416 1 1 0
243 501 417 0 0 0
244 501 418 0 0 0
244 501 417 0 0 0
245 501 418 0 0 0
245 501 417 0 0 0
246 501 418 0 0 0
247 501 419 0 0 0
247 501 418 0 0 0
248 501 419 0 0 0
248 501 418 0 0 0
233 502 410 0 0 0
233 502 409 0 0 0
234 502 414 0 0 0
235 502 414 0 0 0
236 502 415 0 0 0
236 502 414 0 0 0
237 502 415 0 0 0
237 502 414 0 0 0
238 502 415 0 0 0
239 502 415 1 1 1
240 502 415 1 1 1
241 502 416 1 1 1
241 502 415 1 1 1
242 502 416 1 0 0
242 502 415 1 0 0
243 502 416 0 0 0
244 502 417 0 0 0
244 502 416 0 0 0
245 502 418 0 0 0
245 502 417 0 0 0
246 502 418 0 0 0
246 502 417 0 0 0
247 502 418 0 0 0
248 502 419 0 0 0
248 502 418 0 0 0
235 504 411 0 0 0
235 504 410 0 0 0
236 502 413 0 0 0
236 503 413 0 0 0
235 503 414 0 0 0
235 503 413 0 0 0
236 503 414 0 0 0
237 503 415 0 0 0
237 503 414 0 0 0
238 503 415 0 0 0
238 503 414 0 0 0
239 503 415 1 1 1
239 503 414 1 1 1
240 503 415 1 1 1
240 503 414 1 1 1
241 503 415 1 1 0
241 503 414 1 1 0
242 503 415 0 0 0
244 502 415 0 0 0
243 503 415 0 0 0
244 502 415 0 0 0
244 503 415 0 0 0
245 503 416 0 0 0
245 502 416 0 0 0
246 503 416 0 0 0
246 502 416 0 0 0
247 503 416 0 0 0
246 502 416 0 0 0
248 503 416 0 0 0
235 504 411 0 0 0
235 503 413 0 0 0
236 504 412 0 0 0
235 504 414 0 0 0
235 504 413 0 0 0
236 504 414 0 0 0
236 504 413 0 0 0
237 504 414 0 0 0
238 504 414 1 0 0
239 504 414 1 1 1
240 504 414 1 1 1
240 504 413 1 1 1
241 504 414 1 0 0
242 504 415 0 0 0
242 504 414 0 0 0
243 503 414 0 0 0
243 504 414 0 0 0
244 503 414 0 0 0
244 504 414 0 0 0
245 504 415 0 0 0
245 504 414 0 0 0
245 503 415 0 0 0
246 504 415 0 0 0
247 504 416 0 0 0
247 504 415 0 0 0
246 503 416 0 0 0
246 503 415 0 0 0
235 506 410 0 0 0
235 506 409 0 0 0
236 505 411 0 0 0
236 505 411 0 0 0
235 505 413 0 0 0
236 505 413 0 0 0
237 505 413 0 0 0
238 505 413 0 0 0
239 505 413 1 0 0
239 505 412 1 0 0
240 505 413 0 0 0
240 505 412 0 0 0
241 505 413 0 0 0
241 505 412 0 0 0
242 505 413 0 0 0
242 505 412 0 0 0
243 505 413 0 0 0
243 505 412 0 0 0
244 505 413 0 0 0
244 505 412 0 0 0
235 507 409 0 0 0
236 506 411 0 0 0
236 506 411 0 0 0
235 506 413 0 0 0
235 506 412 0 0 0
236 506 413 0 0 0
236 506 412 0 0 0
237 506 413 0 0 0
237 506 412 0 0 0
238 506 413 0 0 0
238 506 412 0 0 0
239 506 413 0 0 0
239 506 412 0 0 0
240 506 412 0 0 0
240 506 411 0 0 0
241 506 412 0 0 0
241 506 411 0 0 0
242 506 412 0 0 0
242 506 411 0 0 0
243 506 412 0 0 0
243 506 411 0 0 0
244 506 411 0 0 0
235 507 408 0 0 0
236 507 410 0 0 0
235 507 410 0 0 0
235 507 413 0 0 0
235 507 412 0 0 0
236 507 413 0 0 0
236 507 412 0 0 0
237 507 412 0 0 0
237 507 411 0 0 0
238 507 412 0 0 0
238 507 411 0 0 0
239 507 412 0 0 0
239 507 411 0 0 0
240 507 411 0 0 0
240 507 410 0 0 0
241 507 411 0 0 0
241 507 410 0 0 0
242 507 411 0 0 0
242 507 410 0 0 0
243 507 410 0 0 0
243 507 410 0 0 0
242 507 409 0 0 0
235 508 408 0 0 0
235 509 407 0 0 0
236 508 410 0 0 0
235 508 409 0 0 0
235 508 412 0 0 0
235 508 411 0 0 0
236 508 412 0 0 0
236 508 411 0 0 0
237 508 411 0 0 0
238 508 411 0 0 0
238 508 410 0 0 0
239 508 411 0 0 0
239 508 410 0 0 0
240 508 410 0 0 0
240 508 409 0 0 0
241 508 410 0 0 0
241 508 409 0 0 0
242 508 409 0 0 0
243 508 409 0 0 0
243 508 408 0 0 0
242 508 409 0 0 0
242 508 408 0 0 0
235 509 408 0 0 0
235 510 407 0 0 0
235 509 409 0 0 0
234 509 408 0 0 0
235 509 410 0 0 0
236 509 411 0 0 0
237 509 411 0 0 0
237 509 410 0 0 0
238 509 411 0 0 0
238 509 410 0 0 0
239 509 410 0 0 0
240 509 410 0 0 0
240 509 409 0 0 0
241 509 409 0 0 0
242 509 409 0 0 0
242 509 408 0 0 0
242 509 409 0 0 0
242 509 408 0 0 0
242 509 408 0 0 0
235 510 408 0 0 0
235 511 407 0 0 0
235 510 408 0 0 0
234 510 408 0 0 0
235 510 410 0 0 0
235 510 409 0 0 0
236 510 411 0 0 0
236 510 410 0 0 0
237 510 411 0 0 0
237 510 410 0 0 0
238 510 410 0 0 0
239 510 410 0 0 0
239 510 409 0 0 0
240 510 410 0 0 0
240 510 409 0 0 0
241 510 409 0 0 0
241 510 408 0 0 0
242 510 409 0 0 0
242 510 408 0 0 0
241 510 408 0 0 0
242 510 408 0 0 0
242 510 407 0 0 0
235 511 407 0 0 0
235 511 408 0 0 0
234 511 408 0 0 0
235 511 410 0 0 0
235 511 409 0 0 0
236 511 411 0 0 0
236 511 410 0 0 0
237 511 410 0 0 0
238 511 410 0 0 0
238 511 409 0 0 0
239 511 410 0 0 0
239 511 409 0 0 0
240 511 409 0 0 0
240 511 408 0 0 0
241 511 409 0 0 0
241 511 408 0 0 0
242 511 408 0 0 0
241 510 408 0 0 0
241 511 407 0 0 0
242 511 407 0 0 0
244 466 430 0 0 0
245 466 430 0 0 0
246 466 431 0 0 0
247 466 431 0 0 0
248 466 432 0 0 0
249 466 432 0 0 0
250 467 432 0 0 0
251 467 432 0 0 0
251 467 432 0 0 0
252 467 432 0 0 0
252 467 433 0 0 0
253 467 432 0 0 0
244 468 429 0 0 0
245 467 429 0 0 0
246 467 429 0 0 0
247 467 430 0 0 0
248 467 430 0 0 0
249 467 431 0 0 0
250 467 431 0 0 0
251 467 431 0 0 0
252 467 432 0 0 0
253 467 432 0 0 0
254 467 432 0 0 0
255 467 431 0 0 0
244 469 429 0 0 0
245 469 429 0 0 0
246 468 428 0 0 0
247 468 428 0 0 0
248 468 428 0 0 0
249 468 429 0 0 0
250 468 429 0 0 0
251 468 430 0 0 0
252 468 430 0 0 0
253 468 430 0 0 0
254 468 430 0 0 0
255 468 429 0 0 0
244 470 428 0 0 0
245 470 428 0 0 0
246 469 427 0 0 0
247 469 428 0 0 0
248 469 428 0 0 0
249 469 429 0 0 0
250 469 429 0 0 0
251 469 429 0 0 0
252 469 429 0 0 0
253 469 429 0 0 0
254 469 429 0 0 0
253 470 429 0 0 0
241 471 426 0 0 0
242 471 427 0 0 0
243 471 427 0 0 0
243 471 428 0 0 0
244 471 428 0 0 0
245 470 427 0 0 0
246 470 427 0 0 0
247 470 427 0 0 0
248 470 428 0 0 0
249 470 428 0 0 0
250 470 429 0 0 0
251 470 429 0 0 0
252 470 429 0 0 0
253 470 428 0 0 0
254 470 428 0 0 0
253 471 429 0 0 0
241 473 426 0 0 0
242 472 426 0 0 0
243 472 427 0 0 0
243 472 427 0 0 0
244 472 428 0 0 0
245 472 428 0 0 0
246 471 427 0 0 0
247 471 427 0 0 0
248 471 428 0 0 0
249 471 428 0 0 0
250 471 428 0 0 0
251 471 428 0 0 0
252 471 428 0 0 0
253 471 428 0 0 0
253 472 428 0 0 0
253 472 428 0 0 0
241 474 426 0 0 0
242 473 426 0 0 0
242 472 425 0 0 0
243 472 425 0 0 0
244 472 425 0 0 0
245 472 426 0 0 0
246 472 426 0 0 0
247 472 427 0 0 0
248 472 427 0 0 0
249 472 427 0 0 0
250 472 427 0 0 0
251 472 427 0 0 0
252 472 427 0 0 0
253 472 427 0 0 0
253 473 428 0 0 0
253 473 428 0 0 0
241 475 425 0 0 0
242 475 425 0 0 0
242 473 424 0 0 0
243 473 425 0 0 0
244 473 425 0 0 0
245 473 425 0 0 0
246 473 426 0 0 0
247 473 426 0 0 0
248 473 426 0 0 0
249 473 426 0 0 0
250 473 426 0 0 0
251 473 426 0 0 0
252 473 426 0 0 0
253 473 426 0 0 0
253 474 427 0 0 0
253 474 427 0 0 0
241 475 425 0 0 0
242 475 425 0 0 0
242 474 424 0 0 0
243 474 424 0 0 0
244 474 425 0 0 0
245 474 425 0 0 0
246 474 425 0 0 0
247 474 425 0 0 0
248 474 425 0 0 0
249 474 425 0 0 0
250 474 425 0 0 0
251 474 425 0 0 0
252 474 425 0 0 0
253 474 425 0 0 0
253 475 427 0 0 0
253 475 426 0 0 0
241 476 425 0 0 0
242 476 425 0 0 0
242 475 424 0 0 0
243 475 424 0 0 0
244 475 424 0 0 0
245 475 425 0 0 0
246 475 424 0 0 0
247 475 425 0 0 0
248 475 425 0 0 0
249 475 424 0 0 0
250 475 425 0 0 0
251 475 425 0 0 0
252 475 424 0 0 0
253 475 424 0 0 0
253 475 426 0 0 0
253 475 426 0 0 0
241 477 424 0 0 0
242 477 424 0 0 0
242 476 423 0 0 0
243 476 423 0 0 0
244 476 424 0 0 0
245 476 424 0 0 0
246 476 424 0 0 0
247 476 424 0 0 0
248 476 424 0 0 0
249 476 424 0 0 0
250 476 424 0 0 0
251 476 424 0 0 0
252 476 424 0 0 0
252 477 425 0 0 0
252 476 425 0 0 0
253 476 425 0 0 0
241 478 424 0 0 0
242 478 424 0 0 0
242 477 423 0 0 0
243 477 423 0 0 0
244 477 423 0 0 0
245 477 423 0 0 0
246 477 423 0 0 0
247 477 423 0 0 0
248 477 423 0 0 0
249 477 423 0 0 0
250 477 423 0 0 0
251 477 423 0 0 0
252 477 423 0 0 0
252 477 425 0 0 0
252 477 424 0 0 0
253 477 424 0 0 0
241 479 423 0 0 0
242 479 423 0 0 0
242 478 422 0 0 0
243 478 422 0 0 0
244 478 422 0 0 0
245 478 422 0 0 0
246 478 422 0 0 0
247 478 422 0 0 0
248 478 422 0 0 0
249 478 422 0 0 0
250 478 422 0 0 0
251 478 422 0 0 0
241 480 423 0 0 0
241 479 422 0 0 0
242 479 421 0 0 0
243 479 421 0 0 0
244 479 421 0 0 0
245 479 421 0 0 0
246 479 421 0 0 0
247 479 421 0 0 0
248 479 421 0 0 0
249 479 421 0 0 0
250 479 422 0 0 0
250 480 423 0 0 0
241 481 422 0 0 0
241 481 419 0 0 0
241 480 421 0 0 0
242 481 420 0 0 0
242 480 421 0 0 0
243 480 420 0 0 0
244 480 420 0 0 0
245 480 420 0 0 0
246 480 421 0 0 0
247 480 421 0 0 0
248 480 421 0 0 0
249 480 421 0 0 0
250 480 421 0 0 0
251 480 421 0 0 0
240 481 421 0 0 0
240 481 418 0 0 0
241 481 420 0 0 0
241 481 419 0 0 0
242 481 420 0 0 0
243 481 420 0 0 0
244 481 420 0 0 0
245 481 420 0 0 0
246 481 420 0 0 0
247 481 420 0 0 0
248 481 421 0 0 0
249 481 421 0 0 0
250 481 421 0 0 0
251 481 421 0 0 0
238 484 421 0 0 0
238 484 419 0 0 0
237 482 415 0 0 0
238 482 417 0 0 0
238 482 414 0 0 0
239 482 417 0 0 0
239 482 414 0 0 0
238 484 421 0 0 0
239 484 419 0 0 0
237 483 417 0 0 0
238 483 419 0 0 0
238 483 417 0 0 0
239 483 418 0 0 0
239 483 417 0 0 0
238 485 420 0 0 0
239 485 420 0 0 0
238 484 420 0 0 0
239 484 419 0 0 0
238 486 420 0 0 0
239 486 420 0 0 0
238 485 419 0 0 0
239 485 419 0 0 0
238 486 420 0 0 0
239 487 419 0 0 0
238 486 419 0 0 0
239 486 419 0 0 0
238 487 419 0 0 0
239 487 419 0 0 0
238 487 418 0 0 0
239 487 418 0 0 0
238 488 418 0 0 0
239 488 418 0 0 0
238 488 418 0 0 0
239 488 417 0 0 0
238 489 418 0 0 0
239 489 418 0 0 0
238 489 417 0 0 0
239 489 417 0 0 0
238 490 418 0 0 0
239 490 418 0 0 0
238 490 416 0 0 0
239 490 416 0 0 0
238 492 417 0 0 0
239 492 417 0 0 0
238 491 416 0 0 0
239 491 416 0 0 0
238 493 417 0 0 0
239 493 417 0 0 0
238 492 415 0 0 0
239 492 415 0 0 0
238 494 416 0 0 0
239 494 416 0 0 0
238 493 415 0 0 0
239 493 415 0 0 0
238 495 416 0 0 0
238 495 416 0 0 0
238 494 414 0 0 0
239 494 414 0 0 0
238 496 416 0 0 0
238 496 415 0 0 0
238 495 414 0 0 0
239 495 414 0 0 0
237 497 415 0 0 0
238 497 415 0 0 0
238 496 414 0 0 0
239 496 413 0 0 0
237 498 415 0 0 0
237 497 414 0 0 0
238 497 413 0 0 0
239 497 413 0 0 0
240 482 420 0 0 0
241 482 420 0 0 0
242 482 419 0 0 0
243 482 419 0 0 0
244 482 419 0 0 0
245 482 419 0 0 0
246 482 420 0 0 0
247 482 420 0 0 0
248 482 420 0 0 0
249 482 420 0 0 0
250 482 421 0 0 0
251 482 421 0 0 0
240 483 419 0 0 0
241 483 419 0 0 0
242 483 419 0 0 0
243 483 419 0 0 0
244 483 419 0 0 0
245 483 419 0 0 0
246 483 419 0 0 0
247 483 420 0 0 0
248 483 420 0 0 0
249 483 420 0 0 0
250 483 421 0 0 0
251 483 421 0 0 0
240 484 419 0 0 0
241 484 419 0 0 0
242 484 418 0 0 0
243 484 418 0 0 0
244 484 418 0 0 0
245 484 418 0 0 0
246 484 419 0 0 0
247 484 419 0 0 0
248 484 420 0 0 0
249 484 420 0 0 0
250 484 420 0 0 0
251 484 421 0 0 0
240 485 418 0 0 0
241 485 418 0 0 0
242 485 418 0 0 0
243 485 417 0 0 0
244 485 418 0 0 0
245 485 418 0 0 0
246 485 418 0 0 0
247 485 419 0 0 0
248 485 419 0 0 0
249 485 420 0 0 0
250 485 420 0 0 0
249 485 421 0 0 0
240 486 418 0 0 0
241 486 417 0 0 0
242 486 417 0 0 0
243 486 417 0 0 0
244 486 417 0 0 0
245 486 418 0 0 0
246 486 418 0 0 0
247 486 418 0 0 0
248 486 419 0 0 0
249 486 419 0 0 0
250 486 420 0 0 0
249 486 420 0 0 0
240 487 417 0 0 0
241 487 417 0 0 0
242 487 417 0 0 0
243 487 417 0 0 0
244 487 417 0 0 0
245 487 417 0 0 0
246 487 418 0 0 0
247 487 418 0 0 0
248 487 419 0 0 0
249 487 419 0 0 0
248 487 420 0 0 0
249 487 420 0 0 0
240 488 417 0 0 0
241 488 416 0 0 0
242 488 416 0 0 0
243 488 416 0 0 0
244 488 416 0 0 0
245 488 417 0 0 0
246 488 417 0 0 0
247 488 418 0 0 0
248 488 418 0 0 0
249 488 419 0 0 0
248 488 420 0 0 0
249 488 420 0 0 0
240 489 416 0 0 0
241 489 416 0 0 0
242 489 416 0 0 0
243 489 416 0 0 0
244 489 416 0 0 0
245 489 416 0 0 0
246 489 417 0 0 0
247 489 417 0 0 0
248 489 418 0 0 0
249 489 418 0 0 0
248 489 419 0 0 0
249 489 420 0 0 0
240 490 416 0 0 0
241 490 415 0 0 0
242 490 415 0 0 0
243 490 415 0 0 0
244 490 416 0 0 0
245 490 416 0 0 0
246 490 416 0 0 0
247 490 417 0 0 0
248 490 417 0 0 0
249 490 418 0 0 0
248 490 419 0 0 0
249 490 419 0 0 0
240 491 415 0 0 0
241 491 415 0 0 0
242 491 415 0 0 0
243 491 415 0 0 0
244 491 415 0 0 0
245 491 416 0 0 0
246 491 416 0 0 0
247 491 416 0 0 0
248 491 417 0 0 0
249 491 417 0 0 0
248 491 419 0 0 0
249 491 419 0 0 0
240 492 415 0 0 0
241 492 414 0 0 0
242 492 414 0 0 0
243 492 414 0 0 0
244 492 415 0 0 0
245 492 415 0 0 0
245 492 417 0 0 0
245 492 417 0 0 0
246 492 418 0 0 0
247 492 418 0 0 0
248 492 418 0 0 0
249 492 419 0 0 0
240 493 414 0 0 0
241 493 414 0 0 0
242 493 414 0 0 0
243 493 414 0 0 0
244 493 414 0 0 0
245 493 415 0 0 0
245 493 417 0 0 0
245 493 417 0 0 0
246 493 417 0 0 0
247 493 418 0 0 0
248 493 418 0 0 0
249 493 418 0 0 0
240 494 414 0 0 0
241 494 414 0 0 0
242 494 414 0 0 0
243 494 414 0 0 0
244 494 414 0 0 0
245 494 414 0 0 0
245 494 416 0 0 0
245 494 416 0 0 0
240 495 414 0 0 0
241 495 413 0 0 0
242 495 413 0 0 0
243 495 414 0 0 0
244 495 414 0 0 0
245 495 414 0 0 0
244 495 415 0 0 0
245 495 416 0 0 0
240 496 413 0 0 0
241 496 413 0 0 0
242 496 413 0 0 0
243 496 413 0 0 0
244 496 414 0 0 0
245 496 414 0 0 0
244 496 415 0 0 0
245 496 416 0 0 0
240 497 413 0 0 0
241 497 413 0 0 0
242 497 413 0 0 0
243 497 413 0 0 0
244 497 414 0 0 0
245 497 414 0 0 0
244 497 415 0 0 0
245 497 415 0 0 0
237 499 414 0 0 0
237 498 413 0 0 0
238 498 413 0 0 0
239 498 413 0 0 0
236 499 413 0 0 0
237 499 413 0 0 0
238 499 413 0 0 0
239 499 413 0 0 0
236 500 412 0 0 0
237 500 412 0 0 0
238 500 412 0 0 0
239 500 412 0 0 0
236 502 412 0 0 0
237 502 412 0 0 0
238 501 411 0 0 0
239 501 411 0 0 0
234 502 412 0 0 0
235 502 412 0 0 0
235 503 412 0 0 0
235 502 411 0 0 0
236 502 411 0 0 0
237 502 411 0 0 0
238 502 411 0 0 0
239 502 411 0 0 0
234 503 411 0 0 0
235 504 411 0 0 0
235 504 411 0 0 0
236 504 411 0 0 0
236 503 410 0 0 0
237 503 410 0 0 0
238 503 410 0 0 0
239 503 410 0 0 0
234 505 410 0 0 0
235 505 410 0 0 0
234 504 409 0 0 0
235 504 409 0 0 0
236 504 409 0 0 0
237 504 409 0 0 0
238 504 409 0 0 0
239 504 409 0 0 0
234 506 409 0 0 0
235 506 409 0 0 0
234 505 408 0 0 0
235 505 408 0 0 0
236 505 408 0 0 0
237 505 408 0 0 0
238 505 408 0 0 0
239 505 408 0 0 0
234 507 408 0 0 0
235 507 409 0 0 0
234 506 408 0 0 0
235 506 408 0 0 0
236 506 408 0 0 0
237 506 408 0 0 0
238 506 408 0 0 0
239 506 408 0 0 0
234 508 407 0 0 0
235 508 408 0 0 0
234 507 407 0 0 0
235 507 407 0 0 0
236 507 407 0 0 0
237 507 407 0 0 0
238 507 407 0 0 0
239 507 407 0 0 0
234 509 406 0 0 0
235 509 407 0 0 0
234 508 406 0 0 0
235 508 406 0 0 0
236 508 406 0 0 0
237 508 406 0 0 0
238 508 406 0 0 0
239 508 406 0 0 0
234 510 405 0 0 0
234 510 406 0 0 0
234 509 405 0 0 0
235 509 405 0 0 0
236 509 405 0 0 0
237 509 405 0 0 0
238 509 405 0 0 0
239 509 405 0 0 0
233 511 405 0 0 0
234 511 405 0 0 0
234 510 405 0 0 0
235 510 405 0 0 0
236 510 405 0 0 0
237 510 405 0 0 0
238 510 405 0 0 0
239 510 405 0 0 0
234 511 404 0 0 0
235 511 404 0 0 0
236 511 404 0 0 0
237 511 404 0 0 0
238 511 404 0 0 0
239 511 404 0 0 0
240 498 413 0 0 0
241 498 413 0 0 0
242 498 413 0 0 0
243 498 413 0 0 0
244 498 413 0 0 0
245 498 413 0 0 0
244 498 415 0 0 0
245 498 415 0 0 0
240 499 413 0 0 0
241 499 413 0 0 0
242 499 413 0 0 0
243 499 413 0 0 0
244 499 413 0 0 0
245 499 413 0 0 0
244 499 414 0 0 0
245 499 415 0 0 0
240 500 412 0 0 0
241 500 412 0 0 0
242 500 412 0 0 0
243 500 412 0 0 0
244 500 413 0 0 0
245 500 413 0 0 0
244 500 414 0 0 0
245 500 414 0 0 0
240 501 411 0 0 0
241 501 412 0 0 0
242 501 412 0 0 0
243 501 412 0 0 0
244 501 412 0 0 0
245 501 412 0 0 0
244 501 413 0 0 0
245 501 413 0 0 0
240 502 411 0 0 0
241 502 411 0 0 0
242 502 411 0 0 0
243 502 411 0 0 0
244 502 411 0 0 0
245 502 411 0 0 0
244 502 412 0 0 0
245 502 413 0 0 0
240 503 410 0 0 0
241 503 410 0 0 0
242 503 410 0 0 0
243 503 411 0 0 0
244 503 411 0 0 0
245 503 411 0 0 0
244 503 412 0 0 0
245 503 412 0 0 0
240 504 409 0 0 0
241 504 410 0 0 0
242 504 410 0 0 0
243 504 410 0 0 0
243 504 411 0 0 0
243 504 411 0 0 0
244 504 411 0 0 0
245 504 411 0 0 0
240 505 409 0 0 0
241 505 409 0 0 0
242 505 409 0 0 0
243 505 409 0 0 0
243 506 410 0 0 0
243 505 410 0 0 0
244 505 410 0 0 0
245 505 411 0 0 0
240 506 408 0 0 0
241 506 408 0 0 0
241 507 409 0 0 0
242 507 409 0 0 0
240 507 407 0 0 0
241 507 407 0 0 0
241 508 408 0 0 0
242 508 408 0 0 0
240 508 406 0 0 0
241 508 406 0 0 0
241 509 407 0 0 0
242 508 408 0 0 0
240 509 405 0 0 0
241 509 405 0 0 0
241 510 406 0 0 0
241 510 407 0 0 0
240 510 405 0 0 0
241 510 405 0 0 0
241 511 406 0 0 0
241 511 406 0 0 0
240 511 404 0 0 0
241 511 404 0 0 0
